<?xml version="1.0" encoding="UTF-8"?>
<svg xmlns="http://www.w3.org/2000/svg" width="77.884" height="73.601" viewBox="0 0 77.884 73.601">
  <g id="组_37" transform="translate(-87.967 -80.894)">
    <path id="路径_107" d="M305.875,246.732H272.39a2.7,2.7,0,0,1-1.844-.729l-7.626-7.143a2.682,2.682,0,0,0-1.844-.729h-14.65a9.22,9.22,0,0,0-9.218,9.218v55.165a9.22,9.22,0,0,0,9.218,9.218h59.441a9.22,9.22,0,0,0,9.218-9.218V255.957a9.211,9.211,0,0,0-9.211-9.225Zm-15.092,34.48a5.012,5.012,0,0,1-7.094.126L281.4,279.13v14.019a5.019,5.019,0,0,1-10.038,0v-14.3l-2.229,2.1a5.016,5.016,0,1,1-6.876-7.3L272.9,263.625a5.012,5.012,0,0,1,6.918.042l10.837,10.451a5,5,0,0,1,.133,7.094Z" transform="translate(-149.243 -157.237)" fill="#ff8e12"></path>
    <path id="路径_108" d="M315.093,255.957a9.22,9.22,0,0,0-9.218-9.218H272.39a2.7,2.7,0,0,1-1.844-.729l-7.626-7.15a2.682,2.682,0,0,0-1.844-.729h-14.65a9.22,9.22,0,0,0-9.218,9.218v55.165a9.22,9.22,0,0,0,9.218,9.218H273.9a61.8,61.8,0,0,0,41.188-46.964v-8.811Zm-24.309,25.256a5.012,5.012,0,0,1-7.094.126L281.4,279.13V293.15a5.019,5.019,0,1,1-10.038,0v-14.3l-2.229,2.1a5.016,5.016,0,1,1-6.876-7.3L272.9,263.625a5.012,5.012,0,0,1,6.918.042l10.837,10.451a5,5,0,0,1,.133,7.094Z" transform="translate(-149.243 -157.237)" fill="#fca315"></path>
    <path id="路径_109" d="M272.39,246.732a2.7,2.7,0,0,1-1.844-.729l-7.626-7.143a2.682,2.682,0,0,0-1.844-.729h-14.65a9.22,9.22,0,0,0-9.218,9.218v45.583c.126,0,.252.007.379.007a61.444,61.444,0,0,0,33.779-10.059V278.85l-2.229,2.1a5.016,5.016,0,1,1-6.876-7.3L272.9,263.625a5.012,5.012,0,0,1,6.918.042l6.119,5.9a61.516,61.516,0,0,0,11.4-22.844H272.39Z" transform="translate(-149.243 -157.237)" fill="#fcb138"></path>
    <path id="路径_110" d="M271.36,246.522a2.768,2.768,0,0,1-.813-.519l-7.626-7.143a2.682,2.682,0,0,0-1.844-.729h-14.65a9.22,9.22,0,0,0-9.218,9.218v21.877a61.761,61.761,0,0,0,34.151-22.7Z" transform="translate(-149.243 -157.237)" fill="#ffc65e"></path>
  </g>
</svg>
