<?xml version="1.0" encoding="UTF-8"?>
<svg xmlns="http://www.w3.org/2000/svg" width="74.608" height="70.505" viewBox="0 0 74.608 70.505">
  <g id="组_40" transform="translate(-86.972 -80.1)">
    <path id="路径_117" d="M321.164,246.37H289.087a2.582,2.582,0,0,1-1.766-.7l-7.306-6.842a2.569,2.569,0,0,0-1.766-.7H264.215a8.832,8.832,0,0,0-8.83,8.83v52.845a8.832,8.832,0,0,0,8.83,8.83h56.941a8.832,8.832,0,0,0,8.83-8.83v-44.6a8.824,8.824,0,0,0-8.823-8.837Zm-14.846,37.918L295.936,294.3a4.8,4.8,0,0,1-6.628.04l-10.193-9.6a4.807,4.807,0,0,1,6.587-7l2.135,2.008V266.058a4.808,4.808,0,1,1,9.616,0v13.43l2.2-2.115a4.8,4.8,0,1,1,6.668,6.916Z" transform="translate(-168.413 -158.031)" fill="#ff8e12"></path>
    <path id="路径_118" d="M329.994,255.207a8.832,8.832,0,0,0-8.83-8.83H289.088a2.582,2.582,0,0,1-1.766-.7l-7.306-6.849a2.569,2.569,0,0,0-1.766-.7H264.216a8.832,8.832,0,0,0-8.83,8.83v52.845a8.832,8.832,0,0,0,8.83,8.83h21.9A59.218,59.218,0,0,0,329.988,269.2V255.207Zm-23.676,29.082L295.937,294.3a4.8,4.8,0,0,1-6.628.04l-10.193-9.6a4.807,4.807,0,1,1,6.587-7l2.135,2.008V266.058a4.808,4.808,0,0,1,9.616,0v13.43l2.2-2.115a4.8,4.8,0,1,1,6.668,6.916Z" transform="translate(-168.414 -158.031)" fill="#fca315"></path>
    <path id="路径_119" d="M289.087,246.37a2.582,2.582,0,0,1-1.766-.7l-7.306-6.842a2.569,2.569,0,0,0-1.766-.7H264.215a8.832,8.832,0,0,0-8.83,8.83v41.927c.739.027,1.484.047,2.229.047a58.947,58.947,0,0,0,21.615-4.076l-.128-.121a4.807,4.807,0,1,1,6.587-7l2.135,2.008V266.058a4.808,4.808,0,1,1,9.616,0v7.453a59.168,59.168,0,0,0,16.941-27.134H289.087Z" transform="translate(-168.413 -158.031)" fill="#fcb138"></path>
    <path id="路径_120" d="M288.53,246.3a2.511,2.511,0,0,1-1.2-.631l-7.312-6.842a2.569,2.569,0,0,0-1.766-.7H264.215a8.832,8.832,0,0,0-8.83,8.83v19.688A59.051,59.051,0,0,0,288.53,246.3Z" transform="translate(-168.413 -158.031)" fill="#ffc65e"></path>
  </g>
</svg>
