<?xml version="1.0" encoding="UTF-8"?>
<svg xmlns="http://www.w3.org/2000/svg" width="82.443" height="64.747" viewBox="0 0 82.443 64.747">
  <g id="组_36" transform="translate(-74.738 -90.75)">
    <path id="路径_101" d="M241.11,368.222a9.4,9.4,0,0,1-13.14.14l-34.551-33.317a9.837,9.837,0,0,0-.087,1.261v44.95a9.9,9.9,0,0,0,9.9,9.9h62.639a9.9,9.9,0,0,0,9.9-9.9V336.312a9.9,9.9,0,0,0-.367-2.641L241.11,368.222Z" transform="translate(-118.586 -235.657)" fill="#05c46d"></path>
    <path id="路径_102" d="M260.511,314.379a1.744,1.744,0,0,0,2.435-.027L297.9,279.141a9.854,9.854,0,0,0-4.776-1.227H230.482a9.822,9.822,0,0,0-5.816,1.9l35.845,34.565Z" transform="translate(-145.839 -187.163)" fill="#1dce75"></path>
    <path id="路径_103" d="M275.723,336.312a9.9,9.9,0,0,0-.367-2.641l-34.3,34.551a9.4,9.4,0,0,1-13.14.14l-34.551-33.317a9.834,9.834,0,0,0-.087,1.261v44.95a9.9,9.9,0,0,0,9.9,9.9h34.084a58.806,58.806,0,0,0,38.46-46.011Z" transform="translate(-118.542 -235.657)" fill="#1dce75"></path>
    <path id="路径_104" d="M249.8,300.19a58.529,58.529,0,0,0,9.525-22.225h-56.1a9.822,9.822,0,0,0-5.816,1.9l35.845,34.565a1.739,1.739,0,0,0,1.821.367c.247-.167.487-.34.734-.507l13.987-14.1Zm-48.072,24.993a58.416,58.416,0,0,0,25.613-5.87L193.418,286.6a9.842,9.842,0,0,0-.087,1.261v36.719a59.042,59.042,0,0,0,8.4.6Z" transform="translate(-118.586 -187.208)" fill="#3cd38e"></path>
    <path id="路径_105" d="M203.23,277.921a9.822,9.822,0,0,0-5.816,1.9L215.3,297.064a58.958,58.958,0,0,0,20.7-19.15H203.23Zm4.656,22.592-14.468-13.954a9.842,9.842,0,0,0-.087,1.261v16.188a58.447,58.447,0,0,0,14.554-3.5Z" transform="translate(-118.586 -187.164)" fill="#48e1aa"></path>
  </g>
</svg>
