<?xml version="1.0" encoding="UTF-8"?>
<svg xmlns="http://www.w3.org/2000/svg" width="80.214" height="77.181" viewBox="0 0 80.214 77.181">
  <g id="组_51" transform="translate(-62.23 -74.896)">
    <path id="路径_129" d="M136.7,259.479l23.609,8.871a1.447,1.447,0,0,0,1.493-.3l35.933-33.579a.135.135,0,0,1,.2.184l-27.469,34.946a1.441,1.441,0,0,0,.618,2.236l29.8,11.416a1.444,1.444,0,0,0,1.933-1.078l13.139-68.939a1.44,1.44,0,0,0-2.144-1.513l-77.331,45.159a1.44,1.44,0,0,0,.224,2.591Zm32.908,16.677,7,3.051a1.441,1.441,0,0,1,.421,2.361l-7,6.734a1.441,1.441,0,0,1-2.44-1.039v-9.786A1.443,1.443,0,0,1,169.61,276.157Z" transform="translate(-73.536 -136.631)" fill="#05c46d"></path>
    <path id="路径_130" d="M262.008,268.322a38.608,38.608,0,0,0,35.117-6.077l9.332-48.954a1.44,1.44,0,0,0-2.144-1.513l-64.7,37.781A38.759,38.759,0,0,0,255.2,265.4l33.039-30.876a.135.135,0,0,1,.2.184l-26.43,33.611Z" transform="translate(-164.047 -136.675)" fill="#1dce75"></path>
    <path id="路径_131" d="M278.078,267.851a38.587,38.587,0,0,0,29.58-37.511,39.655,39.655,0,0,0-.263-4.446l-61.021,35.63a38.411,38.411,0,0,0,22.7,7.392c.552,0,1.1-.02,1.637-.039L294.124,247a.135.135,0,0,1,.2.184l-16.243,20.669Z" transform="translate(-169.937 -149.152)" fill="#3cd38e"></path>
    <path id="路径_132" d="M332.865,308.322a38.569,38.569,0,0,0,34.618-21.55L330.7,308.263c.717.039,1.44.059,2.164.059Z" transform="translate(-243.433 -202.211)" fill="#48e1aa"></path>
  </g>
</svg>
