<?xml version="1.0" encoding="UTF-8"?>
<svg xmlns="http://www.w3.org/2000/svg" width="71.433" height="70.505" viewBox="0 0 71.433 70.505">
  <g id="组_49" transform="translate(-1631 -275.629)">
    <path id="交叉_4" d="M5.566,70.505A5.582,5.582,0,0,1,0,64.939V27.367A5.582,5.582,0,0,1,5.566,21.8h10.2V49.168a5.582,5.582,0,0,0,5.566,5.566H48.7v10.2a5.583,5.583,0,0,1-5.566,5.566ZM28.295,48.7a5.582,5.582,0,0,1-5.566-5.566V5.566A5.583,5.583,0,0,1,28.295,0H65.867a5.583,5.583,0,0,1,5.566,5.566V43.138A5.582,5.582,0,0,1,65.867,48.7Z" transform="translate(1631 275.629)" fill="#2595e8"></path>
    <path id="交叉_3" d="M2.459,69.551A5.572,5.572,0,0,1,0,64.939V27.367A5.582,5.582,0,0,1,5.566,21.8h10.2V49.168a5.583,5.583,0,0,0,5.566,5.566H48.7v2.75a55.767,55.767,0,0,1-35.9,13.021A56.3,56.3,0,0,1,2.459,69.551ZM28.295,48.7a5.582,5.582,0,0,1-5.566-5.566V5.566A5.583,5.583,0,0,1,28.295,0H65.867a5.535,5.535,0,0,1,1.055.1A56.059,56.059,0,0,1,68.8,14.516,55.741,55.741,0,0,1,57.148,48.7Z" transform="translate(1631 275.629)" fill="#3a9ced"></path>
    <path id="交叉_2" d="M0,51.424V27.367A5.582,5.582,0,0,1,5.566,21.8h10.2V49.168a5.516,5.516,0,0,0,.535,2.374A45.357,45.357,0,0,1,0,51.424Zm22.729-8.286V5.566A5.583,5.583,0,0,1,28.295,0h24.46a45.213,45.213,0,0,1,.6,7.345A44.89,44.89,0,0,1,26.565,48.428,5.588,5.588,0,0,1,22.729,43.138Z" transform="translate(1631 275.629)" fill="#59adf8"></path>
    <path id="交叉_1" d="M0,27.925v-.558A5.582,5.582,0,0,1,5.566,21.8H15.771v6.681a28.5,28.5,0,0,1-6.92.848A28.409,28.409,0,0,1,0,27.925ZM22.729,5.566A5.583,5.583,0,0,1,28.295,0h8.979c.009.3.014.594.014.893A28.427,28.427,0,0,1,22.729,25.719Z" transform="translate(1631 275.629)" fill="#6bc2fc"></path>
  </g>
</svg>
