<?xml version="1.0" encoding="UTF-8"?>
<svg xmlns="http://www.w3.org/2000/svg" width="89.405" height="73.764" viewBox="0 0 89.405 73.764">
  <g id="组_73" transform="translate(-844.669 -329.165)">
    <text id="撤回" transform="translate(861.457 399.043)" fill="#707070" font-size="10" font-family="YuGothicUI-Regular, Yu Gothic UI">
      <tspan x="0" y="0">撤回</tspan>
    </text>
    <path id="交叉_16" d="M79.437,73.6H8.664A8.671,8.671,0,0,1,0,64.932V8.665A8.671,8.671,0,0,1,8.664,0H79.438a9.768,9.768,0,0,1,9.774,9.775V63.821A9.767,9.767,0,0,1,79.445,73.6Z" transform="translate(844.862 329.333)" fill="#2595e8"></path>
    <path id="交叉_15" d="M8.664,73.6A8.671,8.671,0,0,1,0,64.932V8.665A8.671,8.671,0,0,1,8.664,0H79.438a9.769,9.769,0,0,1,5.388,1.616c6.291,22.041-9.072,52.128-38.4,71.98Z" transform="translate(844.669 329.165)" fill="#3a9ced"></path>
    <path id="交叉_14" d="M0,64.932V8.665A8.671,8.671,0,0,1,8.664,0H63.393C66.38,16.464,54.8,37.786,33.654,52.051,22.63,59.487,10.8,63.793,0,64.946,0,64.941,0,64.937,0,64.932Z" transform="translate(844.669 329.165)" fill="#59adf8"></path>
    <path id="交叉_13" d="M0,8.665A8.671,8.671,0,0,1,8.664,0h30.39c-1.106,8.285-7.329,17.552-17.145,24.173C14.683,29.046,6.856,31.578,0,31.746Z" transform="translate(844.669 329.165)" fill="#6bc2fc"></path>
    <g id="组_71" transform="translate(858.266 340.988)">
      <path id="路径_157" d="M225.132,181.823a3.1,3.1,0,0,0-3.1-3.1H181.087a3.1,3.1,0,0,0-3.1,3.1v.019a3.1,3.1,0,0,0,3.1,3.1h40.947a3.1,3.1,0,0,0,3.1-3.1v-.019Zm-18.66-15.55a3.1,3.1,0,0,0-3.1-3.1H181.087a3.1,3.1,0,0,0-3.1,3.1v.019a3.1,3.1,0,0,0,3.1,3.1h22.287a3.1,3.1,0,0,0,3.1-3.1v-.019Zm7.29-11.98a52.118,52.118,0,0,1,16.539,2.345,18.912,18.912,0,0,1,8.876,7.408.4.4,0,0,0,.51.149.4.4,0,0,0,.212-.485l-.006-.019a49.519,49.519,0,0,0-2.438-5.722,32.674,32.674,0,0,0-4.777-7.253,25.723,25.723,0,0,0-7.694-5.642,44.741,44.741,0,0,0-9.834-3.552,1.456,1.456,0,0,1-1.319-1.449l.012-4.124a1.468,1.468,0,0,0-2.42-1.113l-14.269,12.347a1.468,1.468,0,0,0-.006,2.2L211.3,161.869a1.455,1.455,0,1,0,2.426-1.095l.031-6.481Zm-25.95-3.6a3.1,3.1,0,0,0-3.1-3.1h-3.626a3.1,3.1,0,0,0-3.1,3.1v.025a3.1,3.1,0,0,0,3.1,3.1h3.626a3.1,3.1,0,0,0,3.1-3.1V150.7Z" transform="translate(-177.99 -134.486)" fill="#fff"></path>
    </g>
  </g>
</svg>
