<?xml version="1.0" encoding="UTF-8"?>
<svg xmlns="http://www.w3.org/2000/svg" width="84.836" height="71.004" viewBox="0 0 84.836 71.004">
  <g id="组_33" transform="translate(-103.252 -107.385)">
    <path id="路径_82" d="M247.648,279.036a12.62,12.62,0,0,1,11.371-7.053h54.41v-3.036a9.846,9.846,0,0,0-9.85-9.85H289.37a9.83,9.83,0,0,1-6.333-2.31l-11.049-9.281a9.868,9.868,0,0,0-6.333-2.31h-17.52a9.846,9.846,0,0,0-9.85,9.85v42.867Z" transform="translate(-135.033 -137.811)" fill="#f23d4f"></path>
    <path id="路径_83" d="M323.068,493.722H265.183a6.217,6.217,0,0,0-5.566,3.447L245.4,525.821a9.837,9.837,0,0,0,8.89,5.634h55.451a9.868,9.868,0,0,0,9-5.833l.014.014,10.014-23.243a6.212,6.212,0,0,0-5.7-8.671Zm-17.561,30.755H287a3.77,3.77,0,1,1,0-7.54h18.507a3.77,3.77,0,1,1,0,7.54Z" transform="translate(-141.197 -353.066)" fill="#f23d4f"></path>
    <path id="路径_84" d="M309.1,263.169c0-.809-.021-1.611-.055-2.406a9.772,9.772,0,0,0-5.47-1.659H289.37a9.83,9.83,0,0,1-6.333-2.31l-11.049-9.288a9.868,9.868,0,0,0-6.333-2.31h-17.52a9.846,9.846,0,0,0-9.85,9.85v42.867l9.363-18.877a12.62,12.62,0,0,1,11.371-7.053h49.44a60.248,60.248,0,0,0,.644-8.815Z" transform="translate(-135.033 -137.811)" fill="#fc4956"></path>
    <path id="路径_85" d="M265.183,493.678a6.217,6.217,0,0,0-5.566,3.447L245.4,525.777a9.837,9.837,0,0,0,8.89,5.634h29.432a60.49,60.49,0,0,0,10.185-6.985h-6.916a3.77,3.77,0,1,1,0-7.54h14.38A60.119,60.119,0,0,0,313.3,493.671H265.183Z" transform="translate(-141.197 -353.022)" fill="#fc4956"></path>
    <path id="路径_86" d="M290.055,259.1h-.672a9.83,9.83,0,0,1-6.333-2.31l-11.063-9.288a9.868,9.868,0,0,0-6.333-2.31h-17.52a9.846,9.846,0,0,0-9.85,9.85v42.867l9.363-18.877a12.62,12.62,0,0,1,11.371-7.053h25.45a59.763,59.763,0,0,0,5.586-12.879Z" transform="translate(-135.033 -137.811)" fill="#ff5c64"></path>
    <path id="路径_87" d="M290.622,497.221l-9.432,19.014a60.357,60.357,0,0,0,36.1-22.462H296.181a6.183,6.183,0,0,0-5.559,3.448Z" transform="translate(-172.195 -353.11)" fill="#ff5c64"></path>
    <path id="路径_88" d="M271.254,246.952a9.841,9.841,0,0,0-5.607-1.755H248.134a9.846,9.846,0,0,0-9.85,9.85v21.838a60.512,60.512,0,0,0,32.969-29.933Z" transform="translate(-135.033 -137.811)" fill="#ff716e"></path>
  </g>
</svg>
