<?xml version="1.0" encoding="UTF-8"?>
<svg xmlns="http://www.w3.org/2000/svg" width="79.545" height="73.783" viewBox="0 0 79.545 73.783">
  <g id="组_35" transform="translate(-83.125 -83.119)">
    <path id="路径_94" d="M205.7,247.874l31.831,14.762a6.237,6.237,0,0,0,5.406-.058l31.045-15.254a6.274,6.274,0,0,0,.07-11.228l-30.751-15.6a6.3,6.3,0,0,0-5.649-.013l-32.119,16.085a6.278,6.278,0,0,0,.166,11.3Zm68.047,20.316-33.544,17.35L205.82,268.746a4.008,4.008,0,0,0-3.521,7.2l34.586,16.89a7.6,7.6,0,0,0,6.806-.077l33.736-17.453a4.006,4.006,0,1,0-3.675-7.119Z" transform="translate(-116.924 -136.702)" fill="#fc7032"></path>
    <path id="路径_95" d="M202.29,501.1l34.586,16.89a7.6,7.6,0,0,0,6.806-.077l33.736-17.453a4.012,4.012,0,1,0-3.687-7.125l-33.544,17.35L205.812,493.9a4.009,4.009,0,1,0-3.521,7.2Z" transform="translate(-116.916 -375.688)" fill="#fc7032"></path>
    <path id="路径_96" d="M251.848,220.483l-32.126,16.085a6.276,6.276,0,0,0,.173,11.3l31.831,14.762a6.236,6.236,0,0,0,5.406-.058l23.383-11.484a47.963,47.963,0,0,0,.147-18.846L257.5,220.5a6.3,6.3,0,0,0-5.649-.013Z" transform="translate(-131.109 -136.702)" fill="#ff7c33"></path>
    <path id="路径_97" d="M263.731,502.762l-23.517,12.168L205.82,498.135a4.008,4.008,0,1,0-3.521,7.2l34.586,16.89a7.6,7.6,0,0,0,6.806-.077l11.8-6.1a47.768,47.768,0,0,0,8.244-13.286Zm-24.6,25.473L205.82,511.964a4.008,4.008,0,0,0-3.521,7.2l25.69,12.545a47.165,47.165,0,0,0,11.139-3.477Z" transform="translate(-116.924 -379.921)" fill="#ff7c33"></path>
    <path id="路径_98" d="M254.152,226l-10.845-5.5a6.3,6.3,0,0,0-5.649-.013l-32.119,16.085a6.276,6.276,0,0,0,.173,11.3l30.234,14.021A47.934,47.934,0,0,0,254.152,226Zm-24.917,40.35L205.82,254.916a4.008,4.008,0,1,0-3.521,7.2l16.986,8.3a47.287,47.287,0,0,0,9.95-4.064Zm-23.057,5.892a47.745,47.745,0,0,0,6.007-.39l-6.365-3.106a4.011,4.011,0,0,0-5.362,1.841,3.96,3.96,0,0,0-.371,1.253,47.863,47.863,0,0,0,6.09.4Z" transform="translate(-116.924 -136.702)" fill="#ff9552"></path>
    <path id="路径_99" d="M251.848,220.511,219.723,236.6a6.276,6.276,0,0,0,.173,11.3l7.432,3.445a48.119,48.119,0,0,0,27.3-31.493,6.3,6.3,0,0,0-2.78.658Z" transform="translate(-131.109 -136.729)" fill="#ffa56a"></path>
  </g>
</svg>
