<?xml version="1.0" encoding="UTF-8"?>
<svg xmlns="http://www.w3.org/2000/svg" width="64.155" height="58.478" viewBox="0 0 64.155 58.478">
  <g id="贷款" transform="translate(-60.715 -96)">
    <path id="路径_429" d="M92.3,154.478a29.274,29.274,0,0,1-29.241-29.241,28.951,28.951,0,0,1,3.432-13.771l-3.424,1.052A1.82,1.82,0,0,1,62,109.039l8.239-2.526a1.82,1.82,0,0,1,1.962,2.868,25.329,25.329,0,0,0-5.5,15.856A25.617,25.617,0,0,0,101.838,149a1.819,1.819,0,1,1,1.354,3.377,29.084,29.084,0,0,1-10.888,2.1Zm21.773-10.75a1.82,1.82,0,0,1-1.445-2.926,25.369,25.369,0,0,0,5.269-15.561,25.614,25.614,0,0,0-35.565-23.589A1.819,1.819,0,1,1,80.92,98.3a29.257,29.257,0,0,1,37.265,40.569l4.374-1.226a1.819,1.819,0,1,1,.979,3.5l-8.974,2.515A2.017,2.017,0,0,1,114.076,143.728Z" transform="translate(0)" fill="#231815"></path>
    <path id="路径_430" d="M366.528,344.412H359.38v-4.356h7.147a1.82,1.82,0,0,0,0-3.639h-5.4l4.229-3.916a1.821,1.821,0,1,0-2.475-2.671l-5.364,4.971-5.255-4.96a1.82,1.82,0,1,0-2.5,2.649l4.163,3.93H348.6a1.82,1.82,0,1,0,0,3.639h7.147v4.352H348.6a1.82,1.82,0,1,0,0,3.639h7.147v4.855a1.82,1.82,0,1,0,3.639,0v-4.855h7.144a1.82,1.82,0,0,0,0-3.639Z" transform="translate(-265.73 -216.759)" fill="#fc9015"></path>
  </g>
</svg>
