<?xml version="1.0" encoding="UTF-8"?>
<svg xmlns="http://www.w3.org/2000/svg" width="54.125" height="56.839" viewBox="0 0 54.125 56.839">
  <g id="贷款1" transform="translate(-104.262 -85.299)">
    <path id="路径_437" d="M147.2,119.108a1.7,1.7,0,0,1-1.58-1.07,23.889,23.889,0,1,1,44.721-.867,1.7,1.7,0,0,1-3.2-1.135,20.492,20.492,0,1,0-38.359.741,1.7,1.7,0,0,1-1.58,2.331Z" transform="translate(-37.029 0)" fill="#231815"></path>
    <path id="路径_438" d="M379.214,229.21H373.2v-3.48h6.018a1.7,1.7,0,1,0,0-3.4H374.9l3.391-3.14a1.7,1.7,0,1,0-2.311-2.494l-4.526,4.2-4.431-4.183a1.7,1.7,0,1,0-2.331,2.474l3.34,3.15h-4.248a1.7,1.7,0,0,0,0,3.4H369.8v3.48h-6.015a1.7,1.7,0,1,0,0,3.4H369.8v2.678a1.7,1.7,0,1,0,3.4,0v-2.678h6.018a1.7,1.7,0,1,0,0-3.4Z" transform="translate(-240.712 -122.254)" fill="#fc9015"></path>
    <path id="路径_439" d="M137.159,593.674a10.177,10.177,0,0,1-3.47-.6l-12.794-4.635-7.612,3.973a1.7,1.7,0,0,1-1.573-3.014l8.275-4.319a1.689,1.689,0,0,1,1.363-.092l13.5,4.887a6.882,6.882,0,0,0,6.654-1.128l12.913-10.521a1.767,1.767,0,0,0-2.151-2.79l-11.455,7.422a5.188,5.188,0,0,1-4.394.595l-7.337-2.318a1.7,1.7,0,0,1,0-3.242l6.5-2.039a1.8,1.8,0,0,0-.537-3.514H120.453a1.344,1.344,0,0,0-.588.136L106.7,578.878a1.7,1.7,0,1,1-1.485-3.055l13.161-6.409a4.779,4.779,0,0,1,2.076-.479h14.582a5.2,5.2,0,0,1,1.556,10.154l-1.352.425,2.2.7a1.79,1.79,0,0,0,1.519-.2l11.455-7.422a5.166,5.166,0,0,1,6.226,8.21.589.589,0,0,0-.051.044L143.65,591.383a10.316,10.316,0,0,1-6.491,2.29Z" transform="translate(0 -451.536)" fill="#231815"></path>
  </g>
</svg>
