<?xml version="1.0" encoding="UTF-8"?>
<svg xmlns="http://www.w3.org/2000/svg" width="61.943" height="61.943" viewBox="0 0 61.943 61.943">
  <g id="上调" transform="translate(-82.637 -79.104)">
    <path id="路径_475" d="M113.609,141.047a30.972,30.972,0,1,1,30.972-30.972A31.006,31.006,0,0,1,113.609,141.047Zm0-58.257a27.285,27.285,0,1,0,27.285,27.285,27.316,27.316,0,0,0-27.285-27.285Z" fill="#231815"></path>
    <path id="路径_476" d="M411.335,360.281l-6.7-6.208a1.845,1.845,0,0,0-2.518.011l-6.577,6.208a1.844,1.844,0,0,0,2.529,2.684l3.532-3.333v15.488a1.843,1.843,0,0,0,3.687,0V359.706l3.543,3.281a1.844,1.844,0,1,0,2.507-2.706Z" transform="translate(-289.833 -254.714)" fill="#fc9015"></path>
  </g>
</svg>
