<?xml version="1.0" encoding="UTF-8"?>
<svg xmlns="http://www.w3.org/2000/svg" width="60.794" height="60.794" viewBox="0 0 60.794 60.794">
  <g id="下调" transform="translate(-83.405 -79.104)">
    <path id="路径_536" d="M113.8,139.9a30.4,30.4,0,1,1,30.4-30.4A30.43,30.43,0,0,1,113.8,139.9Zm0-57.175A26.779,26.779,0,1,0,140.58,109.5,26.809,26.809,0,0,0,113.8,82.722Z" fill="#231815"></path>
    <path id="路径_537" d="M411.86,353.833a1.811,1.811,0,0,0-2.558-.076l-3.466,3.271v-15.2a1.809,1.809,0,0,0-3.618,0v15.139l-3.477-3.22a1.81,1.81,0,1,0-2.46,2.656l6.578,6.093a1.812,1.812,0,0,0,2.471-.011l6.455-6.093a1.811,1.811,0,0,0,.076-2.558Z" transform="translate(-290.225 -242.476)" fill="#fc9015"></path>
  </g>
</svg>
