<?xml version="1.0" encoding="UTF-8"?>
<svg xmlns="http://www.w3.org/2000/svg" width="58.534" height="58.821" viewBox="0 0 58.534 58.821">
  <g id="交易查询" transform="translate(-91.136 -82.484)">
    <path id="路径_419" d="M149.115,138.272l-9.3-8.694A28.159,28.159,0,1,0,137.276,132l9.441,8.828a1.754,1.754,0,0,0,2.4-2.559ZM94.642,110.552A24.562,24.562,0,1,1,119.2,135.113,24.59,24.59,0,0,1,94.642,110.552Z" fill="#231815"></path>
    <path id="路径_420" d="M349.757,310.6H341.4V305.09h8.358a1.753,1.753,0,1,0,0-3.506H342.9l5.329-4.936a1.754,1.754,0,1,0-2.384-2.573l-6.254,5.8-6.132-5.785a1.753,1.753,0,0,0-2.4,2.552l5.241,4.943h-6.759a1.753,1.753,0,1,0,0,3.506h8.358V310.6h-8.358a1.753,1.753,0,1,0,0,3.506h8.358v5.774a1.753,1.753,0,1,0,3.506,0V314.1h8.358a1.753,1.753,0,1,0,0-3.506Z" transform="translate(-220.442 -196.667)" fill="#fc9015"></path>
  </g>
</svg>
