<?xml version="1.0" encoding="UTF-8"?>
<svg xmlns="http://www.w3.org/2000/svg" width="61.641" height="63.497" viewBox="0 0 61.641 63.497">
  <g id="任务中心" transform="translate(-109.517 -82.074)">
    <path id="路径_489" d="M427.508,153.577h10.071a1.934,1.934,0,1,0,0-3.868H427.508a1.934,1.934,0,1,0,0,3.868Z" transform="translate(-292.183 -62.526)" fill="#231815"></path>
    <path id="路径_490" d="M163.419,149.709H160.5a1.934,1.934,0,0,0,0,3.868h2.916a3.874,3.874,0,0,1,3.868,3.868v6.3h-53.9v-6.3a3.874,3.874,0,0,1,3.868-3.868h3.338a1.934,1.934,0,0,0,0-3.868h-3.338a7.743,7.743,0,0,0-7.735,7.735v42.918a7.743,7.743,0,0,0,7.735,7.735h46.171a7.743,7.743,0,0,0,7.735-7.735V157.444a7.749,7.749,0,0,0-7.739-7.735Zm0,54.521H117.252a3.874,3.874,0,0,1-3.868-3.868V167.616H167.29v32.746a3.877,3.877,0,0,1-3.871,3.868Z" transform="translate(0 -62.526)" fill="#231815"></path>
    <path id="路径_491" d="M317.992,96.059a1.934,1.934,0,0,0,1.934-1.934V84.008a1.934,1.934,0,1,0-3.868,0V94.125A1.934,1.934,0,0,0,317.992,96.059Zm26.736,0a1.934,1.934,0,0,0,1.934-1.934V84.008a1.934,1.934,0,1,0-3.868,0V94.125A1.934,1.934,0,0,0,344.728,96.059Z" transform="translate(-190.939 0)" fill="#231815"></path>
    <path id="路径_492" d="M376.254,507.418h-.015a1.93,1.93,0,0,1-1.4-.615l-8.2-8.787a1.935,1.935,0,1,1,2.831-2.638l6.807,7.3L388.4,490.123a1.934,1.934,0,1,1,2.785,2.684l-13.529,14.02a1.958,1.958,0,0,1-1.4.592Z" transform="translate(-237.228 -376.679)" fill="#fc9015"></path>
  </g>
</svg>
