<?xml version="1.0" encoding="UTF-8"?>
<svg xmlns="http://www.w3.org/2000/svg" width="67.526" height="56.4" viewBox="0 0 67.526 56.4">
  <g id="余额查询" transform="translate(-87.194 -156.979)">
    <path id="路径_528" d="M233.4,471.216H217.687a2.033,2.033,0,1,1,0-4.067H233.4a2.033,2.033,0,1,1,0,4.067Z" transform="translate(-118.257 -285.535)" fill="#231815"></path>
    <path id="路径_529" d="M144.553,156.979H97.36a10.175,10.175,0,0,0-10.166,10.166v36.067A10.175,10.175,0,0,0,97.36,213.379h30.133a2.033,2.033,0,1,0,0-4.067H97.36a6.107,6.107,0,0,1-6.1-6.1v-27.5h59.393v7.214a2.033,2.033,0,0,0,4.067,0V167.145A10.175,10.175,0,0,0,144.553,156.979ZM91.261,171.647v-4.5a6.107,6.107,0,0,1,6.1-6.1h47.193a6.107,6.107,0,0,1,6.1,6.1v4.5H91.261Z" fill="#231815"></path>
    <path id="路径_530" d="M599.981,520.284l-5.547-5.185a12.3,12.3,0,1,0-2.928,2.83l5.7,5.327a2.034,2.034,0,0,0,2.778-2.973ZM576.334,507.8a8.223,8.223,0,1,1,8.223,8.223A8.232,8.232,0,0,1,576.334,507.8Z" transform="translate(-446.543 -311.647)" fill="#fc9015"></path>
  </g>
</svg>
