<?xml version="1.0" encoding="UTF-8"?>
<svg xmlns="http://www.w3.org/2000/svg" width="69.804" height="69.804" viewBox="0 0 69.804 69.804">
  <g id="余额" transform="translate(-82.535 -77.876)">
    <path id="路径_598" d="M117.437,147.68a34.9,34.9,0,1,1,34.9-34.9A34.941,34.941,0,0,1,117.437,147.68Zm0-65.654a30.748,30.748,0,1,0,30.748,30.748A30.782,30.782,0,0,0,117.437,82.026Z" fill="#231815"></path>
    <path id="路径_599" d="M365.446,326.491h-9.9v-6.527h9.9a2.077,2.077,0,0,0,0-4.155h-8.126l6.315-5.85a2.078,2.078,0,1,0-2.825-3.049l-7.412,6.872-7.266-6.859a2.076,2.076,0,1,0-2.85,3.02l6.215,5.866h-8.014a2.077,2.077,0,1,0,0,4.154h9.9v6.527h-9.9a2.077,2.077,0,1,0,0,4.155h9.9v6.843a2.077,2.077,0,1,0,4.155,0v-6.843h9.9a2.077,2.077,0,1,0,0-4.155Z" transform="translate(-236.027 -209.94)" fill="#fc9015"></path>
  </g>
</svg>
