<?xml version="1.0" encoding="UTF-8"?>
<svg xmlns="http://www.w3.org/2000/svg" width="45.906" height="54.038" viewBox="0 0 45.906 54.038">
  <g id="保险" transform="translate(-150.631 -86.593)">
    <path id="路径_469" d="M173.094,140.631a5.274,5.274,0,0,1-2.38-.566c-6.039-3.053-20.083-11.16-20.083-20.438V97.84a4.921,4.921,0,0,1,3.32-4.582L171.81,86.9a5.313,5.313,0,0,1,3.548,0l17.859,6.361a4.917,4.917,0,0,1,3.32,4.582v21.784c0,8.591-14.7,17.14-21.017,20.415a5.24,5.24,0,0,1-2.426.592Zm.488-50.787a2.052,2.052,0,0,0-.683.117L155.04,96.325a1.642,1.642,0,0,0-1.161,1.519v21.784c0,6.107,9.453,13.063,18.3,17.537a2.056,2.056,0,0,0,1.844-.007c9.31-4.829,19.261-11.967,19.261-17.531V97.84a1.646,1.646,0,0,0-1.158-1.519l-17.859-6.361a2.051,2.051,0,0,0-.683-.117Z" transform="translate(0 0)" fill="#231815"></path>
    <path id="路径_470" d="M358.422,381.442a2.793,2.793,0,0,1-1.844-.7l-6.657-5.935a1.626,1.626,0,0,1,2.162-2.429l6.279,5.593,9.567-11.759a1.625,1.625,0,0,1,2.52,2.052l-9.889,12.152a2.786,2.786,0,0,1-1.925,1.011,1.521,1.521,0,0,1-.215.013Z" transform="translate(-186.124 -261.301)" fill="#fc9015"></path>
  </g>
</svg>
