<?xml version="1.0" encoding="UTF-8"?>
<svg xmlns="http://www.w3.org/2000/svg" width="55.617" height="58.438" viewBox="0 0 55.617 58.438">
  <g id="保险" transform="translate(-96.205 -75.11)">
    <path id="路径_413" d="M125.726,79.233V76.822a1.712,1.712,0,1,0-3.424,0v2.411a27.839,27.839,0,0,0-26.1,27.75,1.713,1.713,0,0,0,1.712,1.712H122.3v17.81a3.619,3.619,0,0,1-7.239,0v-3.191a1.712,1.712,0,1,0-3.424,0v3.191a7.044,7.044,0,0,0,14.087,0V108.7H150.11a1.713,1.713,0,0,0,1.712-1.712A27.839,27.839,0,0,0,125.726,79.233ZM99.687,105.271a24.386,24.386,0,0,1,48.652,0Z" fill="#231815"></path>
    <path id="路径_414" d="M242.375,270.391a1.658,1.658,0,0,1-.681-.144,1.713,1.713,0,0,1-.887-2.253,20.266,20.266,0,0,1,9.184-9.989,1.711,1.711,0,1,1,1.431,3.109,17.108,17.108,0,0,0-7.475,8.246A1.715,1.715,0,0,1,242.375,270.391Z" transform="translate(-134.798 -170.516)" fill="#fc9015"></path>
  </g>
</svg>
