<?xml version="1.0" encoding="UTF-8"?>
<svg xmlns="http://www.w3.org/2000/svg" width="63.897" height="51.601" viewBox="0 0 63.897 51.601">
  <g id="信用卡" transform="translate(-76.134 -154.266)">
    <path id="路径_534" d="M144.215,342.716H85.162a1.86,1.86,0,1,1,0-3.721h59.053a1.86,1.86,0,1,1,0,3.721ZM136,366.5H121.62a1.86,1.86,0,0,1,0-3.721H136a1.86,1.86,0,1,1,0,3.721Z" transform="translate(-6.647 -171.305)" fill="#fc9015"></path>
    <path id="路径_535" d="M130.73,205.867H85.435a9.31,9.31,0,0,1-9.3-9.3v-33a9.31,9.31,0,0,1,9.3-9.3H130.73a9.31,9.31,0,0,1,9.3,9.3v33a9.31,9.31,0,0,1-9.3,9.3Zm-45.294-47.88a5.588,5.588,0,0,0-5.581,5.581v33a5.588,5.588,0,0,0,5.581,5.581H130.73a5.588,5.588,0,0,0,5.581-5.581v-33a5.588,5.588,0,0,0-5.581-5.581Z" fill="#231815"></path>
  </g>
</svg>
