<?xml version="1.0" encoding="UTF-8"?>
<svg xmlns="http://www.w3.org/2000/svg" width="77.082" height="62.911" viewBox="0 0 77.082 62.911">
  <g id="信用卡借款" transform="translate(-72.294 -156.979)">
    <path id="路径_585" d="M220.555,471.685H203.023a2.268,2.268,0,0,1,0-4.536h17.532a2.268,2.268,0,0,1,0,4.536Z" transform="translate(-117.08 -282.69)" fill="#231815"></path>
    <path id="路径_586" d="M136.275,156.979H83.634a11.35,11.35,0,0,0-11.34,11.34v40.23a11.35,11.35,0,0,0,11.34,11.34h52.641a11.267,11.267,0,0,0,10.2-6.373,2.269,2.269,0,1,0-4.078-1.991,6.766,6.766,0,0,1-6.119,3.824H83.634a6.812,6.812,0,0,1-6.8-6.8V177.877h66.249v8.047a2.268,2.268,0,1,0,4.536,0v-17.6A11.35,11.35,0,0,0,136.275,156.979ZM76.83,173.341v-5.021a6.812,6.812,0,0,1,6.8-6.8h52.641a6.812,6.812,0,0,1,6.8,6.8v5.021H76.83Z" fill="#231815"></path>
    <path id="路径_587" d="M628.571,531.913h-20.19l3.13-2.771a2.269,2.269,0,0,0-3.007-3.4l-7.176,6.359a2.272,2.272,0,0,0-.127,3.275l7.176,7.439a2.268,2.268,0,1,0,3.266-3.148l-3.107-3.221h20.04a2.268,2.268,0,1,0,0-4.536Z" transform="translate(-481.468 -335.574)" fill="#fc9015"></path>
  </g>
</svg>
