<?xml version="1.0" encoding="UTF-8"?>
<svg xmlns="http://www.w3.org/2000/svg" width="54.038" height="54.038" viewBox="0 0 54.038 54.038">
  <g id="借款" transform="translate(-82.688 -77.876)">
    <path id="路径_467" d="M109.707,131.914a26.989,26.989,0,1,1,26.324-20.905,1.608,1.608,0,1,1-3.133-.727,23.8,23.8,0,1,0-11.192,15.171,1.608,1.608,0,0,1,1.624,2.776,26.969,26.969,0,0,1-13.624,3.686Z" fill="#231815"></path>
    <path id="路径_468" d="M373.106,338.818H366.4v-4.2h6.709a1.608,1.608,0,0,0,0-3.216h-5.217l4.072-3.773a1.609,1.609,0,1,0-2.187-2.361l-5.033,4.663-4.927-4.651a1.609,1.609,0,0,0-2.21,2.338l4.007,3.782h-5.136a1.608,1.608,0,0,0,0,3.216h6.709v4.2h-6.709a1.608,1.608,0,1,0,0,3.216h6.709v4.583a1.608,1.608,0,1,0,3.216,0v-4.583h6.709a1.606,1.606,0,1,0,0-3.213Zm17.853,11.363-5.088-4.509a1.609,1.609,0,0,0-2.132,2.409l2.219,1.965H371.643a1.608,1.608,0,0,0,0,3.216h14.209l-2.2,2.284a1.608,1.608,0,0,0,2.316,2.232l5.088-5.278a1.6,1.6,0,0,0-.093-2.319Z" transform="translate(-255.082 -231.45)" fill="#fc9015"></path>
  </g>
</svg>
