<?xml version="1.0" encoding="UTF-8"?>
<svg xmlns="http://www.w3.org/2000/svg" width="67.735" height="57.489" viewBox="0 0 67.735 57.489">
  <g id="债务" transform="translate(-92.467 -148.582)">
    <path id="路径_551" d="M149.869,206.071H102.8a10.342,10.342,0,0,1-10.333-10.333V158.915A10.342,10.342,0,0,1,102.8,148.582h47.069A10.342,10.342,0,0,1,160.2,158.915v36.823A10.345,10.345,0,0,1,149.869,206.071ZM102.8,152.715a6.207,6.207,0,0,0-6.2,6.2v36.823a6.207,6.207,0,0,0,6.2,6.2h47.069a6.207,6.207,0,0,0,6.2-6.2V158.915a6.207,6.207,0,0,0-6.2-6.2Z" fill="#231815"></path>
    <path id="路径_552" d="M408.739,363.969H403.13v-3.559h5.609a2.067,2.067,0,0,0,0-4.133H404.99l3.178-3.307a2.067,2.067,0,1,0-2.98-2.864l-4.162,4.332-4.071-4.315a2.067,2.067,0,0,0-3.009,2.835l3.133,3.319h-3.691a2.067,2.067,0,0,0,0,4.133H399v3.559h-5.609a2.067,2.067,0,0,0,0,4.133H399v4.356a2.067,2.067,0,0,0,4.133,0V368.1h5.609a2.067,2.067,0,0,0,0-4.133Z" transform="translate(-274.729 -184.674)" fill="#fc9015"></path>
    <path id="路径_553" d="M220.849,483.211h-5.791a2.067,2.067,0,1,1,0-4.133h5.795a2.067,2.067,0,1,1,0,4.133Zm38.174,0h-5.791a2.067,2.067,0,1,1,0-4.133h5.791a2.067,2.067,0,1,1,0,4.133Z" transform="translate(-110.795 -303.816)" fill="#231815"></path>
  </g>
</svg>
