<?xml version="1.0" encoding="UTF-8"?>
<svg xmlns="http://www.w3.org/2000/svg" width="55.945" height="54.038" viewBox="0 0 55.945 54.038">
  <g id="充值" transform="translate(-69.018 -77.415)">
    <path id="路径_464" d="M96.037,131.453a27.019,27.019,0,1,1,15.094-49.433,1.608,1.608,0,0,1-1.8,2.666,23.805,23.805,0,1,0,10.507,19.747,1.608,1.608,0,0,1,3.216,0,27.049,27.049,0,0,1-27.019,27.019Z" fill="#231815"></path>
    <path id="路径_465" d="M360.462,339.731H353.83V335.6h6.632a1.608,1.608,0,0,0,0-3.216h-5.133l4.007-3.711a1.609,1.609,0,0,0-2.187-2.361l-4.972,4.612-4.876-4.6a1.609,1.609,0,0,0-2.206,2.341l3.946,3.718h-5.059a1.608,1.608,0,0,0,0,3.216h6.632v4.13h-6.632a1.608,1.608,0,0,0,0,3.216h6.632v4.528a1.608,1.608,0,1,0,3.216,0v-4.528h6.632a1.606,1.606,0,1,0,0-3.213Z" transform="translate(-256.185 -232.859)" fill="#231815"></path>
    <path id="路径_466" d="M731.454,204.078h-4.377V199.7a1.608,1.608,0,0,0-3.216,0v4.377h-4.377a1.608,1.608,0,1,0,0,3.216h4.377v4.377a1.608,1.608,0,1,0,3.216,0v-4.377h4.377a1.608,1.608,0,0,0,0-3.216Z" transform="translate(-608.099 -113.097)" fill="#fc9015"></path>
  </g>
</svg>
