<?xml version="1.0" encoding="UTF-8"?>
<svg xmlns="http://www.w3.org/2000/svg" width="59.562" height="58.995" viewBox="0 0 59.562 58.995">
  <g id="全部" transform="translate(-114.329 -114.585)">
    <path id="路径_388" d="M135.193,141.715H120.6a6.275,6.275,0,0,1-6.267-6.267v-14.6a6.275,6.275,0,0,1,6.267-6.267h14.6a6.275,6.275,0,0,1,6.267,6.267v14.6a6.275,6.275,0,0,1-6.267,6.267Zm-14.6-23.33a2.468,2.468,0,0,0-2.466,2.466v14.6a2.468,2.468,0,0,0,2.466,2.466h14.6a2.468,2.468,0,0,0,2.466-2.466v-14.6a2.468,2.468,0,0,0-2.466-2.466H120.6Zm47.028,23.33h-14.6a6.275,6.275,0,0,1-6.267-6.267v-14.6a6.275,6.275,0,0,1,6.267-6.267h14.6a6.275,6.275,0,0,1,6.267,6.267v14.6a6.275,6.275,0,0,1-6.267,6.267Zm-14.6-23.33a2.468,2.468,0,0,0-2.466,2.466v14.6a2.468,2.468,0,0,0,2.466,2.466h14.6a2.468,2.468,0,0,0,2.466-2.466v-14.6a2.468,2.468,0,0,0-2.466-2.466h-14.6Zm-17.835,55.2H120.6a6.275,6.275,0,0,1-6.267-6.267v-14.6a6.275,6.275,0,0,1,6.267-6.267h14.6a6.275,6.275,0,0,1,6.267,6.267v14.6a6.275,6.275,0,0,1-6.267,6.267Zm-14.6-23.33a2.468,2.468,0,0,0-2.466,2.466v14.6a2.468,2.468,0,0,0,2.466,2.466h14.6a2.468,2.468,0,0,0,2.466-2.466v-14.6a2.468,2.468,0,0,0-2.466-2.466H120.6Z" fill="#231815"></path>
    <path id="路径_389" d="M572.134,571.028h-14.6a6.275,6.275,0,0,1-6.267-6.267v-14.6a6.275,6.275,0,0,1,6.267-6.267h14.6a6.275,6.275,0,0,1,6.267,6.267v14.6A6.275,6.275,0,0,1,572.134,571.028Zm-14.6-23.33a2.468,2.468,0,0,0-2.466,2.466v14.6a2.468,2.468,0,0,0,2.466,2.466h14.6a2.469,2.469,0,0,0,2.466-2.466v-14.6a2.469,2.469,0,0,0-2.466-2.466Z" transform="translate(-404.509 -397.447)" fill="#fc9015"></path>
  </g>
</svg>
