<?xml version="1.0" encoding="UTF-8"?>
<svg xmlns="http://www.w3.org/2000/svg" width="68.019" height="68.019" viewBox="0 0 68.019 68.019">
  <g id="分享" transform="translate(-80.794 -76.698)">
    <path id="路径_611" d="M114.8,144.717a34.009,34.009,0,1,1,34.009-34.009A34.047,34.047,0,0,1,114.8,144.717Zm0-63.975a29.963,29.963,0,1,0,29.961,29.965A29.995,29.995,0,0,0,114.8,80.742Z" transform="translate(0 0)" fill="#231815"></path>
    <path id="路径_612" d="M266.653,271.872a7.47,7.47,0,0,0-5.218,2.121l-6.186-3.749a8.328,8.328,0,0,0,.109-6.267l5.943-4.02a7.57,7.57,0,1,0-1.955-3.566l-6.3,4.263a8.4,8.4,0,1,0-.251,12.837l6.6,4a7.441,7.441,0,0,0-.251,1.887,7.51,7.51,0,1,0,7.514-7.506Zm0-20.63a3.461,3.461,0,1,1-3.461,3.461A3.465,3.465,0,0,1,266.653,251.242Zm-19.144,20.083a4.356,4.356,0,1,1,4.356-4.356A4.362,4.362,0,0,1,247.509,271.326Zm19.144,11.513a3.461,3.461,0,1,1,3.461-3.461A3.465,3.465,0,0,1,266.653,282.839Z" transform="translate(-145.793 -157.015)" fill="#fc9015"></path>
  </g>
</svg>
