<?xml version="1.0" encoding="UTF-8"?>
<svg xmlns="http://www.w3.org/2000/svg" width="56.727" height="58.439" viewBox="0 0 56.727 58.439">
  <g id="分期还款" transform="translate(-103.987 -83.2)">
    <path id="路径_423" d="M153.6,87.9h-6.236V84.979a1.78,1.78,0,0,0-3.559,0V87.9H120.47V84.979a1.78,1.78,0,1,0-3.559,0V87.9h-5.805a7.126,7.126,0,0,0-7.118,7.118v39.5a7.126,7.126,0,0,0,7.118,7.118H153.6a7.126,7.126,0,0,0,7.118-7.118v-39.5A7.126,7.126,0,0,0,153.6,87.9Zm3.559,46.615a3.565,3.565,0,0,1-3.559,3.559h-42.49a3.565,3.565,0,0,1-3.559-3.559v-39.5a3.565,3.565,0,0,1,3.559-3.559h5.805v2.83a1.78,1.78,0,0,0,3.559,0v-2.83H143.8v2.83a1.78,1.78,0,1,0,3.559,0v-2.83H153.6a3.565,3.565,0,0,1,3.559,3.559v39.5Z" transform="translate(0 0)" fill="#231815"></path>
    <path id="路径_424" d="M371.628,389.858H364v-4.83h7.631a1.78,1.78,0,1,0,0-3.559h-6l4.684-4.339a1.781,1.781,0,1,0-2.42-2.612l-5.723,5.3-5.6-5.289a1.78,1.78,0,1,0-2.442,2.591l4.609,4.349h-5.922a1.78,1.78,0,0,0,0,3.559h7.631v4.83h-7.631a1.78,1.78,0,1,0,0,3.559h7.631v5.225a1.78,1.78,0,0,0,3.559,0V393.42h7.631a1.781,1.781,0,0,0,0-3.563Z" transform="translate(-229.867 -270.625)" fill="#fc9015"></path>
  </g>
</svg>
