<?xml version="1.0" encoding="UTF-8"?>
<svg xmlns="http://www.w3.org/2000/svg" width="67.287" height="54.321" viewBox="0 0 67.287 54.321">
  <g id="分期付款" transform="translate(-63.078 -143.872)">
    <path id="路径_392" d="M215.07,479.28H199.909a1.919,1.919,0,1,1,0-3.837H215.07a1.919,1.919,0,1,1,0,3.837Z" transform="translate(-124.801 -306.721)" fill="#231815"></path>
    <path id="路径_393" d="M120.6,143.872H72.844a9.779,9.779,0,0,0-9.766,9.766v34.789a9.779,9.779,0,0,0,9.766,9.766h27.617a1.919,1.919,0,1,0,0-3.837H72.844a5.935,5.935,0,0,1-5.929-5.929V161.861h59.613V171a1.919,1.919,0,1,0,3.837,0V153.638a9.775,9.775,0,0,0-9.762-9.766ZM66.919,158.024v-4.386a5.935,5.935,0,0,1,5.929-5.929h47.759a5.935,5.935,0,0,1,5.929,5.929v4.386H66.919Z" fill="#231815"></path>
    <path id="路径_394" d="M581.712,519.43a14.006,14.006,0,1,1,14.006-14.006A14.02,14.02,0,0,1,581.712,519.43Zm0-24.171a10.169,10.169,0,1,0,10.169,10.169A10.182,10.182,0,0,0,581.712,495.259Z" transform="translate(-466.807 -321.498)" fill="#fc9015"></path>
    <path id="路径_395" d="M729.435,589.485h-6.466a1.919,1.919,0,0,1-1.919-1.919v-6.32a1.919,1.919,0,0,1,3.837,0v4.4h4.547a1.919,1.919,0,0,1,0,3.837Z" transform="translate(-608.659 -402.819)" fill="#fc9015"></path>
  </g>
</svg>
