<?xml version="1.0" encoding="UTF-8"?>
<svg xmlns="http://www.w3.org/2000/svg" width="63.51" height="51.272" viewBox="0 0 63.51 51.272">
  <g id="办卡" transform="translate(-63.078 -141.158)">
    <path id="路径_443" d="M214.111,476.352H199.8a1.811,1.811,0,1,1,0-3.622h14.31a1.811,1.811,0,1,1,0,3.622Z" transform="translate(-125.368 -308.116)" fill="#231815"></path>
    <path id="路径_444" d="M117.374,141.158H72.3a9.23,9.23,0,0,0-9.218,9.218v32.836A9.23,9.23,0,0,0,72.3,192.43H98.363a1.811,1.811,0,1,0,0-3.622H72.3a5.6,5.6,0,0,1-5.6-5.6V158.138h56.267v8.631a1.811,1.811,0,1,0,3.622,0V150.376a9.224,9.224,0,0,0-9.214-9.218ZM66.7,154.516v-4.14a5.6,5.6,0,0,1,5.6-5.6h45.078a5.6,5.6,0,0,1,5.6,5.6v4.14H66.7Z" fill="#231815"></path>
    <path id="路径_445" d="M580.926,488.7a13.22,13.22,0,1,0,13.22,13.22A13.233,13.233,0,0,0,580.926,488.7Zm0,22.818a9.6,9.6,0,1,1,9.6-9.6A9.61,9.61,0,0,1,580.926,511.522Z" transform="translate(-468.93 -322.96)" fill="#fc9015"></path>
    <path id="路径_446" d="M674.778,586.8h-3v-3a1.811,1.811,0,1,0-3.622,0v3h-3a1.811,1.811,0,1,0,0,3.622h3v3a1.811,1.811,0,0,0,3.622,0v-3h3a1.811,1.811,0,1,0,0-3.622Z" transform="translate(-557.805 -409.648)" fill="#fc9015"></path>
  </g>
</svg>
