<?xml version="1.0" encoding="UTF-8"?>
<svg xmlns="http://www.w3.org/2000/svg" width="58.534" height="54.038" viewBox="0 0 58.534 54.038">
  <g id="加油" transform="translate(-71.117 -111.974)">
    <path id="路径_462" d="M300.2,294.479H282.651a1.73,1.73,0,0,1-1.729-1.729V280.1a1.73,1.73,0,0,1,1.729-1.729H300.2a1.73,1.73,0,0,1,1.729,1.729v12.643a1.731,1.731,0,0,1-1.729,1.733Zm-15.818-3.458h14.089v-9.189H284.38v9.189Zm16.164,15.839H282.305a1.729,1.729,0,1,1,0-3.458H300.54a1.729,1.729,0,0,1,0,3.458Z" transform="translate(-195.312 -155.161)" fill="#fc9015"></path>
    <path id="路径_463" d="M124.554,159.954a5.137,5.137,0,0,0,5.1-5.167V126.81a1.711,1.711,0,0,0-.432-1.141l-6.208-7.048a1.73,1.73,0,1,0-2.6,2.286l5.775,6.557v27.324a1.641,1.641,0,1,1-3.278,0v-19.1a4.133,4.133,0,0,0-4.1-4.153h-2.13v-12.3a7.27,7.27,0,0,0-7.262-7.262h-26.6a7.27,7.27,0,0,0-7.262,7.262v43.318h-2.7a1.729,1.729,0,1,0,0,3.458h55.076a1.729,1.729,0,1,0,0-3.458H116.683V134.992h2.13a.673.673,0,0,1,.647.7v19.1A5.132,5.132,0,0,0,124.554,159.954Zm-45.548,2.6V119.236a3.806,3.806,0,0,1,3.8-3.8H109.42a3.806,3.806,0,0,1,3.8,3.8v43.318H79.005Z" transform="translate(0 0)" fill="#231815"></path>
  </g>
</svg>
