<?xml version="1.0" encoding="UTF-8"?>
<svg xmlns="http://www.w3.org/2000/svg" width="61.697" height="54.321" viewBox="0 0 61.697 54.321">
  <g id="卡包" transform="translate(-92.928 -136.499)">
    <path id="路径_396" d="M145.956,190.82H101.6a8.679,8.679,0,0,1-8.668-8.668V145.167A8.679,8.679,0,0,1,101.6,136.5h44.36a8.679,8.679,0,0,1,8.668,8.668v2.261a1.884,1.884,0,1,1-3.769,0v-2.261a4.9,4.9,0,0,0-4.9-4.9H101.6a4.9,4.9,0,0,0-4.9,4.9v36.984a4.9,4.9,0,0,0,4.9,4.9h44.36a4.9,4.9,0,0,0,4.9-4.9v-2.2a1.884,1.884,0,1,1,3.769,0v2.2A8.679,8.679,0,0,1,145.956,190.82Z" transform="translate(0)" fill="#231815"></path>
    <path id="路径_397" d="M546.893,369.576h-16.76a11.733,11.733,0,1,1,0-23.465h16.76A1.885,1.885,0,0,1,548.777,348v19.7a1.885,1.885,0,0,1-1.884,1.884Zm-16.76-19.7a7.964,7.964,0,1,0,0,15.927h14.876V349.876Z" transform="translate(-394.152 -194.182)" fill="#fc9015"></path>
    <path id="路径_398" d="M647.546,472.339m-2.631,0a2.631,2.631,0,1,0,2.631-2.631A2.631,2.631,0,0,0,644.915,472.339Z" transform="translate(-511.355 -308.681)" fill="#231815"></path>
  </g>
</svg>
