<?xml version="1.0" encoding="UTF-8"?>
<svg xmlns="http://www.w3.org/2000/svg" width="69.804" height="69.804" viewBox="0 0 69.804 69.804">
  <g id="发现" transform="translate(-85.043 -80.231)">
    <path id="路径_604" d="M119.945,150.035a34.9,34.9,0,1,1,34.9-34.9A34.944,34.944,0,0,1,119.945,150.035Zm0-65.654a30.748,30.748,0,1,0,30.748,30.748A30.782,30.782,0,0,0,119.945,84.381Z" transform="translate(0 0)" fill="#231815"></path>
    <path id="路径_605" d="M319.86,344.087a3.132,3.132,0,0,1-2.929-4.192l6.381-17.7a6.207,6.207,0,0,1,3.743-3.743l17.7-6.381a3.126,3.126,0,0,1,4,3.992l-6.344,17.727a6.2,6.2,0,0,1-3.76,3.76l-17.727,6.344A2.973,2.973,0,0,1,319.86,344.087Zm24.25-27.366-15.65,5.642a2.044,2.044,0,0,0-1.242,1.242l-5.642,15.65,15.675-5.609a2.06,2.06,0,0,0,1.251-1.25l5.609-15.675ZM346.162,315.982ZM345.46,314.025Z" transform="translate(-212.898 -212.851)" fill="#fc9015"></path>
  </g>
</svg>
