<?xml version="1.0" encoding="UTF-8"?>
<svg xmlns="http://www.w3.org/2000/svg" width="63.258" height="63.258" viewBox="0 0 63.258 63.258">
  <g id="咨询" transform="translate(-105.882 -97.946)">
    <path id="路径_588" d="M159.227,161.2H115.794a9.921,9.921,0,0,1-9.912-9.912V107.858a9.921,9.921,0,0,1,9.912-9.912h43.433a9.921,9.921,0,0,1,9.912,9.912v43.433a9.924,9.924,0,0,1-9.912,9.912Zm-43.433-59.292a5.955,5.955,0,0,0-5.947,5.947v43.433a5.955,5.955,0,0,0,5.947,5.947h43.433a5.955,5.955,0,0,0,5.948-5.947V107.858a5.955,5.955,0,0,0-5.948-5.947Z" fill="#231815"></path>
    <path id="路径_589" d="M279.486,270.256H240.78a1.982,1.982,0,1,1,0-3.965h38.706a1.982,1.982,0,0,1,0,3.965Z" transform="translate(-122.622 -155.308)" fill="#231815"></path>
    <path id="路径_590" d="M260.118,464.626H244.647a3.243,3.243,0,0,1-3.239-3.239V445.915a3.243,3.243,0,0,1,3.239-3.239h15.471a3.243,3.243,0,0,1,3.239,3.239v15.471a3.248,3.248,0,0,1-3.239,3.239Zm-14.746-3.965h14.016V446.645H245.373Z" transform="translate(-125.03 -318.033)" fill="#fc9015"></path>
    <path id="路径_591" d="M593.8,449.866H581.516a1.983,1.983,0,0,1,0-3.965H593.8a1.983,1.983,0,0,1,0,3.965Zm0,16.974H581.516a1.982,1.982,0,0,1,0-3.965H593.8a1.982,1.982,0,0,1,0,3.965Z" transform="translate(-436.971 -321.009)" fill="#231815"></path>
  </g>
</svg>
