<?xml version="1.0" encoding="UTF-8"?>
<svg xmlns="http://www.w3.org/2000/svg" width="63.471" height="60.996" viewBox="0 0 63.471 60.996">
  <g id="商城" transform="translate(-82.505 -99.277)">
    <path id="路径_538" d="M135.222,160.273H93.259a6.181,6.181,0,0,1-6.174-6.174V138.6a1.892,1.892,0,0,1,3.783,0v15.5a2.394,2.394,0,0,0,2.391,2.391h41.959a2.394,2.394,0,0,0,2.391-2.391V138.6a1.892,1.892,0,0,1,3.783,0v15.5a6.18,6.18,0,0,1-6.17,6.174Zm-1.279-26.8a12.618,12.618,0,0,1-9.851-4.729,12.626,12.626,0,0,1-19.7,0,12.606,12.606,0,0,1-9.851,4.729c-.216,0-.431,0-.647-.015a11.816,11.816,0,0,1-9.375-5.433,12.414,12.414,0,0,1-1.2-11.175L88.2,104.07a7.491,7.491,0,0,1,6.961-4.793h38.165a7.491,7.491,0,0,1,6.961,4.793l4.884,12.783a12.414,12.414,0,0,1-1.2,11.175,11.814,11.814,0,0,1-9.371,5.433c-.216.008-.431.015-.651.015Zm-9.851-10.264a1.891,1.891,0,0,1,1.736,1.143,8.834,8.834,0,0,0,8.573,5.327,8.057,8.057,0,0,0,6.394-3.719,8.607,8.607,0,0,0,.836-7.759l-4.88-12.787a3.691,3.691,0,0,0-3.428-2.361H95.158a3.687,3.687,0,0,0-3.428,2.361L86.847,118.2a8.628,8.628,0,0,0,.836,7.759,8.057,8.057,0,0,0,6.394,3.719,8.834,8.834,0,0,0,8.573-5.327,1.891,1.891,0,0,1,3.473,0,8.837,8.837,0,0,0,16.23,0,1.9,1.9,0,0,1,1.74-1.139Z" transform="translate(0)" fill="#231815"></path>
    <path id="路径_539" d="M360.227,290.605H338.02a1.892,1.892,0,1,1,0-3.783h22.211a1.892,1.892,0,1,1,0,3.783Z" transform="translate(-234.882 -173.688)" fill="#fc9015"></path>
  </g>
</svg>
