<?xml version="1.0" encoding="UTF-8"?>
<svg xmlns="http://www.w3.org/2000/svg" width="66.825" height="58.438" viewBox="0 0 66.825 58.438">
  <g id="城市服务" transform="translate(-56.166 -108.288)">
    <path id="路径_415" d="M243.635,327.663h-8.386a1.86,1.86,0,0,1,0-3.721h8.386a1.86,1.86,0,0,1,0,3.721Zm0,11.686h-8.386a1.86,1.86,0,0,1,0-3.721h8.386a1.86,1.86,0,0,1,0,3.721Zm0,11.686h-8.386a1.86,1.86,0,1,1,0-3.721h8.386a1.86,1.86,0,0,1,0,3.721Zm-26.713,15.671h-9.443a1.861,1.861,0,0,1-1.86-1.86V349.175a1.861,1.861,0,0,1,1.86-1.86h9.439a1.861,1.861,0,0,1,1.86,1.86v15.671a1.855,1.855,0,0,1-1.857,1.86Zm-7.582-3.721h5.718v-11.95H209.34Z" transform="translate(-138.592 -199.983)" fill="#fc9015"></path>
    <path id="路径_416" d="M121.131,163h-2.277v-48.65a6.07,6.07,0,0,0-6.064-6.064H89.45a6.07,6.07,0,0,0-6.064,6.064V131.66H65.944a6.07,6.07,0,0,0-6.064,6.064v25.281H58.027a1.86,1.86,0,1,0,0,3.721h63.1a1.862,1.862,0,0,0,0-3.724ZM63.6,137.721a2.348,2.348,0,0,1,2.344-2.344H83.39V163H63.6ZM87.106,163v-48.65a2.348,2.348,0,0,1,2.344-2.344h23.339a2.348,2.348,0,0,1,2.344,2.344v48.653H87.106Z" fill="#231815"></path>
  </g>
</svg>
