<?xml version="1.0" encoding="UTF-8"?>
<svg xmlns="http://www.w3.org/2000/svg" width="57" height="58.995" viewBox="0 0 57 58.995">
  <g id="基金" transform="translate(-119.339 -105.625)">
    <path id="路径_411" d="M174.536,369.987H163.379a1.859,1.859,0,0,1-1.858-1.858v-39.2a1.859,1.859,0,0,1,1.858-1.858h11.157a1.859,1.859,0,0,1,1.858,1.858v39.205a1.859,1.859,0,0,1-1.858,1.858Zm-9.3-3.716h7.44V330.782h-7.44v35.489Zm-11.763,3.716H142.318a1.859,1.859,0,0,1-1.858-1.858V337.037a1.859,1.859,0,0,1,1.858-1.858h11.157a1.859,1.859,0,0,1,1.858,1.858v31.092a1.859,1.859,0,0,1-1.858,1.858Zm-9.3-3.716h7.44V338.9h-7.44Zm-11.763,3.716H121.256a1.859,1.859,0,0,1-1.858-1.858v-23.5a1.859,1.859,0,0,1,1.858-1.858h11.157a1.859,1.859,0,0,1,1.858,1.858v23.5a1.857,1.857,0,0,1-1.858,1.858Zm-9.3-3.716h7.44V346.488h-7.44v19.783Z" transform="translate(-0.055 -205.367)" fill="#231815"></path>
    <path id="路径_412" d="M121.2,129.459a1.857,1.857,0,0,1-.981-3.438l20.05-12.394a1.856,1.856,0,0,1,1.747-.111l9.5,4.311,12.4-8.485h-2.583a1.858,1.858,0,0,1,0-3.716h8.589a1.857,1.857,0,0,1,1.052,3.389l-18.218,12.469a1.859,1.859,0,0,1-1.817.16l-9.551-4.337-19.21,11.874a1.844,1.844,0,0,1-.977.279Z" transform="translate(0 0)" fill="#fc9015"></path>
  </g>
</svg>
