<?xml version="1.0" encoding="UTF-8"?>
<svg xmlns="http://www.w3.org/2000/svg" width="58.56" height="58.439" viewBox="0 0 58.56 58.439">
  <g id="存入" transform="translate(-79.756 -76.02)">
    <path id="路径_421" d="M122.806,134.458H93.719a13.658,13.658,0,0,1-10.443-5.039c-.014-.017-.028-.038-.042-.056-5.182-7.673-4.588-16.183,1.874-26.786a26.994,26.994,0,0,1,11.061-9.8,18.229,18.229,0,0,1-3.72-7.809l-.021-.1c-.5-3.047.607-5.633,2.884-6.754a6.286,6.286,0,0,1,6.5.885,9.051,9.051,0,0,1,5.563-2.9,9.638,9.638,0,0,1,7.958,2.874c2.936-1.576,6.178-1.645,8.263-.073,1.024.774,3.2,3.124,1.36,8.26a14.877,14.877,0,0,1-3.46,5.657,30.766,30.766,0,0,1,14.163,14.937,30.327,30.327,0,0,1,2.52,15.1c-.843,7.163-6.733,11.613-15.371,11.613Zm-36.715-7.066a10.144,10.144,0,0,0,7.628,3.6h29.09c3.283,0,11.016-.833,11.921-8.548.777-6.629-1.777-20.928-17.009-27.6a1.735,1.735,0,0,1-.364-2.964,12.177,12.177,0,0,0,4.29-5.772l.031-.094c.764-2.107.7-3.693-.17-4.349-1-.753-3.318-.607-5.459.944a1.737,1.737,0,0,1-2.367-.312,6.528,6.528,0,0,0-5.876-2.756,5.2,5.2,0,0,0-4.078,2.787,1.735,1.735,0,0,1-2.842.458c-1.68-1.791-3.224-1.957-4.04-1.558-.857.42-1.229,1.551-1,3.03A13.919,13.919,0,0,0,100.272,92a1.734,1.734,0,0,1-.458,2.922c-3.648,1.517-8.649,4.387-11.741,9.461-5.74,9.419-6.351,16.517-1.982,23.01Z" fill="#231815"></path>
    <path id="路径_422" d="M409.409,487.261a1.737,1.737,0,0,0-2.454-.073l-3.325,3.137v-14.58a1.735,1.735,0,0,0-3.471,0v14.521l-3.335-3.089a1.736,1.736,0,1,0-2.36,2.547l6.31,5.844a1.738,1.738,0,0,0,2.37-.01l6.192-5.844A1.731,1.731,0,0,0,409.409,487.261Z" transform="translate(-292.857 -371.012)" fill="#fc9015"></path>
  </g>
</svg>
