<?xml version="1.0" encoding="UTF-8"?>
<svg xmlns="http://www.w3.org/2000/svg" width="58.018" height="57.672" viewBox="0 0 58.018 57.672">
  <g id="存款" transform="translate(-83.866 -75.315)">
    <path id="路径_459" d="M135.414,242.262a21.274,21.274,0,0,0-3.636-2.817,1.714,1.714,0,1,0-1.792,2.923,17.83,17.83,0,0,1,3.05,2.361A17.594,17.594,0,0,1,138.46,257.5a17.812,17.812,0,0,1-8.831,15.336,1.712,1.712,0,0,0-.85,1.48v3.005h-6.09v-.38a1.717,1.717,0,0,0-.511-1.22,1.7,1.7,0,0,0-1.223-.493c-.051,0-.1,0-.154,0l-11.854,0c-.469,0-.966-.024-1.518-.069a1.715,1.715,0,0,0-1.857,1.707v.449h-6.09v-3.914a1.714,1.714,0,0,0-.727-1.4,17.7,17.7,0,0,1-6.443-8.345,1.716,1.716,0,0,0-1.607-1.117H87.5a.206.206,0,0,1-.206-.206v-8.766a.206.206,0,0,1,.206-.206h2.892a1.718,1.718,0,0,0,1.635-1.2,17.639,17.639,0,0,1,6.271-8.855,1.709,1.709,0,0,0,.682-1.371v-4.674l3.667,1.765a1.713,1.713,0,1,0,1.484-3.088l-4.081-1.964a3.138,3.138,0,0,0-4.5,2.827v4.3a21.055,21.055,0,0,0-6.381,8.828H87.5a3.637,3.637,0,0,0-3.633,3.633v8.766a3.637,3.637,0,0,0,3.633,3.633h2.049a21.083,21.083,0,0,0,6.5,8.3v3.256a3.219,3.219,0,0,0,3.214,3.214h6.511a3.224,3.224,0,0,0,3.012-2.087h10.671a3.224,3.224,0,0,0,3.012,2.087h6.511a3.219,3.219,0,0,0,3.214-3.214v-2.258a21.251,21.251,0,0,0,9.685-17.776,20.964,20.964,0,0,0-6.47-15.229Z" transform="translate(0 -147.752)" fill="#231815"></path>
    <path id="路径_460" d="M292.045,106.864a1.713,1.713,0,1,0,3.427,0,2.885,2.885,0,0,1,5.771,0,1.713,1.713,0,0,0,3.427,0,6.312,6.312,0,0,0-12.625,0Zm29.605-6.94H301.613a1.706,1.706,0,0,1-1.323-.627,14.674,14.674,0,1,1,22.686,0,1.724,1.724,0,0,1-1.326.627ZM302.459,96.5H320.8a11.249,11.249,0,1,0-18.345,0Z" transform="translate(-194.246)" fill="#231815"></path>
    <path id="路径_461" d="M503.416,168.92h-3.3v-1.073h3.3a1.542,1.542,0,0,0,0-3.084h-1.385l1.107-.987a1.541,1.541,0,0,0-2.049-2.3l-2.539,2.265-2.481-2.255a1.543,1.543,0,0,0-2.073,2.286l1.1,1h-1.364a1.542,1.542,0,1,0,0,3.084h3.3v1.073h-3.3a1.542,1.542,0,1,0,0,3.084h3.3v1.929a1.542,1.542,0,0,0,3.084,0v-1.929h3.3a1.544,1.544,0,0,0,0-3.088Z" transform="translate(-380.99 -80.027)" fill="#fc9015"></path>
  </g>
</svg>
