<?xml version="1.0" encoding="UTF-8"?>
<svg xmlns="http://www.w3.org/2000/svg" width="51.723" height="63.38" viewBox="0 0 51.723 63.38">
  <g id="学习" transform="translate(-176.896 -88.064)">
    <path id="路径_566" d="M226.7,97.684h-6.1v-7.7a1.922,1.922,0,0,0-1.922-1.922H183.63A6.742,6.742,0,0,0,176.9,94.8v49.248a7.407,7.407,0,0,0,7.4,7.4h42.4a1.922,1.922,0,0,0,1.922-1.922V99.606a1.92,1.92,0,0,0-1.922-1.922ZM183.63,91.908h33.124v5.777H183.63a2.888,2.888,0,1,1,0-5.777ZM224.775,147.6h-40.48a3.56,3.56,0,0,1-3.555-3.555V100.867a6.676,6.676,0,0,0,2.89.661h41.145V147.6Z" fill="#231815"></path>
    <path id="路径_567" d="M340.18,382.11H310.812a1.922,1.922,0,1,1,0-3.844h29.372a1.922,1.922,0,1,1,0,3.844Zm0,8.095H310.812a1.922,1.922,0,1,1,0-3.844h29.372a1.922,1.922,0,1,1,0,3.844Zm-15.5,8.575H310.812a1.922,1.922,0,1,1,0-3.844h13.864a1.922,1.922,0,1,1,0,3.844Z" transform="translate(-122.086 -268.417)" fill="#fc9015"></path>
  </g>
</svg>
