<?xml version="1.0" encoding="UTF-8"?>
<svg xmlns="http://www.w3.org/2000/svg" width="59.923" height="64.768" viewBox="0 0 59.923 64.768">
  <g id="审批" transform="translate(-106.547 -61.348)">
    <path id="路径_493" d="M172.142,117.313H122.117a4.106,4.106,0,0,1-4.1-4.1V108.2a9.734,9.734,0,0,1,9.723-9.723h11.143v-2.26a18.409,18.409,0,1,1,16.5,0v2.26H166.52a9.734,9.734,0,0,1,9.723,9.723v5.017a4.108,4.108,0,0,1-4.1,4.1Zm-44.4-15.05A5.941,5.941,0,0,0,121.8,108.2v5.017a.313.313,0,0,0,.314.314h50.026a.313.313,0,0,0,.314-.314V108.2a5.944,5.944,0,0,0-5.937-5.937H154a2.416,2.416,0,0,1-2.412-2.412V95.342a2.413,2.413,0,0,1,1.439-2.2,14.623,14.623,0,0,0-4.778-27.96,14.5,14.5,0,0,0-11.067,3.862,14.625,14.625,0,0,0,4.044,24.1,2.409,2.409,0,0,1,1.439,2.2v4.509a2.416,2.416,0,0,1-2.412,2.412Z" transform="translate(-10.621 0)" fill="#231815"></path>
    <path id="路径_494" d="M164.577,889.8H108.44a1.893,1.893,0,0,1,0-3.786h56.137a1.893,1.893,0,0,1,0,3.786Z" transform="translate(0 -763.686)" fill="#fc9015"></path>
  </g>
</svg>
