<?xml version="1.0" encoding="UTF-8"?>
<svg xmlns="http://www.w3.org/2000/svg" width="71.8" height="68.019" viewBox="0 0 71.8 68.019">
  <g id="客服咨询" transform="translate(-72.499 -82.842)">
    <path id="路径_608" d="M458.5,651.785c-1.046,0-2.133-.046-3.262-.146a2.093,2.093,0,0,1,.364-4.17c8.507.744,15.127-1.652,19.681-7.114a21.733,21.733,0,0,0,4.341-8.406,2.092,2.092,0,0,1,4.094.857,25.9,25.9,0,0,1-5.219,10.23c-3.429,4.111-9.6,8.749-20,8.749Z" transform="translate(-349.722 -502.726)" fill="#fc9015"></path>
    <path id="路径_609" d="M439.857,824.215m-3.889,0a3.889,3.889,0,1,0,3.889-3.889,3.889,3.889,0,0,0-3.889,3.889Z" transform="translate(-333.78 -677.244)" fill="#fc9015"></path>
    <path id="路径_610" d="M137.511,105.2h-3.689a25.633,25.633,0,0,0-50.847,0H79.287a6.8,6.8,0,0,0-6.788,6.788v12.965a6.8,6.8,0,0,0,6.788,6.788h5.562a2.092,2.092,0,0,0,2.091-2.091v-21.17a21.459,21.459,0,0,1,42.917,0v21.17a2.092,2.092,0,0,0,2.091,2.091h5.562a6.8,6.8,0,0,0,6.788-6.788V111.992a6.8,6.8,0,0,0-6.788-6.788Zm-60.83,19.752V111.992a2.609,2.609,0,0,1,2.605-2.605h3.471v18.176H79.287a2.6,2.6,0,0,1-2.605-2.605Zm63.435,0a2.609,2.609,0,0,1-2.605,2.605H134.04V109.386h3.471a2.609,2.609,0,0,1,2.605,2.605v12.965Z" transform="translate(0 0)" fill="#231815"></path>
  </g>
</svg>
