<?xml version="1.0" encoding="UTF-8"?>
<svg xmlns="http://www.w3.org/2000/svg" width="68.019" height="68.019" viewBox="0 0 68.019 68.019">
  <g id="帮助中心" transform="translate(-80.896 -80.231)">
    <path id="路径_613" d="M114.905,148.25a34.009,34.009,0,1,1,34.009-34.009A34.047,34.047,0,0,1,114.905,148.25Zm0-63.975a29.961,29.961,0,1,0,29.961,29.961A29.995,29.995,0,0,0,114.905,84.275Z" fill="#231815"></path>
    <path id="路径_614" d="M370.279,287.2a2.025,2.025,0,0,1-2.024-2.024v-4.554a9.283,9.283,0,0,1,5.392-8.376,8.051,8.051,0,1,0-11.4-7.315,2.024,2.024,0,0,1-4.048,0,12.084,12.084,0,1,1,17.157,10.991,5.226,5.226,0,0,0-3.048,4.7v4.554a2.024,2.024,0,0,1-2.024,2.02Z" transform="translate(-255.374 -158.948)" fill="#fc9015"></path>
    <path id="路径_615" d="M485.079,724.541m-2.263,0a2.263,2.263,0,1,0,2.263-2.263A2.263,2.263,0,0,0,482.816,724.541Z" transform="translate(-370.141 -591.282)" fill="#fc3b57"></path>
  </g>
</svg>
