<?xml version="1.0" encoding="UTF-8"?>
<svg xmlns="http://www.w3.org/2000/svg" width="60.401" height="60.401" viewBox="0 0 60.401 60.401">
  <g id="我的存款" transform="translate(-110.643 -100.915)">
    <path id="路径_540" d="M161.579,161.316H120.108a9.473,9.473,0,0,1-9.465-9.465V110.38a9.473,9.473,0,0,1,9.465-9.465h41.471a9.473,9.473,0,0,1,9.465,9.465v41.471a9.478,9.478,0,0,1-9.465,9.465ZM120.108,104.7a5.686,5.686,0,0,0-5.679,5.679v41.471a5.686,5.686,0,0,0,5.679,5.679h41.471a5.686,5.686,0,0,0,5.679-5.679V110.38a5.686,5.686,0,0,0-5.679-5.679Z" fill="#231815"></path>
    <path id="路径_541" d="M370.844,334.546h-8.912V328.7h8.912a1.893,1.893,0,0,0,0-3.786h-7.277l5.656-5.24a1.894,1.894,0,1,0-2.574-2.779l-6.675,6.182-6.538-6.171a1.892,1.892,0,1,0-2.6,2.752l5.565,5.255h-7.171a1.893,1.893,0,1,0,0,3.786h8.912v5.846h-8.912a1.893,1.893,0,1,0,0,3.786h8.912v6.152a1.893,1.893,0,0,0,3.786,0v-6.152h8.912a1.893,1.893,0,1,0,0-3.786Z" transform="translate(-219.195 -199.542)" fill="#fc9015"></path>
  </g>
</svg>
