<?xml version="1.0" encoding="UTF-8"?>
<svg xmlns="http://www.w3.org/2000/svg" width="74.315" height="60.794" viewBox="0 0 74.315 60.794">
  <g id="我的账户" transform="translate(-79.206 -144.026)">
    <path id="路径_542" d="M143.411,204.82H89.316a10.123,10.123,0,0,1-10.11-10.11V154.136a10.123,10.123,0,0,1,10.11-10.11h54.095a10.123,10.123,0,0,1,10.11,10.11v40.573a10.123,10.123,0,0,1-10.11,10.11Zm-54.095-56.4a5.72,5.72,0,0,0-5.715,5.715v40.573a5.72,5.72,0,0,0,5.715,5.715h54.095a5.72,5.72,0,0,0,5.715-5.715V154.136a5.72,5.72,0,0,0-5.715-5.715Z" fill="#231815"></path>
    <path id="路径_543" d="M279.527,329.014A8.475,8.475,0,1,1,288,320.539a8.485,8.485,0,0,1-8.475,8.475Zm0-12.554a4.079,4.079,0,1,0,4.079,4.079A4.082,4.082,0,0,0,279.527,316.46Z" transform="translate(-175.375 -153.611)" fill="#fc9015"></path>
    <path id="路径_544" d="M230.674,488.861H206.691a2.2,2.2,0,0,1-2.2-2.2,14.19,14.19,0,0,1,28.379,0,2.2,2.2,0,0,1-2.2,2.2Zm-21.535-4.4H228.23a9.8,9.8,0,0,0-19.091,0Z" transform="translate(-114.53 -300.248)" fill="#fc9015"></path>
    <path id="路径_545" d="M593.739,348.281H577.686a2.2,2.2,0,0,1,0-4.4h16.049a2.2,2.2,0,0,1,0,4.4Zm0-11.8H577.686a2.2,2.2,0,1,1,0-4.4h16.049a2.2,2.2,0,0,1,0,4.4Zm0,21.671H581.312a2.2,2.2,0,1,1,0-4.4h12.427a2.2,2.2,0,0,1,0,4.4Z" transform="translate(-453.674 -171.911)" fill="#231815"></path>
  </g>
</svg>
