<?xml version="1.0" encoding="UTF-8"?>
<svg xmlns="http://www.w3.org/2000/svg" width="61.581" height="56.853" viewBox="0 0 61.581 56.853">
  <g id="房贷" transform="translate(-55.63 -83.149)">
    <path id="路径_449" d="M57.358,114.045a1.728,1.728,0,0,1-1.226-2.947L82.289,84.814a5.6,5.6,0,0,1,3.99-1.665h.014a5.622,5.622,0,0,1,3.986,1.644L116.7,111.088a1.727,1.727,0,1,1-2.435,2.449L87.844,87.246a2.2,2.2,0,0,0-3.1.007l-26.16,26.281a1.713,1.713,0,0,1-1.223.511Z" fill="#231815"></path>
    <path id="路径_450" d="M213.942,530.321H179.7a5.406,5.406,0,0,1-5.468-5.33V504.005a1.727,1.727,0,0,1,3.454,0v20.986a1.953,1.953,0,0,0,2.014,1.876h34.24a1.953,1.953,0,0,0,2.014-1.876V503.436a1.727,1.727,0,1,1,3.454,0v21.556a5.406,5.406,0,0,1-5.468,5.33Z" transform="translate(-110.602 -390.32)" fill="#231815"></path>
    <path id="路径_451" d="M383.555,435.776h-6.429v-3.817h6.429a1.727,1.727,0,1,0,0-3.454h-4.733l3.713-3.441a1.728,1.728,0,1,0-2.349-2.536l-4.833,4.48-4.733-4.467a1.728,1.728,0,0,0-2.37,2.515l3.655,3.451h-4.663a1.727,1.727,0,0,0,0,3.454h6.429v3.817h-6.429a1.727,1.727,0,0,0,0,3.454h6.429v4.346a1.727,1.727,0,0,0,3.454,0v-4.346h6.429a1.729,1.729,0,0,0,0-3.458Z" transform="translate(-288.979 -316.052)" fill="#fc9015"></path>
  </g>
</svg>
