<?xml version="1.0" encoding="UTF-8"?>
<svg xmlns="http://www.w3.org/2000/svg" width="48.6" height="59.162" viewBox="0 0 48.6 59.162">
  <g id="手机话费" transform="translate(-159.846 -77.67)">
    <path id="路径_531" d="M200.426,136.832H167.866a8.03,8.03,0,0,1-8.02-8.02V85.69a8.03,8.03,0,0,1,8.02-8.02h32.559a8.03,8.03,0,0,1,8.02,8.02v43.122a8.03,8.03,0,0,1-8.02,8.02ZM167.866,81.157a4.538,4.538,0,0,0-4.533,4.533v43.122a4.538,4.538,0,0,0,4.533,4.533h32.559a4.538,4.538,0,0,0,4.533-4.533V85.69a4.538,4.538,0,0,0-4.533-4.533Z" fill="#231815"></path>
    <path id="路径_532" d="M299.446,224.135H276.3a5.151,5.151,0,0,1-5.143-5.143v-29.17a5.151,5.151,0,0,1,5.143-5.143h23.147a5.151,5.151,0,0,1,5.143,5.143v29.166a5.147,5.147,0,0,1-5.143,5.147ZM276.3,188.165a1.658,1.658,0,0,0-1.656,1.656v29.166a1.658,1.658,0,0,0,1.656,1.656h23.147a1.658,1.658,0,0,0,1.656-1.656V189.822a1.658,1.658,0,0,0-1.656-1.656ZM293.385,230.7H282.363a1.744,1.744,0,1,1,0-3.487h11.023a1.744,1.744,0,1,1,0,3.487Z" transform="translate(-103.728 -99.72)" fill="#231815"></path>
    <path id="路径_533" d="M419.028,354.986h-4.069v-1.695h4.069a1.744,1.744,0,1,0,0-3.487h-2.064l1.688-1.562a1.745,1.745,0,1,0-2.371-2.56l-3.093,2.866-3.023-2.856a1.744,1.744,0,0,0-2.392,2.539l1.667,1.573h-2.033a1.744,1.744,0,1,0,0,3.487h4.066v1.695H407.4a1.744,1.744,0,1,0,0,3.487h4.069v2.584a1.744,1.744,0,0,0,3.487,0v-2.584h4.069a1.744,1.744,0,1,0,0-3.487Z" transform="translate(-229.07 -249.325)" fill="#fc9015"></path>
  </g>
</svg>
