<?xml version="1.0" encoding="UTF-8"?>
<svg xmlns="http://www.w3.org/2000/svg" width="63.191" height="63.191" viewBox="0 0 63.191 63.191">
  <g id="扫描" transform="translate(-112.384 -112.384)">
    <path id="路径_518" d="M166.342,175.575H153.63a2.024,2.024,0,0,1,0-4.048h12.711a5.193,5.193,0,0,0,5.186-5.186V153.63a2.024,2.024,0,0,1,4.048,0v12.711a9.243,9.243,0,0,1-9.234,9.234Zm-32.013,0H121.618a9.243,9.243,0,0,1-9.234-9.234V153.63a2.024,2.024,0,0,1,4.048,0v12.711a5.193,5.193,0,0,0,5.186,5.186h12.711a2.024,2.024,0,1,1,0,4.048Zm-19.921-39.222a2.025,2.025,0,0,1-2.024-2.024V121.618a9.243,9.243,0,0,1,9.234-9.234h12.711a2.024,2.024,0,0,1,0,4.048H121.618a5.193,5.193,0,0,0-5.186,5.186v12.711a2.025,2.025,0,0,1-2.024,2.024Zm59.143,0a2.025,2.025,0,0,1-2.024-2.024V121.618a5.193,5.193,0,0,0-5.186-5.186H153.63a2.024,2.024,0,0,1,0-4.048h12.711a9.243,9.243,0,0,1,9.234,9.234v12.711a2.022,2.022,0,0,1-2.024,2.024Z" transform="translate(0 0)" fill="#231815"></path>
    <path id="路径_519" d="M296.467,491.933H258.69a2.024,2.024,0,1,1,0-4.048h37.777a2.024,2.024,0,0,1,0,4.048Z" transform="translate(-132.874 -345.812)" fill="#fc9015"></path>
  </g>
</svg>
