<?xml version="1.0" encoding="UTF-8"?>
<svg xmlns="http://www.w3.org/2000/svg" width="59.78" height="66.563" viewBox="0 0 59.78 66.563">
  <g id="投资资金" transform="translate(-118.938 -77.542)">
    <path id="路径_570" d="M379.73,348.971h-7.681V344.29h7.681a1.955,1.955,0,1,0,0-3.911h-5.807l4.544-4.212a1.957,1.957,0,1,0-2.659-2.871l-5.768,5.346-5.647-5.33a1.956,1.956,0,0,0-2.683,2.847l4.474,4.224h-5.725a1.955,1.955,0,1,0,0,3.911h7.681v4.677h-7.681a1.955,1.955,0,1,0,0,3.911h7.681V358.1a1.955,1.955,0,1,0,3.911,0v-5.217h7.681a1.955,1.955,0,0,0,0-3.911Z" transform="translate(-221.266 -235.738)" fill="#fc9015"></path>
    <path id="路径_571" d="M148.828,144.105a7.94,7.94,0,0,1-3.973-1.06l-21.943-12.667a7.967,7.967,0,0,1-3.973-6.883V98.158a7.967,7.967,0,0,1,3.973-6.883L144.854,78.6a7.965,7.965,0,0,1,7.947,0l21.943,12.667a7.967,7.967,0,0,1,3.973,6.883v25.338a7.967,7.967,0,0,1-3.973,6.883L152.8,143.042a7.944,7.944,0,0,1-3.973,1.064Zm0-62.654a4.023,4.023,0,0,0-2.018.54L124.866,94.662a4.05,4.05,0,0,0-2.018,3.5V123.5a4.05,4.05,0,0,0,2.018,3.5l21.943,12.667a4.043,4.043,0,0,0,4.036,0l21.943-12.667a4.05,4.05,0,0,0,2.018-3.5V98.158a4.05,4.05,0,0,0-2.018-3.5L150.846,81.995a4,4,0,0,0-2.018-.544Z" fill="#231815"></path>
  </g>
</svg>
