<?xml version="1.0" encoding="UTF-8"?>
<svg xmlns="http://www.w3.org/2000/svg" width="54.116" height="58.478" viewBox="0 0 54.116 58.478">
  <g id="报告查询" transform="translate(-133.529 -90.01)">
    <path id="路径_440" d="M302.9,345.5H279.667a1.805,1.805,0,1,1,0-3.611h23.227a1.805,1.805,0,0,1,0,3.611ZM290,331.839H279.667a1.805,1.805,0,0,1,0-3.611H290a1.805,1.805,0,0,1,0,3.611Zm-3.694-13.655h-6.644a1.805,1.805,0,0,1,0-3.611h6.644a1.805,1.805,0,0,1,0,3.611Z" transform="translate(-134.155 -208.727)" fill="#231815"></path>
    <path id="路径_441" d="M509.538,254.956a10.111,10.111,0,1,0-3.148,1.773l3.3,5.257a1.808,1.808,0,0,0,1.531.845,1.783,1.783,0,0,0,.957-.278,1.8,1.8,0,0,0,.57-2.488l-3.21-5.109Zm-8.109-1.5a6.529,6.529,0,1,1,4.947-.672A6.47,6.47,0,0,1,501.429,253.454Z" transform="translate(-334.09 -136.643)" fill="#fc9015"></path>
    <path id="路径_442" d="M164.476,148.484H141.848a8.343,8.343,0,0,1-8.319-8.348V98.358a8.341,8.341,0,0,1,8.319-8.348h37.478a8.343,8.343,0,0,1,8.319,8.348V140.31a8.3,8.3,0,0,1-8.406,8.124l-14.757.054s0,0-.007,0ZM141.848,93.621a4.727,4.727,0,0,0-4.708,4.737V140.14a4.729,4.729,0,0,0,4.708,4.737h22.624l14.757-.054a4.684,4.684,0,0,0,4.806-4.513V98.358a4.729,4.729,0,0,0-4.708-4.737H141.848Z" transform="translate(0 0)" fill="#231815"></path>
  </g>
</svg>
