<?xml version="1.0" encoding="UTF-8"?>
<svg xmlns="http://www.w3.org/2000/svg" width="54.955" height="54.955" viewBox="0 0 54.955 54.955">
  <g id="抵押" transform="translate(-81.869 -81.869)">
    <path id="路径_456" d="M109.347,136.824a27.478,27.478,0,1,1,27.478-27.478A27.51,27.51,0,0,1,109.347,136.824Zm0-51.685a24.207,24.207,0,1,0,24.207,24.207A24.234,24.234,0,0,0,109.347,85.14Z" fill="#231815"></path>
    <path id="路径_457" d="M308.743,306.321l-.484.271V300.4h.494a1.635,1.635,0,1,0,0-3.271h-.494v-1.662a1.635,1.635,0,0,0-3.271,0v1.662h-1.956a1.635,1.635,0,0,0,0,3.271h1.956v8.036L302.227,310a1.634,1.634,0,1,0,1.606,2.846l1.151-.651V317.3h-1.37a1.635,1.635,0,1,0,0,3.271h3.006a1.636,1.636,0,0,0,1.635-1.635v-8.586l2.09-1.181a1.633,1.633,0,1,0-1.6-2.846Zm15.778.6h2.142a1.635,1.635,0,1,0,0-3.271h-2.8c-.491-2.6-.837-4.867-1.03-6.208H325.7a1.635,1.635,0,1,0,0-3.271H313.138a1.636,1.636,0,0,0-1.635,1.635v18.457a1.636,1.636,0,0,0,1.635,1.635h5.044a1.635,1.635,0,0,0,0-3.271h-3.408v-5.708h6.4c.968,4.586,2.326,9.642,4.056,12.8a1.635,1.635,0,0,0,1.436.85,1.666,1.666,0,0,0,.785-.2,1.639,1.639,0,0,0,.651-2.221C326.627,315.459,325.42,311.07,324.521,306.919Zm-9.747-3.271v-6.208h4.752c.167,1.2.5,3.483,1,6.208h-5.757Z" transform="translate(-205.502 -198.426)" fill="#fc9015"></path>
    <path id="路径_458" d="M462.388,662.221h-5.073a1.635,1.635,0,1,0,0,3.271h5.073a1.635,1.635,0,0,0,0-3.271Z" transform="translate(-349.931 -543.278)" fill="#fc9015"></path>
  </g>
</svg>
