<?xml version="1.0" encoding="UTF-8"?>
<svg xmlns="http://www.w3.org/2000/svg" width="61.147" height="64.355" viewBox="0 0 61.147 64.355">
  <g id="推荐有礼" transform="translate(-129.766 -89.293)">
    <path id="路径_572" d="M190.88,146.724l-4.421-42.633a6.334,6.334,0,0,0-6.36-5.647h-4.333a17.579,17.579,0,0,0-30.854,0h-4.774a6.325,6.325,0,0,0-6.368,5.711l-3.977,42.633a6.262,6.262,0,0,0,1.6,4.77,6.446,6.446,0,0,0,4.762,2.091H184.52a6.464,6.464,0,0,0,4.786-2.115,6.228,6.228,0,0,0,1.574-4.81ZM160.338,93.3a13.567,13.567,0,0,1,10.633,5.146H149.7A13.567,13.567,0,0,1,160.338,93.3Zm25.992,55.553a2.429,2.429,0,0,1-1.81.793H136.156a2.41,2.41,0,0,1-1.8-.785,2.2,2.2,0,0,1-.577-1.7l3.981-42.633a2.337,2.337,0,0,1,2.379-2.079h3.18a17.552,17.552,0,0,0-.565,4.429,2,2,0,0,0,4,0,13.528,13.528,0,0,1,.745-4.429H173.17a13.528,13.528,0,0,1,.745,4.429,2,2,0,0,0,4,0,17.574,17.574,0,0,0-.565-4.429h2.739a2.347,2.347,0,0,1,2.379,2.059l4.425,42.629a2.191,2.191,0,0,1-.569,1.714Z" transform="translate(0 0)" fill="#231815"></path>
    <path id="路径_573" d="M363.46,686.808H338.693a2,2,0,1,1,0-4H363.46a2,2,0,1,1,0,4Z" transform="translate(-190.739 -547.085)" fill="#fc9015"></path>
  </g>
</svg>
