<?xml version="1.0" encoding="UTF-8"?>
<svg xmlns="http://www.w3.org/2000/svg" width="67.435" height="65.136" viewBox="0 0 67.435 65.136">
  <g id="提现" transform="translate(-73.933 -77.415)">
    <path id="路径_595" d="M106.5,142.551a32.568,32.568,0,1,1,18.193-59.584,1.938,1.938,0,0,1-2.167,3.214,28.694,28.694,0,1,0,12.665,23.8,1.938,1.938,0,1,1,3.877,0A32.606,32.606,0,0,1,106.5,142.551Z" fill="#231815"></path>
    <path id="路径_596" d="M369.044,342.575h-7.994v-4.982h7.994a1.938,1.938,0,1,0,0-3.877h-6.187l4.83-4.474a1.939,1.939,0,1,0-2.636-2.845l-6,5.559-5.877-5.544a1.939,1.939,0,1,0-2.659,2.822l4.757,4.489h-6.1a1.938,1.938,0,1,0,0,3.877h7.994v4.978h-7.994a1.938,1.938,0,1,0,0,3.877h7.994v5.458a1.938,1.938,0,1,0,3.877,0v-5.458h7.994a1.94,1.94,0,0,0,0-3.881Z" transform="translate(-252.611 -229.654)" fill="#231815"></path>
    <path id="路径_597" d="M739.205,297.253H724.78a1.938,1.938,0,0,1,0-3.877h14.425a1.938,1.938,0,0,1,0,3.877Z" transform="translate(-599.776 -199.609)" fill="#fc9015"></path>
  </g>
</svg>
