<?xml version="1.0" encoding="UTF-8"?>
<svg xmlns="http://www.w3.org/2000/svg" width="64.904" height="64.768" viewBox="0 0 64.904 64.768">
  <g id="提现" transform="translate(-82.777 -76.035)">
    <path id="路径_498" d="M130.491,140.8H98.253a15.138,15.138,0,0,1-11.574-5.585c-.015-.019-.031-.042-.046-.062-5.743-8.5-5.085-17.937,2.077-29.688a29.919,29.919,0,0,1,12.259-10.863,20.2,20.2,0,0,1-4.124-8.655l-.023-.115c-.55-3.377.673-6.243,3.2-7.485,2.212-1.089,4.835-.7,7.2.981a10.032,10.032,0,0,1,6.166-3.22,10.7,10.7,0,0,1,8.82,3.185c3.254-1.746,6.847-1.823,9.159-.081,1.135.858,3.55,3.462,1.508,9.155a16.488,16.488,0,0,1-3.835,6.27,34.1,34.1,0,0,1,15.7,16.556,33.613,33.613,0,0,1,2.793,16.736c-.935,7.939-7.459,12.871-17.036,12.871ZM89.8,132.972a11.243,11.243,0,0,0,8.455,3.989h32.242c3.639,0,12.209-.923,13.213-9.474.862-7.347-1.969-23.195-18.852-30.592a1.923,1.923,0,0,1-.4-3.285,13.5,13.5,0,0,0,4.754-6.4l.035-.1c.846-2.335.777-4.093-.188-4.82-1.112-.835-3.677-.673-6.051,1.046a1.925,1.925,0,0,1-2.623-.346c-1.835-2.266-4.147-3.35-6.512-3.054a5.768,5.768,0,0,0-4.52,3.089,1.923,1.923,0,0,1-3.15.508c-1.858-1.985-3.573-2.169-4.477-1.727-.95.465-1.362,1.719-1.108,3.358a15.436,15.436,0,0,0,4.9,8.578,1.922,1.922,0,0,1-.508,3.239c-4.043,1.681-9.586,4.862-13.013,10.486-6.362,10.443-7.039,18.31-2.2,25.507Z" fill="#231815"></path>
    <path id="路径_499" d="M414.042,490.619l-6.993-6.478a1.925,1.925,0,0,0-2.627.012l-6.862,6.478a1.924,1.924,0,0,0,2.639,2.8l3.685-3.477v16.159a1.923,1.923,0,1,0,3.847,0v-16.1l3.7,3.423a1.923,1.923,0,1,0,2.616-2.82Z" transform="translate(-290.575 -376.973)" fill="#fc9015"></path>
  </g>
</svg>
