<?xml version="1.0" encoding="UTF-8"?>
<svg xmlns="http://www.w3.org/2000/svg" width="63.498" height="63.498" viewBox="0 0 63.498 63.498">
  <g id="收藏" transform="translate(-82.791 -75.469)">
    <path id="路径_481" d="M114.54,138.967a31.749,31.749,0,1,1,31.749-31.749A31.784,31.784,0,0,1,114.54,138.967Zm0-59.722a27.97,27.97,0,1,0,27.97,27.97A28,28,0,0,0,114.54,79.244Z" transform="translate(0)" fill="#231815"></path>
    <path id="路径_482" d="M316.953,325.181a3.428,3.428,0,0,1-1.606-.4l-6.3-3.314-6.3,3.314a3.45,3.45,0,0,1-5-3.636l1.2-7.018-5.1-4.973a3.449,3.449,0,0,1,1.912-5.884l7.048-1.024,3.152-6.383a3.446,3.446,0,0,1,6.183,0l3.152,6.387,7.048,1.024a3.449,3.449,0,0,1,1.912,5.884l-5.1,4.97,1.206,7.018a3.46,3.46,0,0,1-3.4,4.036Zm-20-18.265,4.743,4.626a3.443,3.443,0,0,1,.99,3.054l-1.119,6.53,5.865-3.084a3.441,3.441,0,0,1,3.209,0l5.865,3.084-1.119-6.53a3.449,3.449,0,0,1,.99-3.054l4.743-4.626-6.557-.952a3.451,3.451,0,0,1-2.6-1.886l-2.933-5.941-2.933,5.941a3.442,3.442,0,0,1-2.6,1.886Zm18.408-4.512h0Z" transform="translate(-194.503 -202.344)" fill="#fc9015"></path>
  </g>
</svg>
