<?xml version="1.0" encoding="UTF-8"?>
<svg xmlns="http://www.w3.org/2000/svg" width="68.494" height="60.534" viewBox="0 0 68.494 60.534">
  <g id="数据统计" transform="translate(-81.101 -123.085)">
    <path id="路径_487" d="M422.806,173.811H410.3a2.032,2.032,0,0,1-2.031-2.031V125.116a2.032,2.032,0,0,1,2.031-2.031h12.506a2.032,2.032,0,0,1,2.031,2.031V171.78a2.03,2.03,0,0,1-2.031,2.031Zm-10.474-4.063h8.443v-42.6h-8.443v42.6Z" transform="translate(-301.206 0)" fill="#fc9015"></path>
    <path id="路径_488" d="M100.128,266.812H87.622a2.032,2.032,0,0,1-2.031-2.031V226.133a2.032,2.032,0,0,1,2.031-2.031h12.51a2.032,2.032,0,0,1,2.031,2.031V264.78a2.038,2.038,0,0,1-2.036,2.031Zm-10.474-4.063H98.1V228.165H89.654v34.584Zm53.424,4.063h-12.51a2.032,2.032,0,0,1-2.031-2.031v-24.89a2.032,2.032,0,0,1,2.031-2.031h12.51a2.032,2.032,0,0,1,2.031,2.031v24.886a2.033,2.033,0,0,1-2.031,2.036ZM132.6,262.749h8.447V241.922H132.6Zm14.964,13.871H83.132a2.031,2.031,0,1,1,0-4.063h64.431a2.031,2.031,0,1,1,0,4.063Z" transform="translate(0 -93.001)" fill="#231815"></path>
  </g>
</svg>
