<?xml version="1.0" encoding="UTF-8"?>
<svg xmlns="http://www.w3.org/2000/svg" width="67.579" height="67.579" viewBox="0 0 67.579 67.579">
  <g id="更多" transform="translate(-83.968 -77.671)">
    <path id="路径_600" d="M117.758,145.25a33.79,33.79,0,1,1,33.79-33.79A33.83,33.83,0,0,1,117.758,145.25Zm0-63.561a29.768,29.768,0,1,0,29.768,29.768A29.8,29.8,0,0,0,117.758,81.689Z" fill="#231815"></path>
    <path id="路径_601" d="M474.549,474.4m-2.844,0a2.844,2.844,0,1,0,2.844-2.844A2.844,2.844,0,0,0,471.706,474.4Z" transform="translate(-357.278 -362.939)" fill="#fc9015"></path>
    <path id="路径_602" d="M296.168,474.4m-2.844,0a2.844,2.844,0,1,0,2.844-2.844A2.844,2.844,0,0,0,293.325,474.4Z" transform="translate(-192.91 -362.939)" fill="#fc9015"></path>
    <path id="路径_603" d="M652.93,474.4m-2.844,0a2.844,2.844,0,1,0,2.844-2.844A2.844,2.844,0,0,0,650.087,474.4Z" transform="translate(-521.646 -362.939)" fill="#fc9015"></path>
  </g>
</svg>
