<?xml version="1.0" encoding="UTF-8"?>
<svg xmlns="http://www.w3.org/2000/svg" width="63.854" height="65.777" viewBox="0 0 63.854 65.777">
  <g id="月账单" transform="translate(-106.24 -82.791)">
    <path id="路径_568" d="M162.077,88.083h-7.019V84.794a2,2,0,0,0-4.006,0v3.289H124.794V84.794a2,2,0,0,0-4.006,0v3.289h-6.534A8.021,8.021,0,0,0,106.24,96.1v44.459a8.021,8.021,0,0,0,8.013,8.013h47.828a8.021,8.021,0,0,0,8.013-8.013V96.1a8.027,8.027,0,0,0-8.017-8.013Zm4.006,52.472a4.013,4.013,0,0,1-4.006,4.006H114.253a4.013,4.013,0,0,1-4.006-4.006V96.1a4.013,4.013,0,0,1,4.006-4.006h6.534v3.185a2,2,0,1,0,4.006,0V92.09h26.262v3.185a2,2,0,1,0,4.006,0V92.09h7.019a4.013,4.013,0,0,1,4.006,4.006v44.459Z" transform="translate(0 0)" fill="#231815"></path>
    <path id="路径_569" d="M293.964,447.347H267.377a2,2,0,0,1,0-4.006h26.586a2,2,0,1,1,0,4.006Zm8.345,15.24H267.373a2,2,0,0,1,0-4.006h34.936a2,2,0,0,1,0,4.006Z" transform="translate(-146.678 -332.337)" fill="#fc9015"></path>
  </g>
</svg>
