<?xml version="1.0" encoding="UTF-8"?>
<svg xmlns="http://www.w3.org/2000/svg" width="63.566" height="58.439" viewBox="0 0 63.566 58.439">
  <g id="服务" transform="translate(-85.504 -114.893)">
    <path id="路径_417" d="M144.309,120.746h-7.562v-1.034a4.824,4.824,0,0,0-4.819-4.819H102.177a4.826,4.826,0,0,0-4.819,4.819v1.034h-7.1A4.761,4.761,0,0,0,85.5,125.5v5.509c0,7.112,3.464,14.971,13.125,15.99a19.738,19.738,0,0,0,16.57,12.659v9.855h-10.66a1.908,1.908,0,1,0,0,3.815h25.337a1.908,1.908,0,0,0,0-3.815H119.014v-9.862a19.738,19.738,0,0,0,16.448-12.6c10.034-.8,13.609-8.809,13.609-16.039V125.5a4.767,4.767,0,0,0-4.761-4.758Zm-54.99,10.267V125.5a.944.944,0,0,1,.942-.942h7.1v15.5a19.909,19.909,0,0,0,.217,2.919c-7.627-1.679-8.26-9.469-8.26-11.965Zm43.612,9.046a15.879,15.879,0,0,1-31.758,0V119.708a1,1,0,0,1,1-1h29.752a1,1,0,0,1,1,1v20.351Zm12.32-9.046c0,2.545-.66,10.6-8.733,12.056a19.583,19.583,0,0,0,.229-3.01v-15.5h7.562a.944.944,0,0,1,.942.942v5.509Z" fill="#231815"></path>
    <path id="路径_418" d="M357.9,245.155a1.908,1.908,0,0,1-1.908-1.908V229.9a1.908,1.908,0,0,1,3.815,0v13.346a1.908,1.908,0,0,1-1.908,1.908Z" transform="translate(-250.334 -104.673)" fill="#fc9015"></path>
  </g>
</svg>
