<?xml version="1.0" encoding="UTF-8"?>
<svg xmlns="http://www.w3.org/2000/svg" width="62.324" height="58.439" viewBox="0 0 62.324 58.439">
  <g id="机构" transform="translate(-76.697 -106.598)">
    <path id="路径_425" d="M320.749,327.3H308.775a1.831,1.831,0,0,1,0-3.662h11.978a1.831,1.831,0,1,1,0,3.662Zm0-10.81H308.775a1.831,1.831,0,0,1,0-3.662h11.978a1.831,1.831,0,1,1,0,3.662Zm0,21.623H308.775a1.831,1.831,0,0,1,0-3.662h11.978a1.831,1.831,0,1,1,0,3.662Z" transform="translate(-213.78 -191.484)" fill="#fc9015"></path>
    <path id="路径_426" d="M137.19,161.379h-2.27V128.111a5.663,5.663,0,0,0-5.657-5.657h-7.54V113.3a6.705,6.705,0,0,0-6.7-6.7H87.166a6.705,6.705,0,0,0-6.7,6.7v48.079H78.528a1.831,1.831,0,0,0,0,3.662H137.19a1.829,1.829,0,1,0,0-3.658Zm-19.133,0H84.131V113.3a3.04,3.04,0,0,1,3.036-3.036h27.855a3.04,3.04,0,0,1,3.036,3.036v48.083Zm13.2,0h-9.535V126.116h7.54a2,2,0,0,1,2,2Z" transform="translate(0 0)" fill="#231815"></path>
  </g>
</svg>
