<?xml version="1.0" encoding="UTF-8"?>
<svg xmlns="http://www.w3.org/2000/svg" width="59.388" height="67.726" viewBox="0 0 59.388 67.726">
  <g id="权益中心" transform="translate(-116.303 -65.318)">
    <path id="路径_564" d="M175.371,121.161,168,109.875a6.907,6.907,0,0,0,3.4-5.943V82.779a6.907,6.907,0,0,0-3.446-5.966L149.635,66.237a6.912,6.912,0,0,0-6.888,0L124.426,76.813a6.911,6.911,0,0,0-3.446,5.966v21.152A6.908,6.908,0,0,0,124.1,109.7l-7.487,11.464a1.92,1.92,0,0,0,1.61,2.97h10.807l4.437,7.929a1.923,1.923,0,0,0,1.656.983h.023a1.919,1.919,0,0,0,1.656-.945l6.654-11.271a6.867,6.867,0,0,0,5.159.127l6.577,11.145a1.927,1.927,0,0,0,1.656.945h.023a1.928,1.928,0,0,0,1.656-.983l4.437-7.929h10.807a1.911,1.911,0,0,0,1.6-2.97Zm-40.18,6.108-3.354-6a1.917,1.917,0,0,0-1.675-.983h-8.39l5.655-8.659,12.67,7.315-4.906,8.325Zm9.477-10.119-18.321-10.576a3.056,3.056,0,0,1-1.525-2.639V82.779a3.051,3.051,0,0,1,1.525-2.639l18.321-10.576a3.06,3.06,0,0,1,3.05,0L166.039,80.14a3.056,3.056,0,0,1,1.525,2.639v21.152a3.051,3.051,0,0,1-1.525,2.639l-18.321,10.576a3.056,3.056,0,0,1-3.05,0Zm17.161,3.139a1.917,1.917,0,0,0-1.675.983l-3.354,6-4.81-8.152,12.678-7.318,5.547,8.49h-8.386Z" transform="translate(0)" fill="#231815"></path>
    <path id="路径_565" d="M349.5,285.129a3,3,0,0,1-2.95-3.507l.9-5.259-3.822-3.726a3,3,0,0,1,1.663-5.113l5.278-.768,2.363-4.783a3,3,0,0,1,5.378,0l2.363,4.783,5.278.768a3,3,0,0,1,1.66,5.113l-3.822,3.723.9,5.259a3,3,0,0,1-4.349,3.158l-4.721-2.482-4.721,2.482A2.967,2.967,0,0,1,349.5,285.129Zm6.124-6.781a2.975,2.975,0,0,1,1.395.346l3.6,1.894-.688-4.011a3.016,3.016,0,0,1,.861-2.655l2.912-2.839-4.026-.584a3,3,0,0,1-2.259-1.64l-1.8-3.65-1.8,3.65a3,3,0,0,1-2.259,1.64l-4.026.584,2.912,2.839a2.992,2.992,0,0,1,.861,2.655l-.688,4.011,3.6-1.894A3.055,3.055,0,0,1,355.626,278.349ZM365.4,271.33Z" transform="translate(-209.433 -180.352)" fill="#fc9015"></path>
  </g>
</svg>
