<?xml version="1.0" encoding="UTF-8"?>
<svg xmlns="http://www.w3.org/2000/svg" width="57.219" height="57.219" viewBox="0 0 57.219 57.219">
  <g id="波动分析" transform="translate(-102.042 -99.584)">
    <path id="路径_405" d="M150.295,156.8H111.008a8.974,8.974,0,0,1-8.966-8.966V108.55a8.974,8.974,0,0,1,8.966-8.966h39.286a8.974,8.974,0,0,1,8.966,8.966v39.286a8.976,8.976,0,0,1-8.966,8.966ZM111.008,103.17a5.386,5.386,0,0,0-5.38,5.38v39.286a5.386,5.386,0,0,0,5.38,5.38h39.286a5.386,5.386,0,0,0,5.38-5.38V108.55a5.386,5.386,0,0,0-5.38-5.38Z" fill="#231815"></path>
    <path id="路径_406" d="M299.848,316.8A1.794,1.794,0,0,1,298.055,315V287.438a1.793,1.793,0,1,1,3.586,0V315A1.794,1.794,0,0,1,299.848,316.8Zm-13.69,0A1.794,1.794,0,0,1,284.365,315V303.678a1.793,1.793,0,0,1,3.587,0V315A1.794,1.794,0,0,1,286.158,316.8Zm27.379,0A1.794,1.794,0,0,1,311.744,315V293.377a1.793,1.793,0,1,1,3.586,0V315A1.8,1.8,0,0,1,313.538,316.8Z" transform="translate(-169.551 -173.028)" fill="#fc9015"></path>
  </g>
</svg>
