<?xml version="1.0" encoding="UTF-8"?>
<svg xmlns="http://www.w3.org/2000/svg" width="61.443" height="63.191" viewBox="0 0 61.443 63.191">
  <g id="添加好友" transform="translate(-111.617 -88.474)">
    <path id="路径_520" d="M158.474,124.75a27.289,27.289,0,0,0-10.9-6.721,16.015,16.015,0,1,0-17.066.008,27.466,27.466,0,0,0-18.9,26.057v4.827a1.917,1.917,0,1,0,3.834,0v-4.827a23.587,23.587,0,0,1,40.309-16.637,1.917,1.917,0,1,0,2.715-2.707Zm-31.621-20.264a12.181,12.181,0,1,1,12.181,12.181A12.194,12.194,0,0,1,126.854,104.486Z" transform="translate(0 0)" fill="#231815"></path>
    <path id="路径_521" d="M662.752,652.132h-6.99v-6.99a1.917,1.917,0,0,0-3.834,0v6.99h-6.99a1.917,1.917,0,1,0,0,3.834h6.99v6.99a1.917,1.917,0,0,0,3.834,0v-6.99h6.99a1.917,1.917,0,1,0,0-3.834Z" transform="translate(-491.609 -513.207)" fill="#fc9015"></path>
  </g>
</svg>
