<?xml version="1.0" encoding="UTF-8"?>
<svg xmlns="http://www.w3.org/2000/svg" width="67.125" height="65.136" viewBox="0 0 67.125 65.136">
  <g id="点赞" transform="translate(-102.4 -97.711)">
    <path id="路径_606" d="M266.857,523.43a2.052,2.052,0,0,1-2.051-2.051v-21.51a2.051,2.051,0,1,1,4.1,0v21.51A2.052,2.052,0,0,1,266.857,523.43Z" transform="translate(-149.392 -368.046)" fill="#fc9015"></path>
    <path id="路径_607" d="M152.854,162.846H109.428a7.036,7.036,0,0,1-7.028-7.028v-26.5a7.036,7.036,0,0,1,7.028-7.028h7.208c1.091-.008,10.88-.32,13.957-8.07a19.4,19.4,0,0,0,1.231-7.98,8.478,8.478,0,0,1,13.547-6.847c2.3,1.867,3.59,5.136,3.824,9.719a32.927,32.927,0,0,1-1.908,11.29h13.559a8.671,8.671,0,0,1,8.2,11.491l-8.837,25.7a7.77,7.77,0,0,1-7.352,5.255ZM140.44,101.816a6.457,6.457,0,0,0-.985.082,4.034,4.034,0,0,0-3.536,4.094,23.461,23.461,0,0,1-1.444,9.559c-.012.037-.025.074-.041.111-4.037,10.314-16.386,10.72-17.781,10.732h-7.225a2.929,2.929,0,0,0-2.925,2.925v26.5a2.929,2.929,0,0,0,2.925,2.925h43.426a3.676,3.676,0,0,0,3.479-2.482l8.837-25.7a4.572,4.572,0,0,0-4.32-6.055H144.387a2.053,2.053,0,0,1-1.916-2.786c1.313-3.43,2.839-8.369,2.63-12.4-.172-3.327-.972-5.658-2.314-6.745A3.579,3.579,0,0,0,140.44,101.816Z" fill="#231815"></path>
  </g>
</svg>
