<?xml version="1.0" encoding="UTF-8"?>
<svg xmlns="http://www.w3.org/2000/svg" width="52.68" height="52.68" viewBox="0 0 52.68 52.68">
  <g id="理财" transform="translate(-106.598 -100.147)">
    <path id="路径_471" d="M151.023,152.827h-36.17a8.262,8.262,0,0,1-8.255-8.255V108.4a8.262,8.262,0,0,1,8.255-8.255h36.17a8.262,8.262,0,0,1,8.255,8.255v36.17A8.264,8.264,0,0,1,151.023,152.827Zm-36.17-49.378A4.959,4.959,0,0,0,109.9,108.4v36.17a4.959,4.959,0,0,0,4.953,4.953h36.17a4.959,4.959,0,0,0,4.953-4.953V108.4a4.959,4.959,0,0,0-4.953-4.953Z" fill="#231815"></path>
    <path id="路径_472" d="M253.923,342.271a1.651,1.651,0,0,1-1.182-2.8l10.012-10.259a1.651,1.651,0,0,1,2.308-.053l4.382,4.088,11.313-12.3H276.37a1.651,1.651,0,1,1,0-3.3h8.146a1.65,1.65,0,0,1,1.215,2.767L270.747,336.7a1.651,1.651,0,0,1-2.341.089l-4.415-4.121-8.882,9.1a1.663,1.663,0,0,1-1.185.5Z" transform="translate(-136.28 -203.471)" fill="#fc9015"></path>
  </g>
</svg>
