<?xml version="1.0" encoding="UTF-8"?>
<svg xmlns="http://www.w3.org/2000/svg" width="66.84" height="66.84" viewBox="0 0 66.84 66.84">
  <g id="理财2" transform="translate(-83.558 -80.231)">
    <path id="路径_509" d="M116.978,147.071a33.42,33.42,0,1,1,33.42-33.42,33.457,33.457,0,0,1-33.42,33.42Zm0-62.866a29.442,29.442,0,1,0,29.442,29.442,29.475,29.475,0,0,0-29.442-29.442Z" fill="#231815"></path>
    <path id="路径_510" d="M324.07,336.67a3.6,3.6,0,0,1-2.554-1.058l-12.364-12.364a3.621,3.621,0,0,1,0-5.112l12.364-12.364a3.621,3.621,0,0,1,5.112,0l12.364,12.364a3.611,3.611,0,0,1,0,5.108l-12.364,12.364a3.6,3.6,0,0,1-2.558,1.062Zm-11.847-15.976,11.851,11.851,11.851-11.851-11.851-11.851ZM336.176,320.949Z" transform="translate(-207.092 -207.044)" fill="#fc9015"></path>
  </g>
</svg>
