<?xml version="1.0" encoding="UTF-8"?>
<svg xmlns="http://www.w3.org/2000/svg" width="58.893" height="59.677" viewBox="0 0 58.893 59.677">
  <g id="理财产品" transform="translate(-82.33 -79.027)">
    <path id="路径_556" d="M111.437,108.079a4.1,4.1,0,0,1-1.872-.453L89.218,97.111A3.778,3.778,0,0,1,89.2,90.35l20.814-10.862a4.073,4.073,0,0,1,3.747-.011l20.8,10.7a3.779,3.779,0,0,1-.035,6.793l-21.267,10.678a4.038,4.038,0,0,1-1.826.432ZM90.842,93.489a.276.276,0,0,0-.18.241c0,.1.06.177.184.241l20.347,10.515a.543.543,0,0,0,.485,0L132.944,93.81c.127-.064.188-.142.188-.244s-.06-.177-.184-.244l-20.8-10.7a.558.558,0,0,0-.492,0ZM105.352,138.7a4.072,4.072,0,0,1-1.967-.506L84.346,127.669a3.819,3.819,0,0,1-2-3.326l-.021-19.8a3.8,3.8,0,0,1,1.857-3.255,4.034,4.034,0,0,1,3.994-.124l19.059,9.963a3.815,3.815,0,0,1,2.08,3.375v20.365a3.791,3.791,0,0,1-1.9,3.276,4.073,4.073,0,0,1-2.07.563ZM86.3,104.237a.534.534,0,0,0-.276.078c-.152.092-.152.191-.152.226l.021,19.8a.29.29,0,0,0,.17.234L105.1,135.106a.528.528,0,0,0,.527-.007c.159-.092.159-.195.159-.226V114.5a.3.3,0,0,0-.18-.241L86.54,104.3a.516.516,0,0,0-.244-.06Z" transform="translate(0 0)" fill="#231815"></path>
    <path id="路径_557" d="M547.969,430.6a4.073,4.073,0,0,1-2.07-.563,3.783,3.783,0,0,1-1.9-3.276V406.393a3.815,3.815,0,0,1,2.08-3.375l19.059-9.963a4.043,4.043,0,0,1,3.994.124,3.791,3.791,0,0,1,1.857,3.255l-.021,19.8a3.822,3.822,0,0,1-2,3.326L549.936,430.09a4.072,4.072,0,0,1-1.967.506Zm19.056-34.467a.55.55,0,0,0-.244.06l-19.059,9.963a.3.3,0,0,0-.18.241v20.365c0,.032,0,.134.159.226a.528.528,0,0,0,.527.007l19.034-10.526a.288.288,0,0,0,.17-.234l.021-19.8c0-.032,0-.131-.152-.226A.579.579,0,0,0,567.025,396.129ZM565.96,394.622Z" transform="translate(-429.768 -291.892)" fill="#fc9015"></path>
  </g>
</svg>
