<?xml version="1.0" encoding="UTF-8"?>
<svg xmlns="http://www.w3.org/2000/svg" width="54.486" height="63.498" viewBox="0 0 54.486 63.498">
  <g id="生活缴费" transform="translate(-138.957 -66.552)">
    <path id="路径_485" d="M166.2,130.049a27.271,27.271,0,0,1-27.243-27.243c0-14.261,11.924-27.994,23.739-35.278a6.642,6.642,0,0,1,7,.041c11.819,7.474,23.747,21.268,23.747,35.241A27.273,27.273,0,0,1,166.2,130.049Zm-.037-59.762a2.9,2.9,0,0,0-1.507.423c-10.578,6.521-21.963,19.346-21.963,32.1a23.5,23.5,0,1,0,47.008,0c0-12.548-11.053-25.153-22-32.078a2.852,2.852,0,0,0-1.533-.441Z" fill="#231815"></path>
    <path id="路径_486" d="M378.615,360.364h-7.508v-4.622h7.508a1.87,1.87,0,1,0,0-3.739h-5.739l4.487-4.158a1.871,1.871,0,1,0-2.543-2.745l-5.635,5.227-5.519-5.212a1.87,1.87,0,0,0-2.565,2.722L365.517,352H359.86a1.87,1.87,0,1,0,0,3.739h7.508v4.622H359.86a1.87,1.87,0,1,0,0,3.739h7.508v5.111a1.87,1.87,0,0,0,3.739,0V364.1h7.508a1.87,1.87,0,1,0,0-3.739Z" transform="translate(-203.037 -257.744)" fill="#fc9015"></path>
  </g>
</svg>
