<?xml version="1.0" encoding="UTF-8"?>
<svg xmlns="http://www.w3.org/2000/svg" width="119.562" height="104.63" viewBox="0 0 119.562 104.63">
  <g id="睡觉" transform="translate(-196.756 -126.365)">
    <path id="路径_155" d="M298.2,183.909A49.813,49.813,0,1,1,248.389,134.1,49.818,49.818,0,0,1,298.2,183.909Zm0,0" transform="translate(0 -6.338)" fill="#fddf6d"></path>
    <path id="路径_156" d="M259.665,251.691a49.761,49.761,0,0,1-33.286-86.8,49.8,49.8,0,1,0,55.939,81.366,49.991,49.991,0,0,1-22.653,5.432Zm0,0" transform="translate(-0.527 -31.588)" fill="#fcc56b"></path>
    <g id="组_59" transform="translate(196.756 126.365)">
      <path id="路径_11" d="M96.148,23.745A52.4,52.4,0,0,0,74.191,4.78a2.045,2.045,0,1,0-1.712,3.715,48.248,48.248,0,1,1-20.163-4.4,2.045,2.045,0,0,0,0-4.09A52.3,52.3,0,1,0,96.148,23.745Z" transform="translate(-0.001)" fill="#683c1e"></path>
      <path id="路径_13" d="M631.52,22.061m-2.045,0a2.045,2.045,0,1,0,2.045-2.045A2.045,2.045,0,0,0,629.475,22.061Z" transform="translate(-565.156 -17.971)" fill="#683c1e"></path>
    </g>
    <path id="路径_157" d="M378.665,413.743c-4.97,0-9.362-1.271-11.9-3.352a2.05,2.05,0,1,1,2.658-3.121c1.734,1.5,5.432,2.427,9.362,2.427,3.814,0,7.512-.925,9.477-2.427a2.058,2.058,0,0,1,2.543,3.236A22.461,22.461,0,0,1,378.665,413.743Zm0,0,35.135,0c-4.97,0-9.362-1.271-11.9-3.352a2.05,2.05,0,0,1,2.658-3.121c1.734,1.5,5.432,2.427,9.362,2.427,3.814,0,7.513-.925,9.477-2.427a2.058,2.058,0,1,1,2.543,3.236A22.172,22.172,0,0,1,413.8,413.743Zm0,0-9.708,22.537a8.321,8.321,0,1,1-8.322-8.322A8.287,8.287,0,0,1,404.091,436.28Zm0,0" transform="translate(-137.325 -229.931)" fill="#8b481b"></path>
    <path id="路径_158" d="M500.656,170.058a3.285,3.285,0,0,1-1.387-.462,2.2,2.2,0,0,1-.578-2.2l2.2-6.472-4.276,2.312a2.043,2.043,0,0,1-1.965-3.583l8.784-4.739a2.126,2.126,0,0,1,2.311.231,1.982,1.982,0,0,1,.578,2.2l-2.312,6.819,3.467-1.734a1.99,1.99,0,0,1,1.734,3.583l-7.859,3.814a1.239,1.239,0,0,1-.693.231Zm0,0,19.763-9.015a1.975,1.975,0,0,1-1.965-2.658l3.93-11.211-7.975,4.276a2.043,2.043,0,0,1-1.965-3.583l12.482-6.7a2.126,2.126,0,0,1,2.312.231,1.982,1.982,0,0,1,.578,2.2l-3.93,11.442,8.553-4.161a1.99,1.99,0,1,1,1.734,3.583l-12.944,6.357A1.347,1.347,0,0,1,520.42,161.044Zm0,0,21.728-10.286a3.285,3.285,0,0,1-1.387-.462,2.2,2.2,0,0,1-.578-2.2l5.316-15.487-11.326,6.01a2.043,2.043,0,0,1-1.965-3.583l15.834-8.437a2.126,2.126,0,0,1,2.312.231,1.982,1.982,0,0,1,.578,2.2L545.5,144.863l9.824-4.739a1.99,1.99,0,1,1,1.734,3.583l-14.216,6.819a.977.977,0,0,1-.693.231Zm0,0" transform="translate(-241.865 0)" fill="#0daed3"></path>
    <path id="路径_159" d="M481.669,177.085c5.548,1.618,9.246,5.316,8.437,8.437-.925,3.121-6.01,4.276-11.558,2.774-5.548-1.618-9.246-5.316-8.437-8.437S476.122,175.467,481.669,177.085Zm0,0" transform="translate(-222.531 -41.006)" fill="#fceb88"></path>
  </g>
</svg>
