<?xml version="1.0" encoding="UTF-8"?>
<svg xmlns="http://www.w3.org/2000/svg" width="55.801" height="63.911" viewBox="0 0 55.801 63.911">
  <g id="短期理财" transform="translate(-116.89 -65.894)">
    <path id="路径_427" d="M146.625,74.073V69.562h5.6a1.834,1.834,0,0,0,0-3.668H137.356a1.834,1.834,0,0,0,0,3.668h5.6v4.508a27.929,27.929,0,1,0,3.668,0Zm-1.834,52.068A24.235,24.235,0,1,1,169.024,101.9a24.261,24.261,0,0,1-24.233,24.237Z" transform="translate(0)" fill="#231815"></path>
    <path id="路径_428" d="M304.334,415.985a1.834,1.834,0,0,1-1.313-3.114l8.249-8.451a1.834,1.834,0,0,1,2.564-.059l3.261,3.044,8.267-8.986h-2.531a1.834,1.834,0,0,1,0-3.668h6.712a1.832,1.832,0,0,1,1.35,3.074l-12.346,13.42a1.834,1.834,0,0,1-2.6.1l-3.3-3.081-6.994,7.167a1.85,1.85,0,0,1-1.32.554Z" transform="translate(-172.315 -305.3)" fill="#fc9015"></path>
  </g>
</svg>
