<?xml version="1.0" encoding="UTF-8"?>
<svg xmlns="http://www.w3.org/2000/svg" width="56.385" height="55.201" viewBox="0 0 56.385 55.201">
  <g id="积分" transform="translate(-85.402 -94.362)">
    <path id="路径_431" d="M113.594,119.329c-16.072,0-28.192-5.366-28.192-12.486s12.12-12.482,28.192-12.482,28.192,5.366,28.192,12.486S129.667,119.329,113.594,119.329Zm0-21.584c-14.621,0-24.809,4.795-24.809,9.1s10.188,9.1,24.809,9.1,24.809-4.795,24.809-9.1S128.215,97.745,113.594,97.745Z" transform="translate(0)" fill="#231815"></path>
    <path id="路径_432" d="M253.989,280.364c-5.062,0-11.355-1.018-15.186-3.485a1.691,1.691,0,0,1,1.834-2.842c3.57,2.3,10.591,3.2,15.382,2.879a1.692,1.692,0,1,1,.223,3.377c-.707.047-1.465.071-2.254.071Z" transform="translate(-142.54 -167.548)" fill="#fc9015"></path>
    <path id="路径_433" d="M113.594,444.354c-16.072,0-28.192-5.366-28.192-12.486a7.148,7.148,0,0,1,2.017-4.812,1.692,1.692,0,1,1,2.524,2.254,3.909,3.909,0,0,0-1.157,2.561c0,4.3,10.188,9.1,24.809,9.1s24.809-4.795,24.809-9.1a4.057,4.057,0,0,0-1.316-2.734,1.692,1.692,0,1,1,2.45-2.335,7.29,7.29,0,0,1,2.25,5.069c0,7.116-12.12,12.482-28.192,12.482Z" transform="translate(0 -309.981)" fill="#231815"></path>
    <path id="路径_434" d="M113.594,674.19c-16.072,0-28.192-5.367-28.192-12.486a7.148,7.148,0,0,1,2.017-4.812,1.692,1.692,0,0,1,2.524,2.253,3.909,3.909,0,0,0-1.157,2.561c0,4.3,10.188,9.1,24.809,9.1s24.809-4.795,24.809-9.1a4.057,4.057,0,0,0-1.316-2.734,1.692,1.692,0,0,1,2.45-2.335,7.29,7.29,0,0,1,2.25,5.069C141.787,668.823,129.667,674.19,113.594,674.19Z" transform="translate(0 -524.628)" fill="#231815"></path>
  </g>
</svg>
