<?xml version="1.0" encoding="UTF-8"?>
<svg xmlns="http://www.w3.org/2000/svg" width="48.289" height="55.201" viewBox="0 0 48.289 55.201">
  <g id="红包" transform="translate(-145.869 -93.491)">
    <path id="路径_435" d="M186.392,93.491H153.635a7.775,7.775,0,0,0-7.766,7.766v39.669a7.775,7.775,0,0,0,7.766,7.766h32.758a7.775,7.775,0,0,0,7.766-7.766V101.257a7.773,7.773,0,0,0-7.766-7.766Zm0,51.821H153.635a4.394,4.394,0,0,1-4.389-4.389V113.841a42.665,42.665,0,0,0,13.168,4.1,1.6,1.6,0,0,0,.253.02,1.687,1.687,0,0,0,.25-3.356,36.543,36.543,0,0,1-13.327-4.443,1.8,1.8,0,0,0-.344-.169v-8.738a4.394,4.394,0,0,1,4.389-4.389h32.758a4.394,4.394,0,0,1,4.389,4.389v9.4a1.651,1.651,0,0,0-.82.233c-.044.027-4.5,2.667-12.719,3.768a1.689,1.689,0,0,0,.223,3.363,1.729,1.729,0,0,0,.226-.014,42.55,42.55,0,0,0,13.094-3.731v26.653a4.4,4.4,0,0,1-4.393,4.386Z" fill="#231815"></path>
    <path id="路径_436" d="M393.732,355.286a8.35,8.35,0,1,1,8.35-8.35,8.358,8.358,0,0,1-8.35,8.35Zm0-13.323a4.973,4.973,0,1,0,4.973,4.973A4.98,4.98,0,0,0,393.732,341.962Z" transform="translate(-223.718 -228.932)" fill="#fc9015"></path>
  </g>
</svg>
