<?xml version="1.0" encoding="UTF-8"?>
<svg xmlns="http://www.w3.org/2000/svg" width="62.245" height="63.497" viewBox="0 0 62.245 63.497">
  <g id="网点" transform="translate(-97.276 -90.88)">
    <path id="路径_503" d="M228.052,143.979a1.934,1.934,0,0,1-.96-.254c-10.772-6.174-21.678-18.534-21.678-30.207a22.638,22.638,0,1,1,45.276,0c0,12.98-13.3,25.417-21.682,30.207a1.93,1.93,0,0,1-.956.254Zm0-49.246a18.806,18.806,0,0,0-18.784,18.784c0,9.762,9.5,20.626,18.78,26.3,8.109-4.991,18.784-15.963,18.784-26.3A18.8,18.8,0,0,0,228.052,94.734Z" transform="translate(-99.998)" fill="#231815"></path>
    <path id="路径_504" d="M366.492,263.327a11.369,11.369,0,1,1,11.369-11.369A11.383,11.383,0,0,1,366.492,263.327Zm0-18.884a7.515,7.515,0,1,0,7.515,7.515A7.525,7.525,0,0,0,366.492,244.443Z" transform="translate(-238.438 -138.44)" fill="#fc9015"></path>
    <path id="路径_505" d="M155.552,711.85h-54.29a3.975,3.975,0,0,1-3.411-6.02l6.7-11.165a1.927,1.927,0,1,1,3.3,1.985l-6.7,11.165a.107.107,0,0,0,0,.123.1.1,0,0,0,.1.062h54.287a.124.124,0,0,0,.1-.189l-7.269-11.1A1.926,1.926,0,1,1,151.6,694.6l7.269,11.1a3.971,3.971,0,0,1-3.318,6.151Z" transform="translate(0 -557.473)" fill="#231815"></path>
  </g>
</svg>
