<?xml version="1.0" encoding="UTF-8"?>
<svg xmlns="http://www.w3.org/2000/svg" width="114.554" height="107.63" viewBox="0 0 114.554 107.63">
  <g id="色" transform="translate(-224.38 -105.662)">
    <path id="路径_178" d="M327.214,183.978A49.883,49.883,0,1,1,277.332,134.1a49.846,49.846,0,0,1,49.883,49.883Zm0,0" transform="translate(-0.532 -23.564)" fill="#fddf6d"></path>
    <path id="路径_179" d="M541.967,198.63c5.494,1.538,9.339,5.384,8.46,8.46s-6.153,4.285-11.647,2.637c-5.494-1.538-9.339-5.384-8.46-8.46C531.2,198.3,536.474,196.982,541.967,198.63Zm0,0" transform="translate(-251.434 -76.452)" fill="#fceb88"></path>
    <path id="路径_180" d="M287.457,252.554a49.944,49.944,0,0,1-33.4-87.02,49.9,49.9,0,1,0,56.036,81.526,49.2,49.2,0,0,1-22.634,5.494Zm0,0" transform="translate(0 -49.619)" fill="#fcc56b"></path>
    <g id="组_67" transform="translate(224.38 108.662)">
      <path id="路径_11" d="M96.148,23.745A52.4,52.4,0,0,0,74.191,4.78a2.045,2.045,0,1,0-1.712,3.715,48.248,48.248,0,1,1-20.163-4.4,2.045,2.045,0,0,0,0-4.09A52.3,52.3,0,1,0,96.148,23.745Z" transform="translate(-0.001)" fill="#683c1e"></path>
      <path id="路径_13" d="M631.52,22.061m-2.045,0a2.045,2.045,0,1,0,2.045-2.045A2.045,2.045,0,0,0,629.475,22.061Z" transform="translate(-565.156 -17.971)" fill="#683c1e"></path>
    </g>
    <path id="路径_181" d="M360.547,429.233a6.659,6.659,0,0,0-6.7,6.7h13.4A6.659,6.659,0,0,0,360.547,429.233Zm0,0,58.563,0a6.659,6.659,0,0,0-6.7,6.7h13.4A6.659,6.659,0,0,0,419.109,429.233Zm0,0" transform="translate(-105.282 -268.16)" fill="#f9a880"></path>
    <path id="路径_182" d="M280.382,105.807a14.253,14.253,0,0,0-11.976,11.427,1.165,1.165,0,0,1-.989.989,1.26,1.26,0,0,1-1.318-.549A14.153,14.153,0,1,0,247.09,138l23.074,16.042a7.176,7.176,0,0,0,10.328-2.307l13.734-23.953a14.076,14.076,0,0,0,1.758-12.086,14.294,14.294,0,0,0-15.6-9.889Zm0,0,61.529,12.306a11.156,11.156,0,0,0-12.086,4.725.956.956,0,0,1-.989.439c-.439-.11-.769-.33-.769-.769a11.283,11.283,0,0,0-9.889-8.46,11.177,11.177,0,0,0-10.218,17.47L319.936,150.2a5.753,5.753,0,0,0,8.241,1.428l17.14-13.295a10.894,10.894,0,0,0,4.944-8.241,11.26,11.26,0,0,0-8.35-11.976Zm0,0" transform="translate(-11.383)" fill="#fc4c59"></path>
    <path id="路径_183" d="M280.6,179.243l-23.074-15.932a14.183,14.183,0,0,1-6.373-9.779,13.881,13.881,0,0,1,3.076-11.1,11.161,11.161,0,0,0-3.736.659,14.189,14.189,0,0,0-3.406,25.491l23.074,15.932a7.176,7.176,0,0,0,10.328-2.307l1.318-2.307A3.3,3.3,0,0,1,280.6,179.243Zm0,0,49.773-3.846L318.4,156.719a11.061,11.061,0,0,1-1.648-9.01,12.079,12.079,0,0,1,1.319-3.186,11.177,11.177,0,0,0-10.218,17.47l11.976,18.679a5.753,5.753,0,0,0,8.241,1.428l5.494-4.285a6.232,6.232,0,0,1-3.186-2.417Zm0,0" transform="translate(-11.383 -30.476)" fill="#d3434e"></path>
    <path id="路径_184" d="M487.626,524.518A20.164,20.164,0,0,1,467.409,504.3h40.434A20.234,20.234,0,0,1,487.626,524.518Zm0,0" transform="translate(-199.399 -330.372)" fill="#8b481b"></path>
    <path id="路径_185" d="M496.281,504.3v3.186A2.439,2.439,0,0,0,498.7,509.9h25.71a2.439,2.439,0,0,0,2.417-2.417V504.3Zm0,0" transform="translate(-223.327 -330.372)" fill="#f2f2f2"></path>
    <path id="路径_186" d="M508.271,565.234a18.467,18.467,0,0,0-16.481.44,20.089,20.089,0,0,0,16.042,7.911,22.364,22.364,0,0,0,8.131-1.648A19,19,0,0,0,508.271,565.234Zm0,0" transform="translate(-219.605 -379.439)" fill="#fc4c59"></path>
  </g>
</svg>
