<?xml version="1.0" encoding="UTF-8"?>
<svg xmlns="http://www.w3.org/2000/svg" width="57.219" height="57.219" viewBox="0 0 57.219 57.219">
  <g id="计算公式" transform="translate(-105.83 -99.584)">
    <path id="路径_407" d="M154.083,156.8H114.8a8.974,8.974,0,0,1-8.966-8.966V108.55a8.974,8.974,0,0,1,8.966-8.966h39.287a8.974,8.974,0,0,1,8.966,8.966v39.287A8.979,8.979,0,0,1,154.083,156.8ZM114.8,103.171a5.386,5.386,0,0,0-5.38,5.38v39.287a5.386,5.386,0,0,0,5.38,5.38h39.287a5.386,5.386,0,0,0,5.38-5.38V108.55a5.386,5.386,0,0,0-5.38-5.38Z" fill="#231815"></path>
    <path id="路径_408" d="M262.975,241.9h-3.87V238.03a1.793,1.793,0,0,0-3.587,0v3.87h-3.87a1.793,1.793,0,1,0,0,3.587h3.87v3.87a1.793,1.793,0,1,0,3.587,0V245.49h3.87a1.793,1.793,0,1,0,0-3.587ZM284.6,245.49a1.793,1.793,0,0,0,0-3.587H273.276a1.793,1.793,0,0,0,0,3.587Zm.6,18.381H273.878a1.793,1.793,0,1,0,0,3.586H285.2a1.793,1.793,0,0,0,0-3.586Zm-22.2-3.9a1.794,1.794,0,0,0-2.536,0l-3.156,3.156-3.156-3.156a1.793,1.793,0,0,0-2.536,2.536l3.156,3.156-3.156,3.156a1.794,1.794,0,0,0,2.539,2.536l3.156-3.156,3.156,3.156a1.794,1.794,0,1,0,2.539-2.536l-3.156-3.156,3.156-3.156A1.8,1.8,0,0,0,263,259.972Z" transform="translate(-133.937 -127.081)" fill="#fc9015"></path>
    <path id="路径_409" d="M646.974,554.1m-2.008,0a2.008,2.008,0,1,0,2.008-2.008A2.008,2.008,0,0,0,644.966,554.1Z" transform="translate(-501.37 -420.808)" fill="#fc9015"></path>
    <path id="路径_410" d="M646.974,704.205a2.007,2.007,0,1,0,2.008,2A2.007,2.007,0,0,0,646.974,704.205Z" transform="translate(-501.37 -562.268)" fill="#fc9015"></path>
  </g>
</svg>
