<?xml version="1.0" encoding="UTF-8"?>
<svg xmlns="http://www.w3.org/2000/svg" width="50.108" height="57.672" viewBox="0 0 50.108 57.672">
  <g id="订单查询" transform="translate(-137.881 -84.633)">
    <path id="路径_452" d="M176.1,88.793H172.52a5.966,5.966,0,0,0-5.674-4.16H154.44a5.959,5.959,0,0,0-5.674,4.16h-3.581a7.312,7.312,0,0,0-7.3,7.3v35.145a7.31,7.31,0,0,0,7.3,7.3h16.07a1.653,1.653,0,1,0,0-3.307h-16.07a4,4,0,0,1-4-3.994V96.1a4,4,0,0,1,4-3.994h3.5a5.956,5.956,0,0,0,5.747,4.437h12.406a5.953,5.953,0,0,0,5.747-4.437h3.5a4,4,0,0,1,4,3.994v19.789a1.653,1.653,0,0,0,3.307,0V96.1a7.3,7.3,0,0,0-7.3-7.3Zm-9.255,4.437H154.44a2.645,2.645,0,1,1,0-5.29h12.406a2.645,2.645,0,1,1,0,5.29Z" fill="#231815"></path>
    <path id="路径_453" d="M326.139,399.594H305.576a1.653,1.653,0,0,1,0-3.307h20.563a1.653,1.653,0,0,1,0,3.307Zm-11.414,9.8h-9.149a1.653,1.653,0,0,1,0-3.307h9.149a1.653,1.653,0,0,1,0,3.307Zm-3.27,9.936h-5.879a1.653,1.653,0,0,1,0-3.307h5.879a1.653,1.653,0,0,1,0,3.307Z" transform="translate(-155.319 -291.528)" fill="#231815"></path>
    <path id="路径_454" d="M535.412,611.152a10.868,10.868,0,1,1,10.869-10.868A10.881,10.881,0,0,1,535.412,611.152Zm0-18.427a7.562,7.562,0,1,0,7.562,7.562A7.571,7.571,0,0,0,535.412,592.725Z" transform="translate(-361.692 -472.183)" fill="#fc9015"></path>
    <path id="路径_455" d="M773.387,844.781a1.647,1.647,0,0,1-1.128-.446l-6.272-5.866a1.654,1.654,0,0,1,2.258-2.417l6.272,5.866a1.655,1.655,0,0,1-1.131,2.863Z" transform="translate(-587.052 -702.475)" fill="#fc9015"></path>
  </g>
</svg>
