<?xml version="1.0" encoding="UTF-8"?>
<svg xmlns="http://www.w3.org/2000/svg" width="61" height="61.343" viewBox="0 0 61 61.343">
  <g id="设置" transform="translate(-96.62 -94.311)">
    <path id="路径_479" d="M133.956,155.654H120.28a3.826,3.826,0,0,1-3.823-3.823v-2.15a.061.061,0,0,0-.045-.056,26.62,26.62,0,0,1-5.391-2.992.065.065,0,0,0-.068-.008l-1.759,1.015a3.829,3.829,0,0,1-5.222-1.4L97.134,134.4a3.829,3.829,0,0,1,1.4-5.222l1.538-.887a.078.078,0,0,0,.026-.079,26.208,26.208,0,0,1,0-6.451.078.078,0,0,0-.026-.079l-1.538-.887a3.818,3.818,0,0,1-1.4-5.222l6.838-11.845a3.822,3.822,0,0,1,5.222-1.4l1.759,1.015a.065.065,0,0,0,.068-.008,26.621,26.621,0,0,1,5.391-2.992.065.065,0,0,0,.045-.056v-2.15a3.826,3.826,0,0,1,3.823-3.823h13.676a3.826,3.826,0,0,1,3.823,3.823v2.658a.065.065,0,0,0,.045.056,26.8,26.8,0,0,1,4.737,2.849.074.074,0,0,0,.079.011l2.4-1.387a3.824,3.824,0,0,1,5.225,1.4l6.838,11.845a3.824,3.824,0,0,1-1.4,5.225L153.09,122.3a.082.082,0,0,0-.03.075c.086.865.128,1.744.128,2.609s-.041,1.741-.128,2.609a.074.074,0,0,0,.03.075l2.616,1.511a3.818,3.818,0,0,1,1.4,5.222l-6.838,11.845a3.824,3.824,0,0,1-5.225,1.4l-2.4-1.387a.07.07,0,0,0-.079.015,26.8,26.8,0,0,1-4.737,2.849.069.069,0,0,0-.045.056v2.658A3.827,3.827,0,0,1,133.956,155.654Zm-22.976-12.8a3.816,3.816,0,0,1,2.233.718,22.744,22.744,0,0,0,4.628,2.568,3.815,3.815,0,0,1,2.372,3.534v2.15a.066.066,0,0,0,.064.064h13.676a.066.066,0,0,0,.064-.064v-2.658a3.843,3.843,0,0,1,2.21-3.462,23.163,23.163,0,0,0,4.071-2.447,3.825,3.825,0,0,1,4.218-.267l2.4,1.387a.07.07,0,0,0,.086-.023l6.838-11.845a.062.062,0,0,0-.023-.086l-2.616-1.511a3.838,3.838,0,0,1-1.891-3.7c.071-.744.109-1.5.109-2.24s-.038-1.5-.109-2.24a3.838,3.838,0,0,1,1.891-3.7l2.616-1.511a.07.07,0,0,0,.023-.086L147,105.6a.071.071,0,0,0-.086-.023l-2.4,1.387a3.824,3.824,0,0,1-4.218-.267,22.714,22.714,0,0,0-4.071-2.447,3.843,3.843,0,0,1-2.21-3.462V98.13a.066.066,0,0,0-.064-.064H120.28a.066.066,0,0,0-.064.064v2.15a3.815,3.815,0,0,1-2.372,3.534,23.11,23.11,0,0,0-4.628,2.568,3.834,3.834,0,0,1-4.139.211l-1.759-1.015a.07.07,0,0,0-.086.023l-6.842,11.845a.07.07,0,0,0,.023.086l1.538.887a3.827,3.827,0,0,1,1.88,3.793,22.922,22.922,0,0,0-.173,2.767,22.178,22.178,0,0,0,.173,2.767,3.827,3.827,0,0,1-1.88,3.793l-1.538.887a.062.062,0,0,0-.023.086l6.838,11.845a.062.062,0,0,0,.086.023l1.759-1.015a3.83,3.83,0,0,1,1.906-.507Z" fill="#231815"></path>
    <path id="路径_480" d="M351.454,371.389a12.1,12.1,0,1,1,12.1-12.1A12.115,12.115,0,0,1,351.454,371.389Zm0-20.443a8.342,8.342,0,1,0,8.342,8.342A8.351,8.351,0,0,0,351.454,350.946Z" transform="translate(-224.911 -234.309)" fill="#fc9015"></path>
  </g>
</svg>
