<?xml version="1.0" encoding="UTF-8"?>
<svg xmlns="http://www.w3.org/2000/svg" width="59.226" height="65.136" viewBox="0 0 59.226 65.136">
  <g id="证明" transform="translate(-137.83 -95.232)">
    <path id="路径_592" d="M165.625,160.368H147.032a9.214,9.214,0,0,1-9.2-9.2V104.434a9.214,9.214,0,0,1,9.2-9.2h40.146a9.214,9.214,0,0,1,9.2,9.2v19.461a2,2,0,1,1-4,0V104.434a5.206,5.206,0,0,0-5.2-5.2H147.032a5.206,5.206,0,0,0-5.2,5.2v46.731a5.206,5.206,0,0,0,5.2,5.2h18.592a2,2,0,0,1,0,4Z" fill="#231815"></path>
    <path id="路径_593" d="M589.869,578.266h-18a3.8,3.8,0,0,1-3.8-3.8v-4.973a3.8,3.8,0,0,1,3.8-3.8h3.257V564.2a8.526,8.526,0,0,1-2.773-6.281,8.521,8.521,0,0,1,8.93-8.506,8.515,8.515,0,0,1,5.333,14.792V565.7h3.257a3.8,3.8,0,0,1,3.8,3.8v4.973A3.8,3.8,0,0,1,589.869,578.266Zm-17.8-4h17.6v-4.573h-5.061a2,2,0,0,1-2-2v-4.445a2,2,0,0,1,.848-1.636,4.51,4.51,0,0,0,1.92-3.817,4.583,4.583,0,0,0-4.293-4.385,4.514,4.514,0,0,0-4.737,4.509,4.527,4.527,0,0,0,1.924,3.693,2,2,0,0,1,.848,1.636v4.445a2,2,0,0,1-2,2h-5.057v4.573ZM589.869,569.692Z" transform="translate(-396.614 -418.679)" fill="#fc9015"></path>
    <path id="路径_594" d="M336.678,286.779H308.483a2,2,0,0,1,0-4h28.195a2,2,0,0,1,0,4Zm-4.241,13.7H308.483a2,2,0,0,1,0-4h23.954a2,2,0,0,1,0,4Zm-7.306,13.691H308.483a2,2,0,0,1,0-4h16.652a2,2,0,1,1,0,4Z" transform="translate(-155.474 -172.89)" fill="#231815"></path>
  </g>
</svg>
