<?xml version="1.0" encoding="UTF-8"?>
<svg xmlns="http://www.w3.org/2000/svg" width="49.709" height="60.13" viewBox="0 0 49.709 60.13">
  <g id="账单" transform="translate(-153.242 -67.277)">
    <path id="路径_578" d="M194.568,242.869H161.624a8.24,8.24,0,0,1-8.382-8.068V199.352a8.24,8.24,0,0,1,8.382-8.068,1.764,1.764,0,1,1,0,3.528,4.709,4.709,0,0,0-4.854,4.54V234.8a4.709,4.709,0,0,0,4.854,4.54h32.944a4.709,4.709,0,0,0,4.854-4.54V199.352a4.709,4.709,0,0,0-4.854-4.54,1.764,1.764,0,0,1,0-3.528,8.24,8.24,0,0,1,8.382,8.068V234.8a8.239,8.239,0,0,1-8.382,8.065Z" transform="translate(0 -115.462)" fill="#231815"></path>
    <path id="路径_579" d="M351.475,82.744H333.941a3.909,3.909,0,0,1-3.905-3.905V77.374a5.941,5.941,0,0,1,5.934-5.934h1.016a6.014,6.014,0,0,1,11.445,0h1.016a5.941,5.941,0,0,1,5.934,5.934v1.464A3.912,3.912,0,0,1,351.475,82.744ZM335.97,74.968a2.409,2.409,0,0,0-2.406,2.406v1.464a.378.378,0,0,0,.377.377h17.534a.378.378,0,0,0,.378-.377V77.374a2.409,2.409,0,0,0-2.406-2.406h-2.484a1.764,1.764,0,0,1-1.764-1.725,2.491,2.491,0,0,0-4.981,0,1.764,1.764,0,0,1-1.764,1.725Z" transform="translate(-164.612)" fill="#231815"></path>
    <path id="路径_580" d="M382.133,434.418h-6.865v-4.163h6.865a1.764,1.764,0,0,0,0-3.528h-5.168l4.047-3.75a1.765,1.765,0,1,0-2.4-2.59l-5.154,4.78-5.052-4.766a1.764,1.764,0,0,0-2.42,2.568l3.983,3.761h-5.094a1.764,1.764,0,0,0,0,3.528h6.865v4.163h-6.865a1.764,1.764,0,1,0,0,3.528h6.865v4.66a1.764,1.764,0,1,0,3.528,0v-4.66h6.865a1.766,1.766,0,0,0,0-3.531Z" transform="translate(-195.407 -328.341)" fill="#fc9015"></path>
  </g>
</svg>
