<?xml version="1.0" encoding="UTF-8"?>
<svg xmlns="http://www.w3.org/2000/svg" width="62.517" height="62.513" viewBox="0 0 62.517 62.513">
  <g id="账户总览" transform="translate(-91.75 -91.136)">
    <path id="路径_546" d="M123.006,153.649a31.256,31.256,0,0,1,0-62.513,1.915,1.915,0,0,1,1.914,1.914c0,2.512,0,8.3.011,14.215,0,5.027.008,10.142.011,13.4,5.1-.011,11.267-.069,16.784-.119,4.525-.042,8.434-.077,10.624-.077a1.915,1.915,0,0,1,1.914,1.914,31.3,31.3,0,0,1-31.26,31.26ZM121.092,95.03a27.427,27.427,0,1,0,29.273,29.281c-2.221.011-5.241.038-8.607.069-6.237.057-13.308.123-18.733.123a1.915,1.915,0,0,1-1.914-1.914c0-2.848,0-9.15-.011-15.318,0-4.675,0-9.277-.008-12.24Z" fill="#231815"></path>
    <path id="路径_547" d="M606.346,123.354c-8.362,0-21.8-.031-21.934-.031a1.914,1.914,0,0,1-1.91-1.914V99.062a1.912,1.912,0,0,1,2.194-1.9,30.151,30.151,0,0,1,10.444,4.1,28.134,28.134,0,0,1,13.09,19.851,1.918,1.918,0,0,1-1.884,2.236ZM586.331,119.5c3.561.008,11.417.023,17.661.027a24.809,24.809,0,0,0-17.661-18.059V119.5Z" transform="translate(-454.055 -5.559)" fill="#fc9015"></path>
  </g>
</svg>
