<?xml version="1.0" encoding="UTF-8"?>
<svg xmlns="http://www.w3.org/2000/svg" width="58.798" height="59.222" viewBox="0 0 58.798 59.222">
  <g id="账本" transform="translate(-97.894 -103.578)">
    <path id="路径_524" d="M398.051,325.319H389.2v-5.832h8.849a1.856,1.856,0,0,0,0-3.712H390.79l5.642-5.227a1.857,1.857,0,1,0-2.524-2.725l-6.626,6.14-6.492-6.125a1.857,1.857,0,1,0-2.546,2.7l5.549,5.238H376.64a1.856,1.856,0,1,0,0,3.712h8.85v5.832h-8.85a1.856,1.856,0,0,0,0,3.712h8.85v6.114a1.856,1.856,0,1,0,3.712,0v-6.114h8.849a1.858,1.858,0,0,0,0-3.716Z" transform="translate(-256.815 -188.979)" fill="#fc9015"></path>
    <path id="路径_525" d="M148.9,103.578H110.972a7.8,7.8,0,0,0-7.8,7.8v4.284H99.75a1.856,1.856,0,0,0,0,3.712h3.426v11.452H99.75a1.856,1.856,0,1,0,0,3.712h3.426v11.452H99.75a1.856,1.856,0,0,0,0,3.712h3.426V155a7.8,7.8,0,0,0,7.8,7.8H148.9a7.8,7.8,0,0,0,7.8-7.8V111.373A7.8,7.8,0,0,0,148.9,103.578ZM152.981,155a4.086,4.086,0,0,1-4.083,4.083H110.972A4.086,4.086,0,0,1,106.889,155V149.7h3.237a1.856,1.856,0,1,0,0-3.712h-3.237V134.533h3.237a1.856,1.856,0,1,0,0-3.712h-3.237V119.369h3.237a1.856,1.856,0,1,0,0-3.712h-3.237v-4.284a4.086,4.086,0,0,1,4.083-4.083H148.9a4.086,4.086,0,0,1,4.083,4.083Z" fill="#231815"></path>
  </g>
</svg>
