<?xml version="1.0" encoding="UTF-8"?>
<svg xmlns="http://www.w3.org/2000/svg" width="55.425" height="55.297" viewBox="0 0 55.425 55.297">
  <g id="资金占比" transform="translate(-75.06 -79.667)">
    <path id="路径_558" d="M101.338,174.976a26.278,26.278,0,1,1,0-52.556,1.641,1.641,0,0,1,0,3.282,23,23,0,1,0,23,23,1.641,1.641,0,1,1,3.282,0,26.308,26.308,0,0,1-26.278,26.278Z" transform="translate(0 -40.013)" fill="#231815"></path>
    <path id="路径_559" d="M564.566,104.99h-22.3a1.642,1.642,0,0,1-1.641-1.641c0-7.266.092-11.73.167-15.317.049-2.4.092-4.47.092-6.725a1.642,1.642,0,0,1,1.641-1.641A23.709,23.709,0,0,1,566.2,103.349,1.637,1.637,0,0,1,564.566,104.99ZM543.9,101.708h18.956a20.437,20.437,0,0,0-18.7-18.7c-.013,1.661-.049,3.282-.085,5.09-.069,3.292-.154,7.328-.167,13.607Z" transform="translate(-435.719)" fill="#fc9015"></path>
  </g>
</svg>
