<?xml version="1.0" encoding="UTF-8"?>
<svg xmlns="http://www.w3.org/2000/svg" width="78.756" height="61.559" viewBox="0 0 78.756 61.559">
  <g id="车贷" transform="translate(-41.933 -144.845)">
    <path id="路径_514" d="M108.857,165.438a28.718,28.718,0,0,0-55.089,0,15.942,15.942,0,0,0-11.835,15.383v10.217a5.364,5.364,0,0,0,5.357,5.357h2.853a11.946,11.946,0,0,0,23.576,0H88.683a11.946,11.946,0,0,0,23.576,0h3.073a5.364,5.364,0,0,0,5.357-5.357V180.822A15.933,15.933,0,0,0,108.857,165.438ZM81.315,149.161a24.326,24.326,0,0,1,22.82,15.742H58.495a24.326,24.326,0,0,1,22.82-15.742ZM61.93,202.088a7.639,7.639,0,0,1-7.631-7.631c0-.112.013-.224.017-.332.009-.19.017-.38.043-.565,0-.052.017-.1.022-.151.03-.207.06-.41.108-.613a.126.126,0,0,0,.009-.039,7.7,7.7,0,0,1,6.669-5.892,7.529,7.529,0,0,1,1.528,0,7.7,7.7,0,0,1,6.673,5.9.274.274,0,0,1,.009.03c.047.2.078.41.108.617.009.047.017.1.022.147.022.186.035.376.043.565,0,.112.017.22.017.332a7.646,7.646,0,0,1-7.636,7.631Zm38.545,0a7.639,7.639,0,0,1-7.631-7.631c0-.112.013-.22.017-.332.009-.19.017-.38.043-.565,0-.047.017-.1.022-.147.03-.207.06-.414.108-.617a.11.11,0,0,1,.009-.03,7.7,7.7,0,0,1,6.673-5.9,7.529,7.529,0,0,1,1.528,0,7.691,7.691,0,0,1,6.669,5.892.126.126,0,0,1,.009.039c.047.2.078.406.108.613.009.052.017.1.022.151.022.186.035.376.043.565,0,.112.017.22.017.332A7.648,7.648,0,0,1,100.475,202.088Zm15.9-11.05a1.041,1.041,0,0,1-1.04,1.04h-3.151a11.98,11.98,0,0,0-9.6-9.384.016.016,0,0,1-.013,0c-.328-.056-.66-.1-1-.134-.035,0-.065,0-.1-.009-.328-.026-.66-.043-1-.043s-.669.017-1,.043c-.035,0-.065,0-.1.009-.337.03-.669.078-1,.134a.033.033,0,0,0-.017,0,11.98,11.98,0,0,0-9.6,9.384H73.641a11.985,11.985,0,0,0-9.6-9.384.033.033,0,0,1-.017,0c-.328-.056-.66-.1-1-.134-.035,0-.065,0-.1-.009-.328-.026-.66-.043-1-.043s-.669.017-1,.043c-.035,0-.065,0-.1.009-.337.03-.669.078-1,.134a.016.016,0,0,0-.013,0,11.98,11.98,0,0,0-9.6,9.384H47.289a1.041,1.041,0,0,1-1.04-1.04V180.822a11.613,11.613,0,0,1,9.634-11.43c.319-.056.639-.095.958-.125a.469.469,0,0,1,.078,0c.315-.026.626-.039.937-.039h46.927c.306,0,.622.013.937.039.026,0,.052,0,.078,0,.319.03.634.069.954.125a11.616,11.616,0,0,1,9.634,11.43v10.217Z" transform="translate(0 0)" fill="#231815"></path>
    <path id="路径_515" d="M488.66,230.87a2.159,2.159,0,0,1-2.158-2.158v-7.623a2.158,2.158,0,0,1,4.316,0v7.623a2.159,2.159,0,0,1-2.158,2.158Z" transform="translate(-407.091 -67.84)" fill="#fc9015"></path>
  </g>
</svg>
