<?xml version="1.0" encoding="UTF-8"?>
<svg xmlns="http://www.w3.org/2000/svg" width="59.222" height="59.222" viewBox="0 0 59.222 59.222">
  <g id="转账" transform="translate(-106.496 -96.307)">
    <path id="路径_522" d="M156.438,155.529H115.776a9.288,9.288,0,0,1-9.28-9.28V105.587a9.288,9.288,0,0,1,9.28-9.28h40.662a9.288,9.288,0,0,1,9.28,9.28v40.662a9.288,9.288,0,0,1-9.28,9.28Zm-40.662-55.51a5.575,5.575,0,0,0-5.568,5.568v40.662a5.575,5.575,0,0,0,5.568,5.568h40.662a5.575,5.575,0,0,0,5.568-5.568V105.587a5.575,5.575,0,0,0-5.568-5.568Z" fill="#231815"></path>
    <path id="路径_523" d="M344.437,334.025h-.007l-24.882-.085a1.856,1.856,0,0,1-1.355-3.118l6.221-6.719a1.857,1.857,0,1,1,2.725,2.524l-3.348,3.615,20.654.071a1.856,1.856,0,0,1-.007,3.712Zm-6.225,16.229a1.856,1.856,0,0,1-1.362-3.118l3.348-3.616-20.654-.071a1.856,1.856,0,0,1,.007-3.712h.007l24.882.085a1.856,1.856,0,0,1,1.355,3.118l-6.221,6.719a1.849,1.849,0,0,1-1.362.594Z" transform="translate(-195.887 -210.728)" fill="#fc9015"></path>
  </g>
</svg>
