<?xml version="1.0" encoding="UTF-8"?>
<svg xmlns="http://www.w3.org/2000/svg" width="71.831" height="68.087" viewBox="0 0 71.831 68.087">
  <g id="银行" transform="translate(-74.479 -96.602)">
    <path id="路径_516" d="M144.429,122.635,113.558,97.712a5.064,5.064,0,0,0-6.327,0L76.36,122.635a5.035,5.035,0,0,0,3.163,8.953h5.854v28.837H79.7a2.132,2.132,0,0,0,0,4.263h61.392a2.132,2.132,0,0,0,0-4.263h-4.383V131.588h4.558a5.035,5.035,0,0,0,3.163-8.953Zm-54.788,8.953h10.616v28.837H89.641Zm27.921,0v28.837H104.524V131.588h13.037Zm14.883,28.841H121.829V131.592h10.616Zm9.546-33.621a.731.731,0,0,1-.729.516H79.524a.735.735,0,0,1-.729-.516.727.727,0,0,1,.243-.857l30.871-24.923a.782.782,0,0,1,.972,0l30.871,24.923A.73.73,0,0,1,141.99,126.809Z" fill="#231815"></path>
    <path id="路径_517" d="M387.473,356.161H368.519a2.132,2.132,0,1,1,0-4.263h18.959a2.132,2.132,0,1,1,0,4.263Z" transform="translate(-267.601 -234.038)" fill="#fc9015"></path>
  </g>
</svg>
