<?xml version="1.0" encoding="UTF-8"?>
<svg xmlns="http://www.w3.org/2000/svg" width="69.845" height="56.4" viewBox="0 0 69.845 56.4">
  <g id="银行转账" transform="translate(-71.987 -150.733)">
    <path id="路径_526" d="M131.664,150.733H82.154A10.176,10.176,0,0,0,71.987,160.9v36.065a10.176,10.176,0,0,0,10.167,10.167h49.51a10.176,10.176,0,0,0,10.167-10.167V160.9A10.179,10.179,0,0,0,131.664,150.733ZM82.154,154.8h49.51a6.108,6.108,0,0,1,6.1,6.1v4.5H76.054v-4.5A6.105,6.105,0,0,1,82.154,154.8Zm49.51,48.266H82.154a6.108,6.108,0,0,1-6.1-6.1v-27.5h61.711v27.5A6.108,6.108,0,0,1,131.664,203.066Z" transform="translate(0)" fill="#231815"></path>
    <path id="路径_527" d="M351.939,464.354h0l-25.707-.073a2.034,2.034,0,0,1-1.342-3.559l6.43-5.669a2.034,2.034,0,1,1,2.692,3.05l-2.408,2.123,20.347.057a2.035,2.035,0,0,1-.008,4.071Zm-6.426,13.693a2.034,2.034,0,0,1-1.346-3.559l2.408-2.123-20.347-.057a2.033,2.033,0,0,1,0-4.067h0l25.707.073a2.034,2.034,0,0,1,1.342,3.559l-6.43,5.669a2.036,2.036,0,0,1-1.342.5Z" transform="translate(-232.178 -279.679)" fill="#fc9015"></path>
  </g>
</svg>
