<?xml version="1.0" encoding="UTF-8"?>
<svg xmlns="http://www.w3.org/2000/svg" width="67.674" height="54.65" viewBox="0 0 67.674 54.65">
  <g id="银行卡" transform="translate(-74.547 -153.139)">
    <path id="路径_548" d="M166.631,434.122h-3.586a1.97,1.97,0,1,1,0-3.94h3.586a1.97,1.97,0,1,1,0,3.94Zm10.194,0h-3.586a1.97,1.97,0,1,1,0-3.94h3.586a1.97,1.97,0,1,1,0,3.94Zm10.2,0h-3.586a1.97,1.97,0,1,1,0-3.94h3.586a1.97,1.97,0,1,1,0,3.94Z" transform="translate(-79.869 -255.721)" fill="#fc9015"></path>
    <path id="路径_549" d="M132.373,153.139H84.4a9.86,9.86,0,0,0-9.851,9.851v34.948a9.86,9.86,0,0,0,9.851,9.851h47.971a9.86,9.86,0,0,0,9.851-9.851V162.99A9.859,9.859,0,0,0,132.373,153.139ZM84.4,157.079h47.971a5.918,5.918,0,0,1,5.911,5.911V166.6H78.487V162.99A5.918,5.918,0,0,1,84.4,157.079Zm47.975,46.769H84.4a5.918,5.918,0,0,1-5.911-5.911v-27.4H138.28v27.4A5.912,5.912,0,0,1,132.373,203.849Z" transform="translate(0 0)" fill="#231815"></path>
    <path id="路径_550" d="M573.491,601.342H561.043a1.971,1.971,0,0,1-1.781-2.817l4.134-8.7a1.974,1.974,0,0,1,1.781-1.123h12.444a1.972,1.972,0,0,1,1.781,2.818l-4.134,8.7A1.968,1.968,0,0,1,573.491,601.342Zm-9.331-3.94h8.082l2.262-4.764h-8.082Z" transform="translate(-447.233 -402.036)" fill="#fc9015"></path>
  </g>
</svg>
