<?xml version="1.0" encoding="UTF-8"?>
<svg xmlns="http://www.w3.org/2000/svg" width="65.785" height="53.108" viewBox="0 0 65.785 53.108">
  <g id="销卡" transform="translate(-63.078 -141.158)">
    <path id="路径_560" d="M214.689,476.482H199.866a1.876,1.876,0,1,1,0-3.752h14.823a1.876,1.876,0,1,1,0,3.752Z" transform="translate(-125.026 -307.276)" fill="#231815"></path>
    <path id="路径_561" d="M119.319,141.158H72.626a9.56,9.56,0,0,0-9.548,9.548v34.012a9.56,9.56,0,0,0,9.548,9.548h27a1.876,1.876,0,1,0,0-3.752h-27a5.8,5.8,0,0,1-5.8-5.8V158.746h58.282v8.94a1.876,1.876,0,1,0,3.752,0v-16.98a9.555,9.555,0,0,0-9.544-9.548ZM66.833,154.994v-4.288a5.8,5.8,0,0,1,5.8-5.8h46.693a5.8,5.8,0,0,1,5.8,5.8v4.288H66.833Z" transform="translate(0 0)" fill="#231815"></path>
    <path id="路径_562" d="M581.4,516.091A13.694,13.694,0,1,1,595.093,502.4,13.71,13.71,0,0,1,581.4,516.091Zm0-23.635a9.942,9.942,0,1,0,9.942,9.942A9.954,9.954,0,0,0,581.4,492.456Z" transform="translate(-467.652 -322.08)" fill="#fc9015"></path>
    <path id="路径_563" d="M675.235,653.736h-9.961a1.876,1.876,0,0,1,0-3.752h9.961a1.876,1.876,0,0,1,0,3.752Z" transform="translate(-556.332 -471.542)" fill="#fc9015"></path>
  </g>
</svg>
