<?xml version="1.0" encoding="UTF-8"?>
<svg xmlns="http://www.w3.org/2000/svg" width="62.086" height="63.959" viewBox="0 0 62.086 63.959">
  <g id="长期定投" transform="translate(-103.987 -80.384)">
    <path id="路径_574" d="M158.282,85.53h-6.825v-3.2a1.948,1.948,0,1,0-3.9,0v3.2H122.027v-3.2a1.948,1.948,0,0,0-3.9,0v3.2h-6.353a7.8,7.8,0,0,0-7.791,7.791v43.228a7.8,7.8,0,0,0,7.791,7.791h46.5a7.8,7.8,0,0,0,7.791-7.791V93.321A7.8,7.8,0,0,0,158.282,85.53Zm3.9,51.019a3.9,3.9,0,0,1-3.9,3.9h-46.5a3.9,3.9,0,0,1-3.9-3.9V93.321a3.9,3.9,0,0,1,3.9-3.9h6.353v3.1a1.948,1.948,0,0,0,3.9,0v-3.1h25.535v3.1a1.948,1.948,0,1,0,3.9,0v-3.1h6.825a3.9,3.9,0,0,1,3.9,3.9v43.228Z" transform="translate(0)" fill="#231815"></path>
    <path id="路径_575" d="M291.443,412.978a1.948,1.948,0,0,1-1.395-3.307l9.8-10.046a1.944,1.944,0,0,1,2.723-.062l4.047,3.779,10.342-11.246h-3.541a1.948,1.948,0,1,1,0-3.9H321.4a1.946,1.946,0,0,1,1.434,3.264l-14.678,15.956a1.948,1.948,0,0,1-2.762.105l-4.09-3.814-8.473,8.683a1.931,1.931,0,0,1-1.391.584Z" transform="translate(-171.395 -284.396)" fill="#fc9015"></path>
  </g>
</svg>
