<?xml version="1.0" encoding="UTF-8"?>
<svg xmlns="http://www.w3.org/2000/svg" width="63.273" height="54.61" viewBox="0 0 63.273 54.61">
  <g id="B超" transform="translate(-81.92 -138.24)">
    <path id="路径_397" d="M534.948,1300.385a94.943,94.943,0,0,0,11.931-6.547c6.524-4.188,22.314-18.592,22.314-18.592v12.6l.319,5.994.552,10.288H527.806Z" transform="translate(-428.203 -1124.14)" fill="#c9f4eb"></path>
    <path id="路径_395" d="M284.508,308.119a8.978,8.978,0,0,1-6.388-2.644l3.152-3.149a4.579,4.579,0,0,0,6.472,0l3.152,3.149A8.977,8.977,0,0,1,284.508,308.119Zm0,8.371a17.371,17.371,0,0,1-12.316-5.09l3.152-3.15a12.985,12.985,0,0,0,18.332,0l3.152,3.15A17.371,17.371,0,0,1,284.508,316.491Zm0,8.127a25.384,25.384,0,0,1-18.063-7.476l3.152-3.149a21.1,21.1,0,0,0,29.822,0l3.152,3.149A25.384,25.384,0,0,1,284.508,324.618Z" transform="translate(-170.952 -152.016)" fill="#f79c42"></path>
    <path id="路径_396" d="M137.916,184.157H89.2a7.28,7.28,0,0,1-7.276-7.267V145.509A7.28,7.28,0,0,1,89.2,138.24h48.72a7.28,7.28,0,0,1,7.276,7.269v31.382a7.28,7.28,0,0,1-7.276,7.266ZM89.2,142.688a2.825,2.825,0,0,0-2.822,2.821v31.382A2.825,2.825,0,0,0,89.2,179.71h48.72a2.825,2.825,0,0,0,2.825-2.819V145.509a2.825,2.825,0,0,0-2.825-2.819H89.2Zm53.771,50.162H84.148V188.4h58.819Z" fill="#3cb994"></path>
  </g>
</svg>
