<?xml version="1.0" encoding="UTF-8"?>
<svg xmlns="http://www.w3.org/2000/svg" width="66.69" height="66.691" viewBox="0 0 66.69 66.691">
  <g id="DNA" transform="translate(-81.93 -81.92)">
    <path id="路径_400" d="M11.575,6.966c5.952,2.866,6.278,3.371,9.656,6.516a18.874,18.874,0,0,1,4.673,7.1l2.8-2.5,2.955-2.845.395-7.349L17.308.106,8.088,0,.431,5.875A15.817,15.817,0,0,1,11.575,6.966Z" transform="matrix(-0.866, 0.5, -0.5, -0.866, 148.62, 105.552)" fill="#c9f4eb"></path>
    <path id="路径_398" d="M190.652,279.786l-7.431-7.386,3.237-3.215,7.43,7.387Zm-7.948,7.9-7.43-7.385,3.236-3.215,7.43,7.387ZM143.2,306.946l-7.43-7.384L139,296.345l7.43,7.386Zm7.947-7.9-7.43-7.386,3.237-3.217,7.43,7.388Z" transform="translate(-49.663 -172.745)" fill="#f79c42"></path>
    <path id="路径_399" d="M144.88,99.853c-9.357,13.142-20.769,13.712-27.422,13.41a28.26,28.26,0,0,1,1.45-12.857l4.24,4.208,3.238-3.215L120.9,95.956a34.674,34.674,0,0,1,3.8-5.581l6.391,6.346,3.238-3.215-6.489-6.442c.967-.892,1.639-1.4,1.761-1.495l-2.734-3.648c-.675.5-15.78,11.879-14.063,30.945-19.232-1.326-30.4,13.89-30.884,14.569l3.728,2.642c.433-.6,10.52-14.238,27.65-12.608a31.98,31.98,0,0,1-1.326,12.329l-4.46-4.428-3.238,3.215,5.744,5.7a29.238,29.238,0,0,1-3.9,5.483l-6.553-6.506-3.238,3.215,6.526,6.48q-1.172,1.008-2.516,1.993l2.717,3.66c14.5-10.609,15.254-23.487,14.857-30.781,7.353.251,20.306-.748,30.7-15.354Z" fill="#3cb994"></path>
  </g>
</svg>
