<?xml version="1.0" encoding="UTF-8"?>
<svg xmlns="http://www.w3.org/2000/svg" width="63.273" height="54.61" viewBox="0 0 63.273 54.61">
  <g id="X光" transform="translate(-81.92 -138.24)">
    <path id="路径_394" d="M534.948,1300.385a94.943,94.943,0,0,0,11.931-6.547c6.524-4.188,22.314-18.592,22.314-18.592v12.6l.319,5.994.552,10.288H527.806Z" transform="translate(-427.493 -1124.14)" fill="#c9f4eb"></path>
    <path id="路径_392" d="M137.916,184.157H89.2a7.28,7.28,0,0,1-7.276-7.268V145.509A7.28,7.28,0,0,1,89.2,138.24h48.721a7.28,7.28,0,0,1,7.276,7.269v31.382a7.281,7.281,0,0,1-7.276,7.266ZM89.2,142.688a2.825,2.825,0,0,0-2.822,2.821v31.382a2.825,2.825,0,0,0,2.822,2.82h48.721a2.825,2.825,0,0,0,2.825-2.82V145.509a2.825,2.825,0,0,0-2.825-2.819H89.2Zm53.771,50.162H84.148V188.4h58.819Z" fill="#3cb994"></path>
    <path id="路径_393" d="M290.88,291.113l-3.4-2.865L297.817,276l3.4,2.865Zm12.479-13.834-1.376-4.226,16.4-5.324,1.376,4.226ZM294,276.726l-5.717-.594.461-4.42,5.718.6Zm.513-5.066-3.648-4.362,3.416-2.85,3.647,4.365Zm8.4-1.929-4.371-.829,1.089-5.735,4.371.829Z" transform="translate(-190.437 -115.738)" fill="#f79c42"></path>
  </g>
</svg>
