<?xml version="1.0" encoding="UTF-8"?>
<svg xmlns="http://www.w3.org/2000/svg" width="73.881" height="67.051" viewBox="0 0 73.881 67.051">
  <g id="儿科" transform="translate(-80.131 -122.83)">
    <path id="路径_418" d="M391.6,408.2c-7.953,22.4-27.343,25.471-38.177,29.3,3.01,2.766,14.072,7.429,18.16,7.423,9.023,0,22.535-9.264,22.535-18.293C394.123,422,395.035,411.3,391.6,408.2Z" transform="translate(-252.757 -258.694)" fill="#c9f4eb"></path>
    <path id="路径_416" d="M144.456,153.247a28.63,28.63,0,0,0-7.763-13l-3.432,3.637a23.465,23.465,0,1,1-16.227-6.566,23.218,23.218,0,0,1,7.99,1.407l.01-.029a7.918,7.918,0,0,0,2.006.263,8.063,8.063,0,1,0-7.583-10.561l4.728,1.558a3.014,3.014,0,1,1,2.011,3.856v.009a28.137,28.137,0,0,0-9.159-1.529,28.581,28.581,0,0,0-27.407,20.961,9.556,9.556,0,1,0,.114,19.112A9.384,9.384,0,0,0,90.8,172.3a28.37,28.37,0,0,0,52.486-.014,9.384,9.384,0,0,0,1.166.081,9.558,9.558,0,1,0,0-19.117Zm-59.2,9.557a4.526,4.526,0,0,1,3.418-4.4q-.125,1.336-.128,2.679a29.07,29.07,0,0,0,.676,6.217A4.52,4.52,0,0,1,85.257,162.8Zm59.586,4.514a29.068,29.068,0,0,0,.679-6.23c0-.911-.046-1.815-.128-2.71a4.537,4.537,0,0,1-.551,8.939Z" transform="translate(0)" fill="#3cb994"></path>
    <path id="路径_417" d="M304.682,438.206h-4.967a2.555,2.555,0,1,0-5.109,0h-4.967a7.522,7.522,0,1,1,15.044,0Zm22.9,0h-4.967a2.555,2.555,0,0,0-5.11,0h-4.967a7.522,7.522,0,1,1,15.044,0Zm-19.562,21.7a13.262,13.262,0,0,1-10.876-5.718l4.065-2.887a8.263,8.263,0,0,0,13.53.126l4.011,2.962A13.287,13.287,0,0,1,308.02,459.905Z" transform="translate(-191.576 -281.505)" fill="#f79c42"></path>
  </g>
</svg>
