<?xml version="1.0" encoding="UTF-8"?>
<svg xmlns="http://www.w3.org/2000/svg" width="61.596" height="66.334" viewBox="0 0 61.596 66.334">
  <g id="医生" transform="translate(0 0)">
    <path id="路径_166" d="M535.812,1366.968c3.305-2.053,3.764-1.791,8.616-5.827a88.6,88.6,0,0,1,11.1-7.577l8.916,6.975.485,9.037h-37.12A22.8,22.8,0,0,0,535.812,1366.968Z" transform="translate(-507.507 -1307.643)" fill="#c9f4eb"></path>
    <path id="路径_164" d="M155.8,122.4a19.594,19.594,0,0,0,7.019-15.035V88.056l-.9-.711c-.281-.222-7-5.425-18.441-5.425-11.4,0-18.5,5.16-18.8,5.379l-.96.711v19.359a19.594,19.594,0,0,0,7.063,15.073,21.085,21.085,0,0,0-18.138,20.876,4.936,4.936,0,0,0,4.923,4.936h51.75a4.936,4.936,0,0,0,4.923-4.936A21.082,21.082,0,0,0,155.8,122.4ZM143.474,86.656a28.38,28.38,0,0,1,14.619,3.812v13.754a37.584,37.584,0,0,0-29.656,0V90.5a30.142,30.142,0,0,1,15.037-3.843Zm-14.886,22.812a32.054,32.054,0,0,1,29.355,0,14.82,14.82,0,0,1-29.356,0ZM131.675,136a1.042,1.042,0,1,1-1.042-1.045A1.042,1.042,0,0,1,131.675,136Zm37.639,7.514H117.563a.2.2,0,0,1-.2-.2,16.364,16.364,0,0,1,11.353-15.571,14.638,14.638,0,0,0-.429,2.982,5.765,5.765,0,1,0,4.724.015,9.95,9.95,0,0,1,.981-3.768H151.76a9.892,9.892,0,0,1,.971,3.772A5.785,5.785,0,0,0,149.353,136v4.319h4.722V136a1.042,1.042,0,1,1,2.084,0v4.319h4.722V136a5.787,5.787,0,0,0-3.417-5.275,14.687,14.687,0,0,0-.511-3.317,16.357,16.357,0,0,1,12.56,15.906.2.2,0,0,1-.2.2Z" transform="translate(-112.64 -81.92)" fill="#3cb994"></path>
    <path id="路径_165" d="M455.5,172.263h-2.865V169.4h-4.708v2.868h-2.864v4.714h2.865v2.869h4.708v-2.869H455.5v-4.714Z" transform="translate(-419.43 -162.649)" fill="#f79c42"></path>
  </g>
</svg>
