<?xml version="1.0" encoding="UTF-8"?>
<svg xmlns="http://www.w3.org/2000/svg" width="63.965" height="66.334" viewBox="0 0 63.965 66.334">
  <g id="医院" transform="translate(-526 -142)">
    <g id="组_74" transform="translate(526 142)">
      <path id="路径_160" d="M543.337,1377.694c6.248-3.584,7.337-3.887,16.508-10.933s10.547-13.363,10.547-13.363v29.155H533.019A58.267,58.267,0,0,0,543.337,1377.694Z" transform="translate(-528.687 -1320.232)" fill="#c9f4eb"></path>
      <path id="路径_158" d="M155.888,107.708H143.832V90.192a8.247,8.247,0,0,0-8.2-8.272H105.482a8.247,8.247,0,0,0-8.2,8.272v49.79a8.247,8.247,0,0,0,8.2,8.272h50.405a5.386,5.386,0,0,0,5.357-5.4V113.11a5.385,5.385,0,0,0-5.357-5.4Zm-17.076,35.483h-33.33a3.2,3.2,0,0,1-3.182-3.209V90.192a3.2,3.2,0,0,1,3.182-3.209H135.63a3.2,3.2,0,0,1,3.182,3.209Zm17.413-.339a.338.338,0,0,1-.336.339H143.832V112.771h12.055a.338.338,0,0,1,.336.339v29.742Z" transform="translate(-97.279 -81.92)" fill="#3cb994"></path>
      <path id="路径_159" d="M265.963,305.783H256.25v-9.8h-5.027v9.8H241.51v5.071h9.713v9.8h5.026v-9.8h9.713v-5.071Z" transform="translate(-230.387 -279.478)" fill="#f79c42"></path>
    </g>
  </g>
</svg>
