<?xml version="1.0" encoding="UTF-8"?>
<svg xmlns="http://www.w3.org/2000/svg" width="78.979" height="75.145" viewBox="0 0 78.979 75.145">
  <g id="各类引流管维护" transform="translate(6.98 0.5)">
    <path id="路径_499" d="M378.859,421.11c-11.442,13.125-14.7,12.663-23.85,15.895,2.544,2.338,10.565,5.089,14.02,5.084,7.624,0,6.815-8.53,10.679-15.773C379.713,422.409,381.762,423.725,378.859,421.11Z" transform="matrix(0.891, -0.454, 0.454, 0.891, -514.476, -158.088)" fill="#c9f4eb"></path>
    <path id="路径_496" d="M71.456,26.487c0-2-.036-4.075-.036-6.112V2.11A2.186,2.186,0,0,0,69.31,0H55.3a2.186,2.186,0,0,0-2.11,2.11V35.245a15.514,15.514,0,0,1-.143,3.326c-.5,1.824-2.79,2.682-4.682,2.432-.644-.072-2.79-.536-2.79-2.646,0-1.037,0-2.11.036-3.111.036-2.074.072-4.218-.036-6.291A23.36,23.36,0,0,0,38.46,13.4a19.455,19.455,0,0,0-6.681-4.182,22.993,22.993,0,0,0-7.828-1.609,22.83,22.83,0,0,0-14.87,4.754A26.327,26.327,0,0,0,.073,29.311,24.159,24.159,0,0,0,.037,32.53c.036.5.036,1,.036,1.5V69.38a2.136,2.136,0,0,0,2.11,2.11H16.517a2.136,2.136,0,0,0,2.11-2.11V36.818a24.964,24.964,0,0,1,.608-7.292A4.749,4.749,0,0,1,22.811,26.2,3.407,3.407,0,0,1,26.28,27.63c1.395,1.824,1.431,4.575,1.359,6.041a2.039,2.039,0,0,0,.036.465c0,.787-.036,1.609-.036,2.4a46.831,46.831,0,0,0,.107,6.327,16.87,16.87,0,0,0,5.29,10.259,20.679,20.679,0,0,0,7.077,4.5A25.762,25.762,0,0,0,48.407,59.3a24.333,24.333,0,0,0,15.8-4.933c4.289-3.433,7.149-9.58,7.256-15.62.072-4.075.036-8.257,0-12.261Zm-4.289,12.3A16.517,16.517,0,0,1,57.158,53.617c-5.612,2.289-13.547,1.574-18.873-1.645a12.538,12.538,0,0,1-6.4-9.616,49.2,49.2,0,0,1-.036-6.077c.036-.823.072-1.681.072-2.539.25-4.075-1.216-7.9-3.789-10.009a7.993,7.993,0,0,0-7.542-1.323c-2.5.715-4.289,2.575-5.219,5.54a25.733,25.733,0,0,0-.894,7.507V67.269H4.291V29.775c0-4.039,3.076-10.152,6.827-13.619a17.519,17.519,0,0,1,14.441-4.111,18.018,18.018,0,0,1,12.9,8.15c2.825,4.611,2.825,9.186,2.825,14.477v1.252c-.036,2.289-.107,4.861,1.717,6.827a8.62,8.62,0,0,0,7.077,2.5,7.923,7.923,0,0,0,6.041-3.29,9.106,9.106,0,0,0,1.359-5.4V4.182h9.758c0,3.4.036,6.792.072,10.116,0,8.043.1,16.335-.146,24.485Z" transform="translate(0 0)" fill="#3cb994" stroke="#3cb994" stroke-width="1"></path>
    <path id="路径_497" d="M287.865,218.524l-2.539,4.039a.556.556,0,0,1-.93,0l-2.539-4.075a.548.548,0,0,1,0-.572.558.558,0,0,1,.465-.286h.536v-4.4a.55.55,0,0,1,.536-.536h2.861a.55.55,0,0,1,.536.536v4.432h.572a.479.479,0,0,1,.465.286.485.485,0,0,1,.036.572ZM276.176,243.3v3.04a.565.565,0,0,1-.572.572h-4.682v.572a.572.572,0,0,1-.286.5.842.842,0,0,1-.286.072.577.577,0,0,1-.322-.107l-4.289-2.682a.572.572,0,0,1-.286-.5.616.616,0,0,1,.286-.5l4.289-2.682a.549.549,0,0,1,.572,0,.572.572,0,0,1,.286.5v.572h4.682a.657.657,0,0,1,.608.644ZM248.581,210.8v2.682a.488.488,0,0,1-.5.5h-4.145v.5a.611.611,0,0,1-.25.465.663.663,0,0,1-.25.072.841.841,0,0,1-.286-.072l-3.791-2.36a.545.545,0,0,1-.25-.429.5.5,0,0,1,.25-.429l3.789-2.4a.429.429,0,0,1,.5,0,.558.558,0,0,1,.25.465v.5h4.146a.479.479,0,0,1,.537.5Z" transform="translate(-222.414 -194.646)" fill="#f79c42"></path>
    <path id="路径_498" d="M94.867,587.738l-2.682,4.289a.581.581,0,0,1-1,0L88.5,587.738a.549.549,0,0,1,0-.572.572.572,0,0,1,.5-.286h.572V582.2a.565.565,0,0,1,.572-.572h3.04a.565.565,0,0,1,.572.572v4.682h.572a.573.573,0,0,1,.5.286A.485.485,0,0,1,94.867,587.738Z" transform="translate(-82.248 -541.02)" fill="#3cb994"></path>
  </g>
</svg>
