<?xml version="1.0" encoding="UTF-8"?>
<svg xmlns="http://www.w3.org/2000/svg" width="54.951" height="66.334" viewBox="0 0 54.951 66.334">
  <g id="听诊器" transform="translate(-158.72 -81.869)">
    <path id="路径_340" d="M550.888,1296.15c2.941-1.971,5.939-3.869,8.85-7.439a104.454,104.454,0,0,0,7.7-11.351c2.373-3.848.862,10.21.862,10.21l.312,5.864-4.7,9.706-13.98,2.629-10.838-5.323S547.946,1298.121,550.888,1296.15Z" transform="translate(-372.549 -1178.229)" fill="#c9f4eb"></path>
    <path id="路径_173" d="M204.8,152.364v15.654a12.265,12.265,0,1,1-24.529.188A19.924,19.924,0,0,0,198.4,148.35V127.979a6,6,0,0,0-5.976-6H186.8v4.952h5.621a1.051,1.051,0,0,1,1.047,1.052v20.367a14.912,14.912,0,1,1-29.824,0V127.979a1.051,1.051,0,0,1,1.048-1.052h5.345v-4.953H164.7a6,6,0,0,0-5.976,6v20.367a19.937,19.937,0,0,0,16.617,19.669,17.2,17.2,0,0,0,34.392,0V152.364H204.8Z" transform="translate(0 -37.009)" fill="#3cb994"></path>
    <path id="路径_174" d="M282.174,96.412h-4.926V81.869h4.926V96.412Zm16.182,0h-4.926V81.869h4.926V96.412Zm17.927,23.71a6.795,6.795,0,1,1,6.764-6.795,6.795,6.795,0,0,1-6.764,6.795Zm0-8.641a1.846,1.846,0,1,0,1.838,1.846,1.846,1.846,0,0,0-1.838-1.846Z" transform="translate(-109.377)" fill="#f79c42"></path>
  </g>
</svg>
