<?xml version="1.0" encoding="UTF-8"?>
<svg xmlns="http://www.w3.org/2000/svg" width="53.762" height="67.051" viewBox="0 0 53.762 67.051">
  <g id="咽喉科" transform="translate(-163.856 -81.937)">
    <path id="路径_433" d="M383.2,443.9c0-4.427,1.543-3.008-3.653-12.255-5.73-8.353-8.33-9.254-13.066-14.608,3.01-2.766,6.181,3.188,10.27,3.194,9.023,0,18.827-1.651,18.827,7.378C395.58,432.236,394.607,448.127,383.2,443.9Z" transform="translate(562.547 -311.269) rotate(81)" fill="#c9f4eb"></path>
    <path id="路径_431" d="M288.881,548.979l-4.3-1.17a7.5,7.5,0,0,1-6.088,5.056,12.359,12.359,0,0,0-14.008-3.837,21.666,21.666,0,0,0-8.407,6.078l3.227,3.222a17.341,17.341,0,0,1,6.66-4.878c3.866-1.442,8.57.365,9.869,3.789,3.434,9.053,1.381,18.655,1.359,18.75l2.163.536,2.162.538a42.127,42.127,0,0,0-.973-19.87,11.931,11.931,0,0,0,8.338-8.215Z" transform="translate(-85.099 -429.899)" fill="#f79c42"></path>
    <path id="路径_432" d="M207.642,148.354H185.787a3.354,3.354,0,0,1-3.314-3.863c.589-3.855.14-5.823-.2-6.256h-.019c-4.578.121-9.186.005-9.381,0l-2.293-.059.007-12.5c.006-.538-.237-2.718-4.4-3.506a2.875,2.875,0,0,1-2.062-4.052c1.479-3.137,3.583-8.777,4.418-11.055a2.558,2.558,0,0,0,.158-1.025c-.224-4.058-.056-17.637,11.516-21.992l.048-.017a33.235,33.235,0,0,1,25.4.9,19.967,19.967,0,0,1,11.576,22.124,35.394,35.394,0,0,1-2.1,6.73l-.119.246c-.81,1.442-1.638,2.665-2.368,3.744-2.287,3.378-3.8,5.61-3.23,11.87.646,7.116,1.3,12.837,1.544,14.966a3.353,3.353,0,0,1-3.332,3.747Zm-20.31-4.718H206.12c-.316-2.775-.85-7.7-1.384-13.568-.72-7.94,1.584-11.342,4.023-14.944.689-1.019,1.4-2.07,2.1-3.29a30.53,30.53,0,0,0,1.769-5.7,15.27,15.27,0,0,0-8.879-16.905,28.349,28.349,0,0,0-21.886-.764c-8.547,3.235-8.629,14.062-8.45,17.307a7.257,7.257,0,0,1-.44,2.912c-.7,1.915-2.281,6.15-3.686,9.438,5,1.789,6.15,5.707,6.006,7.848v7.585c1.772.019,4.336.028,6.841-.04a4.518,4.518,0,0,1,3.641,1.559c1.458,1.657,1.981,4.532,1.558,8.559ZM182.325,138.238Z" transform="translate(0)" fill="#3cb994"></path>
  </g>
</svg>
