<?xml version="1.0" encoding="UTF-8"?>
<svg xmlns="http://www.w3.org/2000/svg" width="69.31" height="66.417" viewBox="0 0 69.31 66.417">
  <g id="女性" transform="translate(-81.92 -97.28)">
    <path id="路径_424" d="M391.6,408.2c-7.953,22.4-27.343,25.471-38.177,29.3,3.01,2.766,14.072,7.429,18.16,7.423,9.023,0,22.535-9.264,22.535-18.293C394.123,422,395.035,411.3,391.6,408.2Z" transform="translate(-247.982 -294.244)" fill="#c9f4eb"></path>
    <path id="路径_421" d="M346.229,225.271H340.69A20.341,20.341,0,0,1,361,204.948v5.542a14.794,14.794,0,0,0-14.773,14.781Z" transform="translate(-237.921 -98.993)" fill="#f79c42"></path>
    <path id="路径_422" d="M122.483,97.28a28.741,28.741,0,0,0-23.431,45.385l-6.3,6.286-6.889-6.917-3.919,3.908,6.889,6.917-6.911,6.9,3.905,3.919,6.912-6.9,6.891,6.918,3.919-3.908-6.889-6.917,6.028-6.013a28.742,28.742,0,1,0,19.8-49.578Zm0,51.986a23.225,23.225,0,1,1,23.21-23.22A23.225,23.225,0,0,1,122.483,149.266Z" fill="#3cb994"></path>
  </g>
</svg>
