<?xml version="1.0" encoding="UTF-8"?>
<svg xmlns="http://www.w3.org/2000/svg" width="63.965" height="61.295" viewBox="0 0 63.965 61.295">
  <g id="妇科" transform="translate(-81.894 -97.293)">
    <path id="路径_415" d="M14,4.711c4.469,3.409,5.408,4.678,8.549,8.453s5.292-1.517,5.292-1.517l7.965-3.594L35.552.635l-7.231-1.96L19.507-3.049l-14.97.523L-1.23-.293S9.536,1.3,14,4.711Z" transform="translate(120.059 121.377) rotate(92)" fill="#c9f4eb"></path>
    <path id="路径_413" d="M416.314,322.978a12.816,12.816,0,0,1-7.922-2.885l2.963-3.508c.491.407,4.933,3.858,9.472.009l2.974,3.5a11.366,11.366,0,0,1-7.486,2.885Z" transform="translate(-302.22 -202.985)" fill="#f79c42"></path>
    <path id="路径_414" d="M117.4,158.588h-7.043a3.236,3.236,0,0,1-2.344-.994,3.319,3.319,0,0,1-.927-2.4c.111-3.682-.883-4.846-1.477-5.542a3.3,3.3,0,0,1-.964-2.056c-.031-.24-.173-.993-.3-1.66-1.375-7.264-1.516-9.8-.633-11.29l.065-.1a3.876,3.876,0,0,0,.644-1.343c-.338-.635-1.023-2.564-1.028-7.735-.107-2.1-.286-3.079-1.555-4.2-2.156-1.907-3.158-2.984-4.036-5.631a12.053,12.053,0,0,0-4.822-1.687c6.991,5.948,9.3,10.631,7.266,14.651l-.038.074c-1.038,2.255-5.174,4.256-9.151,3.544-2.927-.526-7.957-2.97-8.771-13.433l-.006-.119q-.025-1.094-.038-2.189c-.038-2.591-.1-6.929-.306-8.258-.419-2.758,2.261-9.7,8.244-10.816,5.254-.973,9.316,4.856,10.437,7.184.356.74,1.44,2.991,3.208,3.607a4.25,4.25,0,0,0,3.279-.431l.4-.218a10.622,10.622,0,0,1,6.246-1.65H114a10.62,10.62,0,0,1,6.246,1.65l.4.218a4.248,4.248,0,0,0,3.279.431c1.768-.616,2.852-2.868,3.208-3.607,1.121-2.328,5.178-8.162,10.436-7.184,5.985,1.111,8.665,8.058,8.246,10.816-.2,1.33-.266,5.667-.307,8.258-.013.886-.025,1.652-.038,2.189l-.006.119c-.812,10.462-5.844,12.906-8.771,13.433-3.975.713-8.113-1.289-9.157-3.557l-.031-.061c-2.035-4.02.276-8.7,7.267-14.651a12.061,12.061,0,0,0-4.822,1.687c-.876,2.646-1.878,3.724-4.033,5.631-1.27,1.123-1.447,2.1-1.555,4.2-.005,5.171-.691,7.1-1.028,7.735a3.878,3.878,0,0,0,.644,1.343l.065.1c.883,1.494.742,4.027-.631,11.291-.126.668-.267,1.42-.3,1.66a3.3,3.3,0,0,1-.964,2.056c-.594.7-1.588,1.86-1.477,5.541a3.321,3.321,0,0,1-.927,2.4,3.236,3.236,0,0,1-2.347.991Zm-5.736-4.595h4.427c.144-4.376,1.688-6.282,2.518-7.257.058-.36.152-.867.3-1.651.324-1.713,1.288-6.815,1.091-8.245-1.877-2.978-1.256-4.911-.723-5.8a20.659,20.659,0,0,0,.5-5.632l0-.114c.135-2.707.461-5.137,3.1-7.473,1.85-1.637,2.224-2.07,2.783-3.839,1.088-3.444,8.219-4.54,8.291-4.551,2.983-.442,5.016.1,6.047,1.608.486.711,1.111,2.239-.157,4.478l-.219.386-.347.276c-5.765,4.6-8.64,8.465-7.691,10.34l.051.1a5.426,5.426,0,0,0,4.769.943c3.18-1,4.191-5.474,4.478-9.078.013-.522.024-1.247.038-2.08.059-3.927.126-7.3.352-8.84.016-.982-1.363-5.057-4.543-5.648-2.112-.389-4.737,3.13-5.475,4.664-.561,1.164-2.267,4.708-5.83,5.949a8.7,8.7,0,0,1-6.829-.659l-.085-.044-.461-.251a6.447,6.447,0,0,0-3.046-1.066v0q-.567-.026-1.135-.033t-1.135.033v0a6.423,6.423,0,0,0-3.046,1.066l-.547.295a8.7,8.7,0,0,1-6.828.659c-3.563-1.243-5.269-4.786-5.83-5.951-.739-1.534-3.364-5.066-5.477-4.663-3.179.59-4.558,4.666-4.541,5.647.225,1.535.293,4.911.352,8.84.013.833.023,1.559.038,2.08.287,3.6,1.3,8.082,4.475,9.078a5.429,5.429,0,0,0,4.769-.943l.051-.1c.949-1.875-1.926-5.74-7.691-10.34l-.347-.276-.217-.386c-1.269-2.239-.643-3.767-.157-4.478,1.031-1.51,3.065-2.05,6.048-1.608.072.011,7.2,1.109,8.289,4.551.559,1.769.933,2.2,2.783,3.839,2.642,2.337,2.97,4.767,3.1,7.473l0,.114a20.733,20.733,0,0,0,.5,5.632c.533.886,1.154,2.822-.723,5.8-.2,1.429.768,6.533,1.091,8.245.148.784.243,1.291.3,1.651.83.974,2.374,2.881,2.518,7.257Zm11.451-6.5Zm-18.475,0ZM119.977,136.716ZM107.775,136.716Zm-11.714-9.994-.006.013Zm35.625-.011.006.013-.006-.014ZM129.852,115.733Zm-43.385-8.206v0Zm54.818,0a.044.044,0,0,1,0,.007A.044.044,0,0,0,141.285,107.526Z" transform="translate(0 0)" fill="#3cb994"></path>
  </g>
</svg>
