<?xml version="1.0" encoding="UTF-8"?>
<svg xmlns="http://www.w3.org/2000/svg" width="71.016" height="70.789" viewBox="0 0 71.016 70.789">
  <g id="影像科" transform="translate(-112.538 -101.492)">
    <path id="路径_369" d="M383.473,559.61a6.242,6.242,0,0,0-5.677,3.653,37.038,37.038,0,0,1-5.585,8.721h16.506A.987.987,0,0,0,389.7,571v-5.156A6.253,6.253,0,0,0,383.473,559.61ZM355.78,583.025a6.684,6.684,0,0,0,6.664,6.664h14.408a6.684,6.684,0,0,0,6.664-6.665V572.052H372.157A37.064,37.064,0,0,1,355.78,583.025Z" transform="translate(-222.77 -419.966)" fill="#c9f4eb"></path>
    <path id="路径_370" d="M313.761,551.1H275.624a3.044,3.044,0,0,1-3.044-3.044V542.9a8.3,8.3,0,0,1,8.288-8.289h27.649a8.3,8.3,0,0,1,8.288,8.289v5.155a3.044,3.044,0,0,1-3.044,3.044Zm-37.067-4.114h36V542.9a4.179,4.179,0,0,0-4.174-4.175H280.872A4.179,4.179,0,0,0,276.7,542.9Z" transform="translate(-146.415 -397.023)" fill="#3cb994" stroke="#3cb994" stroke-width="1"></path>
    <path id="路径_371" d="M370.909,707.582H356.5a8.731,8.731,0,0,1-8.721-8.721V687.887a2.057,2.057,0,0,1,2.057-2.057h27.737a2.057,2.057,0,0,1,2.057,2.057V698.86A8.731,8.731,0,0,1,370.909,707.582Zm-19.015-17.638v8.916a4.612,4.612,0,0,0,4.608,4.607h14.408a4.612,4.612,0,0,0,4.608-4.607v-8.916Z" transform="translate(-215.428 -535.801)" fill="#3cb994" stroke="#3cb994" stroke-width="1"></path>
    <path id="路径_372" d="M123.462,161.924a35.008,35.008,0,1,1,49.713-.551c-.167-.143-2.555-2.493-2.953-2.864a30.9,30.9,0,1,0-43.874.486C125.874,159.537,124.353,161.016,123.462,161.924Z" transform="translate(0 0)" fill="#3cb994" stroke="#3cb994" stroke-width="1"></path>
    <path id="路径_373" d="M361.3,265.864a19.232,19.232,0,0,0-27.123-.144l-1.348-1.378-1.56-1.534a23.342,23.342,0,0,1,33.039.248l-1.451,1.287Z" transform="translate(-199.718 -141.409)" fill="#ffa143" stroke="#ffa143" stroke-width="1"></path>
  </g>
</svg>
