<?xml version="1.0" encoding="UTF-8"?>
<svg xmlns="http://www.w3.org/2000/svg" width="62.839" height="54.61" viewBox="0 0 62.839 54.61">
  <g id="心电图" transform="translate(-81.92 -128)">
    <path id="路径_391" d="M534.948,1300.385a94.943,94.943,0,0,0,11.931-6.547c6.524-4.188,22.314-18.592,22.314-18.592v12.6l.319,5.994.552,10.288H527.806Z" transform="translate(-428.674 -1134.38)" fill="#c9f4eb"></path>
    <path id="路径_389" d="M137.533,173.917H89.146a7.256,7.256,0,0,1-7.227-7.268V135.267A7.256,7.256,0,0,1,89.146,128h48.387a7.256,7.256,0,0,1,7.226,7.267V166.65a7.256,7.256,0,0,1-7.226,7.268ZM89.146,132.448a2.815,2.815,0,0,0-2.805,2.819V166.65a2.815,2.815,0,0,0,2.805,2.82h48.387a2.814,2.814,0,0,0,2.8-2.82V135.267a2.814,2.814,0,0,0-2.8-2.819Zm53.4,50.162H84.132v-4.448h58.416Z" transform="translate(0 0)" fill="#3cb994"></path>
    <path id="路径_390" d="M188.191,309.749A2.682,2.682,0,0,1,185.669,308l-2.226-5.858h-7.079v-4.451h8.264a2.717,2.717,0,0,1,2.523,1.747l1.042,2.743,5.3-13.919a2.693,2.693,0,0,1,5.09.128l3.91,12.066,3.924-11.3a2.693,2.693,0,0,1,4.927-.393l4.553,8.5H225.4v4.451H214.862a2.693,2.693,0,0,1-2.377-1.428l-3.189-5.956-4.317,12.429a2.7,2.7,0,0,1-2.549,1.821H202.4a2.7,2.7,0,0,1-2.539-1.874l-3.983-12.292L190.712,308a2.682,2.682,0,0,1-2.522,1.746Z" transform="translate(-87.544 -146.933)" fill="#f79c42"></path>
  </g>
</svg>
