<?xml version="1.0" encoding="UTF-8"?>
<svg xmlns="http://www.w3.org/2000/svg" width="75.902" height="69.151" viewBox="0 0 75.902 69.151">
  <g id="心率" transform="translate(-76.8 -117.927)">
    <path id="路径_462" d="M13.217,5.22c3.7,2.5,1.8.99,9.337,7.945s5.292-1.517,5.292-1.517L30.671,7.08,28.985,1.343,24.152.138,16.32-2.64,4.537-2.526-1.2-2.241S9.519,2.721,13.217,5.22Z" transform="translate(132.574 158.57) rotate(121)" fill="#c9f4eb"></path>
    <path id="路径_460" d="M109.279,318.024a2.864,2.864,0,0,1-2.65-1.77L97.881,295.2l-4.754,12.328H76.8v-5.439H89.389L95.131,287.2a2.867,2.867,0,0,1,2.657-1.783h0a2.867,2.867,0,0,1,2.657,1.774l8.079,19.449,4.145-18.822a2.878,2.878,0,0,1,5.509-.375l5.578,15.1,4.367-14.956a2.878,2.878,0,0,1,5.477-.145l5.178,14.726H152.7v5.439H134.925l-3.808-10.831-4.308,14.753a2.878,2.878,0,0,1-5.461.189l-5.24-14.183-4.015,18.231a2.865,2.865,0,0,1-2.555,2.246q-.13.01-.26.01Zm8.713-29.04v0Z" transform="translate(0 -152.799)" fill="#f79c42"></path>
    <path id="路径_461" d="M171.778,145.579l-5.363-.919a18.219,18.219,0,0,0-28.5-17.938l-1.576,1.119-1.576-1.119a18.219,18.219,0,0,0-28.526,17.766l-5.372.866a23.66,23.66,0,0,1,35.474-24.089,23.659,23.659,0,0,1,35.436,24.314Zm-35.436,41.5-26.136-26.094,3.848-3.841,22.288,22.252L158.17,157.6l3.848,3.841Z" transform="translate(-21.681 0)" fill="#3cb994"></path>
  </g>
</svg>
