<?xml version="1.0" encoding="UTF-8"?>
<svg xmlns="http://www.w3.org/2000/svg" width="55.901" height="67.051" viewBox="0 0 55.901 67.051">
  <g id="心脏" transform="translate(-189.448 -81.92)">
    <path id="路径_436" d="M394.453,416.568c-23.833,22.143-31.435,18.946-38.374,20.454,3.01,2.766,11.416,7.9,15.5,7.9,9.023,0,19.152-11.417,19.152-20.445C390.74,419.851,404,418.292,394.453,416.568Z" transform="translate(-159.595 -300.123)" fill="#c9f4eb"></path>
    <path id="路径_434" d="M459.895,256.877l-3.672-3.324c6.628-7.239,5.994-12.133,4.842-21.018-.085-.656-.172-1.329-.258-2.019l-.105-.843.439-.728c10-16.611,29.368-15.438,30.188-15.378l-.348,4.925c-.685-.046-16.608-.944-25.136,12.278q.073.576.146,1.134c1.161,8.965,2.079,16.045-6.1,24.973Z" transform="translate(-245.979 -121.348)" fill="#f79c42"></path>
    <path id="路径_435" d="M236.623,102.656,232.265,105a13.989,13.989,0,0,1,.935,11.415c-3.3,10.079-10.5,27.068-21.627,27.606a11.561,11.561,0,0,1-8.76-3.717c-5.269-5.143-8.643-14.794-8.4-24.021.316-5.983,2.162-8.185,3.275-8.185h.03a3.92,3.92,0,0,1,3.47,2.993,34.142,34.142,0,0,1-.871,4.41l2.38.684,2.379.687a36.981,36.981,0,0,0,1.264-11.521c-.147-1.982,1.027-5.181,3.557-7.46a10.058,10.058,0,0,1,8.8-2.407,19.088,19.088,0,0,1,4.249,1.29l1.97-4.53a24.049,24.049,0,0,0-5.359-1.624q-.831-.145-1.673-.208A34.719,34.719,0,0,0,219,82.739l-4.951-.09a27.942,27.942,0,0,1-1.231,7.414,39.8,39.8,0,0,0-11.181-8.142l-1.989,4.522a34.521,34.521,0,0,1,8.856,6.31,15.33,15.33,0,0,0-1.929,1.477,16.577,16.577,0,0,0-3.76,5.034,22.755,22.755,0,0,0-10.755-10.457l-1.808,4.6c.071.028,5.867,2.388,9,9.93a8.117,8.117,0,0,0-1.357-.168c-3.747-.129-7.925,3.184-8.429,12.895l0,.061c-.287,10.524,3.686,21.661,9.885,27.713a16.686,16.686,0,0,0,11.727,5.138q.368,0,.738-.018c13.383-.646,21.578-17.217,26.1-31a18.986,18.986,0,0,0-1.286-15.293Z" transform="translate(0)" fill="#3cb994"></path>
  </g>
</svg>
