<?xml version="1.0" encoding="UTF-8"?>
<svg xmlns="http://www.w3.org/2000/svg" width="70.321" height="65.298" viewBox="0 0 70.321 65.298">
  <g id="手术刀" transform="translate(-81.92 -112.648)">
    <path id="路径_382" d="M383.075,420.1c-2.807,11.274-11.411,15.3-22.245,19.127,3.01,2.766,7.287,3.546,11.375,3.54,9.023,0,23.6-5.95,23.6-14.979C395.8,423.168,386.51,423.2,383.075,420.1Z" transform="translate(-245.81 -266.122)" fill="#c9f4eb"></path>
    <path id="路径_380" d="M279.153,499.705q-.277,0-.541-.008l-4.9-.138,20.128-26.232,8.549,6.121-.262,1.566c-2.483,14.848-15.8,18.69-22.977,18.69Zm15.695-19.5-10.542,13.737c4.6-1.175,10.663-4.247,12.628-12.242Z" transform="translate(-176.115 -331.194)" fill="#f79c42"></path>
    <path id="路径_381" d="M117.081,177.945c-17.473,0-35.161-4.767-35.161-13.878,0-5.993,8.073-10.81,21.595-12.886l.74,4.988c-11.985,1.842-17.376,5.726-17.376,7.9,0,1.443,2.441,3.748,7.894,5.643,5.921,2.057,13.843,3.19,22.308,3.19s16.385-1.133,22.307-3.19c5.453-1.895,7.894-4.2,7.894-5.643,0-2.218-5.534-6.159-17.835-7.966l.709-4.993c13.829,2.032,22.085,6.877,22.085,12.96C152.241,173.178,134.553,177.945,117.081,177.945Zm7.642-26.207-9.421-6.747L133.443,116.4a7.759,7.759,0,0,1,5.076-3.6,7.673,7.673,0,0,1,6.08,1.346l.1.073a7.98,7.98,0,0,1,1.444,11.415Zm-2.437-7.916,1.557,1.115,18.482-22.524a2.88,2.88,0,0,0-.529-4.1l-.108-.08a2.731,2.731,0,0,0-2.192-.484,2.772,2.772,0,0,0-1.839,1.31Z" fill="#3cb994"></path>
  </g>
</svg>
