<?xml version="1.0" encoding="UTF-8"?>
<svg xmlns="http://www.w3.org/2000/svg" width="50.685" height="67.051" viewBox="0 0 50.685 67.051">
  <g id="手部" transform="translate(-189.439 -81.92)">
    <path id="路径_427" d="M394.453,416.568c-23.833,22.143-31.435,18.946-38.374,20.454,3.01,2.766,11.416,7.9,15.5,7.9,9.023,0,19.152-11.417,19.152-20.445C390.74,419.851,404,418.292,394.453,416.568Z" transform="translate(-160.984 -297.949)" fill="#c9f4eb"></path>
    <path id="路径_425" d="M209,148.971a19.394,19.394,0,0,1-19.376-15.987,11.32,11.32,0,0,1-.175-2.022l0-1.314c0-.112-.007-.224-.007-.338s0-.226.007-.338l0-.12.12-29.57a5.737,5.737,0,0,1,5.7-5.751h.375a5.622,5.622,0,0,1,2.464.566V90.984a6.015,6.015,0,0,1,5.978-6.04h.406a5.9,5.9,0,0,1,2.882.749,6.031,6.031,0,0,1,1.317-2,5.91,5.91,0,0,1,4.228-1.769h.406a6.015,6.015,0,0,1,5.978,6.038V91.47a5.893,5.893,0,0,1,2.449-.53h.406a6.015,6.015,0,0,1,5.978,6.039v15.348l.443-.578c1.683-2.229,4.829-4.031,7.738-2.679l.752.393c2.471,1.616,4.71,4.678,1.35,10.095l-12.741,19.885q-.044.069-.092.135A19.268,19.268,0,0,1,209,148.971ZM195.273,98.348a.941.941,0,0,0-.936.945l-.126,29.842c0,.058,0,.117,0,.176s0,.118,0,.176l.006.227v1.249a6.4,6.4,0,0,0,.086,1.095l.016.089a14.824,14.824,0,0,0,27.244,4.848l.08-.123c.021-.03.042-.061.064-.091l12.692-19.81c1.484-2.39.987-2.865.194-3.389l-.279-.14c-.35-.134-1.325.413-1.952,1.244l-4.369,5.693a2.528,2.528,0,0,1-2.789.946,2.565,2.565,0,0,1-1.836-2.48V96.977a1.217,1.217,0,0,0-1.21-1.222h-.406a1.217,1.217,0,0,0-1.21,1.222v17.6a2.536,2.536,0,0,1-1.291,2.215,2.483,2.483,0,0,1-2.544-.069c-.272-.17-.559-.336-.841-.488A2.522,2.522,0,0,1,214.537,114V87.958a1.217,1.217,0,0,0-1.21-1.222h-.4a1.2,1.2,0,0,0-.855.359,1.223,1.223,0,0,0-.354.864V112a2.5,2.5,0,0,1-2.488,2.514c-.2,0-.713,0-.9.014a2.514,2.514,0,0,1-1.847-.7A2.554,2.554,0,0,1,205.7,112V90.983a1.217,1.217,0,0,0-1.21-1.222h-.4a1.217,1.217,0,0,0-1.21,1.222v23.345a2.544,2.544,0,0,1-1.249,2.19q-.561.33-1.092.709a2.479,2.479,0,0,1-2.6.182,2.527,2.527,0,0,1-1.353-2.247V99.293a.941.941,0,0,0-.936-.945h-.375Z" transform="translate(0 0)" fill="#3cb994"></path>
    <path id="路径_426" d="M399.313,617.341l-4.74-.373a15.62,15.62,0,0,1,11.934-14.078l1,4.7-.5-2.352.51,2.35a10.869,10.869,0,0,0-8.2,9.749Z" transform="translate(-471.751 -152.791) rotate(-34)" fill="#f79c42"></path>
  </g>
</svg>
