<?xml version="1.0" encoding="UTF-8"?>
<svg xmlns="http://www.w3.org/2000/svg" width="61.597" height="66.334" viewBox="0 0 61.597 66.334">
  <g id="护士" transform="translate(-112.64 -81.931)">
    <path id="路径_169" d="M535.812,1366.968c3.305-2.053,3.764-1.791,8.616-5.827a88.6,88.6,0,0,1,11.1-7.577l8.916,6.975.485,9.037h-37.12A22.8,22.8,0,0,0,535.812,1366.968Z" transform="translate(-393.753 -1225.711)" fill="#c9f4eb"></path>
    <path id="路径_167" d="M161.157,124.14c3.755-2.492,4.024-5.947,3.633-9.018s-2.142-9.936-2.745-12.252c.635-1.518,2.1-5.009,2.776-6.413l.316-.659-.116-.719a12.052,12.052,0,0,0-2.743-5.365,19.788,19.788,0,0,0-8.271-5.765c-10.844-4.112-23.334-1.233-27.911,2.346-5.019,3.488-5.906,7.836-5.637,9.86l.05.374,3.022,6.212c-.761,2.659-2.931,10.635-3.089,15.743-.092,2.97,1.671,5,4.1,6.337a20.611,20.611,0,0,0-11.9,18.565,4.936,4.936,0,0,0,4.979,4.879h51.638a4.936,4.936,0,0,0,4.979-4.879c0-8.3-5.528-15.843-13.08-19.247Zm-35.3-10.3c3.952-1.461,13.688-5.284,21.239-10.089,3.19,3.173,7.329,7.189,12.107,7.92.353,1.589.648,3.06.773,4.044.325,2.547.693,5.434-8.864,6.68l-.893.118-.6.659c-1.865,2.053-7.976,4.853-13.993-.222l-.649-.545-.852-.028c-2.8-.094-8.927-1.168-8.847-3.744a34.533,34.533,0,0,1,.576-4.793Zm3.087-23.7.137-.1c3.1-2.47,13.783-5.215,23.171-1.654a14.943,14.943,0,0,1,6.256,4.326,9.308,9.308,0,0,1,1.557,2.52c-1.027,2.275-2.735,6.384-2.816,6.58l-.3.729.2.762c.009.034.342,1.29.778,3.027-2.712-1.266-5.449-3.988-7.621-6.149a4.506,4.506,0,0,0-5.588-.577,109.131,109.131,0,0,1-17.655,8.672c.707-2.854,1.355-5.021,1.368-5.067l.263-.873-3.427-7.047c.058-.743.511-2.967,3.678-5.148Zm40.309,53.384H117.619a.132.132,0,0,1-.133-.13,16.051,16.051,0,0,1,16.192-15.866v-.039a15.694,15.694,0,0,0,9.222,3.067,14.647,14.647,0,0,0,9.688-3.567c8.969.089,16.8,7.715,16.8,16.4a.132.132,0,0,1-.133.13Z" fill="#3cb994"></path>
    <path id="路径_168" d="M454.65,166.351h-2.8V163.6h-4.852v2.751h-2.8v4.761h2.8v2.751h4.852v-2.751h2.8v-4.761Z" transform="translate(-305.982 -75.37)" fill="#f79c42"></path>
  </g>
</svg>
