<?xml version="1.0" encoding="UTF-8"?>
<svg xmlns="http://www.w3.org/2000/svg" width="73.481" height="73.479" viewBox="0 0 73.481 73.479">
  <g id="挂号" transform="translate(-76.777 -81.897)">
    <path id="路径_465" d="M397.915,409.129c-8.5,26-33.659,24.545-44.492,28.369,3.01,2.766,11.952,11.862,16.04,11.856,9.023,0,34.011-24.165,34.011-33.194C403.479,411.536,401.351,412.223,397.915,409.129Z" transform="translate(-256.578 -298.039)" fill="#c9f4eb"></path>
    <path id="路径_463" d="M113.517,155.375a8.292,8.292,0,0,1-5.882-2.433L79.213,124.519a8.32,8.32,0,0,1,0-11.766l28.422-28.423a8.327,8.327,0,0,1,11.764,0l28.422,28.424a8.32,8.32,0,0,1,0,11.765L119.4,152.941A8.292,8.292,0,0,1,113.517,155.375Zm-2.282-6.034a3.23,3.23,0,0,0,4.565,0l28.42-28.424a3.228,3.228,0,0,0,0-4.565L115.8,87.93a3.23,3.23,0,0,0-4.565,0L82.815,116.354a3.228,3.228,0,0,0,0,4.565l28.42,28.424Z" transform="translate(0 0)" fill="#3cb994"></path>
    <path id="路径_464" d="M400.2,390.407h-8.706v-8.7h-5.087v8.7h-8.7v5.082h8.706v8.7h5.087v-8.7H400.2v-5.082Z" transform="translate(-275.372 -274.351)" fill="#f79c42"></path>
  </g>
</svg>
