<?xml version="1.0" encoding="UTF-8"?>
<svg xmlns="http://www.w3.org/2000/svg" width="92.815" height="71.49" viewBox="0 0 92.815 71.49">
  <g id="换药" transform="translate(-0.009 0.006)">
    <path id="路径_495" d="M382.163,420.383c-12.52,16.96-16.319,15.847-27.153,19.671,3.01,2.766,12.5,6.023,16.592,6.017,9.023,0,8.065-10.094,12.639-18.666C384.245,422.781,385.6,423.478,382.163,420.383Z" transform="matrix(0.891, 0.454, -0.454, 0.891, -63.449, -526.549)" fill="#c9f4eb"></path>
    <path id="路径_483" d="M4.562,4.587a16.162,16.162,0,0,0,.29,22.78L23.375,45.853a2.831,2.831,0,0,0,4-.007L45.858,27.31a2.831,2.831,0,0,0,0-4L27.333,4.825A16.151,16.151,0,0,0,4.992,4.172Zm4.009,4,.381-.362a10.506,10.506,0,0,1,14.383.608L39.852,25.314,25.368,39.842,8.851,23.356A10.521,10.521,0,0,1,8.214,8.964l.358-.381Z" transform="translate(0 -0.006)" fill="#3cb994"></path>
    <path id="路径_484" d="M156.59,4.816,138.069,23.3a2.831,2.831,0,0,0,0,4l18.48,18.536a2.832,2.832,0,0,0,4.005.007l18.522-18.486a16.158,16.158,0,0,0,.286-22.777,16.135,16.135,0,0,0-22.771.236Zm18.761,3.759.36.385a10.525,10.525,0,0,1-.639,14.392L158.554,39.837,144.07,25.309,160.589,8.824a10.506,10.506,0,0,1,14.383-.608l.378.36Z" transform="translate(-91.089 0)" fill="#3cb994"></path>
    <path id="路径_485" d="M622.179,497.18a1.681,1.681,0,1,0,1.466,1.668,1.579,1.579,0,0,0-1.466-1.668m0-2.146a3.819,3.819,0,1,1-3.612,3.813A3.717,3.717,0,0,1,622.179,495.035Z" transform="translate(-575.373 -460.48)" fill="#f79c42"></path>
    <path id="路径_486" d="M507.606,623.672a1.868,1.868,0,1,0,1.868,1.868,1.868,1.868,0,0,0-1.868-1.868m0-2.146a4.014,4.014,0,1,1-4.014,4.014A4.014,4.014,0,0,1,507.606,621.527Z" transform="translate(-468.426 -578.141)" fill="#f79c42"></path>
    <path id="路径_487" d="M679.492,646.672c-.687,0-1.266.764-1.266,1.668s.58,1.668,1.266,1.668,1.266-.763,1.266-1.668-.58-1.668-1.266-1.668m0-2.146a3.837,3.837,0,1,1-3.412,3.813A3.63,3.63,0,0,1,679.492,644.527Z" transform="translate(-628.872 -599.535)" fill="#f79c42"></path>
    <path id="路径_488" d="M679.492,807.659c-.687,0-1.266.764-1.266,1.668s.58,1.668,1.266,1.668,1.266-.763,1.266-1.668-.58-1.668-1.266-1.668m0-2.146a3.837,3.837,0,1,1-3.412,3.813A3.63,3.63,0,0,1,679.492,805.513Z" transform="translate(-628.872 -749.282)" fill="#f79c42"></path>
    <path id="路径_489" d="M507.607,755.916a2.08,2.08,0,1,0,1.868,2.069,1.979,1.979,0,0,0-1.868-2.069m0-2.146a4.22,4.22,0,1,1-4.014,4.215A4.118,4.118,0,0,1,507.607,753.77Z" transform="translate(-468.427 -701.152)" fill="#f79c42"></path>
    <path id="路径_490" d="M398.163,836.406a1.668,1.668,0,1,0,1.668,1.668,1.668,1.668,0,0,0-1.668-1.668m0-2.146a3.813,3.813,0,1,1-3.813,3.813A3.813,3.813,0,0,1,398.163,834.261Z" transform="translate(-366.81 -776.023)" fill="#f79c42"></path>
    <path id="路径_491" d="M587.9,916.9a1.668,1.668,0,1,0,1.668,1.668A1.668,1.668,0,0,0,587.9,916.9m0-2.146a3.813,3.813,0,1,1-3.813,3.813A3.813,3.813,0,0,1,587.9,914.757Z" transform="translate(-543.302 -850.899)" fill="#f79c42"></path>
    <path id="路径_492" d="M840.885,778.91a1.668,1.668,0,1,0,1.668,1.668,1.668,1.668,0,0,0-1.668-1.668m0-2.146a3.813,3.813,0,1,1-3.813,3.813A3.813,3.813,0,0,1,840.885,776.765Z" transform="translate(-778.624 -722.541)" fill="#f79c42"></path>
    <path id="路径_493" d="M398.344,614.385l-3.771-.3a12.425,12.425,0,0,1,9.493-11.2l.794,3.742-.4-1.871.406,1.869a8.646,8.646,0,0,0-6.526,7.756Z" transform="matrix(0.985, -0.174, 0.174, 0.985, -487.072, -516.876)" fill="#3cb994"></path>
  </g>
</svg>
