<?xml version="1.0" encoding="UTF-8"?>
<svg xmlns="http://www.w3.org/2000/svg" width="84.486" height="72.265" viewBox="0 0 84.486 72.265">
  <g id="救护车" transform="translate(-81.92 -143.142)">
    <path id="路径_471" d="M391.406,413.027c-3.31,14.883-25.11,24.988-35.853,33.534,3.01,2.766,10.435-3.646,14.524-3.652,3.9,0,7.6-4.81,12.669-6.685,9.693,1.59,13.271-2.124,15.868-6.993C398.619,424.607,394.842,416.122,391.406,413.027Z" transform="translate(-94.034 -328.846) rotate(17)" fill="#c9f4eb"></path>
    <path id="路径_469" d="M240.306,398.723h-9.5v-8.871h-5.781v8.871h-9.5v5.748h9.5v8.871H230.8v-8.871h9.5Z" transform="translate(-120.944 -223.338)" fill="#f79c42"></path>
    <path id="路径_470" d="M133.632,153.871c.028-.3.046-.609.046-.915a9.814,9.814,0,0,0-19.628,0c0,.267.013.534.034.8H91.352a9.432,9.432,0,0,0-9.432,9.411v34.884a9.432,9.432,0,0,0,9.431,9.41h3.123a8.93,8.93,0,0,0,16.9,0H135.1a8.93,8.93,0,0,0,16.9,0h2.467a9.433,9.433,0,0,0,9.432-9.41V186.635A32.949,32.949,0,0,0,133.632,153.871Zm-13.808-.916a4.041,4.041,0,1,1,7.994.8h-7.906a4.043,4.043,0,0,1-.088-.8Zm-16.9,54.779a3.156,3.156,0,1,1,3.163-3.156,3.156,3.156,0,0,1-3.163,3.156Zm40.624,0a3.156,3.156,0,1,1,3.163-3.156,3.156,3.156,0,0,1-3.163,3.156Zm14.575-9.687a3.659,3.659,0,0,1-3.659,3.651h-2.467a8.93,8.93,0,0,0-16.9,0H111.371a8.93,8.93,0,0,0-16.9,0H91.352a3.659,3.659,0,0,1-3.659-3.651V163.164a3.659,3.659,0,0,1,3.659-3.651H130.94a27.182,27.182,0,0,1,27.181,27.122v11.413ZM138.152,163.9h-7.2a4.493,4.493,0,0,0-4.462,4.511V182.5a4.493,4.493,0,0,0,4.462,4.511h19.1a4.493,4.493,0,0,0,4.462-4.511v-1.746c0-9.136-7.495-16.854-16.365-16.854Zm10.592,17.354H132.268V169.661h5.885c5.742,0,10.592,5.079,10.592,11.092v.5Z" fill="#3cb994"></path>
  </g>
</svg>
