<?xml version="1.0" encoding="UTF-8"?>
<svg xmlns="http://www.w3.org/2000/svg" width="63.263" height="70.858" viewBox="0 0 63.263 70.858">
  <g id="显微镜" transform="translate(-128 -81.879)">
    <path id="路径_385" d="M370.362,413.969c.2,1.307,4.034,5.569.464,11-3.57,2.892-4.195,15.035-8.464,16.542,3.01,2.766,5.755,1.269,9.843,1.263,9.023,0,3.726-14.04,3.726-23.068C375.936,415.078,373.892,417.028,370.362,413.969Z" transform="translate(-194.198 -294.07)" fill="#c9f4eb"></path>
    <path id="路径_383" d="M184.254,180.049c3.54-11.387,1.434-19.45-1.131-24.356a23.346,23.346,0,0,0-7.718-8.772l-2.457,4.409c.137.084,13.3,8.312,6.122,28.719h-7.4c4.464-5.681,6.392-11.078,5.721-16.094a15.424,15.424,0,0,0-7.205-10.79l-2.342,4.476a10.416,10.416,0,0,1,4.7,7.069c.553,4.335-2.034,9.626-7.476,15.339H128v5.1h63.263v-5.1h-7.009ZM149.249,164.3a5.094,5.094,0,0,0,7.394,0l7.678-7.985-3.465-3.6-7.678,7.985a.32.32,0,0,1-.464,0L140.7,148.2a.351.351,0,0,1,0-.482l24.357-25.329a.32.32,0,0,1,.464,0l12.015,12.494a.351.351,0,0,1,0,.482l-6.075,6.32,3.465,3.6L181,138.97a5.6,5.6,0,0,0,0-7.689l-12.015-12.494a5.093,5.093,0,0,0-7.394,0l-24.357,25.329a5.6,5.6,0,0,0,0,7.689Z" transform="translate(0 -32.408)" fill="#3cb994"></path>
    <path id="路径_384" d="M175.56,138.5l-13.006-13.521,3.462-3.6,13.008,13.52Zm37.858-44.021-8.655-9,3.462-3.6,8.655,9Zm-13.412,30.278a10,10,0,1,1,9.608-9.988,9.814,9.814,0,0,1-9.608,9.988Zm0-14.885a4.9,4.9,0,1,0,4.711,4.9,4.812,4.812,0,0,0-4.711-4.9Z" transform="translate(-31.708)" fill="#f79c42"></path>
  </g>
</svg>
