<?xml version="1.0" encoding="UTF-8"?>
<svg xmlns="http://www.w3.org/2000/svg" width="59.545" height="69.954" viewBox="0 0 59.545 69.954">
  <g id="死亡" transform="translate(-143.356 -81.92)">
    <path id="路径_406" d="M392.819,555.978c-2.17,1.846-7.027,6.916-11.529,9.933-3.788,3.007-2.09,2.146-7.912,6.591h15.477c.545,0,3.527-.754,3.527-1.3l1.16-5.894C393.531,561.871,396.255,555.99,392.819,555.978ZM355.78,583.025a6.684,6.684,0,0,0,6.664,6.664h14.408a6.684,6.684,0,0,0,6.664-6.665V572.052l-10.138.449A46.515,46.515,0,0,1,355.78,583.025Z" transform="translate(-195.071 -439.969)" fill="#c9f4eb"></path>
    <path id="路径_404" d="M253.544,403.228H248.2V397.24h5.346v5.988Zm8.209,0h-5.346V397.24h5.346Zm-18.687-22.122a10.07,10.07,0,0,1-7.267-3.086,10.638,10.638,0,0,1,0-14.74,14.2,14.2,0,0,1,9.767-3.9,8.981,8.981,0,0,1,6.631,2.5c4.289,4.406,1.8,12.367-1.864,16.137a10.07,10.07,0,0,1-7.266,3.086Zm2.5-16.37a9.009,9.009,0,0,0-5.94,2.285,5.239,5.239,0,0,0,0,7.259,4.761,4.761,0,0,0,6.88,0c2.2-2.259,3.522-6.951,1.864-8.656a3.9,3.9,0,0,0-2.8-.888Zm21.895,16.37a10.07,10.07,0,0,1-7.266-3.086c-3.669-3.769-6.152-11.731-1.864-16.137a8.981,8.981,0,0,1,6.63-2.5,14.2,14.2,0,0,1,9.767,3.9,10.638,10.638,0,0,1,0,14.74,10.071,10.071,0,0,1-7.264,3.085Zm-2.5-16.37a3.908,3.908,0,0,0-2.8.888c-1.658,1.7-.333,6.4,1.864,8.656a4.76,4.76,0,0,0,6.879,0,5.239,5.239,0,0,0,0-7.259,9.009,9.009,0,0,0-5.94-2.285Zm-7.306,24.3H252.83a3.59,3.59,0,0,1-3.123-5.351l2.413-4.293a3.579,3.579,0,0,1,6.243,0l2.412,4.292a3.59,3.59,0,0,1-3.119,5.352Z" transform="translate(-82.2 -254.893)" fill="#f79c42"></path>
    <path id="路径_405" d="M165.664,151.874a8.844,8.844,0,0,1-6.288-2.617,9.192,9.192,0,0,1-2.7-6.575l.01-4.679a.6.6,0,0,0-.169-.429.433.433,0,0,0-.314-.137h-3.853a9.094,9.094,0,0,1-8.992-9.172V112.447c0-16.832,13.356-30.527,29.772-30.527S202.9,95.614,202.9,112.447v15.818a9.094,9.094,0,0,1-8.992,9.173h-3.967a.529.529,0,0,0-.484.564v4.612a9.1,9.1,0,0,1-8.939,9.172l-14.8.089h-.054Zm7.464-64.592c-13.467,0-24.423,11.288-24.423,25.164v15.818a3.733,3.733,0,0,0,3.642,3.81H156.2a5.752,5.752,0,0,1,4.1,1.711,5.933,5.933,0,0,1,1.732,4.228l-.01,4.679a3.862,3.862,0,0,0,1.128,2.765,3.539,3.539,0,0,0,2.513,1.053h.021l14.8-.088a3.738,3.738,0,0,0,3.623-3.81V138a5.887,5.887,0,0,1,5.833-5.927h3.967a3.733,3.733,0,0,0,3.642-3.81V112.447c0-13.876-10.959-25.164-24.426-25.164Z" transform="translate(0)" fill="#3cb994"></path>
  </g>
</svg>
