<?xml version="1.0" encoding="UTF-8"?>
<svg xmlns="http://www.w3.org/2000/svg" width="65.238" height="65.244" viewBox="0 0 65.238 65.244">
  <g id="注射器" transform="translate(-81.966 -81.92)">
    <path id="路径_343" d="M10.854,6.976c3.408,2.146,7,4.32,10.318,6.76s8.742,9.94,8.742,9.94l1.517-4.155.228-4.282.395-7.349L17.308.106,8.088,0,0,.906S7.446,4.83,10.854,6.976Z" transform="matrix(-0.574, 0.819, -0.819, -0.574, 127.857, 114.881)" fill="#c9f4eb"></path>
    <path id="路径_341" d="M85.383,485.137l-3.417-3.4,6.754-6.961,3.417,3.4Zm24.307-15.647-5.958-6.311,3.461-3.349,5.958,6.311Zm5.383-4.436-4.033-4.408,3.512-3.293,4.033,4.408Zm4.4-5.285-5.958-6.311,3.461-3.349,5.958,6.311Zm5.383-4.436-4.032-4.408,3.512-3.293,4.033,4.408Z" transform="translate(0 -337.973)" fill="#f79c42"></path>
    <path id="路径_342" d="M194.872,95.4l2.148,2.166,3.381-3.436L188.292,81.92l-3.381,3.436,1.728,1.743q-1.793,1.844-3.576,3.7l-7.741-7.779-3.375,3.443,3.232,3.248-27.97,28.319A12.52,12.52,0,0,0,144.1,130.2l-2.827,2.862a6.087,6.087,0,0,0,0,8.525l.071.071a5.906,5.906,0,0,0,8.417,0l2.827-2.862a12.15,12.15,0,0,0,12.022-3.153l28.035-28.388,3.612,3.631,3.375-3.443-8.316-8.354c1.442-1.5,2.7-2.8,3.558-3.686Zm-4.84-4.882,1.447,1.459c-.745.765-1.864,1.925-3.565,3.689l-1.448-1.455c1.479-1.534,2.748-2.85,3.566-3.694Zm-11.07,11.495,3.91-4.066,1.443,1.461-3.932,4.091-1.422-1.486Zm-4.526-4.7,3.907-3.956,1.14,1.154-3.864,4.022q-.59-.612-1.183-1.22Zm-28.063,40.908a1.152,1.152,0,0,1-1.645,0l-.071-.071a1.187,1.187,0,0,1,0-1.663l1.772-1.794c.245.3.5.592.782.872l.073.074q.411.416.861.791Zm14.848-6.015a7.4,7.4,0,0,1-10.548,0l-.075-.078a7.63,7.63,0,0,1,0-10.682l20.452-20.708c2.354,2.427,6.855,7.133,10.463,10.918Zm23.68-23.977-1.187-1.245c1.254-1.3,2.626-2.733,3.989-4.149l1.263,1.279Z" transform="translate(-53.196)" fill="#3cb994"></path>
  </g>
</svg>
