<?xml version="1.0" encoding="UTF-8"?>
<svg xmlns="http://www.w3.org/2000/svg" width="49.942" height="58.674" viewBox="0 0 49.942 58.674">
  <g id="测体重" transform="translate(-148.48 -81.919)">
    <path id="路径_346" d="M534.793,1299.839a92.891,92.891,0,0,0,11.672-6.405c6.382-4.1,21.83-18.189,21.83-18.189v12.325l.312,5.864.54,10.065H527.806Z" transform="translate(-372.725 -1166.192)" fill="#c9f4eb"></path>
    <path id="路径_344" d="M191.243,81.919H155.659a7.149,7.149,0,0,0-7.179,7.1V133.49a7.149,7.149,0,0,0,7.179,7.1h35.584a7.149,7.149,0,0,0,7.179-7.1V89.022A7.149,7.149,0,0,0,191.243,81.919Zm2.785,51.571a2.774,2.774,0,0,1-2.785,2.756H155.659a2.773,2.773,0,0,1-2.785-2.756V89.022a2.773,2.773,0,0,1,2.785-2.756h35.584a2.774,2.774,0,0,1,2.785,2.756V133.49ZM173.517,113.5a7.3,7.3,0,0,0-2.241.349l-5.749-8.11-3.6,2.5,5.784,8.158a7.125,7.125,0,0,0-1.427,4.261,7.232,7.232,0,1,0,7.231-7.155Zm0,9.96a2.825,2.825,0,0,1-2.837-2.807,2.773,2.773,0,0,1,1.171-2.273,2.819,2.819,0,1,1,1.666,5.079Z" transform="translate(0 0)" fill="#3cb994"></path>
    <path id="路径_345" d="M290.275,259.169l-2.782-3.362a25.637,25.637,0,0,1,30.978-.994l-2.56,3.534a21.221,21.221,0,0,0-25.636.822Z" transform="translate(-129.531 -156.695)" fill="#f79c42"></path>
  </g>
</svg>
