<?xml version="1.0" encoding="UTF-8"?>
<svg xmlns="http://www.w3.org/2000/svg" width="44.736" height="57.813" viewBox="0 0 44.736 57.813">
  <g id="测身高" transform="translate(-179.2 -81.92)">
    <path id="路径_349" d="M562.16,1299.839a92.891,92.891,0,0,1-11.672-6.405c-6.382-4.1-21.83-18.189-21.83-18.189v12.325l-.312,5.864-.54,10.065h41.341Z" transform="translate(-345.211 -1166.191)" fill="#c9f4eb"></path>
    <path id="路径_347" d="M409.9,152.015a2.825,2.825,0,1,1-2.829,2.822,2.825,2.825,0,0,1,2.829-2.822m0-4.282a7.106,7.106,0,1,0,7.118,7.1,7.106,7.106,0,0,0-7.118-7.1Zm5.444,19.26a.574.574,0,0,1,.574.573v10.747h-4.189v14.1h-3.659v-14.1h-4.189V167.565a.574.574,0,0,1,.574-.573h10.889m0-4.282H404.459a4.859,4.859,0,0,0-4.863,4.855v12.6a2.43,2.43,0,0,0,2.432,2.427h1.757v11.676a2.43,2.43,0,0,0,2.432,2.427h7.375a2.429,2.429,0,0,0,2.432-2.427V182.595h1.757a2.429,2.429,0,0,0,2.432-2.427v-12.6A4.859,4.859,0,0,0,415.347,162.71Z" transform="translate(-205.582 -61.389)" fill="#f79c42"></path>
    <path id="路径_348" d="M223.936,139.733h-36.93c-4.3,0-7.806-3.139-7.806-7V88.918c0-3.859,3.5-7,7.806-7h36.93V86.2h-36.93c-1.9,0-3.514,1.243-3.514,2.715v43.816c0,1.471,1.609,2.715,3.514,2.715h36.93Z" fill="#3cb994"></path>
  </g>
</svg>
