<?xml version="1.0" encoding="UTF-8"?>
<svg xmlns="http://www.w3.org/2000/svg" width="63.696" height="65.244" viewBox="0 0 63.696 65.244">
  <g id="温度计" transform="translate(-92.07 -81.929)">
    <path id="路径_175" d="M10.854,6.976c3.408,2.146,6.561,5.01,9.882,7.449S31.13,25.192,31.13,25.192l.3-5.671L32.6,15.11l-.548-7.219L17.308.106,8.088,0-.432.314S7.446,4.83,10.854,6.976Z" transform="translate(142.84 109.03) rotate(120)" fill="#c9f4eb"></path>
    <path id="路径_335" d="M174.214,734.068l-3.206-3.206,7.379-7.545,3.205,3.206Z" transform="translate(-72.95 -592.739)" fill="#f79c42"></path>
    <path id="路径_336" d="M151.814,86.272l-.327-.332a13.394,13.394,0,0,0-19.117,0l-24.725,25.094a13.854,13.854,0,0,0-3.63,12.677l-9.923,10.071a7.13,7.13,0,0,0-2,5.491,8.41,8.41,0,0,0,2.44,5.411,8.18,8.18,0,0,0,5.331,2.476q.227.013.451.013a6.853,6.853,0,0,0,4.945-2.032l10.506-10.482a13.349,13.349,0,0,0,11.326-3.892l24.725-25.094a13.88,13.88,0,0,0,0-19.4ZM102.086,141.9a2.5,2.5,0,0,1-1.966.7,3.715,3.715,0,0,1-2.408-1.145c-1.326-1.346-1.522-3.337-.437-4.439l8.625-8.754a13.688,13.688,0,0,0,1.745,2.175l.327.332a13.487,13.487,0,0,0,2.982,2.282Zm46.544-39.454L123.9,127.536a8.9,8.9,0,0,1-10.8,1.5l30.517-31.346-3.2-3.212-30.63,31.461a9.172,9.172,0,0,1-1.6-5.2,9.31,9.31,0,0,1,.388-2.667l2.6,2.651,3.192-3.223-3.352-3.418,8.024-8.145,3.274,3.34,3.192-3.223-3.282-3.349,9.81-9.956,3.187,3.251,3.192-3.223-3.195-3.259.337-.342a8.932,8.932,0,0,1,12.749,0l.328.332a9.257,9.257,0,0,1,0,12.94Z" transform="translate(0)" fill="#3cb994"></path>
  </g>
</svg>
