<?xml version="1.0" encoding="UTF-8"?>
<svg xmlns="http://www.w3.org/2000/svg" width="58.375" height="64.483" viewBox="0 0 58.375 64.483">
  <g id="烧杯" transform="translate(-122.88 -76.8)">
    <path id="路径_474" d="M534.948,1300.385a94.943,94.943,0,0,0,11.931-6.547c6.524-4.188,22.314-18.592,22.314-18.592v12.6l.319,5.994.552,10.288H527.806Z" transform="translate(-395.728 -1166.81)" fill="#c9f4eb"></path>
    <path id="路径_472" d="M168.034,141.283H131.4a8.538,8.538,0,0,1-8.519-8.539V82.376a5.576,5.576,0,0,1,5.564-5.576h48.725a4.094,4.094,0,0,1,3.57,6.084l-4.186,7.548v42.312a8.539,8.539,0,0,1-8.519,8.539Zm-39.59-59.256a.35.35,0,0,0-.349.35v50.367a3.313,3.313,0,0,0,3.305,3.313h36.634a3.313,3.313,0,0,0,3.3-3.313V89.077l3.912-7.049Z" transform="translate(0)" fill="#3cb994"></path>
    <path id="路径_473" d="M277.666,351.378H241.623v-5.266h36.043Z" transform="translate(-109.894 -249.242)" fill="#f79c42"></path>
  </g>
</svg>
