<?xml version="1.0" encoding="UTF-8"?>
<svg xmlns="http://www.w3.org/2000/svg" width="65.657" height="64.483" viewBox="0 0 65.657 64.483">
  <g id="烧瓶" transform="translate(-87.083 -92.16)">
    <path id="路径_477" d="M534.948,1300.385a94.943,94.943,0,0,0,11.931-6.547A158.032,158.032,0,0,0,562,1282.055l5.534,6.792,1.973,4.99,2.807,9.349-44.512.939Z" transform="translate(-422.643 -1150.844)" fill="#c9f4eb"></path>
    <path id="路径_475" d="M151.545,145.071l-20.963-32.539V97.372h1.951V92.16H107.288v5.212h1.953v15.16L88.276,145.072A7.51,7.51,0,0,0,94.6,156.643h50.627a7.508,7.508,0,0,0,6.32-11.572Zm-4.3,5.163a2.253,2.253,0,0,1-2.018,1.2H94.6a2.3,2.3,0,0,1-1.934-3.539l21.795-33.828V97.372h10.906v16.692l21.8,33.827a2.248,2.248,0,0,1,.084,2.342Z" fill="#3cb994"></path>
    <path id="路径_476" d="M397.986,509.434H376.832v-5.257h21.154Z" transform="translate(-267.498 -380.376)" fill="#f79c42"></path>
  </g>
</svg>
