<?xml version="1.0" encoding="UTF-8"?>
<svg xmlns="http://www.w3.org/2000/svg" width="64.972" height="70.805" viewBox="0 0 64.972 70.805">
  <g id="牙科" transform="translate(-106.491 -72.394)">
    <path id="路径_366" d="M255.9,114.826l-.066-.079a13.589,13.589,0,0,0-9.767-4.657,39.145,39.145,0,0,1-37.97,48.513q-1.092,0-2.172-.06a93.984,93.984,0,0,0,4.133,9.4l3.014,5.941a3.483,3.483,0,0,0,6.358-.328l.388-1.011c1.364-2.993,3.179-7.829,5.351-10.031l1.521-1.541a4.32,4.32,0,0,1,6.15,0l1.52,1.541c2.173,2.205,3.987,7.036,5.356,10.031l.438,1.142a3.482,3.482,0,0,0,6.336.369L249,169.263a93.732,93.732,0,0,0,10.618-39.41l.171-3.9A15.885,15.885,0,0,0,255.9,114.826Z" transform="translate(-91.133 -34.251)" fill="#c9f4eb"></path>
    <path id="路径_367" d="M398.338,257.278a11.3,11.3,0,0,1-5.021-1.145l-3.619-1.812c-.047,0,1.774-3.532,1.763-3.522l3.619,1.812a7.729,7.729,0,0,0,6.516,0l3.618-1.812c.322.5,1.1,2.179,1.763,3.526l-3.619,1.812A11.334,11.334,0,0,1,398.338,257.278Z" transform="translate(-259.434 -163.686)" fill="#ffa143" stroke="#ffa143" stroke-width="1"></path>
    <path id="路径_368" d="M152.594,142.7c-.11,0-.221,0-.332-.009a5.393,5.393,0,0,1-4.773-3.489l-.417-1.087c-.257-.566-.525-1.181-.808-1.835-1.169-2.695-2.624-6.048-4.128-7.573l-1.521-1.541a2.35,2.35,0,0,0-3.347,0l-1.523,1.541c-1.505,1.526-2.959,4.879-4.128,7.573-.284.652-.551,1.27-.808,1.835l-.366.955a5.452,5.452,0,0,1-9.953.512l-3.01-5.944a95.71,95.71,0,0,1-10.2-38.051l-.253-4.623a17.761,17.761,0,0,1,4.364-12.7,15.539,15.539,0,0,1,18.836-3.63,2.049,2.049,0,0,1,.244.147l4.486,3.188a6.894,6.894,0,0,0,7.981,0l4.49-3.188a2.048,2.048,0,0,1,.243-.147A15.537,15.537,0,0,1,166.5,78.26l.066.079a17.777,17.777,0,0,1,4.374,12.507l-.17,3.9a95.712,95.712,0,0,1-10.846,40.245l-2.52,4.791A5.388,5.388,0,0,1,152.594,142.7Zm-13.652-20.174a6.243,6.243,0,0,1,4.477,1.872l1.52,1.541c2.022,2.048,3.639,5.777,4.938,8.772.285.657.551,1.278.8,1.826.017.036.032.073.046.111l.438,1.141a1.514,1.514,0,0,0,2.757.158l2.512-4.793a92.365,92.365,0,0,0,10.4-38.588l.17-3.9a13.863,13.863,0,0,0-3.409-9.749l-.066-.079a11.609,11.609,0,0,0-13.948-2.773l-4.364,3.1a10.835,10.835,0,0,1-12.544,0l-4.365-3.1a11.607,11.607,0,0,0-13.947,2.773,13.847,13.847,0,0,0-3.4,9.9l.253,4.623a91.225,91.225,0,0,0,9.783,36.485l3.018,5.951a1.514,1.514,0,0,0,2.763-.142l.388-1.011a1.121,1.121,0,0,1,.046-.111c.25-.551.519-1.169.8-1.826,1.3-2.993,2.914-6.723,4.938-8.772l1.52-1.541A6.243,6.243,0,0,1,138.942,122.524Z" transform="translate(0)" fill="#3cb994" stroke="#3cb994" stroke-width="1"></path>
  </g>
</svg>
