<?xml version="1.0" encoding="UTF-8"?>
<svg xmlns="http://www.w3.org/2000/svg" width="70.034" height="67.051" viewBox="0 0 70.034 67.051">
  <g id="男性" transform="translate(-80.313 -102.4)">
    <path id="路径_423" d="M391.6,408.2c-7.953,22.4-27.343,25.471-38.177,29.3,3.01,2.766,14.072,7.429,18.16,7.423,9.023,0,22.535-9.264,22.535-18.293C394.123,422,395.035,411.3,391.6,408.2Z" transform="translate(-260.826 -280.124)" fill="#c9f4eb"></path>
    <path id="路径_419" d="M145.957,102.4H129.574v5.61h11.193l-11.151,11.133a29.179,29.179,0,1,0,3.678,4.25l11.451-11.43v9.858h5.6V106.8A4.4,4.4,0,0,0,145.957,102.4Zm-36.4,61.38a23.54,23.54,0,1,1,23.509-23.54,23.54,23.54,0,0,1-23.509,23.54Z" transform="translate(0 0)" fill="#3cb994"></path>
    <path id="路径_420" d="M202.457,337.662h-5.609a20.6,20.6,0,0,1,20.567-20.581v5.613a14.979,14.979,0,0,0-14.958,14.968Z" transform="translate(-107.064 -197.234)" fill="#f79c42"></path>
  </g>
</svg>
