<?xml version="1.0" encoding="UTF-8"?>
<svg xmlns="http://www.w3.org/2000/svg" width="81.825" height="75.638" viewBox="0 0 81.825 75.638">
  <g id="男科" transform="translate(-81.92 -92.137)">
    <path id="路径_412" d="M14,4.711c4.469,3.409,5.408,4.678,8.549,8.453a123.667,123.667,0,0,1,7.36,10.512l3.038-3.1-1.44-9.762L27.982-6.016,19.8-6.567,5.115-7.985-1.23-.293S9.536,1.3,14,4.711Z" transform="matrix(-0.574, 0.819, -0.819, -0.574, 156.498, 111.738)" fill="#c9f4eb"></path>
    <path id="路径_410" d="M546.288,267.615l-5.052-2.788c2.923-5.323,10.3-10.384,10.613-10.6l3.242,4.784-1.621-2.39,1.622,2.39c-1.814,1.238-6.934,5.2-8.8,8.6Z" transform="translate(-417.43 -147.31)" fill="#f79c42"></path>
    <path id="路径_411" d="M155.073,93.96c-5.786-3.806-13.524-.931-20.323,2.066l-.14.067c-16.936,8.588-21.018,20.222-21.183,20.713l-.034.107a9.13,9.13,0,0,0,.882,7.247,9.931,9.931,0,0,0,6.305,4.65l.057.013a15.361,15.361,0,0,1,4.932,2.068c-.518,1.768-1.627,4.291-3.166,4.985-.929.418-2.2.143-3.771-.819-7.448-4.553-20.562-8.111-25.007-3.566-.88.9-2.645,3.432-.036,7.484,2.192,3.4,7.629,7.166,13.385,11.15,3.4,2.353,6.916,4.786,9.5,6.991,2.983,2.547,3.521,3.782,3.618,4.13l-.03.027c-2.129,1.895-8-.3-13.177-2.229-8.529-3.185-19.147-7.148-24.964,1.762l4.842,3.161c3.06-4.686,9.154-2.848,18.1.492,4.4,1.641,8.885,3.315,12.789,3.315a9.032,9.032,0,0,0,6.256-2.185A5.529,5.529,0,0,0,125.886,161c-.287-4.693-6.091-9.035-15.617-15.628-4.8-3.324-10.246-7.092-11.812-9.525a5.064,5.064,0,0,1-.275-.479c2.352-.688,10.51.386,17.44,4.622,4.113,2.514,7.252,2.017,9.162,1.158,2.868-1.291,4.583-4.068,5.57-6.433.794.758,1.528,1.509,2.2,2.2a23.746,23.746,0,0,0,3.368,3.082l.064.041a10.4,10.4,0,0,0,5.569,1.7A9.76,9.76,0,0,0,145,141.1c8.94-3.357,13.846-19,14.376-20.777,2.778-9.3,1.7-22.414-4.3-26.361Zm-1.242,24.7c-2.165,7.242-6.593,15.413-10.868,17.018a4.128,4.128,0,0,1-3.862-.52,24.555,24.555,0,0,1-2.413-2.295c-3.219-3.292-8.082-8.264-14.821-9.7a4.185,4.185,0,0,1-2.6-1.925,3.362,3.362,0,0,1-.351-2.626c.295-.768,4.155-10.169,18.235-17.334,5.778-2.542,11.553-4.59,14.74-2.495,2.588,1.705,4.587,11.005,1.935,19.875Z" fill="#3cb994"></path>
  </g>
</svg>
