<?xml version="1.0" encoding="UTF-8"?>
<svg xmlns="http://www.w3.org/2000/svg" width="67.538" height="66.334" viewBox="0 0 67.538 66.334">
  <g id="病房" transform="translate(0 0)">
    <path id="路径_163" d="M544.725,1383.243c7.088-4.4,8.324-4.775,18.729-13.43S575.42,1353.4,575.42,1353.4v35.813h-42.4A63.758,63.758,0,0,0,544.725,1383.243Z" transform="translate(-510.882 -1326.448)" fill="#c9f4eb"></path>
    <path id="路径_161" d="M146.7,104.156l-28.214-16.4a5.575,5.575,0,0,0-5.59,0l-28.215,16.4a5.571,5.571,0,0,0-2.741,5.257L85.2,148.26a5.586,5.586,0,0,0,5.536,5.083h49.9a5.588,5.588,0,0,0,5.537-5.083l3.263-38.847a5.572,5.572,0,0,0-2.742-5.257Zm-40.372,43.988V127.213a.349.349,0,0,1,.349-.348H124.3a.349.349,0,0,1,.348.348v20.934H106.326Zm34.662-.319a.351.351,0,0,1-.347.319H129.86V127.213a5.557,5.557,0,0,0-5.556-5.548H106.675a5.557,5.557,0,0,0-5.556,5.546v20.935H90.737a.351.351,0,0,1-.347-.319l-3.263-38.848a.35.35,0,0,1,.172-.33l28.215-16.4a.35.35,0,0,1,.351,0l28.214,16.4a.35.35,0,0,1,.172.33Z" transform="translate(-81.92 -87.009)" fill="#3cb994"></path>
    <path id="路径_162" d="M418.651,257.361h-6.013v-6h-5.219v6h-6.011v5.207h6.011v6h5.219v-6h6.013Z" transform="translate(-376.323 -238.456)" fill="#f79c42"></path>
  </g>
</svg>
