<?xml version="1.0" encoding="UTF-8"?>
<svg xmlns="http://www.w3.org/2000/svg" width="69.954" height="69.954" viewBox="0 0 69.954 69.954">
  <g id="病毒" transform="translate(-81.92 -81.92)">
    <path id="路径_403" d="M386.357,413.958c-2.9,15.325-15.633,25.467-27.754,29.745,3.368,3.1,10.147,3.989,14.722,3.982,10.1,0,18.463-9.533,19.669-17.2S390.132,417.358,386.357,413.958Z" transform="translate(-253.091 -309.934)" fill="#c9f4eb"></path>
    <path id="路径_401" d="M146.447,112.567v1.617h-3.986a25.566,25.566,0,0,0-5.538-13.475l2.79-2.79,1.143,1.143,3.838-3.837L138.568,89.1,134.73,92.94l1.143,1.143L133.1,96.858a25.575,25.575,0,0,0-13.488-5.626V87.347h1.617V81.92h-8.661v5.427h1.616v3.884A25.575,25.575,0,0,0,100.7,96.858l-2.774-2.774,1.143-1.143L95.226,89.1,89.1,95.227l3.838,3.837,1.143-1.143,2.79,2.79a25.569,25.569,0,0,0-5.538,13.475H87.347v-1.619H81.92v8.661h5.427v-1.616h4.014a25.575,25.575,0,0,0,5.611,13.373l-.007.007-2.882,2.882-1.143-1.143L89.1,138.567l6.123,6.124,3.838-3.837-1.143-1.143,2.882-2.883-.007-.007.019-.02a25.567,25.567,0,0,0,13.368,5.522v4.124h-1.617v5.427h8.661v-5.427h-1.617v-4.124a25.566,25.566,0,0,0,13.359-5.514l.021.02,2.883,2.883-1.143,1.143,3.838,3.837,6.124-6.124-3.838-3.837-1.143,1.143-2.882-2.882-.062.062a25.579,25.579,0,0,0,5.666-13.442h4.014v1.616h5.427v-8.661ZM116.9,137.05a20.267,20.267,0,1,1,20.267-20.267A20.267,20.267,0,0,1,116.9,137.05Z" fill="#3cb994"></path>
    <path id="路径_402" d="M339.276,317.884a9.864,9.864,0,1,1,9.864-9.864A9.864,9.864,0,0,1,339.276,317.884Zm0-14.292a4.429,4.429,0,1,0,4.429,4.429A4.429,4.429,0,0,0,339.276,303.592Zm-3.6,29.477a7.062,7.062,0,1,1,7.063-7.062A7.061,7.061,0,0,1,335.672,333.069Zm0-8.688a1.627,1.627,0,1,0,1.627,1.627A1.627,1.627,0,0,0,335.672,324.381Zm15.969,4.545a7.061,7.061,0,1,1,7.062-7.061,7.061,7.061,0,0,1-7.062,7.061Zm0-8.688a1.627,1.627,0,1,0,1.626,1.627A1.627,1.627,0,0,0,351.641,320.238Z" transform="translate(-226.629 -198.651)" fill="#f79c42"></path>
  </g>
</svg>
