<?xml version="1.0" encoding="UTF-8"?>
<svg xmlns="http://www.w3.org/2000/svg" width="74.724" height="72.18" viewBox="0 0 74.724 72.18">
  <g id="癌细胞" transform="translate(-81.934 -81.92)">
    <path id="路径_455" d="M403.1,425.669c-18.693,18.963-39.779,8.871-47.693,7.626,0,11.921,8.578,12.153,12.666,12.147,5.254.68,10.019-.227,14.872,1.164,7.421-.688,5.912-6.873,18.455-8.785C403.293,434.925,404.739,432.755,403.1,425.669Z" transform="translate(-385.053 -126.867) rotate(-22)" fill="#c9f4eb"></path>
    <path id="路径_453" d="M118.239,154.1c-3.2,0-5.3-2.491-7.153-4.689-.808-.958-2.028-2.407-2.67-2.6-.727-.225-2.6.256-3.974.605-2.8.717-5.974,1.529-8.477-.206-2.524-1.75-2.69-4.894-2.837-7.668-.071-1.34-.168-3.17-.6-3.736-.418-.546-2.2-1.19-3.5-1.661-2.746-.994-5.858-2.118-6.832-4.978-.943-2.766.833-5.367,2.4-7.661.787-1.151,1.865-2.728,1.865-3.494s-1.078-2.342-1.865-3.493c-1.567-2.294-3.343-4.893-2.4-7.661.975-2.859,4.087-3.984,6.832-4.977,1.3-.471,3.081-1.115,3.5-1.661.432-.567.53-2.4.6-3.737.147-2.774.313-5.918,2.836-7.667,2.5-1.735,5.677-.924,8.478-.207,1.371.351,3.249.831,3.974.605.641-.2,1.862-1.647,2.669-2.6,1.853-2.194,3.955-4.685,7.153-4.685s5.3,2.491,7.153,4.689c.808.958,2.029,2.407,2.67,2.6.724.226,2.6-.255,3.973-.605,2.8-.717,5.975-1.529,8.478.206,2.523,1.749,2.69,4.894,2.836,7.668.071,1.34.168,3.17.6,3.736.418.547,2.2,1.191,3.5,1.661,2.745.994,5.857,2.118,6.832,4.977.943,2.768-.833,5.368-2.4,7.661-.787,1.151-1.864,2.728-1.864,3.494s1.077,2.342,1.864,3.494c1.567,2.293,3.343,4.893,2.4,7.661-.975,2.859-4.086,3.984-6.831,4.977-1.3.47-3.081,1.115-3.5,1.661-.432.567-.53,2.4-.6,3.737-.147,2.774-.313,5.918-2.835,7.667-2.5,1.736-5.678.924-8.478.207-1.371-.351-3.249-.832-3.974-.605-.642.2-1.862,1.646-2.67,2.6C123.539,151.609,121.44,154.1,118.239,154.1Zm-10.317-12.481a7.255,7.255,0,0,1,2.161.306c2.171.672,3.714,2.5,5.207,4.273.758.9,2.334,2.77,2.952,2.77s2.194-1.871,2.952-2.77c1.492-1.772,3.035-3.6,5.207-4.273,2.244-.692,4.68-.071,7.036.531,1.18.3,3.378.864,3.918.6.437-.384.558-2.671.616-3.77.123-2.309.249-4.7,1.626-6.5,1.362-1.783,3.691-2.626,5.944-3.44,1.1-.4,3.4-1.232,3.619-1.764.07-.551-1.141-2.323-1.792-3.275-1.345-1.969-2.736-4-2.736-6.293s1.391-4.325,2.736-6.293c.651-.951,1.862-2.723,1.786-3.3-.21-.511-2.509-1.343-3.614-1.742-2.252-.815-4.581-1.657-5.943-3.44-1.377-1.8-1.5-4.189-1.625-6.5-.057-1.1-.179-3.387-.629-3.779-.526-.259-2.723.3-3.905.605-2.355.605-4.79,1.226-7.035.532-2.172-.672-3.717-2.5-5.207-4.273-.758-.9-2.334-2.77-2.952-2.77s-2.194,1.871-2.952,2.77c-1.492,1.772-3.036,3.6-5.207,4.273-2.245.695-4.682.071-7.036-.532-1.18-.3-3.378-.864-3.918-.6-.437.384-.558,2.671-.616,3.77-.123,2.309-.249,4.7-1.626,6.5-1.362,1.783-3.691,2.625-5.943,3.44-1.106.4-3.405,1.232-3.62,1.764-.07.551,1.141,2.323,1.791,3.275,1.345,1.968,2.737,4,2.737,6.293s-1.391,4.325-2.736,6.293c-.651.951-1.862,2.723-1.786,3.3.208.511,2.507,1.343,3.615,1.743,2.252.814,4.581,1.657,5.943,3.44,1.377,1.8,1.5,4.189,1.626,6.5.058,1.1.179,3.387.629,3.779.528.259,2.723-.3,3.905-.605a20.173,20.173,0,0,1,4.875-.838Z" transform="translate(0 0)" fill="#3cb994"></path>
    <path id="路径_454" d="M276.568,278.885a12.225,12.225,0,0,1-7.525-2.559,11.127,11.127,0,0,1-4.326-7.65,10.9,10.9,0,0,1,2.629-8.317,12.041,12.041,0,0,1,8.044-4.114,12.275,12.275,0,0,1,8.747,2.5,11.129,11.129,0,0,1,4.326,7.65c.661,6.224-4.126,11.8-10.673,12.432Q277.176,278.885,276.568,278.885Zm.027-17.575q-.329,0-.663.032a6.6,6.6,0,0,0-4.41,2.259,5.975,5.975,0,0,0-1.441,4.561,6.1,6.1,0,0,0,2.372,4.192,6.723,6.723,0,0,0,4.8,1.371,6.32,6.32,0,0,0,5.853-6.817,6.446,6.446,0,0,0-6.507-5.6Zm18.768,31.079a8.89,8.89,0,1,1,9.336-8.878,9.126,9.126,0,0,1-9.336,8.878Zm0-12.631a3.757,3.757,0,1,0,3.946,3.752,3.857,3.857,0,0,0-3.946-3.75Zm-25.5,14.732a9.408,9.408,0,0,1-8.541-5.237,8.438,8.438,0,0,1-.22-6.8,9.033,9.033,0,0,1,4.9-4.96l2.215,4.674a3.83,3.83,0,0,0-2.078,2.1,3.575,3.575,0,0,0,.094,2.883,4.053,4.053,0,0,0,5.244,1.887,3.83,3.83,0,0,0,2.077-2.1,3.573,3.573,0,0,0-.094-2.883l4.915-2.107a8.438,8.438,0,0,1,.22,6.8,9.039,9.039,0,0,1-4.9,4.96,9.718,9.718,0,0,1-3.831.785Z" transform="translate(-163.483 -159.551)" fill="#f79c42"></path>
  </g>
</svg>
