<?xml version="1.0" encoding="UTF-8"?>
<svg xmlns="http://www.w3.org/2000/svg" width="76" height="61.959" viewBox="0 0 76 61.959">
  <g id="眼科" transform="translate(-69.019 -150.28)">
    <path id="路径_359" d="M385.437,415.05A38.682,38.682,0,0,1,360.83,442.1a18.286,18.286,0,1,0,24.607-27.055Z" transform="translate(-266.78 -242.058)" fill="#c9f4eb"></path>
    <path id="路径_360" d="M294.232,374.48a20.431,20.431,0,1,1,14.447-5.984A20.431,20.431,0,0,1,294.232,374.48Zm0-36.573a16.142,16.142,0,1,0,16.142,16.142A16.161,16.161,0,0,0,294.232,337.907Z" transform="translate(-187.215 -167.609)" fill="#3cb994"></path>
    <path id="路径_361" d="M461.718,525.436a4.718,4.718,0,1,1,4.718-4.718A4.718,4.718,0,0,1,461.718,525.436Zm0-5.147a.429.429,0,1,0,.429.429A.429.429,0,0,0,461.718,520.289Z" transform="translate(-354.7 -334.349)" fill="#ffa143"></path>
    <path id="路径_362" d="M340.136,162.763a2.144,2.144,0,0,1-2.144-2.145v-8.194a2.144,2.144,0,1,1,4.289,0v8.194a2.144,2.144,0,0,1-2.145,2.144Zm10.162,2.23a2.145,2.145,0,0,1-1.736-3.4l5.318-7.36a2.144,2.144,0,1,1,3.476,2.512l-5.319,7.36A2.139,2.139,0,0,1,350.3,164.993Zm-20.325,0a2.139,2.139,0,0,1-1.74-.889l-5.318-7.36a2.144,2.144,0,1,1,3.476-2.512l5.318,7.36a2.144,2.144,0,0,1-1.736,3.4Z" transform="translate(-231.746)" fill="#3cb994"></path>
    <path id="路径_363" d="M106.355,321.167A31.2,31.2,0,0,1,83.873,311.6L69.618,296.784a2.145,2.145,0,0,1,0-2.973l14.257-14.817a31.2,31.2,0,0,1,44.009-.95l16.47,15.7a2.144,2.144,0,0,1,0,3.105l-16.47,15.7a31.209,31.209,0,0,1-21.531,8.617ZM74.137,295.3l12.827,13.329a26.911,26.911,0,0,0,37.959.819L139.766,295.3l-14.84-14.149a26.912,26.912,0,0,0-37.959.819Z" transform="translate(0 -108.928)" fill="#3cb994"></path>
  </g>
</svg>
