<?xml version="1.0" encoding="UTF-8"?>
<svg xmlns="http://www.w3.org/2000/svg" width="61.597" height="65.118" viewBox="0 0 61.597 65.118">
  <g id="神经科" transform="translate(0 0)">
    <path id="路径_379" d="M382.822,415.05a34.572,34.572,0,0,1-21.992,24.18,16.343,16.343,0,1,0,21.992-24.18Z" transform="translate(-335.865 -399.565)" fill="#c9f4eb"></path>
    <path id="路径_377" d="M511.641,568.259a14.148,14.148,0,1,1-14.105,14.148A14.149,14.149,0,0,1,511.641,568.259Zm0,23.561a9.412,9.412,0,1,0-9.383-9.412A9.412,9.412,0,0,0,511.641,591.821Z" transform="translate(-494.083 -568.259)" fill="#f79c42"></path>
    <path id="路径_378" d="M113.766,145.689a10.463,10.463,0,0,0,8.589-16.4l6.535-6.575a17.452,17.452,0,0,0,19.619,1.977l2.232,3.6a8.306,8.306,0,1,0,4.172-2.237l-2.592-4.177a17.577,17.577,0,0,0,.28-24.968l4.531-5.036a5.011,5.011,0,0,0,1.324.183,5.078,5.078,0,1,0-4.77-3.419l-4.838,5.377a17.373,17.373,0,0,0-11.069-2.174l.636,4.69a12.84,12.84,0,1,1-10.96,14.455l-4.677.638a17.5,17.5,0,0,0,2.931,7.587l-6.845,6.888a10.343,10.343,0,0,0-5.1-1.34,10.465,10.465,0,1,0,0,20.93Zm46.478-11.411a3.648,3.648,0,1,1-3.648-3.658A3.648,3.648,0,0,1,160.244,134.278Zm-1.788-47.611a.329.329,0,1,1-.328.329A.329.329,0,0,1,158.456,86.667Zm-44.691,42.828a5.73,5.73,0,1,1-5.713,5.729,5.73,5.73,0,0,1,5.713-5.729Z" transform="translate(-103.3 -80.572)" fill="#3cb994"></path>
  </g>
</svg>
