<?xml version="1.0" encoding="UTF-8"?>
<svg xmlns="http://www.w3.org/2000/svg" width="59.818" height="59.674" viewBox="0 0 59.818 59.674">
  <g id="科室" transform="translate(-73.74 -76.3)">
    <path id="路径_355" d="M534.793,1299.839s11.672-3.2,18.755-5.976a142.148,142.148,0,0,0,14.746-7.054v6.626h.312l.54,10.065H527.806Z" transform="translate(-444.114 -1168.025)" fill="#c9f4eb"></path>
    <path id="路径_350" d="M198.468,380.834v13.806H157.051V380.834c-2.122-.017-1.07.013-3.451,0v13.806a3.462,3.462,0,0,0,3.451,3.451h41.417a3.462,3.462,0,0,0,3.451-3.451V380.834C199.76,380.824,200.873,380.824,198.468,380.834ZM193.291,358.4H162.228a1.726,1.726,0,0,0,0,3.451h31.062a1.726,1.726,0,0,0,0-3.451Z" transform="translate(-74.01 -262.617)" fill="#3cb994" stroke="#3cb994" stroke-width="1"></path>
    <path id="路径_351" d="M132.913,102.685l-6.385-24.677A1.714,1.714,0,0,0,124.8,76.8H82.523A1.714,1.714,0,0,0,80.8,78.008l-6.385,24.677a5.871,5.871,0,0,0-.173,1.726,10.355,10.355,0,0,0,19.845,4.142,10.357,10.357,0,0,0,18.983,0,10.355,10.355,0,0,0,19.845-4.142A2.941,2.941,0,0,0,132.913,102.685Zm-10.182,8.628a6.965,6.965,0,0,1-6.385-4.142,3.365,3.365,0,0,0-6.212,0,6.79,6.79,0,0,1-6.385,4.142,6.965,6.965,0,0,1-6.385-4.142,3.365,3.365,0,0,0-6.212,0,6.79,6.79,0,0,1-6.385,4.142,6.923,6.923,0,0,1-6.9-6.9v-1.035L83.9,80.251h39.518l6.04,23.124v1.035A6.671,6.671,0,0,1,122.732,111.314Z" transform="translate(0 0)" fill="#3cb994" stroke="#3cb994" stroke-width="1"></path>
    <path id="路径_352" d="M384.94,474.829h-4.919v-4.721h-4.58v4.721h-4.769v4.6h4.769v4.648h4.58v-4.648h4.919v-4.6Z" transform="translate(-274.165 -353.852)" fill="#f79c42"></path>
  </g>
</svg>
