<?xml version="1.0" encoding="UTF-8"?>
<svg xmlns="http://www.w3.org/2000/svg" width="67.192" height="73.562" viewBox="0 0 67.192 73.562">
  <g id="糖尿病足护理" transform="translate(-30.783)">
    <path id="路径_506" d="M378.859,421.11c-11.442,13.125-12.406,11.858-21.56,15.089,2.544,2.338,4.555,12.339,8.01,12.334,8.649-11.731,10.536-14.974,14.4-22.217C379.713,422.409,381.762,423.725,378.859,421.11Z" transform="matrix(0.545, -0.839, 0.839, 0.545, -490.147, 128.93)" fill="#c9f4eb"></path>
    <path id="路径_505" d="M601.279,613.486l-.923-4.988c9.784-1.813,12.232-8.867,12.33-9.166l4.828,1.542C617.384,601.29,614.16,611.1,601.279,613.486Z" transform="matrix(-0.035, 0.999, -0.999, -0.035, 682.09, -551.656)" fill="#f79c42"></path>
    <path id="路径_500" d="M240.634,863.58a6.549,6.549,0,0,1-4.358,4.358,6.549,6.549,0,0,1,4.358,4.358,6.549,6.549,0,0,1,4.358-4.358A6.549,6.549,0,0,1,240.634,863.58Z" transform="translate(-191.146 -803.288)" fill="#3cb994"></path>
    <path id="路径_501" d="M37.683,660.688a10.135,10.135,0,0,1-6.9,6.9,9.806,9.806,0,0,1,6.9,6.9,10.135,10.135,0,0,1,6.9-6.9,10.135,10.135,0,0,1-6.9-6.9Z" transform="translate(0 -614.561)" fill="#3cb994"></path>
    <path id="路径_502" d="M717.063,0a14.545,14.545,0,0,1-9.988,9.988,14.545,14.545,0,0,1,9.988,9.988,14.545,14.545,0,0,1,9.988-9.988A14.545,14.545,0,0,1,717.063,0Z" transform="translate(-629.076)" fill="#3cb994"></path>
    <path id="路径_503" d="M175.462,88.188c-2.542-.726-4.9-3.632-6.174-7.627l-17.252-49.4a.861.861,0,1,0-1.634.545l17.071,49.4c.726,2.179,2.906,7.446,7.446,8.717A3.687,3.687,0,0,1,177.1,92a2.378,2.378,0,0,1-.726,2.361c-1.816,1.816-5.811,2.179-9.443,1.09-3.812-1.271-7.446-6.174-10.353-10.17-.909-1.271-1.816-2.361-2.542-3.45-3.269-4-6.538-6.9-9.988-8.354a26.828,26.828,0,0,1-7.264-4.9A11.18,11.18,0,0,1,139.5,50.6a.78.78,0,0,0,.363-1.271l-8.534-18.16a.935.935,0,0,0-1.634.908l8.172,17.434a12.927,12.927,0,0,0-6.356,9.262,13.5,13.5,0,0,0,3.812,11.259,26.854,26.854,0,0,0,7.809,5.266c3.269,1.453,6.356,4,9.443,7.991.726.909,1.634,2.179,2.542,3.45,3.269,4.54,6.9,9.443,11.441,10.9a13.2,13.2,0,0,0,4.54.726c2.724,0,5.266-.726,6.719-2.179a4.2,4.2,0,0,0,1.271-4,5.779,5.779,0,0,0-3.63-4Z" transform="translate(-91.834 -28.441)" fill="#0ed591"></path>
    <path id="路径_504" d="M150.058,78.646a14.944,14.944,0,0,1-5.093-.826c-5.094-1.628-9.015-7.074-12.166-11.45-.894-1.252-1.784-2.5-2.494-3.387-2.857-3.7-5.748-6.156-8.853-7.536a28.389,28.389,0,0,1-8.283-5.592,15.123,15.123,0,0,1-4.261-12.576,14.5,14.5,0,0,1,5.911-9.632L106.341,9.384c5.454.008-.034-.026,5.441,0l8.465,17.991a2.3,2.3,0,0,1,.215,1.978,2.345,2.345,0,0,1-1.5,1.456,9.631,9.631,0,0,0-2.109,15.372,25.128,25.128,0,0,0,6.855,4.608c3.386,1.422,6.852,4.3,10.5,8.765.487.716.938,1.308,1.414,1.932q.608.791,1.191,1.6c2.443,3.358,6.146,8.45,9.568,9.591a12.838,12.838,0,0,0,3.607.532,6.218,6.218,0,0,0,4.225-1.242.842.842,0,0,0,.3-.939,2.356,2.356,0,0,0-1.134-.995c-5.172-1.446-7.628-7.275-8.441-9.712L127.081,9.384c5.42-.019.068.015,5.4,0l17.245,49.374c1.105,3.471,3.11,6.058,5.121,6.633a7.332,7.332,0,0,1,4.693,5.011,5.749,5.749,0,0,1-1.652,5.606c-1.678,1.678-4.532,2.639-7.832,2.639Z" transform="translate(-70.788 -7.158)" fill="#3cb994" stroke="#3cb994" stroke-width="0.8"></path>
  </g>
</svg>
