<?xml version="1.0" encoding="UTF-8"?>
<svg xmlns="http://www.w3.org/2000/svg" width="43.537" height="62.196" viewBox="0 0 43.537 62.196">
  <g id="耳科" transform="translate(-209.91 -81.926)">
    <path id="路径_356" d="M20.552,5.247C26.078,7.9,23.2,6.488,29.737,10a90.359,90.359,0,0,1,10.752,6.7V10.065H40.8L38.978,2.209,19.735-.311,9.747-1.268A79.478,79.478,0,0,0,20.552,5.247Z" transform="matrix(-0.454, 0.891, -0.891, -0.454, 246.741, 107.193)" fill="#c9f4eb"></path>
    <path id="路径_353" d="M296.675,216.873a11.829,11.829,0,0,0-10.519-3.765,8,8,0,0,1,6.636-2.737c6.821.335,7.317,7.6,7.35,8.427l4.459-.158c-.139-4.22-2.741-12.316-11.591-12.75a12.5,12.5,0,0,0-12.17,7.32,10.844,10.844,0,0,0,2.056,12.228l.964.988,1.311-.423a1.847,1.847,0,0,1,1.374-.066.446.446,0,0,1,.065.24.949.949,0,0,1-.233.777,1.576,1.576,0,0,1-1.236.333l-.3,4.477q.252.017.5.017a5.8,5.8,0,0,0,4.217-1.673,5.4,5.4,0,0,0,1.5-4.291,4.683,4.683,0,0,0-2.032-3.606,5.508,5.508,0,0,0-3.68-.808,6.1,6.1,0,0,1-1.059-3.044,7.428,7.428,0,0,1,9.146,1.6c.87,1.015,4.491,5.74.832,10.261a9.3,9.3,0,0,1-4.439,2.942c-.445.143-.811.242-1.235.357l-.118.031a7.61,7.61,0,0,0-5.6,5.519c-.059.171-.12.366-.185.582-.618,2.031-.959,2.208-2.04,2.028a2.564,2.564,0,0,1-2.11-1.824,1.694,1.694,0,0,1,.863-1.806l-2.58-3.659a6.126,6.126,0,0,0-2.631,6.472,7.044,7.044,0,0,0,5.73,5.243,7.657,7.657,0,0,0,1.263.11c4.176,0,5.36-3.893,5.773-5.251.05-.163.094-.312.139-.439l.026-.08a3.214,3.214,0,0,1,2.52-2.564l.115-.032q.717-.189,1.424-.413a13.743,13.743,0,0,0,6.549-4.386c4.635-5.726,2.373-12.246-.972-16.089Z" transform="translate(-59.54 -115.091)" fill="#f79c42"></path>
    <path id="路径_354" d="M222.989,143.024A16.472,16.472,0,0,1,221,142.9c-10-1.222-10.761-9.6-11.086-13.171l4.44-.447c.417,4.606,1.242,8.443,7.183,9.168,5.9.721,8.035-2.81,10.613-8.281l.213-.45c1.977-5.111,6.081-9.276,9.7-12.951,1.424-1.445,2.77-2.811,3.768-4.034,2.512-2.961,3.633-7.689,2.953-12.373a15.556,15.556,0,0,0-6.528-10.937c-4.653-2.777-9.158-3.637-13.387-2.555-7.394,1.889-11.658,9-11.7,9.07l-3.839-2.286c.211-.357,5.271-8.784,14.439-11.127,5.433-1.39,11.088-.355,16.81,3.071l.071.045A20.032,20.032,0,0,1,253.2,99.711c.874,6.013-.6,11.955-3.945,15.9-1.1,1.351-2.521,2.789-4.02,4.311-3.333,3.383-7.112,7.217-8.741,11.488l-.069.161-.246.518c-2.084,4.422-5.156,10.939-13.191,10.939Z" fill="#3cb994"></path>
  </g>
</svg>
