<?xml version="1.0" encoding="UTF-8"?>
<svg xmlns="http://www.w3.org/2000/svg" width="87.687" height="61.564" viewBox="0 0 87.687 61.564">
  <g id="肝脏" transform="translate(-69.164 -174.083)">
    <path id="路径_439" d="M359.534,416.568c23.833,22.143,31.435,18.946,38.374,20.454-3.01,2.766-13.892,16.8-17.98,16.794-5.185-7.464-16.675-20.313-16.675-29.342C363.248,419.851,360.921,421.552,359.534,416.568Z" transform="matrix(0.914, 0.407, -0.407, 0.914, -74.703, -340.779)" fill="#c9f4eb"></path>
    <path id="路径_437" d="M265.6,420.111a18.117,18.117,0,0,0,6.6-12.277l-5.461-.473a12.42,12.42,0,0,1-6.474,9.714c-4.506-.052-7.406-7.965-8.078-10.8l-2.667.63-2.669.625a29.436,29.436,0,0,0,5.045,10.614A12.263,12.263,0,0,1,240.5,412l-2.428,1.275-2.436,1.26c2.259,4.388,9.654,11.749,21.425,8.214a5.448,5.448,0,0,1,4.21.915c2.256,1.57,3.646,4.877,4.016,9.565l5.464-.435c-.453-5.736-2.185-9.987-5.148-12.678Z" transform="translate(-140.346 -211.955)" fill="#f79c42"></path>
    <path id="路径_438" d="M156.563,177.9c-1.146-2.554-4.39-3-13.831-1.867-1.326-.125-2.93-.44-4.623-.774-5.979-1.177-13.976-2.751-19.42,2.487-9.708-4.057-27.308-7.047-35.414,6.755l-.131.223-.089.244c-1.428,3.986-.865,10.643-.268,17.692.485,5.736.986,11.667.194,14.752-1.885,7.339-1.326,12.1,1.661,14.152a5.577,5.577,0,0,0,3.233.97c3.12,0,6.559-2.132,9.169-4.008a14.921,14.921,0,0,1,5.378-1.744,17.125,17.125,0,0,0,6.632-2.295l.721-.452a34.684,34.684,0,0,0,8.574-6.9l-4.178-3.564a29.619,29.619,0,0,1-7.289,5.79l-.747.468a11.957,11.957,0,0,1-4.688,1.537,20.048,20.048,0,0,0-7.285,2.476l-.212.139c-4.35,3.144-5.976,3.065-6.218,3.028-.279-.387-.878-2.64.556-8.219,1.026-3.991.507-10.112-.04-16.593-.483-5.711-1.029-12.164-.11-15.133,7.224-11.84,24.178-5.946,28.858-4.027a79.528,79.528,0,0,1,1.229,16l5.48.159a84.119,84.119,0,0,0-1.347-17.328c3.154-3.152,8.14-2.491,14.7-1.2a49.236,49.236,0,0,0,5.517.882l.268.021.268-.033c2.974-.362,5.031-.51,6.442-.552-.659,1.194-1.375,2.752-2.357,4.891-.532,1.16-1.151,2.506-1.888,4.078-6.547,11.441-11.595,13.525-14.824,14.095l.949,5.423c6.874-1.214,12.812-6.577,18.687-16.876l.1-.194c.767-1.632,1.407-3.026,1.956-4.221,1.491-3.246,2.391-5.206,3.054-5.8,2.157-1.925,1.653-3.771,1.336-4.476Z" fill="#3cb994"></path>
  </g>
</svg>
