<?xml version="1.0" encoding="UTF-8"?>
<svg xmlns="http://www.w3.org/2000/svg" width="73.378" height="68.408" viewBox="0 0 73.378 68.408">
  <g id="肠道" transform="translate(-81.92 -107.556)">
    <path id="路径_452" d="M391.724,431.571c-2.768,10.367-29.063,1.68-36.978.435,8.89,8.717,8.073,8.14,15.185,11.322,19.83.785,16.1,4.949,23.313-2.683C397.324,436.791,395.028,437.6,391.724,431.571Z" transform="translate(-378.098 -113.003) rotate(-22)" fill="#c9f4eb"></path>
    <path id="路径_449" d="M217.217,571.663h-5.182v-6.115h-5.548c-8.27,0-15-5.8-15-12.922s6.729-12.922,15-12.922H236.4v5.1H206.487c-5.412,0-9.815,3.557-9.815,7.824s4.4,7.738,9.815,7.738h6.1a4.471,4.471,0,0,1,4.626,4.285v7.014Z" transform="translate(-100.361 -395.7)" fill="#f79c42"></path>
    <path id="路径_450" d="M125.017,138.342h-26.8V134h26.8c5.413,0,9.815-3.485,9.815-7.765s-4.4-7.765-9.815-7.765h-4.449a4.091,4.091,0,0,1-4.208-3.952v-6.961h5.183v5.711h3.474c8.27,0,15,5.818,15,12.968s-6.728,12.107-15,12.107Zm13.214,10.794H96.918c-8.27,0-15-5.818-15-12.968s6.728-12.968,15-12.968h11.144a11.659,11.659,0,0,1-1.692-1.91,8.977,8.977,0,0,1-1.623-5.189v-8.545h5.185V116.1a3.786,3.786,0,0,0,.677,2.192c1.286,1.833,5.1,4.907,16.221,4.907v5.2H96.918c-5.412,0-9.815,3.485-9.815,7.765s4.4,7.765,9.815,7.765h41.313v5.2Z" fill="#3cb994"></path>
    <path id="路径_451" d="M312.883,420.946H271.539v5.2h41.344c5.417,0,9.823,3.479,9.823,7.756s-4.406,7.756-9.823,7.756H279.32v5.2h8.511c9.537,0,10.267,5.525,10.319,6.231V462.9h5.188v-9.974a10.638,10.638,0,0,0-2.4-6.076h11.944c8.276,0,15.01-5.811,15.01-12.951s-6.735-12.955-15.011-12.955Z" transform="translate(-173.684 -287.054)" fill="#3cb994"></path>
  </g>
</svg>
