<?xml version="1.0" encoding="UTF-8"?>
<svg xmlns="http://www.w3.org/2000/svg" width="84.486" height="68.408" viewBox="0 0 84.486 68.408">
  <g id="肺" transform="translate(-92.193 -107.52)">
    <path id="路径_442" d="M393.567,415.124c-19.239,22.476-26.157,16.646-33.1,18.154,2.86,4.3,3.386,17.811,7.474,17.805,9.023,0,19.164-17.019,22.789-26.608C390.74,419.851,401.8,416.439,393.567,415.124Z" transform="translate(-421.024 91.867) rotate(-43)" fill="#c9f4eb"></path>
    <path id="路径_440" d="M318.4,134.568a36.879,36.879,0,0,1-5.051-4.605c-1.693-1.913-2.8-4.859-3.305-8.754l-.268-1.7a54.4,54.4,0,0,0-.279-9.7,19.634,19.634,0,0,1-.132-2.221v-.061h-5.2v.06a24.753,24.753,0,0,0,.167,2.817c.379,3.3,1.264,14.452-3.253,19.564a36.863,36.863,0,0,1-5.05,4.607c-4.323,3.442-8.057,6.415-7.124,17.068l5.179-.456c-.688-7.857,1.273-9.418,5.178-12.526a41.694,41.694,0,0,0,5.707-5.233,15.67,15.67,0,0,0,2.247-3.372,15.646,15.646,0,0,0,2.243,3.372,41.7,41.7,0,0,0,5.709,5.231c3.905,3.11,5.865,4.671,5.178,12.526l5.179.455c.93-10.65-2.8-13.623-7.126-17.066Z" transform="translate(-180.321)" fill="#f79c42"></path>
    <path id="路径_441" d="M99.065,240.032a4.844,4.844,0,0,1-1.276-.169c-2.523-.685-3.47-3.132-3.925-4.308l-.025-.064c-1.028-2.651-3.054-12.9-.131-28.3,3.467-16.857,14.874-27.338,21.78-28.438,3.179-.508,5.084.538,6.121,1.5,2.682,2.5,2.333,6.721,2.146,8.989l-5.191-.432c.09-1.082.327-3.958-.5-4.726a2.348,2.348,0,0,0-1.763-.173c-4.635.738-14.442,9.487-17.487,24.291-2.718,14.318-.789,23.668-.123,25.385l.025.066a7.581,7.581,0,0,0,.5,1.107,5.935,5.935,0,0,0,1.864-1.13l.139-.1a37.356,37.356,0,0,1,10.139-4.923c3.052-.875,7.071-3.292,6.682-5.241-1.1-5.528-1.163-9.282-.2-12.173l.04-.111c.005-.014.582-1.528,1.136-3.555l5.023,1.381c-.565,2.071-1.147,3.649-1.275,3.988-.832,2.567-.181,6.615.383,9.444,1.241,6.227-6.234,10.109-10.36,11.291a31.768,31.768,0,0,0-8.54,4.15A8.63,8.63,0,0,1,99.065,240.032Zm55.656,0a8.64,8.64,0,0,1-5.187-2.246,31.769,31.769,0,0,0-8.54-4.15c-4.126-1.183-11.6-5.065-10.358-11.292.564-2.829,1.214-6.877.381-9.444-.127-.339-.709-1.917-1.275-3.988l5.023-1.381c.554,2.027,1.131,3.541,1.136,3.555l.04.11c.963,2.891.9,6.644-.2,12.172-.389,1.947,3.63,4.366,6.682,5.241a37.348,37.348,0,0,1,10.14,4.925l.142.106a5.925,5.925,0,0,0,1.862,1.13,7.55,7.55,0,0,0,.5-1.107l.025-.066c.666-1.718,2.595-11.067-.131-25.425-3.038-14.766-12.845-23.515-17.477-24.253a2.34,2.34,0,0,0-1.762.173c-.825.768-.579,3.746-.5,4.726l-5.191.433c-.187-2.268-.537-6.491,2.146-8.989,1.037-.966,2.942-2.012,6.121-1.5,6.905,1.1,18.313,11.58,21.772,28.4,2.931,15.435.9,25.687-.123,28.337l-.025.063c-.455,1.176-1.4,3.624-3.926,4.308a4.843,4.843,0,0,1-1.276.168Z" transform="translate(0 -65.226)" fill="#3cb994"></path>
  </g>
</svg>
