<?xml version="1.0" encoding="UTF-8"?>
<svg xmlns="http://www.w3.org/2000/svg" width="89.735" height="63.746" viewBox="0 0 89.735 63.746">
  <g id="肾" transform="translate(-81.922 -184.303)">
    <path id="路径_445" d="M393.049,412.823c-17.77,24.688-30.845,23.347-37.784,24.856,2.86,4.3,8.779,11.853,12.867,11.847,9.023,0,21.694-12.9,25.319-22.487C394.637,422.092,396.353,418.851,393.049,412.823Z" transform="translate(-362.946 -41.256) rotate(-22)" fill="#c9f4eb"></path>
    <path id="路径_443" d="M406.1,412.567l-.111-2.839a16.163,16.163,0,0,0-12.51,8.117,19.727,19.727,0,0,0-3.3-3.859c-2.69-2.426-6.546-4.41-8.27-4.246l.555,5.656a2.47,2.47,0,0,1-.785-.042,14.284,14.284,0,0,1,9.271,13.67v23.089h5.713V429.025c0-12.707,8.6-13.563,9.578-13.618Z" transform="translate(-271.35 -204.065)" fill="#f79c42"></path>
    <path id="路径_444" d="M112.141,214.2a12.7,12.7,0,0,0,1.216-10.249,8.368,8.368,0,0,0,5.282-6.99,10.1,10.1,0,0,0-4.58-9.963,17.094,17.094,0,0,0-17.238-.7c-10.3,5.576-15.173,14.323-14.887,26.738.383,16.505,9.694,28.033,22.645,28.033,7.428,0,11.016-3.06,12.717-5.628,2.947-4.447,2.2-10.179.523-14.061a16.487,16.487,0,0,0-5.679-7.18Zm.376,18.114c-1.35,2.038-4.021,3.07-7.94,3.07-11.27,0-16.673-11.653-16.924-22.48-.24-10.362,3.432-17.029,11.9-21.614a11.469,11.469,0,0,1,11.239.376,4.447,4.447,0,0,1,2.183,4.488c-.212,1.473-.834,2.844-3.918,2.9a13.043,13.043,0,0,1-3.635-.493l-1.7,5.427a18.708,18.708,0,0,0,3.736.692c.676,1.162,1.571,3.742-.655,7.346a15.4,15.4,0,0,0-7.58.7l1.85,5.379c4.968-1.688,9.264.376,11.491,5.524,1.039,2.4,1.652,6.126-.047,8.69ZM148.529,186.3a17.1,17.1,0,0,0-17.24.7,10.1,10.1,0,0,0-4.579,9.963,8.37,8.37,0,0,0,5.282,6.99,12.7,12.7,0,0,0,1.216,10.248,16.488,16.488,0,0,0-5.676,7.18c-1.68,3.881-2.426,9.613.522,14.06,1.7,2.567,5.288,5.628,12.718,5.628,12.949,0,22.26-11.528,22.643-28.033.287-12.413-4.582-21.161-14.886-26.737Zm-7.758,49.086c-3.919,0-6.59-1.033-7.941-3.071-1.7-2.564-1.086-6.283-.045-8.688,2.226-5.148,6.523-7.212,11.491-5.524l1.85-5.379a15.386,15.386,0,0,0-7.581-.7c-2.228-3.608-1.328-6.189-.652-7.349a18.764,18.764,0,0,0,3.732-.688l-1.71-5.425a12.949,12.949,0,0,1-3.627.49c-3.084-.054-3.706-1.424-3.918-2.9a4.441,4.441,0,0,1,2.183-4.488,11.473,11.473,0,0,1,11.239-.376c8.472,4.587,12.144,11.253,11.9,21.614-.251,10.827-5.655,22.48-16.926,22.48Z" transform="translate(0 0)" fill="#3cb994"></path>
  </g>
</svg>
