<?xml version="1.0" encoding="UTF-8"?>
<svg xmlns="http://www.w3.org/2000/svg" width="75.507" height="65.754" viewBox="0 0 75.507 65.754">
  <g id="胃" transform="translate(-87.04 -122.88)">
    <path id="路径_448" d="M403.1,425.669c-20.42,19.378-41.329,6.8-49.243,5.553,0,11.921,10.186,18.31,14.274,18.3,19.83.785,26.058-4.073,33.269-11.706C405.48,433.966,406.405,431.7,403.1,425.669Z" transform="translate(-381.488 -95.679) rotate(-22)" fill="#c9f4eb"></path>
    <path id="路径_446" d="M89.025,185.861c-.081-.439-1.985-10.787-1.985-14.675,0-5.67,1.623-9.883,4.823-12.524,3.351-2.765,8.3-3.607,14.3-2.441,9.344,1.411,14.36-2.958,16.52-5.692.488-.617,1.094-1.384-.762-3.429-10.2-11.527-4.311-23.049-4.056-23.534l4.484,2.376-2.242-1.187,2.25,1.174c-.185.362-4.453,8.971,3.34,17.776,4.112,4.534,2.371,8.2.965,9.981-2.846,3.6-9.4,9.377-21.312,7.554l-.1-.018c-3.135-.614-7.441-.876-10.159,1.366-1.974,1.629-2.975,4.522-2.975,8.6,0,2.841,1.372,10.888,1.9,13.749Zm9.344.765c-1.066-3.265-.774-11.643.214-14.44l.046-.12c.723-1.757,1.963-4.14,4.374-4.545s4.072,1.486,4.7,2.2a15.713,15.713,0,0,1,1.594,2.147c4.455,7.224,10.532,9.987,19.128,8.695a29.743,29.743,0,0,0,14.869-6.539,26.4,26.4,0,0,0,7.293-9.76,22.043,22.043,0,0,0,.583-16.115c-1.052-2.97-2.591-4.89-4.705-5.871-2.617-1.216-6.146-1-10.493.65a3.238,3.238,0,0,1-3.523-.817c-3.91-4.18-5.816-8.316-5.666-12.3a10.2,10.2,0,0,1,2.929-6.931l1.715,1.873,1.746,1.845c-.423.419-3.813,4.157,2.185,11.151,5.166-1.74,9.614-1.77,13.241-.084,3.368,1.565,5.842,4.52,7.352,8.784a27.12,27.12,0,0,1-.706,19.829,31.432,31.432,0,0,1-8.677,11.63,34.8,34.8,0,0,1-17.391,7.684c-10.556,1.59-18.7-2.13-24.2-11.05a10.675,10.675,0,0,0-1.08-1.453l-.1-.106a9.026,9.026,0,0,0-.461.959c-.635,1.918-.842,9.008-.156,11.108Zm35.809-48.457h0Z" transform="translate(0 0)" fill="#3cb994"></path>
    <path id="路径_447" d="M601.279,613.486l-.923-4.988c9.784-1.813,12.232-8.867,12.33-9.166l4.828,1.542C617.384,601.29,614.16,611.1,601.279,613.486Z" transform="translate(-480.27 -444.579)" fill="#f79c42"></path>
  </g>
</svg>
