<?xml version="1.0" encoding="UTF-8"?>
<svg xmlns="http://www.w3.org/2000/svg" width="73.109" height="64.394" viewBox="0 0 73.109 64.394">
  <g id="脑科" transform="translate(-81.866 -127.982)">
    <path id="路径_376" d="M417.957,1469.47c-1.832-8.63,4.262-12.751,4.649-24.233s-1.832-17.189-3.1-21.7,24.374,6.763,20.711,26.206-10.285,30.01-10.285,30.01S419.788,1478.1,417.957,1469.47Z" transform="translate(-289.58 -1289.624)" fill="#c9f4eb"></path>
    <path id="路径_374" d="M162.4,209.123a9.987,9.987,0,0,1-3.14-10.312l-.32-.107c-3.7-1.241-6.34-2.654-6.684-9.572l5.141-.258c.2,3.928.65,4.08,3.176,4.928a27.533,27.533,0,0,1,3.211,1.249l2.558,1.218-1.449,2.443a4.823,4.823,0,0,0,.793,6.435Zm10.84-3.253-4.67-2.175c1.211-2.622,5.308-6.767,12.423-4.728,4.577-2.8,6.486-2.923,12.3-1.367l-1.327,5c-4.848-1.3-5.107-1.262-9.246,1.384l-1.075.687-1.195-.443c-5.442-2.014-7.137,1.5-7.207,1.648ZM196.036,220.6a13.066,13.066,0,0,1-2.54-.247,14.011,14.011,0,0,1-8.865-6.265l4.451-2.6a8.874,8.874,0,0,0,5.466,3.8c3.068.581,6.641-.7,10.616-3.795l3.156,4.086c-4.282,3.339-8.4,5.02-12.284,5.02Zm-13.33-27.684a10.942,10.942,0,0,1-2.363-7.671c.278-3.427,2.164-6.626,5.606-9.507l3.3,3.973c-2.341,1.958-3.611,3.963-3.771,5.955a5.882,5.882,0,0,0,1.124,3.866Zm16.753,14.76-3.269-3.994c2.306-1.9,3.573-3.951,3.768-6.084a8.262,8.262,0,0,0-1.649-5.418l3.94-3.329a13.569,13.569,0,0,1,2.836,9.221C204.759,201.629,202.866,204.86,199.459,207.673Zm14.061,2.772" transform="translate(-64.411 -43.694)" fill="#f79c42"></path>
    <path id="路径_375" d="M103.788,177.154a15.7,15.7,0,0,1-3.189-.322c-4.438-.921-8.158-3.729-11.073-8.354a14.467,14.467,0,0,1-7.654-12.852A13.4,13.4,0,0,1,89.136,143.3a15.352,15.352,0,0,1,9.175-9.807A9.923,9.923,0,0,1,106,133.9c2.758-3.009,7.131-5.738,11.417-5.906a9.771,9.771,0,0,1,7.108,2.56,17.487,17.487,0,0,1,13.319-.481,11.834,11.834,0,0,1,7.185,7.8c6.835,4.149,10.027,9.682,9.07,15.734a16.035,16.035,0,0,1-2.118,14.575l-4.131-3.089a10.81,10.81,0,0,0,1.2-10.3l-.288-.732.165-.77c.931-4.339-1.551-8.194-7.379-11.455l-1.04-.581-.233-1.175a6.7,6.7,0,0,0-4.324-5.184,11.96,11.96,0,0,0-10.419,1.04l-2.02,1.453L122,135.406a5.04,5.04,0,0,0-4.384-2.232c-3.533.139-7.436,3.335-8.9,5.589l-1.585,2.448-2.222-1.878a4.854,4.854,0,0,0-4.967-.926,10.282,10.282,0,0,0-6.139,7.305l-.293,1.281-1.2.517a8.361,8.361,0,0,0-5.3,8.045c.053,3.785,2.2,7.269,5.23,8.474l.818.325.449.762c2.206,3.747,4.94,5.981,8.126,6.642,5.569,1.154,11.084-2.741,11.138-2.782l3.026,4.19a22.46,22.46,0,0,1-12.014,3.99Zm39.741,15.221h-11.81l-1.3-3.058-.05-.2a6.767,6.767,0,0,0-2.178-3.6,17.023,17.023,0,0,1-12.627-4.027l-.212-.191c-7.6-7.658-1.023-18.661-.74-19.125l4.38,2.715-2.19-1.358L119,164.886c-.194.322-4.668,7.888-.1,12.653a11.887,11.887,0,0,0,8.976,2.808c3.733-.323,6.341,3.791,7.3,6.847h4.805c-1.674-6.087-.084-7.489.573-8.068a11.363,11.363,0,0,1,1.392-.981c3.231-2.061,6.573-4.76,5.366-10.733a5.523,5.523,0,0,0-4.748-3.036l-.638-5.142c4.213-.528,9.244,2.8,10.36,6.857l.039.159c2.1,10.065-4.966,14.575-7.627,16.272l-.318.2a25.821,25.821,0,0,0,1.562,6.149l1.3,3.5Zm6.4-25.761" fill="#3cb994"></path>
  </g>
</svg>
