<?xml version="1.0" encoding="UTF-8"?>
<svg xmlns="http://www.w3.org/2000/svg" width="50.775" height="66.416" viewBox="0 0 50.775 66.416">
  <g id="脚部" transform="translate(-230.359 -81.943)">
    <path id="路径_430" d="M393.723,415.468c-18.119,19.281-25.033,20.713-31.972,22.221,2.86,4.3,5.744,7.238,9.832,7.232,9.023,0,15.526-10.856,19.152-20.445C390.74,419.851,403.267,417.191,393.723,415.468Z" transform="translate(-244.386 -146.644) rotate(-20)" fill="#c9f4eb"></path>
    <path id="路径_428" d="M272.789,98.889a6.259,6.259,0,0,0,.154-3.985,4.622,4.622,0,0,0-2.758-3.037A4.332,4.332,0,0,0,268,91.654a4.631,4.631,0,0,0-2.834-3.262,4.478,4.478,0,0,0-3.587.222,6.527,6.527,0,0,0-.435-1.13,5.209,5.209,0,0,0-3.627-2.877,5.155,5.155,0,0,0-4.338,1.264c-.039-.066-.079-.136-.118-.2a5.241,5.241,0,0,0-8.573-.608,6.754,6.754,0,0,0-.466.6c-2.061-2.895-5.39-4.376-8.477-3.437a7.22,7.22,0,0,0-4.543,4.4,10.587,10.587,0,0,0,3.619,12.06,7.8,7.8,0,0,0,2.82,1.251,8.362,8.362,0,0,0-.655,1.32c-1.991,5.153,1.3,10.97,4.483,16.6.358.633.713,1.261,1.057,1.882,3.8,6.873,1.808,11.566,1.68,11.848l-.059.135c-4.331,10.861,2.939,14.829,5.27,15.787a11.331,11.331,0,0,0,4.3.854,11.074,11.074,0,0,0,5.105-1.243c4.827-2.5,6.134-7.5,7-10.808.631-2.412,1.554-5.559,2.722-9.543.9-3.065,1.917-6.539,3.023-10.433,1.617-5.692,1.073-10.39-1.592-14.03a5.207,5.207,0,0,0,.542-.293,6.215,6.215,0,0,0,2.465-3.121Zm-4.21-2.665a1.843,1.843,0,0,1-.709,1.926,1.841,1.841,0,0,1,.709-1.926ZM262.915,93.6a1.6,1.6,0,0,1,.647-.854,1.841,1.841,0,0,1-.707,1.926,1.617,1.617,0,0,1,.061-1.073Zm-7.578-2.765c.213-1.115.922-1.734,1.271-1.734a.241.241,0,0,1,.048,0,.767.767,0,0,1,.418.437,2.683,2.683,0,0,1,.169,1.662c-.224,1.168-.987,1.8-1.319,1.729S255.114,92.008,255.337,90.839Zm-8.135-.916a3.1,3.1,0,0,1,.689-1.811,1.085,1.085,0,0,1,.687-.406h.032a1.043,1.043,0,0,1,.656.5,3.1,3.1,0,0,1,.428,1.89c-.1,1.386-.9,2.234-1.406,2.217-.5-.035-1.183-1.008-1.084-2.394Zm-12.014,2.012a5.694,5.694,0,0,1,.054-3.629,2.738,2.738,0,0,1,1.62-1.692,2.092,2.092,0,0,1,.61-.09c1.48,0,3.082,1.491,3.711,3.589a5.7,5.7,0,0,1-.054,3.629,2.384,2.384,0,0,1-3.9,1.183,5.659,5.659,0,0,1-2.039-2.99Zm31.8,23.139c-1.1,3.875-2.116,7.339-3.013,10.4-1.179,4.02-2.11,7.2-2.758,9.674-.906,3.463-1.884,6.448-4.68,7.9a6.658,6.658,0,0,1-5.6.219c-3.8-1.561-4.736-4.854-2.781-9.788.411-.927,2.923-7.341-1.851-15.967-.351-.633-.713-1.274-1.078-1.919-2.53-4.476-5.4-9.549-4.195-12.668.606-1.569,2.364-2.839,5.225-3.776,1.642-.432,9.548-2.062,17.907,3.9,2.392,1.849,4.854,4.893,2.827,12.03Z" transform="translate(0)" fill="#3cb994"></path>
    <path id="路径_429" d="M458.714,486.675l-4.547-.166c.333-9.314-3.75-13.873-3.791-13.916l3.28-3.181c.224.234,5.466,5.872,5.058,17.263Z" transform="translate(-203.128 -357.727)" fill="#f79c42"></path>
  </g>
</svg>
