<?xml version="1.0" encoding="UTF-8"?>
<svg xmlns="http://www.w3.org/2000/svg" width="69.952" height="74.734" viewBox="0 0 69.952 74.734">
  <g id="药丸" transform="translate(-76.696 -76.801)">
    <path id="路径_409" d="M14,4.711c3.509,3.767,5.408,4.678,8.549,8.453a123.667,123.667,0,0,1,7.36,10.512l3.038-3.1,1.787-4.737-.219-9.556L19.8-6.567,5.115-7.985-.941-6.856S10.5.944,14,4.711Z" transform="matrix(-0.574, 0.819, -0.819, -0.574, 118.014, 118.498)" fill="#c9f4eb"></path>
    <path id="路径_407" d="M196.473,536.867A11.241,11.241,0,0,1,198.67,524l6.4-6.364,3.973,3.95-6.4,6.362a5.67,5.67,0,0,0-1.11,6.5Z" transform="translate(-109.063 -405.196)" fill="#f79c42"></path>
    <path id="路径_408" d="M140.814,82.645a19.953,19.953,0,0,0-28.217,0L82.538,112.7a19.95,19.95,0,1,0,28.217,28.212l30.059-30.052a19.971,19.971,0,0,0,0-28.213Zm-34.021,54.307A14.35,14.35,0,1,1,86.5,116.66l13.2-13.194,20.082,20.506ZM136.85,106.9,123.737,120.01,103.655,99.5l12.9-12.9A14.35,14.35,0,1,1,136.851,106.9Z" fill="#3cb994"></path>
  </g>
</svg>
