<?xml version="1.0" encoding="UTF-8"?>
<svg xmlns="http://www.w3.org/2000/svg" width="68.369" height="66.334" viewBox="0 0 68.369 66.334">
  <g id="药箱" transform="translate(-675 -29.547)">
    <path id="路径_172" d="M536.723,1300.594c3.681-2.286,4.7-2.273,11.087-6.37s20.072-14.422,20.072-14.422l.413,7.767.312,5.864.54,10.065H527.806A25.394,25.394,0,0,0,536.723,1300.594Z" transform="translate(171.362 -1212.595)" fill="#c9f4eb"></path>
    <g id="组_80" transform="translate(675 29.547)">
      <path id="路径_170" d="M142.185,107.675h-9.946a11.32,11.32,0,0,0-11.256-10.4h-9.756a11.321,11.321,0,0,0-11.256,10.4H90.024a8.123,8.123,0,0,0-8.1,8.121v39.693a8.123,8.123,0,0,0,8.1,8.125h52.16a8.123,8.123,0,0,0,8.1-8.123V115.8a8.122,8.122,0,0,0-8.1-8.121ZM111.226,102.4h9.756a6.2,6.2,0,0,1,6.118,5.273H105.108A6.2,6.2,0,0,1,111.226,102.4Zm-21.2,10.4h52.16a3,3,0,0,1,2.994,3v3.779l-7.953.077v-.623a5.465,5.465,0,0,0-5.454-5.465h-2.14a5.465,5.465,0,0,0-5.453,5.465v.541l-16.154.106v-.647a5.465,5.465,0,0,0-5.454-5.465h-2.135a5.465,5.465,0,0,0-5.453,5.465v.556l-7.953.076V115.8a3,3,0,0,1,2.994-3Zm42.091,6.233v6.814a.343.343,0,0,1-.342.343h-2.14a.343.343,0,0,1-.342-.343v-6.814a.343.343,0,0,1,.342-.343h2.139a.343.343,0,0,1,.343.343Zm-29.2,0v6.814a.343.343,0,0,1-.342.343h-2.139a.343.343,0,0,1-.342-.343v-6.814a.343.343,0,0,1,.342-.345h2.14a.343.343,0,0,1,.343.345Zm39.267,39.461H90.024a3,3,0,0,1-2.994-3v-30.7l7.953-.077v1.135a5.465,5.465,0,0,0,5.453,5.465h2.14a5.465,5.465,0,0,0,5.453-5.465V124.8l16.154-.106v1.15a5.465,5.465,0,0,0,5.453,5.465h2.136a5.465,5.465,0,0,0,5.453-5.465v-1.069l7.953-.076v30.791a3,3,0,0,1-2.994,3Z" transform="translate(-81.92 -97.28)" fill="#3cb994"></path>
      <path id="路径_171" d="M412.891,561.24h-6.953v-6.959H400.82v6.959h-6.954v5.122h6.954v6.959h5.118v-6.959h6.953Z" transform="translate(-369.071 -517.957)" fill="#f79c42"></path>
    </g>
  </g>
</svg>
