<?xml version="1.0" encoding="UTF-8"?>
<svg xmlns="http://www.w3.org/2000/svg" width="49.71" height="65.244" viewBox="0 0 49.71 65.244">
  <g id="药瓶" transform="translate(-184.32 -81.92)">
    <path id="路径_364" d="M530.677,1366.743a92.133,92.133,0,0,0,11.6-8.237c4.852-4.036,13.656-32.405,13.656-32.405l9.646,5.419-.649,38.056h-37.12S527.372,1368.8,530.677,1366.743Z" transform="translate(-333.896 -1224.412)" fill="#c9f4eb"></path>
    <path id="路径_337" d="M226.566,147.164H191.785a7.637,7.637,0,0,1-7.465-7.783V109.172a3.741,3.741,0,0,1,1.107-2.658l8.134-7.974h33l6.643,8.189a3.745,3.745,0,0,1,.829,2.352v30.3A7.637,7.637,0,0,1,226.566,147.164Zm-37.677-37.615v29.832a3.047,3.047,0,0,0,2.9,3.171h34.781a3.046,3.046,0,0,0,2.9-3.171V109.4l-5.068-6.246h-28.98ZM229.666,109.649Zm-5.019-14.227H193.382A3.6,3.6,0,0,1,189.8,91.81V86.84a4.9,4.9,0,0,1,4.874-4.92h28.676a4.9,4.9,0,0,1,4.875,4.921v4.968a3.6,3.6,0,0,1-3.58,3.613ZM194.371,90.81h29.288V86.84a.308.308,0,0,0-.306-.308H194.677a.308.308,0,0,0-.306.308v3.97Z" transform="translate(0 0)" fill="#3cb994"></path>
    <path id="路径_338" d="M388.869,474.829h-8.848v-8.878h-4.58v8.878h-8.849v4.6h8.849V488.3h4.58v-8.878h8.848v-4.6Z" transform="translate(-168.446 -354.902)" fill="#f79c42"></path>
  </g>
</svg>
