<?xml version="1.0" encoding="UTF-8"?>
<svg xmlns="http://www.w3.org/2000/svg" width="70.12" height="76.951" viewBox="0 0 70.12 76.951">
  <g id="血型" transform="translate(-107.52 -81.92)">
    <path id="路径_468" d="M388.708,409.643c-7.953,22.4-24.452,24.03-35.285,27.854,3.01,2.766,12.565,5.417,16.654,5.411,9.023,0,14.848-9.238,19.421-17.81C389.5,420.475,392.144,412.738,388.708,409.643Z" transform="matrix(0.951, -0.309, 0.309, 0.951, -347.658, -153.146)" fill="#c9f4eb"></path>
    <path id="路径_466" d="M282.946,468.466l5.262-1.689-7.939-24.824-5.752.074-7.254,24.816,5.3,1.556,1.731-5.924h6.731Zm-7.028-11.527,1.6-5.46,1.746,5.46h-3.342Z" transform="translate(-145.809 -328.627)" fill="#f79c42"></path>
    <path id="路径_467" d="M160.867,84.431l-1.988-2.511-2.188,2.338A74.046,74.046,0,0,0,143.92,102.1a156.53,156.53,0,0,0-10.5-13.04l-2.15-2.427-2.054,2.51c-15.006,18.352-21.7,31.912-21.7,43.966a23.837,23.837,0,0,0,47.342,3.975,18.923,18.923,0,0,0,22.778-18.542c0-9.908-3.919-17.878-16.772-34.112Zm-29.508,67a18.34,18.34,0,0,1-18.319-18.32c0-10.16,5.7-21.935,18.4-37.924,15.117,17.613,18.235,27.663,18.235,37.924a18.34,18.34,0,0,1-18.317,18.32Zm27.344-19.47a13.48,13.48,0,0,1-3.394-.432l-.138-.089c-.22-7.268-1.962-14.533-7.634-23.866A59.9,59.9,0,0,1,158.55,90.425c10.342,13.354,13.57,20.176,13.57,28.119A13.431,13.431,0,0,1,158.7,131.961Z" transform="translate(0 0)" fill="#3cb994"></path>
  </g>
</svg>
