<?xml version="1.0" encoding="UTF-8"?>
<svg xmlns="http://www.w3.org/2000/svg" width="55.508" height="69.588" viewBox="0 0 55.508 69.588">
  <g id="血糖" transform="translate(-168.96 -81.913)">
    <path id="路径_480" d="M382.163,420.383c-12.52,16.96-17.906,13.29-28.739,17.114,3.01,2.766,12.565,5.417,16.654,5.411,9.023,0,12.989-5.165,17.562-13.737C387.644,424.548,385.6,423.478,382.163,420.383Z" transform="matrix(0.951, -0.309, 0.309, 0.951, -285.497, -161.73)" fill="#c9f4eb"></path>
    <path id="路径_478" d="M224.43,107.926c-.626-8.776-6.856-17.433-12.478-22.61a2.726,2.726,0,0,0-3.64-.058,37.96,37.96,0,0,0-4.978,5.353,83.049,83.049,0,0,0-7.575-7.976,2.734,2.734,0,0,0-3.637-.059c-11.229,9.668-23.163,28.376-23.163,44A24.977,24.977,0,0,0,193.844,151.5h.065a24.381,24.381,0,0,0,17.977-7.849,26.007,26.007,0,0,0,6.883-19.561c-.072-1.013-.2-2.052-.365-3.1a14.576,14.576,0,0,0,2.2-1.976,14.958,14.958,0,0,0,3.824-11.092Zm-11,16.545a20.65,20.65,0,0,1-5.456,15.536,19.085,19.085,0,0,1-14.069,6.153h-.052a19.623,19.623,0,0,1-19.551-19.581c0-13.243,9.771-29.147,19.555-38.376a79.115,79.115,0,0,1,6.329,7.021c-2.806,4.732-4.851,10.277-4.41,15.552a14.254,14.254,0,0,0,14.309,12.912c.118,0,.236,0,.354,0a14.2,14.2,0,0,0,2.876-.362c.042.386.087.773.114,1.15Zm3.216-9.048a8.967,8.967,0,0,1-15.54-5.095c-.553-6.608,4.53-14.746,8.962-19.368,4.2,4.41,8.574,11.005,9.025,17.345a9.6,9.6,0,0,1-2.446,7.118Zm-29.83.283-2.44-1.093-2.437-1.1c-.3.668-7.259,16.464,3.375,25.435l3.45-4.081c-7.544-6.363-2-19.037-1.948-19.164Z" fill="#3cb994"></path>
    <path id="路径_479" d="M605.987,320.275H602v-3.987h-5.355v3.987h-3.988v5.352h3.988v3.986H602v-3.986h3.988v-5.352Z" transform="translate(-389.419 -215.414)" fill="#f79c42"></path>
  </g>
</svg>
