<?xml version="1.0" encoding="UTF-8"?>
<svg xmlns="http://www.w3.org/2000/svg" width="61.268" height="71.318" viewBox="0 0 61.268 71.318">
  <g id="雾化吸入" transform="translate(-46.061)">
    <path id="路径_494" d="M382.163,420.383c-12.52,16.96-16.319,15.847-27.153,19.671,3.01,2.766,12.5,6.023,16.592,6.017,9.023,0,8.065-10.094,12.639-18.666C384.245,422.781,385.6,423.478,382.163,420.383Z" transform="matrix(0.951, -0.309, 0.309, 0.951, -419.97, -243.217)" fill="#c9f4eb"></path>
    <path id="路径_481" d="M104.509,17.789a11.117,11.117,0,0,0,.766-4.143,7.758,7.758,0,0,0-.87-3.551c.07-.1.139-.174.174-.244.035-.035.07-.1.1-.139l.07-.035.07-.07A4.662,4.662,0,0,0,105.728,7V6.684a6.986,6.986,0,0,0-1.044-3.655A5.662,5.662,0,0,0,102.421.766,6.455,6.455,0,0,0,99.462,0a6.634,6.634,0,0,0-3.237.87,29.289,29.289,0,0,0-4.212,3.2A80.671,80.671,0,0,0,83.483,13.4c-.313.383-.592.731-.8.975a5.208,5.208,0,0,1-.453.383,10.218,10.218,0,0,0-2.123,1.984H78.088v-6.51h2.228c-.016-2.829,0,.017,0-5.082H46.061c0,3.115,0-.012,0,5.082h2.228V67.046a3.713,3.713,0,0,0,.592,1.775l.035.035.035.035a2.551,2.551,0,0,0,1.88.7H75.268A3.713,3.713,0,0,0,77.043,69l.035-.035.035-.035a2.551,2.551,0,0,0,.7-1.88V34.15h1.775a.5.5,0,0,0,.244.209,10.794,10.794,0,0,0,1.915,1.358,28.526,28.526,0,0,0,4.734,2.367c1.6.766,3.377,1.532,5.048,2.228q1.671.679,3.133,1.358c1.253.522,2.437,1.079,3.586,1.6.209.1.418.209.592.313.731.418,1.323.731,1.741.94a3.463,3.463,0,0,0,1.567.522,4.316,4.316,0,0,0,2.019-.592l.07-.035.07-.07a3.949,3.949,0,0,0,1.114-1.532A36.663,36.663,0,0,0,107.329,31.3a32.5,32.5,0,0,0-2.82-13.507Zm-31.574,47H53.476V58.309h2.68a2.541,2.541,0,0,0,0-5.082h-2.68V48.283h4.839a2.541,2.541,0,1,0,0-5.082H53.476V36.83h2.68a2.541,2.541,0,0,0,0-5.082h-2.68V26.839h2.68A2.652,2.652,0,0,0,58.7,24.3a2.56,2.56,0,0,0-2.541-2.437h-2.68V10.409H72.935Zm25.8-59.318a.941.941,0,0,1,.557-.174,1.083,1.083,0,0,1,.383.035l.035.035.035.035c.035.035.07.035.1.07.209.139.244.174.278.244v.035l.035.035a3.389,3.389,0,0,1,.383,1.01l-.035.035a4.341,4.341,0,0,0-.8,1.218,4.57,4.57,0,0,0-.592,2.3,3.96,3.96,0,0,0,.627,2.054,3.162,3.162,0,0,1,.383,1.567,7.672,7.672,0,0,1-.139,1.253c-.035.209-.07.418-.1.661a1.518,1.518,0,0,0-.209.592c0,.035-.035.1-.035.139a.917.917,0,0,0-.209.522,2.294,2.294,0,0,0,0,2.4.644.644,0,0,0,.278.418,27.452,27.452,0,0,1,2.785,12.045,33.68,33.68,0,0,1-1.044,7.763,11.14,11.14,0,0,0-2.193-1.323l-.418-.209c-2.263-1.044-5.187-2.3-9.225-3.968l-.557-.278c-1.323-.627-2.437-1.149-3.377-1.6-1.5-.731-1.88-1.184-1.984-1.358l-.035-.035-.035-.035a4.4,4.4,0,0,1-.975-1.706,11.738,11.738,0,0,1-.418-3.029A11.9,11.9,0,0,1,83,21.966a6.789,6.789,0,0,1,1.88-2.68,5.715,5.715,0,0,0,1.671-1.462,77.3,77.3,0,0,1,5.187-5.988c.418-.418.835-.87,1.253-1.288.835-.87,1.6-1.671,2.4-2.367a26.093,26.093,0,0,1,3.342-2.715Z" fill="#3cb994"></path>
    <path id="路径_482" d="M318.123,360.022v23.6c-5.294-.013.022.013-5.291,0v-23.6C316.114,360.024,315.643,360.027,318.123,360.022Z" transform="translate(-251.001 -333.078)" fill="#f79c42"></path>
  </g>
</svg>
