<?xml version="1.0" encoding="UTF-8"?>
<svg xmlns="http://www.w3.org/2000/svg" width="67.454" height="69.954" viewBox="0 0 67.454 69.954">
  <g id="额温枪" transform="translate(-97.283 -81.899)">
    <path id="路径_388" d="M383.2,443.9c-2.378-4.271,1.647-5.729-7.775-11.735-11.139-6.04-9.062-5.372-14.836-7.6a16.739,16.739,0,0,1,11.325-4.01c9.023,0,23.663-1.973,23.663,7.055C395.58,432.236,394.607,448.127,383.2,443.9Z" transform="translate(516.96 -309.667) rotate(81)" fill="#c9f4eb"></path>
    <path id="路径_386" d="M400.74,435.233c-.09-.03-9.031-3-12.125-3.956a3.7,3.7,0,0,1-2.234-1.849,3.432,3.432,0,0,1-.2-2.673c.786-2.332.745-8.731.534-12.218l5.06-.308c.055.907.456,8.142-.393,12.586,3.747,1.2,10.618,3.474,10.946,3.581Z" transform="translate(-265.239 -305.303)" fill="#f79c42"></path>
    <path id="路径_387" d="M161.97,121.6a51.537,51.537,0,0,0-2.307-4.88c-1.419-2.919.167-6.332.538-6.886l.316-.47.087-.56c.023-.146,2-15.032-4.36-24.75l-.675-1.031-1.225-.108a354.435,354.435,0,0,0-43.066-.649l-1.5.071-.66,1.351c-.032.065-.152.318-.325.734h-7.521a3.988,3.988,0,0,0-3.976,3.97c-.011,3.194-.027,9.314,0,14.412A4,4,0,0,0,101,106.755c3.764.263,6.314.5,8,.75q.436,1,.946,1.959l.487.913.984.312a44.182,44.182,0,0,0,6.8,1.31c7.782,1.109,13.4,2.3,14.782,7.6,2.257,8.633,4.376,20.681,3.694,26.732a3.618,3.618,0,0,0,3.023,3.9l1.223.24a54.566,54.566,0,0,0,10.651,1.379,26.847,26.847,0,0,0,7.662-1.094,3.709,3.709,0,0,0,2.468-2.281c2.448-6.879,5.223-14.677.249-26.881Zm-59.6-19.845c-.017-4.3-.008-9.133,0-12.244h4.883a30.14,30.14,0,0,0,0,12.658c-1.294-.132-2.881-.269-4.879-.414Zm54.827,44.3c-5.307,1.394-9.732.523-15.277-.57l-.067-.013c.356-6.965-1.655-18.411-3.942-27.16-2.346-8.976-11.958-10.346-18.977-11.346-1.827-.26-3.572-.509-4.992-.852a23.464,23.464,0,0,1-1.173-2.949l0-.01-.008,0a25.126,25.126,0,0,1,.367-15.876,354.372,354.372,0,0,1,39.492.6c3.685,6.666,3.392,16.572,3.033,19.666-1.393,2.483-2.588,7.3-.521,11.474l.04.076a46.551,46.551,0,0,1,2.1,4.432c4.087,10.025,2.172,16.184-.077,22.53ZM144.531,89.858l-15.8-.248a4.384,4.384,0,0,0-3.637,1.439c-1.4,1.7-.9,4.088-.733,4.872a22.012,22.012,0,0,0,1.181,4,3.9,3.9,0,0,0,3.262,2.3c2.931.276,12.8,1.193,16.807,1.432.077,0,.154.007.232.007a3.754,3.754,0,0,0,2.585-1.013,3.338,3.338,0,0,0,1.061-2.457,21.8,21.8,0,0,0-1.637-8.169,3.625,3.625,0,0,0-3.319-2.164ZM129.945,97.22a21.063,21.063,0,0,1-.619-2.348c-.012-.057-.023-.112-.032-.164l14.23.223a17.22,17.22,0,0,1,.784,3.537c-4.184-.306-11.285-.96-14.362-1.248Z" fill="#3cb994"></path>
  </g>
</svg>
