<?xml version="1.0" encoding="UTF-8"?>
<svg xmlns="http://www.w3.org/2000/svg" width="72.248" height="72.18" viewBox="0 0 72.248 72.18">
  <g id="骨科" transform="translate(-81.92 -81.92)">
    <path id="路径_458" d="M601.047,609.928l-.691-3.734c7.325-1.358,9.157-6.638,9.231-6.862l3.615,1.154C613.1,600.8,610.69,608.141,601.047,609.928Z" transform="translate(579.725 -617.05) rotate(77)" fill="#f79c42"></path>
    <path id="路径_459" d="M387.481,421.391c-23.833,22.143-24.463,14.123-31.4,15.631,3.01,2.766,5.35,5.854,9.438,5.849,10.449-5.031,26.221-9.645,26.221-18.674C390.965,423.327,389.61,423.133,387.481,421.391Z" transform="translate(-269.961 -295.351)" fill="#c9f4eb"></path>
    <path id="路径_456" d="M95.836,473.947,81.92,460.213l2.432-1.808c4.445-3.3,11.156-9.561,11.443-12.5.4-4.065,2.2-12.211,6.175-13.948,5.823-2.544,8.46,1.339,9.324,3.126,1.349,2.792,1.532,2.835,1.834,2.907a6.692,6.692,0,0,1,5.449,5.1c.2.663.742,1.506,3.257,2.168a5.373,5.373,0,0,1,3.787,3.815,6.494,6.494,0,0,1-1.9,6.261q-.464.474-.9.972c-2.115,2.35-3.953,3.911-9.929,4.172-2.144.2-3.328.823-5.962,3.129-2.692,2.355-9.214,8.553-9.28,8.616ZM89.8,460.719l6.105,6.025c2.17-2.048,5.738-5.393,7.626-7.045,3.032-2.654,5.251-4.061,8.955-4.39l.12-.008c4.316-.18,5.005-.947,6.379-2.471.314-.349.67-.743,1.084-1.159.522-.524.635-.98.566-1.232a.213.213,0,0,0-.105-.155c-1.4-.367-5.657-1.483-6.9-5.715-.358-1.213-.691-1.291-1.681-1.525-2.875-.68-3.838-2.674-5.3-5.691-.488-1.009-.781-1.428-2.568-.658-.818.615-2.64,4.532-3.147,9.72-.485,4.945-7.225,11.114-11.133,14.3Z" transform="translate(0 -319.847)" fill="#3cb994"></path>
    <path id="路径_457" d="M449.525,124.958c-4.347,0-8.452-2.646-11.038-7.2a11.8,11.8,0,0,1-7.942-10.5c-.23-5.44,3.759-11.491,13.06-11.922,5.323-.246,12.152-8.1,14.334-11.111l1.679-2.31L473.48,94.328l-1.737,1.937c-.081.09-8.108,9.044-9.764,10.97-1.044,1.215-1.51,3.205-1.51,6.451,0,5.956-3.1,9.878-8.741,11.044a10.865,10.865,0,0,1-2.2.227Zm10.831-35.432c-3.122,3.753-9.772,10.685-16.513,11-6.2.286-8.261,3.691-8.141,6.519a6.642,6.642,0,0,0,5.1,5.992l1.218.269.547,1.125c1.475,3.032,4.385,6,8.119,5.224,3.282-.679,4.621-2.407,4.621-5.965,0-3.083.314-6.989,2.765-9.841,1.218-1.417,5.613-6.335,8.1-9.114Z" transform="translate(-319.312)" fill="#3cb994"></path>
  </g>
</svg>
