<?xml version="1.0" encoding="UTF-8"?>
<svg xmlns="http://www.w3.org/2000/svg" width="60.104" height="58.673" viewBox="0 0 60.104 58.673">
  <g id="鼻科" transform="translate(-81.92 -92.16)">
    <path id="路径_365" d="M538.1,1302.185s6.058-7.326,9.158-22.4,3.1-24.374,3.1-24.374l6.34,24.374,12.441,12.7-2.418,4.585-.667,4.252-16.683-1.485Z" transform="translate(-429.434 -1154.918)" fill="#c9f4eb"></path>
    <path id="路径_357" d="M94.384,150.833a14.59,14.59,0,0,1-8.579-2.469,9.78,9.78,0,0,1-3.885-8.223c0-8.9,6.1-12.36,10.132-14.646.664-.377,1.29-.732,1.8-1.062,2.428-1.578,2.49-3.453,2.315-5.562-.347-3.258.6-8.608,2.807-15.906l.072-.239c.49-1.627,2.749-10.476,2.772-10.565l4.264,1.084c-.094.368-2.305,9.028-2.821,10.744l-.075.248c-2.68,8.852-2.8,12.689-2.642,14.189l.005.056c.162,1.941.542,6.488-4.3,9.632-.62.4-1.3.79-2.026,1.2-3.706,2.1-7.906,4.482-7.906,10.829a5.417,5.417,0,0,0,2.106,4.695c2.7,2,7.311,1.774,9.179,1.209l1.276,4.2a16.226,16.226,0,0,1-4.5.585Zm35.176,0a16.212,16.212,0,0,1-4.5-.585l1.276-4.2c1.869.565,6.479.79,9.179-1.209a5.419,5.419,0,0,0,2.106-4.695c0-6.347-4.2-8.729-7.906-10.829-.723-.41-1.406-.8-2.026-1.2-4.839-3.145-4.459-7.692-4.3-9.633l.005-.056c.164-1.5.039-5.336-2.641-14.186l-.075-.25c-.516-1.717-2.727-10.375-2.821-10.744l4.265-1.084c.023.089,2.282,8.938,2.772,10.566l.072.242c2.209,7.3,3.153,12.646,2.806,15.9-.175,2.111-.113,3.985,2.315,5.563.508.33,1.134.685,1.8,1.061,4.036,2.287,10.134,5.744,10.134,14.647a9.776,9.776,0,0,1-3.884,8.221,14.585,14.585,0,0,1-8.58,2.47Zm-18.15-.209a16.017,16.017,0,0,1-9.062-2.872l-.414-.261c-4.8-3.316-8.724-3.415-8.765-3.415l.017-4.391c.211,0,5.223.047,11.209,4.167l.3.185c2.309,1.449,6.163,3.87,14.009.455.336-.2.682-.415,1.041-.637,2.559-1.584,6.064-3.753,10.883-4.161l.372,4.376c-3.768.318-6.514,2.017-8.936,3.517q-.61.381-1.228.75l-.235.121a22.783,22.783,0,0,1-9.188,2.169Z" transform="translate(0)" fill="#3cb994"></path>
    <path id="路径_358" d="M371.97,719.341q-.472,0-.945-.036a14.707,14.707,0,0,1-9.441-4.792l3.367-2.84-1.684,1.42,1.676-1.431a10.336,10.336,0,0,0,6.451,3.244c2.7.187,5.492-.982,8.295-3.467l2.915,3.3c-3.442,3.055-7.015,4.6-10.634,4.6Z" transform="translate(-260.122 -576.008)" fill="#f79c42"></path>
  </g>
</svg>
