<?xml version="1.0" encoding="UTF-8"?>
<svg xmlns="http://www.w3.org/2000/svg" width="51.607" height="51.607" viewBox="0 0 51.607 51.607">
  <g id="下载" transform="translate(-109.159 -105.114)">
    <path id="路径_671" d="M148.208,105.114h-26.49a12.574,12.574,0,0,0-12.558,12.558v26.491a12.572,12.572,0,0,0,12.558,12.558h26.49a12.574,12.574,0,0,0,12.558-12.558V117.672A12.574,12.574,0,0,0,148.208,105.114Zm7.969,39.049a7.98,7.98,0,0,1-7.969,7.969h-26.49a7.978,7.978,0,0,1-7.969-7.969V117.672a7.978,7.978,0,0,1,7.969-7.969h26.49a7.978,7.978,0,0,1,7.969,7.969Z" fill="#34332e"></path>
    <path id="路径_672" d="M372.346,306.264H355.985a2.295,2.295,0,0,0,0,4.589h16.364a2.295,2.295,0,1,0,0-4.589Zm-9.831-3.855a2.312,2.312,0,0,0,1.623.7h.026a2.288,2.288,0,0,0,1.613-.662l8.182-8.077a2.295,2.295,0,0,0-3.226-3.265l-4.275,4.219v-10.2a2.295,2.295,0,0,0-4.589,0v10.015l-3.858-3.993a2.3,2.3,0,1,0-3.3,3.19Z" transform="translate(-228.875 -166.337)" fill="#fa3543"></path>
  </g>
</svg>
