<?xml version="1.0" encoding="UTF-8"?>
<svg xmlns="http://www.w3.org/2000/svg" width="55.8" height="55.8" viewBox="0 0 55.8 55.8">
  <g id="余额" transform="translate(-99.021 -101.683)">
    <path id="路径_711" d="M126.921,101.683a27.9,27.9,0,1,0,27.9,27.9A27.932,27.932,0,0,0,126.921,101.683Zm0,50.939a23.039,23.039,0,1,1,23.039-23.039A23.066,23.066,0,0,1,126.921,152.622Z" transform="translate(0)" fill="#34332e"></path>
    <path id="路径_712" d="M355.064,319.944h6.912a2.43,2.43,0,1,0,0-4.861h-4.541l4.128-3.107a2.43,2.43,0,1,0-2.923-3.882l-5.913,4.448-5.739-4.43a2.431,2.431,0,1,0-2.972,3.847l4.045,3.125h-4.434a2.43,2.43,0,0,0,0,4.861H350.2c-.007.854-.014,1.993-.01,3.514h-6.565a2.43,2.43,0,0,0,0,4.861h6.583c.01,1.833.024,3.975.042,6.485a2.432,2.432,0,0,0,2.43,2.413h.021a2.431,2.431,0,0,0,2.413-2.448c-.014-1.9-.028-4.18-.042-6.447h6.9a2.43,2.43,0,0,0,0-4.861H355.06C355.057,322.093,355.057,320.882,355.064,319.944Z" transform="translate(-225.754 -191.958)" fill="#fa3543"></path>
  </g>
</svg>
