<?xml version="1.0" encoding="UTF-8"?>
<svg xmlns="http://www.w3.org/2000/svg" width="57.897" height="48.755" viewBox="0 0 57.897 48.755">
  <g id="信息" transform="translate(-79.667 -149.811)">
    <path id="路径_679" d="M123.793,198.566H93.437a13.785,13.785,0,0,1-13.77-13.77V163.581a13.785,13.785,0,0,1,13.77-13.77h30.356a13.785,13.785,0,0,1,13.77,13.77V184.8a13.788,13.788,0,0,1-13.77,13.77Zm-30.356-43.93a8.956,8.956,0,0,0-8.946,8.946V184.8a8.956,8.956,0,0,0,8.946,8.946h30.356a8.956,8.956,0,0,0,8.946-8.946V163.581a8.956,8.956,0,0,0-8.946-8.946Z" fill="#34332e"></path>
    <path id="路径_680" d="M215.407,342.174a9.65,9.65,0,0,1-4.252-.982l-15.607-7.674a2.412,2.412,0,1,1,2.13-4.328l15.607,7.671a4.844,4.844,0,0,0,4.287-.017l15.242-7.647a2.413,2.413,0,0,1,2.164,4.314l-15.242,7.647a9.714,9.714,0,0,1-4.328,1.017Z" transform="translate(-106.824 -167.072)" fill="#fa3543"></path>
  </g>
</svg>
