<?xml version="1.0" encoding="UTF-8"?>
<svg xmlns="http://www.w3.org/2000/svg" width="56.345" height="55.858" viewBox="0 0 56.345 55.858">
  <g id="信息" transform="translate(-102.911 -101.335)">
    <path id="路径_709" d="M108.809,157.193a5.889,5.889,0,0,1-5.794-7l1.672-8.708a12.6,12.6,0,0,0-.122-5.458,27.779,27.779,0,1,1,20.271,20.064,13.13,13.13,0,0,0-4.842-.29l-10.436,1.343a6.021,6.021,0,0,1-.749.049Zm22.024-50.953A23.092,23.092,0,0,0,108.6,128.809a22.852,22.852,0,0,0,.714,5.993,17.525,17.525,0,0,1,.189,7.6l-1.672,8.708a.994.994,0,0,0,1.1,1.176l10.436-1.343a17.978,17.978,0,0,1,6.637.4,22.886,22.886,0,1,0,4.832-45.1Z" transform="translate(0)" fill="#34332e"></path>
    <path id="路径_710" d="M360.79,391.2H341.5a2.449,2.449,0,1,1,0-4.9H360.79a2.449,2.449,0,1,1,0,4.9Zm-6.343,11.969H341.5a2.449,2.449,0,0,1,0-4.9h12.952a2.449,2.449,0,0,1,0,4.9Z" transform="translate(-220 -265.496)" fill="#fa3543"></path>
  </g>
</svg>
