<?xml version="1.0" encoding="UTF-8"?>
<svg xmlns="http://www.w3.org/2000/svg" width="61.575" height="58.779" viewBox="0 0 61.575 58.779">
  <g id="信用卡" transform="translate(-90.419 -109.375)">
    <path id="路径_691" d="M146.728,124.789c-.015-.049-.03-.1-.049-.143l-3.227-8.174a11.128,11.128,0,0,0-6.075-6.248,10.744,10.744,0,0,0-8.426.023L98.28,123.277a2.643,2.643,0,0,0-.8.534,11.771,11.771,0,0,0-7.06,10.777v21.805a11.776,11.776,0,0,0,11.762,11.762h38.051a11.776,11.776,0,0,0,11.762-11.762V134.587a11.761,11.761,0,0,0-5.266-9.8Zm-15.719-9.7a5.521,5.521,0,0,1,4.333-.011,5.907,5.907,0,0,1,3.212,3.321l1.749,4.423H112.8l18.205-7.734Zm-28.828,13h38.051a6.5,6.5,0,0,1,6.5,6.5v.572H95.685v-.572a6.5,6.5,0,0,1,6.5-6.5Zm38.051,34.8H102.181a6.5,6.5,0,0,1-6.5-6.5V140.425h51.043v15.967A6.5,6.5,0,0,1,140.232,162.889Z" transform="translate(0)" fill="#34332e"></path>
    <path id="路径_692" d="M243.536,584.806H230.371a2.633,2.633,0,1,0,0,5.266h13.165a2.633,2.633,0,1,0,0-5.266Z" transform="translate(-127.231 -440.503)" fill="#fa3543"></path>
  </g>
</svg>
