<?xml version="1.0" encoding="UTF-8"?>
<svg xmlns="http://www.w3.org/2000/svg" width="62.054" height="62.054" viewBox="0 0 62.054 62.054">
  <g id="兑换" transform="translate(-96.768 -94.362)">
    <path id="路径_642" d="M127.795,156.416a31.027,31.027,0,1,1,31.027-31.027A31.062,31.062,0,0,1,127.795,156.416Zm0-56.648a25.621,25.621,0,1,0,25.621,25.621A25.651,25.651,0,0,0,127.795,99.767Z" fill="#34332e"></path>
    <path id="路径_643" d="M333.275,299.887H309.237a2.7,2.7,0,1,1,0-5.405h17.981l-2.73-3.042a2.7,2.7,0,1,1,4.023-3.606l6.772,7.548a2.7,2.7,0,0,1-2.008,4.506Zm-17.263,17.691a2.681,2.681,0,0,1-2.012-.9l-6.772-7.548a2.7,2.7,0,0,1,2.012-4.51h24.035a2.7,2.7,0,1,1,0,5.405H315.295l2.73,3.042a2.707,2.707,0,0,1-2.012,4.51Z" transform="translate(-193.948 -178.051)" fill="#fa3543"></path>
  </g>
</svg>
