<?xml version="1.0" encoding="UTF-8"?>
<svg xmlns="http://www.w3.org/2000/svg" width="57.829" height="60.43" viewBox="0 0 57.829 60.43">
  <g id="分享" transform="translate(-130.15 -110.899)">
    <path id="路径_624" d="M185.267,147.065a2.711,2.711,0,0,0-2.713,2.713v6.278a9.855,9.855,0,0,1-9.844,9.844H145.419a9.855,9.855,0,0,1-9.844-9.844V126.168a9.855,9.855,0,0,1,9.844-9.844h4.961a2.713,2.713,0,0,0,0-5.426h-4.961a15.287,15.287,0,0,0-15.269,15.269V156.06a15.287,15.287,0,0,0,15.269,15.269H172.71a15.287,15.287,0,0,0,15.269-15.269v-6.278a2.714,2.714,0,0,0-2.713-2.717Z" fill="#34332e"></path>
    <path id="路径_625" d="M510.834,145.647a2.7,2.7,0,0,0,1.949-.825l18.354-18.99v8.817a2.713,2.713,0,0,0,5.426,0V122.634a6.624,6.624,0,0,0-6.615-6.615H518.841a2.713,2.713,0,1,0,0,5.426h8.995l-18.951,19.61a2.707,2.707,0,0,0,1.949,4.592Z" transform="translate(-349.363 -4.732)" fill="#fa3543"></path>
  </g>
</svg>
