<?xml version="1.0" encoding="UTF-8"?>
<svg xmlns="http://www.w3.org/2000/svg" width="51.937" height="54.305" viewBox="0 0 51.937 54.305">
  <g id="删除好友" transform="translate(-125.747 -91.956)">
    <path id="路径_673" d="M150.154,121.568h.938a2.057,2.057,0,0,0,.293-.021,14.824,14.824,0,1,0-9.952-3.191,24.444,24.444,0,0,0-15.686,22.789,5.12,5.12,0,0,0,5.116,5.116h17.555a2.415,2.415,0,1,0,0-4.83H130.863a.286.286,0,0,1-.286-.286,19.6,19.6,0,0,1,19.577-19.577Zm.469-24.779a9.975,9.975,0,1,1-9.973,9.973,9.986,9.986,0,0,1,9.973-9.973Z" transform="translate(0 0)" fill="#34332e"></path>
    <path id="路径_674" d="M631.786,545.581l5.23-5.23a2.415,2.415,0,0,0-3.415-3.415l-5.23,5.23-5.23-5.23a2.415,2.415,0,0,0-3.415,3.415l5.23,5.23-5.23,5.23a2.415,2.415,0,0,0,3.415,3.415l5.23-5.23,5.23,5.23a2.415,2.415,0,0,0,3.415-3.415Z" transform="translate(-460.038 -414.341)" fill="#fa3543"></path>
  </g>
</svg>
