<?xml version="1.0" encoding="UTF-8"?>
<svg xmlns="http://www.w3.org/2000/svg" width="58.326" height="56.131" viewBox="0 0 58.326 56.131">
  <g id="删除" transform="translate(-95.283 -101.888)">
    <path id="路径_650" d="M151.126,112.76H136.445v-3.4a7.485,7.485,0,0,0-7.476-7.476H119a7.485,7.485,0,0,0-7.476,7.476v3.4H97.77a2.487,2.487,0,1,0,0,4.974h4.072v30.133a10.162,10.162,0,0,0,10.151,10.151h24.029a10.162,10.162,0,0,0,10.151-10.151V117.734h4.949a2.487,2.487,0,0,0,0-4.974Zm-34.631-3.4a2.505,2.505,0,0,1,2.5-2.5h9.977a2.505,2.505,0,0,1,2.5,2.5v3.4h-14.98v-3.4Zm24.708,38.5a5.182,5.182,0,0,1-5.177,5.177H112a5.182,5.182,0,0,1-5.177-5.177v-30.13h34.386v30.13Z" transform="translate(0 0)" fill="#34332e"></path>
    <path id="路径_651" d="M379.575,439.6a2.485,2.485,0,0,0-2.487,2.487V457.3a2.487,2.487,0,0,0,4.974,0V442.09A2.485,2.485,0,0,0,379.575,439.6Zm13.082,0a2.485,2.485,0,0,0-2.487,2.487V457.3a2.487,2.487,0,0,0,4.974,0V442.09A2.488,2.488,0,0,0,392.657,439.6Z" transform="translate(-262.249 -314.28)" fill="#fa3543"></path>
  </g>
</svg>
