<?xml version="1.0" encoding="UTF-8"?>
<svg xmlns="http://www.w3.org/2000/svg" width="65.715" height="62.291" viewBox="0 0 65.715 62.291">
  <g id="券" transform="translate(-107.264 -121.037)">
    <path id="路径_654" d="M159.819,183.328H120.424a13.176,13.176,0,0,1-13.16-13.16v-7.239a2.879,2.879,0,0,1,2.241-2.81,8.142,8.142,0,0,0,0-15.872,2.886,2.886,0,0,1-2.241-2.81V134.2a13.176,13.176,0,0,1,13.16-13.16h39.395a13.176,13.176,0,0,1,13.16,13.16v7.26a2.887,2.887,0,0,1-2.217,2.806,8.141,8.141,0,0,0,0,15.839,2.882,2.882,0,0,1,2.217,2.806v7.26a13.171,13.171,0,0,1-13.16,13.16Zm-46.787-18.3v5.138a7.4,7.4,0,0,0,7.392,7.392h39.395a7.4,7.4,0,0,0,7.392-7.392v-5.175a13.919,13.919,0,0,1,0-25.62V134.2a7.4,7.4,0,0,0-7.392-7.392H120.424a7.4,7.4,0,0,0-7.392,7.392v5.138a13.917,13.917,0,0,1,0,25.695Z" transform="translate(0 0)" fill="#34332e"></path>
    <path id="路径_655" d="M366.674,381.526H344.593a2.884,2.884,0,0,1,0-5.768h22.081a2.884,2.884,0,0,1,0,5.768Zm0,14.133H344.593a2.884,2.884,0,0,1,0-5.768h22.081a2.884,2.884,0,0,1,0,5.768Z" transform="translate(-215.578 -234.221)" fill="#fa3543"></path>
  </g>
</svg>
