<?xml version="1.0" encoding="UTF-8"?>
<svg xmlns="http://www.w3.org/2000/svg" width="64.794" height="57.43" viewBox="0 0 64.794 57.43">
  <g id="历史记录" transform="translate(-66.066 -122.214)">
    <path id="路径_648" d="M102.146,122.214a28.745,28.745,0,0,0-28.713,28.713q0,1.234.11,2.456l-3.279-2.343a2.654,2.654,0,1,0-3.089,4.317l8.927,6.383a2.651,2.651,0,0,0,3.726-.648l5.807-8.4a2.654,2.654,0,1,0-4.367-3.017l-2.422,3.5c-.072-.743-.11-1.493-.11-2.244a23.41,23.41,0,1,1,6.736,16.428,2.654,2.654,0,0,0-3.779,3.726,28.715,28.715,0,1,0,20.454-48.871Z" transform="translate(0)" fill="#34332e"></path>
    <path id="路径_649" d="M509.994,285.645a2.651,2.651,0,0,0-2.653,2.653v14.226a2.652,2.652,0,0,0,1.13,2.172l10.075,7.066a2.653,2.653,0,0,0,3.048-4.344l-8.942-6.273V288.3a2.657,2.657,0,0,0-2.657-2.653Z" transform="translate(-408.606 -151.332)" fill="#fa3543"></path>
  </g>
</svg>
