<?xml version="1.0" encoding="UTF-8"?>
<svg xmlns="http://www.w3.org/2000/svg" width="57.43" height="57.43" viewBox="0 0 57.43 57.43">
  <g id="发现" transform="translate(-102.451 -97.997)">
    <path id="路径_646" d="M131.166,155.427a28.715,28.715,0,1,1,28.715-28.715A28.748,28.748,0,0,1,131.166,155.427Zm0-52.427a23.712,23.712,0,1,0,23.712,23.712A23.74,23.74,0,0,0,131.166,103Z" fill="#34332e"></path>
    <path id="路径_647" d="M323.257,340.226a2.5,2.5,0,0,1-2.344-3.377l5.982-15.994a2.5,2.5,0,0,1,1.422-1.451l16.33-6.45a2.5,2.5,0,0,1,3.259,3.209l-6.182,16.4a2.485,2.485,0,0,1-1.461,1.458l-16.126,6.046a2.421,2.421,0,0,1-.879.161Zm7.936-16.577-3.666,9.805,9.919-3.72,3.791-10.052Z" transform="translate(-203.068 -199.793)" fill="#fa3543"></path>
  </g>
</svg>
