<?xml version="1.0" encoding="UTF-8"?>
<svg xmlns="http://www.w3.org/2000/svg" width="57.114" height="50.074" viewBox="0 0 57.114 50.074">
  <g id="商品" transform="translate(-94.914 -143.309)">
    <path id="路径_666" d="M142.237,193.383H104.7a9.791,9.791,0,0,1-9.685-11.2l4.453-30.5a9.842,9.842,0,0,1,9.685-8.375h28.92a9.822,9.822,0,0,1,9.7,8.462l4.166,30.5a9.789,9.789,0,0,1-9.7,11.112ZM109.151,148.2a4.918,4.918,0,0,0-4.841,4.187l-4.453,30.5a4.89,4.89,0,0,0,4.841,5.6h37.539a4.895,4.895,0,0,0,4.848-5.558l-4.166-30.493a4.911,4.911,0,0,0-4.848-4.229h-28.92Z" fill="#34332e"></path>
    <path id="路径_667" d="M344.78,415.457a12.352,12.352,0,0,1-12.338-12.338v-.493a2.447,2.447,0,0,1,4.893,0v.493a7.445,7.445,0,1,0,14.89,0v-.493a2.447,2.447,0,0,1,4.893,0v.493A12.35,12.35,0,0,1,344.78,415.457Z" transform="translate(-221.313 -239.334)" fill="#fa3543"></path>
  </g>
</svg>
