<?xml version="1.0" encoding="UTF-8"?>
<svg xmlns="http://www.w3.org/2000/svg" width="58.22" height="58.22" viewBox="0 0 58.22 58.22">
  <g id="图片" transform="translate(-114.125 -113.766)">
    <path id="路径_687" d="M157.866,113.766H128.6a14.5,14.5,0,0,0-14.479,14.479v29.262A14.5,14.5,0,0,0,128.6,171.986h29.262a14.5,14.5,0,0,0,14.479-14.479V128.241A14.5,14.5,0,0,0,157.866,113.766Zm-38.49,14.475a9.238,9.238,0,0,1,9.228-9.228h29.262a9.238,9.238,0,0,1,9.228,9.228v14.693l-2.847-2.494a7.338,7.338,0,0,0-10.214.488c-2.142,2.277-5.221,5.552-7.716,8.226-1.234,1.328-2.329,2.506-3.113,3.365-.019.019-.034.038-.053.06l-2.378-1.962a7.326,7.326,0,0,0-9.918.5l-10.469,10.574a9.135,9.135,0,0,1-1.009-4.186V128.241Zm4.629,37.259,10.582-10.687a2.1,2.1,0,0,1,2.843-.143l14.629,12.063H128.6a9.231,9.231,0,0,1-4.6-1.234Zm36,.975-12.8-10.556c1.38-1.508,4.329-4.685,10.646-11.392a2.1,2.1,0,0,1,2.93-.139l6.309,5.533v7.585a9.234,9.234,0,0,1-7.082,8.969Z" transform="translate(0 0)" fill="#34332e"></path>
    <path id="路径_688" d="M322.2,303.149m-4.295,0a4.295,4.295,0,1,0,4.295-4.295A4.295,4.295,0,0,0,317.9,303.149Z" transform="translate(-188.847 -171.528)" fill="#fa3543"></path>
  </g>
</svg>
