<?xml version="1.0" encoding="UTF-8"?>
<svg xmlns="http://www.w3.org/2000/svg" width="58.033" height="60.43" viewBox="0 0 58.033 60.43">
  <g id="好友认证" transform="translate(-42 -46.499)">
    <path id="路径_622" d="M133.349,124.908h1.044a2.292,2.292,0,0,0,.326-.023,16.5,16.5,0,1,0-11.075-3.551,27.2,27.2,0,0,0-17.455,25.359,5.7,5.7,0,0,0,5.693,5.693h19.536a2.687,2.687,0,0,0,0-5.374H111.882a.318.318,0,0,1-.319-.319,21.811,21.811,0,0,1,21.785-21.785Zm.526-27.574a11.1,11.1,0,1,1-11.1,11.1,11.113,11.113,0,0,1,11.1-11.1Z" transform="translate(-64.189 -45.457)" fill="#342f2e"></path>
    <path id="路径_623" d="M165.383,128.056a2.692,2.692,0,0,0-3.781.4L151.514,140.9l-4.361-4.1a2.686,2.686,0,1,0-3.678,3.916l6.468,6.077a2.693,2.693,0,0,0,1.839.729,1.389,1.389,0,0,0,.18-.008,2.682,2.682,0,0,0,1.9-.99l11.908-14.7a2.676,2.676,0,0,0-.392-3.774Z" transform="translate(-66.345 -44.457)" fill="#fa3543"></path>
  </g>
</svg>
