<?xml version="1.0" encoding="UTF-8"?>
<svg xmlns="http://www.w3.org/2000/svg" width="61.033" height="58.989" viewBox="0 0 61.033 58.989">
  <g id="定位" transform="translate(-94.728 -103.629)">
    <path id="路径_699" d="M390.289,286.5a9.925,9.925,0,1,0-9.924-9.928,9.936,9.936,0,0,0,9.924,9.928Zm0-14.643a4.715,4.715,0,1,1-4.715,4.715A4.721,4.721,0,0,1,390.289,271.856Z" transform="translate(-264.877 -151.172)" fill="#fa3543"></path>
    <path id="路径_700" d="M154.465,151.481l-4.968-7.037a7.072,7.072,0,0,0-5.664-2.984A27.971,27.971,0,0,0,148.28,126.5a22.867,22.867,0,0,0-45.734,0,27.976,27.976,0,0,0,4.54,14.963h-.629a7.035,7.035,0,0,0-5.883,3.159l-4.666,7.037a7.059,7.059,0,0,0,5.883,10.963H148.7a7.063,7.063,0,0,0,5.768-11.138Zm-29.052-42.642A17.677,17.677,0,0,1,143.07,126.5c0,10.639-7.852,18.5-14.438,23.213a5.62,5.62,0,0,1-6.6-.086c-5.333-3.9-14.278-12.079-14.278-23.128a17.682,17.682,0,0,1,17.661-17.657Zm24.929,47.569a1.811,1.811,0,0,1-1.645,1H101.79a1.849,1.849,0,0,1-1.541-2.873l4.666-7.033a1.858,1.858,0,0,1,1.544-.83h4.559a50.942,50.942,0,0,0,7.945,7.163,10.954,10.954,0,0,0,6.46,2.121,10.691,10.691,0,0,0,6.248-2.006,51.136,51.136,0,0,0,8.228-7.279c.019,0,.037,0,.06,0h3.773a1.853,1.853,0,0,1,1.511.785l4.968,7.037a1.8,1.8,0,0,1,.13,1.909Z" fill="#34332e"></path>
  </g>
</svg>
