<?xml version="1.0" encoding="UTF-8"?>
<svg xmlns="http://www.w3.org/2000/svg" width="57.896" height="62.355" viewBox="0 0 57.896 62.355">
  <g id="应用" transform="translate(-118.673 -85.552)">
    <path id="路径_693" d="M169.745,96.274l-14.9-8.8a13.918,13.918,0,0,0-13.88-.138L125.9,95.844a13.922,13.922,0,0,0-7.058,11.953l-.168,17.3a13.917,13.917,0,0,0,6.822,12.088l14.9,8.8a13.92,13.92,0,0,0,13.88.138l15.067-8.5a13.922,13.922,0,0,0,7.058-11.953l.168-17.3a13.928,13.928,0,0,0-6.822-12.092Zm1.415,29.34a8.665,8.665,0,0,1-4.394,7.44l-15.067,8.5a8.659,8.659,0,0,1-8.641-.086l-14.9-8.8a8.668,8.668,0,0,1-4.248-7.526l.168-17.3a8.665,8.665,0,0,1,4.394-7.44l15.067-8.5a8.665,8.665,0,0,1,8.641.086l14.9,8.8a8.668,8.668,0,0,1,4.248,7.526l-.168,17.3Z" transform="translate(0 0)" fill="#34332e"></path>
    <path id="路径_694" d="M324.22,363.676,312.63,370.5l-12.013-6.845a2.621,2.621,0,1,0-2.593,4.554l11.792,6.718v13.218a2.62,2.62,0,1,0,5.239,0V375.154l11.822-6.965a2.619,2.619,0,1,0-2.657-4.513Z" transform="translate(-165.013 -257.459)" fill="#fa3543"></path>
  </g>
</svg>
