<?xml version="1.0" encoding="UTF-8"?>
<svg xmlns="http://www.w3.org/2000/svg" width="52.276" height="62.303" viewBox="0 0 52.276 62.303">
  <g id="我的" transform="translate(-1361.326 -328.216)">
    <path id="路径_705" d="M195.047,152.884a26.138,26.138,0,1,1,26.138-26.138A26.167,26.167,0,0,1,195.047,152.884Zm0-46.815a20.676,20.676,0,1,0,20.676,20.676A20.7,20.7,0,0,0,195.047,106.07Zm21.035,56.841H174.012a2.731,2.731,0,0,1,0-5.462h42.075a2.731,2.731,0,1,1,0,5.462Z" transform="translate(1192.417 227.608)" fill="#34332e"></path>
    <path id="路径_706" d="M3491.29,1372.419c.166-.083-13.171,3.976-9.444,17.313" transform="translate(-2103.827 -1030.365)" fill="none" stroke="#fa3543" stroke-linecap="round" stroke-width="4.5"></path>
  </g>
</svg>
