<?xml version="1.0" encoding="UTF-8"?>
<svg xmlns="http://www.w3.org/2000/svg" width="44.002" height="51.608" viewBox="0 0 44.002 51.608">
  <g id="手机" transform="translate(-149.862 -83.968)">
    <path id="路径_668" d="M183.138,135.576H160.584a10.733,10.733,0,0,1-10.722-10.722V94.69a10.733,10.733,0,0,1,10.722-10.722h22.557A10.733,10.733,0,0,1,193.864,94.69v30.163a10.736,10.736,0,0,1-10.725,10.722ZM160.584,88.309A6.388,6.388,0,0,0,154.2,94.69v30.163a6.388,6.388,0,0,0,6.381,6.381h22.557a6.388,6.388,0,0,0,6.381-6.381V94.69a6.388,6.388,0,0,0-6.381-6.381Z" fill="#34332e"></path>
    <path id="路径_669" d="M319.77,252.024H300.235a3.331,3.331,0,0,1-3.327-3.327V228.607a3.331,3.331,0,0,1,3.327-3.327H319.77a3.331,3.331,0,0,1,3.327,3.327V248.7a3.331,3.331,0,0,1-3.327,3.327Zm-18.52-4.341h17.509V229.618H301.249v18.064Z" transform="translate(-138.141 -132.755)" fill="#34332e"></path>
    <path id="路径_670" d="M464.305,716.875m-3.147,0a3.147,3.147,0,1,0,3.147-3.147A3.147,3.147,0,0,0,461.158,716.875Z" transform="translate(-292.444 -591.622)" fill="#fa3543"></path>
  </g>
</svg>
