<?xml version="1.0" encoding="UTF-8"?>
<svg xmlns="http://www.w3.org/2000/svg" width="55.379" height="52.174" viewBox="0 0 55.379 52.174">
  <g id="打印" transform="translate(-103.936 -121.651)">
    <path id="路径_715" d="M153.186,145.313V130.174a8.533,8.533,0,0,0-8.523-8.523H118.59a8.533,8.533,0,0,0-8.523,8.523v15.139a7.707,7.707,0,0,0-6.132,7.533v13.288a7.7,7.7,0,0,0,7.692,7.692h39.994a7.7,7.7,0,0,0,7.692-7.692V152.846a7.7,7.7,0,0,0-6.128-7.533ZM118.59,126.5h26.073a3.683,3.683,0,0,1,3.678,3.678v14.98h-4.713a5.062,5.062,0,0,0-4.46,2.633,8.574,8.574,0,0,1-15.083,0,5.059,5.059,0,0,0-4.46-2.633h-4.713V130.174a3.68,3.68,0,0,1,3.678-3.675Zm35.88,39.634a2.85,2.85,0,0,1-2.848,2.848H111.628a2.85,2.85,0,0,1-2.848-2.848V152.846A2.85,2.85,0,0,1,111.628,150h8a.23.23,0,0,1,.2.1,13.42,13.42,0,0,0,23.6,0,.23.23,0,0,1,.2-.1h8a2.85,2.85,0,0,1,2.848,2.848Z" transform="translate(0 0)" fill="#34332e"></path>
    <path id="路径_716" d="M386.115,265.094h12.81a2.422,2.422,0,1,0,0-4.844h-12.81a2.422,2.422,0,1,0,0,4.844Z" transform="translate(-260.85 -129.232)" fill="#fa3543"></path>
  </g>
</svg>
