<?xml version="1.0" encoding="UTF-8"?>
<svg xmlns="http://www.w3.org/2000/svg" width="60.966" height="60.966" viewBox="0 0 60.966 60.966">
  <g id="扫一扫" transform="translate(-282.356 -188.468)">
    <path id="路径_658" d="M116.567,137.551a2.747,2.747,0,0,1-2.749-2.749v-3.876a17.334,17.334,0,0,1,17.314-17.314h5.293a2.749,2.749,0,0,1,0,5.5h-5.29a11.83,11.83,0,0,0-11.816,11.816V134.8a2.753,2.753,0,0,1-2.753,2.749Zm19.858,37.027h-5.29a17.334,17.334,0,0,1-17.314-17.314v-4.379a2.749,2.749,0,0,1,5.5,0v4.379a11.83,11.83,0,0,0,11.816,11.816h5.29a2.749,2.749,0,1,1,0,5.5Zm21.044,0h-4.595a2.749,2.749,0,1,1,0-5.5h4.595a11.83,11.83,0,0,0,11.816-11.816v-4.379a2.749,2.749,0,0,1,5.5,0v4.379A17.334,17.334,0,0,1,157.47,174.578Zm14.565-37.027a2.747,2.747,0,0,1-2.749-2.749v-3.876A11.83,11.83,0,0,0,157.47,119.11h-4.595a2.749,2.749,0,0,1,0-5.5h4.595a17.334,17.334,0,0,1,17.314,17.314V134.8A2.747,2.747,0,0,1,172.035,137.551Z" transform="translate(168.538 74.855)" fill="#34332e"></path>
    <path id="路径_659" d="M172.035,146.846H116.567a2.749,2.749,0,0,1,0-5.5h55.468a2.749,2.749,0,1,1,0,5.5Z" transform="translate(168.538 74.853)" fill="#fa3543"></path>
  </g>
</svg>
