<?xml version="1.0" encoding="UTF-8"?>
<svg xmlns="http://www.w3.org/2000/svg" width="54.47" height="51.603" viewBox="0 0 54.47 51.603">
  <g id="拍照" transform="translate(-106.666 -128)">
    <path id="路径_958" d="M149.333,216.537h48.736V179.268H186.6l-4.3-8.6H165.1l-4.3,8.6H149.333v37.269Z" transform="translate(-39.8 -39.8)" fill="#555"></path>
    <path id="路径_959" d="M122.736,129.585A2.867,2.867,0,0,1,125.3,128h17.2a2.867,2.867,0,0,1,2.564,1.585l3.508,7.015h9.7a2.867,2.867,0,0,1,2.867,2.867v37.269a2.867,2.867,0,0,1-2.867,2.867H109.533a2.867,2.867,0,0,1-2.867-2.867V139.467a2.867,2.867,0,0,1,2.867-2.867h9.7l3.508-7.015Zm4.336,4.148-3.508,7.015A2.867,2.867,0,0,1,121,142.334h-8.6V173.87h43V142.334h-8.6a2.867,2.867,0,0,1-2.564-1.585l-3.508-7.015Z" fill="#555"></path>
    <path id="路径_960" d="M419.668,455.167A7.167,7.167,0,1,1,412.5,448a7.167,7.167,0,0,1,7.167,7.167Z" transform="translate(-278.599 -298.499)" fill="#fff"></path>
    <path id="路径_961" d="M372.7,411.067a4.3,4.3,0,1,0,4.3,4.3A4.3,4.3,0,0,0,372.7,411.067Zm-10.034,4.3A10.034,10.034,0,1,1,372.7,425.4,10.034,10.034,0,0,1,362.667,415.367Z" transform="translate(-238.8 -258.699)" fill="#fff"></path>
  </g>
</svg>
