<?xml version="1.0" encoding="UTF-8"?>
<svg xmlns="http://www.w3.org/2000/svg" width="66.04" height="63.656" viewBox="0 0 66.04 63.656">
  <g id="收藏" transform="translate(-31.802 -326.472)">
    <path id="路径_683" d="M104.224,165.027a8.534,8.534,0,0,1-8.387-9.966l2.135-12.451-9.045-8.815a8.516,8.516,0,0,1,4.719-14.527l12.5-1.818,5.588-11.328a8.516,8.516,0,0,1,15.273,0l5.588,11.328,12.5,1.818a8.516,8.516,0,0,1,4.719,14.527l-9.034,8.819,2.135,12.451a8.517,8.517,0,0,1-12.36,8.978l-11.181-5.878-11.181,5.878a8.526,8.526,0,0,1-3.969.984Zm15.154-12.78a2.808,2.808,0,0,1,1.294.318l12.471,6.557a2.961,2.961,0,0,0,4.294-3.12l-2.381-13.888a2.781,2.781,0,0,1,.8-2.461l10.089-9.835a2.96,2.96,0,0,0-1.639-5.049l-13.943-2.024a2.774,2.774,0,0,1-2.092-1.52l-6.235-12.637a2.961,2.961,0,0,0-5.311,0l-6.235,12.637a2.774,2.774,0,0,1-2.092,1.52l-13.943,2.028a2.96,2.96,0,0,0-1.639,5.049l10.089,9.835a2.777,2.777,0,0,1,.8,2.461l-2.381,13.888a2.961,2.961,0,0,0,4.294,3.12l12.475-6.557a2.737,2.737,0,0,1,1.29-.322Z" transform="translate(-54.547 225.096)" fill="#34332e"></path>
    <path id="路径_684" d="M3488.756,1374.141h0c.016.021-12.231,2.507-8.508,15.83" transform="translate(-3424.133 -1020.85)" fill="none" stroke="#fa3543" stroke-linecap="round" stroke-width="4.5"></path>
  </g>
</svg>
