<?xml version="1.0" encoding="UTF-8"?>
<svg xmlns="http://www.w3.org/2000/svg" width="57.829" height="57.829" viewBox="0 0 57.829 57.829">
  <g id="数据" transform="translate(-118.426 -108.954)">
    <path id="路径_685" d="M162.183,166.783H132.5a14.088,14.088,0,0,1-14.073-14.073V123.027A14.091,14.091,0,0,1,132.5,108.954h29.684a14.09,14.09,0,0,1,14.073,14.073v29.684a14.086,14.086,0,0,1-14.073,14.073ZM132.5,114.1a8.94,8.94,0,0,0-8.93,8.93v29.684a8.94,8.94,0,0,0,8.93,8.93h29.684a8.94,8.94,0,0,0,8.93-8.93V123.027a8.94,8.94,0,0,0-8.93-8.93H132.5Z" transform="translate(0 0)" fill="#34332e"></path>
    <path id="路径_686" d="M329.845,383.082a2.569,2.569,0,0,1-2.571-2.571V356.67a2.571,2.571,0,1,1,5.143,0v23.84A2.574,2.574,0,0,1,329.845,383.082Zm-12.24,0a2.569,2.569,0,0,1-2.571-2.571V370.335a2.571,2.571,0,0,1,5.143,0V380.51A2.574,2.574,0,0,1,317.605,383.082Zm24.479,0a2.569,2.569,0,0,1-2.571-2.571V364.99a2.571,2.571,0,0,1,5.143,0v15.516a2.575,2.575,0,0,1-2.571,2.575Z" transform="translate(-182.502 -227.557)" fill="#fa3543"></path>
  </g>
</svg>
