<?xml version="1.0" encoding="UTF-8"?>
<svg xmlns="http://www.w3.org/2000/svg" width="54.473" height="51.857" viewBox="0 0 54.473 51.857">
  <g id="文件夹" transform="translate(-40.602 -479.662)">
    <path id="路径_713" d="M147.266,128.483H136.858c-.113,0-.222,0-.335-.014a4.228,4.228,0,0,1-2.144-.785l-6.512-4.692a9.124,9.124,0,0,0-1.209-.734,8.958,8.958,0,0,0-4.063-.966h-4.753a12.539,12.539,0,0,0-12.525,12.525v26.808a12.539,12.539,0,0,0,12.525,12.525h29.423a12.539,12.539,0,0,0,12.525-12.525V141.008A12.539,12.539,0,0,0,147.266,128.483ZM110.1,133.817a7.751,7.751,0,0,1,7.744-7.744H122.6a4.225,4.225,0,0,1,2.479.8l6.508,4.692a8.747,8.747,0,0,0,1.618.922,8.964,8.964,0,0,0,3.654.779h10.408c.246,0,.488.014.727.034.014,0,.027,0,.041,0,.229.024.454.058.68.1a.606.606,0,0,1,.068.014c.215.044.43.1.639.157a.74.74,0,0,1,.082.024c.2.061.406.133.6.212.031.01.058.024.089.034.195.079.382.167.57.26.031.014.058.031.089.044.184.1.362.2.539.311l.082.051c.174.113.345.232.509.359.024.017.048.038.072.058.164.13.324.263.478.406.02.017.038.038.058.055.154.147.3.3.447.458.014.017.027.031.041.048.143.164.283.335.417.509l.02.031c.137.184.263.372.382.567a6.827,6.827,0,0,1,.328.6c.007.014.014.024.02.038.1.2.184.4.263.608.007.02.017.041.024.061.075.2.143.41.2.621.007.027.017.055.024.079.055.208.1.42.14.635.007.031.01.061.017.092.034.212.061.43.079.649,0,.017,0,.034,0,.051H110.1Zm37.168,34.552H117.843a7.751,7.751,0,0,1-7.744-7.744V145.208H155.01v15.417a7.756,7.756,0,0,1-7.744,7.744Z" transform="translate(-64.716 358.37)" fill="#34332e"></path>
    <path id="路径_714" d="M363.115,690.2h-19.83a2.6,2.6,0,1,1,0-5.2h19.83a2.6,2.6,0,1,1,0,5.2Z" transform="translate(-293.183 -173.779)" fill="#fa3543"></path>
  </g>
</svg>
