<?xml version="1.0" encoding="UTF-8"?>
<svg xmlns="http://www.w3.org/2000/svg" width="55.624" height="55.624" viewBox="0 0 55.624 55.624">
  <g id="时间" transform="translate(-100.608 -99.636)">
    <path id="路径_681" d="M128.42,155.26a27.812,27.812,0,1,1,27.812-27.812A27.844,27.844,0,0,1,128.42,155.26Zm0-50.778a22.967,22.967,0,1,0,22.967,22.967A22.993,22.993,0,0,0,128.42,104.481Z" transform="translate(0 0)" fill="#34332e"></path>
    <path id="路径_682" d="M474.5,330.1H462.045a2.421,2.421,0,0,1-2.423-2.423V314.692a2.423,2.423,0,0,1,4.845,0v10.566H474.5a2.423,2.423,0,1,1,0,4.845Z" transform="translate(-334.746 -198.26)" fill="#fa3543"></path>
  </g>
</svg>
