<?xml version="1.0" encoding="UTF-8"?>
<svg xmlns="http://www.w3.org/2000/svg" width="56.978" height="62.182" viewBox="0 0 56.978 62.182">
  <g id="权限" transform="translate(-130.509 -89.997)">
    <path id="路径_640" d="M180.8,97.066a54.653,54.653,0,0,1-17.967-6.082,7.863,7.863,0,0,0-7.667.023,55.029,55.029,0,0,1-17.975,6.018,7.848,7.848,0,0,0-6.685,7.784v19.809c0,13.6,17.611,23.288,25.186,26.824a7.833,7.833,0,0,0,6.6.019c7.576-3.487,25.19-13.078,25.19-26.839V104.85a7.825,7.825,0,0,0-6.685-7.784Zm1.379,27.551c0,11-16.917,19.634-22.1,22.022a2.533,2.533,0,0,1-2.141-.008c-5.188-2.422-22.124-11.172-22.124-22.014V104.808a2.571,2.571,0,0,1,2.194-2.543,60.287,60.287,0,0,0,19.737-6.624,2.623,2.623,0,0,1,1.277-.333,2.583,2.583,0,0,1,1.251.322,59.978,59.978,0,0,0,19.733,6.681,2.546,2.546,0,0,1,2.175,2.539v19.767Z" fill="#34332e"></path>
    <path id="路径_641" d="M382,293.913a10.871,10.871,0,1,0-5.309,0c-.011,1.974,0,5.427.027,11.638a2.651,2.651,0,0,0,2.653,2.641h.011a2.651,2.651,0,0,0,2.641-2.664l-.011-2.782h2.622a2.653,2.653,0,0,0,0-5.306H382c0-1.345,0-2.573,0-3.524Zm-8.216-10.551a5.571,5.571,0,1,1,5.571,5.571A5.577,5.577,0,0,1,373.789,283.362Z" transform="translate(-220.363 -168.982)" fill="#fa3543"></path>
  </g>
</svg>
