<?xml version="1.0" encoding="UTF-8"?>
<svg xmlns="http://www.w3.org/2000/svg" width="62.355" height="62.302" viewBox="0 0 62.355 62.302">
  <g id="标签" transform="translate(-95.091 -90.012)">
    <path id="路径_701" d="M128.041,152.314a12.334,12.334,0,0,1-8.778-3.637L97.917,127.33a9.667,9.667,0,0,1-2.7-8.38L98.089,101.4a9.671,9.671,0,0,1,7.791-7.933l18.084-3.3a9.646,9.646,0,0,1,8.552,2.67l21.293,21.293a12.41,12.41,0,0,1,0,17.556l-16.99,16.99a12.334,12.334,0,0,1-8.778,3.637Zm-2.348-56.948a4.353,4.353,0,0,0-.769.069l-18.084,3.3a4.307,4.307,0,0,0-3.469,3.53L100.5,119.815a4.3,4.3,0,0,0,1.2,3.729l21.346,21.346a7.055,7.055,0,0,0,9.983,0l16.99-16.99a7.055,7.055,0,0,0,0-9.983L128.726,96.625a4.269,4.269,0,0,0-3.033-1.258Z" transform="translate(0 0)" fill="#34332e"></path>
    <path id="路径_702" d="M300.537,304.575a7.776,7.776,0,1,1,7.776-7.776A7.785,7.785,0,0,1,300.537,304.575Zm0-10.2a2.421,2.421,0,1,0,2.421,2.421A2.424,2.424,0,0,0,300.537,294.378Z" transform="translate(-182.903 -184.144)" fill="#fa3543"></path>
  </g>
</svg>
