<?xml version="1.0" encoding="UTF-8"?>
<svg xmlns="http://www.w3.org/2000/svg" width="60.355" height="60.43" viewBox="0 0 60.355 60.43">
  <g id="概率" transform="translate(-105.677 -99.631)">
    <path id="路径_628" d="M136.031,160.061a30.357,30.357,0,0,1-4.322-60.4,2.643,2.643,0,1,1,.747,5.232,25.071,25.071,0,1,0,28.324,28.852,2.643,2.643,0,1,1,5.217.846,30.348,30.348,0,0,1-29.966,25.473Z" fill="#34332e"></path>
    <path id="路径_629" d="M597.37,133.219H577.26a2.641,2.641,0,0,1-2.643-2.642v-20.49a2.642,2.642,0,0,1,3.292-2.563,30.228,30.228,0,0,1,22.031,22.446,2.647,2.647,0,0,1-2.571,3.25ZM579.9,127.934h13.9a24.94,24.94,0,0,0-13.9-14.205Z" transform="translate(-434.366 -7.235)" fill="#fa3543"></path>
  </g>
</svg>
