<?xml version="1.0" encoding="UTF-8"?>
<svg xmlns="http://www.w3.org/2000/svg" width="61.538" height="60.559" viewBox="0 0 61.538 60.559">
  <g id="活动" transform="translate(-514 -46.37)">
    <path id="路径_630" d="M139.259,102.106c-11.26-.255-29.739-.064-47.509,0a7.022,7.022,0,0,0-7.014,7.014v4.587a7.024,7.024,0,0,0,4.453,6.524v17.125a10.586,10.586,0,0,0,10.575,10.575h31.719a10.586,10.586,0,0,0,10.575-10.575V120.134a7.016,7.016,0,0,0,4.215-6.427V109.12a7.022,7.022,0,0,0-7.014-7.014Zm1.81,7.014v4.587a1.812,1.812,0,0,1-1.81,1.81H118.365V107.31h20.894a1.812,1.812,0,0,1,1.81,1.81Zm-51.13,0a1.812,1.812,0,0,1,1.81-1.81h21.411v8.208H91.75a1.812,1.812,0,0,1-1.81-1.81Zm4.453,28.236V120.722h18.768v22.006h-13.4a5.376,5.376,0,0,1-5.371-5.371Zm42.461,0a5.376,5.376,0,0,1-5.371,5.371H118.365V120.722h18.489Z" transform="translate(429.264 -41.002)" fill="#34332e"></path>
    <path id="路径_631" d="M131.81,102.106h0a9.792,9.792,0,0,0,1.163-4.632v-.138a9.847,9.847,0,0,0-9.836-9.836H123a9.805,9.805,0,0,0-7.234,3.182,9.805,9.805,0,0,0-7.234-3.182H108.4a9.847,9.847,0,0,0-9.836,9.836v.138a8.424,8.424,0,0,0,1.16,4.287l.483.443c-3.87,0,35.473-.1,31.607-.1ZM123,92.7h.138a4.637,4.637,0,0,1,4.632,4.632v.138a4.637,4.637,0,0,1-4.632,4.632h-4.769V97.337A4.638,4.638,0,0,1,123,92.7Zm-19.24,4.769v-.138a4.637,4.637,0,0,1,4.632-4.632h.138a4.637,4.637,0,0,1,4.632,4.632V102.1H108.7a4.907,4.907,0,0,1-4.942-4.632Z" transform="translate(429.002 -41.131)" fill="#fa3543"></path>
  </g>
</svg>
