<?xml version="1.0" encoding="UTF-8"?>
<svg xmlns="http://www.w3.org/2000/svg" width="56.14" height="55.624" viewBox="0 0 56.14 55.624">
  <g id="添加好友" transform="translate(-110.387 -91.956)">
    <path id="路径_675" d="M135.387,122.287h.961a2.107,2.107,0,0,0,.3-.021A15.184,15.184,0,1,0,126.454,119a25.037,25.037,0,0,0-16.067,23.342,5.245,5.245,0,0,0,5.24,5.24h17.982a2.473,2.473,0,1,0,0-4.947H115.628a.293.293,0,0,1-.293-.293,20.076,20.076,0,0,1,20.052-20.052Zm.481-25.381a10.217,10.217,0,1,1-10.215,10.215,10.229,10.229,0,0,1,10.215-10.215Z" transform="translate(0 0)" fill="#34332e"></path>
    <path id="路径_676" d="M583.614,503.665h-7.572v-7.572a2.473,2.473,0,1,0-4.947,0v7.572h-7.572a2.473,2.473,0,0,0,0,4.947h7.572v7.572a2.473,2.473,0,0,0,4.947,0v-7.572h7.572a2.473,2.473,0,0,0,0-4.947Z" transform="translate(-419.56 -373.943)" fill="#fa3543"></path>
  </g>
</svg>
