<?xml version="1.0" encoding="UTF-8"?>
<svg xmlns="http://www.w3.org/2000/svg" width="61.904" height="61.904" viewBox="0 0 61.904 61.904">
  <g id="添加" transform="translate(-100.557 -100.557)">
    <path id="路径_697" d="M131.509,100.557a30.952,30.952,0,1,0,30.952,30.952A30.988,30.988,0,0,0,131.509,100.557Zm0,56.512a25.56,25.56,0,1,1,25.56-25.56A25.589,25.589,0,0,1,131.509,157.069Z" transform="translate(0 0)" fill="#34332e"></path>
    <path id="路径_698" d="M336.077,313.56H325.962V303.445a2.7,2.7,0,1,0-5.392,0V313.56H310.459a2.7,2.7,0,0,0,0,5.392h10.115v10.115a2.7,2.7,0,0,0,5.392,0V318.952h10.115a2.7,2.7,0,1,0,0-5.392Z" transform="translate(-191.618 -185.132)" fill="#fa3543"></path>
  </g>
</svg>
