<?xml version="1.0" encoding="UTF-8"?>
<svg xmlns="http://www.w3.org/2000/svg" width="60.355" height="57.904" viewBox="0 0 60.355 57.904">
  <g id="相机" transform="translate(-105.779 -122.061)">
    <path id="路径_689" d="M150.994,232.294H120.927a15.163,15.163,0,0,0-15.148,15.144V266.85a15.161,15.161,0,0,0,15.148,15.144H150.99a15.16,15.16,0,0,0,15.144-15.144V247.442A15.158,15.158,0,0,0,150.994,232.294ZM160.8,266.85a9.819,9.819,0,0,1-9.809,9.809H120.927a9.822,9.822,0,0,1-9.813-9.809V247.442a9.82,9.82,0,0,1,9.813-9.809H150.99a9.819,9.819,0,0,1,9.809,9.809V266.85Z" transform="translate(0 -102.028)" fill="#34332e"></path>
    <path id="路径_690" d="M366.888,143.5A11.611,11.611,0,1,0,378.5,155.115,11.625,11.625,0,0,0,366.888,143.5Zm0,17.888a6.276,6.276,0,1,1,6.276-6.276A6.284,6.284,0,0,1,366.888,161.392Zm-7.031-34h14.058a2.668,2.668,0,1,0,0-5.335H359.857a2.668,2.668,0,0,0,0,5.335Z" transform="translate(-230.928)" fill="#fa3543"></path>
  </g>
</svg>
