<?xml version="1.0" encoding="UTF-8"?>
<svg xmlns="http://www.w3.org/2000/svg" width="67.576" height="60.43" viewBox="0 0 67.576 60.43">
  <g id="等级" transform="translate(-275.745 -46.499)">
    <path id="路径_626" d="M129.413,122.573h-37.6a5.641,5.641,0,0,0-5.635,5.635v18.8a24.461,24.461,0,0,0,21.635,24.266V177.4h-7.9a2.8,2.8,0,0,0,0,5.6h21.391a2.8,2.8,0,0,0,0-5.6h-7.9v-6.131a24.467,24.467,0,0,0,21.635-24.266v-18.8a5.643,5.643,0,0,0-5.635-5.635Zm.036,24.434a18.836,18.836,0,0,1-37.671,0v-18.8a.036.036,0,0,1,.036-.036h37.6a.036.036,0,0,1,.036.036v18.8Z" transform="translate(198.918 -76.074)" fill="#34332e"></path>
    <path id="路径_627" d="M79.548,126.2a2.8,2.8,0,0,0-2.8,2.8v12.2a2.8,2.8,0,0,0,5.6,0V129A2.8,2.8,0,0,0,79.548,126.2Zm61.978,0a2.8,2.8,0,0,0-2.8,2.8v12.2a2.8,2.8,0,0,0,5.6,0V129A2.8,2.8,0,0,0,141.526,126.2Z" transform="translate(198.996 -76.701)" fill="#fa3543"></path>
  </g>
</svg>
