<?xml version="1.0" encoding="UTF-8"?>
<svg xmlns="http://www.w3.org/2000/svg" width="56.157" height="58.683" viewBox="0 0 56.157 58.683">
  <g id="编辑" transform="translate(-133.427 -110.899)">
    <path id="路径_703" d="M186.95,146.019a2.632,2.632,0,0,0-2.634,2.634v6.1a9.57,9.57,0,0,1-9.559,9.559h-26.5a9.57,9.57,0,0,1-9.559-9.559V125.727a9.57,9.57,0,0,1,9.559-9.559h4.817a2.634,2.634,0,0,0,0-5.269h-4.817a14.845,14.845,0,0,0-14.828,14.828v29.027a14.845,14.845,0,0,0,14.828,14.828h26.5a14.845,14.845,0,0,0,14.828-14.828v-6.1a2.633,2.633,0,0,0-2.634-2.638Z" fill="#34332e"></path>
    <path id="路径_704" d="M306.5,166.308a2.621,2.621,0,0,0,1.916-.828l24.473-25.949a2.636,2.636,0,0,0-3.835-3.617l-24.47,25.952a2.632,2.632,0,0,0,1.916,4.441Zm-11.1,7.128a2.634,2.634,0,0,0,0,5.269H322.35a2.634,2.634,0,0,0,0-5.269Z" transform="translate(-147.623 -22.412)" fill="#fa3543"></path>
  </g>
</svg>
