<?xml version="1.0" encoding="UTF-8"?>
<svg xmlns="http://www.w3.org/2000/svg" width="62.861" height="62.861" viewBox="0 0 62.861 62.861">
  <g id="视频" transform="translate(-100.557 -99.635)">
    <path id="路径_695" d="M131.988,162.5a31.431,31.431,0,1,1,31.431-31.431A31.467,31.467,0,0,1,131.988,162.5Zm0-57.385a25.955,25.955,0,1,0,25.955,25.955,25.985,25.985,0,0,0-25.955-25.955Z" transform="translate(0)" fill="#34332e"></path>
    <path id="路径_696" d="M384.144,351.343a6.4,6.4,0,0,1-3.2-.864,6.319,6.319,0,0,1-3.2-5.534V331.2a6.391,6.391,0,0,1,9.586-5.534l11.9,6.872a6.39,6.39,0,0,1,0,11.069l-11.9,6.872A6.411,6.411,0,0,1,384.144,351.343Zm0-21.062a.91.91,0,0,0-.458.129.881.881,0,0,0-.458.79v13.74a.915.915,0,0,0,1.373.79l11.9-6.872a.911.911,0,0,0,0-1.58L384.6,330.406a.887.887,0,0,0-.454-.125Z" transform="translate(-256.021 -207.964)" fill="#fa3543"></path>
  </g>
</svg>
