<?xml version="1.0" encoding="UTF-8"?>
<svg xmlns="http://www.w3.org/2000/svg" width="58.855" height="56.13" viewBox="0 0 58.855 56.13">
  <g id="计划" transform="translate(-100.096 -106.7)">
    <path id="路径_652" d="M146.152,110.661h-4.607v-1.4a2.56,2.56,0,0,0-5.119,0v1.4H122.588v-1.4a2.56,2.56,0,0,0-5.119,0v1.4h-4.575a12.813,12.813,0,0,0-12.8,12.8v26.573a12.813,12.813,0,0,0,12.8,12.8h33.258a12.813,12.813,0,0,0,12.8-12.8V123.459A12.813,12.813,0,0,0,146.152,110.661Zm-33.258,5.119h4.575v1.8a2.56,2.56,0,1,0,5.119,0v-1.8h13.837v1.8a2.56,2.56,0,0,0,5.119,0v-1.8h4.6a7.688,7.688,0,0,1,7.679,7.679v.75H105.215v-.75a7.688,7.688,0,0,1,7.679-7.679Zm33.258,41.931H112.894a7.688,7.688,0,0,1-7.679-7.679v-20.7h48.616v20.7a7.688,7.688,0,0,1-7.679,7.679Z" transform="translate(0)" fill="#34332e"></path>
    <path id="路径_653" d="M310,502.209H280.269a2.56,2.56,0,0,0,0,5.119H310a2.56,2.56,0,1,0,0-5.119Zm-29.729-4.9h14.184a2.56,2.56,0,0,0,0-5.119H280.269a2.56,2.56,0,0,0,0,5.119Z" transform="translate(-164.928 -357.954)" fill="#fa3543"></path>
  </g>
</svg>
