<?xml version="1.0" encoding="UTF-8"?>
<svg xmlns="http://www.w3.org/2000/svg" width="55.989" height="59.946" viewBox="0 0 55.989 59.946">
  <g id="订单" transform="translate(-129.894 -98.714)">
    <path id="路径_707" d="M168.883,98.714H146.894a17.019,17.019,0,0,0-17,17v25.945a17.019,17.019,0,0,0,17,17h21.988a17.019,17.019,0,0,0,17-17V115.714a17.019,17.019,0,0,0-17-17Zm11.769,42.946a11.782,11.782,0,0,1-11.769,11.769H146.894a11.782,11.782,0,0,1-11.769-11.769V115.714a11.782,11.782,0,0,1,11.769-11.769h21.988a11.782,11.782,0,0,1,11.769,11.769v25.945Z" transform="translate(0 0)" fill="#34332e"></path>
    <path id="路径_708" d="M333.711,361.062H308.33a2.615,2.615,0,1,0,0,5.231h25.381a2.615,2.615,0,1,0,0-5.231Zm-8.276,15.379h-17.1a2.615,2.615,0,1,0,0,5.231h17.1a2.615,2.615,0,1,0,0-5.231Z" transform="translate(-162.99 -243.203)" fill="#fa3543"></path>
  </g>
</svg>
