<?xml version="1.0" encoding="UTF-8"?>
<svg xmlns="http://www.w3.org/2000/svg" width="60.059" height="60.057" viewBox="0 0 60.059 60.057">
  <g id="认证" transform="translate(-76.595 -74.65)">
    <path id="路径_717" d="M106.625,134.707a5.481,5.481,0,0,1-3.884-1.607l-5.576-5.579H89.276a5.5,5.5,0,0,1-5.495-5.495v-7.889L78.2,108.561a5.49,5.49,0,0,1,0-7.769l5.576-5.576V87.331a5.5,5.5,0,0,1,5.495-5.495h7.889l5.576-5.576a5.49,5.49,0,0,1,7.769,0l5.576,5.576h7.889a5.5,5.5,0,0,1,5.495,5.495V95.22l5.579,5.576a5.5,5.5,0,0,1,0,7.769l-5.579,5.576v7.889a5.5,5.5,0,0,1-5.495,5.495h-7.889l-5.576,5.576A5.466,5.466,0,0,1,106.625,134.707ZM89.276,86.78a.552.552,0,0,0-.551.551v8.913A2.472,2.472,0,0,1,88,97.992l-6.3,6.3a.546.546,0,0,0,0,.777l6.3,6.3a2.472,2.472,0,0,1,.724,1.748v8.913a.552.552,0,0,0,.551.551h8.91a2.472,2.472,0,0,1,1.748.724l6.3,6.3a.548.548,0,0,0,.777,0l6.3-6.3a2.472,2.472,0,0,1,1.748-.724h8.913a.552.552,0,0,0,.551-.551v-8.913a2.472,2.472,0,0,1,.724-1.748l6.3-6.3a.548.548,0,0,0,0-.777l-6.3-6.3a2.472,2.472,0,0,1-.724-1.748V87.331a.552.552,0,0,0-.551-.551h-8.913a2.472,2.472,0,0,1-1.748-.724l-6.3-6.3a.546.546,0,0,0-.777,0l-6.3,6.3a2.472,2.472,0,0,1-1.748.724Z" transform="translate(0)" fill="#34332e"></path>
    <path id="路径_718" d="M351.327,417.142a2.455,2.455,0,0,1-1.692-.671l-7.2-6.762a2.471,2.471,0,0,1,3.383-3.6l5.258,4.94,9.28-11.456a2.473,2.473,0,1,1,3.842,3.115l-10.954,13.525a2.467,2.467,0,0,1-1.752.911C351.437,417.138,351.38,417.142,351.327,417.142Z" transform="translate(-246.782 -301.677)" fill="#fa3543"></path>
  </g>
</svg>
