<?xml version="1.0" encoding="UTF-8"?>
<svg xmlns="http://www.w3.org/2000/svg" width="56.608" height="60.966" viewBox="0 0 56.608 60.966">
  <g id="设置" transform="translate(-117.239 -84.522)">
    <path id="路径_660" d="M145.378,145.487a13.532,13.532,0,0,1-6.9-1.881L123.91,135a13.612,13.612,0,0,1-6.671-11.819l.165-16.916a13.612,13.612,0,0,1,6.9-11.687l14.732-8.314a13.618,13.618,0,0,1,13.572.132L167.176,95a13.612,13.612,0,0,1,6.671,11.819l-.165,16.916a13.612,13.612,0,0,1-6.9,11.687l-14.732,8.314a13.511,13.511,0,0,1-6.671,1.749Zm.333-55.846a8.462,8.462,0,0,0-4.153,1.087l-14.732,8.317a8.472,8.472,0,0,0-4.3,7.274l-.165,16.916a8.475,8.475,0,0,0,4.153,7.359l14.567,8.6a8.475,8.475,0,0,0,8.449.084l14.732-8.314a8.472,8.472,0,0,0,4.3-7.274l.165-16.916a8.475,8.475,0,0,0-4.153-7.359l-14.567-8.606A8.449,8.449,0,0,0,145.711,89.642Z" fill="#34332e"></path>
    <path id="路径_661" d="M359.723,369.34a11.819,11.819,0,1,1,11.819-11.819A11.833,11.833,0,0,1,359.723,369.34Zm0-18.515a6.7,6.7,0,1,0,6.7,6.7A6.7,6.7,0,0,0,359.723,350.825Z" transform="translate(-214.18 -242.514)" fill="#fa3543"></path>
  </g>
</svg>
