<?xml version="1.0" encoding="UTF-8"?>
<svg xmlns="http://www.w3.org/2000/svg" width="64.114" height="60.559" viewBox="0 0 64.114 60.559">
  <g id="评论" transform="translate(-90.772 -109.475)">
    <path id="路径_644" d="M153.115,158.284a18.879,18.879,0,0,0-6.18-23.377c-.074-.05-.147-.1-.221-.143a27.758,27.758,0,0,0-28.553-25.273A27.777,27.777,0,0,0,94.13,149.472C93.04,153.519,91.842,157.543,91,160.3a5.094,5.094,0,0,0,4.865,6.587,4.949,4.949,0,0,0,1.438-.209l11.855-3.485a27.8,27.8,0,0,0,14.553,1.427,18.848,18.848,0,0,0,18.713,3.443l6.025,1.772a5.052,5.052,0,0,0,1.411.205,5,5,0,0,0,4.784-6.435c-.574-1.9-1.086-3.687-1.527-5.315ZM119.5,159.578a22.157,22.157,0,0,1-9.149-1.756,2.713,2.713,0,0,0-1.826-.1l-12.165,3.574c.919-3.008,2.175-7.257,3.276-11.437a2.74,2.74,0,0,0-.236-1.985,22.348,22.348,0,0,1,18.926-32.953,22.339,22.339,0,1,1,1.175,44.661Zm28.336-2.884a2.7,2.7,0,0,0-.237,1.985c.457,1.737,1,3.656,1.613,5.722l-6.156-1.81a2.714,2.714,0,0,0-1.826.1,13.4,13.4,0,0,1-10.789-.147,27.947,27.947,0,0,0,15.992-20.706,13.406,13.406,0,0,1,1.4,14.852Z" transform="translate(0 0)" fill="#34332e"></path>
    <path id="路径_645" d="M298.036,398.9a2.712,2.712,0,0,0-2.714,2.714V404.8a2.714,2.714,0,1,0,5.427,0v-3.191A2.714,2.714,0,0,0,298.036,398.9Zm18.066,0a2.712,2.712,0,0,0-2.714,2.714V404.8a2.714,2.714,0,1,0,5.427,0v-3.191A2.714,2.714,0,0,0,316.1,398.9Z" transform="translate(-189.062 -267.509)" fill="#fa3543"></path>
  </g>
</svg>
