<?xml version="1.0" encoding="UTF-8"?>
<svg xmlns="http://www.w3.org/2000/svg" width="55.631" height="55.631" viewBox="0 0 55.631 55.631">
  <g id="趋势" transform="translate(-111.565 -105.114)">
    <path id="路径_664" d="M153.658,160.745H125.1a13.555,13.555,0,0,1-13.537-13.538V118.651A13.555,13.555,0,0,1,125.1,105.114h28.556A13.555,13.555,0,0,1,167.2,118.651v28.556A13.555,13.555,0,0,1,153.658,160.745ZM125.1,110.061a8.6,8.6,0,0,0-8.59,8.59v28.556a8.6,8.6,0,0,0,8.59,8.59h28.556a8.6,8.6,0,0,0,8.59-8.59V118.651a8.6,8.6,0,0,0-8.59-8.59Z" transform="translate(0 0)" fill="#34332e"></path>
    <path id="路径_665" d="M269.746,398.37a2.474,2.474,0,0,1-1.724-4.247l9.834-9.555a4.264,4.264,0,0,1,5.94.028l5.382,5.332,7.612-7.993a2.474,2.474,0,1,1,3.583,3.414l-8.106,8.516a4.209,4.209,0,0,1-3.011,1.318,4.258,4.258,0,0,1-3.05-1.23l-5.4-5.354-9.336,9.075a2.481,2.481,0,0,1-1.724.7Z" transform="translate(-144.962 -257.001)" fill="#fa3543"></path>
  </g>
</svg>
