<?xml version="1.0" encoding="UTF-8"?>
<svg xmlns="http://www.w3.org/2000/svg" width="62.292" height="62.292" viewBox="0 0 62.292 62.292">
  <g id="钱包" transform="translate(-109.671 -109.005)">
    <path id="路径_656" d="M156.8,109H124.829a15.178,15.178,0,0,0-15.158,15.158v31.975A15.178,15.178,0,0,0,124.829,171.3H156.8a15.175,15.175,0,0,0,15.158-15.158V124.159A15.174,15.174,0,0,0,156.8,109Zm0,56.748H124.829a9.63,9.63,0,0,1-9.619-9.619V124.159a9.63,9.63,0,0,1,9.619-9.619H156.8a9.63,9.63,0,0,1,9.619,9.619v2.5H151.538a13.493,13.493,0,1,0,0,26.985h14.885v2.5a9.629,9.629,0,0,1-9.619,9.615Zm9.619-17.655H151.538a7.953,7.953,0,1,1,0-15.906h14.885V148.1Z" transform="translate(0 0)" fill="#34332e"></path>
    <path id="路径_657" d="M607.271,468.73a3.957,3.957,0,1,0-3.548-4.327A3.957,3.957,0,0,0,607.271,468.73Z" transform="translate(-455.853 -324.641)" fill="#fa3543"></path>
  </g>
</svg>
