<?xml version="1.0" encoding="UTF-8"?>
<svg xmlns="http://www.w3.org/2000/svg" width="59.411" height="59.64" viewBox="0 0 59.411 59.64">
  <g id="首页" transform="translate(-103.68 -100.07)">
    <path id="路径_662" d="M150.868,159.709H115.9a12.235,12.235,0,0,1-12.223-12.223V125.521a12.29,12.29,0,0,1,4.843-9.742l17.482-13.241a12.268,12.268,0,0,1,14.76,0l17.482,13.241a12.279,12.279,0,0,1,4.843,9.742v21.965a12.235,12.235,0,0,1-12.223,12.223Zm-17.482-54.445a7.014,7.014,0,0,0-4.242,1.419l-17.479,13.241a7.06,7.06,0,0,0-2.782,5.6v21.965a7.03,7.03,0,0,0,7.023,7.023h34.965a7.03,7.03,0,0,0,7.023-7.023V125.521a7.055,7.055,0,0,0-2.782-5.6l-17.482-13.241a7.025,7.025,0,0,0-4.245-1.419Z" fill="#34332e"></path>
    <path id="路径_663" d="M363.115,690.2h-19.83a2.6,2.6,0,1,1,0-5.2h19.83a2.6,2.6,0,1,1,0,5.2Z" transform="translate(-219.812 -542.503)" fill="#fa3543"></path>
  </g>
</svg>
