<?xml version="1.0" encoding="UTF-8"?>
<svg xmlns="http://www.w3.org/2000/svg" width="113.3" height="113.271" viewBox="0 0 113.3 113.271">
  <g id="个人定制" transform="translate(-83.139 -104.35)">
    <path id="路径_559" d="M223.165,173.538l-3.773-3.773c-5.053-5.053-8.069-5.053-13.108,0l-6.254,6.241,16.895,16.882,6.241-6.241C228.217,181.606,228.217,178.59,223.165,173.538Zm0,0M124.8,262.371l31.178-8.735,3.225-3.225-21.947-21.947-3.264,3.251Zm0,0,24.454-35.6,17.626,16.307,42.889-42.9-17.613-16.307Z" transform="translate(-35.299 -52.927)" fill="#f9b5a0"></path>
    <path id="路径_560" d="M105.555,212.33a2.885,2.885,0,0,1-2.768-3.721l9.191-30.656a2.975,2.975,0,0,1,.731-1.214l3.264-3.251a2.9,2.9,0,0,1,4.087,0L142,195.435a2.9,2.9,0,0,1,0,4.087l-3.225,3.225a2.967,2.967,0,0,1-1.266.744l-31.178,8.735A2.552,2.552,0,0,1,105.555,212.33Zm11.75-32.014-7.481,24.937,25.394-7.116.653-.653-17.861-17.874Zm30.329,12.73a2.832,2.832,0,0,1-2.037-.849l-21.96-21.947a2.909,2.909,0,0,1-.849-2.037,2.832,2.832,0,0,1,.849-2.037l42.9-42.9a2.909,2.909,0,0,1,2.037-.849,2.832,2.832,0,0,1,2.037.849l21.947,21.947a2.9,2.9,0,0,1,0,4.087L149.672,192.2A2.909,2.909,0,0,1,147.635,193.046ZM129.761,168.2l17.861,17.861,38.816-38.816-17.861-17.861Zm67.918-25.342a2.832,2.832,0,0,1-2.037-.849l-21.96-21.934a2.9,2.9,0,0,1,0-4.087l6.241-6.254c2.3-2.3,5.1-4.635,8.6-4.635s6.306,2.337,8.6,4.635l8.826,8.826c2.3,2.3,4.635,5.1,4.635,8.6s-2.337,6.306-4.635,8.6l-6.241,6.241A2.854,2.854,0,0,1,197.679,142.858Zm-17.861-24.833,17.861,17.861,4.2-4.2c1.985-1.985,2.938-3.46,2.938-4.517s-.966-2.533-2.938-4.517l-8.826-8.826c-1.985-1.985-3.46-2.938-4.517-2.938s-2.533.966-4.517,2.938l-4.2,4.2Z" transform="translate(-16.055)" fill="#fe7743" stroke="#fe7743" stroke-width="1.5"></path>
    <path id="路径_561" d="M592.45,540.877l-15.615-15.628a2.588,2.588,0,0,0-4.5,1.736,2.548,2.548,0,0,0,.862,1.919l14.558,14.558c5.053,5.053,5.053,8.069,0,13.121L570.516,573.8l-5.484-5.484-10.967-10.967-4.726-4.726a2.585,2.585,0,1,0-3.682,3.63l21.19,21.2,3.656,3.656,3.656-3.656,18.292-18.292A12.931,12.931,0,0,0,592.45,540.877Z" transform="translate(-400.551 -364.556)" fill="#fe7743" stroke="#fe7743" stroke-width="1.5"></path>
    <path id="路径_562" d="M166.3,192.5a2.564,2.564,0,0,0,.757-1.828,2.591,2.591,0,0,0-2.585-2.585,2.564,2.564,0,0,0-1.828.757L153.5,197.98l3.656,3.656Zm-5.484,12.8,3.656,3.656,7.311-7.311a2.585,2.585,0,0,0-1.815-4.426,2.564,2.564,0,0,0-1.828.757ZM138,128.443l-13.578-13.578a12.931,12.931,0,0,0-18.292,0L84.2,136.8l3.656,3.656,19.206,19.206a2.554,2.554,0,0,0,1.906.849,2.585,2.585,0,0,0,1.841-4.4l-2.846-2.846,9.087-9.087a2.585,2.585,0,1,0-3.6-3.708l-9.139,9.139-3.656-3.656,5.471-5.471a2.553,2.553,0,0,0,.77-1.841,2.585,2.585,0,0,0-4.426-1.815L96.995,142.3l-5.484-5.484,17.221-17.221c5.053-5.053,8.069-5.053,13.121,0L134.6,132.334l.013-.013A2.582,2.582,0,1,0,138,128.443Z" transform="translate(0 -5.195)" fill="#fe7743" stroke="#fe7743" stroke-width="1.5"></path>
  </g>
</svg>
