<?xml version="1.0" encoding="UTF-8"?>
<svg xmlns="http://www.w3.org/2000/svg" width="102.195" height="103.82" viewBox="0 0 102.195 103.82">
  <g id="人才对接" transform="translate(-128.3 -93.8)">
    <path id="路径_563" d="M255.152,158.4A27.052,27.052,0,1,1,282.2,131.352,27.08,27.08,0,0,1,255.152,158.4Zm0-48.422a21.382,21.382,0,1,0,21.382,21.382A21.4,21.4,0,0,0,255.152,109.983Zm0,0" transform="translate(-86.351 -8.303)" fill="#fe7743" stroke="#fe7743" stroke-width="2"></path>
    <path id="路径_564" d="M598.544,148.866a2.833,2.833,0,0,1-.643-5.594,21.272,21.272,0,0,0,16.519-20.828c0-12.323-8.87-21.974-20.185-21.974a2.835,2.835,0,1,1,0-5.67c14.49,0,25.842,12.146,25.842,27.644a26.92,26.92,0,0,1-20.9,26.346A2.108,2.108,0,0,1,598.544,148.866Zm0,0" transform="translate(-403.876)" fill="#fe7743" stroke="#fe7743" stroke-width="2"></path>
    <path id="路径_565" d="M254.1,537.3a37.6,37.6,0,0,0-37.6,37.6c0,.239.013.718.013.718s6.426,6.943,41.618,6.791c7.51-1.55,22.239-8.77,22.239-8.77C278.63,553.642,270.856,542.693,254.1,537.3Zm0,0" transform="translate(-76.213 -386.745)" fill="#f9b5a0"></path>
    <path id="路径_566" d="M171.27,544.909c-13.318,0-23.9-1.121-31.437-3.326-6.048-1.777-8.379-3.767-9.1-4.549a5.427,5.427,0,0,1-1.436-3.591v-.731a39.425,39.425,0,0,1,78.85,0,5.4,5.4,0,0,1-2.268,4.4,35.906,35.906,0,0,1-8.795,4.12,76.791,76.791,0,0,1-24.708,3.679Zm-36.313-11.655c.353.3,2.092,1.651,6.741,2.974,4.826,1.373,13.873,3.024,29.559,3.024h1.1a71.354,71.354,0,0,0,22.869-3.364,32.291,32.291,0,0,0,7.232-3.3,33.749,33.749,0,0,0-67.5.139v.529Z" transform="translate(0 -348.289)" fill="#fe7743" stroke="#fe7743" stroke-width="2"></path>
    <path id="路径_567" d="M663.091,525.594a2.839,2.839,0,0,1-2.835-2.835c0-19.4-17.287-32.9-29.232-34.8a2.833,2.833,0,1,1,.895-5.594c13.9,2.218,33.995,17.879,33.995,40.4A2.82,2.82,0,0,1,663.091,525.594Z" transform="translate(-436.419 -338.701)" fill="#fe7743" stroke="#fe7743" stroke-width="2"></path>
  </g>
</svg>
