<?xml version="1.0" encoding="UTF-8"?>
<svg xmlns="http://www.w3.org/2000/svg" width="102.829" height="102.829" viewBox="0 0 102.829 102.829">
  <g id="值班" transform="translate(-112 -112)">
    <circle id="椭圆_121" cx="24" cy="24" r="24" transform="translate(163.643 164)" fill="#f9b5a0"></circle>
    <path id="路径_517" d="M182.242,112a3.862,3.862,0,0,1,3.862,3.862V119.6h14.724a7.724,7.724,0,0,1,7.724,7.724v26.431a3.862,3.862,0,0,1-7.724.064v-4.409h-79.9a3.862,3.862,0,0,1-1.207-.192v51.607h30.293v0l.121,0a3.862,3.862,0,1,1,0,7.724c-.04,0-.081,0-.121,0v0H119.724A7.724,7.724,0,0,1,112,200.829v-73.5a7.724,7.724,0,0,1,7.724-7.724h15.448v-3.741a3.862,3.862,0,0,1,7.724,0V119.6H178.38v-3.741A3.862,3.862,0,0,1,182.242,112Zm-32.1,68.07a3.862,3.862,0,0,1,.064,7.724H136.138a3.862,3.862,0,0,1,0-7.724Zm-14-10.379a3.862,3.862,0,0,1,0-7.724h18.1a3.862,3.862,0,0,1,.064,7.724H136.138Zm-.966-42.363H119.724v14.555a3.859,3.859,0,0,1,1.207-.192h79.9V127.328H186.1v3.741a3.862,3.862,0,1,1-7.724,0v-3.741H142.9v3.741a3.862,3.862,0,1,1-7.724,0Z" fill="#fe7743"></path>
    <path id="路径_518" d="M546.793,520A26.793,26.793,0,1,1,520,546.793,26.793,26.793,0,0,1,546.793,520Zm0,7.241a19.552,19.552,0,1,0,19.552,19.552A19.552,19.552,0,0,0,546.793,527.241Zm-.4,4.484a3.621,3.621,0,0,1,3.62,3.561v9.007h3.516a3.621,3.621,0,0,1,3.619,3.5v.119a3.621,3.621,0,0,1-3.561,3.62h-7.181a3.649,3.649,0,0,1-3.636-3.576V535.347A3.621,3.621,0,0,1,546.4,531.726Z" transform="translate(-358.758 -358.758)" fill="#fe7743"></path>
  </g>
</svg>
