<?xml version="1.0" encoding="UTF-8"?>
<svg xmlns="http://www.w3.org/2000/svg" width="124.772" height="111.187" viewBox="0 0 124.772 111.187">
  <g id="学业规划" transform="translate(-96.05 -132.549)">
    <path id="路径_547" d="M777.653,667.328l-.133.221a11.969,11.969,0,0,1-4.489,4.312l-8.845,4.489c-1.757.886-3.4.93-4.607.1s-1.846-2.5-1.742-4.548l.591-10.351a12.706,12.706,0,0,1,2.067-5.966,11.968,11.968,0,0,1,4.489-4.312l8.845-4.489c1.757-.886,3.4-.93,4.607-.1s1.846,2.5,1.742,4.548l-.591,10.351A12.781,12.781,0,0,1,777.653,667.328Z" transform="translate(-563.413 -437.071)" fill="#f9b5a0"></path>
    <path id="路径_548" d="M330.708,306.684a10.027,10.027,0,0,1-5.154-1.61l-9.037-5.537c-4.725-2.894-8.417-9.185-8.417-14.309v-9.613a7.337,7.337,0,0,1,3.47-6.689c2.377-1.329,5.449-1.048,8.432.783l9.037,5.552c4.725,2.894,8.417,9.185,8.417,14.309v9.613a7.337,7.337,0,0,1-3.47,6.689A6.954,6.954,0,0,1,330.708,306.684Zm-15.845-31.94a2.668,2.668,0,0,0-.118.871v9.613c0,2.835,2.51,6.955,5.257,8.638l9.037,5.552a3.6,3.6,0,0,0,1.654.635,2.669,2.669,0,0,0,.118-.871v-9.613c0-2.835-2.51-6.955-5.257-8.638l-9.037-5.552A3.6,3.6,0,0,0,314.863,274.743Z" transform="translate(-180.098 -114.894)" fill="#fe7743"></path>
    <path id="路径_549" d="M385.987,173.493h-.325a15.184,15.184,0,0,1-7.531-1.964l-10.543-6.5c-2.1-1.285-3.2-3.012-3.116-4.843s1.447-3.6,3.721-4.814l11.415-6.113a15.9,15.9,0,0,1,7.708-1.683,15.184,15.184,0,0,1,7.531,1.964l10.543,6.5c2.1,1.285,3.2,3.012,3.116,4.843s-1.447,3.6-3.721,4.814l-11.415,6.113A16.057,16.057,0,0,1,385.987,173.493Z" transform="translate(-228.141 -12.167)" fill="#f9b5a0"></path>
    <path id="路径_550" d="M181.871,149.232a4.759,4.759,0,0,1-2.51-.664l-14.383-9.141a12.244,12.244,0,0,0-12.064-.074l-14.191,9.008a5.046,5.046,0,0,1-5.006,0,1.742,1.742,0,0,1,0-3.19l14.191-9.008c6.054-3.854,15.978-3.81,22.091.074l14.383,9.141a1.742,1.742,0,0,1,0,3.19A4.722,4.722,0,0,1,181.871,149.232Zm-62.463,93.753a10.027,10.027,0,0,1-5.154-1.61l-9.037-5.552c-4.725-2.894-8.417-9.185-8.417-14.309V211.9a7.337,7.337,0,0,1,3.47-6.689c2.377-1.329,5.449-1.048,8.432.783l9.037,5.552c4.725,2.894,8.417,9.185,8.417,14.309v9.613a7.337,7.337,0,0,1-3.47,6.689A6.557,6.557,0,0,1,119.408,242.986Zm-1.669-7.265a3.6,3.6,0,0,0,1.654.635,2.669,2.669,0,0,0,.118-.871v-9.613c0-2.835-2.51-6.955-5.257-8.638l-9.037-5.552a3.6,3.6,0,0,0-1.654-.635,2.669,2.669,0,0,0-.118.871v9.613c0,2.835,2.51,6.955,5.257,8.638Z" fill="#fe7743" stroke="#fe7743" stroke-width="1.5"></path>
    <path id="路径_551" d="M174.787,520.193h-.325a15.183,15.183,0,0,1-7.531-1.964l-10.543-6.5c-2.1-1.285-3.2-3.012-3.116-4.843s1.447-3.6,3.721-4.814l11.415-6.113a15.905,15.905,0,0,1,7.708-1.683,15.183,15.183,0,0,1,7.531,1.964l10.543,6.5c2.1,1.285,3.2,3.012,3.116,4.843s-1.447,3.6-3.721,4.814l-11.415,6.113a15.917,15.917,0,0,1-7.383,1.683Z" transform="translate(-48.128 -307.671)" fill="#f9b5a0"></path>
    <path id="路径_552" d="M177.745,496.032a4.759,4.759,0,0,1-2.51-.664l-14.383-9.141a12.244,12.244,0,0,0-12.064-.074L134.6,495.161a5.046,5.046,0,0,1-5.006,0,1.742,1.742,0,0,1,0-3.19l14.191-9.008c6.054-3.854,15.978-3.81,22.091.074l14.383,9.141a1.742,1.742,0,0,1,0,3.19,4.759,4.759,0,0,1-2.51.664Zm31.172,42.543a10.027,10.027,0,0,1-5.154-1.61l-9.037-5.552c-4.725-2.894-8.417-9.185-8.417-14.309v-9.613a7.337,7.337,0,0,1,3.47-6.689c2.377-1.329,5.449-1.048,8.432.783l9.037,5.552c4.725,2.894,8.417,9.185,8.417,14.309v9.613a7.337,7.337,0,0,1-3.47,6.689,6.557,6.557,0,0,1-3.278.827Zm-1.669-7.265a3.6,3.6,0,0,0,1.654.635,2.668,2.668,0,0,0,.118-.871V521.46c0-2.835-2.51-6.955-5.257-8.638l-9.037-5.552a3.6,3.6,0,0,0-1.654-.635,2.669,2.669,0,0,0-.118.871v9.613c0,2.835,2.51,6.955,5.257,8.638Zm14,6.291c-2.215-1.24-3.47-3.677-3.47-6.689V521.3c0-5.124,3.706-11.4,8.417-14.309l9.037-5.552c2.968-1.831,6.04-2.112,8.432-.783,2.215,1.24,3.47,3.677,3.47,6.689v9.613c0,5.124-3.706,11.4-8.417,14.309l-9.037,5.552a10.027,10.027,0,0,1-5.154,1.61A6.556,6.556,0,0,1,221.248,537.6Zm13.984-11.99c2.747-1.683,5.257-5.8,5.257-8.639v-9.613a2.592,2.592,0,0,0-.118-.871,3.6,3.6,0,0,0-1.654.635l-9.037,5.552c-2.747,1.683-5.257,5.8-5.257,8.638v9.613a2.592,2.592,0,0,0,.118.871,3.6,3.6,0,0,0,1.654-.635Z" transform="translate(-27.062 -295.589)" fill="#fe7743" stroke="#fe7743" stroke-width="1.5"></path>
    <path id="路径_553" d="M568.053,320.528l-.133.221a11.968,11.968,0,0,1-4.489,4.312l-8.845,4.489c-1.757.886-3.4.93-4.607.1s-1.846-2.5-1.742-4.548l.591-10.351a12.706,12.706,0,0,1,2.067-5.966,11.967,11.967,0,0,1,4.489-4.312l8.845-4.489c1.757-.886,3.4-.93,4.607-.1s1.846,2.5,1.742,4.548l-.591,10.351A12.547,12.547,0,0,1,568.053,320.528Z" transform="translate(-384.764 -141.482)" fill="#f9b5a0"></path>
    <path id="路径_554" d="M525.67,302.771c-2.215-1.24-3.47-3.677-3.47-6.689v-9.613c0-5.124,3.706-11.4,8.417-14.309l9.037-5.552c2.968-1.831,6.04-2.112,8.432-.783,2.215,1.24,3.47,3.677,3.47,6.689v9.613c0,5.124-3.706,11.4-8.417,14.309l-9.037,5.552a10.027,10.027,0,0,1-5.154,1.61,6.714,6.714,0,0,1-3.278-.827Zm13.984-11.991c2.747-1.683,5.257-5.8,5.257-8.638v-9.613a2.593,2.593,0,0,0-.118-.871,3.6,3.6,0,0,0-1.654.635l-9.037,5.552c-2.747,1.683-5.257,5.8-5.257,8.638V296.1a2.592,2.592,0,0,0,.118.871,3.6,3.6,0,0,0,1.654-.635Z" transform="translate(-362.583 -112.252)" fill="#fe7743"></path>
    <path id="路径_555" d="M352.953,668.628l-.133.221a11.969,11.969,0,0,1-4.489,4.312l-8.845,4.489c-1.757.886-3.4.93-4.607.1s-1.846-2.5-1.742-4.548l.591-10.351a12.707,12.707,0,0,1,2.067-5.966,11.969,11.969,0,0,1,4.489-4.312l8.845-4.489c1.757-.886,3.4-.93,4.607-.1s1.846,2.5,1.742,4.548l-.591,10.351A12.722,12.722,0,0,1,352.953,668.628Z" transform="translate(-201.427 -438.179)" fill="#f9b5a0"></path>
    <path id="路径_556" d="M310.57,651.872c-2.215-1.24-3.47-3.677-3.47-6.689v-9.613c0-5.124,3.706-11.4,8.417-14.309l9.037-5.552c2.968-1.831,6.04-2.112,8.432-.783,2.215,1.24,3.47,3.677,3.47,6.689v9.613c0,5.124-3.706,11.4-8.417,14.309L319,651.089a10.027,10.027,0,0,1-5.154,1.61A6.714,6.714,0,0,1,310.57,651.872Zm13.984-11.991c2.747-1.683,5.257-5.8,5.257-8.638v-9.613a2.591,2.591,0,0,0-.118-.871,3.6,3.6,0,0,0-1.654.635l-9.052,5.537c-2.747,1.683-5.257,5.8-5.257,8.638v9.613a2.592,2.592,0,0,0,.118.871,3.6,3.6,0,0,0,1.654-.635Z" transform="translate(-179.246 -409.801)" fill="#fe7743"></path>
    <path id="路径_557" d="M597.587,520.193h-.325a15.183,15.183,0,0,1-7.531-1.964l-10.543-6.5c-2.1-1.285-3.2-3.012-3.116-4.843s1.447-3.6,3.721-4.814l11.415-6.113a15.905,15.905,0,0,1,7.708-1.683,15.183,15.183,0,0,1,7.531,1.964l10.543,6.5c2.1,1.285,3.2,3.012,3.116,4.843s-1.447,3.6-3.721,4.814l-11.415,6.113a15.874,15.874,0,0,1-7.383,1.683Z" transform="translate(-408.495 -307.671)" fill="#f9b5a0"></path>
    <path id="路径_558" d="M600.645,496.032a4.759,4.759,0,0,1-2.51-.664l-14.383-9.141a12.244,12.244,0,0,0-12.064-.074L557.5,495.161a5.046,5.046,0,0,1-5.006,0,1.742,1.742,0,0,1,0-3.19l14.191-9.008c6.054-3.854,15.978-3.81,22.091.074l14.383,9.141a1.742,1.742,0,0,1,0,3.19A4.759,4.759,0,0,1,600.645,496.032Z" transform="translate(-387.513 -295.589)" fill="#fe7743" stroke="#fe7743" stroke-width="1.5"></path>
  </g>
</svg>
