<?xml version="1.0" encoding="UTF-8"?>
<svg xmlns="http://www.w3.org/2000/svg" width="104.506" height="111.857" viewBox="0 0 104.506 111.857">
  <g id="学士" transform="translate(-430.722 -45.643)">
    <path id="路径_513" d="M3.6,21.082,50.242,0,48.63,52.609,0,71.753Z" transform="matrix(0.574, 0.819, -0.819, 0.574, 497.829, 45.643)" fill="#f9b5a0"></path>
    <path id="路径_512" d="M117.383,99.869a5.825,5.825,0,0,1,5.994,0l45.483,27.29a5.826,5.826,0,0,1,2.8,5.6l.908,66.3a3.707,3.707,0,0,1-7.413.061v-.061l-.909-58.784-8.031,5.421v21.288a23.477,23.477,0,0,1-6.683,16.4c-7.593,7.774-17.388,11.677-29.15,11.677s-21.557-3.9-29.15-11.677a23.477,23.477,0,0,1-6.682-16.221V145.7l-12.909-8.713a5.825,5.825,0,0,1-1.622-8.007l.053-.08a5.825,5.825,0,0,1,1.831-1.736ZM148.8,150.7l-25.16,16.983a5.825,5.825,0,0,1-6.518,0L91.96,150.7v16.284a16.063,16.063,0,0,0,4.572,11.224c6.161,6.307,14.032,9.444,23.847,9.444s17.686-3.137,23.847-9.444a16.063,16.063,0,0,0,4.572-11.1V150.7ZM120.38,106.716,77.853,132.232l42.527,28.705,42.527-28.705Z" transform="translate(362.162 -45.764)" fill="#fe7743" stroke="#fe7743" stroke-width="1"></path>
  </g>
</svg>
