<?xml version="1.0" encoding="UTF-8"?>
<svg xmlns="http://www.w3.org/2000/svg" width="106.161" height="102.829" viewBox="0 0 106.161 102.829">
  <g id="学校" transform="translate(-78.919 -54)">
    <path id="路径_601" d="M15.272-1.069,29.611,7.862c3.314,0,8.427,3.981,8.427,7.3L40,88H0V10.125C0,6.812,11.959-1.069,15.272-1.069Z" transform="translate(118 61.949)" fill="#f9b5a0"></path>
    <path id="路径_510" d="M88.99,122.808V109.345l-.542.433-.017.011a3.734,3.734,0,0,1-4.381-6.047l.06-.05,30.925-22.338a6.912,6.912,0,0,1,8.159-.046l.063.047,30.906,22.324.043.029a3.664,3.664,0,0,1,.919,5.084l-.035.05-.036.051a3.792,3.792,0,0,1-5.063.986l-.049-.032-.015-.011-.021-.007-.03-.012-.03-.014a.589.589,0,0,1-.242-.223l-.015-.026,0-.008-.413-.33v13.593h12.643a7.128,7.128,0,0,1,7.1,6.865l0,.115v45.626l.015,0a3.684,3.684,0,0,1,3.231,3.572l0,.056v.062a3.691,3.691,0,0,1-3.661,3.722H69.723a3.722,3.722,0,0,1-.545-7.4l.055-.007.014,0V129.905a7.128,7.128,0,0,1,6.868-7.093l.115,0H88.99ZM124.969,163.1H112.8v12.16h12.167ZM88.99,130.251H76.823v45H88.99Zm29.96-42.729L96.436,103.795q.091,23.371.013,23.678l-.013,47.783h8.92v-13.8c0-3.468,3.076-5.88,6.982-5.928h13.237c3.839,0,7.036,2.409,7.1,5.825v13.908h9.049V104.113Zm30.221,42.728v45h12.167v-45ZM118.951,109.7a13.588,13.588,0,1,1-13.595,13.588A13.555,13.555,0,0,1,118.951,109.7Zm0,7.313a6.145,6.145,0,1,0,6.148,6.145A6.174,6.174,0,0,0,118.951,117.01Z" transform="translate(12.919 -26)" fill="#fe7743"></path>
  </g>
</svg>
