<?xml version="1.0" encoding="UTF-8"?>
<svg xmlns="http://www.w3.org/2000/svg" width="97.449" height="116.416" viewBox="0 0 97.449 116.416">
  <g id="学生" transform="translate(-157.55 -100.45)">
    <path id="路径_536" d="M551.269,576.4,513,583.665v-43.8l38.269-7.264Z" transform="translate(-306.719 -373.044)" fill="#f9b5a0"></path>
    <path id="路径_537" d="M235.444,561.926h-.122a4.181,4.181,0,0,1-2.746-.879c-12.323-6.168-24.484-9.469-36.158-9.821a3.172,3.172,0,0,1-.717-.108,4.993,4.993,0,0,1-3.8-4.559V504.99a3.825,3.825,0,0,1,1.5-3.044,4.3,4.3,0,0,1,3.422-.758,75.179,75.179,0,0,1,38.5,10.4,75.311,75.311,0,0,1,38.5-10.4,4.421,4.421,0,0,1,3.422.758,3.786,3.786,0,0,1,1.5,3.044v41.556a4.993,4.993,0,0,1-3.8,4.559,2.557,2.557,0,0,1-.717.108c-11.674.352-23.835,3.666-36.158,9.821A4.107,4.107,0,0,1,235.444,561.926Zm-37.457-16.733c12.147.6,24.687,4.1,37.335,10.43,12.648-6.331,25.2-9.834,37.335-10.43V507.276a69.428,69.428,0,0,0-35.347,10.2,3.128,3.128,0,0,1-.69.3,3.013,3.013,0,0,1-2.6,0,3.128,3.128,0,0,1-.69-.3,69.428,69.428,0,0,0-35.347-10.2Z" transform="translate(-29.055 -345.813)" fill="#fe7743" stroke="#fe7743" stroke-width="1.5"></path>
    <path id="路径_538" d="M162.493,650.535h-1.907a2.292,2.292,0,0,1-2.286-2.286v-8.563a2.292,2.292,0,0,1,2.286-2.286h1.907a2.292,2.292,0,0,1,2.286,2.286v8.563A2.292,2.292,0,0,1,162.493,650.535Zm89.469,0H250a2.292,2.292,0,0,1-2.286-2.286v-8.563A2.292,2.292,0,0,1,250,637.4h1.961a2.292,2.292,0,0,1,2.286,2.286v8.563A2.292,2.292,0,0,1,251.962,650.535Z" transform="translate(0 -463.667)" fill="#fe7743" stroke="#fe7743" stroke-width="1.5"></path>
    <path id="路径_539" d="M426.538,165.967c-.379,6.087-9.767,16.936-19.114,16.53-14.663-.636-19.628-1.109-18.979-15.773s13.094-26.662,27.717-25.4C425.022,142.064,427.16,155.97,426.538,165.967Z" transform="translate(-198.965 -34.615)" fill="#f9b5a0"></path>
    <path id="路径_540" d="M375.881,150.628l-6.344-3.774a24.948,24.948,0,1,0-28.421-.446l-6.831,3.625a3.043,3.043,0,1,0,2.962,5.316l10.335-5.587a24.884,24.884,0,0,0,15.178.3l10.159,5.884a3.051,3.051,0,0,0,4.139-1.19A3.027,3.027,0,0,0,375.881,150.628Zm-20.426-4.748a19.7,19.7,0,1,1,14.325-33.209,19.519,19.519,0,0,1,3.842,21.157A19.727,19.727,0,0,1,355.455,145.88Z" transform="translate(-149.079 0)" fill="#fe7743" stroke="#fe7743" stroke-width="1.5"></path>
  </g>
</svg>
