<?xml version="1.0" encoding="UTF-8"?>
<svg xmlns="http://www.w3.org/2000/svg" width="114.053" height="114.053" viewBox="0 0 114.053 114.053">
  <g id="官方授权" transform="translate(-63.9 -65.3)">
    <path id="路径_543" d="M326.625,711.17a3.724,3.724,0,0,1-3.725-3.725v-5.619a3.724,3.724,0,0,1,3.725-3.725,3.765,3.765,0,0,1,3.725,3.725v5.619A3.724,3.724,0,0,1,326.625,711.17Zm0,0,40.093,0a3.724,3.724,0,0,1-3.725-3.725v-5.619a3.724,3.724,0,0,1,3.725-3.725,3.765,3.765,0,0,1,3.725,3.725v5.619A3.732,3.732,0,0,1,366.718,711.17Zm0,0" transform="translate(-225.77 -552.368)" fill="#fe7743" stroke="#fe7743" stroke-width="1"></path>
    <path id="路径_544" d="M120.933,178.753a56.275,56.275,0,1,1,21.959-4.445A56.176,56.176,0,0,1,120.933,178.753Zm0-105.693a49.26,49.26,0,1,0,49.26,49.26,49.316,49.316,0,0,0-49.26-49.26Z" transform="translate(0)" fill="#fe7743" stroke="#fe7743" stroke-width="1.2"></path>
    <path id="路径_545" d="M322.487,273.833l3.334-10.254a3.731,3.731,0,0,0-1.831-4.508l-9.6-4.9-4.9-9.6a3.745,3.745,0,0,0-4.508-1.831l-10.254,3.334-10.254-3.334a3.731,3.731,0,0,0-4.508,1.831l-4.963,9.534-9.6,4.9a3.745,3.745,0,0,0-1.831,4.508l3.334,10.254-3.321,10.254a3.717,3.717,0,0,0,1.831,4.508l9.6,4.9,4.9,9.6a3.745,3.745,0,0,0,4.508,1.831l10.254-3.334,10.254,3.334a3.807,3.807,0,0,0,1.174.189,3.921,3.921,0,0,0,3.4-1.957l4.9-9.6,9.6-4.9a3.745,3.745,0,0,0,1.831-4.508ZM309.632,269.2,293.9,284.933c-.025.025-.038.051-.063.076l-.013.013a3.3,3.3,0,0,1-4.647,0l-9.408-9.408a3.3,3.3,0,0,1,0-4.647l.013-.013a3.3,3.3,0,0,1,4.647,0l7.071,7.072,13.486-13.486a3.3,3.3,0,0,1,4.647,0l.013.013a3.289,3.289,0,0,1-.013,4.647Z" transform="translate(-173.773 -154.341)" fill="#fe7743" stroke="#fe7743" stroke-width="1.5"></path>
    <path id="路径_546" d="M367.226,325.086l2.538-7.829a2.831,2.831,0,0,0-1.4-3.435l-7.324-3.738L357.3,302.76a2.851,2.851,0,0,0-3.435-1.4l-7.829,2.538-7.829-2.538a2.832,2.832,0,0,0-3.435,1.4l-3.788,7.273-7.324,3.738a2.851,2.851,0,0,0-1.4,3.435l2.538,7.829-2.538,7.829a2.832,2.832,0,0,0,1.4,3.435l7.324,3.738,3.738,7.324a2.851,2.851,0,0,0,3.435,1.4l7.829-2.538,7.829,2.538a2.785,2.785,0,0,0,.9.152,2.973,2.973,0,0,0,2.589-1.49l3.738-7.324,7.324-3.738a2.851,2.851,0,0,0,1.4-3.435Zm-6.289-4.634L345.2,336.186c-.025.025-.038.051-.063.076l-.013.013a3.3,3.3,0,0,1-4.647,0l-9.408-9.408a3.3,3.3,0,0,1,0-4.647l.013-.013a3.3,3.3,0,0,1,4.647,0l7.072,7.071,13.486-13.486a3.3,3.3,0,0,1,4.647,0l.013.013A3.289,3.289,0,0,1,360.937,320.452Z" transform="translate(-225.078 -205.594)" fill="#f9b5a0"></path>
  </g>
</svg>
