<?xml version="1.0" encoding="UTF-8"?>
<svg xmlns="http://www.w3.org/2000/svg" width="107.158" height="115.086" viewBox="0 0 107.158 115.086">
  <g id="层级" transform="translate(-1266.695 -41.914)">
    <path id="路径_520" d="M3.6,21.082,50.319-3.21,42.1,48.036-2.3,71.943Z" transform="matrix(0.574, 0.819, -0.819, 0.574, 1335.253, 45.643)" fill="#f9b5a0"></path>
    <path id="路径_519" d="M217.915,196.986l.008.019a9.256,9.256,0,0,1-4.52,11.862l-43.792,21.207a9.257,9.257,0,0,1-8.07,0l-43.786-21.207-.132-.065a9.257,9.257,0,0,1-4.583-11.272l.007-.021,47.975,22.629,4.557,2.206,45.032-21.81-.021-.01Zm0-20.86.008.019a9.256,9.256,0,0,1-4.52,11.862l-43.792,21.207a9.257,9.257,0,0,1-8.07,0l-43.786-21.207-.132-.065a9.257,9.257,0,0,1-4.583-11.272l.007-.021,47.975,22.629,4.557,2.206,45.032-21.81-.021-.01ZM169.849,128.98v0l43.786,21.2a9.791,9.791,0,0,1,0,17.624l-43.786,21.207a9.788,9.788,0,0,1-8.538,0L117.523,167.8a9.791,9.791,0,0,1,0-17.624l43.789-21.2a9.793,9.793,0,0,1,8.538,0Zm-4.268,7.594-44.875,22.368,44.875,22.373,44.874-22.373Z" transform="translate(1154.695 -74)" fill="#fe7743"></path>
  </g>
</svg>
