<?xml version="1.0" encoding="UTF-8"?>
<svg xmlns="http://www.w3.org/2000/svg" width="107.206" height="100.059" viewBox="0 0 107.206 100.059">
  <g id="巡课" transform="translate(-245.726 -262.941)">
    <path id="多边形_2" d="M11,0,22,20H0Z" transform="matrix(0.035, 0.999, -0.999, 0.035, 311.628, 290.286)" fill="#f9b5a0"></path>
    <path id="路径_527" d="M171.852,216.9a4.081,4.081,0,0,1,.068,8.162H122.843a4.081,4.081,0,0,1-.068-8.162h49.076ZM193.038,125a8.166,8.166,0,0,1,8.168,8.163v61.221a8.166,8.166,0,0,1-8.168,8.163H102.168A8.166,8.166,0,0,1,94,194.384V133.163A8.166,8.166,0,0,1,102.168,125Zm0,7.653H102.168a.511.511,0,0,0-.511.485v61.247a.51.51,0,0,0,.485.51h90.9a.511.511,0,0,0,.51-.485V133.163a.51.51,0,0,0-.485-.509Zm-57.546,14.113a4.6,4.6,0,0,1,6.312-1.3L164.9,160.4a4.59,4.59,0,0,1-.11,7.779l-23.093,14.028a4.6,4.6,0,0,1-6.981-3.924V149.323a4.589,4.589,0,0,1,.737-2.494Zm6.368,7.247v19.737l15.738-9.56Z" transform="translate(151.726 137.941)" fill="#fe7743"></path>
  </g>
</svg>
