<?xml version="1.0" encoding="UTF-8"?>
<svg xmlns="http://www.w3.org/2000/svg" width="110.014" height="104.273" viewBox="0 0 110.014 104.273">
  <g id="师资力量" transform="translate(-89.5 -100.3)">
    <path id="路径_577" d="M187.447,686.03a.724.724,0,0,0-.911.325.713.713,0,0,0,.208.937,5.885,5.885,0,0,1,2.382,4.2c0,2.708-4.778,5.559-12.771,7.642-8.527,2.213-19.865,3.424-31.959,3.424s-23.419-1.224-31.946-3.424c-7.993-2.07-12.771-4.934-12.771-7.642a5.862,5.862,0,0,1,2.382-4.2.721.721,0,0,0-.7-1.25c-7.837,3.2-11.859,5.637-11.859,9.881,0,4.973,5.832,9.581,16.4,12.966,10.323,3.307,24.031,5.116,38.6,5.116s28.288-1.823,38.611-5.116c10.584-3.385,16.4-7.993,16.4-12.966C199.527,691.666,195.283,689.232,187.447,686.03Z" transform="translate(0 -509.432)" fill="#fe7743"></path>
    <path id="路径_578" d="M280.132,191a5.832,5.832,0,1,0,5.832,5.832A5.839,5.839,0,0,0,280.132,191Z" transform="translate(-160.743 -78.893)" fill="#f9b5a0"></path>
    <path id="路径_579" d="M224.918,160.037a10.518,10.518,0,1,1,10.518-10.518A10.531,10.531,0,0,1,224.918,160.037Zm0-14.528a4,4,0,1,0,4.01,4A4.006,4.006,0,0,0,224.918,145.509Z" transform="translate(-108.641 -33.662)" fill="#fe7743"></path>
    <path id="路径_580" d="M220.146,349.462a9.01,9.01,0,0,1-2.083-5.858V331.289a9.136,9.136,0,0,1,1.146-4.517,3.578,3.578,0,0,0,.182-3.15,3.625,3.625,0,0,0-2.369-2.1,8.784,8.784,0,0,0-2.4-.325h-7.563c-5.389,0-9.763,4.856-9.763,10.8v11.313a11.352,11.352,0,0,0,3.32,8.123v20.373a3.611,3.611,0,0,0,3.619,3.619h13.187a3.611,3.611,0,0,0,3.619-3.619V351.857A3.6,3.6,0,0,0,220.146,349.462Z" transform="translate(-93.767 -192.143)" fill="#f9b5a0"></path>
    <path id="路径_581" d="M210.826,372.805H193.733a3.256,3.256,0,0,1-3.254-3.254v-22a10.953,10.953,0,0,1-4.179-8.618V326.787A11,11,0,0,1,197.287,315.8h9.5a11.2,11.2,0,0,1,2.552.3,3.26,3.26,0,1,1-1.523,6.34,4.449,4.449,0,0,0-1.028-.117h-9.5a4.472,4.472,0,0,0-4.465,4.465v12.146a4.459,4.459,0,0,0,2.434,3.97,3.248,3.248,0,0,1,1.744,2.89v20.5h13.838a3.254,3.254,0,1,1-.013,6.509Z" transform="translate(-84.199 -187.446)" fill="#fe7743"></path>
    <path id="路径_582" d="M713.932,191a5.832,5.832,0,1,0,5.832,5.832A5.831,5.831,0,0,0,713.932,191Z" transform="translate(-538.071 -78.893)" fill="#f9b5a0"></path>
    <path id="路径_583" d="M657.618,160.037a10.518,10.518,0,1,1,10.518-10.518A10.523,10.523,0,0,1,657.618,160.037Zm0-14.528a4,4,0,1,0,4,4A4.008,4.008,0,0,0,657.618,145.509Z" transform="translate(-485.012 -33.662)" fill="#fe7743"></path>
    <path id="路径_584" d="M657.381,321.2h-7.563a8.649,8.649,0,0,0-2.4.325,3.616,3.616,0,0,0-2.187,5.246,9.276,9.276,0,0,1,1.146,4.517V343.6a8.941,8.941,0,0,1-2.083,5.858,3.659,3.659,0,0,0-.9,2.382v19.969a3.611,3.611,0,0,0,3.619,3.619h13.187a3.611,3.611,0,0,0,3.619-3.619V351.441a11.374,11.374,0,0,0,3.32-8.123V332C667.145,326.056,662.758,321.2,657.381,321.2Z" transform="translate(-481.794 -192.144)" fill="#f9b5a0"></path>
    <path id="路径_585" d="M467.012,185.359H449.907a3.254,3.254,0,0,1,0-6.509h13.838v-20.5a3.272,3.272,0,0,1,1.744-2.89,4.484,4.484,0,0,0,2.434-3.97V139.341a4.472,4.472,0,0,0-4.465-4.465h-9.5a4.449,4.449,0,0,0-1.028.117,3.26,3.26,0,1,1-1.523-6.34,11.035,11.035,0,0,1,2.551-.3h9.5a11.006,11.006,0,0,1,10.987,10.987v12.146a10.972,10.972,0,0,1-4.179,8.618v22A3.256,3.256,0,0,1,467.012,185.359Zm-34.706-60.846a12.107,12.107,0,1,1,12.107-12.107A12.117,12.117,0,0,1,432.307,124.513Zm0-17.7a5.6,5.6,0,1,0,5.6,5.6A5.606,5.606,0,0,0,432.307,106.809Z" transform="translate(-287.65)" fill="#fe7743"></path>
    <path id="路径_586" d="M407.74,360.157h-18.03a3.256,3.256,0,0,1-3.254-3.254V332.82a11.611,11.611,0,0,1-4.556-9.23V310.364A11.678,11.678,0,0,1,393.564,298.7h10.349a11.678,11.678,0,0,1,11.664,11.664V323.59a11.635,11.635,0,0,1-4.582,9.269V356.9A3.256,3.256,0,0,1,407.74,360.157Zm-14.775-6.509h11.508V331.075a3.253,3.253,0,0,1,1.77-2.9,5.15,5.15,0,0,0,2.825-4.582V310.364a5.156,5.156,0,0,0-5.142-5.155H393.577a5.158,5.158,0,0,0-5.155,5.155V323.59a5.131,5.131,0,0,0,2.8,4.569,3.26,3.26,0,0,1,1.757,2.89v22.6Z" transform="translate(-254.336 -172.573)" fill="#fe7743"></path>
  </g>
</svg>
