<?xml version="1.0" encoding="UTF-8"?>
<svg xmlns="http://www.w3.org/2000/svg" width="96.417" height="117.274" viewBox="0 0 96.417 117.274">
  <g id="应用" transform="translate(-88.664 -252.819)">
    <path id="路径_526" d="M9.846,25.453,51.712,3.863,48.63,52.609,4.255,71.638Z" transform="matrix(0.574, 0.819, -0.819, 0.574, 151.852, 286.643)" fill="#f9b5a0"></path>
    <g id="组_401" transform="translate(-23.336 196.819)">
      <path id="路径_524" d="M158.375,56.49a3.648,3.648,0,0,1,3.6-.03l.052.03L206.593,82.2h-.006a3.67,3.67,0,0,1,1.831,3.112v51.491a3.668,3.668,0,0,1-1.781,3.14l-.05.029L162.036,165.7a3.732,3.732,0,0,1-3.6.029l-.053-.029-44.557-25.726A3.663,3.663,0,0,1,112,136.864V85.374a3.667,3.667,0,0,1,1.774-3.14l.05-.03,44.55-25.713ZM160.2,64.4l-40.44,23.341v46.7l40.446,23.353,40.446-23.356V87.74l-.169-.1Z" transform="translate(0 0)" fill="#fe7743"></path>
      <path id="路径_525" d="M252.759,360.667l-.019-.009-.114.2a3.9,3.9,0,0,0-.387,2.963l.016.059a3.9,3.9,0,0,0,1.805,2.31L279.374,380.8v28.9a3.9,3.9,0,0,0,6.655,2.758l.044-.044a3.891,3.891,0,0,0,1.1-2.714V380.847l25.411-14.679a3.906,3.906,0,0,0,1.314-5.261l-.032-.054a3.9,3.9,0,0,0-5.172-1.449l-25.374,14.657-25.359-14.646a3.911,3.911,0,0,0-5.184,1.23Z" transform="translate(-123.111 -266.166)" fill="#fe7743"></path>
    </g>
  </g>
</svg>
