<?xml version="1.0" encoding="UTF-8"?>
<svg xmlns="http://www.w3.org/2000/svg" width="115.633" height="102.829" viewBox="0 0 115.633 102.829">
  <g id="教师" transform="translate(-245.726 -54)">
    <path id="路径_511" d="M24.434-14.928S48.853-1.552,26.751,18.413-9.577,14.5-9.577,14.5-13.01,5.511.4-8.387,24.434-14.928,24.434-14.928Z" transform="translate(283 81)" fill="#f9b5a0"></path>
    <path id="路径_509" d="M116.56,119a30.447,30.447,0,0,1,16.208,56.218h0a46.165,46.165,0,0,1,23.734,22.6L175.921,170a4.181,4.181,0,0,1,6.9,4.729l-.039.057-22.285,31.929a4.191,4.191,0,0,1-.646.729,46.089,46.089,0,0,1,1.137,10.205,4.181,4.181,0,0,1-8.362.069v-.069a37.63,37.63,0,0,0-75.255-.622l-.005.622a4.181,4.181,0,0,1-8.362,0,46.011,46.011,0,0,1,30.185-43.2h0A30.446,30.446,0,0,1,116.56,119Zm0,8.362a22.081,22.081,0,1,0,22.081,22.081A22.081,22.081,0,0,0,116.56,127.362Zm63.892,12.8a4.181,4.181,0,0,1,.069,8.362H164.773a4.181,4.181,0,0,1-.069-8.362h15.748Zm0-18.423a4.181,4.181,0,0,1,.069,8.362H153.8a4.181,4.181,0,0,1-.069-8.362h26.724Z" transform="translate(176.726 -65)" fill="#fe7743"></path>
  </g>
</svg>
