<?xml version="1.0" encoding="UTF-8"?>
<svg xmlns="http://www.w3.org/2000/svg" width="103.063" height="101.559" viewBox="0 0 103.063 101.559">
  <g id="教育服务" transform="translate(-82.45 -86.35)">
    <path id="路径_528" d="M393.22,312.013c4.787,1.967,16.28,12.168,15.569,24.17h16.54s-5.379-27.192-20.225-30.462ZM383.575,261.8A25.438,25.438,0,0,0,357.9,287c0,13.922,8.839,17.618,23.021,17.618,8.886,0,19.787-13.341,19.656-17.618C400.139,273.091,397.758,261.8,383.575,261.8Z" transform="translate(-242.153 -154.001)" fill="#f9b5a0"></path>
    <path id="路径_529" d="M303.961,247.273c-15.308,0-27.76-12.239-27.76-27.287a26.851,26.851,0,0,1,8.152-19.313,28.1,28.1,0,0,1,39.218,0,26.954,26.954,0,0,1,0,38.625A27.854,27.854,0,0,1,303.961,247.273Zm0-48.566A21.279,21.279,0,1,0,325.7,219.987,21.54,21.54,0,0,0,303.961,198.707Z" transform="translate(-170.133 -93.088)" fill="#fe7743" stroke="#fe7743" stroke-width="1.5"></path>
    <path id="路径_530" d="M181.766,641.076H86.209a3.014,3.014,0,0,1-3.009-3.009,38.55,38.55,0,0,1,6.185-21.516,41.4,41.4,0,0,1,16.28-14.159,3.007,3.007,0,0,1,3.389.462,36.876,36.876,0,0,0,49.561-.036,3.012,3.012,0,0,1,3.377-.474,41.745,41.745,0,0,1,16.481,14.147,38.16,38.16,0,0,1,6.291,21.564A3,3,0,0,1,181.766,641.076Zm-92.428-6.019h89.3c-.924-11.291-7.062-20.533-17.559-26.4a42.928,42.928,0,0,1-54.455.047C96.28,614.547,90.238,623.765,89.337,635.057Z" transform="translate(0 -453.917)" fill="#fe7743" stroke="#fe7743" stroke-width="1.5"></path>
    <path id="路径_531" d="M227.187,115.512c-2.192-5.486-6.386-13-10.237-16.848a39.5,39.5,0,0,0-55.853,0c-3.91,3.91-8.009,11.327-10.154,16.789a11.9,11.9,0,0,0,6.552,21.824V113.486a34.151,34.151,0,0,1,63.08,0v23.779a11.875,11.875,0,0,0,6.611-21.753Z" transform="translate(-55.007 0)" fill="#fe7743" stroke="#fe7743" stroke-width="1.5"></path>
  </g>
</svg>
