<?xml version="1.0" encoding="UTF-8"?>
<svg xmlns="http://www.w3.org/2000/svg" width="103.322" height="104.519" viewBox="0 0 103.322 104.519">
  <g id="文件刷新" transform="translate(-1500.349 -464.119)">
    <circle id="椭圆_122" cx="19.5" cy="19.5" r="19.5" transform="translate(1554 522)" fill="#f9b5a0"></circle>
    <path id="路径_598" d="M129.686,157.024l7.662,11.491h-3.216c1.762,7.07,6.954,12.991,14.313,14.644A19.074,19.074,0,0,0,168,176.176h8.911a26.82,26.82,0,0,1-50.786-7.661h-4.1l7.662-11.491ZM156.624,87a7.662,7.662,0,0,1,7.662,7.661s.021,34.851-.056,34.952c0,0-.352,2.862-3.919,2.862a3.949,3.949,0,0,1-4.166-2.862V95.14h-68v85.226h29.572s4.5-.031,4.31,4.171-4.31,3.969-4.31,3.969H87.662A7.662,7.662,0,0,1,80,180.845V94.661A7.662,7.662,0,0,1,87.662,87Zm.054,51.152a26.816,26.816,0,0,1,22.545,22.7h4.1l-7.662,11.491L168,160.855h3.448a19.157,19.157,0,0,0-34.1-7.661h-8.911A26.819,26.819,0,0,1,156.678,138.152ZM122.991,125.6a3.83,3.83,0,0,1,0,7.661H101.918a3.83,3.83,0,1,1,0-7.661Zm19.276-17.356a3.83,3.83,0,0,1,0,7.661H102.037a3.83,3.83,0,1,1,0-7.661Z" transform="translate(1420.349 377.119)" fill="#fe7743"></path>
  </g>
</svg>
