<?xml version="1.0" encoding="UTF-8"?>
<svg xmlns="http://www.w3.org/2000/svg" width="106.004" height="105.992" viewBox="0 0 106.004 105.992">
  <g id="方案定制" transform="translate(-98.05 -95.05)">
    <path id="路径_595" d="M187.839,255.083H177.168c-4.163,0-7.568,2.043-7.568-2.119v-16.12a7.591,7.591,0,0,1,7.568-7.568h16.12c4.163,0,2.119,3.406,2.119,7.568v10.671A7.59,7.59,0,0,1,187.839,255.083Zm66.121-66.575H243.289c-4.163,0-7.568,2.043-7.568-2.119v-16.12a7.59,7.59,0,0,1,7.568-7.568h16.12c4.163,0,2.119,3.406,2.119,7.568v10.671A7.59,7.59,0,0,1,253.96,188.508Z" transform="translate(-61.87 -58.461)" fill="#f9b5a0"></path>
    <path id="路径_596" d="M126.575,133.982H109.206A10.417,10.417,0,0,1,98.8,123.575V106.206A10.417,10.417,0,0,1,109.206,95.8h17.369a10.417,10.417,0,0,1,10.406,10.406v17.369A10.417,10.417,0,0,1,126.575,133.982Zm-17.369-32.506a4.732,4.732,0,0,0-4.73,4.73v17.369a4.732,4.732,0,0,0,4.73,4.73h17.369a4.732,4.732,0,0,0,4.73-4.73V106.206a4.732,4.732,0,0,0-4.73-4.73ZM192.9,133.982H175.529a10.417,10.417,0,0,1-10.406-10.406V106.206A10.417,10.417,0,0,1,175.529,95.8H192.9A10.417,10.417,0,0,1,203.3,106.206v17.369A10.417,10.417,0,0,1,192.9,133.982Zm-17.369-32.506a4.732,4.732,0,0,0-4.73,4.73v17.369a4.732,4.732,0,0,0,4.73,4.73H192.9a4.732,4.732,0,0,0,4.73-4.73V106.206a4.732,4.732,0,0,0-4.73-4.73Zm-48.954,98.816H109.206A10.417,10.417,0,0,1,98.8,189.886V172.5A10.417,10.417,0,0,1,109.206,162.1h17.369A10.417,10.417,0,0,1,136.982,172.5v17.369A10.419,10.419,0,0,1,126.575,200.292Zm-17.369-32.518a4.732,4.732,0,0,0-4.73,4.73v17.369a4.732,4.732,0,0,0,4.73,4.73h17.369a4.732,4.732,0,0,0,4.73-4.73V172.5a4.732,4.732,0,0,0-4.73-4.73ZM192.9,200.292H175.529a10.417,10.417,0,0,1-10.406-10.406V172.5A10.417,10.417,0,0,1,175.529,162.1H192.9A10.417,10.417,0,0,1,203.3,172.5v17.369A10.419,10.419,0,0,1,192.9,200.292Zm-17.369-32.518a4.732,4.732,0,0,0-4.73,4.73v17.369a4.732,4.732,0,0,0,4.73,4.73H192.9a4.732,4.732,0,0,0,4.73-4.73V172.5a4.732,4.732,0,0,0-4.73-4.73Z" fill="#fe7743" stroke="#fe7743" stroke-width="1.5"></path>
    <path id="路径_597" d="M214.1,236.608h8.83v28.381H214.1Zm66.361,0h8.83v28.381h-8.83Zm-42.95,43.252h28.381v8.83H237.511Zm0-66.361h28.381v8.83H237.511Z" transform="translate(-100.756 -102.854)" fill="#fe7743"></path>
  </g>
</svg>
