<?xml version="1.0" encoding="UTF-8"?>
<svg xmlns="http://www.w3.org/2000/svg" width="115.902" height="101.554" viewBox="0 0 115.902 101.554">
  <g id="权威解读" transform="translate(-77.75 -134.887)">
    <path id="路径_532" d="M526.7,171.9h32.172v65H526.7Z" transform="translate(-389.56 -31.522)" fill="#f9b5a0"></path>
    <path id="路径_533" d="M194.992,296v56.338H114.764V296H101v68.2a7.915,7.915,0,0,0,7.85,7.929h92.8a7.915,7.915,0,0,0,7.85-7.929V296Z" transform="translate(-19.556 -139.385)" fill="#f9b5a0"></path>
    <path id="路径_534" d="M182.1,358.552h-92.8A10.8,10.8,0,0,1,78.5,347.759v-67.55a3.552,3.552,0,0,1,.013-.379,2.946,2.946,0,1,1,5.888.209v67.707a4.908,4.908,0,0,0,4.906,4.906h92.8a4.908,4.908,0,0,0,4.906-4.906V280.208a2.944,2.944,0,0,1,5.888,0v67.537A10.835,10.835,0,0,1,182.1,358.552Z" transform="translate(0 -122.861)" fill="#fe7743" stroke="#fe7743" stroke-width="1.5"></path>
    <path id="路径_535" d="M263.761,145.1a2.966,2.966,0,0,0-2.054-2.813c-.563-.183-1.138-.353-1.7-.536-8.295-2.617-16.132-5.089-23.3-5.874-7.431-.811-13.227.393-17.624,3.69-4.4-3.284-10.192-4.5-17.624-3.69-7.17.785-15.007,3.258-23.3,5.874-.563.183-1.125.353-1.7.536A2.925,2.925,0,0,0,174.4,145.1V214a2.87,2.87,0,0,0,2.865,2.761h83.617a2.873,2.873,0,0,0,2.865-2.865V145.1Zm-8.282,65.928H221.488c7.745-5.966,18.095-6.005,33.991,0Zm-33.324-66.386c7.588-6.189,21.248-1.949,35.718,2.617v58.379c-7.536-2.878-13.725-4.435-19.246-4.867-1.034-.079-2.054-.118-3.048-.118a31.373,31.373,0,0,0-8.073.994,27.211,27.211,0,0,0-5.351,2.041Zm-5.5,66.386H182.669C198.565,205.024,208.914,205.063,216.66,211.029ZM180.288,147.26c14.47-4.566,28.13-8.805,35.718-2.617v59.033a27.531,27.531,0,0,0-5.351-2.041,33.406,33.406,0,0,0-11.121-.864c-5.521.432-11.723,1.989-19.246,4.867Z" transform="translate(-83.353 0)" fill="#fe7743" stroke="#fe7743" stroke-width="1.5"></path>
  </g>
</svg>
