<?xml version="1.0" encoding="UTF-8"?>
<svg xmlns="http://www.w3.org/2000/svg" width="124.358" height="105.112" viewBox="0 0 124.358 105.112">
  <g id="材料撰写" transform="translate(-119.75 -152.75)">
    <path id="路径_587" d="M158.5,194.871V182.1l104.336.327V195.2Z" transform="translate(-32.269 -24.287)" fill="#f9b5a0"></path>
    <path id="路径_588" d="M285.441,350.075H251.477a3.445,3.445,0,0,1,0-6.787h33.964a3.445,3.445,0,0,1,0,6.787Zm2.473-23.166H251.462a3.411,3.411,0,0,1,0-6.787h36.453a3.411,3.411,0,0,1,0,6.787ZM304.625,302.7H251.462a3.411,3.411,0,0,1,0-6.787h53.163a3.411,3.411,0,0,1,0,6.787Zm45.487-4.781-9.622-9.17a6.01,6.01,0,0,0-8.491.2l-38.383,40.329a2.424,2.424,0,0,0-.649,1.4L291.112,347.5a2.416,2.416,0,0,0,2.458,2.669,2.251,2.251,0,0,0,.317-.03l16.7-2.685a2.4,2.4,0,0,0,1.357-.724l38.368-40.314a6.026,6.026,0,0,0,1.659-4.283A5.909,5.909,0,0,0,350.112,297.923Z" transform="translate(-108.61 -113.445)" fill="#fe7743" stroke="#fe7743" stroke-width="1.5"></path>
    <path id="路径_589" d="M578.459,369.986,565.7,372.037l1.418-12.85,27.193-28.565,11.341,10.8Zm37.81-39.725-7.285,7.662-11.326-10.8,7.285-7.662a1.174,1.174,0,0,1,.829-.362,1.208,1.208,0,0,1,.845.317l9.622,9.17a1.175,1.175,0,0,1,.362.829A1.29,1.29,0,0,1,616.269,330.261Z" transform="translate(-378.056 -140.625)" fill="#f9b5a0"></path>
    <path id="路径_590" d="M221.156,257.112H132.942A12.605,12.605,0,0,1,120.5,244.383V167.164c0-7.028,5.957-13.664,12.8-13.664h88.229c6.862,0,12.081,6.651,12.081,13.664a3.393,3.393,0,1,1-6.787,0c0-3.288-2.172-6.877-5.294-6.877H133.3c-3.122,0-6.018,3.6-6.018,6.877v77.219a5.8,5.8,0,0,0,5.656,5.942h88.229a5.811,5.811,0,0,0,5.656-5.942V217.221a3.393,3.393,0,1,1,6.787,0v27.147A12.631,12.631,0,0,1,221.156,257.112Z" fill="#fe7743" stroke="#fe7743" stroke-width="1.5"></path>
  </g>
</svg>
