<?xml version="1.0" encoding="UTF-8"?>
<svg xmlns="http://www.w3.org/2000/svg" width="119.98" height="104.604" viewBox="0 0 119.98 104.604">
  <g id="材料整理" transform="translate(-66.35 -113.85)">
    <path id="路径_591" d="M735.764,196.02l-4.642-.92L713.7,282.583l4.642.92c4.322.854,8.617-2.321,9.565-7.057l13.98-70.261C742.848,201.45,740.086,196.874,735.764,196.02Z" transform="translate(-560.345 -69.761)" fill="#f9b5a0"></path>
    <path id="路径_592" d="M160.586,216.836a10.826,10.826,0,0,1-2.054-.2l-9.911-1.881a11.036,11.036,0,0,1-8.751-12.873l13.967-73.556a11.031,11.031,0,0,1,12.86-8.764l9.911,1.894a11.031,11.031,0,0,1,8.764,12.86l-13.98,73.569A11.023,11.023,0,0,1,160.586,216.836Zm-.934-6.1a4.993,4.993,0,0,0,5.843-3.975l13.967-73.556a4.993,4.993,0,0,0-3.975-5.843l-9.911-1.881a4.993,4.993,0,0,0-5.843,3.975l-13.967,73.556a4.938,4.938,0,0,0,.787,3.748,5.026,5.026,0,0,0,3.188,2.108ZM87.577,217.7H78.105A11.016,11.016,0,0,1,67.1,206.7V125.605A11.016,11.016,0,0,1,78.105,114.6h9.471a11.016,11.016,0,0,1,11.005,11.005V206.7A11.016,11.016,0,0,1,87.577,217.7Zm-9.471-97.1a5,5,0,0,0-5,5V206.7a5,5,0,0,0,5,5h9.471a5,5,0,0,0,5-5V125.605a5,5,0,0,0-5-5Z" fill="#fe7743" stroke="#fe7743" stroke-width="1.5"></path>
    <path id="路径_593" d="M137.2,154.419h-8.191a3.909,3.909,0,1,1,0-7.817H137.2a3.909,3.909,0,1,1,0,7.817Zm0,17.7h-8.191a3.909,3.909,0,1,1,0-7.817H137.2a3.909,3.909,0,0,1,0,7.817Zm0,17.7h-8.191a3.909,3.909,0,0,1,0-7.817H137.2a3.909,3.909,0,1,1,0,7.817Zm36.378,27.88h-9.471A11.016,11.016,0,0,1,153.1,206.7V125.605A11.016,11.016,0,0,1,164.106,114.6h9.471a11.016,11.016,0,0,1,11.005,11.005V206.7A11.016,11.016,0,0,1,173.577,217.7Zm-9.471-97.1a5,5,0,0,0-5,5V206.7a5,5,0,0,0,5,5h9.471a5,5,0,0,0,5-5V125.605a5,5,0,0,0-5-5Z" transform="translate(-50.263)" fill="#fe7743" stroke="#fe7743" stroke-width="1.5"></path>
    <path id="路径_594" d="M405.1,438.317h-8.191a3.909,3.909,0,0,1,0-7.817H405.1a3.909,3.909,0,1,1,0,7.817Zm0,17.7h-8.191a3.909,3.909,0,1,1,0-7.817H405.1a3.909,3.909,0,1,1,0,7.817Z" transform="translate(-282.426 -273.76)" fill="#fe7743"></path>
  </g>
</svg>
