<?xml version="1.0" encoding="UTF-8"?>
<svg xmlns="http://www.w3.org/2000/svg" width="108.008" height="103" viewBox="0 0 108.008 103">
  <g id="班级" transform="translate(-627.144 -54)">
    <path id="路径_515" d="M82-1.371v66.5H2.216Z" transform="translate(639.04 63)" fill="#f9b5a0"></path>
    <path id="路径_514" d="M205.8,121a4.212,4.212,0,1,1,0,8.424h-2.374V194.71a8.427,8.427,0,0,1-8.43,8.424H169.309l11.428,13.61a4.211,4.211,0,0,1-.515,5.936s0,0,0,0l-.4.337a4.224,4.224,0,0,1-5.94-.52l-16.259-19.363h-3.322L138.036,222.5a4.224,4.224,0,0,1-5.886.564l-.054-.044-.4-.337s0,0,0,0a4.211,4.211,0,0,1-.56-5.883l.045-.054,11.428-13.61H117.016a8.427,8.427,0,0,1-8.43-8.424V129.424h-2.374a4.212,4.212,0,1,1,0-8.424Zm-10.8,8.424H117.016V194.71h77.976Zm-59.536,36.2a4.475,4.475,0,1,1-4.478,4.475A4.477,4.477,0,0,1,135.456,165.621Zm41.757.263a4.212,4.212,0,0,1,0,8.424H150.732a4.212,4.212,0,1,1,0-8.424Zm-42.152-16.321a4.475,4.475,0,1,1-4.478,4.475A4.477,4.477,0,0,1,135.061,149.563Zm42.152.263a4.212,4.212,0,1,1,0,8.424H150.732a4.212,4.212,0,1,1,0-8.424Z" transform="translate(525.144 -67)" fill="#fe7743"></path>
  </g>
</svg>
