<?xml version="1.0" encoding="UTF-8"?>
<svg xmlns="http://www.w3.org/2000/svg" width="103.431" height="103.32" viewBox="0 0 103.431 103.32">
  <g id="申请填报" transform="translate(-129.45 -93.05)">
    <path id="路径_568" d="M347.466,137.471H303.282a1.487,1.487,0,0,1-1.482-1.482v-2.606a1.487,1.487,0,0,1,1.482-1.482h44.184a1.487,1.487,0,0,1,1.482,1.482v2.606A1.487,1.487,0,0,1,347.466,137.471Z" transform="translate(-150.403 -33.394)" fill="#f9b5a0"></path>
    <path id="路径_569" d="M195.173,108.573H153.855a7.387,7.387,0,0,1,0-14.773h41.318a7.387,7.387,0,0,1,0,14.773Zm-41.318-9.227a1.828,1.828,0,0,0,0,3.656h41.318a1.828,1.828,0,0,0,0-3.656ZM183.9,195.62H140.848A10.432,10.432,0,0,1,130.2,185.429V108.7a10.44,10.44,0,0,1,10.648-10.191,2.779,2.779,0,1,1,0,5.559,4.882,4.882,0,0,0-5.089,4.632v76.732a4.882,4.882,0,0,0,5.089,4.632h43.035a2.779,2.779,0,0,1,.012,5.559Zm31.165-56.648a2.783,2.783,0,0,1-2.779-2.779V108.7a4.882,4.882,0,0,0-5.089-4.632,2.779,2.779,0,0,1,0-5.559A10.432,10.432,0,0,1,217.839,108.7v27.5A2.783,2.783,0,0,1,215.06,138.972Z" transform="translate(0 0)" fill="#fe7743" stroke="#fe7743" stroke-width="1.5"></path>
    <path id="路径_570" d="M303.9,335.059H248.856a2.782,2.782,0,0,1,0-5.559H303.9a2.782,2.782,0,0,1,0,5.559Zm-12.2,23.037H248.979a2.779,2.779,0,1,1,0-5.559h42.7a2.779,2.779,0,0,1,.012,5.559Zm-10.512,22.036H248.905a2.78,2.78,0,0,1,0-5.559h32.277a2.78,2.78,0,0,1,0,5.559Zm30.658-9.808a10.1,10.1,0,1,1,10.1-10.1A10.364,10.364,0,0,1,311.84,370.324Zm12.686,13.316H299.784a9.512,9.512,0,0,0-9.277,9.277,9.1,9.1,0,0,0,9.277,9.277h24.742a9.277,9.277,0,0,0,0-18.553Z" transform="translate(-101.671 -206.586)" fill="#fe7743" stroke="#fe7743" stroke-width="1.5"></path>
    <path id="路径_571" d="M680,627.055l6.806-20.455,3.842,1.285-6.818,20.443Zm13.464-19.171,3.829-1.285,6.819,20.443-3.842,1.285Zm0,0" transform="translate(-481.887 -449.457)" fill="#fe7743"></path>
    <path id="路径_572" d="M670.843,565.3a5.3,5.3,0,0,1,0,10.6H647.3a5.3,5.3,0,0,1,0-10.6h23.544M658.75,531.9a5.719,5.719,0,1,0,5.719,5.719A5.7,5.7,0,0,0,658.75,531.9Z" transform="translate(-448.581 -383.985)" fill="#f9b5a0"></path>
  </g>
</svg>
