<?xml version="1.0" encoding="UTF-8"?>
<svg xmlns="http://www.w3.org/2000/svg" width="105.578" height="103" viewBox="0 0 105.578 103">
  <g id="组织架构" transform="translate(-828.18 -54)">
    <rect id="矩形_99" width="19" height="19" rx="4" transform="translate(876 66)" fill="#f9b5a0"></rect>
    <rect id="矩形_101" width="19" height="18" rx="4" transform="translate(911 134)" fill="#f9b5a0"></rect>
    <path id="路径_516" d="M165.586,113a8.25,8.25,0,0,1,8.249,8.114v18.7a8.25,8.25,0,0,1-8.114,8.249H159.85v7.348h21.915a13.407,13.407,0,0,1,13.4,13.185l0,.222v12.118h5.156a8.25,8.25,0,0,1,8.249,8.114v18.7A8.25,8.25,0,0,1,200.464,216h-18.7a8.25,8.25,0,0,1-8.249-8.114v-18.7a8.25,8.25,0,0,1,8.114-8.249h5.293V168.819a5.157,5.157,0,0,0-5.071-5.156H129.814a5.157,5.157,0,0,0-5.156,5.071v12.2h5.156a8.25,8.25,0,0,1,8.249,8.114v18.7A8.25,8.25,0,0,1,129.95,216h-18.7A8.25,8.25,0,0,1,103,207.886v-18.7a8.25,8.25,0,0,1,8.114-8.249h5.293V168.819a13.407,13.407,0,0,1,13.185-13.4l.222,0H151.6v-7.348h-4.576a8.25,8.25,0,0,1-8.249-8.114v-18.7A8.25,8.25,0,0,1,146.887,113h18.7Zm34.742,76.186H181.765V207.75h18.563Zm-70.514,0H111.25V207.75h18.563Zm35.773-67.936H147.023v18.563h18.563Z" transform="translate(725.18 -59)" fill="#fe7743"></path>
  </g>
</svg>
