<?xml version="1.0" encoding="UTF-8"?>
<svg xmlns="http://www.w3.org/2000/svg" width="100.184" height="113.997" viewBox="0 0 100.184 113.997">
  <g id="结果保障" transform="translate(-157.7 -98.725)">
    <path id="路径_599" d="M227.516,122.2v50.807H273.17V131.582Zm0,50.807V228L192.7,208.233l-11.5-24.356.014-10.869Z" transform="translate(-19.4 -19.379)" fill="#f9b5a0"></path>
    <path id="路径_600" d="M208.722,211.723a2.938,2.938,0,0,1-.923-.138,91.216,91.216,0,0,1-27.043-13.267,61.08,61.08,0,0,1-14.782-15.292c-6.53-9.836-7.233-17.95-7.26-18.281,0-.083-.014-.165-.014-.248l.041-52.736a3.113,3.113,0,0,1,2.507-3.045l46.275-8.941a3.422,3.422,0,0,1,1.185,0l45.641,8.927a3.1,3.1,0,0,1,2.507,3.045c0,.22.028,21.987.028,52.433a2.441,2.441,0,0,1-.014.317,42.137,42.137,0,0,1-9.037,21.7A67.48,67.48,0,0,1,231.769,200.7a97.18,97.18,0,0,1-22.1,10.9,3.753,3.753,0,0,1-.951.124ZM164.9,164.346c.11.882,1.047,7.577,6.461,15.581,7.549,11.173,20.444,19.962,37.334,25.431a94.162,94.162,0,0,0,19.755-9.933c13.473-8.982,20.94-19.562,22.221-31.437,0-24.343-.014-43.12-.014-49.7l-42.541-8.307-43.175,8.348Z" transform="translate(0 0)" fill="#fe7743" stroke="#fe7743" stroke-width="2"></path>
  </g>
</svg>
