<?xml version="1.0" encoding="UTF-8"?>
<svg xmlns="http://www.w3.org/2000/svg" width="102.829" height="102.829" viewBox="0 0 102.829 102.829">
  <g id="考勤" transform="translate(-1697.146 -54)">
    <path id="路径_523" d="M90,0V57H0Z" transform="translate(1703 93)" fill="#f9b5a0"></path>
    <path id="路径_522" d="M186.808,112a4.113,4.113,0,0,1,4.113,4.113V120.1H206.6a8.226,8.226,0,0,1,8.226,8.226V206.6a8.226,8.226,0,0,1-8.226,8.226H120.226A8.226,8.226,0,0,1,112,206.6V128.324a8.226,8.226,0,0,1,8.226-8.226h16.453v-3.985a4.113,4.113,0,1,1,8.226,0V120.1h37.79v-3.985A4.113,4.113,0,0,1,186.808,112Zm-66.582,39.641V206.6H206.6V151.846H121.512A4.114,4.114,0,0,1,120.226,151.641Zm67.761,9.312a4.35,4.35,0,0,1,0,6.125l-28.65,28.87a4.285,4.285,0,0,1-6.083.009L138.87,181.538a4.341,4.341,0,0,1,1.9-7.276,4.286,4.286,0,0,1,4.173,1.139l11.344,11.366,25.613-25.81a4.285,4.285,0,0,1,6.087,0Zm-51.309-32.629H120.226v15.5a4.109,4.109,0,0,1,1.285-.2H206.6v-15.3H190.921v3.985a4.113,4.113,0,1,1-8.226,0v-3.985h-37.79v3.985a4.113,4.113,0,1,1-8.226,0Z" transform="translate(1585.146 -58)" fill="#fe7743"></path>
  </g>
</svg>
