<?xml version="1.0" encoding="UTF-8"?>
<svg xmlns="http://www.w3.org/2000/svg" width="102.829" height="102.829" viewBox="0 0 102.829 102.829">
  <g id="课表" transform="translate(-1494 -54)">
    <rect id="矩形_100" width="89" height="18" transform="translate(1502 69)" fill="#f9b5a0"></rect>
    <path id="路径_521" d="M186.808,112a4.113,4.113,0,0,1,4.113,4.113V120.1H206.6a8.226,8.226,0,0,1,8.226,8.226V206.6a8.226,8.226,0,0,1-8.226,8.226H120.226A8.226,8.226,0,0,1,112,206.6V128.324a8.226,8.226,0,0,1,8.226-8.226h16.453v-3.985a4.113,4.113,0,0,1,8.226,0V120.1h37.79v-3.985A4.113,4.113,0,0,1,186.808,112Zm-66.582,39.641V206.6H206.6V151.846H121.512A4.113,4.113,0,0,1,120.226,151.641Zm23.651,31.953a2.057,2.057,0,0,1,2.057,2.057v6.17a2.057,2.057,0,0,1-2.057,2.057h-6.17a2.057,2.057,0,0,1-2.057-2.057v-6.17a2.056,2.056,0,0,1,2.057-2.057Zm22.622,0a2.056,2.056,0,0,1,2.057,2.057v6.17a2.057,2.057,0,0,1-2.057,2.057h-6.17a2.057,2.057,0,0,1-2.057-2.057v-6.17a2.057,2.057,0,0,1,2.057-2.057Zm22.622,0a2.056,2.056,0,0,1,2.057,2.057v6.17a2.057,2.057,0,0,1-2.057,2.057h-6.17a2.057,2.057,0,0,1-2.057-2.057v-6.17a2.057,2.057,0,0,1,2.057-2.057Zm-45.245-19.537a2.057,2.057,0,0,1,2.057,2.057v6.17a2.057,2.057,0,0,1-2.057,2.057h-6.17a2.057,2.057,0,0,1-2.057-2.057v-6.17a2.057,2.057,0,0,1,2.057-2.057Zm22.622,0a2.057,2.057,0,0,1,2.057,2.057v6.17a2.056,2.056,0,0,1-2.057,2.057h-6.17a2.057,2.057,0,0,1-2.057-2.057v-6.17a2.057,2.057,0,0,1,2.057-2.057Zm22.622,0a2.057,2.057,0,0,1,2.057,2.057v6.17a2.056,2.056,0,0,1-2.057,2.057h-6.17a2.057,2.057,0,0,1-2.057-2.057v-6.17a2.057,2.057,0,0,1,2.057-2.057Zm-52.443-35.733H120.226v15.5a4.109,4.109,0,0,1,1.285-.2H206.6v-15.3H190.921v3.985a4.113,4.113,0,0,1-8.226,0v-3.985h-37.79v3.985a4.113,4.113,0,0,1-8.226,0Z" transform="translate(1382 -58)" fill="#fe7743"></path>
  </g>
</svg>
