<?xml version="1.0" encoding="UTF-8"?>
<svg xmlns="http://www.w3.org/2000/svg" width="108.501" height="106.361" viewBox="0 0 108.501 106.361">
  <g id="退费保障" transform="translate(-94.867 -95.95)">
    <path id="路径_541" d="M198.626,146.243a2.891,2.891,0,0,0-2.887,2.887,46.161,46.161,0,0,1-89.181,16.733,2.886,2.886,0,0,0-5.569.86L96.382,180.26a2.8,2.8,0,1,0,5.312,1.8l2.566-7.558A51.916,51.916,0,0,0,201.5,149.143,2.875,2.875,0,0,0,198.626,146.243Zm1.578-33.5a2.807,2.807,0,0,0-3.554,1.758l-2.631,7.75a51.914,51.914,0,0,0-96.354,26.87,2.887,2.887,0,1,0,5.774,0,46.157,46.157,0,0,1,88.385-18.632,3.117,3.117,0,0,0,.205.475,2.888,2.888,0,0,0,5.479-1.591l4.453-13.088a2.8,2.8,0,0,0-1.758-3.542Z" fill="#fe7743" stroke="#fe7743" stroke-width="2.5"></path>
    <path id="路径_542" d="M298.756,254a31.656,31.656,0,1,0,31.656,31.656A31.656,31.656,0,0,0,298.756,254ZM312.7,294.741h-11v9.342a2.887,2.887,0,1,1-5.774,0v-9.342h-11a2.887,2.887,0,0,1,0-5.774h11v-5.158h-11a2.887,2.887,0,0,1,0-5.774h8.495l-6.326-8.058a2.888,2.888,0,0,1,4.542-3.567l7.173,9.136,7.173-9.136a2.888,2.888,0,0,1,4.542,3.567l-6.339,8.071h8.495a2.887,2.887,0,0,1,0,5.774h-11v5.158h11a2.881,2.881,0,0,1,.013,5.761Z" transform="translate(-148.942 -136.68)" fill="#f9b5a0"></path>
  </g>
</svg>
