<?xml version="1.0" encoding="UTF-8"?>
<svg xmlns="http://www.w3.org/2000/svg" width="113.142" height="103.32" viewBox="0 0 113.142 103.32">
  <g id="问题答疑" transform="translate(-104.45 -125.35)">
    <path id="路径_573" d="M451.116,161.5H385.637A1.642,1.642,0,0,0,384,163.137v21.744h49.8a1.642,1.642,0,0,1,1.637,1.637v19.93h15.674a1.642,1.642,0,0,0,1.637-1.637V163.137A1.642,1.642,0,0,0,451.116,161.5Z" transform="translate(-240.768 -30.571)" fill="#f9b5a0"></path>
    <path id="路径_574" d="M367.827,408.5A11.236,11.236,0,0,0,356.6,419.727a3.642,3.642,0,1,0,7.285,0,3.929,3.929,0,1,1,3.929,3.929,3.642,3.642,0,0,0-3.642,3.642v4.993a3.642,3.642,0,1,0,7.285,0v-1.964a11.218,11.218,0,0,0-3.629-21.826ZM364.1,442.372a3.71,3.71,0,1,0,3.71-3.711A3.714,3.714,0,0,0,364.1,442.372Zm0,0" transform="translate(-217.105 -243.877)" fill="#fe7743"></path>
    <path id="路径_575" d="M423.743,179.261a3.069,3.069,0,1,1,0-6.139,5.117,5.117,0,0,0,5.116-5.116V137.341a5.117,5.117,0,0,0-5.116-5.116H369.054a5.117,5.117,0,0,0-5.116,5.116v6.48a3.069,3.069,0,0,1-6.139,0v-6.466A11.265,11.265,0,0,1,369.054,126.1h54.675a11.265,11.265,0,0,1,11.254,11.254V168.02a11.242,11.242,0,0,1-11.24,11.241Z" transform="translate(-218.142)" fill="#fe7743" stroke="#fe7743" stroke-width="1.5"></path>
    <path id="路径_576" d="M187.444,307.5h-70.99A11.265,11.265,0,0,0,105.2,318.754v41.47a11.265,11.265,0,0,0,11.254,11.254h11.131l.014,5.757c.014,4.693,2.278,6.357,3.615,6.93a5.184,5.184,0,0,0,2.06.409c1.446,0,3.329-.573,5.457-2.605l11.009-10.5h37.7A11.265,11.265,0,0,0,198.7,360.211V318.754A11.265,11.265,0,0,0,187.444,307.5Zm5.116,52.724a5.117,5.117,0,0,1-5.116,5.116H147.3l-12.8,12.209a5.214,5.214,0,0,1-.7.573,7.16,7.16,0,0,1-.068-.9l-.027-11.882H116.454a5.117,5.117,0,0,1-5.116-5.116v-41.47a5.117,5.117,0,0,1,5.116-5.116h70.99a5.117,5.117,0,0,1,5.116,5.116Z" transform="translate(0 -156.654)" fill="#fe7743" stroke="#fe7743" stroke-width="1.5"></path>
  </g>
</svg>
