<?xml version="1.0" encoding="UTF-8"?>
<svg xmlns="http://www.w3.org/2000/svg" width="75.884" height="57.303" viewBox="0 0 75.884 57.303">
  <g id="VR" transform="translate(-37.33 -108.85)">
    <path id="路径_320" d="M217.406,511.51a8.336,8.336,0,1,0,8.336,8.336,8.345,8.345,0,0,0-8.336-8.336Zm0,11.727a3.391,3.391,0,1,1,3.391-3.391A3.394,3.394,0,0,1,217.406,523.237Zm30.9,4.945a8.336,8.336,0,1,0-8.336-8.336A8.345,8.345,0,0,0,248.308,528.182Zm0-11.727a3.391,3.391,0,1,1-3.391,3.391A3.395,3.395,0,0,1,248.308,516.455Z" transform="translate(-157.585 -369.473)" fill="#3ed29c"></path>
    <path id="路径_321" d="M39.8,158.709h2.164v4.971a2.472,2.472,0,0,0,2.473,2.473H70.22a2.474,2.474,0,0,0,2.127-1.212l2.925-4.935,2.925,4.935a2.473,2.473,0,0,0,2.127,1.212H106.1a2.472,2.472,0,0,0,2.473-2.473v-4.971h2.164a2.472,2.472,0,0,0,2.473-2.473V144.745a2.472,2.472,0,0,0-2.473-2.473h-2.164v-5.207a2.472,2.472,0,0,0-2.473-2.473h-2.727a28.213,28.213,0,0,0-56.213,0H44.439a2.472,2.472,0,0,0-2.473,2.473v5.207H39.8a2.472,2.472,0,0,0-2.473,2.473v11.492A2.472,2.472,0,0,0,39.8,158.709ZM75.271,113.8a23.3,23.3,0,0,1,23.138,20.8H52.133A23.3,23.3,0,0,1,75.271,113.8Zm-28.36,25.743h56.719v21.671h-21.9L77.4,153.9a2.473,2.473,0,0,0-4.254,0l-4.334,7.311h-21.9V139.538Z" fill="#3ed29c"></path>
  </g>
</svg>
