<?xml version="1.0" encoding="UTF-8"?>
<svg xmlns="http://www.w3.org/2000/svg" width="58.894" height="52.824" viewBox="0 0 58.894 52.824">
  <g id="上传" transform="translate(-145.44 -149.13)">
    <path id="路径_274" d="M201.988,487.35a2.346,2.346,0,0,0-2.346,2.346v19.332H150.133V489.7a2.346,2.346,0,1,0-4.693,0v21.678a2.346,2.346,0,0,0,2.346,2.346h54.2a2.346,2.346,0,0,0,2.346-2.346V489.7A2.347,2.347,0,0,0,201.988,487.35Z" transform="translate(0 -311.767)" fill="#3ed29c"></path>
    <path id="路径_275" d="M356.645,181.186a2.346,2.346,0,0,0,2.346-2.346v-21.7l7.673,7.673a2.346,2.346,0,0,0,3.318-3.319L358.3,149.817a2.345,2.345,0,0,0-3.318,0L343.307,161.5a2.347,2.347,0,0,0,3.319,3.319l7.673-7.673v21.7A2.346,2.346,0,0,0,356.645,181.186Z" transform="translate(-181.758 0)" fill="#3ed29c"></path>
  </g>
</svg>
