<?xml version="1.0" encoding="UTF-8"?>
<svg xmlns="http://www.w3.org/2000/svg" width="39.712" height="48.632" viewBox="0 0 39.712 48.632">
  <g id="下载表格" transform="translate(-166.29 -88.63)">
    <path id="路径_373" d="M166.29,90.348v45.2a1.718,1.718,0,0,0,1.718,1.718h26.6a1.719,1.719,0,0,0,1.263-.554l9.681-10.5a1.72,1.72,0,0,0,.455-1.164V90.348a1.718,1.718,0,0,0-1.718-1.718H168.008A1.718,1.718,0,0,0,166.29,90.348Zm28.331,42.641v-8.4h7.741Zm-24.9-40.923h32.84v29.087H192.9a1.718,1.718,0,0,0-1.718,1.718v10.954H169.726Z" fill="#3ed29c"></path>
    <path id="路径_374" d="M287.529,299.584h-2.8v-2.646h2.01v-.67h-2.01v-2.02h2.392v-.67h-4.328v6.676h4.734Zm.1.67h.87l1.423-2.348,1.281,2.348h2.152l-2.128-3.82,1.751-2.857h-.851l-1.291,2.177-1.193-2.177h-2.147l2.015,3.625Zm8.921.112a2.871,2.871,0,0,0,1.888-.582,1.915,1.915,0,0,0,.7-1.555c0-.124-.006-.271-.019-.44l-.826-.215a4.865,4.865,0,0,1,.064.651,1.732,1.732,0,0,1-.384,1.149,1.2,1.2,0,0,1-.961.46q-1.4,0-1.4-2.7,0-3.135,1.252-3.135,1.184,0,1.184,1.477,0,.162-.015.455l.832-.381q0-2.083-2.166-2.083a2.86,2.86,0,0,0-2.255.986,3.751,3.751,0,0,0-.866,2.57Q293.578,300.367,296.547,300.366Zm8.055-.782h-2.8v-2.646h2.01v-.67H301.8v-2.02H304.2v-.67h-4.328v6.676H304.6Zm5.287,0h-2.744v-6.006h-1.937v6.676h4.681Zm-11.553,7.287H284.1a1.718,1.718,0,0,0,0,3.436h14.238a1.718,1.718,0,0,0,0-3.436Zm-5.568,7.022H284.1a1.718,1.718,0,0,0,0,3.436h8.669a1.718,1.718,0,0,0,0-3.436Z" transform="translate(-109.442 -193.109)" fill="#3ed29c"></path>
  </g>
</svg>
