<?xml version="1.0" encoding="UTF-8"?>
<svg xmlns="http://www.w3.org/2000/svg" width="59.428" height="53.304" viewBox="0 0 59.428 53.304">
  <g id="下载" transform="translate(-135.5 -174.3)">
    <path id="路径_293" d="M137.868,512.52a2.368,2.368,0,0,0-2.368,2.368v21.875a2.368,2.368,0,0,0,2.368,2.368H192.56a2.368,2.368,0,0,0,2.368-2.368V514.888a2.368,2.368,0,1,0-4.735,0V534.4H140.235V514.888A2.368,2.368,0,0,0,137.868,512.52Z" transform="translate(0 -311.527)" fill="#3ed29c"></path>
    <path id="路径_294" d="M346.832,174.3a2.367,2.367,0,0,0-2.368,2.368v21.9l-7.742-7.742a2.368,2.368,0,0,0-3.349,3.349l11.784,11.784a2.366,2.366,0,0,0,3.348,0l11.784-11.784a2.368,2.368,0,0,0-3.349-3.349l-7.742,7.742v-21.9A2.365,2.365,0,0,0,346.832,174.3Z" transform="translate(-181.618 0)" fill="#3ed29c"></path>
  </g>
</svg>
