<?xml version="1.0" encoding="UTF-8"?>
<svg xmlns="http://www.w3.org/2000/svg" width="67.457" height="49.131" viewBox="0 0 67.457 49.131">
  <g id="人员" transform="translate(-65.09 -186.99)">
    <path id="路径_349" d="M242.975,200.239A13.249,13.249,0,1,0,223.2,211.764a23.056,23.056,0,0,0-16.5,22.09,2.267,2.267,0,1,0,4.535,0,18.491,18.491,0,0,1,36.981,0,2.268,2.268,0,1,0,4.535,0,23.056,23.056,0,0,0-16.5-22.09A13.26,13.26,0,0,0,242.975,200.239Zm-13.25,8.714a8.714,8.714,0,1,1,8.714-8.714A8.724,8.724,0,0,1,229.725,208.953Z" transform="translate(-130.907 0)" fill="#3ed29c"></path>
    <path id="路径_350" d="M120.071,241.209a11.825,11.825,0,0,0-7.869-20.658,2.268,2.268,0,0,0,0,4.535,7.3,7.3,0,0,1,.658,14.562c-.218-.007-.438-.011-.658-.011a2.267,2.267,0,0,0-2.267,2.267c0,.007,0,.014,0,.021s0,.014,0,.021a2.267,2.267,0,0,0,2.267,2.267c.249,0,.5-.008.739-.023a15.829,15.829,0,0,1,15.07,15.792,2.267,2.267,0,0,0,4.535,0,20.394,20.394,0,0,0-12.476-18.773ZM67.357,262.249a2.267,2.267,0,0,0,2.267-2.267,15.829,15.829,0,0,1,15.07-15.792c.245.015.491.023.739.023a2.267,2.267,0,0,0,2.267-2.267c0-.007,0-.014,0-.021s0-.014,0-.021a2.267,2.267,0,0,0-2.267-2.267c-.22,0-.439,0-.658.011a7.3,7.3,0,0,1,.658-14.562,2.268,2.268,0,0,0,0-4.535,11.825,11.825,0,0,0-7.869,20.658A20.388,20.388,0,0,0,65.09,259.979,2.268,2.268,0,0,0,67.357,262.249Z" transform="translate(0 -31.023)" fill="#3ed29c"></path>
  </g>
</svg>
