<?xml version="1.0" encoding="UTF-8"?>
<svg xmlns="http://www.w3.org/2000/svg" width="45.987" height="56.316" viewBox="0 0 45.987 56.316">
  <g id="任务完成" transform="translate(-158.38 -88.63)">
    <path id="路径_357" d="M355.182,379.96a1.99,1.99,0,1,0-2.814-2.814L341.613,387.9l-5.286-5.286a1.99,1.99,0,0,0-2.814,2.814l6.693,6.693a1.989,1.989,0,0,0,2.813,0Z" transform="translate(-162.974 -268.838)" fill="#3ed29c"></path>
    <path id="路径_358" d="M202.378,88.63H160.37a1.989,1.989,0,0,0-1.99,1.99v52.337a1.989,1.989,0,0,0,1.99,1.99h30.8a1.991,1.991,0,0,0,1.463-.641l11.21-12.165a1.992,1.992,0,0,0,.527-1.348V90.62A1.989,1.989,0,0,0,202.378,88.63Zm-40.018,3.979h38.029v33.683H189.2a1.989,1.989,0,0,0-1.99,1.99v12.685H162.359ZM191.188,140v-9.727h8.964Z" transform="translate(0 0)" fill="#3ed29c"></path>
  </g>
</svg>
