<?xml version="1.0" encoding="UTF-8"?>
<svg xmlns="http://www.w3.org/2000/svg" width="43.206" height="52.901" viewBox="0 0 43.206 52.901">
  <g id="任务下发" transform="translate(-142.52 -88.63)">
    <path id="路径_353" d="M477.294,602.926a1.868,1.868,0,0,0,2.643,0l9.133-9.133a1.868,1.868,0,0,0,0-2.643l-9.133-9.133a1.869,1.869,0,1,0-2.643,2.643l5.942,5.942H468.469a1.869,1.869,0,0,0,0,3.738h14.767l-5.942,5.942A1.869,1.869,0,0,0,477.294,602.926Z" transform="translate(-303.891 -462.138)" fill="#3ed29c"></path>
    <path id="路径_354" d="M144.389,141.531H163.9a1.869,1.869,0,1,0,0-3.738H146.258V92.368h35.723V117.9a1.869,1.869,0,0,0,3.738,0V90.5a1.869,1.869,0,0,0-1.869-1.869H144.389A1.869,1.869,0,0,0,142.52,90.5v49.163A1.869,1.869,0,0,0,144.389,141.531Z" fill="#3ed29c"></path>
    <path id="路径_355" d="M303.749,317.1H322.91a1.869,1.869,0,0,0,0-3.738H303.749a1.869,1.869,0,0,0,0,3.738Zm0,9.677h12.48a1.869,1.869,0,0,0,0-3.738h-12.48a1.869,1.869,0,0,0,0,3.738Z" transform="translate(-149.432 -210.73)" fill="#3ed29c"></path>
  </g>
</svg>
