<?xml version="1.0" encoding="UTF-8"?>
<svg xmlns="http://www.w3.org/2000/svg" width="42.786" height="50.447" viewBox="0 0 42.786 50.447">
  <g id="任务" transform="translate(-152.12 -77.03)">
    <path id="路径_342" d="M193.128,81.4H185.88V78.808A1.778,1.778,0,0,0,184.1,77.03H162.924a1.778,1.778,0,0,0-1.778,1.778V81.4H153.9a1.778,1.778,0,0,0-1.778,1.778V125.7a1.778,1.778,0,0,0,1.778,1.778h39.23a1.778,1.778,0,0,0,1.778-1.778V83.178A1.778,1.778,0,0,0,193.128,81.4ZM164.7,80.587h17.621v3.8H164.7ZM191.35,123.92H155.677V84.956h5.469v1.213a1.778,1.778,0,0,0,1.778,1.778H184.1a1.778,1.778,0,0,0,1.778-1.778V84.956h5.469Z" transform="translate(0 0)" fill="#3ed29c"></path>
    <path id="路径_343" d="M380.545,423.191l-9.614,9.614-4.725-4.725a1.779,1.779,0,1,0-2.515,2.515l5.983,5.983a1.778,1.778,0,0,0,2.515,0l10.872-10.871a1.779,1.779,0,0,0-2.515-2.515Z" transform="translate(-198.539 -325.15)" fill="#3ed29c"></path>
  </g>
</svg>
