<?xml version="1.0" encoding="UTF-8"?>
<svg xmlns="http://www.w3.org/2000/svg" width="45.868" height="46.129" viewBox="0 0 45.868 46.129">
  <g id="保存" transform="translate(-135.07 -132.92)">
    <path id="路径_303" d="M180.455,139.84l-5.837-6.331a1.826,1.826,0,0,0-1.342-.588H136.9a1.825,1.825,0,0,0-1.825,1.825v42.479a1.825,1.825,0,0,0,1.825,1.825H179.1a1.825,1.825,0,0,0,1.825-1.825V141.275A1.827,1.827,0,0,0,180.455,139.84Zm-32.364-3.269h10.821v7.512H148.091ZM177.277,175.4H138.721V136.571h5.72v9.337a1.825,1.825,0,0,0,1.825,1.825h14.471a1.825,1.825,0,0,0,1.825-1.825v-9.337h9.914l4.8,5.208Z" fill="#3ed29c"></path>
    <path id="路径_304" d="M314.382,615.112H290.905a1.825,1.825,0,0,0,0,3.651h23.477a1.825,1.825,0,1,0,0-3.651Zm0-6.422H290.905a1.825,1.825,0,0,0,0,3.651h23.477a1.825,1.825,0,1,0,0-3.651Z" transform="translate(-144.639 -446.822)" fill="#3ed29c"></path>
  </g>
</svg>
