<?xml version="1.0" encoding="UTF-8"?>
<svg xmlns="http://www.w3.org/2000/svg" width="51.36" height="58.394" viewBox="0 0 51.36 58.394">
  <g id="保养" transform="translate(-153.39 -104.28)">
    <path id="路径_284" d="M410.713,454.439a7.823,7.823,0,0,0,7.814-7.814c0-1.111-.329-3.1-3.174-7.52-1.453-2.258-2.887-4.095-2.947-4.171a2.148,2.148,0,0,0-3.383,0c-.06.077-1.495,1.913-2.947,4.171-2.846,4.421-3.174,6.409-3.174,7.52A7.821,7.821,0,0,0,410.713,454.439Zm-1.043-12.982c.354-.551.71-1.079,1.043-1.558.333.479.689,1.008,1.043,1.558,2.4,3.742,2.474,5.033,2.474,5.168a3.518,3.518,0,1,1-7.035,0C407.2,446.491,407.265,445.2,409.669,441.457Z" transform="translate(-231.643 -306.211)" fill="#3ed29c"></path>
    <path id="路径_285" d="M161.169,162.674h35.8a7.788,7.788,0,0,0,7.779-7.779V129.967a2.146,2.146,0,0,0-.629-1.519l-14.365-14.365a2.148,2.148,0,0,0-1.519-.629H178.111v-7.026a2.148,2.148,0,0,0-2.148-2.148h-16.15a2.148,2.148,0,0,0-2.148,2.148v7.3a2.151,2.151,0,0,0,.065.525,7.788,7.788,0,0,0-4.34,6.976v33.661A7.787,7.787,0,0,0,161.169,162.674Zm12.646-54.1v4.877H161.961v-4.877Zm-16.129,12.657a3.486,3.486,0,0,1,3.482-3.482h26.178l13.107,13.107V154.9a3.486,3.486,0,0,1-3.482,3.482h-35.8a3.486,3.486,0,0,1-3.482-3.482V121.234Z" transform="translate(0 0)" fill="#3ed29c"></path>
  </g>
</svg>
