<?xml version="1.0" encoding="UTF-8"?>
<svg xmlns="http://www.w3.org/2000/svg" width="66.513" height="59.941" viewBox="0 0 66.513 59.941">
  <g id="公告" transform="translate(-479.211 -39.059)">
    <path id="路径_239" d="M137.175,198.143a7.772,7.772,0,0,0,11.459-6.842V146.926a7.772,7.772,0,0,0-11.459-6.842l-24.7,10.955H100.852a2.6,2.6,0,0,0-2.592,2.592V184.6a2.6,2.6,0,0,0,2.592,2.592h11.625Zm2.049-53.692c.068-.03.134-.063.2-.1a2.95,2.95,0,0,1,4.389,2.575V191.3a2.95,2.95,0,0,1-4.389,2.575c-.065-.036-.131-.069-.2-.1L115.4,183.209V155.019Zm-36.141,11.411h7.494v26.5h-7.494Zm58.042-2.193-6.606,3.94a2.411,2.411,0,1,0,2.47,4.142l6.606-3.94a2.411,2.411,0,0,0-2.47-4.142Zm2.471,26.747-6.606-3.94a2.411,2.411,0,1,0-2.47,4.142l6.606,3.94a2.411,2.411,0,1,0,2.47-4.142Zm-7.842-8.891h6.606a2.411,2.411,0,0,0,0-4.823h-6.606a2.411,2.411,0,1,0,0,4.823Z" transform="translate(380.951 -100.084)" fill="#3ed29c"></path>
  </g>
</svg>
