<?xml version="1.0" encoding="UTF-8"?>
<svg xmlns="http://www.w3.org/2000/svg" width="76.943" height="46.544" viewBox="0 0 76.943 46.544">
  <g id="公开" transform="translate(-64.673 -241.81)">
    <path id="路径_266" d="M130.131,252.717a57.141,57.141,0,0,0-11.953-7.445,34.371,34.371,0,0,0-30.065,0,57.141,57.141,0,0,0-11.953,7.445A71.005,71.005,0,0,0,65.216,263.5a2.583,2.583,0,0,0,0,3.17,71.062,71.062,0,0,0,10.942,10.78,57.141,57.141,0,0,0,11.953,7.445,34.371,34.371,0,0,0,30.065,0,57.141,57.141,0,0,0,11.953-7.445,71.062,71.062,0,0,0,10.942-10.78,2.583,2.583,0,0,0,0-3.17,71.043,71.043,0,0,0-10.941-10.78Zm-3.313,20.762c-5.582,4.428-14.22,9.707-23.673,9.707s-18.092-5.279-23.673-9.707a70.3,70.3,0,0,1-8.837-8.4,70.248,70.248,0,0,1,8.837-8.4c5.582-4.428,14.22-9.707,23.673-9.707s18.092,5.279,23.673,9.707a70.249,70.249,0,0,1,8.837,8.4A70.3,70.3,0,0,1,126.818,273.479Z" fill="#3ed29c"></path>
    <path id="路径_267" d="M353.741,341.38a14.8,14.8,0,1,0,14.8,14.8A14.818,14.818,0,0,0,353.741,341.38Zm0,24.434a9.633,9.633,0,1,1,9.633-9.633A9.644,9.644,0,0,1,353.741,365.814Z" transform="translate(-250.644 -90.994)" fill="#3ed29c"></path>
  </g>
</svg>
