<?xml version="1.0" encoding="UTF-8"?>
<svg xmlns="http://www.w3.org/2000/svg" width="52.723" height="52.723" viewBox="0 0 52.723 52.723">
  <g id="关闭" transform="translate(-101.39 -103.75)">
    <path id="路径_340" d="M146.392,111.471a26.284,26.284,0,1,0,5.649,8.379A26.279,26.279,0,0,0,146.392,111.471ZM127.751,152.63a22.518,22.518,0,1,1,22.518-22.518A22.543,22.543,0,0,1,127.751,152.63Z" transform="translate(0 0)" fill="#3ed29c"></path>
    <path id="路径_341" d="M406.07,324.5l-17.306-11.025a1.922,1.922,0,0,0-2.955,1.621v22.048a1.922,1.922,0,0,0,2.955,1.621L406.07,327.74a1.922,1.922,0,0,0,0-3.242Zm-16.416,9.142V318.6l11.807,7.521Z" transform="translate(-266.199 -196.007)" fill="#3ed29c"></path>
  </g>
</svg>
