<?xml version="1.0" encoding="UTF-8"?>
<svg xmlns="http://www.w3.org/2000/svg" width="70.534" height="59.941" viewBox="0 0 70.534 59.941">
  <g id="养护" transform="translate(-367.289 -39.059)">
    <path id="养护-2" d="M161.084,260.551a54.749,54.749,0,0,0-9.164-6.813,56.8,56.8,0,0,0-10.714-5.057,2.815,2.815,0,0,0-3.579,1.958,56.917,56.917,0,0,0-1.523,11.749,54.779,54.779,0,0,0,.79,11.392,39.087,39.087,0,0,0,12.414,22.7,54.747,54.747,0,0,0,9.164,6.813,56.8,56.8,0,0,0,10.714,5.057,2.815,2.815,0,0,0,3.579-1.958,56.916,56.916,0,0,0,1.523-11.749,54.715,54.715,0,0,0-.791-11.392,39.093,39.093,0,0,0-12.413-22.7Zm7.583,33.776a56.863,56.863,0,0,1-.719,7.509,57.083,57.083,0,0,1-6.71-3.447c-4.746-2.854-11.224-7.757-15.131-14.9s-4.54-15.246-4.382-20.782a57.032,57.032,0,0,1,.718-7.509,57.086,57.086,0,0,1,6.71,3.447c4.746,2.854,11.224,7.757,15.131,14.9S168.825,288.792,168.667,294.327Zm23.459-5.368a32.173,32.173,0,0,1-12,7.893,2.814,2.814,0,1,0,2.073,5.233,37.737,37.737,0,0,0,14.062-9.312,35.261,35.261,0,0,0,6.153-9.476,46.991,46.991,0,0,0,3.022-9.324,48.855,48.855,0,0,0,1.168-10.107,2.815,2.815,0,0,0-3-2.764,48.87,48.87,0,0,0-9.977,1.99,47.036,47.036,0,0,0-9.046,3.773,35.247,35.247,0,0,0-8.941,6.908,2.814,2.814,0,1,0,4.139,3.814c4.626-5.021,10.9-7.7,15.347-9.067a48.106,48.106,0,0,1,5.678-1.368,48.034,48.034,0,0,1-.9,5.771C198.912,277.467,196.753,283.938,192.126,288.959Z" transform="translate(231.214 -209.487)" fill="#3ed29c"></path>
  </g>
</svg>
