<?xml version="1.0" encoding="UTF-8"?>
<svg xmlns="http://www.w3.org/2000/svg" width="51.247" height="60.138" viewBox="0 0 51.247 60.138">
  <g id="出库" transform="translate(-135.5 -70.18)">
    <path id="路径_297" d="M184.705,277.82H175.1a2.042,2.042,0,0,0,0,4.083h7.565v37.84h-43.08V281.9h7.566a2.042,2.042,0,0,0,0-4.083h-9.608a2.042,2.042,0,0,0-2.042,2.042v41.923a2.042,2.042,0,0,0,2.042,2.042h47.164a2.042,2.042,0,0,0,2.042-2.042V279.862A2.042,2.042,0,0,0,184.705,277.82Z" transform="translate(0 -193.509)" fill="#3ed29c"></path>
    <path id="路径_298" d="M274.69,114.632a2.042,2.042,0,0,0,2.042,2.042H304.95a2.042,2.042,0,1,0,0-4.083H276.732A2.042,2.042,0,0,0,274.69,114.632Zm15.961-10.455a2.042,2.042,0,0,0,2.042-2.042V77.059l4.77,4.77a2.042,2.042,0,0,0,2.888-2.888l-8.163-8.163a2.042,2.042,0,0,0-2.888,0l-8.347,8.347a2.042,2.042,0,1,0,2.887,2.888l4.77-4.77v24.893A2.042,2.042,0,0,0,290.651,104.177Z" transform="translate(-129.717 0)" fill="#3ed29c"></path>
  </g>
</svg>
