<?xml version="1.0" encoding="UTF-8"?>
<svg xmlns="http://www.w3.org/2000/svg" width="44.844" height="61.674" viewBox="0 0 44.844 61.674">
  <g id="出水" transform="translate(-197.93 -80.05)">
    <path id="路径_306" d="M239.4,107.859a114.254,114.254,0,0,0-7.105-12.472c-5.064-7.869-10.2-14.45-10.254-14.516a2.141,2.141,0,0,0-3.372,0c-.051.066-5.189,6.646-10.254,14.516a114.234,114.234,0,0,0-7.1,12.472c-2.272,4.784-3.376,8.527-3.376,11.442a22.422,22.422,0,1,0,44.844,0C242.774,116.386,241.669,112.643,239.4,107.859ZM220.351,137.44A18.159,18.159,0,0,1,202.213,119.3c0-1.535.513-4.444,2.956-9.592A109.914,109.914,0,0,1,212,97.732c3.213-4.994,6.456-9.458,8.356-12,1.9,2.536,5.129,6.988,8.339,11.974a110.133,110.133,0,0,1,6.838,11.991c2.448,5.155,2.962,8.069,2.962,9.6A18.159,18.159,0,0,1,220.351,137.44Z" fill="#3ed29c"></path>
    <path id="路径_307" d="M412.658,483.024a2.143,2.143,0,0,0-3.029,0l-5.611,5.611a2.142,2.142,0,0,0,3.029,3.029L409,489.709v7.283a2.142,2.142,0,0,0,4.283,0v-7.283l1.955,1.955a2.142,2.142,0,0,0,3.028-3.029Z" transform="translate(-190.792 -373.624)" fill="#3ed29c"></path>
  </g>
</svg>
