<?xml version="1.0" encoding="UTF-8"?>
<svg xmlns="http://www.w3.org/2000/svg" width="50.679" height="52.428" viewBox="0 0 50.679 52.428">
  <g id="删除" transform="translate(-131.46 -103.9)">
    <path id="路径_351" d="M180.141,109.548H133.458a2,2,0,1,0,0,4h2.2l5.338,41.045a2,2,0,0,0,1.981,1.74h27.654a2,2,0,0,0,1.981-1.74l5.338-41.045h2.2a2,2,0,0,0,0-4Zm-11.269,42.785H144.727l-5.045-38.79h34.234ZM147.187,107.9h19.224a2,2,0,0,0,0-4H147.187a2,2,0,0,0,0,4Z" transform="translate(0 0)" fill="#3ed29c"></path>
    <path id="路径_352" d="M366.938,356.831a2,2,0,0,0,2-2v-24.7a2,2,0,0,0-4,0v24.7A2,2,0,0,0,366.938,356.831Zm7.795,0a2,2,0,0,0,2-2v-24.7a2,2,0,1,0-4,0v24.7A2,2,0,0,0,374.732,356.831Zm7.795,0a2,2,0,0,0,2-2v-24.7a2,2,0,0,0-4,0v24.7A2,2,0,0,0,382.527,356.831Z" transform="translate(-217.933 -209.308)" fill="#3ed29c"></path>
  </g>
</svg>
