<?xml version="1.0" encoding="UTF-8"?>
<svg xmlns="http://www.w3.org/2000/svg" width="36.068" height="50.447" viewBox="0 0 36.068 50.447">
  <g id="加药" transform="translate(-213.31 -94.24)">
    <path id="路径_327" d="M241.45,94.24H221.238a1.811,1.811,0,0,0-1.811,1.811v6.022a9.687,9.687,0,0,0-6.117,8.994v23.948a9.681,9.681,0,0,0,9.671,9.671h16.727a9.681,9.681,0,0,0,9.671-9.671V111.067a9.687,9.687,0,0,0-6.117-8.994V96.051A1.811,1.811,0,0,0,241.45,94.24Zm-1.811,3.623V101.4H223.049V97.863Zm6.117,37.153c0,.2-.01.4-.029.594H216.962q-.029-.293-.029-.594V111.291h28.823Zm-6.048,6.048H222.981a6.029,6.029,0,0,1-4.332-1.832h25.391A6.029,6.029,0,0,1,239.707,141.063Zm5-33.4H217.98a6.047,6.047,0,0,1,5-2.649h16.727A6.045,6.045,0,0,1,244.708,107.668Z" fill="#3ed29c"></path>
    <path id="路径_328" d="M355.431,433.494h3.461v3.461a1.811,1.811,0,0,0,1.811,1.811h4.958a1.811,1.811,0,0,0,1.811-1.811v-3.461h3.461a1.811,1.811,0,0,0,1.811-1.811v-4.958a1.811,1.811,0,0,0-1.811-1.811h-3.461v-3.461a1.811,1.811,0,0,0-1.811-1.811H360.7a1.811,1.811,0,0,0-1.811,1.811v3.461h-3.461a1.811,1.811,0,0,0-1.811,1.811v4.958A1.811,1.811,0,0,0,355.431,433.494Zm1.811-4.958H360.7a1.811,1.811,0,0,0,1.811-1.811v-3.461h1.336v3.461a1.811,1.811,0,0,0,1.811,1.811h3.461v1.336h-3.461a1.811,1.811,0,0,0-1.811,1.811v3.461h-1.336v-3.461a1.811,1.811,0,0,0-1.811-1.811h-3.461Z" transform="translate(-131.839 -305.753)" fill="#3ed29c"></path>
  </g>
</svg>
