<?xml version="1.0" encoding="UTF-8"?>
<svg xmlns="http://www.w3.org/2000/svg" width="50.186" height="59.941" viewBox="0 0 50.186 59.941">
  <g id="化验" transform="translate(-141.241 -69.17)">
    <path id="路径_240" d="M311.37,764.45a2.03,2.03,0,0,0,2.03,2.03h23.1a2.03,2.03,0,0,0,0-4.061H313.4A2.031,2.031,0,0,0,311.37,764.45Z" transform="translate(-158.615 -646.331)" fill="#3ed29c"></path>
    <path id="路径_241" d="M141.983,119.808a6.341,6.341,0,0,0,5.607,9.3h37.489a6.341,6.341,0,0,0,5.607-9.3L175.912,91.85V78.912h1.31a2.118,2.118,0,0,0,2.116-2.116v-5.51a2.118,2.118,0,0,0-2.116-2.116H155.445a2.118,2.118,0,0,0-2.116,2.116V76.8a2.118,2.118,0,0,0,2.116,2.116h1.31V91.85Zm15.408-46.577h17.887v1.621H157.391Zm14.46,5.681V92.354a2.027,2.027,0,0,0,.236.949l15.008,28.4a2.28,2.28,0,0,1-2.016,3.345H147.589a2.28,2.28,0,0,1-2.016-3.345l15.008-28.4a2.033,2.033,0,0,0,.236-.949V78.912Z" transform="translate(0 0)" fill="#3ed29c"></path>
  </g>
</svg>
