<?xml version="1.0" encoding="UTF-8"?>
<svg xmlns="http://www.w3.org/2000/svg" width="59.22" height="53.334" viewBox="0 0 59.22 53.334">
  <g id="历史监控" transform="translate(-87.23 -129.45)">
    <path id="路径_300" d="M144.359,129.45H89.321a2.091,2.091,0,0,0-2.091,2.091v35.78a2.091,2.091,0,0,0,2.091,2.091H109.7v9.19h-7.947a2.091,2.091,0,1,0,0,4.182h30.167a2.091,2.091,0,0,0,0-4.182h-7.947v-9.19h20.382a2.091,2.091,0,0,0,2.091-2.091V131.541A2.092,2.092,0,0,0,144.359,129.45ZM119.794,178.6h-5.909v-9.19h5.909Zm22.474-13.372H91.412v-31.6h50.855Z" transform="translate(0)" fill="#3ed29c"></path>
    <path id="路径_301" d="M229.06,285.379l5.471-5.471,9.417,9.417a2.09,2.09,0,0,0,2.957,0L264.82,271.41a2.091,2.091,0,0,0-2.958-2.958L245.427,284.89l-9.418-9.418a2.091,2.091,0,0,0-2.958,0l-6.949,6.949a2.091,2.091,0,1,0,2.958,2.958Z" transform="translate(-128.622 -128.743)" fill="#3ed29c"></path>
  </g>
</svg>
