<?xml version="1.0" encoding="UTF-8"?>
<svg xmlns="http://www.w3.org/2000/svg" width="70.081" height="63.431" viewBox="0 0 70.081 63.431">
  <g id="压力表" transform="translate(-97.82 -137.15)">
    <path id="路径_314" d="M184.689,255.452h-4.751a2.538,2.538,0,1,0,0,5.076h4.751a2.538,2.538,0,0,0,0-5.076Zm4.593-17.48a2.538,2.538,0,0,0-3.59,3.59l3.36,3.36a2.538,2.538,0,1,0,3.589-3.59Zm16.428,1.536a2.538,2.538,0,0,0,2.538-2.538v-4.751a2.538,2.538,0,0,0-5.076,0v4.751A2.538,2.538,0,0,0,205.71,239.507Zm20.018-1.536a2.538,2.538,0,0,0-3.59,0l-3.36,3.36a2.538,2.538,0,1,0,3.589,3.59l3.36-3.36A2.539,2.539,0,0,0,225.728,237.972Zm-1.536,20.018a2.538,2.538,0,0,0,2.538,2.538h4.751a2.538,2.538,0,0,0,0-5.076h-4.751A2.538,2.538,0,0,0,224.193,257.99Z" transform="translate(-72.847 -84.701)" fill="#3ed29c"></path>
    <path id="路径_315" d="M165.149,158.552a35.049,35.049,0,1,0-63.575,29.438,35.367,35.367,0,0,0,10.04,12.071,2.54,2.54,0,0,0,1.54.52h39.41a2.536,2.536,0,0,0,1.54-.52,35.358,35.358,0,0,0,10.04-12.071,35.144,35.144,0,0,0,1-29.438ZM151.691,195.5H114.035a29.965,29.965,0,1,1,37.656,0Z" fill="#3ed29c"></path>
    <path id="路径_316" d="M465.931,431.163l-5.89,5.89a4.978,4.978,0,0,0-1.18-.142,4.835,4.835,0,1,0,4.912,4.835,4.74,4.74,0,0,0-.133-1.113l5.88-5.88a2.538,2.538,0,1,0-3.589-3.589Z" transform="translate(-325.999 -268.456)" fill="#3ed29c"></path>
  </g>
</svg>
