<?xml version="1.0" encoding="UTF-8"?>
<svg xmlns="http://www.w3.org/2000/svg" width="51.166" height="52.699" viewBox="0 0 51.166 52.699">
  <path id="发送" d="M143.2,120.843a1.983,1.983,0,0,0-2.1-.084l-45.586,26a1.983,1.983,0,1,0,.352,3.6l10.948,3.664a1.984,1.984,0,0,0,1.259-3.762L101.333,148l38.2-21.787-4.65,32.053-16.817-5.6,8.209-9.695a1.984,1.984,0,0,0-3.028-2.564l-11.545,13.635a1.983,1.983,0,0,0-.469,1.282v15.885a1.984,1.984,0,0,0,3.4,1.394l8.56-8.67a1.984,1.984,0,1,0-2.823-2.788l-5.165,5.231V156.055l.106-.124,20.574,6.853a1.984,1.984,0,0,0,2.59-1.6l5.574-38.42A1.986,1.986,0,0,0,143.2,120.843Z" transform="translate(-92.902 -120.498)" fill="#3ed29c"></path>
</svg>
