<?xml version="1.0" encoding="UTF-8"?>
<svg xmlns="http://www.w3.org/2000/svg" width="59.941" height="59.941" viewBox="0 0 59.941 59.941">
  <g id="图片" transform="translate(-100.23 -100.23)">
    <path id="路径_245" d="M102.414,160.171h55.574a2.183,2.183,0,0,0,2.184-2.184V102.414a2.183,2.183,0,0,0-2.184-2.184H102.414a2.183,2.183,0,0,0-2.184,2.184v55.574A2.183,2.183,0,0,0,102.414,160.171ZM104.6,104.6H155.8V127l-1.1-1.28a9.323,9.323,0,0,0-14.363.3l-5.877,7.412a4.956,4.956,0,0,1-7.086.7l-.367-.31a9.34,9.34,0,0,0-12.75.662l-5.473,5.7a2.184,2.184,0,0,0,3.152,3.023l5.473-5.7a4.965,4.965,0,0,1,6.778-.352l.367.31a9.324,9.324,0,0,0,13.329-1.325l5.877-7.412a4.957,4.957,0,0,1,7.636-.16l4.41,5.109V155.8H104.6Z" fill="#3ed29c"></path>
    <path id="路径_246" d="M284.27,262.781a7.34,7.34,0,1,0-7.34-7.34A7.349,7.349,0,0,0,284.27,262.781Zm0-10.313a2.973,2.973,0,1,1-2.973,2.973A2.977,2.977,0,0,1,284.27,252.468Z" transform="translate(-163.839 -137.107)" fill="#3ed29c"></path>
  </g>
</svg>
