<?xml version="1.0" encoding="UTF-8"?>
<svg xmlns="http://www.w3.org/2000/svg" width="46.365" height="63.766" viewBox="0 0 46.365 63.766">
  <g id="实时水量" transform="translate(-197.93 -66.6)">
    <path id="路径_361" d="M233.458,82.458c-5.236-8.137-10.549-14.94-10.6-15.008a2.214,2.214,0,0,0-3.487,0c-.053.068-5.365,6.872-10.6,15.008a118.116,118.116,0,0,0-7.346,12.9c-2.349,4.946-3.491,8.816-3.491,11.831a23.183,23.183,0,1,0,46.365,0c0-3.014-1.142-6.884-3.491-11.831a118.132,118.132,0,0,0-7.347-12.9Zm-12.346,43.479a18.775,18.775,0,0,1-18.754-18.754c0-1.587.53-4.595,3.056-9.917a113.641,113.641,0,0,1,7.059-12.384c3.322-5.163,6.676-9.779,8.64-12.408,1.96,2.623,5.3,7.225,8.622,12.381a113.872,113.872,0,0,1,7.07,12.4c2.531,5.33,3.062,8.342,3.062,9.931A18.776,18.776,0,0,1,221.112,125.937Z" fill="#3ed29c"></path>
    <path id="路径_362" d="M345.4,531.27a6.273,6.273,0,0,0-4.466,1.85,1.889,1.889,0,0,1-2.671,0,6.315,6.315,0,0,0-8.933,0,1.889,1.889,0,0,1-2.671,0,2.215,2.215,0,1,0-3.132,3.132,6.316,6.316,0,0,0,8.934,0,1.889,1.889,0,0,1,2.671,0,6.316,6.316,0,0,0,8.934,0,1.889,1.889,0,0,1,2.671,0,2.215,2.215,0,1,0,3.132-3.132A6.277,6.277,0,0,0,345.4,531.27Z" transform="translate(-115.727 -430.372)" fill="#3ed29c"></path>
  </g>
</svg>
