<?xml version="1.0" encoding="UTF-8"?>
<svg xmlns="http://www.w3.org/2000/svg" width="58.418" height="51.743" viewBox="0 0 58.418 51.743">
  <path id="实时监控" d="M140.916,167.829l-2.394-2.394,2.342-2.342a2.048,2.048,0,0,0,0-2.9L118.44,137.773a16.192,16.192,0,1,0-22.9,22.9l3.624,3.624H88.216v-6.941a2.048,2.048,0,0,0-4.1,0v17.98a2.048,2.048,0,1,0,4.1,0v-6.942h14.731a2.067,2.067,0,0,0,.292-.021L117.964,183.1a2.047,2.047,0,0,0,2.9,0l2.342-2.342,2.394,2.394a5.546,5.546,0,0,0,7.844,0l7.475-7.475A5.551,5.551,0,0,0,140.916,167.829Zm-21.5,10.921L98.436,157.775a12.007,12.007,0,0,1-3.5-7.581l15.052,15.052a2.048,2.048,0,0,0,2.9-2.9L95.617,145.085a12.109,12.109,0,0,1,19.926-4.416l20.976,20.976Zm18.607-5.973-7.475,7.475a1.452,1.452,0,0,1-2.052,0l-2.394-2.394,9.526-9.526,2.394,2.395A1.45,1.45,0,0,1,138.019,172.777Z" transform="translate(-84.12 -133.03)" fill="#3ed29c"></path>
</svg>
