<?xml version="1.0" encoding="UTF-8"?>
<svg xmlns="http://www.w3.org/2000/svg" width="45.271" height="49.523" viewBox="0 0 45.271 49.523">
  <g id="密码" transform="translate(-145.56 -84.95)">
    <path id="路径_330" d="M180.214,89.928A17,17,0,0,0,151.2,101.947v.255h-3.785a1.853,1.853,0,0,0-1.853,1.853V132.62a1.853,1.853,0,0,0,1.853,1.853h41.565a1.853,1.853,0,0,0,1.853-1.853V104.055a1.853,1.853,0,0,0-1.853-1.853h-3.785v-.255A16.888,16.888,0,0,0,180.214,89.928ZM154.9,101.947a13.291,13.291,0,1,1,26.582,0v.255H154.9Zm32.221,28.82H149.266v-24.86h37.859v24.86Z" transform="translate(0 0)" fill="#3ed29c"></path>
    <path id="路径_331" d="M484.853,557.912a1.853,1.853,0,0,0,1.853-1.853v-5.816a1.853,1.853,0,1,0-3.706,0v5.816A1.853,1.853,0,0,0,484.853,557.912Z" transform="translate(-316.596 -434.813)" fill="#3ed29c"></path>
  </g>
</svg>
