<?xml version="1.0" encoding="UTF-8"?>
<svg xmlns="http://www.w3.org/2000/svg" width="53.539" height="53.623" viewBox="0 0 53.539 53.623">
  <path id="封闭" d="M172.637,120.83h-11.38a2.042,2.042,0,0,0-2.042,2.042v3.353H136.6v-3.353a2.042,2.042,0,0,0-2.042-2.042h-11.38a2.042,2.042,0,0,0-2.042,2.042v11.38a2.042,2.042,0,0,0,2.042,2.042h3.311v22.695h-3.311a2.042,2.042,0,0,0-2.042,2.042v11.38a2.042,2.042,0,0,0,2.042,2.042h11.38a2.042,2.042,0,0,0,2.042-2.042v-3.353h22.611v3.353a2.042,2.042,0,0,0,2.042,2.042h11.38a2.042,2.042,0,0,0,2.042-2.042V161.03a2.042,2.042,0,0,0-2.042-2.042h-3.311V136.294h3.311a2.042,2.042,0,0,0,2.042-2.042v-11.38A2.042,2.042,0,0,0,172.637,120.83ZM139.6,164.975l25.647-25.647v6.1l-19.549,19.549h-6.1Zm-2.992-2.783v-1.161a2.042,2.042,0,0,0-2.042-2.042h-.853l25.506-25.507v.77a2.042,2.042,0,0,0,2.042,2.042H162.5Zm20.011-31.884-26.039,26.039v-6.1l19.941-19.941h6.1Zm-31.391-5.395h7.3v7.3h-7.3v-7.3Zm9.339,11.38a2.042,2.042,0,0,0,2.042-2.042v-3.944h8.138l-14.165,14.165v-8.18ZM132.52,170.37h-7.3v-7.3h7.3Zm38.075,0h-7.3v-7.3h7.3v7.3Zm-9.339-11.381a2.042,2.042,0,0,0-2.042,2.042v3.945h-7.746L165.243,151.2v7.788h-3.986ZM170.6,132.21h-7.3v-7.3h7.3Z" transform="translate(-121.14 -120.83)" fill="#3ed29c"></path>
</svg>
