<?xml version="1.0" encoding="UTF-8"?>
<svg xmlns="http://www.w3.org/2000/svg" width="64.704" height="61.727" viewBox="0 0 64.704 61.727">
  <path id="巡检" d="M157.051,154.644q-.245-.142-.495-.271.04-.725.04-1.45a26.039,26.039,0,0,0-14.412-23.319c.013-.224.02-.45.02-.676a11.669,11.669,0,1,0-23.338,0c0,.227.007.453.02.676a26.066,26.066,0,0,0-14.412,23.319q0,.724.041,1.45c-.167.086-.332.176-.5.271a11.67,11.67,0,0,0,2.815,21.378,11.721,11.721,0,0,0,3.039.4,11.6,11.6,0,0,0,5.815-1.568c.134-.077.267-.159.4-.241a26.029,26.029,0,0,0,28.9,0c.131.082.263.163.4.241a11.6,11.6,0,0,0,5.815,1.568,11.754,11.754,0,0,0,3.039-.4,11.669,11.669,0,0,0,2.814-21.378Zm-26.517-32.693a6.978,6.978,0,1,1-6.978,6.978A6.986,6.986,0,0,1,130.535,121.951Zm-22.488,49.54a6.979,6.979,0,0,1-1.683-12.785,7.007,7.007,0,0,1,1.362-.6l.034-.011a6.9,6.9,0,0,1,2.082-.323,7.022,7.022,0,0,1,1.818.241,6.979,6.979,0,0,1-3.612,13.482Zm22.488,2.8a21.188,21.188,0,0,1-10.989-3.037,11.685,11.685,0,0,0-10.38-18.162c0-.057,0-.114,0-.171a21.313,21.313,0,0,1,10.982-18.683,11.667,11.667,0,0,0,20.776,0,21.354,21.354,0,0,1,10.983,18.682c0,.057,0,.114,0,.171a11.684,11.684,0,0,0-10.379,18.163A21.149,21.149,0,0,1,130.535,174.295Zm26.725-6.055a6.977,6.977,0,1,1,.7-5.295A6.986,6.986,0,0,1,157.26,168.24Z" transform="translate(-98.18 -117.26)" fill="#3ed29c"></path>
</svg>
