<?xml version="1.0" encoding="UTF-8"?>
<svg xmlns="http://www.w3.org/2000/svg" width="69.166" height="59.941" viewBox="0 0 69.166 59.941">
  <g id="工厂" transform="translate(-89.13 -145.54)">
    <path id="路径_236" d="M91.583,205.481h64.259a2.453,2.453,0,1,0,0-4.907H91.583a2.453,2.453,0,1,0,0,4.907Zm6.328-6.661a2.453,2.453,0,0,0,2.61-2.286l3.057-46.088h22.829l3.057,46.088a2.454,2.454,0,0,0,2.446,2.292c.055,0,.11,0,.164-.006a2.454,2.454,0,0,0,2.286-2.611l-3.209-48.378a2.454,2.454,0,0,0-2.448-2.291H101.283a2.453,2.453,0,0,0-2.448,2.291l-3.209,48.378A2.454,2.454,0,0,0,97.912,198.82Zm37.562-39.68h8.95l2.48,37.394a2.453,2.453,0,0,0,2.445,2.292c.055,0,.11,0,.165-.006a2.454,2.454,0,0,0,2.286-2.611l-2.633-39.686a2.454,2.454,0,0,0-2.448-2.291H135.474a2.453,2.453,0,0,0,0,4.907Z" fill="#3ed29c"></path>
    <path id="路径_237" d="M304.353,349.617h10.054a2.453,2.453,0,0,0,0-4.907H304.353a2.453,2.453,0,0,0,0,4.907Zm-.535,9.38h11.124a2.453,2.453,0,1,0,0-4.907H303.818a2.453,2.453,0,1,0,0,4.907Zm-.535,9.38h12.194a2.453,2.453,0,1,0,0-4.907H303.283a2.453,2.453,0,0,0,0,4.907Z" transform="translate(-194.387 -182.881)" fill="#3ed29c"></path>
  </g>
</svg>
