<?xml version="1.0" encoding="UTF-8"?>
<svg xmlns="http://www.w3.org/2000/svg" width="50.024" height="50.681" viewBox="0 0 50.024 50.681">
  <path id="工艺图" d="M184.142,187.77a2.05,2.05,0,1,0,0,4.1h26.581a2.05,2.05,0,0,0,2.05-2.05v-35.87a2.049,2.049,0,0,0-.553-1.4L202.208,141.84a2.049,2.049,0,0,0-1.5-.65H184.142a2.05,2.05,0,0,0,0,4.1H199.82l8.853,9.47v8.057A2.053,2.053,0,0,0,208,162.7h-6.365a2.05,2.05,0,0,0,0,4.1H208a2.049,2.049,0,0,0,.673-.113v4.1a2.053,2.053,0,0,0-.673-.113h-6.365a2.05,2.05,0,0,0,0,4.1H208a2.05,2.05,0,0,0,.673-.113v4.1a2.053,2.053,0,0,0-.673-.113h-6.365a2.05,2.05,0,0,0,0,4.1H208a2.049,2.049,0,0,0,.673-.113v5.126H184.142ZM164.8,191.627h12.084a2.05,2.05,0,0,0,2.05-2.05v-40.5a2.048,2.048,0,0,0-.625-1.474l-6.042-5.837a2.051,2.051,0,0,0-2.849,0l-6.042,5.837a2.05,2.05,0,0,0-.625,1.474v40.5A2.048,2.048,0,0,0,164.8,191.627Zm2.05-4.1V182.56h7.983v4.967Zm3.992-41.436,3.992,3.857V178.46h-7.983V149.947Z" transform="translate(-162.75 -141.19)" fill="#3ed29c"></path>
</svg>
