<?xml version="1.0" encoding="UTF-8"?>
<svg xmlns="http://www.w3.org/2000/svg" width="61.548" height="53.888" viewBox="0 0 61.548 53.888">
  <g id="异常申报" transform="translate(-89.4 -142)">
    <path id="路径_381" d="M89.693,194.8a2.185,2.185,0,0,0,1.892,1.092h57.179a2.185,2.185,0,0,0,1.892-3.277l-28.59-49.518a2.185,2.185,0,0,0-3.784,0l-28.59,49.518A2.184,2.184,0,0,0,89.693,194.8Zm30.482-46.242,24.806,42.965H95.368Z" fill="#3ed29c"></path>
    <path id="路径_382" d="M484.185,399.79A2.184,2.184,0,0,0,482,401.975V416.79a2.185,2.185,0,0,0,4.369,0V401.975A2.185,2.185,0,0,0,484.185,399.79Zm0,22.84A2.184,2.184,0,0,0,482,424.814v.2a2.185,2.185,0,1,0,4.369,0v-.2A2.185,2.185,0,0,0,484.185,422.63Z" transform="translate(-364.01 -239.017)" fill="#3ed29c"></path>
  </g>
</svg>
