<?xml version="1.0" encoding="UTF-8"?>
<svg xmlns="http://www.w3.org/2000/svg" width="59.509" height="59.509" viewBox="0 0 59.509 59.509">
  <g id="意见反馈" transform="translate(-100.5 -100.3)">
    <path id="路径_379" d="M118.672,102.639a29.844,29.844,0,1,0,11.582-2.339A29.649,29.649,0,0,0,118.672,102.639Zm37,27.415a25.416,25.416,0,1,1-25.416-25.416A25.445,25.445,0,0,1,155.671,130.055Z" fill="#3ed29c"></path>
    <path id="路径_380" d="M337.33,389.5a2.169,2.169,0,1,0-4.19,1.123,8.157,8.157,0,0,0,15.756,0,2.169,2.169,0,0,0-4.19-1.123,3.819,3.819,0,0,1-7.375,0Zm-7.471-14.1a2.169,2.169,0,0,0-2.169,2.169v2.819a2.169,2.169,0,0,0,4.338,0v-2.819A2.169,2.169,0,0,0,329.859,375.4Zm22.316,7.157a2.169,2.169,0,0,0,2.169-2.169v-2.819a2.169,2.169,0,1,0-4.338,0v2.819A2.169,2.169,0,0,0,352.175,382.557Z" transform="translate(-210.762 -255.208)" fill="#3ed29c"></path>
  </g>
</svg>
