<?xml version="1.0" encoding="UTF-8"?>
<svg xmlns="http://www.w3.org/2000/svg" width="50.818" height="50.818" viewBox="0 0 50.818 50.818">
  <path id="扫一扫" d="M190.757,161.215a2.06,2.06,0,0,0,2.06-2.06v-8.423A8.741,8.741,0,0,0,184.087,142H150.731A8.741,8.741,0,0,0,142,150.731v8.423a2.06,2.06,0,1,0,4.12,0v-8.423a4.616,4.616,0,0,1,4.611-4.611h33.355a4.616,4.616,0,0,1,4.611,4.611v8.423A2.061,2.061,0,0,0,190.757,161.215ZM142,184.087a8.741,8.741,0,0,0,8.731,8.731h33.355a8.742,8.742,0,0,0,8.732-8.731v-8.423a2.06,2.06,0,1,0-4.12,0v8.423a4.616,4.616,0,0,1-4.611,4.611H150.731a4.616,4.616,0,0,1-4.611-4.611v-8.423a2.06,2.06,0,1,0-4.12,0Zm2.06-14.618h46.7a2.06,2.06,0,0,0,0-4.12h-46.7a2.06,2.06,0,0,0,0,4.12Z" transform="translate(-142 -142)" fill="#3ed29c"></path>
</svg>
