<?xml version="1.0" encoding="UTF-8"?>
<svg xmlns="http://www.w3.org/2000/svg" width="50.839" height="59.941" viewBox="0 0 50.839 59.941">
  <g id="报表" transform="translate(-151.12 -86.51)">
    <path id="路径_258" d="M189.121,86.51H163.958a2.113,2.113,0,0,0-2.113,2.113V91.7h-8.612a2.113,2.113,0,0,0-2.113,2.113v50.523a2.113,2.113,0,0,0,2.113,2.113h46.613a2.113,2.113,0,0,0,2.113-2.113V93.815a2.113,2.113,0,0,0-2.113-2.113h-8.612V88.623A2.113,2.113,0,0,0,189.121,86.51Zm-23.05,4.226h20.937v4.521H166.071Zm31.662,5.192v46.3H155.346v-46.3h6.5v1.441a2.113,2.113,0,0,0,2.113,2.113h25.163a2.113,2.113,0,0,0,2.113-2.113V95.928Z" fill="#3ed29c"></path>
    <path id="路径_259" d="M291.443,467.514a2.113,2.113,0,0,0-2.113,2.113v9.189a2.113,2.113,0,0,0,4.226,0v-9.189A2.113,2.113,0,0,0,291.443,467.514Zm8.85-6.415a2.113,2.113,0,0,0-2.113,2.113v15.6a2.113,2.113,0,0,0,4.226,0v-15.6A2.113,2.113,0,0,0,300.294,461.1Zm8.85,8.615a2.113,2.113,0,0,0-2.113,2.113v6.99a2.113,2.113,0,0,0,4.226,0v-6.99A2.113,2.113,0,0,0,309.144,469.713Zm8.85-12.413a2.113,2.113,0,0,0-2.113,2.113v19.4a2.113,2.113,0,0,0,4.226,0v-19.4A2.113,2.113,0,0,0,317.995,457.3Z" transform="translate(-128.475 -344.672)" fill="#3ed29c"></path>
  </g>
</svg>
