<?xml version="1.0" encoding="UTF-8"?>
<svg xmlns="http://www.w3.org/2000/svg" width="53.058" height="59.941" viewBox="0 0 53.058 59.941">
  <g id="提示" transform="translate(-686.751 -39.059)">
    <path id="路径_242" d="M165.745,111.925a2,2,0,0,0,0-4.006h-3.8V88.959a20.743,20.743,0,0,0-16.276-20.25,2,2,0,0,0,.212-.9,4.663,4.663,0,1,0-9.327,0,2,2,0,0,0,.212.9,20.743,20.743,0,0,0-16.276,20.25v18.959h-3.8a2,2,0,0,0,0,4.006ZM140.562,67.813a.657.657,0,0,1,1.314,0,2,2,0,0,0,.047.431c-.234-.008-.469-.013-.7-.013s-.47.005-.7.013a2.083,2.083,0,0,0,.046-.431ZM124.5,88.959a16.721,16.721,0,1,1,33.442,0v18.959H124.5Zm24.563,26.29a2,2,0,1,0-4.006,0,3.835,3.835,0,1,1-7.67,0,2,2,0,1,0-4.006,0,7.841,7.841,0,1,0,15.683,0Z" transform="translate(572.061 -24.091)" fill="#3ed29c"></path>
  </g>
</svg>
