<?xml version="1.0" encoding="UTF-8"?>
<svg xmlns="http://www.w3.org/2000/svg" width="44.59" height="50.447" viewBox="0 0 44.59 50.447">
  <g id="收藏库" transform="translate(-184.19 -141.22)">
    <path id="路径_332" d="M184.19,143.254v46.378a2.034,2.034,0,0,0,2.034,2.034h40.522a2.034,2.034,0,0,0,2.034-2.034V143.254a2.034,2.034,0,0,0-2.034-2.034H186.224A2.034,2.034,0,0,0,184.19,143.254Zm4.068,2.034h36.454V187.6H188.258Z" transform="translate(0)" fill="#3ed29c"></path>
    <path id="路径_333" d="M336.391,327.869l-7.014-1.019-3.137-6.356a2.034,2.034,0,0,0-3.648,0l-3.136,6.356-7.014,1.019a2.034,2.034,0,0,0-1.128,3.47l5.075,4.948-1.2,6.986a2.034,2.034,0,0,0,2.951,2.144l6.275-3.3,6.274,3.3a2.034,2.034,0,0,0,2.952-2.144l-1.2-6.986,5.075-4.948a2.034,2.034,0,0,0-1.128-3.47Zm-7.553,6.25a2.034,2.034,0,0,0-.585,1.8l.682,3.977-3.572-1.878a2.036,2.036,0,0,0-1.893,0L319.9,339.9l.682-3.977a2.034,2.034,0,0,0-.585-1.8L317.1,331.3l3.994-.58a2.035,2.035,0,0,0,1.532-1.113l1.786-3.619,1.786,3.619a2.035,2.035,0,0,0,1.532,1.113l3.994.58Z" transform="translate(-117.931 -166.061)" fill="#3ed29c"></path>
  </g>
</svg>
