<?xml version="1.0" encoding="UTF-8"?>
<svg xmlns="http://www.w3.org/2000/svg" width="50.274" height="59.941" viewBox="0 0 50.274 59.941">
  <g id="文档管理" transform="translate(-167.33 -101.05)">
    <path id="路径_249" d="M215.416,101.05H178.571a2.188,2.188,0,0,0-2.188,2.188V110.1h-6.865a2.188,2.188,0,0,0-2.188,2.188V158.8a2.188,2.188,0,0,0,2.188,2.188h36.845a2.188,2.188,0,0,0,2.188-2.188v-6.865h6.865a2.188,2.188,0,0,0,2.188-2.188V103.238A2.188,2.188,0,0,0,215.416,101.05Zm-11.241,55.566H171.706V114.479h32.469Zm9.053-9.054h-4.677V112.292a2.188,2.188,0,0,0-2.188-2.188h-25.6v-4.677h32.469Z" fill="#3ed29c"></path>
    <path id="路径_250" d="M290.638,582.766h19.178a2.188,2.188,0,0,0,0-4.376H290.638a2.188,2.188,0,0,0,0,4.376Zm0,9.155h10.7a2.188,2.188,0,1,0,0-4.376h-10.7a2.188,2.188,0,1,0,0,4.376Z" transform="translate(-112.287 -442.527)" fill="#3ed29c"></path>
  </g>
</svg>
