<?xml version="1.0" encoding="UTF-8"?>
<svg xmlns="http://www.w3.org/2000/svg" width="66.556" height="59.941" viewBox="0 0 66.556 59.941">
  <g id="日常办公" transform="translate(-1440.887 -39.059)">
    <path id="路径_255" d="M151.436,129.45H89.58a2.35,2.35,0,0,0-2.35,2.35v40.212a2.35,2.35,0,0,0,2.35,2.35h22.907V184.69h-8.931a2.35,2.35,0,0,0,0,4.7h33.9a2.35,2.35,0,1,0,0-4.7h-8.931V174.361h22.907a2.35,2.35,0,0,0,2.35-2.35V131.8A2.351,2.351,0,0,0,151.436,129.45Zm-2.35,4.7v27.144H91.931V134.151Zm-25.258,50.539h-6.641V174.361h6.641Zm-31.9-15.028v-3.666h57.155v3.666Z" transform="translate(1353.657 -90.391)" fill="#3ed29c"></path>
  </g>
</svg>
