<?xml version="1.0" encoding="UTF-8"?>
<svg xmlns="http://www.w3.org/2000/svg" width="45.118" height="52.338" viewBox="0 0 45.118 52.338">
  <g id="权益" transform="translate(-142.39 -98.23)">
    <path id="路径_338" d="M185.632,98.23H144.265a1.875,1.875,0,0,0-1.875,1.875v48.588a1.876,1.876,0,0,0,2.679,1.695l19.78-9.373,19.987,9.376a1.875,1.875,0,0,0,2.672-1.7V100.105A1.875,1.875,0,0,0,185.632,98.23Zm-1.875,47.512-18.116-8.5a1.876,1.876,0,0,0-1.6,0l-17.9,8.483V101.981h37.616Z" fill="#3ed29c"></path>
    <path id="路径_339" d="M296.075,293.081h22.388a1.875,1.875,0,0,0,0-3.751H296.075a1.875,1.875,0,1,0,0,3.751Zm0,8.928h22.388a1.875,1.875,0,0,0,0-3.751H296.075a1.875,1.875,0,1,0,0,3.751Z" transform="translate(-142.32 -179.154)" fill="#3ed29c"></path>
  </g>
</svg>
