<?xml version="1.0" encoding="UTF-8"?>
<svg xmlns="http://www.w3.org/2000/svg" width="52.812" height="59.89" viewBox="0 0 52.812 59.89">
  <g id="查询" transform="translate(-137 -86.74)">
    <path id="路径_295" d="M139.112,146.63h16.513a2.112,2.112,0,1,0,0-4.225h-14.4V90.965h44.362v21.842a2.112,2.112,0,0,0,4.225,0V88.852A2.112,2.112,0,0,0,187.7,86.74H139.112A2.112,2.112,0,0,0,137,88.852v55.665A2.113,2.113,0,0,0,139.112,146.63Z" transform="translate(0 0)" fill="#3ed29c"></path>
    <path id="路径_296" d="M404.621,436.18a14.807,14.807,0,1,0-1.6,22.338l5.51,5.51a2.112,2.112,0,0,0,2.987-2.988l-5.51-5.51A14.836,14.836,0,0,0,404.621,436.18Zm-17.964,17.964a10.6,10.6,0,1,1,7.488,3.1A10.6,10.6,0,0,1,386.657,454.144Z" transform="translate(-225.273 -320.806)" fill="#3ed29c"></path>
  </g>
</svg>
