<?xml version="1.0" encoding="UTF-8"?>
<svg xmlns="http://www.w3.org/2000/svg" width="58.965" height="54.791" viewBox="0 0 58.965 54.791">
  <path id="档案" d="M170.133,169.29l-7.872-28.059a2.207,2.207,0,0,0-2.125-1.611H121.408a2.206,2.206,0,0,0-2.123,1.605l-7.951,28.059a24.193,24.193,0,0,0-.084,1.1V192.2a2.207,2.207,0,0,0,2.207,2.207h54.55a2.207,2.207,0,0,0,2.207-2.207V170.386a26.445,26.445,0,0,0-.082-1.1Zm-47.057-25.256h35.387l6.634,23.645H148a2.207,2.207,0,0,0-2.207,2.22v.03a5.065,5.065,0,0,1-10.13,0V169.9a2.207,2.207,0,0,0-2.207-2.22H116.376ZM115.664,190v-17.9H131.5a9.48,9.48,0,0,0,18.455,0H165.8V190H115.664Z" transform="translate(-111.25 -139.62)" fill="#3ed29c"></path>
</svg>
