<?xml version="1.0" encoding="UTF-8"?>
<svg xmlns="http://www.w3.org/2000/svg" width="63.997" height="61.674" viewBox="0 0 63.997 61.674">
  <g id="水量" transform="translate(-100.28 -122.93)">
    <path id="路径_310" d="M381.79,150.656a113.633,113.633,0,0,0-7.063-12.4c-5.03-7.815-9.976-14.149-10.184-14.416a2.377,2.377,0,0,0-3.744,0c-.208.266-5.154,6.6-10.184,14.416a113.7,113.7,0,0,0-7.063,12.4c-2.269,4.779-3.372,8.527-3.372,11.457a22.491,22.491,0,1,0,44.983,0C385.163,159.183,384.059,155.435,381.79,150.656Zm-19.119,29.193a17.756,17.756,0,0,1-17.736-17.736c0-4.022,3.43-11.569,9.659-21.252,3.071-4.774,6.172-9.061,8.077-11.619,1.9,2.551,4.989,6.822,8.057,11.589,6.242,9.7,9.678,17.255,9.678,21.281a17.756,17.756,0,0,1-17.736,17.736Z" transform="translate(-220.886 0)" fill="#3ed29c"></path>
    <path id="路径_311" d="M115.472,260.225a10.449,10.449,0,0,1-10.438-10.438c0-1.118.586-4.628,6.01-13.063,1.609-2.5,3.231-4.793,4.427-6.427,1.083,1.48,2.515,3.5,3.97,5.722a2.378,2.378,0,0,0,3.98-2.6c-3.068-4.691-5.956-8.39-6.078-8.545a2.377,2.377,0,0,0-3.744,0c-.133.17-3.308,4.237-6.535,9.25-4.566,7.094-6.786,12.219-6.786,15.666a15.21,15.21,0,0,0,15.193,15.193,2.378,2.378,0,1,0,0-4.756Z" transform="translate(0 -93.022)" fill="#3ed29c"></path>
  </g>
</svg>
