<?xml version="1.0" encoding="UTF-8"?>
<svg xmlns="http://www.w3.org/2000/svg" width="60.992" height="54.195" viewBox="0 0 60.992 54.195">
  <g id="污水处理" transform="translate(-102.286 -147.95)">
    <path id="路径_375" d="M110.9,153.509v8.9a1.1,1.1,0,0,1-.051.329l-.018.057-8.3,32.187a5.559,5.559,0,0,0,5.32,7.168h37.032a5.559,5.559,0,0,0,5.32-7.168l-8.282-32.129-.033-.114a1.1,1.1,0,0,1-.051-.329v-8.9a5.565,5.565,0,0,0-5.559-5.559H116.454A5.565,5.565,0,0,0,110.9,153.509Zm26.475,0v8.9a5.555,5.555,0,0,0,.237,1.608l8.283,32.13.033.115a1.093,1.093,0,0,1-1.042,1.422H107.85a1.093,1.093,0,0,1-1.042-1.422l.018-.057,8.3-32.187a5.553,5.553,0,0,0,.238-1.609v-8.9a1.094,1.094,0,0,1,1.093-1.093h19.824A1.094,1.094,0,0,1,137.371,153.509Zm8.774,3.111h4.983a.531.531,0,0,1,.531.531v7.392a5,5,0,0,0,.211,1.438l6.881,26.69.033.115a.53.53,0,0,1-.506.69H154.2a2.233,2.233,0,1,0,0,4.466h4.079a5,5,0,0,0,4.785-6.435l-6.881-26.69-.033-.115a.532.532,0,0,1-.025-.16v-7.392a5,5,0,0,0-5-5h-4.983a2.233,2.233,0,0,0,0,4.467Z" transform="translate(0 0)" fill="#3ed29c"></path>
    <path id="路径_376" d="M324.811,437.752a8.131,8.131,0,0,0,8.122-8.122c0-1.154-.342-3.221-3.3-7.816-1.511-2.347-3-4.256-3.064-4.336a2.232,2.232,0,0,0-3.516,0c-.063.08-1.553,1.989-3.064,4.336-2.958,4.6-3.3,6.662-3.3,7.816A8.13,8.13,0,0,0,324.811,437.752Zm-1.084-13.494c.368-.573.738-1.122,1.085-1.62.34.49.7,1.029,1.067,1.593,2.517,3.91,2.59,5.258,2.59,5.4a3.656,3.656,0,1,1-7.312,0C321.155,429.49,321.227,428.147,323.727,424.258Z" transform="translate(-198.445 -248.672)" fill="#3ed29c"></path>
  </g>
</svg>
