<?xml version="1.0" encoding="UTF-8"?>
<svg xmlns="http://www.w3.org/2000/svg" width="53.501" height="48.944" viewBox="0 0 53.501 48.944">
  <path id="污泥" d="M101.674,159.663,82.829,114.248a1.764,1.764,0,0,0-3.259,0L60.724,159.663a1.764,1.764,0,0,0,1.63,2.441h37.691a1.764,1.764,0,0,0,1.629-2.441ZM65,158.576l16.2-39.048,16.2,39.048Zm-.659-18.695a1.764,1.764,0,0,0,3.259-1.353l-3.562-8.584a1.764,1.764,0,0,0-3.259,0L48.442,159.663a1.764,1.764,0,0,0,1.63,2.441h6.962a1.764,1.764,0,0,0,0-3.529H52.714l9.69-23.351Z" transform="translate(-48.307 -113.16)" fill="#3ed29c"></path>
</svg>
