<?xml version="1.0" encoding="UTF-8"?>
<svg xmlns="http://www.w3.org/2000/svg" width="49.446" height="28.406" viewBox="0 0 49.446 28.406">
  <path id="流域" d="M124.65,245.227a9.839,9.839,0,0,0,7-2.9,6.312,6.312,0,0,1,8.917,0,9.9,9.9,0,0,0,14.007,0,6.312,6.312,0,0,1,8.917,0,1.8,1.8,0,1,0,2.545-2.545,9.915,9.915,0,0,0-14.006,0,6.312,6.312,0,0,1-8.917,0,9.9,9.9,0,0,0-14.007,0,6.306,6.306,0,0,1-8.917,0,1.8,1.8,0,0,0-2.545,2.545,9.837,9.837,0,0,0,7,2.9Zm0,10.029a9.839,9.839,0,0,0,7-2.9,6.312,6.312,0,0,1,8.917,0,9.9,9.9,0,0,0,14.007,0,6.312,6.312,0,0,1,8.917,0,1.8,1.8,0,0,0,2.545-2.545,9.915,9.915,0,0,0-14.006,0,6.312,6.312,0,0,1-8.917,0,9.9,9.9,0,0,0-14.007,0,6.306,6.306,0,0,1-8.917,0,1.8,1.8,0,1,0-2.545,2.545,9.837,9.837,0,0,0,7,2.9Zm0,10.029a9.839,9.839,0,0,0,7-2.9,6.312,6.312,0,0,1,8.917,0,9.9,9.9,0,0,0,14.007,0,6.312,6.312,0,0,1,8.917,0,1.8,1.8,0,0,0,2.545-2.545,9.915,9.915,0,0,0-14.006,0,6.312,6.312,0,0,1-8.917,0,9.9,9.9,0,0,0-14.007,0,6.306,6.306,0,0,1-8.917,0,1.8,1.8,0,1,0-2.545,2.545,9.837,9.837,0,0,0,7,2.9Z" transform="translate(-117.12 -236.88)" fill="#3ed29c"></path>
</svg>
