<?xml version="1.0" encoding="UTF-8"?>
<svg xmlns="http://www.w3.org/2000/svg" width="51.991" height="49.399" viewBox="0 0 51.991 49.399">
  <g id="物资库" transform="translate(-118.87 -141.18)">
    <path id="路径_371" d="M120.862,190.579H168.87a1.992,1.992,0,0,0,1.992-1.992v-27.3a2.04,2.04,0,0,0-.013-.222,1.985,1.985,0,0,0-.208-1.129l-9.086-17.679a1.992,1.992,0,0,0-1.771-1.081H130.017a1.992,1.992,0,0,0-1.769,1.075l-9.155,17.68a1.987,1.987,0,0,0-.21,1.134,2.045,2.045,0,0,0-.013.222v27.3A1.992,1.992,0,0,0,120.862,190.579Zm1.992-3.983V162.843h44.025v23.752H122.853Zm42.753-27.736h-18.75v-13.7h11.711Zm-34.378-13.7h11.646v13.7H124.136Z" fill="#3ed29c"></path>
    <path id="路径_372" d="M256.3,602.357H245.562a1.992,1.992,0,1,0,0,3.983H256.3a1.992,1.992,0,1,0,0-3.983Zm-10.736-3.543h5.368a1.992,1.992,0,1,0,0-3.983h-5.368a1.992,1.992,0,1,0,0,3.983Z" transform="translate(-116.421 -423.533)" fill="#3ed29c"></path>
  </g>
</svg>
