<?xml version="1.0" encoding="UTF-8"?>
<svg xmlns="http://www.w3.org/2000/svg" width="50.839" height="59.941" viewBox="0 0 50.839 59.941">
  <g id="生产运营" transform="translate(-151.12 -68.15)">
    <path id="路径_243" d="M201.959,75.456a2.113,2.113,0,0,0-2.113-2.113h-8.612v-3.08a2.113,2.113,0,0,0-2.113-2.113H163.958a2.113,2.113,0,0,0-2.113,2.113v3.079h-8.612a2.113,2.113,0,0,0-2.113,2.113v50.523a2.113,2.113,0,0,0,2.113,2.113h46.613a2.113,2.113,0,0,0,2.113-2.113Zm-35.888-3.08h20.937V76.9H166.071Zm31.662,51.489H155.346v-46.3h6.5V79.01a2.113,2.113,0,0,0,2.113,2.113h25.163a2.113,2.113,0,0,0,2.113-2.113V77.569h6.5Z" fill="#3ed29c"></path>
    <path id="路径_244" d="M293.27,422.24a2.113,2.113,0,1,0,0,4.226h3.447l-9.057,9.058-8.731-8.731a2.114,2.114,0,0,0-2.989,0l-5.922,5.921a2.113,2.113,0,1,0,2.989,2.989l4.427-4.427,8.731,8.731a2.112,2.112,0,0,0,2.988,0l10.2-10.2v2.734a2.113,2.113,0,1,0,4.226,0v-8.193a2.113,2.113,0,0,0-2.113-2.113Z" transform="translate(-109.949 -329.149)" fill="#3ed29c"></path>
  </g>
</svg>
