<?xml version="1.0" encoding="UTF-8"?>
<svg xmlns="http://www.w3.org/2000/svg" width="49.869" height="61.289" viewBox="0 0 49.869 61.289">
  <g id="监控" transform="translate(-170.33 -92.09)">
    <path id="路径_279" d="M177.633,134.656a24.849,24.849,0,0,0,15.442,7.207V149h-16.1a2.189,2.189,0,0,0,0,4.379h36.584a2.189,2.189,0,1,0,0-4.379h-16.1v-7.137a24.958,24.958,0,1,0-19.821-7.207Zm17.631-38.188a20.556,20.556,0,1,1-20.556,20.556A20.58,20.58,0,0,1,195.264,96.468Z" transform="translate(0)" fill="#3ed29c"></path>
    <path id="路径_280" d="M343.245,278.29A13.285,13.285,0,1,0,329.96,265,13.3,13.3,0,0,0,343.245,278.29Zm0-22.191A8.906,8.906,0,1,1,334.339,265,8.917,8.917,0,0,1,343.245,256.1Z" transform="translate(-147.981 -147.981)" fill="#3ed29c"></path>
  </g>
</svg>
