<?xml version="1.0" encoding="UTF-8"?>
<svg xmlns="http://www.w3.org/2000/svg" width="68.198" height="68.198" viewBox="0 0 68.198 68.198">
  <g id="筛选" transform="translate(-100.5 -100.5)">
    <path id="路径_346" d="M158.711,110.488a34,34,0,1,0,7.307,10.838A33.992,33.992,0,0,0,158.711,110.488ZM134.6,163.726A29.127,29.127,0,1,1,163.726,134.6,29.16,29.16,0,0,1,134.6,163.726Z" transform="translate(0 0)" fill="#3ed29c"></path>
    <path id="路径_347" d="M359.414,339.08H339.2a4.586,4.586,0,0,0-3.561,7.477l5.426,6.684V369.23a2.486,2.486,0,1,0,4.972,0V352.358a2.487,2.487,0,0,0-.556-1.567l-5.472-6.74H358.6l-5.472,6.74a2.487,2.487,0,0,0-.556,1.567v11.9a2.486,2.486,0,0,0,4.972,0V353.24l5.426-6.684a4.586,4.586,0,0,0-3.559-7.476Z" transform="translate(-214.708 -218.81)" fill="#3ed29c"></path>
  </g>
</svg>
