<?xml version="1.0" encoding="UTF-8"?>
<svg xmlns="http://www.w3.org/2000/svg" width="41.937" height="56.61" viewBox="0 0 41.937 56.61">
  <g id="签到" transform="translate(-181.77 -66.22)">
    <path id="路径_344" d="M202.738,122.83a1.906,1.906,0,0,0,1.377-.589,117.09,117.09,0,0,0,9.708-11.909c6.558-9.234,9.883-17.021,9.883-23.146a20.968,20.968,0,1,0-41.936,0c0,6.125,3.325,13.912,9.884,23.146a117,117,0,0,0,9.708,11.909A1.905,1.905,0,0,0,202.738,122.83ZM185.58,87.188a17.158,17.158,0,1,1,34.317,0c0,10.775-12.862,26.1-17.158,30.915C198.441,113.288,185.58,97.974,185.58,87.188Z" fill="#3ed29c"></path>
    <path id="路径_345" d="M361.145,320.708a1.9,1.9,0,0,0-2.694,0l-10.3,10.3-5.061-5.061a1.905,1.905,0,1,0-2.694,2.694l6.408,6.408a1.9,1.9,0,0,0,2.694,0L361.143,323.4A1.9,1.9,0,0,0,361.145,320.708Z" transform="translate(-148.033 -237.807)" fill="#3ed29c"></path>
  </g>
</svg>
