<?xml version="1.0" encoding="UTF-8"?>
<svg xmlns="http://www.w3.org/2000/svg" width="59.765" height="59.769" viewBox="0 0 59.765 59.769">
  <path id="维修" d="M139.536,195.233a6.839,6.839,0,0,0,9.673,0l26.569-26.569a16.114,16.114,0,0,0,16.819-3.754,16.075,16.075,0,0,0,3.419-17.665,2.394,2.394,0,0,0-3.9-.756l-5.248,5.248-3.841-3.841,5.248-5.248a2.394,2.394,0,0,0-.756-3.9A16.071,16.071,0,0,0,166.1,158.992l-26.568,26.569A6.846,6.846,0,0,0,139.536,195.233Zm33.709-49.675a11.231,11.231,0,0,1,8.644-3.289l-3.935,3.935a2.393,2.393,0,0,0,0,3.385l7.226,7.226a2.394,2.394,0,0,0,3.386,0l3.935-3.936a11.291,11.291,0,1,1-19.256-7.322Zm-30.323,43.388L168.5,163.367a16.221,16.221,0,0,0,2.9,2.9l-25.579,25.579a2.052,2.052,0,0,1-2.9-2.9Z" transform="translate(-137.536 -137.468)" fill="#3ed29c"></path>
</svg>
