<?xml version="1.0" encoding="UTF-8"?>
<svg xmlns="http://www.w3.org/2000/svg" width="56.905" height="48.803" viewBox="0 0 56.905 48.803">
  <path id="编辑" d="M120.886,163.134l.029-.006a2.06,2.06,0,0,0,1.033-.563L150.612,133.9a6.233,6.233,0,0,0,0-8.8l-6.763-6.763a6.233,6.233,0,0,0-8.8,0L106.378,147q-.038.038-.074.079l0,.006c-.021.023-.042.048-.062.072l-.016.021-.046.06-.021.03-.037.053c-.008.012-.016.024-.023.037s-.021.032-.03.049l-.024.042-.026.046-.024.047-.021.043c-.008.017-.016.035-.023.052l-.017.04c-.008.019-.015.039-.023.059l-.013.035c-.008.023-.015.046-.023.068l-.009.028c-.008.027-.016.054-.023.082l0,.017q-.026.1-.041.21l-2.139,14.778A2.069,2.069,0,0,0,106,165.294l14.783-2.141h0l.064-.011.039-.007Zm17.083-41.876a2.091,2.091,0,0,1,2.955,0l6.763,6.763a2.091,2.091,0,0,1,0,2.955L143.36,135.3l-9.718-9.717Zm-7.252,7.252,9.718,9.718L120.482,158.18l-9.718-9.718Zm-21.423,24.334,6.806,6.806-7.958,1.152Zm49.171,8.334H126.059a2.068,2.068,0,1,0,0,4.137h32.407a2.068,2.068,0,1,0,0-4.137Z" transform="translate(-103.63 -116.512)" fill="#3ed29c"></path>
</svg>
