<?xml version="1.0" encoding="UTF-8"?>
<svg xmlns="http://www.w3.org/2000/svg" width="40.082" height="55.125" viewBox="0 0 40.082 55.125">
  <g id="耗电" transform="translate(-197.93 -80.05)">
    <path id="路径_325" d="M228.644,93.759c-4.527-7.034-9.12-12.916-9.166-12.974a1.914,1.914,0,0,0-3.014,0c-.046.059-4.638,5.941-9.166,12.974a102.107,102.107,0,0,0-6.35,11.147c-2.03,4.276-3.018,7.621-3.018,10.227a20.041,20.041,0,1,0,40.082,0c0-2.606-.987-5.951-3.018-10.227A102.214,102.214,0,0,0,228.644,93.759Zm-10.673,37.587a16.231,16.231,0,0,1-16.213-16.213c0-1.372.458-3.972,2.642-8.573a98.245,98.245,0,0,1,6.1-10.706c2.871-4.463,5.771-8.453,7.469-10.726,1.694,2.267,4.585,6.246,7.454,10.7a98.436,98.436,0,0,1,6.112,10.717c2.188,4.608,2.647,7.212,2.647,8.585a16.231,16.231,0,0,1-16.213,16.213Z" transform="translate(0 0)" fill="#3ed29c"></path>
    <path id="路径_326" d="M427.012,381.741h-5.384l3.259-7.364a1.914,1.914,0,1,0-3.5-1.549l-4.449,10.052a1.914,1.914,0,0,0,1.75,2.689h5.443l-3.045,7.239a1.914,1.914,0,1,0,3.529,1.484l4.162-9.9a1.914,1.914,0,0,0-1.765-2.656Z" transform="translate(-204.879 -273.029)" fill="#3ed29c"></path>
  </g>
</svg>
