<?xml version="1.0" encoding="UTF-8"?>
<svg xmlns="http://www.w3.org/2000/svg" width="56.1" height="43.002" viewBox="0 0 56.1 43.002">
  <path id="菜单" d="M148.5,224.85h-8.869a2.246,2.246,0,1,0,0,4.493h8.868a2.246,2.246,0,0,0,0-4.493Zm42.739,0H158.393a2.246,2.246,0,0,0,0,4.493h32.84a2.246,2.246,0,0,0,0-4.493ZM148.5,244.1h-8.869a2.246,2.246,0,1,0,0,4.493h8.868a2.246,2.246,0,0,0,0-4.493Zm42.739,0H158.393a2.246,2.246,0,0,0,0,4.493h32.84a2.246,2.246,0,0,0,0-4.493ZM148.5,263.359h-8.869a2.246,2.246,0,0,0,0,4.493h8.868a2.246,2.246,0,0,0,0-4.493Zm42.739,0H158.393a2.246,2.246,0,0,0,0,4.493h32.84a2.246,2.246,0,0,0,0-4.493Z" transform="translate(-137.38 -224.85)" fill="#3ed29c"></path>
</svg>
