<?xml version="1.0" encoding="UTF-8"?>
<svg xmlns="http://www.w3.org/2000/svg" width="64.805" height="58.364" viewBox="0 0 64.805 58.364">
  <g id="视频监控" transform="translate(-87.23 -129.45)">
    <path id="路径_312" d="M149.746,129.45H89.518a2.288,2.288,0,0,0-2.288,2.288v39.154a2.288,2.288,0,0,0,2.288,2.288h22.3v10.056h-8.7a2.288,2.288,0,0,0,0,4.577h33.013a2.288,2.288,0,0,0,0-4.577h-8.7V173.18h22.3a2.288,2.288,0,0,0,2.288-2.288V131.738A2.289,2.289,0,0,0,149.746,129.45Zm-26.881,53.786H116.4V173.18h6.466ZM147.458,168.6H91.807V134.027h55.652V168.6Z" transform="translate(0)" fill="#3ed29c"></path>
    <path id="路径_313" d="M392.314,295.409a2.288,2.288,0,0,0,2.288,0l16.312-9.418a2.288,2.288,0,0,0,0-3.964L394.6,272.609a2.289,2.289,0,0,0-3.433,1.982v18.836A2.289,2.289,0,0,0,392.314,295.409Zm3.433-16.854,9.447,5.454-9.447,5.454Z" transform="translate(-280.755 -131.955)" fill="#3ed29c"></path>
  </g>
</svg>
