<?xml version="1.0" encoding="UTF-8"?>
<svg xmlns="http://www.w3.org/2000/svg" width="65.579" height="62.978" viewBox="0 0 65.579 62.978">
  <g id="警告" transform="translate(-88.77 -86.68)">
    <path id="路径_317" d="M213.05,324.21h-4.277v-22.8a20.528,20.528,0,0,0-41.056,0v22.8h-4.277a2.319,2.319,0,0,0,0,4.637h49.612a2.319,2.319,0,1,0,0-4.637Zm-40.7-22.8a15.891,15.891,0,0,1,31.782,0v22.8H172.353Z" transform="translate(-66.758 -179.19)" fill="#3ed29c"></path>
    <path id="路径_318" d="M126,123.206h-3.42l4.11-4.11a2.319,2.319,0,0,0-3.279-3.279l-8.068,8.068a2.319,2.319,0,0,0,1.64,3.958h3.42l-4.481,4.481a2.319,2.319,0,1,0,3.279,3.279l8.44-8.44a2.319,2.319,0,0,0-1.64-3.958Zm-26.97-3.736a2.319,2.319,0,0,0-2.319-2.319H91.089a2.319,2.319,0,1,0,0,4.637h5.618A2.319,2.319,0,0,0,99.025,119.469Zm3.32-15.934a2.319,2.319,0,0,0,3.279-3.279l-3.972-3.972a2.319,2.319,0,0,0-3.279,3.279Zm19.214-6.6a2.319,2.319,0,0,0,2.319-2.319V89a2.319,2.319,0,1,0-4.637,0v5.618A2.319,2.319,0,0,0,121.559,96.935Zm17.574,7.279a2.309,2.309,0,0,0,1.639-.679l3.972-3.972a2.319,2.319,0,0,0-3.279-3.279l-3.972,3.972a2.319,2.319,0,0,0,1.64,3.959Zm12.9,12.936h-5.618a2.319,2.319,0,1,0,0,4.637h5.618a2.319,2.319,0,0,0,0-4.637Z" transform="translate(0 0)" fill="#3ed29c"></path>
  </g>
</svg>
