<?xml version="1.0" encoding="UTF-8"?>
<svg xmlns="http://www.w3.org/2000/svg" width="55.237" height="48.552" viewBox="0 0 55.237 48.552">
  <g id="设备" transform="translate(-140.68 -185.62)">
    <path id="路径_363" d="M152.014,208.288h32.569a11.334,11.334,0,0,0,0-22.668H152.014a11.334,11.334,0,0,0,0,22.668Zm0-18.205h32.569a6.871,6.871,0,0,1,0,13.742H152.014a6.871,6.871,0,1,1,0-13.742Z" fill="#3ed29c"></path>
    <path id="路径_364" d="M150.63,312.463h16.02a2.231,2.231,0,1,0,0-4.463H150.63a2.231,2.231,0,1,0,0,4.463Zm1.383,34.987h32.569a11.334,11.334,0,1,0,0-22.668H152.014a11.334,11.334,0,1,0,0,22.668Zm0-18.205h32.569a6.871,6.871,0,0,1,0,13.742H152.014a6.871,6.871,0,1,1,0-13.742Z" transform="translate(0 -113.277)" fill="#3ed29c"></path>
    <path id="路径_365" d="M511.311,660.463h16.02a2.231,2.231,0,0,0,0-4.463h-16.02a2.231,2.231,0,1,0,0,4.463Z" transform="translate(-340.999 -435.393)" fill="#3ed29c"></path>
  </g>
</svg>
