<?xml version="1.0" encoding="UTF-8"?>
<svg xmlns="http://www.w3.org/2000/svg" width="49.44" height="56.469" viewBox="0 0 49.44 56.469">
  <g id="设置" transform="translate(-141.22 -88.508)">
    <path id="路径_359" d="M164.94,88.775l-22.72,13.117a2,2,0,0,0-1,1.732v26.235a2,2,0,0,0,1,1.732l22.72,13.117a2,2,0,0,0,2,0l22.72-13.117a2,2,0,0,0,1-1.732V103.624a2,2,0,0,0-1-1.732L166.94,88.775A2,2,0,0,0,164.94,88.775Zm21.72,39.929-20.72,11.962L145.22,128.7V104.779l20.72-11.962,20.72,11.963Z" transform="translate(0 0)" fill="#3ed29c"></path>
    <path id="路径_360" d="M345.2,356.321A11.121,11.121,0,1,0,356.321,345.2,11.133,11.133,0,0,0,345.2,356.321Zm18.241,0a7.12,7.12,0,1,1-7.12-7.12,7.128,7.128,0,0,1,7.12,7.12Z" transform="translate(-190.381 -239.579)" fill="#3ed29c"></path>
  </g>
</svg>
