<?xml version="1.0" encoding="UTF-8"?>
<svg xmlns="http://www.w3.org/2000/svg" width="63.936" height="52.522" viewBox="0 0 63.936 52.522">
  <g id="评论" transform="translate(-135.15 -235.53)">
    <path id="路径_264" d="M196.541,235.53H137.695a2.545,2.545,0,0,0-2.545,2.545v47.432a2.545,2.545,0,0,0,3.707,2.264l9.873-5.069h47.812a2.545,2.545,0,0,0,2.545-2.545V238.075A2.545,2.545,0,0,0,196.541,235.53ZM194,277.614H148.116a2.539,2.539,0,0,0-1.162.281l-6.713,3.446V240.62H194v36.994Z" fill="#3ed29c"></path>
    <path id="路径_265" d="M283.315,487.19h2.819a2.545,2.545,0,0,0,0-5.09h-2.819a2.545,2.545,0,1,0,0,5.09Zm15.661,0h2.819a2.545,2.545,0,0,0,0-5.09h-2.819a2.545,2.545,0,0,0,0,5.09Zm15.661,0h2.819a2.545,2.545,0,0,0,0-5.09h-2.819a2.545,2.545,0,1,0,0,5.09Z" transform="translate(-133.267 -225.653)" fill="#3ed29c"></path>
  </g>
</svg>
