<?xml version="1.0" encoding="UTF-8"?>
<svg xmlns="http://www.w3.org/2000/svg" width="56.1" height="59.941" viewBox="0 0 56.1 59.941">
  <path id="负责人" d="M126.152,158.061a2.172,2.172,0,0,0,2.172-2.172,23.706,23.706,0,1,1,47.411,0,2.172,2.172,0,0,0,4.345,0,28.051,28.051,0,0,0-21.747-27.341,15.837,15.837,0,1,0-12.605,0,28.033,28.033,0,0,0-21.747,27.341,2.172,2.172,0,0,0,2.172,2.172Zm14.36-44.078A11.517,11.517,0,1,1,152.03,125.5,11.531,11.531,0,0,1,140.512,113.983Z" transform="translate(-123.98 -98.12)" fill="#3ed29c"></path>
</svg>
