<?xml version="1.0" encoding="UTF-8"?>
<svg xmlns="http://www.w3.org/2000/svg" width="50.28" height="50.044" viewBox="0 0 50.28 50.044">
  <g id="资产百分比" transform="translate(-109.17 -94.47)">
    <path id="路径_386" d="M112,130.2c-2.337,1.716-2.827,3.5-2.827,4.7,0,2.078,1.4,5.023,8.09,7.248a56.049,56.049,0,0,0,17.028,2.362,56.049,56.049,0,0,0,17.028-2.362c6.687-2.225,8.09-5.17,8.09-7.248,0-1.2-.49-2.984-2.827-4.7a1.863,1.863,0,0,0-1.145-.363c3.195-1.864,3.973-3.9,3.973-5.449,0-1.2-.49-2.984-2.827-4.7a1.861,1.861,0,0,0-1.145-.363c3.2-1.865,3.973-3.906,3.973-5.449,0-1.2-.49-2.984-2.827-4.7a1.932,1.932,0,0,0-.282-.171c2.513-1.719,3.151-3.533,3.151-4.929,0-2.078-1.4-5.023-8.09-7.248A56.084,56.084,0,0,0,134.33,94.47,56.049,56.049,0,0,0,117.3,96.832c-6.687,2.225-8.09,5.17-8.09,7.248,0,1.4.64,3.2,3.115,4.906a1.917,1.917,0,0,0-.329.194c-2.337,1.716-2.827,3.5-2.827,4.7,0,1.57.794,3.6,3.964,5.448a1.866,1.866,0,0,0-1.136.363c-2.337,1.716-2.827,3.5-2.827,4.7,0,1.54.775,3.582,3.974,5.449A1.866,1.866,0,0,0,112,130.2Zm5.955-2.288c-3.974-1.412-5.035-2.879-5.035-3.524,0-.462.473-1.074,1.3-1.68a1.874,1.874,0,0,0,.4-2.615,26.872,26.872,0,0,0,3.358,1.26,1.874,1.874,0,0,0,1.1-3.583c-4.233-1.3-6.162-2.931-6.162-3.9,0-.462.473-1.074,1.3-1.68a1.873,1.873,0,0,0,.747-1.769c.67.3,1.415.586,2.241.864a1.874,1.874,0,0,0,1.2-3.551c-3.738-1.258-5.44-2.781-5.44-3.664s1.729-2.429,5.526-3.693a52.269,52.269,0,0,1,15.844-2.17,52.269,52.269,0,0,1,15.844,2.17c3.8,1.264,5.526,2.8,5.526,3.693,0,.641-1.052,2.1-5,3.51a1.874,1.874,0,1,0,1.26,3.53c.593-.212,1.14-.428,1.646-.651a1.873,1.873,0,0,0,.751,1.731c.825.606,1.3,1.218,1.3,1.68,0,.654-1.082,2.14-5.14,3.56a1.874,1.874,0,1,0,1.238,3.537c.814-.285,1.545-.581,2.2-.885a1.874,1.874,0,0,0,.4,2.619c.825.606,1.3,1.218,1.3,1.68,0,.66-1.095,2.155-5.2,3.581a1.874,1.874,0,1,0,1.23,3.54c.842-.292,1.595-.6,2.269-.909a1.874,1.874,0,0,0,.4,2.62c.825.606,1.3,1.218,1.3,1.68,0,.893-1.729,2.429-5.526,3.693a52.269,52.269,0,0,1-15.844,2.17,52.269,52.269,0,0,1-15.844-2.17c-3.8-1.264-5.526-2.8-5.526-3.693,0-.462.473-1.074,1.3-1.68a1.875,1.875,0,0,0,.4-2.62c.624.289,1.315.57,2.082.843a1.872,1.872,0,1,0,1.251-3.529Z" fill="#3ed29c"></path>
    <path id="路径_387" d="M314.85,346.9a1.873,1.873,0,0,0,2.649,0l19.026-19.026a1.874,1.874,0,1,0-2.65-2.65L314.85,344.253A1.873,1.873,0,0,0,314.85,346.9Zm4.042-11.88a5.431,5.431,0,1,0-5.431-5.431A5.438,5.438,0,0,0,318.891,335.023Zm0-7.115a1.684,1.684,0,1,1-1.684,1.684A1.686,1.686,0,0,1,318.891,327.908Zm13.487,9.739a5.431,5.431,0,1,0,5.431,5.431A5.438,5.438,0,0,0,332.378,337.647Zm0,7.115a1.684,1.684,0,1,1,1.684-1.684A1.686,1.686,0,0,1,332.378,344.762Z" transform="translate(-191.531 -215.344)" fill="#3ed29c"></path>
  </g>
</svg>
