<?xml version="1.0" encoding="UTF-8"?>
<svg xmlns="http://www.w3.org/2000/svg" width="49.059" height="48.165" viewBox="0 0 49.059 48.165">
  <g id="连网" transform="translate(-114.05 -105.53)">
    <path id="路径_334" d="M117.755,130.06a20.825,20.825,0,1,1,35.55,14.726,1.852,1.852,0,1,0,2.619,2.62,24.542,24.542,0,1,0-34.69,0,1.853,1.853,0,0,0,2.62-2.62A20.687,20.687,0,0,1,117.755,130.06Z" fill="#3ed29c"></path>
    <path id="路径_335" d="M240.066,244.837a13.272,13.272,0,1,1,22.656,9.385,1.852,1.852,0,1,0,2.619,2.62,16.977,16.977,0,1,0-24.009,0,1.853,1.853,0,0,0,2.62-2.62A13.188,13.188,0,0,1,240.066,244.837Z" transform="translate(-114.758 -114.777)" fill="#3ed29c"></path>
    <path id="路径_336" d="M368.724,362.892a1.851,1.851,0,0,0,2.619,0,9.662,9.662,0,1,0-13.664,0,1.853,1.853,0,0,0,2.62-2.62,5.957,5.957,0,1,1,8.424,0,1.852,1.852,0,0,0,0,2.62Z" transform="translate(-225.932 -226)" fill="#3ed29c"></path>
    <path id="路径_337" d="M404.515,603.284l-5.663-14.708a1.853,1.853,0,0,0-3.458,0l-5.663,14.708a1.852,1.852,0,0,0,1.728,2.518h11.327a1.853,1.853,0,0,0,1.729-2.518ZM394.157,602.1l2.965-7.7,2.965,7.7Z" transform="translate(-258.543 -452.107)" fill="#3ed29c"></path>
  </g>
</svg>
