<?xml version="1.0" encoding="UTF-8"?>
<svg xmlns="http://www.w3.org/2000/svg" width="55.857" height="57.077" viewBox="0 0 55.857 57.077">
  <g id="通讯录" transform="translate(-135.16 -126.92)">
    <path id="路径_268" d="M137.383,184h51.41a2.223,2.223,0,0,0,2.223-2.223V136.855a2.223,2.223,0,0,0-2.223-2.223H164.063l-6.449-7a2.224,2.224,0,0,0-1.635-.717h-18.6a2.223,2.223,0,0,0-2.223,2.223v52.63A2.223,2.223,0,0,0,137.383,184Zm2.223-52.631H155l6.449,7a2.224,2.224,0,0,0,1.635.717h23.482V179.55H139.607Z" transform="translate(0 0)" fill="#3ed29c"></path>
    <path id="路径_269" d="M368.01,391.409a7.371,7.371,0,1,0-10.694,0A11.967,11.967,0,0,0,350.71,402.1a2.223,2.223,0,1,0,4.447,0,7.507,7.507,0,0,1,15.013,0,2.223,2.223,0,1,0,4.447,0,11.967,11.967,0,0,0-6.606-10.688Zm-5.347-7.992a2.924,2.924,0,1,1-2.924,2.924A2.928,2.928,0,0,1,362.663,383.417Z" transform="translate(-199.575 -233.37)" fill="#3ed29c"></path>
  </g>
</svg>
