<?xml version="1.0" encoding="UTF-8"?>
<svg xmlns="http://www.w3.org/2000/svg" width="68.594" height="55.619" viewBox="0 0 68.594 55.619">
  <g id="采购" transform="translate(-64.67 -149.284)">
    <path id="路径_288" d="M130.964,164.676h-6.812l-18.708-7.107,10.094-3.834a2.3,2.3,0,1,0-1.634-4.3l-14.938,5.674-14.938-5.674a2.3,2.3,0,1,0-1.634,4.3l10.094,3.834-18.708,7.107H66.97a2.3,2.3,0,1,0,0,4.6h3.417c.007.041.015.081.023.121l7.356,33.7a2.3,2.3,0,0,0,2.247,1.809h37.908a2.3,2.3,0,0,0,2.247-1.809l7.356-33.7c.009-.041.016-.081.023-.121h3.417a2.3,2.3,0,1,0,0-4.6Zm-32-4.646,12.23,4.645H86.736Zm17.1,40.273h-34.2l-6.773-31.026h47.75Z" fill="#3ed29c"></path>
    <path id="路径_289" d="M355.73,503.17a2.3,2.3,0,0,0-2.3,2.3v13.813a2.3,2.3,0,0,0,4.6,0V505.47A2.3,2.3,0,0,0,355.73,503.17Zm9.857,0a2.3,2.3,0,0,0-2.3,2.3v13.813a2.3,2.3,0,0,0,4.6,0V505.47A2.3,2.3,0,0,0,365.588,503.17Zm9.857,0a2.3,2.3,0,0,0-2.3,2.3v13.813a2.3,2.3,0,1,0,4.6,0V505.47A2.3,2.3,0,0,0,375.445,503.17Z" transform="translate(-266.621 -326.754)" fill="#3ed29c"></path>
  </g>
</svg>
