<?xml version="1.0" encoding="UTF-8"?>
<svg xmlns="http://www.w3.org/2000/svg" width="60.512" height="59.465" viewBox="0 0 60.512 59.465">
  <path id="附件" d="M195.663,153.389a20.246,20.246,0,0,0-28.631,0L145.616,174.8a15.513,15.513,0,0,0,21.94,21.939l18.449-18.45a10.651,10.651,0,0,0-15.063-15.063l-14.814,14.815a2.447,2.447,0,0,0,3.461,3.461L174.4,166.693a5.757,5.757,0,0,1,8.141,8.141L164.1,193.283a10.62,10.62,0,1,1-15.019-15.019l21.415-21.414a15.351,15.351,0,0,1,21.71,21.71l-24.188,24.188a2.447,2.447,0,1,0,3.46,3.461l24.188-24.188a20.246,20.246,0,0,0,0-28.631Z" transform="translate(-141.08 -147.46)" fill="#3ed29c"></path>
</svg>
