<?xml version="1.0" encoding="UTF-8"?>
<svg xmlns="http://www.w3.org/2000/svg" width="46.888" height="55.253" viewBox="0 0 46.888 55.253">
  <g id="项目" transform="translate(-159.21 -101.05)">
    <path id="路径_377" d="M204.081,101.05H170.118a2.017,2.017,0,0,0-2.017,2.017v6.328h-6.874a2.017,2.017,0,0,0-2.017,2.017v42.875a2.017,2.017,0,0,0,2.017,2.017h33.964a2.017,2.017,0,0,0,2.017-2.017v-6.328h6.874a2.017,2.017,0,0,0,2.017-2.017V103.067A2.017,2.017,0,0,0,204.081,101.05Zm-10.908,51.22h-29.93V113.429h29.93Zm8.891-8.346h-4.857V111.412a2.017,2.017,0,0,0-2.017-2.017H172.134v-4.311h29.93Z" transform="translate(0 0)" fill="#3ed29c"></path>
    <path id="路径_378" d="M276.7,430.389h12.882a2.017,2.017,0,1,0,0-4.034H276.7a2.017,2.017,0,1,0,0,4.034Zm-6.418,0h.75a2.017,2.017,0,1,0,0-4.034h-.75a2.017,2.017,0,1,0,0,4.034Zm6.418-9.142h12.882a2.017,2.017,0,1,0,0-4.034H276.7a2.017,2.017,0,1,0,0,4.034Zm-6.418,0h.75a2.017,2.017,0,1,0,0-4.034h-.75a2.017,2.017,0,1,0,0,4.034ZM276.7,412.1h12.882a2.017,2.017,0,1,0,0-4.034H276.7a2.017,2.017,0,1,0,0,4.034Zm-6.418,0h.75a2.017,2.017,0,1,0,0-4.034h-.75a2.017,2.017,0,1,0,0,4.034Z" transform="translate(-101.728 -286.38)" fill="#3ed29c"></path>
  </g>
</svg>
