<?xml version="1.0" encoding="UTF-8"?>
<svg xmlns="http://www.w3.org/2000/svg" width="69.865" height="66.023" viewBox="0 0 69.865 66.023">
  <g id="组_38" transform="translate(-87.967 -80.894)">
    <path id="路径_107" d="M298.806,245.846H268.768a2.418,2.418,0,0,1-1.654-.654l-6.841-6.407a2.406,2.406,0,0,0-1.654-.654H245.478a8.271,8.271,0,0,0-8.269,8.269v49.486a8.271,8.271,0,0,0,8.269,8.269H298.8a8.271,8.271,0,0,0,8.269-8.269V254.121a8.263,8.263,0,0,0-8.262-8.275Zm-13.538,30.93a4.5,4.5,0,0,1-6.363.113l-2.056-1.981v12.576a4.5,4.5,0,0,1-9,0V274.658l-2,1.88a4.5,4.5,0,1,1-6.168-6.552L269.221,261a4.5,4.5,0,0,1,6.206.038l9.721,9.375a4.489,4.489,0,0,1,.119,6.363Z" transform="translate(-149.243 -157.237)" fill="#2595e8"></path>
    <path id="路径_108" d="M307.074,254.122a8.271,8.271,0,0,0-8.269-8.269H268.768a2.417,2.417,0,0,1-1.654-.654l-6.841-6.414a2.406,2.406,0,0,0-1.654-.654H245.478a8.271,8.271,0,0,0-8.269,8.269v49.486a8.271,8.271,0,0,0,8.269,8.269H270.12a55.441,55.441,0,0,0,36.948-42.129v-7.9Zm-21.807,22.655a4.5,4.5,0,0,1-6.363.113l-2.056-1.981v12.576a4.5,4.5,0,1,1-9,0V274.658l-2,1.88a4.5,4.5,0,1,1-6.168-6.552L269.221,261a4.5,4.5,0,0,1,6.206.038l9.721,9.375a4.489,4.489,0,0,1,.119,6.363Z" transform="translate(-149.243 -157.237)" fill="#3a9ced"></path>
    <path id="路径_109" d="M268.768,245.846a2.418,2.418,0,0,1-1.654-.654l-6.841-6.407a2.406,2.406,0,0,0-1.654-.654H245.478a8.271,8.271,0,0,0-8.269,8.269v40.89c.113,0,.226.006.34.006a55.118,55.118,0,0,0,30.3-9.023v-3.616l-2,1.88a4.5,4.5,0,1,1-6.168-6.552L269.228,261a4.5,4.5,0,0,1,6.206.038l5.489,5.294a55.183,55.183,0,0,0,10.224-20.492H268.768Z" transform="translate(-149.243 -157.237)" fill="#59adf8"></path>
    <path id="路径_110" d="M267.844,245.658a2.483,2.483,0,0,1-.729-.465l-6.841-6.407a2.406,2.406,0,0,0-1.654-.654H245.478a8.271,8.271,0,0,0-8.269,8.269v19.625a55.4,55.4,0,0,0,30.635-20.367Z" transform="translate(-149.243 -157.237)" fill="#6bc2fc"></path>
  </g>
</svg>
