<?xml version="1.0" encoding="UTF-8"?>
<svg xmlns="http://www.w3.org/2000/svg" width="64.988" height="61.414" viewBox="0 0 64.988 61.414">
  <g id="组_39" transform="translate(-86.18 -79.357)">
    <path id="路径_112" d="M312.682,245.308h-27.94a2.249,2.249,0,0,1-1.538-.608l-6.364-5.96a2.238,2.238,0,0,0-1.538-.608H263.077a7.693,7.693,0,0,0-7.691,7.691v46.031a7.693,7.693,0,0,0,7.691,7.691h49.6a7.693,7.693,0,0,0,7.691-7.691V253.005a7.686,7.686,0,0,0-7.685-7.7ZM299.75,278.337l-9.042,8.721a4.182,4.182,0,0,1-5.773.035l-8.879-8.358a4.187,4.187,0,0,1,5.738-6.1l1.86,1.749V262.457a4.188,4.188,0,0,1,8.376,0v11.7l1.913-1.842a4.184,4.184,0,1,1,5.808,6.024Z" transform="translate(-169.205 -158.774)" fill="#2595e8"></path>
    <path id="路径_113" d="M320.374,253.005a7.693,7.693,0,0,0-7.691-7.691h-27.94a2.249,2.249,0,0,1-1.538-.608l-6.364-5.966a2.238,2.238,0,0,0-1.538-.608H263.078a7.693,7.693,0,0,0-7.691,7.691v46.031a7.693,7.693,0,0,0,7.691,7.691h19.079a51.582,51.582,0,0,0,38.211-34.351V253.005ZM299.75,278.337l-9.043,8.721a4.182,4.182,0,0,1-5.773.035l-8.879-8.358a4.187,4.187,0,1,1,5.738-6.1l1.86,1.749V262.457a4.188,4.188,0,1,1,8.376,0v11.7l1.913-1.842a4.184,4.184,0,1,1,5.808,6.024Z" transform="translate(-169.206 -158.774)" fill="#3a9ced"></path>
    <path id="路径_114" d="M284.741,245.308a2.249,2.249,0,0,1-1.538-.608l-6.364-5.96a2.238,2.238,0,0,0-1.538-.608H263.077a7.693,7.693,0,0,0-7.691,7.691v36.521c.643.023,1.293.041,1.942.041a51.346,51.346,0,0,0,18.828-3.55l-.111-.105a4.187,4.187,0,0,1,5.738-6.1l1.86,1.749v-11.92a4.188,4.188,0,0,1,8.376,0v6.492a51.539,51.539,0,0,0,14.757-23.636H284.741Z" transform="translate(-169.205 -158.774)" fill="#59adf8"></path>
    <path id="路径_115" d="M284.256,245.249a2.187,2.187,0,0,1-1.047-.55l-6.37-5.96a2.238,2.238,0,0,0-1.538-.608H263.077a7.693,7.693,0,0,0-7.691,7.691v17.149a51.436,51.436,0,0,0,28.87-17.722Z" transform="translate(-169.205 -158.774)" fill="#6bc2fc"></path>
  </g>
</svg>
