<?xml version="1.0" encoding="UTF-8"?>
<svg xmlns="http://www.w3.org/2000/svg" width="78.702" height="61.809" viewBox="0 0 78.702 61.809">
  <g id="组_83" transform="translate(-657.649 -106.898)">
    <path id="路径_101" d="M238.941,366.654a8.974,8.974,0,0,1-12.544.134l-32.983-31.805a9.391,9.391,0,0,0-.083,1.2V379.1a9.446,9.446,0,0,0,9.449,9.449h59.8a9.446,9.446,0,0,0,9.449-9.449v-42.9a9.454,9.454,0,0,0-.35-2.522l-32.735,32.983Z" transform="translate(464.324 -219.838)" fill="#2595e8"></path>
    <path id="路径_102" d="M258.884,312.724a1.665,1.665,0,0,0,2.324-.025l33.365-33.614a9.406,9.406,0,0,0-4.559-1.172h-59.8a9.376,9.376,0,0,0-5.552,1.815l34.219,33Z" transform="translate(436.887 -171.015)" fill="#3a9ced"></path>
    <path id="路径_103" d="M271.982,336.192a9.454,9.454,0,0,0-.35-2.522L238.89,366.654a8.974,8.974,0,0,1-12.544.134l-32.983-31.805a9.388,9.388,0,0,0-.083,1.2V379.1a9.446,9.446,0,0,0,9.449,9.449h32.538a56.138,56.138,0,0,0,36.715-43.923Z" transform="translate(464.369 -219.838)" fill="#3a9ced"></path>
    <path id="路径_104" d="M247.238,299.181a55.873,55.873,0,0,0,9.093-21.216h-53.55a9.377,9.377,0,0,0-5.552,1.815l34.219,33a1.66,1.66,0,0,0,1.738.35c.236-.159.465-.325.7-.484l13.352-13.461Zm-45.89,23.859a55.765,55.765,0,0,0,24.451-5.6l-32.385-31.226a9.393,9.393,0,0,0-.083,1.2v35.053a56.365,56.365,0,0,0,8.017.573Z" transform="translate(464.324 -171.06)" fill="#59adf8"></path>
    <path id="路径_105" d="M202.781,277.92a9.377,9.377,0,0,0-5.552,1.815l17.077,16.46a56.283,56.283,0,0,0,19.765-18.281h-31.29Zm4.445,21.566-13.811-13.321a9.4,9.4,0,0,0-.083,1.2v15.454a55.794,55.794,0,0,0,13.894-3.337Z" transform="translate(464.324 -171.015)" fill="#6bc2fc"></path>
  </g>
</svg>
