<?xml version="1.0" encoding="UTF-8"?>
<svg xmlns="http://www.w3.org/2000/svg" width="89.872" height="86.877" viewBox="0 0 89.872 86.877">
  <g id="组_65" transform="translate(-617.009 -275.305)">
    <path id="交叉_12" d="M17.974,86.877a5.991,5.991,0,0,1-5.991-5.991V23.966H4.493a4.494,4.494,0,0,1,0-8.987H85.378a4.494,4.494,0,1,1,0,8.987H77.889V80.885A5.991,5.991,0,0,1,71.9,86.877ZM50.932,37.235l-.005.212V64.409a4.494,4.494,0,0,0,8.983.212l0-.212V37.447a4.494,4.494,0,0,0-8.982-.212Zm-20.97,0,0,.212V64.409a4.494,4.494,0,0,0,8.982.212l0-.212V37.447a4.494,4.494,0,0,0-8.983-.212Zm-4.5-28.248q-4.494,0-4.494-4.494T25.464,0H64.408Q68.9,0,68.9,4.494T64.408,8.987Z" transform="translate(617.009 275.305)" fill="#2595e8"></path>
    <path id="交叉_11" d="M17.974,86.877a5.991,5.991,0,0,1-5.991-5.991V23.966H4.494a4.494,4.494,0,0,1,0-8.987H85.378a4.494,4.494,0,1,1,0,8.987H77.889V52.5A102.392,102.392,0,0,1,52.523,76.577a107.015,107.015,0,0,1-19.159,10.3ZM50.932,37.235l-.005.212V64.409a4.494,4.494,0,0,0,8.983.212l0-.212V37.447a4.494,4.494,0,0,0-8.982-.212Zm-20.97,0,0,.212V64.409a4.494,4.494,0,0,0,8.982.212l.005-.212V37.447a4.494,4.494,0,0,0-8.983-.212Zm-4.5-28.248q-4.494,0-4.494-4.494T25.464,0H64.408Q68.9,0,68.9,4.494T64.408,8.987Z" transform="translate(617.01 275.305)" fill="#3a9ced"></path>
    <path id="交叉_10" d="M11.983,23.966H4.494a4.494,4.494,0,1,1,0-8.987h65.3c-.874,7.587-4.3,15.683-9.878,23.314v-.846a4.494,4.494,0,0,0-8.982-.212l-.005.212V48.4a81.715,81.715,0,0,1-10.209,8.128q-.883.6-1.774,1.164V37.447a4.494,4.494,0,0,0-8.983-.212l0,.212V62.672a70.814,70.814,0,0,1-17.974,5.816ZM25.464,8.987q-4.494,0-4.494-4.494T25.464,0H64.408Q68.9,0,68.9,4.494T64.408,8.987Z" transform="translate(617.01 275.305)" fill="#59adf8"></path>
    <path id="交叉_9" d="M11.983,23.966H4.494a4.494,4.494,0,0,1,0-8.987h37.79A42.431,42.431,0,0,1,28.9,29.133a43.027,43.027,0,0,1-16.913,6.934ZM25.464,8.987q-4.494,0-4.494-4.494T25.464,0H45.4a19.091,19.091,0,0,1-.575,8.987Z" transform="translate(617.01 275.305)" fill="#6bc2fc"></path>
  </g>
</svg>
