<?xml version="1.0" encoding="UTF-8"?>
<svg xmlns="http://www.w3.org/2000/svg" width="61" height="60.208" viewBox="0 0 61 60.208">
  <g id="组_48" transform="translate(-1631 -275.629)">
    <path id="交叉_4" d="M4.753,60.208A4.767,4.767,0,0,1,0,55.454V23.37a4.767,4.767,0,0,1,4.753-4.753h8.714v23.37a4.767,4.767,0,0,0,4.753,4.753h23.37v8.714a4.767,4.767,0,0,1-4.753,4.753ZM24.162,41.591a4.767,4.767,0,0,1-4.753-4.753V4.753A4.767,4.767,0,0,1,24.162,0H56.247A4.767,4.767,0,0,1,61,4.753V36.838a4.767,4.767,0,0,1-4.753,4.753Z" transform="translate(1631 275.629)" fill="#2595e8"></path>
    <path id="交叉_3" d="M2.1,59.393A4.758,4.758,0,0,1,0,55.454V23.37a4.767,4.767,0,0,1,4.753-4.753h8.714v23.37a4.767,4.767,0,0,0,4.753,4.753h23.37v2.348A47.622,47.622,0,0,1,10.936,60.208,48.075,48.075,0,0,1,2.1,59.393Zm22.062-17.8a4.767,4.767,0,0,1-4.753-4.753V4.753A4.767,4.767,0,0,1,24.162,0H56.247a4.727,4.727,0,0,1,.9.086,47.872,47.872,0,0,1,1.6,12.31,47.6,47.6,0,0,1-9.946,29.2Z" transform="translate(1631 275.629)" fill="#3a9ced"></path>
    <path id="交叉_2" d="M0,43.913V23.37a4.767,4.767,0,0,1,4.753-4.753h8.714v23.37a4.71,4.71,0,0,0,.457,2.027A38.732,38.732,0,0,1,0,43.913Zm19.409-7.076V4.753A4.767,4.767,0,0,1,24.162,0H45.05a38.609,38.609,0,0,1,.511,6.272A38.334,38.334,0,0,1,22.685,41.355,4.772,4.772,0,0,1,19.409,36.838Z" transform="translate(1631 275.629)" fill="#59adf8"></path>
    <path id="交叉_1" d="M0,23.847V23.37a4.767,4.767,0,0,1,4.753-4.753h8.715v5.7a24.334,24.334,0,0,1-5.909.724A24.259,24.259,0,0,1,0,23.847ZM19.409,4.753A4.767,4.767,0,0,1,24.162,0H31.83c.008.253.012.507.012.762a24.275,24.275,0,0,1-12.432,21.2Z" transform="translate(1631 275.629)" fill="#6bc2fc"></path>
  </g>
</svg>
