<?xml version="1.0" encoding="UTF-8"?>
<svg xmlns="http://www.w3.org/2000/svg" width="76.204" height="79.996" viewBox="0 0 76.204 79.996">
  <g id="组_60" transform="translate(-151.603 -129.024)">
    <path id="路径_147" d="M213.667,131.726v23.7a11.93,11.93,0,0,1-11.931,11.931H177.682a11.931,11.931,0,0,1-11.931-11.931V129.075H161.5a9.846,9.846,0,0,0-9.845,9.845v60.3a9.846,9.846,0,0,0,9.845,9.845h56.507a9.846,9.846,0,0,0,9.845-9.845V147.5a3.582,3.582,0,0,0-1.04-2.523l-13.147-13.248Z" transform="translate(-0.047 -0.046)" fill="#2595e8"></path>
    <path id="路径_148" d="M371.149,129.075v26.358a3.166,3.166,0,0,0,3.163,3.163h24.054a3.166,3.166,0,0,0,3.163-3.163V129.075Zm23.2,25.344H381.773a4.386,4.386,0,0,1,0-8.768h12.576a4.386,4.386,0,0,1,0,8.768Z" transform="translate(-196.676 -0.046)" fill="#59adf8"></path>
    <path id="路径_149" d="M227.848,147.5a3.582,3.582,0,0,0-1.04-2.523l-13.142-13.248v23.7a11.93,11.93,0,0,1-11.931,11.931H177.682a11.93,11.93,0,0,1-11.931-11.931V129.075H161.5a9.846,9.846,0,0,0-9.845,9.845v60.3a9.846,9.846,0,0,0,9.845,9.845h19.211a63.416,63.416,0,0,0,47.142-37.926V147.5Z" transform="translate(-0.047 -0.046)" fill="#3a9ced"></path>
    <path id="路径_150" d="M151.6,187.577c.139,0,.277.005.416.005a63.155,63.155,0,0,0,46.39-20.224H177.635A11.93,11.93,0,0,1,165.7,155.427V129.075h-4.251a9.846,9.846,0,0,0-9.845,9.845v48.657Zm63.163-54.7-1.141-1.152V139Q214.337,135.987,214.766,132.878Z" transform="translate(0 -0.046)" fill="#59adf8"></path>
    <path id="路径_151" d="M165.923,157.67a11.974,11.974,0,0,1-.224-2.288V129.029h-4.251a9.846,9.846,0,0,0-9.845,9.845v24.336a63.025,63.025,0,0,0,14.32-5.541Zm8.549-5.5a63.556,63.556,0,0,0,18.806-23.142H174.473Z" transform="translate(0)" fill="#6bc2fc"></path>
  </g>
</svg>
