<?xml version="1.0" encoding="UTF-8"?>
<svg xmlns="http://www.w3.org/2000/svg" width="81.47" height="77.596" viewBox="0 0 81.47 77.596">
  <g id="组_53" transform="translate(-220.979 -238.541)">
    <path id="路径_134" d="M294.247,433.05h-.762v17.23a9.625,9.625,0,0,1-9.625,9.625H239.567a9.625,9.625,0,0,1-9.625-9.625V433.05h-.762a8.2,8.2,0,0,0-8.2,8.2v33.885a8.2,8.2,0,0,0,8.2,8.2h65.067a8.2,8.2,0,0,0,8.2-8.2V441.251a8.2,8.2,0,0,0-8.2-8.2Z" transform="translate(0 -167.201)" fill="#2595e8"></path>
    <path id="路径_135" d="M379.589,238.541H341.98a5.749,5.749,0,0,0-5.75,5.75v35.718a5.749,5.749,0,0,0,5.75,5.751h37.608a5.749,5.749,0,0,0,5.75-5.751V244.291a5.744,5.744,0,0,0-5.75-5.75ZM363.07,272.893H348.687a3.953,3.953,0,0,1,0-7.907H363.07a3.953,3.953,0,0,1,0,7.907Zm10.257-13.909H348.687a3.953,3.953,0,0,1,0-7.907h24.641a3.953,3.953,0,0,1,0,7.907Z" transform="translate(-99.071 0)" fill="#3a9ced"></path>
    <path id="路径_136" d="M294.247,433.05h-.762v17.23a9.625,9.625,0,0,1-9.625,9.625H239.567a9.625,9.625,0,0,1-9.625-9.625V433.05h-.762a8.2,8.2,0,0,0-8.2,8.2v33.885a8.2,8.2,0,0,0,8.2,8.2h26.7a63.393,63.393,0,0,0,45.831-45.472,8.188,8.188,0,0,0-7.461-4.816Z" transform="translate(0 -167.201)" fill="#3a9ced"></path>
    <path id="路径_137" d="M243.622,459.9h-4.054a9.625,9.625,0,0,1-9.625-9.625V433.05h-.762a8.2,8.2,0,0,0-8.2,8.2V467.97a145.4,145.4,0,0,0,22.642-8.065Z" transform="translate(0 -167.201)" fill="#59adf8"></path>
    <path id="路径_138" d="M379.589,238.541H341.98a5.749,5.749,0,0,0-5.75,5.75v35.718a5.749,5.749,0,0,0,5.75,5.751h14.046A63.32,63.32,0,0,0,384.771,241.8a5.752,5.752,0,0,0-5.183-3.263ZM363.07,272.893H348.687a3.953,3.953,0,0,1,0-7.907H363.07a3.953,3.953,0,0,1,0,7.907Zm10.257-13.909H348.687a3.953,3.953,0,0,1,0-7.907h24.641a3.953,3.953,0,0,1,0,7.907Z" transform="translate(-99.071 0)" fill="#59adf8"></path>
    <path id="路径_139" d="M232.32,268.991v-3.1h-.762a8.191,8.191,0,0,0-7.813,5.722A62.638,62.638,0,0,0,232.32,268.991Zm7.217-24.655v21.341a63.311,63.311,0,0,0,10.559-7.138,3.951,3.951,0,0,1,1.9-7.418h5.628a63.5,63.5,0,0,0,8.4-12.529H245.287a5.738,5.738,0,0,0-5.75,5.743Z" transform="translate(-2.377 -0.044)" fill="#6bc2fc"></path>
  </g>
</svg>
