<?xml version="1.0" encoding="UTF-8"?>
<svg xmlns="http://www.w3.org/2000/svg" width="75.999" height="71.011" viewBox="0 0 75.999 71.011">
  <g id="组_88" transform="translate(-123.804 -631.696)">
    <path id="路径_89" d="M311.583,262.544H283.454a7.013,7.013,0,0,1-4.742-1.848l-7.447-6.843a7.013,7.013,0,0,0-4.742-1.848H249.381a6.9,6.9,0,0,0-6.9,6.9v57.206a6.9,6.9,0,0,0,6.9,6.9h62.194a6.9,6.9,0,0,0,6.9-6.9V269.443a6.887,6.887,0,0,0-6.892-6.9Zm-18.322,35.14H286v7.257a5.269,5.269,0,1,1-10.538,0v-7.257h-7.257a5.269,5.269,0,0,1,0-10.538h7.257v-7.264a5.269,5.269,0,1,1,10.538,0v7.257h7.257a5.272,5.272,0,0,1,0,10.545Z" transform="translate(-118.678 379.697)" fill="#2595e8"></path>
    <path id="路径_90" d="M318.482,269.443a6.9,6.9,0,0,0-6.9-6.9H283.454a7.013,7.013,0,0,1-4.742-1.848l-7.447-6.843a7.013,7.013,0,0,0-4.742-1.848H249.382a6.9,6.9,0,0,0-6.9,6.9v57.206a6.9,6.9,0,0,0,6.9,6.9h30.012a61.9,61.9,0,0,0,39.088-53.026Zm-25.22,28.241H286v7.257a5.269,5.269,0,1,1-10.538,0v-7.257H268.21a5.269,5.269,0,1,1,0-10.538h7.257v-7.264a5.269,5.269,0,0,1,10.538,0v7.257h7.257a5.272,5.272,0,0,1,0,10.545Z" transform="translate(-118.679 379.697)" fill="#3a9ced"></path>
    <path id="路径_91" d="M283.455,262.544a7.013,7.013,0,0,1-4.742-1.848l-7.447-6.843a7.013,7.013,0,0,0-4.742-1.848H249.382a6.9,6.9,0,0,0-6.9,6.9v46.338a61.438,61.438,0,0,0,27.152-7.566H268.2a5.269,5.269,0,1,1,0-10.538h7.257v-7.257a5.269,5.269,0,1,1,10.538,0v4.77a61.717,61.717,0,0,0,12.716-22.108H283.455Z" transform="translate(-118.679 379.697)" fill="#59adf8"></path>
    <path id="路径_92" d="M274.935,257.133l-3.618-3.33a7.013,7.013,0,0,0-4.742-1.848H249.433a6.9,6.9,0,0,0-6.9,6.9v21.8a61.941,61.941,0,0,0,32.4-23.52Z" transform="translate(-118.723 379.741)" fill="#6bc2fc"></path>
  </g>
</svg>
