<?xml version="1.0" encoding="UTF-8"?>
<svg xmlns="http://www.w3.org/2000/svg" width="59.271" height="63.303" viewBox="0 0 59.271 63.303">
  <g id="组_42" transform="translate(-82.628 -71.734)">
    <path id="路径_122" d="M302.188,264.04l-8.373,2.016a1.756,1.756,0,0,1-2.093-2.207l2.367-7.956a1.767,1.767,0,0,1,.443-.742l21.959-21.959a1.758,1.758,0,0,1,2.485,0l5.971,5.971a1.758,1.758,0,0,1,0,2.485l-21.923,21.923a1.784,1.784,0,0,1-.835.469Zm7.646-61.237h-36.38a7.266,7.266,0,0,0-7.265,7.265V255.3a7.266,7.266,0,0,0,7.265,7.265h14.462l2.939-10.111L317.1,227.082V210.068a7.266,7.266,0,0,0-7.265-7.265Zm-19.969,42.005H279.4a3.609,3.609,0,1,1,0-7.218h10.467a3.609,3.609,0,1,1,0,7.218Zm14.019-11.982H279.4a3.609,3.609,0,0,1,0-7.218h24.486a3.609,3.609,0,0,1,0,7.218Zm0-11.121H279.4a3.609,3.609,0,1,1,0-7.218h24.486a3.609,3.609,0,1,1,0,7.218Z" transform="translate(-183.561 -131.068)" fill="#2595e8"></path>
    <path id="路径_123" d="M317.1,210.068a7.266,7.266,0,0,0-7.265-7.265h-36.38a7.266,7.266,0,0,0-7.265,7.265V255.3a7.266,7.266,0,0,0,7.265,7.265h5.424a45.171,45.171,0,0,0,9.724-2.351l2.253-7.755L317.1,227.088v-17.02Zm-27.234,34.741H279.4a3.609,3.609,0,1,1,0-7.218h10.467a3.609,3.609,0,1,1,0,7.218Zm14.019-11.982H279.4a3.609,3.609,0,1,1,0-7.218h24.486a3.609,3.609,0,1,1,0,7.218Zm0-11.121H279.4a3.609,3.609,0,0,1,0-7.218h24.486a3.609,3.609,0,0,1,0,7.218Zm11.348,12.74-20.706,20.706a1.789,1.789,0,0,0-.443.742l-.665,2.238a45.544,45.544,0,0,0,21.815-23.686Z" transform="translate(-183.561 -131.069)" fill="#3a9ced"></path>
    <path id="路径_124" d="M276.914,243.808a3.607,3.607,0,0,1,2.485-6.223h8.7a45.492,45.492,0,0,0,5.347-4.759H279.4a3.609,3.609,0,1,1,0-7.218h19.691q1.2-1.9,2.2-3.9H279.4a3.609,3.609,0,1,1,0-7.218h24.486a2.27,2.27,0,0,1,.268.015,45.385,45.385,0,0,0,1.9-11.7h-32.6a7.266,7.266,0,0,0-7.265,7.265v36.4a44.822,44.822,0,0,0,10.724-2.66Z" transform="translate(-183.561 -131.069)" fill="#59adf8"></path>
    <path id="路径_125" d="M277.31,221.034a3.606,3.606,0,0,1,2.088-6.548h4.661a45.32,45.32,0,0,0,7.115-11.683H273.454a7.266,7.266,0,0,0-7.265,7.265v17.406A45.308,45.308,0,0,0,277.31,221.034Z" transform="translate(-183.561 -131.069)" fill="#6bc2fc"></path>
  </g>
</svg>
