<?xml version="1.0" encoding="UTF-8"?>
<svg xmlns="http://www.w3.org/2000/svg" width="94.229" height="94.229" viewBox="0 0 94.229 94.229">
  <g id="组_6" transform="translate(-98.06 -98.06)">
    <path id="路径_15" d="M145.175,98.56A46.615,46.615,0,0,0,98.56,145.178l.014,1.174a46.45,46.45,0,0,0,10.147,27.885l.636.775-7.055,6.55a5.9,5.9,0,0,0,4.015,10.228h38.857a46.613,46.613,0,1,0,0-93.227Zm0,5.019a41.6,41.6,0,0,1,0,83.191H106.318a.878.878,0,0,1-.6-1.534l8.845-8.209a2.51,2.51,0,0,0,.128-3.55,41.591,41.591,0,0,1,30.481-69.893Z" fill="#4d5156" stroke="#4d5156" stroke-width="1"></path>
    <path id="路径_16" d="M358.842,330.218a16.081,16.081,0,0,1,6.5,30.787l-.58.243.148,6.745a2.51,2.51,0,0,1-5.019.092l-.167-7.972v-.675a2.509,2.509,0,0,1,1.879-2.429A11.062,11.062,0,1,0,347.777,346.3a2.51,2.51,0,1,1-5.019,0,16.081,16.081,0,0,1,16.084-16.081Z" transform="translate(-217.599 -206.422)" fill="#4891ff" stroke="#4891ff" stroke-width="1"></path>
    <path id="路径_17" d="M513.007,726.136a2.03,2.03,0,1,1,2.036-2.033,2.039,2.039,0,0,1-2.036,2.033" transform="translate(-367.492 -555.597)" fill="#4891ff" stroke="#4891ff" stroke-width="1"></path>
  </g>
</svg>
