<?xml version="1.0" encoding="UTF-8"?>
<svg xmlns="http://www.w3.org/2000/svg" width="77.339" height="93.234" viewBox="0 0 77.339 93.234">
  <g id="组_32" transform="translate(-265.426 -264.77)">
    <g id="组_10" transform="translate(115.015 172.87)">
      <path id="路径_23" d="M377.241,326.78a3.283,3.283,0,0,1-3.282-3.282V305.92c0-8.53,6.2-15.466,13.82-15.466H405.13a3.282,3.282,0,1,1,0,6.563H387.78c-3.934,0-7.257,4.079-7.257,8.9V323.5A3.283,3.283,0,0,1,377.241,326.78Zm7.847-65.417H356.982a3.282,3.282,0,1,1,0-6.563h28.107a3.282,3.282,0,1,1,0,6.563Zm0,18.976H356.982a3.282,3.282,0,0,1,0-6.563h28.107a3.282,3.282,0,0,1,0,6.563Zm-16.274,18.976h-9.866a3.282,3.282,0,0,1,0-6.563h9.866a3.282,3.282,0,1,1,0,6.563Z" transform="translate(-183.711 -141.65)" fill="#4891ff"></path>
      <path id="路径_24" d="M377.1,324.184a3.283,3.283,0,0,1-3.282-3.282V303.324c0-8.53,6.2-15.466,13.82-15.466h17.351a3.282,3.282,0,1,1,0,6.563H387.637c-3.934,0-7.257,4.079-7.257,8.9V320.9A3.283,3.283,0,0,1,377.1,324.184Zm-8.427-27.465h-9.866a3.282,3.282,0,0,1,0-6.563h9.866a3.282,3.282,0,1,1,0,6.563Z" transform="translate(-183.568 -139.054)" fill="#4d5156"></path>
    </g>
    <g id="路径_34" transform="translate(265.426 264.77)" fill="none">
      <path d="M16,0H61.339a16,16,0,0,1,16,16V64.053C77.178,72.492,52.925,93.548,46.22,93.23H16a16,16,0,0,1-16-16V16A16,16,0,0,1,16,0Z" stroke="none"></path>
      <path d="M 16.00000762939453 6.499992370605469 C 10.76168060302734 6.499992370605469 6.499992370605469 10.76168060302734 6.499992370605469 15.99999237060547 L 6.499992370605469 77.23001098632812 C 6.499992370605469 82.46832275390625 10.76168060302734 86.72999572753906 16.00000762939453 86.72999572753906 L 46.02989959716797 86.75759124755859 C 51.2557373046875 85.73043060302734 69.83402252197266 69.32364654541016 70.83851623535156 64.05344390869141 L 70.83851623535156 15.99999237060547 C 70.83851623535156 10.76168060302734 66.57682800292969 6.499992370605469 61.33851623535156 6.499992370605469 L 16.00000762939453 6.499992370605469 M 16.00000762939453 -7.62939453125e-06 L 61.33851623535156 -7.62939453125e-06 C 70.17507934570312 -7.62939453125e-06 77.33851623535156 7.163444519042969 77.33851623535156 15.99999237060547 L 77.33851623535156 64.05344390869141 C 77.17778778076172 72.49201202392578 52.92461013793945 93.54771423339844 46.22040557861328 93.22999572753906 L 16.00000762939453 93.22999572753906 C 7.163444519042969 93.22999572753906 -7.62939453125e-06 86.06655883789062 -7.62939453125e-06 77.23001098632812 L -7.62939453125e-06 15.99999237060547 C -7.62939453125e-06 7.163444519042969 7.163444519042969 -7.62939453125e-06 16.00000762939453 -7.62939453125e-06 Z" stroke="none" fill="#4d5156"></path>
    </g>
  </g>
</svg>
