<?xml version="1.0" encoding="UTF-8"?>
<svg xmlns="http://www.w3.org/2000/svg" width="93.23" height="81.058" viewBox="0 0 93.23 81.058">
  <g id="组_9" transform="translate(-105.524 -167.833)">
    <path id="路径_20" d="M181.644,248.891h-59a17.223,17.223,0,0,1-17.116-17.29V185.129a17.228,17.228,0,0,1,17.116-17.3h10.543a14.209,14.209,0,0,1,9.169,3.367l10.111,8.559a2.644,2.644,0,0,0,1.7.626h27.473a17.224,17.224,0,0,1,17.116,17.3v33.925a17.213,17.213,0,0,1-17.11,17.284Zm-59-75.151a11.341,11.341,0,0,0-11.269,11.389V231.6a11.339,11.339,0,0,0,11.269,11.383h59A11.339,11.339,0,0,0,192.912,231.6V197.676a11.345,11.345,0,0,0-11.269-11.389H154.171a8.475,8.475,0,0,1-5.456-2l-10.122-8.554a8.394,8.394,0,0,0-5.409-1.991H122.64Z" fill="#4d5156"></path>
    <path id="路径_21" d="M401.829,448.119H391.4V437.693a2.954,2.954,0,1,0-5.907,0v10.426h-10.42a2.954,2.954,0,1,0,0,5.907H385.5v10.426a2.954,2.954,0,0,0,5.907,0V454.026h10.426a2.954,2.954,0,1,0-.006-5.907Z" transform="translate(-236.313 -236.112)" fill="#4891ff"></path>
  </g>
</svg>
