<?xml version="1.0" encoding="UTF-8"?>
<svg xmlns="http://www.w3.org/2000/svg" width="44.452" height="57.346" viewBox="0 0 44.452 57.346">
  <g id="文档" transform="translate(-214.275 -127.994)">
    <path id="路径_895" d="M374.3,483.186H353.593a1.593,1.593,0,1,1,0-3.186H374.3a1.593,1.593,0,1,1,0,3.186Zm0,10.354H353.593a1.593,1.593,0,1,1,0-3.186H374.3a1.593,1.593,0,1,1,0,3.186Z" transform="translate(-127.441 -325.723)" fill="#fc9015"></path>
    <path id="路径_896" d="M252.1,185.345H221.146a6.754,6.754,0,0,1-6.746-6.754V144.726L231.126,128H252.1a6.754,6.754,0,0,1,6.746,6.754V178.56a6.754,6.754,0,0,1-6.746,6.786Zm-34.511-39.321v32.567a3.568,3.568,0,0,0,3.56,3.568H252.1a3.568,3.568,0,0,0,3.56-3.568V134.786a3.568,3.568,0,0,0-3.56-3.6H232.424Z" transform="translate(-0.116 -0.006)" fill="#555"></path>
    <path id="路径_897" d="M226.486,146.958H215.877a1.593,1.593,0,0,1-1.131-2.724l15.778-15.77a1.587,1.587,0,0,1,2.716,1.123V140.2a6.762,6.762,0,0,1-6.754,6.754Zm-6.77-3.186h6.77a3.576,3.576,0,0,0,3.568-3.568v-6.77Z" fill="#555"></path>
  </g>
</svg>
