<?xml version="1.0" encoding="UTF-8"?>
<svg xmlns="http://www.w3.org/2000/svg" width="56.541" height="53.999" viewBox="0 0 56.541 53.999">
  <path id="上传" d="M155.936,182a3.042,3.042,0,0,0,3.042-3.042V163.746h11.539a1.521,1.521,0,0,0,.891-.289l.183-.155a1.521,1.521,0,0,0,.176-1.941l-.176-.213-25.673-25.673a3.042,3.042,0,0,0-4.016-.252l-.286.252-25.676,25.676a1.521,1.521,0,0,0,.8,2.571l.274.024h11.539v15.211A3.042,3.042,0,0,0,131.6,182h24.337Zm3.042-49.435a2.282,2.282,0,0,0,.31-4.542l-.31-.021H128.557a2.282,2.282,0,0,0-.31,4.542l.31.021h30.422Z" transform="translate(-115.496 -128)" fill="#fd9621"></path>
</svg>
