<?xml version="1.0" encoding="UTF-8"?>
<svg xmlns="http://www.w3.org/2000/svg" width="46.185" height="39.587" viewBox="0 0 46.185 39.587">
  <g id="下拉" transform="translate(-64 -128)">
    <path id="路径_1515" d="M104.618,130.474a3.1,3.1,0,0,1,3.093,3.093V162.02a3.1,3.1,0,0,1-3.093,3.093H69.567a3.1,3.1,0,0,1-3.093-3.093V133.567a3.1,3.1,0,0,1,3.093-3.093h35.051m0-2.474H69.567A5.567,5.567,0,0,0,64,133.567V162.02a5.567,5.567,0,0,0,5.567,5.567h35.051a5.567,5.567,0,0,0,5.567-5.567V133.567A5.567,5.567,0,0,0,104.618,128Z" fill="#298aca"></path>
    <path id="路径_1516" d="M280.606,388.695,268.03,376.119l1.749-1.749L280.606,385.2l10.826-10.826,1.749,1.749Z" transform="translate(-193.513 -233.671)" fill="#298aca"></path>
  </g>
</svg>
