<?xml version="1.0" encoding="UTF-8"?>
<svg xmlns="http://www.w3.org/2000/svg" width="48.85" height="41.872" viewBox="0 0 48.85 41.872">
  <g id="下拉多选" transform="translate(-64 -128)">
    <path id="路径_1538" d="M106.962,130.617a3.275,3.275,0,0,1,3.271,3.271v7.524a3.275,3.275,0,0,1-3.271,3.271H69.888a3.275,3.275,0,0,1-3.271-3.271v-7.524a3.275,3.275,0,0,1,3.271-3.271h37.074m0-2.617H69.888A5.888,5.888,0,0,0,64,133.888v7.524a5.888,5.888,0,0,0,5.888,5.888h37.074a5.888,5.888,0,0,0,5.888-5.888v-7.524A5.888,5.888,0,0,0,106.962,128Zm0,25.188a3.275,3.275,0,0,1,3.271,3.271v7.524a3.275,3.275,0,0,1-3.271,3.271H69.888a3.275,3.275,0,0,1-3.271-3.271V156.46a3.275,3.275,0,0,1,3.271-3.271h37.074m0-2.617H69.888A5.888,5.888,0,0,0,64,156.46v7.524a5.888,5.888,0,0,0,5.888,5.888h37.074a5.888,5.888,0,0,0,5.888-5.888V156.46A5.888,5.888,0,0,0,106.962,150.571Z" transform="translate(0 0)" fill="#298aca"></path>
    <path id="路径_1539" d="M650.422,250.332,644.59,244.5l1.85-1.85,3.982,3.982,3.982-3.982,1.85,1.85Zm0,22.592-5.832-5.832,1.85-1.85,3.982,3.982,3.982-3.982,1.85,1.85-5.832,5.832Z" transform="translate(-548.936 -108.399)" fill="#298aca"></path>
  </g>
</svg>
