<?xml version="1.0" encoding="UTF-8"?>
<svg xmlns="http://www.w3.org/2000/svg" width="44.765" height="44.765" viewBox="0 0 44.765 44.765">
  <path id="二维码" d="M109.619,98.643v10.976H98.643V98.643h10.976m.487-2.583H98.156a2.1,2.1,0,0,0-2.1,2.1v11.951a2.1,2.1,0,0,0,2.1,2.1h11.951a2.1,2.1,0,0,0,2.1-2.1V98.156A2.1,2.1,0,0,0,110.107,96.061Zm28.075,2.522v10.976H127.206V98.583h10.976M138.67,96H126.719a2.1,2.1,0,0,0-2.1,2.1v11.951a2.1,2.1,0,0,0,2.1,2.1H138.67a2.1,2.1,0,0,0,2.1-2.1V98.1A2.1,2.1,0,0,0,138.67,96Zm-29.111,31.206v10.976H98.583V127.206h10.976m.487-2.583H98.1a2.1,2.1,0,0,0-2.1,2.1V138.67a2.1,2.1,0,0,0,2.1,2.1h11.951a2.1,2.1,0,0,0,2.1-2.1V126.719A2.1,2.1,0,0,0,110.046,124.624Zm28.136,2.583v10.976H127.206V127.206h10.976m.487-2.583H126.719a2.1,2.1,0,0,0-2.1,2.1V138.67a2.1,2.1,0,0,0,2.1,2.1H138.67a2.1,2.1,0,0,0,2.1-2.1V126.719A2.1,2.1,0,0,0,138.67,124.624Zm-42.654-7.472h6.322v2.583H96.015Zm23.674,2.583H106.7v-2.583h10.411V106.741h2.583Zm-2.583-23.674h2.583v6.322h-2.583Zm8.055,21.03h15.6v2.583h-15.6Zm-8.071,8.071h2.583v15.6h-2.583Z" transform="translate(-96 -96)" fill="#298aca"></path>
</svg>
