<?xml version="1.0" encoding="UTF-8"?>
<svg xmlns="http://www.w3.org/2000/svg" width="48.306" height="47.9" viewBox="0 0 48.306 47.9">
  <path id="人" d="M88.153,87.3a11.644,11.644,0,1,1,8.235-3.41,11.645,11.645,0,0,1-8.235,3.41Zm0-20.7a9.057,9.057,0,1,0,9.057,9.057A9.067,9.067,0,0,0,88.153,66.6Zm15.982,45.313H72.172A8.181,8.181,0,0,1,64,103.743,12.918,12.918,0,0,1,76.917,90.825H99.389a12.918,12.918,0,0,1,12.917,12.917,8.181,8.181,0,0,1-8.172,8.173Zm-27.218-18.5a10.343,10.343,0,0,0-10.329,10.33,5.59,5.59,0,0,0,5.584,5.584h31.963a5.59,5.59,0,0,0,5.584-5.584,10.343,10.343,0,0,0-10.329-10.33Z" transform="translate(-64 -64.015)" fill="#298aca"></path>
</svg>
