<?xml version="1.0" encoding="UTF-8"?>
<svg xmlns="http://www.w3.org/2000/svg" width="45.409" height="44.408" viewBox="0 0 45.409 44.408">
  <g id="人员设置" transform="translate(-64 -73.9)">
    <path id="路径_1579" d="M285.975,98.034a12.066,12.066,0,1,1,8.533-3.534A12.067,12.067,0,0,1,285.975,98.034Zm0-21.7a9.634,9.634,0,1,0,9.634,9.634,9.644,9.644,0,0,0-9.634-9.634Z" transform="translate(-199.271)" fill="#298aca"></path>
    <path id="路径_1580" d="M66.433,524.794H64a22.687,22.687,0,0,1,22.7-22.7v2.433A20.3,20.3,0,0,0,66.433,524.794Zm32.673-12.5a2.676,2.676,0,1,1-2.321,1.338,2.676,2.676,0,0,1,2.321-1.338m0-1.926a4.6,4.6,0,1,0,2.3.617A4.6,4.6,0,0,0,99.105,510.367Z" transform="translate(0 -406.489)" fill="#298aca"></path>
    <path id="路径_1581" d="M560.075,564.485l.218.378.683,1.183,1.341-.253a6.5,6.5,0,0,1,2.4,0l1.341.253.683-1.182.217-.376,1.5.862-.217.376-.683,1.182.89,1.036a6.454,6.454,0,0,1,1.2,2.081l.452,1.289h1.8v1.728h-1.8l-.453,1.286a6.58,6.58,0,0,1-1.2,2.085l-.887,1.035.682,1.181.217.377-1.5.862-.218-.378-.683-1.183-1.342.253a6.545,6.545,0,0,1-1.208.113,6.454,6.454,0,0,1-1.193-.111l-1.342-.253-.68,1.185-.219.377-1.5-.862.217-.376.682-1.182-.889-1.036a6.461,6.461,0,0,1-1.2-2.081l-.452-1.289h-1.8v-1.731h1.8l.453-1.286a6.586,6.586,0,0,1,1.2-2.084l.887-1.035-.682-1.181-.218-.377,1.5-.862m6.679-2.134a1.357,1.357,0,0,0-1.177.679l-.5.868a8.412,8.412,0,0,0-3.115,0l-.5-.871a1.356,1.356,0,0,0-1.854-.5l-2.483,1.432a1.357,1.357,0,0,0-.5,1.854l.5.869a8.5,8.5,0,0,0-1.558,2.7h-1a1.357,1.357,0,0,0-1.358,1.359v2.864a1.357,1.357,0,0,0,1.358,1.356h1.005a8.413,8.413,0,0,0,1.556,2.7l-.5.868a1.357,1.357,0,0,0,.5,1.854l2.483,1.432a1.357,1.357,0,0,0,1.853-.5l.5-.868a8.412,8.412,0,0,0,3.115,0l.5.87a1.357,1.357,0,0,0,1.854.5l2.481-1.432a1.357,1.357,0,0,0,.5-1.854l-.5-.869a8.5,8.5,0,0,0,1.558-2.7h1a1.357,1.357,0,0,0,1.356-1.36v-2.862a1.357,1.357,0,0,0-1.358-1.357h-1a8.41,8.41,0,0,0-1.556-2.7l.5-.868a1.357,1.357,0,0,0-.5-1.854l-2.481-1.432A1.351,1.351,0,0,0,566.754,562.353Z" transform="translate(-464.417 -463.696)" fill="#298aca"></path>
  </g>
</svg>
