<?xml version="1.0" encoding="UTF-8"?>
<svg xmlns="http://www.w3.org/2000/svg" width="47.182" height="46.139" viewBox="0 0 47.182 46.139">
  <g id="人员管理" transform="translate(-64 -73.9)">
    <path id="路径_1569" d="M286.446,98.976a12.537,12.537,0,1,1,8.866-3.672A12.538,12.538,0,0,1,286.446,98.976Zm0-22.547a10.01,10.01,0,1,0,10.01,10.01A10.021,10.021,0,0,0,286.446,76.428Z" transform="translate(-198.856)" fill="#298aca"></path>
    <path id="路径_1570" d="M66.527,525.681H64A23.573,23.573,0,0,1,87.591,502.09v2.528A21.087,21.087,0,0,0,66.527,525.681Zm27.218-18.59h17.436v2.528H93.746Zm0,8.031h17.436v2.528H93.746Zm0,8.031h17.436v2.528H93.746Z" transform="translate(0 -405.642)" fill="#298aca"></path>
  </g>
</svg>
