<?xml version="1.0" encoding="UTF-8"?>
<svg xmlns="http://www.w3.org/2000/svg" width="39.052" height="45.561" viewBox="0 0 39.052 45.561">
  <g id="代码文件" transform="translate(-128 -64)">
    <path id="路径_1585" d="M154.007,66.441l10.6,10.6v27.024a3.055,3.055,0,0,1-3.051,3.051H133.492a3.055,3.055,0,0,1-3.051-3.051V69.492a3.054,3.054,0,0,1,3.051-3.051h20.515M155.018,64H133.492A5.492,5.492,0,0,0,128,69.492v34.577a5.492,5.492,0,0,0,5.492,5.492H161.56a5.492,5.492,0,0,0,5.492-5.492V76.034Z" transform="translate(0)" fill="#298aca"></path>
    <path id="路径_1586" d="M320.887,101.97H308.955V90.04H311.4v9.489h9.49Zm-22.559,21.014-6.858-6.858,6.858-6.857,1.726,1.726-5.132,5.132,5.132,5.132Zm8.712,0-1.726-1.726,5.132-5.132-5.132-5.132,1.726-1.726,6.857,6.857Z" transform="translate(-155.158 -24.716)" fill="#298aca"></path>
  </g>
</svg>
