<?xml version="1.0" encoding="UTF-8"?>
<svg xmlns="http://www.w3.org/2000/svg" width="47.561" height="47.56" viewBox="0 0 47.561 47.56">
  <g id="信息描述" transform="translate(-64 -64)">
    <path id="路径_1582" d="M87.78,66.548a21.155,21.155,0,1,1-8.264,1.667,21.155,21.155,0,0,1,8.264-1.667m0-2.548a23.78,23.78,0,1,0,23.78,23.78A23.78,23.78,0,0,0,87.78,64Z" fill="#298aca"></path>
    <path id="路径_1583" d="M488,405.9h2.548v19.7H488Z" transform="translate(-401.494 -323.752)" fill="#298aca"></path>
    <path id="路径_1584" d="M469.389,249.3m-2.389,0a2.389,2.389,0,1,0,2.389-2.389A2.389,2.389,0,0,0,467,249.3Z" transform="translate(-381.608 -173.201)" fill="#298aca"></path>
  </g>
</svg>
