<?xml version="1.0" encoding="UTF-8"?>
<svg xmlns="http://www.w3.org/2000/svg" width="44.353" height="48.049" viewBox="0 0 44.353 48.049">
  <g id="关联数据" transform="translate(-128 -96)">
    <path id="路径_1608" d="M168.967,626.772a.614.614,0,0,1,.613.613v10.786a.614.614,0,0,1-.613.613H131.385a.614.614,0,0,1-.613-.613V627.385a.614.614,0,0,1,.613-.613h37.582m0-2.772H131.385A3.386,3.386,0,0,0,128,627.385v10.786a3.386,3.386,0,0,0,3.385,3.385h37.582a3.386,3.386,0,0,0,3.385-3.385V627.385A3.386,3.386,0,0,0,168.968,624Z" transform="translate(0 -497.508)" fill="#298aca"></path>
    <path id="路径_1609" d="M157.433,133.884h9.24v2.772h-9.24Zm11.535-35.112a.614.614,0,0,1,.613.613v10.786a.614.614,0,0,1-.613.613H131.385a.614.614,0,0,1-.613-.613V99.385a.614.614,0,0,1,.613-.613h37.582m0-2.772H131.385A3.386,3.386,0,0,0,128,99.385v10.786a3.386,3.386,0,0,0,3.385,3.385h37.582a3.386,3.386,0,0,0,3.385-3.385V99.385A3.386,3.386,0,0,0,168.968,96Z" transform="translate(0 0)" fill="#298aca"></path>
    <path id="路径_1610" d="M226.65,224h9.24v2.772h-9.24Zm32.072,23.1H255.95v-4.946H227.536v-7.99h2.772v5.218h28.413Z" transform="translate(-92.953 -120.608)" fill="#298aca"></path>
  </g>
</svg>
