<?xml version="1.0" encoding="UTF-8"?>
<svg xmlns="http://www.w3.org/2000/svg" width="54" height="41.993" viewBox="0 0 54 41.993">
  <path id="切换" d="M129.439,229.759a1.507,1.507,0,0,1-1.507-1.507v-3.013a1.507,1.507,0,0,1,1.507-1.507h34.654v-7.2a.9.9,0,0,1,1.455-.717l16.025,12.325a.9.9,0,0,1-.551,1.621H129.439Zm50.98,13.723a1.507,1.507,0,0,1,1.507,1.507V248a1.507,1.507,0,0,1-1.507,1.507l-34.654,0v7.2a.9.9,0,0,1-1.455.717l-16.025-12.325a.9.9,0,0,1,.551-1.624H180.42Z" transform="translate(-127.928 -215.626)" fill="#fd9621"></path>
</svg>
