<?xml version="1.0" encoding="UTF-8"?>
<svg xmlns="http://www.w3.org/2000/svg" width="53.674" height="53.674" viewBox="0 0 53.674 53.674">
  <path id="删除" d="M148.128,128h13.419a2.236,2.236,0,1,1,0,4.473H148.128a2.236,2.236,0,1,1,0-4.473Zm31.31,8.946a2.236,2.236,0,1,1,0,4.473h-3.727v31.31a8.946,8.946,0,0,1-8.946,8.946H142.91a8.946,8.946,0,0,1-8.946-8.946v-31.31h-3.727a2.236,2.236,0,1,1,0-4.473Zm-31.31,11.928a2.236,2.236,0,0,0-2.236,2.236v16.4a2.236,2.236,0,1,0,4.473,0v-16.4A2.236,2.236,0,0,0,148.128,148.873Zm13.419,0a2.236,2.236,0,0,0-2.236,2.236v16.4a2.236,2.236,0,1,0,4.473,0v-16.4A2.236,2.236,0,0,0,161.546,148.873Z" transform="translate(-128 -128)" fill="#fd9621"></path>
</svg>
