<?xml version="1.0" encoding="UTF-8"?>
<svg xmlns="http://www.w3.org/2000/svg" width="44.765" height="44.765" viewBox="0 0 44.765 44.765">
  <g id="单行文本" transform="translate(-96 -96)">
    <path id="路径_1502" d="M134.954,98.583a3.232,3.232,0,0,1,3.228,3.228v33.143a3.232,3.232,0,0,1-3.228,3.228H101.811a3.232,3.232,0,0,1-3.228-3.228V101.811a3.232,3.232,0,0,1,3.228-3.228h33.143m0-2.583H101.811A5.811,5.811,0,0,0,96,101.811v33.143a5.811,5.811,0,0,0,5.811,5.811h33.143a5.811,5.811,0,0,0,5.811-5.811V101.811A5.811,5.811,0,0,0,134.954,96Z" fill="#298aca"></path>
    <path id="路径_1503" d="M302,301.758h22.6v2.583H302Zm2.152-22.458h18.293v2.583H304.152Z" transform="translate(-194.916 -173.438)" fill="#298aca"></path>
    <path id="路径_1504" d="M488,279.3h2.583v18.831H488Z" transform="translate(-370.909 -173.438)" fill="#298aca"></path>
  </g>
</svg>
