<?xml version="1.0" encoding="UTF-8"?>
<svg xmlns="http://www.w3.org/2000/svg" width="44.765" height="44.765" viewBox="0 0 44.765 44.765">
  <g id="单选1" transform="translate(-64 -64)">
    <path id="路径_1494" d="M86.382,66.4A19.911,19.911,0,1,1,78.6,67.967,19.911,19.911,0,0,1,86.382,66.4m0-2.4a22.382,22.382,0,1,0,22.382,22.382A22.383,22.383,0,0,0,86.382,64Z" fill="#298aca"></path>
    <path id="路径_1495" d="M248.117,236.638a11.435,11.435,0,1,1-4.467.9,11.435,11.435,0,0,1,4.467-.9m0-2.4a13.877,13.877,0,1,0,13.877,13.877A13.877,13.877,0,0,0,248.117,234.24Z" transform="translate(-161.735 -161.735)" fill="#298aca"></path>
  </g>
</svg>
