<?xml version="1.0" encoding="UTF-8"?>
<svg xmlns="http://www.w3.org/2000/svg" width="53.845" height="53.289" viewBox="0 0 53.845 53.289">
  <path id="发布" d="M169.634,138.893a2.284,2.284,0,0,1,3.334,2.293l-5.587,46.884a2.284,2.284,0,0,1-3.188,1.818l-14.42-6.361-7.633,7.713a2.284,2.284,0,0,1-3.885-1.294l-.021-.314,0-9.488Q161.4,151.773,167.168,144.6l.454-.563c.983-1.23,1.471-1.851,1.455-1.863s-.825.779-2.427,2.375l-1.991,1.994q-8.006,8.025-30.518,30.8l.776-.786L120.359,168.9a2.287,2.287,0,0,1-.536-3.654l.247-.21.286-.177Z" transform="translate(-119.139 -138.629)" fill="#fd9621"></path>
</svg>
