<?xml version="1.0" encoding="UTF-8"?>
<svg xmlns="http://www.w3.org/2000/svg" width="49.762" height="34.628" viewBox="0 0 49.762 34.628">
  <g id="团队" transform="translate(-12 -164.07)">
    <path id="路径_1573" d="M328.8,183.257a9.594,9.594,0,1,1,9.594-9.594A9.6,9.6,0,0,1,328.8,183.257Zm0-16.8a7.205,7.205,0,1,0,7.205,7.205A7.213,7.213,0,0,0,328.8,166.459Z" transform="translate(-291.923 0)" fill="#298aca"></path>
    <path id="路径_1574" d="M164.539,287.545H162.15a15.44,15.44,0,0,0-30.881,0h-2.389a17.829,17.829,0,1,1,35.658,0Zm-29.9-15.854a7.061,7.061,0,0,1,0-14.121v2.389a4.672,4.672,0,1,0,0,9.344Z" transform="translate(-109.828 -88.847)" fill="#298aca"></path>
    <path id="路径_1575" d="M14.389,282.115H12A12.812,12.812,0,0,1,24.812,269.3v2.389A10.437,10.437,0,0,0,14.389,282.115Zm34.562-10.424V269.3a4.672,4.672,0,1,0,0-9.344V257.57a7.061,7.061,0,0,1,0,14.121Z" transform="translate(0 -88.847)" fill="#298aca"></path>
    <path id="路径_1576" d="M767.352,506.152h-2.389a10.436,10.436,0,0,0-10.423-10.424V493.34a12.812,12.812,0,0,1,12.812,12.812Z" transform="translate(-705.589 -312.885)" fill="#298aca"></path>
  </g>
</svg>
