<?xml version="1.0" encoding="UTF-8"?>
<svg xmlns="http://www.w3.org/2000/svg" width="48.374" height="48.372" viewBox="0 0 48.374 48.372">
  <path id="图片" d="M144.763,147.456a.672.672,0,0,1,.812.089l15.855,16.774.22.2a2.015,2.015,0,0,0,2.709-2.969l-1.475-1.564,1.967-2.249,11.477,11.574,0,1.685a5.375,5.375,0,0,1-5.375,5.375H133.334A5.375,5.375,0,0,1,127.96,171l0-6.235,16.667-17.191ZM170.957,128a5.375,5.375,0,0,1,5.375,5.375l0,30.235-9.29-9.325-.322-.258a3.359,3.359,0,0,0-4.453.548l-2.161,2.472L148.528,144.8l-.183-.183-.344-.3a4.7,4.7,0,0,0-6.3.473L127.96,158.974v-25.6A5.375,5.375,0,0,1,133.334,128h37.622ZM157.52,138.749a2.687,2.687,0,1,0,2.687,2.687A2.687,2.687,0,0,0,157.52,138.749Z" transform="translate(-127.957 -128)" fill="#fd9621"></path>
</svg>
