<?xml version="1.0" encoding="UTF-8"?>
<svg xmlns="http://www.w3.org/2000/svg" width="53.999" height="53.999" viewBox="0 0 53.999 53.999">
  <path id="增加" d="M112.333,85.333a27,27,0,1,1-27,27A27,27,0,0,1,112.333,85.333Zm.008,13.5a2.025,2.025,0,0,0-2.025,2.025l0,9.488h-9.45a2.025,2.025,0,0,0-2,1.75l-.019.275a2.026,2.026,0,0,0,2.025,2.025h9.447v9.412a2.027,2.027,0,0,0,1.755,2.006l.27.019a2.025,2.025,0,0,0,2.025-2.025V114.4h9.45a2.025,2.025,0,0,0,2.009-1.75l.019-.275a2.025,2.025,0,0,0-2.025-2.025h-9.453v-9.488a2.025,2.025,0,0,0-1.747-2.006Z" transform="translate(-85.333 -85.333)" fill="#fd9621"></path>
</svg>
