<?xml version="1.0" encoding="UTF-8"?>
<svg xmlns="http://www.w3.org/2000/svg" width="46.139" height="46.139" viewBox="0 0 46.139 46.139">
  <g id="复选" transform="translate(-96.22 -96)">
    <path id="路径_1558" d="M98.882,131.048V101.989a3.331,3.331,0,0,1,3.327-3.327h29.059V96H102.209a5.989,5.989,0,0,0-5.989,5.989v29.059Z" transform="translate(0)" fill="#298aca"></path>
    <path id="路径_1559" d="M270.528,240.662a3.3,3.3,0,0,1,3.295,3.295v26.351a3.3,3.3,0,0,1-3.295,3.295H244.177a3.3,3.3,0,0,1-3.3-3.295V243.956a3.3,3.3,0,0,1,3.3-3.295h26.351m0-2.662H244.177a5.957,5.957,0,0,0-5.957,5.957v26.351a5.956,5.956,0,0,0,5.957,5.956h26.351a5.956,5.956,0,0,0,5.956-5.956V243.956A5.956,5.956,0,0,0,270.528,238Z" transform="translate(-134.125 -134.125)" fill="#298aca"></path>
    <path id="路径_1560" d="M380.652,469.36l-9.382-9.382,1.882-1.882,7.64,7.64,13.222-11.316,1.731,2.022L380.652,469.36Z" transform="translate(-259.797 -338.544)" fill="#298aca"></path>
  </g>
</svg>
