<?xml version="1.0" encoding="UTF-8"?>
<svg xmlns="http://www.w3.org/2000/svg" width="44.765" height="44.765" viewBox="0 0 44.765 44.765">
  <g id="多行文本" transform="translate(-96 -96)">
    <path id="路径_1507" d="M134.954,98.583a3.232,3.232,0,0,1,3.228,3.228v33.143a3.232,3.232,0,0,1-3.228,3.228H101.811a3.232,3.232,0,0,1-3.228-3.228V101.811a3.232,3.232,0,0,1,3.228-3.228h33.143m0-2.583H101.811A5.811,5.811,0,0,0,96,101.811v33.143a5.811,5.811,0,0,0,5.811,5.811h33.143a5.811,5.811,0,0,0,5.811-5.811V101.811A5.811,5.811,0,0,0,134.954,96Z" transform="translate(0 0)" fill="#298aca"></path>
    <path id="路径_1508" d="M214.33,336H233.7v2.583H214.33Zm22.347,12.052h9.685v2.583h-9.685Zm-6.994,6.887h16.679v2.583H229.682Z" transform="translate(-111.963 -227.087)" fill="#298aca"></path>
    <path id="路径_1509" d="M370.33,336h2.583v21.521H370.33Z" transform="translate(-259.57 -227.087)" fill="#298aca"></path>
  </g>
</svg>
