<?xml version="1.0" encoding="UTF-8"?>
<svg xmlns="http://www.w3.org/2000/svg" width="41.92" height="45.145" viewBox="0 0 41.92 45.145">
  <g id="子表单1" transform="translate(-96 -64)">
    <path id="路径_1546" d="M256.373,196.418A2.582,2.582,0,0,1,258.951,199v28.6a2.581,2.581,0,0,1-2.578,2.578H231a2.581,2.581,0,0,1-2.578-2.578V199A2.582,2.582,0,0,1,231,196.418h25.377m0-2.418H231a5,5,0,0,0-5,5v28.6a5,5,0,0,0,5,5h25.377a5,5,0,0,0,5-5V199A5,5,0,0,0,256.373,194Z" transform="translate(-123.45 -123.45)" fill="#298aca"></path>
    <path id="路径_1547" d="M104.557,105.013h-2.351A6.213,6.213,0,0,1,96,98.807v-28.6A6.213,6.213,0,0,1,102.206,64h25.377a6.213,6.213,0,0,1,6.206,6.206v2H131.37v-2a3.791,3.791,0,0,0-3.787-3.787H102.206a3.791,3.791,0,0,0-3.787,3.787v28.6a3.792,3.792,0,0,0,3.787,3.788h2.351Z" fill="#298aca"></path>
    <path id="路径_1548" d="M422.24,459.48h16.123V461.9H422.24Zm0-10.48h16.123v2.418H422.24Z" transform="translate(-309.803 -365.602)" fill="#298aca"></path>
  </g>
</svg>
