<?xml version="1.0" encoding="UTF-8"?>
<svg xmlns="http://www.w3.org/2000/svg" width="44.765" height="44.765" viewBox="0 0 44.765 44.765">
  <g id="富文本" transform="translate(-96 -96)">
    <path id="路径_1505" d="M134.954,98.583a3.232,3.232,0,0,1,3.228,3.228v33.143a3.232,3.232,0,0,1-3.228,3.228H101.811a3.232,3.232,0,0,1-3.228-3.228V101.811a3.232,3.232,0,0,1,3.228-3.228h33.143m0-2.583H101.811A5.811,5.811,0,0,0,96,101.811v33.143a5.811,5.811,0,0,0,5.811,5.811h33.143a5.811,5.811,0,0,0,5.811-5.811V101.811A5.811,5.811,0,0,0,134.954,96Z" fill="#298aca"></path>
    <path id="路径_1506" d="M238.989,289.715h9.685V292.3h-9.685Zm0,9.13h9.685v2.583h-9.685Zm-22.059,9.13h31.744v2.583H216.93Zm16.222-3.23-1.9-4.99h-8.033l-1.9,4.989H218.9l7.093-18.024h2.516l7.093,18.025Zm-2.626-6.927-3.263-8.623-3.309,8.623Z" transform="translate(-114.424 -180.459)" fill="#298aca"></path>
  </g>
</svg>
