<?xml version="1.0" encoding="UTF-8"?>
<svg xmlns="http://www.w3.org/2000/svg" width="53.201" height="28.181" viewBox="0 0 53.201 28.181">
  <g id="开关" transform="translate(0 -240.79)">
    <path id="路径_1587" d="M39.111,243.284a11.6,11.6,0,0,1,0,23.193H14.09a11.6,11.6,0,0,1,0-23.193h25.02m0-2.494H14.09a14.09,14.09,0,0,0,0,28.181h25.02a14.09,14.09,0,1,0,0-28.181Z" fill="#298aca"></path>
    <path id="路径_1588" d="M106.658,338.508m-9.508,0A9.508,9.508,0,1,0,106.658,329,9.508,9.508,0,0,0,97.15,338.508Z" transform="translate(-92.103 -83.627)" fill="#298aca"></path>
  </g>
</svg>
