<?xml version="1.0" encoding="UTF-8"?>
<svg xmlns="http://www.w3.org/2000/svg" width="47.803" height="47.904" viewBox="0 0 47.803 47.904">
  <g id="意见板" transform="translate(-111 -86.003)">
    <path id="路径_1615" d="M154.676,130.715V151.2a3.48,3.48,0,0,1-3.475,3.475H117.256a3.48,3.48,0,0,1-3.476-3.475V117.256a3.48,3.48,0,0,1,3.476-3.476h19.688V111H117.256A6.256,6.256,0,0,0,111,117.256V151.2a6.256,6.256,0,0,0,6.256,6.256H151.2a6.256,6.256,0,0,0,6.256-6.256V130.715Z" transform="translate(0 -23.549)" fill="#298aca"></path>
    <path id="路径_1616" d="M511.346,110.709a1.608,1.608,0,0,1-1.584-1.891l1.043-5.845a2.685,2.685,0,0,1,.749-1.435L526.3,86.792a2.7,2.7,0,0,1,3.817,0l3.538,3.538a2.7,2.7,0,0,1,0,3.817l-14.745,14.745a2.686,2.686,0,0,1-1.435.749l-5.845,1.043A1.6,1.6,0,0,1,511.346,110.709Zm16.862-22.693a.683.683,0,0,0-.485.2l-14.746,14.746a.684.684,0,0,0-.19.364l-.94,5.271,5.271-.94a.684.684,0,0,0,.364-.19l14.748-14.745a.688.688,0,0,0,0-.97l-3.536-3.536A.685.685,0,0,0,528.208,88.015Z" transform="translate(-375.641)" fill="#298aca"></path>
    <path id="路径_1617" d="M291.325,144.476l1.424-1.424,6.8,6.8-1.424,1.424ZM263.91,163.033H273.7v2.78H263.91Zm0,11.564h28.741v2.78H263.91Z" transform="translate(-144.053 -53.744)" fill="#298aca"></path>
  </g>
</svg>
