<?xml version="1.0" encoding="UTF-8"?>
<svg xmlns="http://www.w3.org/2000/svg" width="37.421" height="45.804" viewBox="0 0 37.421 45.804">
  <g id="手机号" transform="translate(-146 -64)">
    <path id="路径_1521" d="M177.9,66.454a3.071,3.071,0,0,1,3.067,3.067v34.762a3.071,3.071,0,0,1-3.067,3.067H151.521a3.071,3.071,0,0,1-3.067-3.067V69.521a3.071,3.071,0,0,1,3.067-3.067H177.9m0-2.454H151.521A5.521,5.521,0,0,0,146,69.521v34.762a5.521,5.521,0,0,0,5.521,5.521H177.9a5.521,5.521,0,0,0,5.521-5.521V69.521A5.521,5.521,0,0,0,177.9,64Z" transform="translate(0 0)" fill="#298aca"></path>
    <path id="路径_1522" d="M166.61,252.04h35.314v2.454H166.61Z" transform="translate(-19.556 -178.427)" fill="#298aca"></path>
    <path id="路径_1523" d="M458.531,739.921m-2.881,0a2.881,2.881,0,1,0,2.881-2.881A2.881,2.881,0,0,0,455.65,739.921Z" transform="translate(-293.82 -638.634)" fill="#298aca"></path>
  </g>
</svg>
