<?xml version="1.0" encoding="UTF-8"?>
<svg xmlns="http://www.w3.org/2000/svg" width="53.968" height="45.447" viewBox="0 0 53.968 45.447">
  <path id="拍照上传" d="M140.2,170.667a5.681,5.681,0,0,1,5.6,4.747l.153.934h10.416a4.261,4.261,0,0,1,4.261,4.261v31.244a4.261,4.261,0,0,1-4.261,4.261H110.928a4.261,4.261,0,0,1-4.261-4.261V180.608a4.261,4.261,0,0,1,4.261-4.261h10.413l.156-.935a5.681,5.681,0,0,1,5.6-4.746h13.1Zm-6.55,17.042a8.521,8.521,0,1,0,8.521,8.521A8.521,8.521,0,0,0,133.651,187.709ZM150,183.455h-2.84a2.13,2.13,0,0,0,0,4.261H150a2.13,2.13,0,0,0,0-4.261Z" transform="translate(-106.667 -170.667)" fill="#fd9621"></path>
</svg>
