<?xml version="1.0" encoding="UTF-8"?>
<svg xmlns="http://www.w3.org/2000/svg" width="47.293" height="47.293" viewBox="0 0 47.293 47.293">
  <g id="按钮" transform="translate(-96.33 -96)">
    <path id="路径_1488" d="M137.484,98.728a3.415,3.415,0,0,1,3.411,3.411v35.015a3.415,3.415,0,0,1-3.411,3.411H102.469a3.415,3.415,0,0,1-3.411-3.411V102.139a3.415,3.415,0,0,1,3.411-3.411h35.015m0-2.728H102.469a6.139,6.139,0,0,0-6.139,6.139v35.015a6.139,6.139,0,0,0,6.139,6.139h35.015a6.139,6.139,0,0,0,6.139-6.139V102.139A6.139,6.139,0,0,0,137.484,96Z" fill="#298aca"></path>
    <path id="路径_1489" d="M339.747,366.03l7.167,4.5-7.167,4.5V366.03M338.316,362a1.436,1.436,0,0,0-1.438,1.437v14.179a1.436,1.436,0,0,0,1.438,1.437,1.421,1.421,0,0,0,.759-.222l11.3-7.089a1.435,1.435,0,0,0,0-2.431l-11.3-7.089A1.421,1.421,0,0,0,338.316,362Zm-9.2,0h2.728v17.053H329.12Z" transform="translate(-219.558 -250.88)" fill="#298aca"></path>
  </g>
</svg>
