<?xml version="1.0" encoding="UTF-8"?>
<svg xmlns="http://www.w3.org/2000/svg" width="38.942" height="45.432" viewBox="0 0 38.942 45.432">
  <g id="描述文本" transform="translate(-128 -64)">
    <path id="路径_1571" d="M161.465,66.434a3.046,3.046,0,0,1,3.042,3.042v34.48A3.046,3.046,0,0,1,161.465,107H133.476a3.046,3.046,0,0,1-3.042-3.042V69.476a3.046,3.046,0,0,1,3.042-3.042h27.989m0-2.434H133.476A5.476,5.476,0,0,0,128,69.476v34.48a5.476,5.476,0,0,0,5.476,5.476h27.989a5.476,5.476,0,0,0,5.476-5.476V69.476A5.476,5.476,0,0,0,161.465,64Z" transform="translate(0)" fill="#298aca"></path>
    <path id="路径_1572" d="M312,287.617h20.282v2.434H312Zm0,10.844h16.226v2.434H312Zm0-21.391h20.282V279.5H312Z" transform="translate(-174.67 -202.266)" fill="#298aca"></path>
  </g>
</svg>
