<?xml version="1.0" encoding="UTF-8"?>
<svg xmlns="http://www.w3.org/2000/svg" width="46.979" height="46.979" viewBox="0 0 46.979 46.979">
  <path id="数字" d="M128,128h46.979v2.936H128Zm0,44.042h46.979v2.936H128Zm10.631-32.084h-1.786a12.47,12.47,0,0,1-2.833,3.018,19.746,19.746,0,0,1-4.39,2.648l-.329,2.679a21.455,21.455,0,0,0,3.093-1.431,16.977,16.977,0,0,0,2.859-1.909l-2.168,17.66h2.771l2.783-22.662Zm12.01,0a8.335,8.335,0,0,0-5.332,1.671,8.1,8.1,0,0,0-2.8,4.857l2.814.293a5.161,5.161,0,0,1,1.625-3.326,4.849,4.849,0,0,1,3.348-1.2,3.776,3.776,0,0,1,2.932,1.132,3.327,3.327,0,0,1,.837,2.779,6.527,6.527,0,0,1-1.7,3.333,36.806,36.806,0,0,1-5.56,4.779,34.209,34.209,0,0,0-4.045,3.418,12.079,12.079,0,0,0-2.193,3,5.3,5.3,0,0,0-.56,1.927h14.918l.327-2.663H144.182a10.907,10.907,0,0,1,1.354-1.5q.8-.746,3.551-2.84a53.9,53.9,0,0,0,4.76-3.972,12.319,12.319,0,0,0,2.178-2.753,7.426,7.426,0,0,0,.881-2.663,5.3,5.3,0,0,0-1.346-4.465,6.388,6.388,0,0,0-4.921-1.8Zm17.12,0a7.43,7.43,0,0,0-4.668,1.532,8.333,8.333,0,0,0-2.84,4.318l2.71.492a5.913,5.913,0,0,1,1.76-3.048,4.226,4.226,0,0,1,2.819-1.016,3.257,3.257,0,0,1,2.541,1,3.026,3.026,0,0,1,.721,2.525,3.653,3.653,0,0,1-1.766,2.848,6.276,6.276,0,0,1-3.3.924,4.078,4.078,0,0,1-.443-.031l-.606,2.433a8.449,8.449,0,0,1,1.993-.306,3.7,3.7,0,0,1,3.881,4.386,5.215,5.215,0,0,1-1.759,3.356,5.052,5.052,0,0,1-3.468,1.354,3.568,3.568,0,0,1-2.667-1.04,5.362,5.362,0,0,1-1.206-3.394l-2.817.367a6.032,6.032,0,0,0,1.677,4.588,6.338,6.338,0,0,0,4.717,1.774,8.5,8.5,0,0,0,5.7-2.055,7.651,7.651,0,0,0,2.772-5.011,5.372,5.372,0,0,0-.662-3.641,4.463,4.463,0,0,0-2.875-1.916,6.379,6.379,0,0,0,2.559-1.909,5.335,5.335,0,0,0,1.112-2.663,5.157,5.157,0,0,0-.467-2.91,4.8,4.8,0,0,0-2.113-2.163,6.82,6.82,0,0,0-3.3-.8Z" transform="translate(-128 -128)" fill="#298aca"></path>
</svg>
