<?xml version="1.0" encoding="UTF-8"?>
<svg xmlns="http://www.w3.org/2000/svg" width="41.619" height="48.556" viewBox="0 0 41.619 48.556">
  <g id="文件转发" transform="translate(-128 -59.46)">
    <path id="路径_1611" d="M155.717,62.061l11.3,11.3v28.8a3.255,3.255,0,0,1-3.252,3.252H133.853a3.255,3.255,0,0,1-3.252-3.252V65.313a3.255,3.255,0,0,1,3.252-3.252h21.864m1.077-2.6H133.853A5.853,5.853,0,0,0,128,65.313v36.85a5.853,5.853,0,0,0,5.853,5.853h29.914a5.853,5.853,0,0,0,5.853-5.853V72.285Z" transform="translate(0)" fill="#298aca"></path>
    <path id="路径_1612" d="M534.568,98.214H521.852V85.5h2.6V95.613h10.114Zm-19.218,5.7,10.5,7.65-10.5,7.65Z" transform="translate(-366.359 -24.629)" fill="#298aca"></path>
    <path id="路径_1613" d="M325.857,511.5c-5.449,0-9.672,3.929-10.857,11.339,2.643-3.806,6.2-5.39,10.859-5.39Z" transform="translate(-176.866 -427.543)" fill="#298aca"></path>
  </g>
</svg>
