<?xml version="1.0" encoding="UTF-8"?>
<svg xmlns="http://www.w3.org/2000/svg" width="39.899" height="46.549" viewBox="0 0 39.899 46.549">
  <g id="文件下载" transform="translate(-128 -59.46)">
    <path id="路径_1595" d="M154.571,61.954l10.835,10.834V100.4a3.121,3.121,0,0,1-3.117,3.117H133.611a3.121,3.121,0,0,1-3.117-3.117V65.071a3.121,3.121,0,0,1,3.117-3.117h20.96M155.6,59.46H133.611A5.611,5.611,0,0,0,128,65.071V100.4a5.611,5.611,0,0,0,5.611,5.611h28.678A5.611,5.611,0,0,0,167.9,100.4V71.755Z" transform="translate(0 0)" fill="#298aca"></path>
    <path id="路径_1596" d="M327.4,97.689h-12.19V85.5h2.494v9.7h9.7Zm-19.845,1.746h2.494v14.937h-2.494ZM297.67,118.79h22.27v2.494H297.67Z" transform="translate(-160.855 -24.687)" fill="#298aca"></path>
    <path id="路径_1597" d="M364.029,489.212,355.92,481.1l1.763-1.763,6.345,6.345,6.345-6.345,1.763,1.763Z" transform="translate(-216.079 -398.066)" fill="#298aca"></path>
  </g>
</svg>
