<?xml version="1.0" encoding="UTF-8"?>
<svg xmlns="http://www.w3.org/2000/svg" width="47.635" height="47.635" viewBox="0 0 47.635 47.635">
  <path id="条形码" d="M98.748,108.653v-6.47a3.439,3.439,0,0,1,3.435-3.435h6.47V96h-6.47A6.183,6.183,0,0,0,96,102.183v6.47Zm32.234-9.9h6.47a3.439,3.439,0,0,1,3.435,3.435v6.47h2.748v-6.47A6.183,6.183,0,0,0,137.451,96h-6.47Zm9.9,32.234v6.47a3.439,3.439,0,0,1-3.435,3.435h-6.47v2.748h6.47a6.183,6.183,0,0,0,6.183-6.183v-6.47Zm-32.234,9.9h-6.47a3.439,3.439,0,0,1-3.435-3.435v-6.47H96v6.47a6.183,6.183,0,0,0,6.183,6.183h6.47Zm-1.48-32.52h2.748v22.9h-2.748Zm11.27,0h2.748v22.9h-2.748Zm11.27,0h2.748v22.9h-2.748Z" transform="translate(-96 -96)" fill="#298aca"></path>
</svg>
