<?xml version="1.0" encoding="UTF-8"?>
<svg xmlns="http://www.w3.org/2000/svg" width="47.185" height="46.139" viewBox="0 0 47.185 46.139">
  <g id="查询用户" transform="translate(-64 -73.9)">
    <path id="路径_1566" d="M286.447,98.976a12.537,12.537,0,1,1,8.866-3.672,12.538,12.538,0,0,1-8.866,3.672Zm0-22.547a10.01,10.01,0,1,0,10.01,10.01A10.021,10.021,0,0,0,286.447,76.428Z" transform="translate(-198.856 0)" fill="#298aca"></path>
    <path id="路径_1567" d="M66.527,525.681H64A23.573,23.573,0,0,1,87.591,502.09v2.528A21.087,21.087,0,0,0,66.527,525.681Zm32.9-18.169a5.95,5.95,0,1,1-4.207,1.742,5.95,5.95,0,0,1,4.207-1.742m0-2.528a8.478,8.478,0,1,0,6,2.483A8.478,8.478,0,0,0,99.423,504.984Z" transform="translate(0 -405.642)" fill="#298aca"></path>
    <path id="路径_1568" d="M816.493,799.117a1.264,1.264,0,0,1-.9-.369l-5.378-5.381a1.264,1.264,0,1,1,1.787-1.787l5.381,5.379a1.264,1.264,0,0,1-.9,2.159Z" transform="translate(-706.575 -679.537)" fill="#298aca"></path>
  </g>
</svg>
