<?xml version="1.0" encoding="UTF-8"?>
<svg xmlns="http://www.w3.org/2000/svg" width="39.899" height="46.549" viewBox="0 0 39.899 46.549">
  <g id="流水号" transform="translate(-128 -64)">
    <path id="路径_1593" d="M162.288,66.494a3.121,3.121,0,0,1,3.117,3.117v36.136l-2.722-1.914-1.434-1.008-1.434,1.008L154.6,107.5l-5.215-3.667-1.434-1.008-1.434,1.008L141.3,107.5l-5.215-3.667-1.434-1.008-1.434,1.008-2.722,1.914V69.611a3.121,3.121,0,0,1,3.117-3.117h28.678m0-2.494H133.611A5.611,5.611,0,0,0,128,69.611v40.938l6.65-4.676,6.65,4.676,6.65-4.676,6.65,4.676,6.65-4.676,6.65,4.676V69.611A5.611,5.611,0,0,0,162.288,64Z" transform="translate(0)" fill="#298aca"></path>
    <path id="路径_1594" d="M352,344.326h16.625v2.494H352Zm0-10.806h16.625v2.494H352Z" transform="translate(-212.363 -255.518)" fill="#298aca"></path>
  </g>
</svg>
