<?xml version="1.0" encoding="UTF-8"?>
<svg xmlns="http://www.w3.org/2000/svg" width="48.365" height="44.961" viewBox="0 0 48.365 44.961">
  <g id="流程" transform="translate(-64 -95.53)">
    <path id="路径_1603" d="M71.294,98.121a4.21,4.21,0,1,1-4.21,4.21,4.21,4.21,0,0,1,4.21-4.21m0-2.591a6.8,6.8,0,1,0,6.8,6.8A6.8,6.8,0,0,0,71.294,95.53Zm0,32.964a4.7,4.7,0,1,1-4.7,4.7,4.7,4.7,0,0,1,4.7-4.7m0-2.591a7.294,7.294,0,1,0,7.294,7.294A7.294,7.294,0,0,0,71.294,125.9Zm33.777,2.591a4.7,4.7,0,1,1-4.7,4.7,4.7,4.7,0,0,1,4.7-4.7m0-2.591a7.294,7.294,0,1,0,7.294,7.294,7.294,7.294,0,0,0-7.294-7.294Z" fill="#298aca"></path>
    <path id="路径_1604" d="M175.12,337.08h2.591v18.393H175.12Z" transform="translate(-105.122 -228.512)" fill="#298aca"></path>
    <path id="路径_1605" d="M229.709,339.108h-2.591a5.185,5.185,0,0,0-1.832-3.8c-1.685-1.565-5.389-3.542-13.459-4.06a21.5,21.5,0,0,1-13.3-5.623,20.5,20.5,0,0,1-4.145-5.1l1.148-.6,1.147-.6a18.362,18.362,0,0,0,3.671,4.448,18.8,18.8,0,0,0,11.649,4.889c7.091.454,12.157,2.051,15.06,4.747A7.711,7.711,0,0,1,229.709,339.108Z" transform="translate(-123.342 -211.72)" fill="#298aca"></path>
  </g>
</svg>
