<?xml version="1.0" encoding="UTF-8"?>
<svg xmlns="http://www.w3.org/2000/svg" width="54" height="53.999" viewBox="0 0 54 53.999">
  <path id="消息" d="M144.546,116.608a27,27,0,0,1,19.381,45.8l-.584.584,0,4.845a2.773,2.773,0,0,1-2.452,2.755l-.321.018-15.8,0-.222,0a27.005,27.005,0,0,1-26.988-26.223l-.012-.776a27,27,0,0,1,27-27Zm-.015,30.009H132.856l-.3.02a2.189,2.189,0,0,0,.3,4.358h11.676l.3-.02a2.189,2.189,0,0,0-.3-4.358Zm8.757-11.675H132.856l-.3.02a2.189,2.189,0,0,0,.3,4.358h20.432l.3-.02a2.189,2.189,0,0,0-.3-4.358Z" transform="translate(-117.546 -116.608)" fill="#fd9621"></path>
</svg>
