<?xml version="1.0" encoding="UTF-8"?>
<svg xmlns="http://www.w3.org/2000/svg" width="54.001" height="54" viewBox="0 0 54.001 54">
  <path id="消息1" d="M144.546,116.608a27,27,0,0,1,19.382,45.8l-.584.584,0,4.845a2.773,2.773,0,0,1-2.452,2.755l-.321.018-15.8,0-.222,0a27.006,27.006,0,0,1-26.988-26.224l-.012-.776a27,27,0,0,1,27-27ZM132.856,140.8a2.919,2.919,0,1,0,2.919,2.919A2.919,2.919,0,0,0,132.856,140.8Zm11.676,0a2.919,2.919,0,1,0,2.919,2.919A2.919,2.919,0,0,0,144.532,140.8Zm11.676,0a2.919,2.919,0,1,0,2.919,2.919A2.919,2.919,0,0,0,156.207,140.8Z" transform="translate(-117.546 -116.608)" fill="#fd9621"></path>
</svg>
