<?xml version="1.0" encoding="UTF-8"?>
<svg xmlns="http://www.w3.org/2000/svg" width="54" height="50.033" viewBox="0 0 54 50.033">
  <path id="清除" d="M177.655,211.134a2.245,2.245,0,0,1-1.939,2.224l-.305.021H137.989a2.258,2.258,0,0,1-.419-.039l-.509-.006a2.993,2.993,0,0,1-2.158-.919l-9.578-9.961a5.986,5.986,0,0,1,.084-8.381l5.253-5.253,18.878,18.875-1.048,1.191H175.41a2.245,2.245,0,0,1,2.245,2.245Zm-4.595-35.823a5.986,5.986,0,0,1,0,8.468l-20.545,20.542-18.678-18.678L154.382,165.1a5.986,5.986,0,0,1,8.465,0Z" transform="translate(-123.655 -163.346)" fill="#fd9621"></path>
</svg>
