<?xml version="1.0" encoding="UTF-8"?>
<svg xmlns="http://www.w3.org/2000/svg" width="54" height="53.674" viewBox="0 0 54 53.674">
  <path id="点赞" d="M136.718,143.31v36.147h-5.239a3.732,3.732,0,0,1-3.717-3.347l-.018-.379V147.047a3.74,3.74,0,0,1,3.762-3.732h5.213Zm13.951-17q2.27-1.5,6.2,1.328c3.463,3.771,3.675,6.968,3.675,11.446a40.254,40.254,0,0,1-.209,4.1l-.018.125h14.712a6.717,6.717,0,0,1,6.7,6.258l.015.459a6.7,6.7,0,0,1-.269,1.884L174.531,175.7a5.224,5.224,0,0,1-5.015,3.762H141.2V143.31a13.272,13.272,0,0,0,6.8-9.628l.119-.806c.576-4.58.884-5.463,2.553-6.568Z" transform="translate(-127.744 -125.786)" fill="#fd9621"></path>
</svg>
