<?xml version="1.0" encoding="UTF-8"?>
<svg xmlns="http://www.w3.org/2000/svg" width="49.275" height="42.236" viewBox="0 0 49.275 42.236">
  <g id="电子签名" transform="translate(-64 -128)">
    <path id="路径_1492" d="M107.336,130.64a3.3,3.3,0,0,1,3.3,3.3V164.3a3.3,3.3,0,0,1-3.3,3.3h-37.4a3.3,3.3,0,0,1-3.3-3.3V133.939a3.3,3.3,0,0,1,3.3-3.3h37.4m0-2.64h-37.4A5.939,5.939,0,0,0,64,133.939V164.3a5.939,5.939,0,0,0,5.939,5.939h37.4a5.939,5.939,0,0,0,5.939-5.939V133.939A5.939,5.939,0,0,0,107.336,128Z" transform="translate(0 0)" fill="#298aca"></path>
    <path id="路径_1493" d="M229.67,328.848h31.053v2.64H229.67Zm0-9.834h10.7v2.64h-10.7Zm0-9.834h10.7v2.64h-10.7Zm28.414,2.64v8.249h-8.249V311.82h8.249m.884-2.64H248.951a1.756,1.756,0,0,0-1.756,1.756v10.017a1.755,1.755,0,0,0,1.756,1.756h10.017a1.756,1.756,0,0,0,1.756-1.756V310.936A1.757,1.757,0,0,0,258.967,309.18Z" transform="translate(-156.559 -171.216)" fill="#298aca"></path>
  </g>
</svg>
