<?xml version="1.0" encoding="UTF-8"?>
<svg xmlns="http://www.w3.org/2000/svg" width="54" height="54" viewBox="0 0 54 54">
  <path id="电话" d="M217.4,223.534a27.622,27.622,0,0,1-16.9-.408c-5.8-1.89-12.616-6.6-17.253-11.02-4.421-4.637-9.126-11.455-11.02-17.253a27.622,27.622,0,0,1-.408-16.9c1.883-6.035,4.938-6.963,5.039-7.017a4.376,4.376,0,0,1,1.853-.25c1.711.061,2.363.635,3.544,1.88,5.127,7.665,8.64,12.218,8.4,11.779,2.352,3.669-1.37,3.888-7.138,8.37a5.572,5.572,0,0,0,.878,4.023,76.026,76.026,0,0,0,6.487,7.736,75.991,75.991,0,0,0,7.736,6.484,5.585,5.585,0,0,0,4.026.881c4.509-5.805,4.7-9.541,8.434-7.1-.84-.547,3.76,3.038,11.712,8.357,1.245,1.181,1.819,1.833,1.88,3.544a4.4,4.4,0,0,1-.25,1.856,7.474,7.474,0,0,1-3.645,3.554,16.557,16.557,0,0,1-3.372,1.485Z" transform="translate(-170.681 -170.67)" fill="#fd9621"></path>
</svg>
