<?xml version="1.0" encoding="UTF-8"?>
<svg xmlns="http://www.w3.org/2000/svg" width="40.342" height="43.31" viewBox="0 0 40.342 43.31">
  <g id="省市区" transform="translate(-94.72 -64)">
    <path id="路径_1527" d="M100.679,202.4Zm.516-28.8h0Zm13.695,38.012a79.3,79.3,0,0,1-13.665-1.046,20.766,20.766,0,0,1-4.327-1.19c-.538-.235-2.178-.948-2.178-2.405,0-.951.707-1.749,2.1-2.371a19.631,19.631,0,0,1,4.16-1.178,1.135,1.135,0,1,1,.425,2.23,12.46,12.46,0,0,0-4.223,1.32c.474.311,1.8.938,5.262,1.5a80.827,80.827,0,0,0,12.443.867,80.822,80.822,0,0,0,12.443-.867c3.464-.566,4.789-1.192,5.262-1.5a12.293,12.293,0,0,0-4.147-1.305,1.135,1.135,0,1,1,.43-2.229,19.452,19.452,0,0,1,4.1,1.173c1.378.621,2.078,1.415,2.078,2.36,0,1.457-1.639,2.17-2.175,2.405a20.674,20.674,0,0,1-4.327,1.19A79.383,79.383,0,0,1,114.89,211.612ZM132.839,207.17ZM114.89,178.646a6.41,6.41,0,1,1-4.533,1.877,6.41,6.41,0,0,1,4.533-1.877m0-2.272a8.679,8.679,0,1,0,8.679,8.68,8.679,8.679,0,0,0-8.679-8.68Z" transform="translate(0 -104.303)" fill="#298aca"></path>
    <path id="路径_1528" d="M188.49,66.272A14.157,14.157,0,0,1,198.5,90.445L188.49,100.459,178.472,90.44A14.159,14.159,0,0,1,188.49,66.272m0-2.272a16.431,16.431,0,0,0-11.624,28.046l11.624,11.624L200.109,92.05A16.432,16.432,0,0,0,188.49,64Z" transform="translate(-73.6 0)" fill="#298aca"></path>
  </g>
</svg>
