<?xml version="1.0" encoding="UTF-8"?>
<svg xmlns="http://www.w3.org/2000/svg" width="40.644" height="47.639" viewBox="0 0 40.644 47.639">
  <g id="签名" transform="translate(-119.54 -64)">
    <path id="路径_1541" d="M141.25,67.5l15.431,12.949-3.713,4.425L137.537,71.927,141.25,67.5m-.306-3.5-6.908,8.233,19.24,16.144,6.908-8.233Zm-6.26,14.292,12.513,10.5-8.05,12.511-16.838,4.442,1.45-17.352,10.926-10.1m-.08-3.314-13.24,12.245-1.824,21.822,21.174-5.588,9.758-15.163Z" fill="#298aca"></path>
    <path id="路径_1542" d="M358.708,488.716a4.1,4.1,0,1,1,.363-.016C358.95,488.711,358.828,488.716,358.708,488.716Zm.008-5.692a1.6,1.6,0,1,0,1.453.926A1.605,1.605,0,0,0,358.716,483.024Z" transform="translate(-222.91 -394.965)" fill="#298aca"></path>
    <path id="路径_1543" d="M133.725,584.6l13.521-16.113,1.9,1.6L135.629,586.2Zm14.224,5.4c-.358,0-.694-.007-1.006-.019a18.549,18.549,0,0,1-6.084-1.1,1.243,1.243,0,1,1,.981-2.284,16.181,16.181,0,0,0,5.2.9,26.7,26.7,0,0,0,8.86-1.2,27.065,27.065,0,0,1,9.165-1.369,18.641,18.641,0,0,1,6.61,1.491,1.243,1.243,0,1,1-.972,2.287c-4.1-1.743-8.566-1.755-14.06-.037A29.307,29.307,0,0,1,147.949,590Z" transform="translate(-13.45 -478.362)" fill="#298aca"></path>
  </g>
</svg>
