<?xml version="1.0" encoding="UTF-8"?>
<svg xmlns="http://www.w3.org/2000/svg" width="47.903" height="47.904" viewBox="0 0 47.903 47.904">
  <path id="自定义" d="M60.792,68.5a.357.357,0,0,1,.257.107l6.51,6.51a.364.364,0,0,1,0,.515l-6.51,6.51a.364.364,0,0,1-.514,0l-6.51-6.508a.364.364,0,0,1,0-.515l6.51-6.513a.357.357,0,0,1,.26-.107m0-2.5a2.85,2.85,0,0,0-2.022.838l-6.513,6.51a2.86,2.86,0,0,0,0,4.045l6.51,6.51a2.86,2.86,0,0,0,4.045,0l6.51-6.51a2.86,2.86,0,0,0,0-4.045l-6.51-6.51A2.852,2.852,0,0,0,60.792,66Zm29.16,2.5a.357.357,0,0,1,.26.107l6.508,6.51a.364.364,0,0,1,0,.515l-6.51,6.51a.364.364,0,0,1-.515,0l-6.51-6.508a.364.364,0,0,1,0-.515L89.7,68.6a.359.359,0,0,1,.257-.107m0-2.5a2.852,2.852,0,0,0-2.022.838l-6.51,6.51a2.86,2.86,0,0,0,0,4.045l6.51,6.51a2.86,2.86,0,0,0,4.045,0l6.51-6.51a2.86,2.86,0,0,0,0-4.045l-6.51-6.51A2.852,2.852,0,0,0,89.955,66ZM75.373,83.079a.356.356,0,0,1,.26.1L82.141,89.7a.364.364,0,0,1,0,.515l-6.508,6.51a.364.364,0,0,1-.515,0l-6.513-6.51a.364.364,0,0,1,0-.515l6.51-6.51a.357.357,0,0,1,.257-.1m0-2.5a2.851,2.851,0,0,0-2.022.838l-6.51,6.507a2.86,2.86,0,0,0,0,4.045l6.51,6.51a2.86,2.86,0,0,0,4.045,0l6.51-6.51a2.86,2.86,0,0,0,0-4.045l-6.51-6.51a2.851,2.851,0,0,0-2.022-.838Zm0-26.67a.356.356,0,0,1,.26.1l6.508,6.513a.364.364,0,0,1,0,.515l-6.508,6.51a.364.364,0,0,1-.515,0l-6.513-6.51a.364.364,0,0,1,0-.515l6.51-6.51a.357.357,0,0,1,.257-.1m0-2.5a2.851,2.851,0,0,0-2.022.838l-6.51,6.507a2.86,2.86,0,0,0,0,4.045l6.51,6.51a2.86,2.86,0,0,0,4.045,0l6.51-6.51a2.86,2.86,0,0,0,0-4.045l-6.51-6.51a2.851,2.851,0,0,0-2.022-.838Z" transform="translate(-51.422 -51.42)" fill="#298aca"></path>
</svg>
