<?xml version="1.0" encoding="UTF-8"?>
<svg xmlns="http://www.w3.org/2000/svg" width="39.548" height="46.139" viewBox="0 0 39.548 46.139">
  <g id="表格" transform="translate(-128 -64)">
    <path id="路径_1563" d="M161.986,66.472a3.093,3.093,0,0,1,3.09,3.09v35.016a3.093,3.093,0,0,1-3.09,3.09H133.561a3.093,3.093,0,0,1-3.09-3.09V69.561a3.093,3.093,0,0,1,3.09-3.09h28.425m0-2.472H133.561A5.561,5.561,0,0,0,128,69.561v35.016a5.561,5.561,0,0,0,5.561,5.561h28.425a5.561,5.561,0,0,0,5.561-5.561V69.561A5.561,5.561,0,0,0,161.986,64Z" transform="translate(0)" fill="#298aca"></path>
    <path id="路径_1564" d="M294,284.13h22.452v2.308H294Zm0,10.234h22.452v2.308H294Zm0,10.234h22.452v2.308H294Z" transform="translate(-157.452 -208.795)" fill="#298aca"></path>
    <path id="路径_1565" d="M416.69,208h2.351v31.309H416.69Z" transform="translate(-273.824 -136.585)" fill="#298aca"></path>
  </g>
</svg>
