<?xml version="1.0" encoding="UTF-8"?>
<svg xmlns="http://www.w3.org/2000/svg" width="54.81" height="51.105" viewBox="0 0 54.81 51.105">
  <path id="警告" d="M83.33,93.448a5.156,5.156,0,0,1,7,2.06L112.574,136.3a5.156,5.156,0,0,1-4.521,7.625h-44.5a5.156,5.156,0,0,1-4.527-7.625L81.273,95.51a5.156,5.156,0,0,1,2.057-2.057Zm2.47,35.007a3.867,3.867,0,1,0,3.867,3.867A3.867,3.867,0,0,0,85.8,128.455Zm3.867-20.623H81.933l1.289,18.045h5.156Z" transform="translate(-58.394 -92.817)" fill="#fd9621"></path>
</svg>
