<?xml version="1.0" encoding="UTF-8"?>
<svg xmlns="http://www.w3.org/2000/svg" width="53.542" height="47.997" viewBox="0 0 53.542 47.997">
  <path id="设置" d="M123.737,128.261l10.35,17.927a6.07,6.07,0,0,1,0,6.07l-10.35,17.93a6.07,6.07,0,0,1-5.254,3.035h-20.7a6.07,6.07,0,0,1-5.257-3.035l-10.35-17.93a6.07,6.07,0,0,1,0-6.07l10.35-17.927a6.07,6.07,0,0,1,5.257-3.035h20.7a6.07,6.07,0,0,1,5.254,3.035Zm-15.584,9.746a11.216,11.216,0,1,0,11.216,11.216,11.216,11.216,0,0,0-11.216-11.216Zm7.257,11.216a7.257,7.257,0,1,1-7.257-7.257A7.257,7.257,0,0,1,115.411,149.223Z" transform="translate(-81.359 -125.226)" fill="#fd9621"></path>
</svg>
