<?xml version="1.0" encoding="UTF-8"?>
<svg xmlns="http://www.w3.org/2000/svg" width="46.777" height="44.765" viewBox="0 0 46.777 44.765">
  <path id="评分" d="M86.538,84.98a.282.282,0,0,1,.28.175l5.048,10.228a5.315,5.315,0,0,0,4,2.908l11.286,1.64a.313.313,0,0,1,.175.533l-8.169,7.961a5.315,5.315,0,0,0-1.529,4.7l1.928,11.241a.271.271,0,0,1-.058.245.348.348,0,0,1-.249.127.317.317,0,0,1-.146-.042l-10.1-5.307a5.315,5.315,0,0,0-4.946,0l-10.1,5.307a.317.317,0,0,1-.146.042.347.347,0,0,1-.249-.127.27.27,0,0,1-.058-.245l1.928-11.241a5.315,5.315,0,0,0-1.529-4.7l-8.169-7.961a.313.313,0,0,1,.174-.533l11.291-1.64a5.315,5.315,0,0,0,4-2.908L86.26,85.154a.282.282,0,0,1,.28-.175m0-2.5a2.781,2.781,0,0,0-2.523,1.569l-5.05,10.228a2.814,2.814,0,0,1-2.119,1.539l-11.287,1.64a2.813,2.813,0,0,0-1.559,4.8l8.167,7.961a2.814,2.814,0,0,1,.809,2.491l-1.928,11.241a2.807,2.807,0,0,0,4.083,2.967l10.1-5.307a2.814,2.814,0,0,1,2.619,0l10.1,5.307a2.807,2.807,0,0,0,4.083-2.967L100.1,112.706a2.814,2.814,0,0,1,.809-2.491l8.167-7.96a2.815,2.815,0,0,0-1.559-4.8L96.231,95.814a2.814,2.814,0,0,1-2.119-1.539l-5.05-10.228a2.781,2.781,0,0,0-2.523-1.569Z" transform="translate(-63.149 -82.479)" fill="#298aca"></path>
</svg>
