<?xml version="1.0" encoding="UTF-8"?>
<svg xmlns="http://www.w3.org/2000/svg" width="44.221" height="48.556" viewBox="0 0 44.221 48.556">
  <g id="详情" transform="translate(-104 -64)">
    <path id="路径_1606" d="M257.83,345.07h17.237v2.6H257.83Zm0,15.491h17.237v2.6H257.83Z" transform="translate(-145.494 -265.838)" fill="#298aca"></path>
    <path id="路径_1607" d="M142.38,112.556H111.153A7.161,7.161,0,0,1,104,105.4V71.153A7.161,7.161,0,0,1,111.153,64h20.834a7.161,7.161,0,0,1,7.153,7.153v2.531h1.927a7.161,7.161,0,0,1,7.153,7.153v26.511C148.221,110.219,145.6,112.556,142.38,112.556Zm0-2.6c1.788,0,3.24-1.168,3.24-2.605V80.839a4.557,4.557,0,0,0-4.552-4.552H139.14v31.062c0,1.437,1.453,2.606,3.24,2.606ZM111.153,66.6a4.557,4.557,0,0,0-4.552,4.552V105.4a4.557,4.557,0,0,0,4.552,4.552h26.171a4.751,4.751,0,0,1-.785-2.605v-36.2a4.558,4.558,0,0,0-4.552-4.552Z" transform="translate(0)" fill="#298aca"></path>
  </g>
</svg>
