<?xml version="1.0" encoding="UTF-8"?>
<svg xmlns="http://www.w3.org/2000/svg" width="38.766" height="54" viewBox="0 0 38.766 54">
  <path id="语音" d="M231.1,160.954c3,5.576,8.386,8.787,15.167,8.787,6.911,0,12.288-3.115,15.441-8.807a2.163,2.163,0,0,1,3.785,2.1,20.836,20.836,0,0,1-17.063,10.947v3.689h6.49a2.163,2.163,0,0,1,.294,4.31l-.294.023H237.609a2.163,2.163,0,0,1-.294-4.31l.294-.017,6.49,0v-3.692A20.633,20.633,0,0,1,227.285,163a2.163,2.163,0,1,1,3.808-2.051ZM246.263,128a14.423,14.423,0,0,1,14.423,14.423v10.1a14.423,14.423,0,0,1-28.846,0v-10.1A14.423,14.423,0,0,1,246.263,128Z" transform="translate(-226.995 -128)" fill="#fd9621"></path>
</svg>
