<?xml version="1.0" encoding="UTF-8"?>
<svg xmlns="http://www.w3.org/2000/svg" width="58.858" height="53.999" viewBox="0 0 58.858 53.999">
  <path id="购物车" d="M113.007,171.332a5.918,5.918,0,1,0-5.918-5.918A5.918,5.918,0,0,0,113.007,171.332Zm29.689,0a5.918,5.918,0,1,0-5.918-5.918A5.918,5.918,0,0,0,142.7,171.332ZM98.7,117.386l.29.086,5.628,2.089A2.219,2.219,0,0,1,106,121.079l.059.3.429,3.684.151-.053a2.208,2.208,0,0,1,.29-.059l.3-.018h42.456a5.178,5.178,0,0,1,5.154,5.681l-.065.444-4.358,23.464a5.178,5.178,0,0,1-4.654,4.216l-.435.018H110.575a5.178,5.178,0,0,1-5.068-4.121l-.074-.453-3.63-30.938-4.349-1.613a2.219,2.219,0,0,1-1.4-2.562l.086-.29a2.219,2.219,0,0,1,2.562-1.394Zm22.061,17.188a2.219,2.219,0,0,0-3.817,2.243l5.918,11.835.154.26a2.219,2.219,0,0,0,3.817-2.243l-5.918-11.835Zm11.835,0a2.219,2.219,0,0,0-3.817,2.243l5.918,11.835.154.26a2.219,2.219,0,0,0,3.817-2.243l-5.918-11.835Z" transform="translate(-96.003 -117.333)" fill="#fd9621"></path>
</svg>
