<?xml version="1.0" encoding="UTF-8"?>
<svg xmlns="http://www.w3.org/2000/svg" width="53.29" height="54" viewBox="0 0 53.29 54">
  <path id="通知" d="M156.868,123.331a2.956,2.956,0,0,1,.692,1.9v35.477l0,.047,0,12.563a2.956,2.956,0,0,1-4.857,2.264l-14.215-11.921h-7.532A2.956,2.956,0,0,1,128,160.706v-22.87a2.956,2.956,0,0,1,2.956-2.956h7.564L152.7,122.967a2.956,2.956,0,0,1,4.165.364Zm9.305,4.67c9.054,3.509,15.117,11.844,15.117,21.274s-6.074,17.783-15.143,21.286a2.218,2.218,0,0,1-1.6-4.138c7.4-2.858,12.306-9.595,12.306-17.147S171.964,135,164.571,132.131a2.217,2.217,0,0,1,1.6-4.132Zm.774,13.467c2.391,1.448,3.973,4.753,3.973,7.774s-1.567,6.385-3.937,7.833a2.217,2.217,0,0,1-2.563-3.606l.245-.171a5.4,5.4,0,0,0,1.821-4.056,5.5,5.5,0,0,0-1.6-3.813l-.236-.171a2.217,2.217,0,0,1,2.3-3.79Z" transform="translate(-128 -122.275)" fill="#fd9621"></path>
</svg>
