<?xml version="1.0" encoding="UTF-8"?>
<svg xmlns="http://www.w3.org/2000/svg" width="49.188" height="36.325" viewBox="0 0 49.188 36.325">
  <g id="隐藏" transform="translate(0 -133.892)">
    <path id="路径_1549" d="M16.255,241.343l-.233-.1a34.962,34.962,0,0,1-7.3-4.529,47.648,47.648,0,0,1-5.688-5.341,47.651,47.651,0,0,1,5.689-5.341,34.877,34.877,0,0,1,7.3-4.529,20.975,20.975,0,0,1,8.571-1.985,20.979,20.979,0,0,1,8.572,1.985q.976.438,1.96.972l1.7-1.7a24.982,24.982,0,0,0-12.228-3.566C11.011,217.21,0,231.37,0,231.37s5.956,7.662,14.514,11.713Zm22.59-19.33-1.666,1.668a39.546,39.546,0,0,1,3.289,2.348,47.64,47.64,0,0,1,5.688,5.341,47.585,47.585,0,0,1-5.608,5.274,35.052,35.052,0,0,1-7.331,4.57,21.014,21.014,0,0,1-8.625,2.008,19.534,19.534,0,0,1-5.975-.985l-1.812,1.813a22.273,22.273,0,0,0,7.787,1.479c13.583,0,24.594-14.16,24.594-14.16A47.587,47.587,0,0,0,38.845,222.013Z" transform="translate(0 -79.316)" fill="#298aca"></path>
    <path id="路径_1550" d="M340.857,352.595l1.651-1.651a6.176,6.176,0,0,1-.894-.74,6.074,6.074,0,0,1,8.59-8.59,6.181,6.181,0,0,1,.74.894l1.651-1.651a8.38,8.38,0,1,0-11.737,11.737Zm11.03-7.769a6.144,6.144,0,0,1,.1,1.083,6.074,6.074,0,0,1-6.074,6.074,6.138,6.138,0,0,1-1.084-.1l-1.867,1.867a8.383,8.383,0,0,0,10.795-10.795Z" transform="translate(-321.315 -193.855)" fill="#298aca"></path>
    <path id="路径_1551" d="M133.886,168.587l34.695-34.695,1.63,1.63-34.695,34.695Z" transform="translate(-127.455)" fill="#298aca"></path>
  </g>
</svg>
