<?xml version="1.0" encoding="UTF-8"?>
<svg xmlns="http://www.w3.org/2000/svg" width="47.749" height="19.321" viewBox="0 0 47.749 19.321">
  <g id="隐藏1" transform="translate(-7.03 -307.67)">
    <path id="路径_1552" d="M46.837,421.131l1.6-1.6,6.338,6.338-1.6,1.6Zm-9.2,2.934L39.6,422.93l4.482,7.762-1.965,1.135Zm-19.9,6.628,4.482-7.762,1.965,1.135L19.7,431.827Zm-10.7-4.828,6.338-6.338,1.6,1.6-6.338,6.338ZM29.77,424.6h2.269v8.963H29.77Z" transform="translate(0 -106.568)" fill="#298aca"></path>
    <path id="路径_1553" d="M65.2,319.974a28.866,28.866,0,0,1-13.011-3.039,23.69,23.69,0,0,1-9.162-8.021l1.9-1.243C48.982,313.859,56.751,317.7,65.2,317.7s16.221-3.845,20.274-10.035l1.9,1.245a23.692,23.692,0,0,1-9.162,8.021A28.89,28.89,0,0,1,65.2,319.974Z" transform="translate(-34.298)" fill="#298aca"></path>
  </g>
</svg>
