<?xml version="1.0" encoding="UTF-8"?>
<svg xmlns="http://www.w3.org/2000/svg" xmlns:xlink="http://www.w3.org/1999/xlink" width="265.389" height="265.389" viewBox="0 0 265.389 265.389">
  <defs>
    <linearGradient id="linear-gradient" x1="0.523" y1="-0.08" x2="0.479" y2="1.03" gradientUnits="objectBoundingBox">
      <stop offset="0" stop-color="#fec38c"></stop>
      <stop offset="1" stop-color="#fd7a38"></stop>
    </linearGradient>
    <filter id="矩形_83" x="0" y="0" width="265.389" height="265.389" filterUnits="userSpaceOnUse">
      <feoffset dx="10" dy="20"></feoffset>
      <feGaussianBlur stdDeviation="10"></feGaussianBlur>
      <feflood flood-color="#a7b6c1" flood-opacity="0.749"></feflood>
      <fecomposite operator="in" in2="blur"></fecomposite>
      <fecomposite in="SourceGraphic"></fecomposite>
    </filter>
    <linearGradient id="linear-gradient-2" x1="0.464" y1="1.445" x2="0.481" y2="0.232" gradientUnits="objectBoundingBox">
      <stop offset="0" stop-color="#fff"></stop>
      <stop offset="1" stop-color="#ffc17f"></stop>
    </linearGradient>
    <linearGradient id="linear-gradient-3" x1="0.499" y1="0.226" x2="0.51" y2="1.01" gradientUnits="objectBoundingBox">
      <stop offset="0" stop-color="#fff"></stop>
      <stop offset="1" stop-color="#ff944f"></stop>
    </linearGradient>
    <linearGradient id="linear-gradient-4" x1="-0.726" y1="-0.226" x2="-0.632" y2="-0.975" xlink:href="#linear-gradient-2"></linearGradient>
  </defs>
  <g id="刷新" transform="translate(-1159.306 -1360.179)">
    <g id="组_324" transform="translate(-83.538 1112.664)">
      <g transform="matrix(1, 0, 0, 1, 1242.84, 247.52)" filter="url(#矩形_83)">
        <rect id="矩形_83-2" width="205.389" height="205.389" rx="75.388" transform="translate(20 10)" fill="url(#linear-gradient)"></rect>
      </g>
      <path id="路径_285" d="M1365.215,351l52.65,20.188c23.451-62.3-5.189-84.836-17.758-99.248-37.114-33.416-91.534-13.731-91.534-13.731C1399.894,278.181,1365.215,351,1365.215,351Z" fill="url(#linear-gradient-2)"></path>
      <path id="路径_286" d="M1400.107,271.941c-19.427-17.492-43.593-20.431-62.217-19.263,15.784,1.037,33.382,5.906,48.217,19.263,12.246,14.041,39.74,35.8,19.455,94.53l12.3,4.718C1441.316,308.889,1412.676,286.353,1400.107,271.941Z" fill="url(#linear-gradient-3)"></path>
      <path id="路径_287" d="M1447.354,390.434l-74.845,34.313a6.515,6.515,0,0,1-8.778-3.26l-34.122-74.774a6.513,6.513,0,0,1,3.26-8.778l117.745,43.72A6.516,6.516,0,0,1,1447.354,390.434Z" fill="url(#linear-gradient-4)"></path>
    </g>
    <g id="组_377" transform="translate(63.74 758.561)">
      <rect id="矩形_10" width="8.61" height="3.131" rx="1.565" transform="translate(1281.942 655.579)" fill="#fff"></rect>
      <rect id="矩形_11" width="8.61" height="3.131" rx="1.565" transform="translate(1287.813 652.84) rotate(90)" fill="#fff"></rect>
    </g>
    <g id="组_379" transform="translate(-63.165 826.695)">
      <rect id="矩形_10-2" width="8.61" height="3.131" rx="1.565" transform="translate(1281.942 655.579)" fill="#fff"></rect>
      <rect id="矩形_11-2" width="8.61" height="3.131" rx="1.565" transform="translate(1287.813 652.84) rotate(90)" fill="#fff"></rect>
    </g>
    <g id="组_378" transform="translate(-24.42 886.979)">
      <rect id="矩形_10-3" width="14.956" height="5.438" rx="2.719" transform="translate(1281.942 657.598)" fill="#fff"></rect>
      <rect id="矩形_11-3" width="14.956" height="5.438" rx="2.719" transform="translate(1292.139 652.84) rotate(90)" fill="#fff"></rect>
    </g>
  </g>
</svg>
