<?xml version="1.0" encoding="UTF-8"?>
<svg xmlns="http://www.w3.org/2000/svg" xmlns:xlink="http://www.w3.org/1999/xlink" width="265.389" height="265.389" viewBox="0 0 265.389 265.389">
  <defs>
    <linearGradient id="linear-gradient" x1="0.493" y1="0.02" x2="0.507" y2="0.955" gradientUnits="objectBoundingBox">
      <stop offset="0" stop-color="#fcab8d"></stop>
      <stop offset="1" stop-color="#fe5e92"></stop>
    </linearGradient>
    <filter id="矩形_34" x="0" y="0" width="265.389" height="265.389" filterUnits="userSpaceOnUse">
      <feoffset dx="10" dy="20"></feoffset>
      <feGaussianBlur stdDeviation="10"></feGaussianBlur>
      <feflood flood-color="#dbaaa1" flood-opacity="0.749"></feflood>
      <fecomposite operator="in" in2="blur"></fecomposite>
      <fecomposite in="SourceGraphic"></fecomposite>
    </filter>
    <linearGradient id="linear-gradient-2" x1="0.626" y1="1" x2="0.626" gradientUnits="objectBoundingBox">
      <stop offset="0" stop-color="#ffc8d4"></stop>
      <stop offset="1" stop-color="#fffafb"></stop>
    </linearGradient>
    <linearGradient id="linear-gradient-3" x1="0.589" y1="0.932" x2="0.582" y2="0.058" gradientUnits="objectBoundingBox">
      <stop offset="0" stop-color="#fdd8e0"></stop>
      <stop offset="1" stop-color="#fffafb"></stop>
    </linearGradient>
    <linearGradient id="linear-gradient-4" x1="0.5" x2="0.5" y2="1" gradientUnits="objectBoundingBox">
      <stop offset="0" stop-color="#ffedf1"></stop>
      <stop offset="1" stop-color="#f8adbe"></stop>
    </linearGradient>
    <filter id="路径_307" x="59.009" y="23.03" width="147.463" height="148.865" filterUnits="userSpaceOnUse">
      <feoffset dx="10" dy="2"></feoffset>
      <feGaussianBlur stdDeviation="3"></feGaussianBlur>
      <feflood flood-color="#d88b8b" flood-opacity="0.6"></feflood>
      <fecomposite operator="in" in2="blur-2"></fecomposite>
      <fecomposite in="SourceGraphic"></fecomposite>
    </filter>
    <linearGradient id="linear-gradient-5" x1="0.5" x2="0.5" y2="1" gradientUnits="objectBoundingBox">
      <stop offset="0" stop-color="#fff"></stop>
      <stop offset="1" stop-color="#ffc8d4"></stop>
    </linearGradient>
  </defs>
  <g id="计算器" transform="translate(-1155.858 -1693.153)">
    <g id="计算器-2" transform="translate(-428.298 436.08)">
      <g transform="matrix(1, 0, 0, 1, 1584.16, 1257.07)" filter="url(#矩形_34)">
        <rect id="矩形_34-2" width="205.389" height="205.389" rx="75.388" transform="translate(20 10)" fill="url(#linear-gradient)"></rect>
      </g>
    </g>
    <g id="组_356" transform="translate(1141.457 1586.65)">
      <path id="路径_306" d="M72.213,738.987h127.85L216.346,761.6c6.031,8.443,2.714,15.68-7.84,15.68H62.564c-10.554,0-13.871-6.935-7.538-15.378l17.187-22.917Z" transform="translate(0 -496.013)" fill="url(#linear-gradient-2)"></path>
      <path id="路径_329" d="M71.878,738.987h125.75l16.015,22.971c5.932,8.576,2.669,15.927-7.711,15.927H62.388c-10.38,0-13.643-7.044-7.415-15.62l16.905-23.277Z" transform="translate(0.925 -501.44)" fill="url(#linear-gradient-3)"></path>
      <g transform="matrix(1, 0, 0, 1, 14.4, 106.5)" filter="url(#路径_307)">
        <path id="路径_307-2" d="M176.749,151.911a15.972,15.972,0,0,1,15.981-15.378h94.38a15.443,15.443,0,0,1,15.378,15.378V252.02A15.443,15.443,0,0,1,287.11,267.4h-98a15,15,0,0,1-15.077-15.378l2.714-100.109Z" transform="translate(-115.02 -106.5)" fill="url(#linear-gradient-4)"></path>
      </g>
      <path id="路径_308" d="M175.761,136.533h94.38a15.443,15.443,0,0,1,15.378,15.378V252.02A15.443,15.443,0,0,1,270.141,267.4h-94.38a15.443,15.443,0,0,1-15.378-15.378V151.911A15.066,15.066,0,0,1,175.761,136.533Z" transform="translate(-89.375 0)" fill="url(#linear-gradient-5)"></path>
      <path id="路径_309" d="M283.307,408.406a9.046,9.046,0,1,0,9.046-9.046A9.046,9.046,0,0,0,283.307,408.406Z" transform="translate(-190.589 -216.391)" fill="#e99182"></path>
      <path id="路径_310" d="M283.307,568.833a9.046,9.046,0,1,0,9.046-9.046A9.046,9.046,0,0,0,283.307,568.833Z" transform="translate(-190.589 -348.474)" fill="#e99182"></path>
      <path id="路径_311" d="M283.307,727.553a9.046,9.046,0,1,0,9.046-9.046A9.046,9.046,0,0,0,283.307,727.553Z" transform="translate(-190.589 -479.151)" fill="#e99182"></path>
      <path id="路径_312" d="M474.453,408.406a9.046,9.046,0,1,0,9.046-9.046A9.046,9.046,0,0,0,474.453,408.406Z" transform="translate(-347.964 -216.391)" fill="#e99182"></path>
      <path id="路径_313" d="M474.453,568.833a9.046,9.046,0,1,0,9.046-9.046A9.046,9.046,0,0,0,474.453,568.833Z" transform="translate(-347.964 -348.474)" fill="#e99182"></path>
      <path id="路径_314" d="M474.453,727.553a9.046,9.046,0,1,0,9.046-9.046A9.046,9.046,0,0,0,474.453,727.553Z" transform="translate(-347.964 -479.151)" fill="#e99182"></path>
      <path id="路径_315" d="M667.307,408.406a9.046,9.046,0,1,0,9.046-9.046A9.046,9.046,0,0,0,667.307,408.406Z" transform="translate(-506.744 -216.391)" fill="#e99182"></path>
      <path id="路径_316" d="M667.307,568.833a9.046,9.046,0,1,0,9.046-9.046A9.046,9.046,0,0,0,667.307,568.833Z" transform="translate(-506.744 -348.474)" fill="#e99182"></path>
      <path id="路径_317" d="M667.307,727.553a9.046,9.046,0,1,0,9.046-9.046A9.046,9.046,0,0,0,667.307,727.553Z" transform="translate(-506.744 -479.151)" fill="#e99182"></path>
      <path id="路径_318" d="M250.88,237.739a9.072,9.072,0,0,1,9.046-9.046H333.2a8.885,8.885,0,0,1,9.046,9.046,9.072,9.072,0,0,1-9.046,9.046H259.926A9.072,9.072,0,0,1,250.88,237.739Z" transform="translate(-163.891 -75.877)" fill="#fff"></path>
      <path id="路径_319" d="M266.24,398.166a9.046,9.046,0,1,0,9.046-9.046,9.046,9.046,0,0,0-9.046,9.046Z" transform="translate(-176.538 -207.96)" fill="#fff"></path>
      <path id="路径_320" d="M266.24,558.593a9.046,9.046,0,1,0,9.046-9.046A9.046,9.046,0,0,0,266.24,558.593Z" transform="translate(-176.538 -340.043)" fill="#fff"></path>
      <path id="路径_321" d="M266.24,717.313a9.046,9.046,0,1,0,9.046-9.046A9.046,9.046,0,0,0,266.24,717.313Z" transform="translate(-176.538 -470.72)" fill="#fff"></path>
      <path id="路径_322" d="M459.093,398.166a9.046,9.046,0,1,0,9.046-9.046A9.046,9.046,0,0,0,459.093,398.166Z" transform="translate(-335.317 -207.96)" fill="#fff"></path>
      <path id="路径_323" d="M459.093,558.593a9.046,9.046,0,1,0,9.046-9.046A9.046,9.046,0,0,0,459.093,558.593Z" transform="translate(-335.317 -340.043)" fill="#fff"></path>
      <path id="路径_324" d="M459.093,717.313a9.046,9.046,0,1,0,9.046-9.046A9.046,9.046,0,0,0,459.093,717.313Z" transform="translate(-335.317 -470.72)" fill="#fff"></path>
      <path id="路径_325" d="M650.24,398.166a9.046,9.046,0,1,0,9.046-9.046A9.046,9.046,0,0,0,650.24,398.166Z" transform="translate(-492.693 -207.96)" fill="#fff"></path>
      <path id="路径_326" d="M650.24,558.593a9.046,9.046,0,1,0,9.046-9.046A9.046,9.046,0,0,0,650.24,558.593Z" transform="translate(-492.693 -340.043)" fill="#fff"></path>
      <path id="路径_327" d="M650.24,717.313a9.046,9.046,0,1,0,9.046-9.046A9.046,9.046,0,0,0,650.24,717.313Z" transform="translate(-492.693 -470.72)" fill="#fff"></path>
      <path id="路径_328" d="M256.205,238.933a9.046,9.046,0,0,0,5.428,16.283H334.6a8.555,8.555,0,0,0,8.141-5.428,8.347,8.347,0,0,1-3.92.9h-74.78a8.108,8.108,0,0,1-8.141-8.141v-1.809a4.482,4.482,0,0,1,.3-1.809Z" transform="translate(-165.297 -84.308)" fill="#e99182"></path>
    </g>
    <g id="组_375" transform="translate(1241.73 1878.785)">
      <rect id="矩形_10" width="13.508" height="4.912" rx="2.456" transform="translate(0 4.298)" fill="#fff"></rect>
      <rect id="矩形_11" width="13.508" height="4.912" rx="2.456" transform="translate(9.21) rotate(90)" fill="#fff"></rect>
    </g>
    <g id="组_372" transform="translate(84.445 1132.008)">
      <rect id="矩形_10-2" width="8.456" height="3.075" rx="1.537" transform="translate(1281.942 655.53)" fill="#fff"></rect>
      <rect id="矩形_11-2" width="8.456" height="3.075" rx="1.537" transform="translate(1287.707 652.84) rotate(90)" fill="#fff"></rect>
    </g>
    <g id="组_374" transform="translate(-96.555 1159.4)">
      <rect id="矩形_10-3" width="9.889" height="3.596" rx="1.798" transform="translate(1281.942 655.986)" fill="#fff"></rect>
      <rect id="矩形_11-3" width="9.889" height="3.596" rx="1.798" transform="translate(1288.684 652.84) rotate(90)" fill="#fff"></rect>
    </g>
  </g>
</svg>
