<?xml version="1.0" encoding="UTF-8"?>
<svg xmlns="http://www.w3.org/2000/svg" width="48.85" height="41.872" viewBox="0 0 48.85 41.872">
  <g id="邮箱" transform="translate(-64 -128)">
    <path id="路径_1544" d="M155.579,227l-21.771,15.767L112.037,227a3.273,3.273,0,0,0-.037.491V230.2L133.808,246l21.808-15.8v-2.711a3.271,3.271,0,0,0-.037-.49Z" transform="translate(-45.383 -93.602)" fill="#298aca"></path>
    <path id="路径_1545" d="M112.453,131.762A5.888,5.888,0,0,0,106.962,128H69.888A5.883,5.883,0,0,0,64,133.888v30.1a5.888,5.888,0,0,0,5.888,5.888h37.074a5.888,5.888,0,0,0,5.888-5.888v-30.1a5.872,5.872,0,0,0-.4-2.126Zm-2.22,32.222a3.275,3.275,0,0,1-3.271,3.271H69.888a3.275,3.275,0,0,1-3.271-3.271v-30.1a3.271,3.271,0,0,1,3.271-3.271h37.074a3.271,3.271,0,0,1,3.271,3.271Z" transform="translate(0 0)" fill="#298aca"></path>
  </g>
</svg>
