<?xml version="1.0" encoding="UTF-8"?>
<svg xmlns="http://www.w3.org/2000/svg" width="46.564" height="40.847" viewBox="0 0 46.564 40.847">
  <g id="链接" transform="translate(-64 -119)">
    <path id="路径_1512" d="M90.978,374h-7.25v2.495h7.25a3.122,3.122,0,0,1,3.118,3.118v16.37a3.122,3.122,0,0,1-3.118,3.118H69.613a3.122,3.122,0,0,1-3.118-3.118v-16.37a3.122,3.122,0,0,1,3.118-3.118h4.965V374H69.613A5.613,5.613,0,0,0,64,379.613v16.37a5.613,5.613,0,0,0,5.613,5.613H90.978a5.613,5.613,0,0,0,5.613-5.613v-16.37A5.613,5.613,0,0,0,90.978,374Z" transform="translate(0 -241.748)" fill="#298aca"></path>
    <path id="路径_1513" d="M359.858,119H338.493a5.613,5.613,0,0,0-5.613,5.613v16.37a5.613,5.613,0,0,0,5.613,5.613h7.2V144.1h-7.2a3.122,3.122,0,0,1-3.118-3.118v-16.37a3.122,3.122,0,0,1,3.118-3.118h21.365a3.122,3.122,0,0,1,3.118,3.118v16.37a3.122,3.122,0,0,1-3.118,3.118H354.84V146.6h5.018a5.613,5.613,0,0,0,5.613-5.613v-16.37A5.613,5.613,0,0,0,359.858,119Z" transform="translate(-254.907)" fill="#298aca"></path>
  </g>
</svg>
