<?xml version="1.0" encoding="UTF-8"?>
<svg xmlns="http://www.w3.org/2000/svg" width="49.601" height="58.354" viewBox="0 0 49.601 58.354">
  <g id="Excel" transform="translate(-149.333 -85.333)">
    <path id="路径_1115" d="M192,180.519h43.766V139.671L224.095,128H192Z" transform="translate(-39.749 -39.749)" fill="#555"></path>
    <path id="路径_1116" d="M149.333,88.251a2.918,2.918,0,0,1,2.918-2.918h32.095a2.917,2.917,0,0,1,2.062.854l11.671,11.671a2.918,2.918,0,0,1,.855,2.063V140.77a2.918,2.918,0,0,1-2.918,2.918H152.251a2.918,2.918,0,0,1-2.918-2.918V88.251Zm5.835,2.918v46.684H193.1V101.13l-9.961-9.961H155.168Z" fill="#555"></path>
    <path id="路径_1117" d="M362.666,390.565A6.565,6.565,0,0,1,369.231,384h12.4v5.835h-12.4a.729.729,0,1,0,0,1.459h7.294a6.565,6.565,0,1,1,0,13.13h-12.4v-5.835h12.4a.729.729,0,1,0,0-1.459h-7.294a6.565,6.565,0,0,1-6.565-6.565Z" transform="translate(-198.744 -278.243)" fill="#fff"></path>
  </g>
</svg>
