<?xml version="1.0" encoding="UTF-8"?>
<svg xmlns="http://www.w3.org/2000/svg" width="49.601" height="58.354" viewBox="0 0 49.601 58.354">
  <g id="Word" transform="translate(-149.333 -85.333)">
    <path id="路径_1109" d="M192,180.519h43.766V139.671L224.095,128H192Z" transform="translate(-39.749 -39.749)" fill="#555"></path>
    <path id="路径_1110" d="M149.333,88.251a2.918,2.918,0,0,1,2.918-2.918h32.095a2.917,2.917,0,0,1,2.062.854l11.671,11.671a2.918,2.918,0,0,1,.855,2.063V140.77a2.918,2.918,0,0,1-2.918,2.918H152.251a2.918,2.918,0,0,1-2.918-2.918V88.251Zm5.835,2.918v46.683H193.1V101.13l-9.961-9.961H155.168Z" transform="translate(0 0)" fill="#555"></path>
    <path id="路径_1111" d="M341.333,401.506V384h5.835v9.9l3.666-4.075a2.918,2.918,0,0,1,4.339,0l3.666,4.075V384h5.835v17.506a2.918,2.918,0,0,1-5.087,1.952L353,396.142l-6.584,7.316a2.918,2.918,0,0,1-5.087-1.952Z" transform="translate(-178.87 -278.243)" fill="#fff"></path>
  </g>
</svg>
