<?xml version="1.0" encoding="UTF-8"?>
<svg xmlns="http://www.w3.org/2000/svg" width="43.238" height="54.048" viewBox="0 0 43.238 54.048">
  <g id="书签" transform="translate(-170.667 -85.333)">
    <path id="路径_986" d="M213.333,128h37.833v48.643L232.25,165.41l-18.917,11.232Z" transform="translate(-39.964 -39.964)" fill="#555"></path>
    <path id="路径_987" d="M170.667,88.036a2.7,2.7,0,0,1,2.7-2.7H211.2a2.7,2.7,0,0,1,2.7,2.7v48.643A2.7,2.7,0,0,1,209.823,139L192.286,128.59,174.749,139a2.7,2.7,0,0,1-4.082-2.324Zm5.4,2.7V131.93l14.835-8.807a2.7,2.7,0,0,1,2.759,0L208.5,131.93V90.738H176.072Z" transform="translate(0)" fill="#555"></path>
    <path id="路径_988" d="M362.952,304.071H341.333v-5.4h21.619v5.4Z" transform="translate(-159.857 -199.822)" fill="#fff"></path>
  </g>
</svg>
