<?xml version="1.0" encoding="UTF-8"?>
<svg xmlns="http://www.w3.org/2000/svg" width="59.658" height="59.164" viewBox="0 0 59.658 59.164">
  <g id="亮度减" transform="translate(-85.333 -85.333)">
    <path id="路径_1044" d="M293.6,309.873a16.27,16.27,0,1,0-16.27-16.27A16.271,16.271,0,0,0,293.6,309.873Z" transform="translate(-178.688 -178.688)" fill="#555"></path>
    <path id="路径_1045" d="M95.687,114.916a19.228,19.228,0,1,1,19.228,19.228A19.228,19.228,0,0,1,95.687,114.916ZM114.916,101.6a13.312,13.312,0,1,0,13.312,13.312A13.312,13.312,0,0,0,114.916,101.6Zm2.958-16.27v8.875h-5.916V85.333Zm21.065,10.354-6.274,6.274-4.184-4.183,6.276-6.276ZM95.687,91.5l6.276,6.274-4.184,4.184L91.5,95.687Zm39.069,47.435-6.276-6.274,4.184-4.186,6.274,6.276-4.183,4.183ZM91.5,134.756l6.274-6.274,4.184,4.183-6.276,6.276L91.5,134.756Zm26.37.867V144.5h-5.916v-8.875Zm27.118-17.749h-8.875v-5.916h8.875Zm-50.784,0H85.333v-5.916h8.875v5.916Z" fill="#555"></path>
    <path id="路径_1046" d="M405.333,469.333h14.791v5.916H405.333Z" transform="translate(-297.813 -357.376)" fill="#fff"></path>
  </g>
</svg>
