<?xml version="1.0" encoding="UTF-8"?>
<svg xmlns="http://www.w3.org/2000/svg" width="61.294" height="60.786" viewBox="0 0 61.294 60.786">
  <g id="亮度加" transform="translate(-85.333 -85.333)">
    <path id="路径_1047" d="M294.049,310.766a16.716,16.716,0,1,0-16.716-16.716A16.716,16.716,0,0,0,294.049,310.766Z" transform="translate(-178.323 -178.323)" fill="#555"></path>
    <path id="路径_1048" d="M95.971,115.726a19.756,19.756,0,1,1,19.756,19.756A19.755,19.755,0,0,1,95.971,115.726Zm19.756-13.677A13.677,13.677,0,1,0,129.4,115.726,13.677,13.677,0,0,0,115.726,102.05Zm3.039-16.716v9.118h-6.079V85.333Zm21.643,10.638-6.446,6.446-4.3-4.3,6.448-6.448Zm-44.438-4.3,6.448,6.446-4.3,4.3-6.446-6.448Zm40.14,48.735-6.448-6.446,4.3-4.3,6.446,6.448-4.3,4.3Zm-44.438-4.3,6.446-6.446,4.3,4.3-6.448,6.448-4.3-4.3Zm27.093.891v9.118h-6.079V137Zm27.861-18.236h-9.118v-6.079h9.118Zm-52.176,0H85.333v-6.079h9.118v6.079Z" fill="#555"></path>
    <path id="路径_1049" d="M405.333,469.333h15.2v6.079h-15.2Z" transform="translate(-297.205 -356.646)" fill="#fff"></path>
    <path id="路径_1050" d="M475.412,405.333v15.2h-6.079v-15.2Z" transform="translate(-356.646 -297.205)" fill="#fff"></path>
  </g>
</svg>
