<?xml version="1.0" encoding="UTF-8"?>
<svg xmlns="http://www.w3.org/2000/svg" width="58.47" height="58.47" viewBox="0 0 58.47 58.47">
  <g id="切换" transform="translate(-85.333 -85.333)">
    <path id="路径_938" d="M180.623,154.312A26.312,26.312,0,1,1,154.312,128,26.312,26.312,0,0,1,180.623,154.312Z" transform="translate(-39.743 -39.743)" fill="#555"></path>
    <path id="路径_939" d="M114.568,91.18a23.388,23.388,0,1,0,23.388,23.388A23.387,23.387,0,0,0,114.568,91.18ZM85.333,114.568A29.235,29.235,0,1,1,114.568,143.8,29.235,29.235,0,0,1,85.333,114.568Z" fill="#555"></path>
    <path id="路径_940" d="M313.828,336.331V320h-5.847v23.388a2.924,2.924,0,0,0,4.99,2.067l7.309-7.309-4.134-4.134Zm-17.541-6.35v16.331h5.847V322.924a2.924,2.924,0,0,0-4.99-2.067l-7.309,7.309,4.134,4.134Z" transform="translate(-190.489 -218.587)" fill="#fff"></path>
  </g>
</svg>
