<?xml version="1.0" encoding="UTF-8"?>
<svg xmlns="http://www.w3.org/2000/svg" width="55.34" height="61.489" viewBox="0 0 55.34 61.489">
  <g id="列表" transform="translate(-128 -85.333)">
    <path id="路径_1118" d="M219.858,183.34H170.667V128h49.191v55.34Z" transform="translate(-39.593 -39.592)" fill="#555"></path>
    <path id="路径_1119" d="M128,88.408a3.074,3.074,0,0,1,3.074-3.074h49.191a3.074,3.074,0,0,1,3.074,3.074v55.34a3.074,3.074,0,0,1-3.074,3.074H131.074A3.074,3.074,0,0,1,128,143.748V88.408Zm6.149,3.074v49.191h43.042V91.482H134.149Z" fill="#555"></path>
    <path id="路径_1120" d="M329.411,262.149H298.667V256h30.744v6.149Zm0,15.372H298.667v-6.149h30.744v6.149Zm-10.761,15.372H298.667v-6.149h19.984Z" transform="translate(-158.369 -158.369)" fill="#fff"></path>
  </g>
</svg>
