<?xml version="1.0" encoding="UTF-8"?>
<svg xmlns="http://www.w3.org/2000/svg" width="69.642" height="50.649" viewBox="0 0 69.642 50.649">
  <g id="删除" transform="translate(-42.67 -170.667)">
    <path id="路径_950" d="M104.327,213.333h44.318v44.318H104.327L85.333,235.492l18.993-22.159Z" transform="translate(-39.498 -39.5)" fill="#555"></path>
    <path id="路径_951" d="M62.426,171.772a3.166,3.166,0,0,1,2.4-1.1h44.318a3.166,3.166,0,0,1,3.166,3.166V218.15a3.166,3.166,0,0,1-3.166,3.166H64.828a3.165,3.165,0,0,1-2.4-1.1L43.432,198.052a3.166,3.166,0,0,1,0-4.122l18.993-22.159ZM66.284,177,50,195.991l16.28,18.993h39.7V177Z" transform="translate(0)" fill="#555"></path>
    <path id="路径_952" d="M456.145,366.336l17.138,17.138-4.476,4.476-17.138-17.138Z" transform="translate(-378.655 -181.152)" fill="#fff"></path>
    <path id="路径_953" d="M451.669,383.474l17.138-17.138,4.476,4.476-17.138,17.141Z" transform="translate(-378.655 -181.152)" fill="#fff"></path>
  </g>
</svg>
