<?xml version="1.0" encoding="UTF-8"?>
<svg xmlns="http://www.w3.org/2000/svg" width="58.47" height="58.47" viewBox="0 0 58.47 58.47">
  <g id="功能" transform="translate(-128 -128)">
    <path id="路径_924" d="M170.667,170.667h21.114v14.618a6.5,6.5,0,0,1-6.5,6.5H170.667Z" transform="translate(-39.419 -39.418)" fill="#555"></path>
    <path id="路径_925" d="M128,131.249A3.248,3.248,0,0,1,131.248,128h21.114a3.248,3.248,0,0,1,3.248,3.248v14.618a9.745,9.745,0,0,1-9.745,9.745H131.248A3.248,3.248,0,0,1,128,152.363V131.249Zm6.5,3.248v14.618h11.369a3.248,3.248,0,0,0,3.248-3.248V134.5H134.5Z" fill="#555"></path>
    <path id="路径_926" d="M170.667,576h14.618a6.5,6.5,0,0,1,6.5,6.5v14.618H170.667Z" transform="translate(-39.419 -413.892)" fill="#555"></path>
    <path id="路径_927" d="M128,536.582a3.248,3.248,0,0,1,3.248-3.248h14.618a9.745,9.745,0,0,1,9.745,9.745V557.7a3.248,3.248,0,0,1-3.248,3.248H131.248A3.248,3.248,0,0,1,128,557.7V536.582Zm6.5,3.248v14.618h14.618V543.078a3.248,3.248,0,0,0-3.248-3.248H134.5Z" transform="translate(0 -374.474)" fill="#555"></path>
    <path id="路径_928" d="M576,170.667h21.114v21.114H582.5a6.5,6.5,0,0,1-6.5-6.5Z" transform="translate(-413.892 -39.418)" fill="#555"></path>
    <path id="路径_929" d="M533.333,131.249A3.248,3.248,0,0,1,536.581,128H557.7a3.248,3.248,0,0,1,3.248,3.248v21.114a3.248,3.248,0,0,1-3.248,3.248H543.078a9.745,9.745,0,0,1-9.745-9.745Zm6.5,3.248v11.369a3.248,3.248,0,0,0,3.248,3.248h11.369V134.5H539.829Zm-6.5,34.108a9.745,9.745,0,0,1,9.745-9.745H557.7a3.248,3.248,0,0,1,3.248,3.248v21.114a3.248,3.248,0,0,1-3.248,3.248H536.581a3.248,3.248,0,0,1-3.248-3.248V168.6Zm9.745-3.248a3.248,3.248,0,0,0-3.248,3.248v11.369h14.618V165.356H543.078Z" transform="translate(-374.473)" fill="#555"></path>
  </g>
</svg>
