<?xml version="1.0" encoding="UTF-8"?>
<svg xmlns="http://www.w3.org/2000/svg" width="61" height="48.8" viewBox="0 0 61 48.8">
  <g id="向左" transform="translate(-85.333 -170.666)">
    <path id="路径_1101" d="M128,213.333h54.9v42.7H128Z" transform="translate(-39.617 -39.617)" fill="#555"></path>
    <path id="路径_1102" d="M85.333,173.716a3.05,3.05,0,0,1,3.05-3.05h54.9a3.05,3.05,0,0,1,3.05,3.05v42.7a3.05,3.05,0,0,1-3.05,3.05h-54.9a3.05,3.05,0,0,1-3.05-3.05Zm6.1,3.05v36.6h48.8v-36.6h-48.8Z" fill="#555"></path>
    <path id="路径_1103" d="M114.308,352.269l-8.256,8.258a3.05,3.05,0,0,0,2.156,5.206h18.3v-6.1H115.571l3.05-3.05-4.313-4.316Zm32.025-4.836h-61v-6.1h61v6.1Z" transform="translate(0 -158.467)" fill="#fff"></path>
  </g>
</svg>
