<?xml version="1.0" encoding="UTF-8"?>
<svg xmlns="http://www.w3.org/2000/svg" width="59.865" height="47.892" viewBox="0 0 59.865 47.892">
  <g id="向右" transform="translate(-85.333 -170.666)">
    <path id="路径_1098" d="M128,213.333h53.879v41.906H128Z" transform="translate(-39.673 -39.673)" fill="#555"></path>
    <path id="路径_1099" d="M85.333,173.66a2.993,2.993,0,0,1,2.993-2.993h53.879a2.993,2.993,0,0,1,2.993,2.993v41.906a2.993,2.993,0,0,1-2.993,2.993H88.327a2.993,2.993,0,0,1-2.993-2.993Zm5.986,2.993v35.919h47.892V176.653H91.32Z" fill="#555"></path>
    <path id="路径_1100" d="M116.762,352.066l8.1,8.1a2.993,2.993,0,0,1-2.116,5.109h-17.96v-5.987h10.734L112.53,356.3l4.232-4.235ZM145.2,347.32H85.333v-5.986H145.2v5.986Z" transform="translate(0 -158.694)" fill="#fff"></path>
  </g>
</svg>
