<?xml version="1.0" encoding="UTF-8"?>
<svg xmlns="http://www.w3.org/2000/svg" width="57.314" height="57.314" viewBox="0 0 57.314 57.314">
  <g id="周报管理" transform="translate(-106.666 -85.333)">
    <path id="路径_1121" d="M149.333,258.581h51.281V213.333H149.333Z" transform="translate(-39.65 -118.95)" fill="#555"></path>
    <path id="路径_1122" d="M106.666,173.683a3.017,3.017,0,0,1,3.017-3.017h51.281a3.017,3.017,0,0,1,3.017,3.017v45.248a3.017,3.017,0,0,1-3.017,3.017H109.683a3.017,3.017,0,0,1-3.017-3.017V173.683ZM112.7,176.7v39.215h45.248V176.7H112.7Z" transform="translate(0 -79.3)" fill="#555"></path>
    <path id="路径_1123" d="M298.667,448h21.116v6.033H298.667Zm0,12.066h30.165V466.1H298.667Z" transform="translate(-178.426 -337.026)" fill="#fff"></path>
    <path id="路径_1124" d="M304.7,85.333v18.1h-6.033v-18.1Zm24.132,0v18.1H322.8v-18.1Z" transform="translate(-178.426)" fill="#555"></path>
  </g>
</svg>
