<?xml version="1.0" encoding="UTF-8"?>
<svg xmlns="http://www.w3.org/2000/svg" width="58.433" height="53.539" viewBox="0 0 58.433 53.539">
  <g id="图片" transform="translate(-85.333 -128)">
    <path id="路径_1003" d="M128,170.667h49.53v44.027H128Z" transform="translate(-39.915 -39.915)" fill="#555"></path>
    <path id="路径_1004" d="M85.333,130.752A2.752,2.752,0,0,1,88.085,128h49.53a2.752,2.752,0,0,1,2.752,2.752v44.027a2.752,2.752,0,0,1-2.752,2.752H88.085a2.752,2.752,0,0,1-2.752-2.752Zm5.5,2.752v38.523h44.027V133.5H90.837Z" transform="translate(0)" fill="#555"></path>
    <path id="路径_1005" d="M309.673,346.837a5.5,5.5,0,1,1-5.5-5.5A5.5,5.5,0,0,1,309.673,346.837Z" transform="translate(-199.574 -199.575)" fill="#fff"></path>
    <path id="路径_1006" d="M246.014,304.17a2.752,2.752,0,1,0,2.752,2.752A2.752,2.752,0,0,0,246.014,304.17Zm-8.255,2.752a8.255,8.255,0,1,1,8.255,8.255A8.255,8.255,0,0,1,237.76,306.922Zm22.82,6.31a2.752,2.752,0,0,1,3.263-.471l15.134,8.255.018.011,6.191,3.44-2.672,4.81-6.183-3.434-13.317-7.264L240.393,341.2l-3.891-3.891,24.077-24.077Z" transform="translate(-141.42 -159.66)" fill="#fff"></path>
  </g>
</svg>
