<?xml version="1.0" encoding="UTF-8"?>
<svg xmlns="http://www.w3.org/2000/svg" width="47.385" height="58.47" viewBox="0 0 47.385 58.47">
  <g id="地址" transform="translate(-166.229 -85.333)">
    <path id="路径_944" d="M250.434,149.643c0,11.854-8.654,24.058-20.769,30.981C217.55,173.7,208.9,161.5,208.9,149.643S218.194,128,229.665,128,250.434,137.791,250.434,149.643Z" transform="translate(-39.743 -39.743)" fill="#555"></path>
    <path id="路径_945" d="M189.922,91.18c-9.735,0-17.845,8.358-17.845,18.72,0,10.051,7.141,20.9,17.845,27.576,10.7-6.676,17.845-17.525,17.845-27.575C207.767,99.536,199.656,91.18,189.922,91.18ZM166.229,109.9c0-13.343,10.487-24.567,23.693-24.567s23.693,11.224,23.693,24.567c0,13.207-9.516,26.248-22.242,33.519a2.924,2.924,0,0,1-2.9,0c-12.726-7.271-22.242-20.311-22.242-33.519Z" fill="#555"></path>
    <path id="路径_946" d="M419.951,339a7.309,7.309,0,1,1-7.309-7.309A7.309,7.309,0,0,1,419.951,339Z" transform="translate(-222.721 -229.476)" fill="#fff"></path>
    <path id="路径_947" d="M372.9,294.871a4.385,4.385,0,1,0,4.385,4.385A4.385,4.385,0,0,0,372.9,294.871Zm-10.232,4.385A10.232,10.232,0,1,1,372.9,309.488,10.232,10.232,0,0,1,362.667,299.256Z" transform="translate(-182.978 -189.733)" fill="#fff"></path>
  </g>
</svg>
