<?xml version="1.0" encoding="UTF-8"?>
<svg xmlns="http://www.w3.org/2000/svg" width="60.262" height="51.223" viewBox="0 0 60.262 51.223">
  <g id="基本信息" transform="translate(-85.333 -149.333)">
    <path id="路径_1057" d="M128,237.2h54.236V192H128Z" transform="translate(-39.654 -39.654)" fill="#555"></path>
    <path id="路径_1058" d="M85.333,152.346a3.013,3.013,0,0,1,3.013-3.013h54.236a3.013,3.013,0,0,1,3.013,3.013v45.2a3.013,3.013,0,0,1-3.013,3.013H88.346a3.013,3.013,0,0,1-3.013-3.013Zm6.026,3.013v39.17h48.21V155.36H91.36Z" transform="translate(0 0)" fill="#555"></path>
    <path id="路径_1059" d="M261.785,324.519H276.85v6.026H261.785Zm0,12.052H276.85V342.6H261.785Zm-18.079-10.546a3.013,3.013,0,1,0,3.013,3.013,3.013,3.013,0,0,0-3.013-3.013Zm-9.039,3.013a9.039,9.039,0,1,1,9.039,9.039A9.039,9.039,0,0,1,234.667,329.039Z" transform="translate(-138.788 -158.614)" fill="#fff"></path>
    <path id="路径_1060" d="M204.052,539.36a6.026,6.026,0,0,0-6.026,6.026H192a12.052,12.052,0,1,1,24.1,0h-6.026a6.026,6.026,0,0,0-6.026-6.026Z" transform="translate(-99.134 -356.882)" fill="#fff"></path>
  </g>
</svg>
