<?xml version="1.0" encoding="UTF-8"?>
<svg xmlns="http://www.w3.org/2000/svg" width="56.246" height="56.246" viewBox="0 0 56.246 56.246">
  <g id="失败" transform="translate(-85.333 -85.333)">
    <path id="路径_996" d="M178.622,153.311A25.311,25.311,0,1,1,153.311,128,25.311,25.311,0,0,1,178.622,153.311Z" transform="translate(-39.854 -39.854)" fill="#555"></path>
    <path id="路径_997" d="M113.456,90.958a22.5,22.5,0,1,0,22.5,22.5A22.5,22.5,0,0,0,113.456,90.958Zm-28.123,22.5a28.123,28.123,0,1,1,28.123,28.123A28.123,28.123,0,0,1,85.333,113.456Z" fill="#555"></path>
    <path id="路径_998" d="M348.98,345l18.038,18.038-3.977,3.977L345,348.98Z" transform="translate(-242.554 -242.554)" fill="#fff"></path>
    <path id="路径_999" d="M345,363l18.038-18.041,3.977,3.979L348.98,366.978Z" transform="translate(-242.554 -242.514)" fill="#fff"></path>
  </g>
</svg>
