<?xml version="1.0" encoding="UTF-8"?>
<svg xmlns="http://www.w3.org/2000/svg" width="48.643" height="54.048" viewBox="0 0 48.643 54.048">
  <g id="密码" transform="translate(-128 -85.334)">
    <path id="路径_992" d="M170.667,426.667h43.238v29.726H170.667Z" transform="translate(-39.965 -319.714)" fill="#555"></path>
    <path id="路径_993" d="M128,386.7a2.7,2.7,0,0,1,2.7-2.7h43.238a2.7,2.7,0,0,1,2.7,2.7v29.726a2.7,2.7,0,0,1-2.7,2.7H130.7a2.7,2.7,0,0,1-2.7-2.7V386.7Zm5.4,2.7v24.322h37.833V389.405H133.4Z" transform="translate(0 -279.75)" fill="#555"></path>
    <path id="路径_994" d="M469.333,586.81V576h5.4v10.81Z" transform="translate(-319.714 -459.589)" fill="#fff"></path>
    <path id="路径_995" d="M298.667,98.846a13.512,13.512,0,0,1,27.024,0v10.81H298.667Zm13.512-8.107a8.107,8.107,0,0,0-8.107,8.107v5.4h16.214v-5.4A8.107,8.107,0,0,0,312.179,90.739Z" transform="translate(-159.857 0)" fill="#555"></path>
  </g>
</svg>
