<?xml version="1.0" encoding="UTF-8"?>
<svg xmlns="http://www.w3.org/2000/svg" width="58.47" height="58.47" viewBox="0 0 58.47 58.47">
  <g id="帮助" transform="translate(-85.333 -85.333)">
    <path id="路径_933" d="M180.623,154.312A26.312,26.312,0,1,1,154.312,128,26.312,26.312,0,0,1,180.623,154.312Z" transform="translate(-39.743 -39.743)" fill="#555"></path>
    <path id="路径_934" d="M114.568,91.18a23.388,23.388,0,1,0,23.388,23.388A23.387,23.387,0,0,0,114.568,91.18ZM85.333,114.568A29.235,29.235,0,1,1,114.568,143.8,29.235,29.235,0,0,1,85.333,114.568Z" fill="#555"></path>
    <path id="路径_935" d="M389.847,326.475v-5.847h5.847v5.847Zm2.924-21.926a2.924,2.924,0,0,0-2.924,2.923H384a8.771,8.771,0,1,1,11.694,8.272v1.96h-5.847V310.4h2.923a2.924,2.924,0,1,0,0-5.847Z" transform="translate(-278.202 -198.75)" fill="#fff"></path>
  </g>
</svg>
