<?xml version="1.0" encoding="UTF-8"?>
<svg xmlns="http://www.w3.org/2000/svg" width="55" height="55.935" viewBox="0 0 55 55.935">
  <g id="平台管理" transform="translate(-113.451 -106.668)">
    <path id="路径_1125" d="M194.218,172.884l-23.551-11.776,23.551-11.776,23.551,11.776Z" transform="translate(-53.268 -39.721)" fill="#555"></path>
    <path id="路径_1126" d="M153.182,106.979a2.944,2.944,0,0,1,2.632,0l23.551,11.776a2.944,2.944,0,0,1,0,5.267L155.814,135.8a2.944,2.944,0,0,1-2.632,0l-23.551-11.776a2.944,2.944,0,0,1,0-5.267ZM137.53,121.388l16.969,8.484,16.969-8.484L154.5,112.9Z" transform="translate(-13.548)" fill="#555"></path>
    <path id="路径_1127" d="M116.083,454.762,140.95,467.2l24.869-12.434,2.632,5.265L142.268,473.12a2.944,2.944,0,0,1-2.635,0l-26.182-13.093,2.633-5.265Z" transform="translate(0 -324.076)" fill="#555"></path>
    <path id="路径_1128" d="M116.083,646.762,140.95,659.2l24.869-12.434,2.632,5.265L142.268,665.12a2.944,2.944,0,0,1-2.635,0l-26.182-13.093,2.633-5.265Z" transform="translate(0 -502.828)" fill="#555"></path>
  </g>
</svg>
