<?xml version="1.0" encoding="UTF-8"?>
<svg xmlns="http://www.w3.org/2000/svg" width="57.613" height="57.613" viewBox="0 0 57.613 57.613">
  <g id="意见" transform="translate(-85.333 -85.333)">
    <path id="路径_1017" d="M179.852,153.926A25.926,25.926,0,1,1,153.926,128,25.926,25.926,0,0,1,179.852,153.926Z" transform="translate(-39.786 -39.786)" fill="#555"></path>
    <path id="路径_1018" d="M114.14,91.095a23.045,23.045,0,1,0,23.045,23.045A23.044,23.044,0,0,0,114.14,91.095ZM85.333,114.14a28.807,28.807,0,1,1,28.807,28.807A28.806,28.806,0,0,1,85.333,114.14Z" fill="#555"></path>
    <path id="路径_1019" d="M469.333,355.736v-14.4h5.761v14.4h-5.761Zm0,8.642v-5.761h5.761v5.761Z" transform="translate(-358.074 -238.716)" fill="#fff"></path>
  </g>
</svg>
