<?xml version="1.0" encoding="UTF-8"?>
<svg xmlns="http://www.w3.org/2000/svg" width="56.246" height="56.246" viewBox="0 0 56.246 56.246">
  <g id="成功" transform="translate(-85.333 -85.333)">
    <path id="路径_1014" d="M178.622,153.311A25.311,25.311,0,1,1,153.311,128,25.311,25.311,0,0,1,178.622,153.311Z" transform="translate(-39.854 -39.854)" fill="#555"></path>
    <path id="路径_1015" d="M113.456,90.958a22.5,22.5,0,1,0,22.5,22.5A22.5,22.5,0,0,0,113.456,90.958Zm-28.123,22.5a28.123,28.123,0,1,1,28.123,28.123A28.123,28.123,0,0,1,85.333,113.456Z" fill="#555"></path>
    <path id="路径_1016" d="M329.956,348.821,315.52,366.466a2.812,2.812,0,0,1-4.165.208l-9.019-9.019,3.977-3.979,6.823,6.823,12.468-15.24,4.352,3.562Z" transform="translate(-202.699 -242.792)" fill="#fff"></path>
  </g>
</svg>
