<?xml version="1.0" encoding="UTF-8"?>
<svg xmlns="http://www.w3.org/2000/svg" width="51.34" height="58.47" viewBox="0 0 51.34 58.47">
  <g id="提示" transform="translate(-128 -85.333)">
    <path id="路径_936" d="M178.244,143.242a15.241,15.241,0,1,1,30.483,0v2.51a29.9,29.9,0,0,0,4.467,15.724L216.3,166.5H170.667l3.109-5.028a29.9,29.9,0,0,0,4.468-15.723v-2.513Z" transform="translate(-39.815 -39.815)" fill="#555"></path>
    <path id="路径_937" d="M153.67,91.038a12.389,12.389,0,0,0-12.39,12.391v2.509a32.763,32.763,0,0,1-4.892,17.223l-.419.677h35.4l-.418-.677a32.754,32.754,0,0,1-4.893-17.222v-2.513a12.389,12.389,0,0,0-12.39-12.389Zm-18.094,12.39a18.094,18.094,0,1,1,36.189,0v2.51a27.043,27.043,0,0,0,4.04,14.224l3.109,5.028a2.852,2.852,0,0,1-2.426,4.352H130.852a2.852,2.852,0,0,1-2.426-4.352l3.109-5.028a27.047,27.047,0,0,0,4.042-14.223v-2.513Zm12.39,28.967a5.7,5.7,0,1,0,11.409,0h5.7a11.409,11.409,0,1,1-22.818,0h5.7Z" transform="translate(0 0)" fill="#555"></path>
  </g>
</svg>
