<?xml version="1.0" encoding="UTF-8"?>
<svg xmlns="http://www.w3.org/2000/svg" width="65.761" height="54.048" viewBox="0 0 65.761 54.048">
  <g id="提示" transform="translate(-64 -143.795)">
    <path id="路径_1007" d="M106.667,205.673l20.048-15.826a15.657,15.657,0,0,1,19.4,0l20.048,15.826v9.394l-20.048,15.826a15.657,15.657,0,0,1-19.4,0l-20.048-15.826Z" transform="translate(-39.536 -39.551)" fill="#555"></path>
    <path id="路径_1008" d="M104.642,152.753a12.526,12.526,0,0,0-15.523,0L70.263,167.639V174l18.856,14.885a12.526,12.526,0,0,0,15.523,0L123.5,174v-6.36l-18.856-14.885Zm-19.4-4.916a18.789,18.789,0,0,1,23.286,0l20.046,15.826a3.131,3.131,0,0,1,1.192,2.458v9.394a3.131,3.131,0,0,1-1.19,2.458L108.522,193.8a18.789,18.789,0,0,1-23.286,0L65.192,177.974A3.131,3.131,0,0,1,64,175.516v-9.394a3.131,3.131,0,0,1,1.19-2.458l20.049-15.826Z" transform="translate(0 0)" fill="#555"></path>
    <path id="路径_1009" d="M469.333,439.192V426.666H475.6v12.526Z" transform="translate(-375.584 -262.11)" fill="#fff"></path>
  </g>
</svg>
