<?xml version="1.0" encoding="UTF-8"?>
<svg xmlns="http://www.w3.org/2000/svg" width="63.408" height="60.919" viewBox="0 0 63.408 60.919">
  <g id="收藏" transform="translate(-81.148 -106.112)">
    <path id="路径_1081" d="M149.7,150.338a3.14,3.14,0,0,1,5.425,0l7.248,12.444a3.14,3.14,0,0,0,2.049,1.49l14.075,3.047a3.139,3.139,0,0,1,1.677,5.16l-9.594,10.739a3.14,3.14,0,0,0-.783,2.408l1.452,14.327a3.141,3.141,0,0,1-4.391,3.19l-13.178-5.808a3.14,3.14,0,0,0-2.532,0l-13.177,5.808a3.141,3.141,0,0,1-4.391-3.19l1.452-14.327a3.139,3.139,0,0,0-.783-2.408l-9.595-10.737a3.14,3.14,0,0,1,1.677-5.161l14.075-3.047a3.14,3.14,0,0,0,2.049-1.49l7.248-12.444Z" transform="translate(-39.56 -39.527)" fill="#555"></path>
    <path id="路径_1082" d="M107.427,109.23a6.279,6.279,0,0,1,10.85,0l7.249,12.445,14.073,3.047a6.28,6.28,0,0,1,3.355,10.321l-9.6,10.737,1.45,14.329a6.278,6.278,0,0,1-8.778,6.378l-13.178-5.808-13.178,5.808a6.278,6.278,0,0,1-8.778-6.378l1.45-14.327-9.6-10.739A6.28,6.28,0,0,1,86.1,124.722l14.073-3.047,7.249-12.444Zm5.425,3.163-7.248,12.44a6.279,6.279,0,0,1-4.1,2.976l-14.075,3.052L97.027,141.6a6.279,6.279,0,0,1,1.565,4.818l-1.45,14.327,13.178-5.808a6.279,6.279,0,0,1,5.064,0l13.178,5.808-1.45-14.327a6.279,6.279,0,0,1,1.563-4.818l9.6-10.737L124.2,127.813a6.279,6.279,0,0,1-4.1-2.976l-7.248-12.445Z" fill="#555"></path>
    <path id="路径_1083" d="M389.029,503.059c-1.717,3.452-4.874,6.45-9.089,6.45s-7.372-3-9.089-6.45l-1.4-2.81,5.621-2.8,1.4,2.81c1.127,2.267,2.537,2.97,3.469,2.97s2.342-.706,3.469-2.968l1.4-2.81,5.62,2.8-1.4,2.81Z" transform="translate(-267.088 -362.542)" fill="#fff"></path>
  </g>
</svg>
