<?xml version="1.0" encoding="UTF-8"?>
<svg xmlns="http://www.w3.org/2000/svg" width="56.309" height="49.27" viewBox="0 0 56.309 49.27">
  <g id="数据大屏" transform="translate(-85.333 -170.666)">
    <path id="路径_1051" d="M128,213.333h50.678v33.785H128Z" transform="translate(-39.851 -39.851)" fill="#555"></path>
    <path id="路径_1052" d="M85.333,173.482a2.815,2.815,0,0,1,2.815-2.815h50.678a2.815,2.815,0,0,1,2.815,2.815v33.785a2.815,2.815,0,0,1-2.815,2.815H88.149a2.815,2.815,0,0,1-2.815-2.815Zm5.631,2.815v28.154h45.047V176.3H90.964Zm8.446,38.008h28.154v5.631H99.41Z" fill="#555"></path>
    <path id="路径_1053" d="M309.957,363.5a2.815,2.815,0,0,1,3.981,0l6.456,6.456,5.631-5.631,3.981,3.981-7.621,7.621a2.815,2.815,0,0,1-3.981,0l-6.456-6.456-5.631,5.631-3.981-3.981Z" transform="translate(-202.683 -179.339)" fill="#fff"></path>
  </g>
</svg>
