<?xml version="1.0" encoding="UTF-8"?>
<svg xmlns="http://www.w3.org/2000/svg" width="55.612" height="55.612" viewBox="0 0 55.612 55.612">
  <g id="数据包" transform="translate(-128 -128)">
    <path id="路径_1104" d="M128,131.09a3.09,3.09,0,0,1,3.09-3.09h20.082a3.089,3.089,0,0,1,2.325,1.055l10.814,12.358a3.09,3.09,0,0,1-2.325,5.124h-30.9a3.09,3.09,0,0,1-3.09-3.09V131.09Zm6.179,3.09v6.179h21l-5.407-6.179H134.179Z" fill="#555"></path>
    <path id="路径_1105" d="M170.667,341.333H220.1v37.075H170.667Z" transform="translate(-39.577 -197.885)" fill="#555"></path>
    <path id="路径_1106" d="M128,301.756a3.09,3.09,0,0,1,3.09-3.09h49.433a3.09,3.09,0,0,1,3.09,3.09V338.83a3.09,3.09,0,0,1-3.09,3.09H131.09a3.09,3.09,0,0,1-3.09-3.09V301.756Zm6.179,3.09v30.9h43.254v-30.9H134.179Z" transform="translate(0 -158.308)" fill="#555"></path>
    <path id="路径_1107" d="M469.333,469.333H487.87v6.179H469.333Zm0,10.813H487.87v6.179H469.333Z" transform="translate(-316.617 -316.616)" fill="#fff"></path>
    <path id="路径_1108" d="M304.846,472.423a3.09,3.09,0,1,1-3.09-3.09,3.09,3.09,0,0,1,3.09,3.09Zm0,10.813a3.09,3.09,0,1,1-3.09-3.09,3.09,3.09,0,0,1,3.09,3.09Z" transform="translate(-158.309 -316.617)" fill="#fff"></path>
  </g>
</svg>
