<?xml version="1.0" encoding="UTF-8"?>
<svg xmlns="http://www.w3.org/2000/svg" width="49.039" height="49.039" viewBox="0 0 49.039 49.039">
  <g id="数据表" transform="translate(-128 -128)">
    <path id="路径_1095" d="M214.257,214.257h-43.59v-43.59h43.59v43.59Z" transform="translate(-39.943 -39.942)" fill="#555"></path>
    <path id="路径_1096" d="M128,130.725A2.724,2.724,0,0,1,130.724,128h43.59a2.724,2.724,0,0,1,2.724,2.724v43.59a2.724,2.724,0,0,1-2.724,2.724h-43.59A2.724,2.724,0,0,1,128,174.315v-43.59Zm5.449,2.724v38.142H171.59V133.449H133.449Z" fill="#555"></path>
    <path id="路径_1097" d="M309.565,344.52V320h5.449v24.52Zm-10.9,0V328.173h5.449V344.52Zm21.8,0v-9.535h5.449v9.535Z" transform="translate(-159.769 -179.74)" fill="#fff"></path>
  </g>
</svg>
