<?xml version="1.0" encoding="UTF-8"?>
<svg xmlns="http://www.w3.org/2000/svg" width="58.47" height="58.47" viewBox="0 0 58.47 58.47">
  <g id="数据" transform="translate(-128 -64)">
    <path id="路径_967" d="M194.364,226.318a23.7,23.7,0,0,0,23.7-23.7l-23.7-23.7a23.7,23.7,0,1,0,0,47.4Z" transform="translate(-39.668 -106.846)" fill="#555"></path>
    <path id="路径_968" d="M153.488,142.287a20.7,20.7,0,1,0,21.872,21.874l-21.874-21.874ZM128,162.953a26.7,26.7,0,0,1,26.7-26.7h1.243l25.454,25.454v1.243a26.7,26.7,0,0,1-53.392,0Z" transform="translate(0 -67.178)" fill="#555"></path>
    <path id="路径_969" d="M536.618,135.443a28.775,28.775,0,0,0-28.778-28.776v28.776Z" transform="translate(-353.146 -39.668)" fill="#555"></path>
    <path id="路径_970" d="M465.194,67a3,3,0,0,1,3-3,31.775,31.775,0,0,1,31.775,31.775,3,3,0,0,1-3,3H468.193a3,3,0,0,1-3-3V67Zm6,3.174v22.6h22.6a25.773,25.773,0,0,0-22.6-22.6Z" transform="translate(-313.497)" fill="#fff"></path>
  </g>
</svg>
