<?xml version="1.0" encoding="UTF-8"?>
<svg xmlns="http://www.w3.org/2000/svg" width="50.35" height="47.7" viewBox="0 0 50.35 47.7">
  <g id="文件" transform="translate(-106.666 -128)">
    <path id="路径_971" d="M194.383,213.067h-45.05v-42.4h15.016l8.834,9.275h21.2v33.125Z" transform="translate(-40.017 -40.017)" fill="#555"></path>
    <path id="路径_972" d="M106.666,130.65a2.65,2.65,0,0,1,2.65-2.65h15.016a2.65,2.65,0,0,1,1.92.821l8.049,8.453h20.064a2.65,2.65,0,0,1,2.65,2.65V173.05a2.65,2.65,0,0,1-2.65,2.65h-45.05a2.65,2.65,0,0,1-2.65-2.65v-42.4Zm5.3,2.65v37.1h39.75V142.575h-18.55a2.65,2.65,0,0,1-1.919-.822L123.2,133.3H111.966Z" transform="translate(0 0)" fill="#555"></path>
  </g>
</svg>
