<?xml version="1.0" encoding="UTF-8"?>
<svg xmlns="http://www.w3.org/2000/svg" width="47.293" height="43.915" viewBox="0 0 47.293 43.915">
  <g id="日期" transform="translate(-64 -96)">
    <path id="路径_1517" d="M105.593,164.534a3.171,3.171,0,0,1,3.167,3.167v29.03a3.171,3.171,0,0,1-3.167,3.167H69.7a3.171,3.171,0,0,1-3.167-3.167V167.7a3.171,3.171,0,0,1,3.167-3.167h35.892m0-2.534H69.7a5.7,5.7,0,0,0-5.7,5.7v29.03a5.7,5.7,0,0,0,5.7,5.7h35.892a5.7,5.7,0,0,0,5.7-5.7V167.7A5.7,5.7,0,0,0,105.593,162Z" transform="translate(0 -62.516)" fill="#298aca"></path>
    <path id="路径_1518" d="M102,109.749h43.282v2.534H102Zm7.181,9.479h5.595v2.534h-5.595Zm11.663,0h5.595v2.534h-5.595Zm11.663,0H138.1v2.534h-5.595ZM109.181,128h5.595v2.534h-5.595Zm11.663,0h5.595v2.534h-5.595Zm11.663,0H138.1v2.534h-5.595ZM112.128,96h2.534v9.5h-2.534Zm20.492,0h2.534v9.5H132.62Z" transform="translate(-35.994)" fill="#298aca"></path>
  </g>
</svg>
