<?xml version="1.0" encoding="UTF-8"?>
<svg xmlns="http://www.w3.org/2000/svg" width="56.246" height="56.246" viewBox="0 0 56.246 56.246">
  <g id="时间" transform="translate(-85.333 -85.333)">
    <path id="路径_1000" d="M178.622,153.311A25.311,25.311,0,1,1,153.311,128,25.311,25.311,0,0,1,178.622,153.311Z" transform="translate(-39.854 -39.854)" fill="#555"></path>
    <path id="路径_1001" d="M113.456,90.958a22.5,22.5,0,1,0,22.5,22.5A22.5,22.5,0,0,0,113.456,90.958Zm-28.123,22.5a28.123,28.123,0,1,1,28.123,28.123A28.123,28.123,0,0,1,85.333,113.456Z" fill="#555"></path>
    <path id="路径_1002" d="M474.958,291.352V277.333h-5.625V292.8a2.812,2.812,0,0,0,1.177,2.289l9.843,7.031,3.271-4.578-8.666-6.189Z" transform="translate(-358.69 -179.344)" fill="#fff"></path>
  </g>
</svg>
