<?xml version="1.0" encoding="UTF-8"?>
<svg xmlns="http://www.w3.org/2000/svg" width="56.203" height="56.203" viewBox="0 0 56.203 56.203">
  <g id="暂停" transform="translate(-85.333 -85.333)">
    <path id="路径_1066" d="M153.291,178.582A25.291,25.291,0,1,0,128,153.291,25.291,25.291,0,0,0,153.291,178.582Z" transform="translate(-39.857 -39.857)" fill="#555"></path>
    <path id="路径_1067" d="M85.333,113.435a28.1,28.1,0,1,1,28.1,28.1A28.1,28.1,0,0,1,85.333,113.435Zm28.1-22.481a22.481,22.481,0,1,0,22.481,22.481A22.48,22.48,0,0,0,113.435,90.954Z" fill="#555"></path>
    <path id="路径_1068" d="M368.287,362.667v19.671h-5.62V362.667Zm14.051,0v19.671h-5.62V362.667Z" transform="translate(-259.068 -259.068)" fill="#fff"></path>
  </g>
</svg>
