<?xml version="1.0" encoding="UTF-8"?>
<svg xmlns="http://www.w3.org/2000/svg" width="58.47" height="58.47" viewBox="0 0 58.47 58.47">
  <g id="更多" transform="translate(-85.333 -85.333)">
    <path id="路径_930" d="M180.623,154.312A26.312,26.312,0,1,1,154.312,128,26.312,26.312,0,0,1,180.623,154.312Z" transform="translate(-39.743 -39.743)" fill="#555"></path>
    <path id="路径_931" d="M114.568,91.18a23.388,23.388,0,1,0,23.388,23.388A23.387,23.387,0,0,0,114.568,91.18ZM85.333,114.568A29.235,29.235,0,1,1,114.568,143.8,29.235,29.235,0,0,1,85.333,114.568Z" fill="#555"></path>
    <path id="路径_932" d="M277.333,458.667h7.309v7.309h-7.309Zm12.425,0h7.309v7.309h-7.309Zm12.425,0h7.309v7.309h-7.309Z" transform="translate(-178.844 -347.753)" fill="#fff"></path>
  </g>
</svg>
