<?xml version="1.0" encoding="UTF-8"?>
<svg xmlns="http://www.w3.org/2000/svg" width="58.469" height="58.47" viewBox="0 0 58.469 58.47">
  <g id="标签" transform="translate(-118.72 -140.053)">
    <path id="路径_941" d="M186.6,182.72l27.315,27.315L188.7,235.247l-27.315-27.312V182.721H186.6Z" transform="translate(-39.696 -39.696)" fill="#555"></path>
    <path id="路径_942" d="M146.9,140.053a2.971,2.971,0,0,1,2.1.871l27.313,27.315a2.971,2.971,0,0,1,0,4.2l-25.212,25.213a2.971,2.971,0,0,1-4.2,0L119.59,170.339a2.971,2.971,0,0,1-.871-2.1V143.026a2.971,2.971,0,0,1,2.971-2.971H146.9ZM145.673,146H124.663v21.011l24.343,24.343,21.011-21.011L145.673,146Z" transform="translate(0 0)" fill="#555"></path>
    <path id="路径_943" d="M361.433,382.776a4.457,4.457,0,1,1,0-6.3,4.457,4.457,0,0,1,0,6.3Z" transform="translate(-218.731 -218.74)" fill="#fff"></path>
  </g>
</svg>
