<?xml version="1.0" encoding="UTF-8"?>
<svg xmlns="http://www.w3.org/2000/svg" width="52" height="49.263" viewBox="0 0 52 49.263">
  <g id="档案" transform="translate(-106.666 -128)">
    <path id="路径_1020" d="M195.859,214.456H149.333V170.667h15.053l5.474,10.947h26v32.842Z" transform="translate(-39.93 -39.93)" fill="#555"></path>
    <path id="路径_1021" d="M106.666,130.737A2.737,2.737,0,0,1,109.4,128h15.053a2.737,2.737,0,0,1,2.448,1.513l4.717,9.434H155.93a2.737,2.737,0,0,1,2.737,2.737v32.842a2.737,2.737,0,0,1-2.737,2.737H109.4a2.737,2.737,0,0,1-2.737-2.737V130.737Zm5.474,2.737V171.79h41.053V144.421H129.929a2.737,2.737,0,0,1-2.448-1.513l-4.717-9.434H112.14Z" fill="#555"></path>
    <path id="路径_1022" d="M384,170.667h28.737a2.737,2.737,0,0,1,2.737,2.737v8.211H410v-5.474H384Z" transform="translate(-259.544 -39.93)" fill="#555"></path>
  </g>
</svg>
