<?xml version="1.0" encoding="UTF-8"?>
<svg xmlns="http://www.w3.org/2000/svg" width="48.835" height="48.835" viewBox="0 0 48.835 48.835">
  <g id="模块" transform="translate(-128 -128)">
    <path id="路径_1089" d="M170.667,170.667h43.409v16.278H170.667Z" transform="translate(-39.954 -39.954)" fill="#555"></path>
    <path id="路径_1090" d="M128,130.713A2.713,2.713,0,0,1,130.713,128h43.409a2.713,2.713,0,0,1,2.713,2.713v16.278a2.713,2.713,0,0,1-2.713,2.713H130.713A2.713,2.713,0,0,1,128,146.992V130.713Zm5.426,2.713v10.852h37.983V133.426Z" transform="translate(0)" fill="#555"></path>
    <path id="路径_1091" d="M170.667,597.333h16.278v16.278H170.667Z" transform="translate(-39.954 -439.489)" fill="#555"></path>
    <path id="路径_1092" d="M128,557.379a2.713,2.713,0,0,1,2.713-2.713h16.278a2.713,2.713,0,0,1,2.713,2.713v16.278a2.713,2.713,0,0,1-2.713,2.713H130.713A2.713,2.713,0,0,1,128,573.658V557.379Zm5.426,2.713v10.852h10.852V560.092Z" transform="translate(0 -399.535)" fill="#555"></path>
    <path id="路径_1093" d="M597.333,597.333h16.278v16.278H597.333Z" transform="translate(-439.489 -439.489)" fill="#555"></path>
    <path id="路径_1094" d="M554.666,557.379a2.713,2.713,0,0,1,2.713-2.713h16.278a2.713,2.713,0,0,1,2.713,2.713v16.278a2.713,2.713,0,0,1-2.713,2.713H557.379a2.713,2.713,0,0,1-2.713-2.713V557.379Zm5.426,2.713v10.852h10.852V560.092Z" transform="translate(-399.536 -399.535)" fill="#555"></path>
  </g>
</svg>
