<?xml version="1.0" encoding="UTF-8"?>
<svg xmlns="http://www.w3.org/2000/svg" width="55.091" height="49.582" viewBox="0 0 55.091 49.582">
  <g id="消息" transform="translate(-85.333 -128)">
    <path id="路径_983" d="M128,170.667h49.581v33.054l-16.527,11.018V203.721H128Z" transform="translate(-39.912 -39.912)" fill="#555"></path>
    <path id="路径_984" d="M85.333,130.755A2.755,2.755,0,0,1,88.088,128h49.581a2.755,2.755,0,0,1,2.755,2.755v33.054A2.755,2.755,0,0,1,139.2,166.1l-16.527,11.018a2.755,2.755,0,0,1-4.283-2.292v-8.264h-30.3a2.755,2.755,0,0,1-2.755-2.755Zm5.509,2.755v27.545h30.3a2.755,2.755,0,0,1,2.755,2.755v5.871l11.018-7.345V133.509H90.842Z" fill="#555"></path>
    <path id="路径_985" d="M341.333,306.931v-8.264h5.509v8.264Zm16.527,0v-8.264h5.509v8.264Z" transform="translate(-239.473 -159.649)" fill="#fff"></path>
  </g>
</svg>
