<?xml version="1.0" encoding="UTF-8"?>
<svg xmlns="http://www.w3.org/2000/svg" width="54.708" height="60.787" viewBox="0 0 54.708 60.787">
  <g id="清除" transform="translate(-128 -85.333)">
    <path id="路径_1035" d="M287.913,321.4l4.559-44.07H256l4.559,44.07Z" transform="translate(-118.882 -178.323)" fill="#555"></path>
    <path id="路径_1036" d="M214.106,235.67a3.039,3.039,0,0,1,2.257-1h36.472a3.039,3.039,0,0,1,3.024,3.352L251.3,282.09a3.039,3.039,0,0,1-3.024,2.726H220.921a3.039,3.039,0,0,1-3.024-2.726l-4.559-44.07a3.039,3.039,0,0,1,.767-2.348Zm5.627,5.076,3.93,37.992h21.871l3.93-37.992Z" transform="translate(-79.244 -138.696)" fill="#555"></path>
    <path id="路径_1037" d="M128,234.667h54.708v6.079H128Z" transform="translate(0 -138.696)" fill="#555"></path>
    <path id="路径_1038" d="M280.487,87.537a3.039,3.039,0,0,1,2.922-2.2h21.275a3.039,3.039,0,0,1,2.922,2.2l3.039,10.637a3.039,3.039,0,0,1-2.922,3.875H280.37a3.039,3.039,0,0,1-2.922-3.875l3.039-10.638Zm5.215,3.875-1.3,4.559h19.3l-1.3-4.559H285.7Z" transform="translate(-138.693 0)" fill="#555"></path>
    <path id="路径_1039" d="M469.333,466.236V448h6.079v18.236Z" transform="translate(-317.018 -336.832)" fill="#fff"></path>
  </g>
</svg>
