<?xml version="1.0" encoding="UTF-8"?>
<svg xmlns="http://www.w3.org/2000/svg" width="54.576" height="57.026" viewBox="0 0 54.576 57.026">
  <g id="点赞" transform="translate(-128 -85.333)">
    <path id="路径_1077" d="M348.836,128c-1.5,6-7.5,21.01-7.5,21.01v30.014h24.254A6,6,0,0,0,371.254,175l6.3-18.008a6,6,0,0,0-5.667-7.985H356.34V134c0-4.5-3-6-7.5-6Z" transform="translate(-198.326 -39.665)" fill="#555"></path>
    <path id="路径_1078" d="M147.6,87.607a3,3,0,0,1,2.911-2.274,12.257,12.257,0,0,1,7.185,1.873,8.315,8.315,0,0,1,3.32,7.131v12.006h12.549a9,9,0,0,1,8.5,11.979l-6.3,18.008a9,9,0,0,1-8.5,6.03H143.007a3,3,0,0,1-3-3V109.344a3,3,0,0,1,.215-1.115l.066-.165q.447-1.124.885-2.251c.585-1.492,1.376-3.542,2.214-5.778,1.7-4.532,3.512-9.622,4.214-12.429Zm-1.591,22.312v26.438h21.253a3,3,0,0,0,2.833-2.011l6.3-18.008a3,3,0,0,0-2.833-3.992h-15.55a3,3,0,0,1-3-3V94.337c0-1.511-.452-1.994-.807-2.248a3.878,3.878,0,0,0-1.481-.564c-.96,3.126-2.419,7.155-3.717,10.619q-1.441,3.837-2.949,7.649l-.05.126ZM128,109.344a3,3,0,0,1,3-3h3a3,3,0,0,1,3,3v30.014a3,3,0,0,1-3,3h-3a3,3,0,0,1-3-3V109.344Z" fill="#555"></path>
  </g>
</svg>
