<?xml version="1.0" encoding="UTF-8"?>
<svg xmlns="http://www.w3.org/2000/svg" width="50.833" height="53.509" viewBox="0 0 50.833 53.509">
  <g id="用户" transform="translate(-106.666 -85.334)">
    <path id="路径_1010" d="M362.737,138.7a10.7,10.7,0,1,1-10.7-10.7A10.7,10.7,0,0,1,362.737,138.7Z" transform="translate(-219.952 -39.991)" fill="#555"></path>
    <path id="路径_1011" d="M312.044,90.685a8.026,8.026,0,1,0,8.026,8.026A8.026,8.026,0,0,0,312.044,90.685Zm-13.377,8.026a13.377,13.377,0,1,1,13.377,13.377A13.377,13.377,0,0,1,298.667,98.711Z" transform="translate(-179.961 0)" fill="#555"></path>
    <path id="路径_1012" d="M149.333,605.359a36.23,36.23,0,0,1,45.483,0v10.7H149.333Z" transform="translate(-39.991 -479.894)" fill="#555"></path>
    <path id="路径_1013" d="M112.017,566.666V573.4h40.132v-6.729q-.251-.184-.506-.362a34.485,34.485,0,0,0-4.3-2.559,33.121,33.121,0,0,0-30.528,0,34.469,34.469,0,0,0-4.8,2.923Zm42.807-1.3,1.764-2.012a2.675,2.675,0,0,1,.911,2.012v10.7a2.675,2.675,0,0,1-2.675,2.675H109.342a2.675,2.675,0,0,1-2.675-2.675v-10.7a2.675,2.675,0,0,1,.911-2.012l1.764,2.012q-.886-1-1.763-2.013h0l0,0,.011-.011.032-.027.1-.088q.832-.681,1.712-1.3a39.474,39.474,0,0,1,45.277,0q.88.618,1.712,1.3l.1.088.032.027.011.011,0,0,0,0Z" transform="translate(0 -439.903)" fill="#555"></path>
  </g>
</svg>
