<?xml version="1.0" encoding="UTF-8"?>
<svg xmlns="http://www.w3.org/2000/svg" width="66.377" height="56.419" viewBox="0 0 66.377 56.419">
  <g id="等级" transform="translate(-85.347 -149.333)">
    <path id="路径_1032" d="M157.869,241.782,128,209.286,136.5,192h42.73l8.5,17.286Z" transform="translate(-39.336 -39.348)" fill="#555"></path>
    <path id="路径_1033" d="M94.19,151.187a3.319,3.319,0,0,1,2.98-1.854H139.9a3.319,3.319,0,0,1,2.977,1.854l8.506,17.286a3.319,3.319,0,0,1-.536,3.71l-29.869,32.5a3.319,3.319,0,0,1-4.887,0l-29.869-32.5a3.319,3.319,0,0,1-.534-3.71l8.5-17.286Zm5.045,4.784-6.588,13.393,25.887,28.167,25.888-28.168-6.589-13.391Z" fill="#555"></path>
    <path id="路径_1034" d="M349.979,387.733l8.073,8.881,8.075-8.881,4.912,4.464-10.531,11.583a3.319,3.319,0,0,1-4.912,0L345.067,392.2l4.912-4.464Z" transform="translate(-239.518 -219.856)" fill="#fff"></path>
  </g>
</svg>
