<?xml version="1.0" encoding="UTF-8"?>
<svg xmlns="http://www.w3.org/2000/svg" width="52.417" height="65.521" viewBox="0 0 52.417 65.521">
  <g id="系统监控" transform="translate(-170.667 -85.334)">
    <path id="路径_1061" d="M277.333,853.333h36.036v6.552H277.333Z" transform="translate(-98.476 -709.031)" fill="#555"></path>
    <path id="路径_1062" d="M259.2,150.932A22.932,22.932,0,1,1,236.265,128,22.932,22.932,0,0,1,259.2,150.932Z" transform="translate(-39.39 -39.39)" fill="#555"></path>
    <path id="路径_1063" d="M196.875,91.886a19.656,19.656,0,1,0,19.656,19.656A19.657,19.657,0,0,0,196.875,91.886Zm-26.208,19.656a26.208,26.208,0,1,1,26.208,26.208A26.207,26.207,0,0,1,170.667,111.542Z" fill="#555"></path>
    <path id="路径_1064" d="M475.886,682.667v19.656h-6.552V682.667Z" transform="translate(-275.734 -551.469)" fill="#555"></path>
    <path id="路径_1065" d="M374.133,283.886a4.914,4.914,0,1,0,4.914,4.914A4.914,4.914,0,0,0,374.133,283.886ZM362.667,288.8a11.466,11.466,0,1,1,11.466,11.466A11.466,11.466,0,0,1,362.667,288.8Z" transform="translate(-177.258 -177.257)" fill="#fff"></path>
  </g>
</svg>
