<?xml version="1.0" encoding="UTF-8"?>
<svg xmlns="http://www.w3.org/2000/svg" width="49.535" height="52.142" viewBox="0 0 49.535 52.142">
  <g id="警示灯" transform="translate(-106.667 -64)">
    <path id="路径_1023" d="M256,314.31a15.643,15.643,0,0,1,31.285,0v19.553H256Z" transform="translate(-140.208 -220.328)" fill="#555"></path>
    <path id="路径_1024" d="M213.333,274.25a18.25,18.25,0,1,1,36.5,0V293.8a2.607,2.607,0,0,1-2.607,2.607H215.94a2.607,2.607,0,0,1-2.607-2.607V274.25Zm18.25-13.035a13.035,13.035,0,0,0-13.035,13.035V291.2h26.071V274.25a13.035,13.035,0,0,0-13.035-13.035Z" transform="translate(-100.148 -180.268)" fill="#555"></path>
    <path id="路径_1025" d="M384.743,434.811l-2.884,4.8h7.821l-7.621,12.7-4.471-2.683,2.884-4.8h-7.821l7.621-12.7Z" transform="translate(-249.731 -345.634)" fill="#fff"></path>
    <path id="路径_1026" d="M106.667,110.928H156.2v5.214H106.667ZM134.042,64v7.821h-5.214V64ZM153.37,74.428l-5.53,5.531-3.688-3.688,5.531-5.53Zm-40.186-3.686,5.531,5.53-3.688,3.688-5.53-5.531Z" fill="#555"></path>
  </g>
</svg>
