<?xml version="1.0" encoding="UTF-8"?>
<svg xmlns="http://www.w3.org/2000/svg" width="43.625" height="54.532" viewBox="0 0 43.625 54.532">
  <g id="订阅" transform="translate(-170.667 -85.333)">
    <path id="路径_975" d="M213.333,128H251.5v49.078l-19.086-11.333-19.086,11.333Z" transform="translate(-39.939 -39.94)" fill="#555"></path>
    <path id="路径_976" d="M170.667,88.06a2.727,2.727,0,0,1,2.727-2.727h38.172a2.727,2.727,0,0,1,2.727,2.727v49.078a2.727,2.727,0,0,1-4.118,2.345L192.48,128.978l-17.694,10.505a2.727,2.727,0,0,1-4.118-2.345Zm5.453,2.727v41.561l14.968-8.886a2.727,2.727,0,0,1,2.784,0l14.967,8.886V90.786H176.12Z" transform="translate(0)" fill="#555"></path>
    <path id="路径_977" d="M474.787,298.667v16.359h-5.453V298.667Z" transform="translate(-279.581 -199.701)" fill="#fff"></path>
    <path id="路径_978" d="M384,384h16.359v5.453H384Z" transform="translate(-199.7 -279.581)" fill="#fff"></path>
  </g>
</svg>
