<?xml version="1.0" encoding="UTF-8"?>
<svg xmlns="http://www.w3.org/2000/svg" width="51.383" height="58.47" viewBox="0 0 51.383 58.47">
  <g id="设置" transform="translate(-118.314 -64.001)">
    <path id="路径_954" d="M183.887,106.667,206.8,119.892v26.451l-22.908,13.225-22.906-13.225V119.892Z" transform="translate(-39.883 -39.882)" fill="#555"></path>
    <path id="路径_955" d="M142.613,64.374a2.784,2.784,0,0,1,2.784,0L168.3,77.6a2.784,2.784,0,0,1,1.392,2.411v26.451a2.784,2.784,0,0,1-1.392,2.411L145.4,122.1a2.784,2.784,0,0,1-2.784,0l-22.906-13.225a2.784,2.784,0,0,1-1.392-2.411V80.011a2.784,2.784,0,0,1,1.392-2.411Zm-18.73,17.245v23.235L144,116.472l20.124-11.619V81.619L144,70Z" fill="#555"></path>
    <path id="路径_956" d="M437.8,432.235a5.569,5.569,0,1,1-5.569-5.569A5.569,5.569,0,0,1,437.8,432.235Z" transform="translate(-288.23 -338.999)" fill="#fff"></path>
    <path id="路径_957" d="M392.353,389.568a2.784,2.784,0,1,0,2.784,2.784A2.784,2.784,0,0,0,392.353,389.568ZM384,392.353a8.353,8.353,0,1,1,8.353,8.353A8.353,8.353,0,0,1,384,392.353Z" transform="translate(-248.348 -299.117)" fill="#fff"></path>
  </g>
</svg>
