<?xml version="1.0" encoding="UTF-8"?>
<svg xmlns="http://www.w3.org/2000/svg" id="语音" width="64.722" height="64.722" viewBox="0 0 64.722 64.722">
  <path id="路径_1072" d="M64.722,0H0V64.722H64.722Z" fill="rgba(255,255,255,0.01)"></path>
  <path id="路径_1073" d="M152.271,176.542A24.271,24.271,0,1,0,128,152.271,24.271,24.271,0,0,0,152.271,176.542Z" transform="translate(-119.91 -119.91)" fill="#555"></path>
  <path id="路径_1074" d="M85.333,112.3A26.968,26.968,0,1,1,112.3,139.268,26.967,26.967,0,0,1,85.333,112.3ZM112.3,90.727A21.574,21.574,0,1,0,133.875,112.3,21.573,21.573,0,0,0,112.3,90.727Z" transform="translate(-79.94 -79.94)" fill="#555"></path>
  <path id="路径_1075" d="M42.667,344.03a2.7,2.7,0,0,1,2.7-2.7H99.3a2.7,2.7,0,0,1,0,5.394H45.363a2.7,2.7,0,0,1-2.7-2.7Zm0,16.181a2.7,2.7,0,0,1,2.7-2.7H99.3a2.7,2.7,0,1,1,0,5.393H45.363a2.7,2.7,0,0,1-2.7-2.7Z" transform="translate(-39.97 -319.759)" fill="#fff"></path>
  <path id="路径_1076" d="M328.007,54.154a57.362,57.362,0,0,0-2.613,18.178,57.36,57.36,0,0,0,2.613,18.178,16.481,16.481,0,0,0,2.532,4.951c.864,1.045,1.417,1.142,1.6,1.142s.732-.1,1.6-1.142a16.513,16.513,0,0,0,2.532-4.951,57.362,57.362,0,0,0,2.613-18.178,57.36,57.36,0,0,0-2.613-18.178,16.48,16.48,0,0,0-2.532-4.951c-.864-1.045-1.417-1.142-1.6-1.142s-.732.1-1.6,1.142a16.512,16.512,0,0,0-2.532,4.951Zm-1.623-8.39a6.89,6.89,0,0,1,11.5,0,21.722,21.722,0,0,1,3.468,6.607,62.751,62.751,0,0,1,2.915,19.96,62.672,62.672,0,0,1-2.917,19.96,21.691,21.691,0,0,1-3.467,6.607,6.89,6.89,0,0,1-11.5,0,21.722,21.722,0,0,1-3.468-6.607A62.752,62.752,0,0,1,320,72.331a62.672,62.672,0,0,1,2.917-19.96,21.69,21.69,0,0,1,3.467-6.607Z" transform="translate(-299.774 -39.97)" fill="#fff"></path>
</svg>
