<?xml version="1.0" encoding="UTF-8"?>
<svg xmlns="http://www.w3.org/2000/svg" width="58.47" height="61.096" viewBox="0 0 58.47 61.096">
  <g id="踩" transform="translate(-128 -128)">
    <path id="路径_1027" d="M349.372,225.332c-1.608-6.431-8.039-22.509-8.039-22.509V170.667h25.985a6.431,6.431,0,0,1,6.071,4.308l6.752,19.293a6.431,6.431,0,0,1-6.071,8.555h-16.66V218.9c0,4.823-3.216,6.431-8.039,6.431Z" transform="translate(-197.255 -39.451)" fill="#555"></path>
    <path id="路径_1028" d="M149,186.66a3.216,3.216,0,0,0,3.119,2.436,13.131,13.131,0,0,0,7.7-2.007,8.909,8.909,0,0,0,3.556-7.64V166.587h13.444a9.646,9.646,0,0,0,9.1-12.833l-6.753-19.293a9.647,9.647,0,0,0-9.1-6.46H144.078a3.216,3.216,0,0,0-3.216,3.216v32.156a3.216,3.216,0,0,0,.23,1.2l.071.176q.479,1.2.949,2.412c.627,1.6,1.474,3.794,2.371,6.19,1.822,4.855,3.762,10.309,4.515,13.316Zm-1.7-23.9V134.431h22.769a3.216,3.216,0,0,1,3.036,2.154l6.753,19.293a3.216,3.216,0,0,1-3.036,4.277h-16.66a3.216,3.216,0,0,0-3.216,3.216v16.078c0,1.619-.484,2.137-.865,2.408a4.155,4.155,0,0,1-1.587.6c-1.029-3.349-2.592-7.666-3.982-11.377q-1.544-4.111-3.159-8.195ZM128,163.371a3.216,3.216,0,0,0,3.216,3.216h3.216a3.216,3.216,0,0,0,3.216-3.216V131.216A3.216,3.216,0,0,0,134.431,128h-3.216A3.216,3.216,0,0,0,128,131.216v32.156Z" fill="#555"></path>
  </g>
</svg>
