<?xml version="1.0" encoding="UTF-8"?>
<svg xmlns="http://www.w3.org/2000/svg" width="57.235" height="54.297" viewBox="0 0 57.235 54.297">
  <g id="输入" transform="translate(-129.394 -126.074)">
    <path id="路径_1040" d="M217.4,171.332a9.441,9.441,0,0,1-.384,13.336l-23.4,23.136c-5.039,5.041-10.636,8.032-17.565,8.639l-3.983.22.269-3.934a27.656,27.656,0,0,1,8.458-17.746l23.269-23.267a9.44,9.44,0,0,1,13.335-.382Z" transform="translate(-39.493 -39.498)" fill="#555"></path>
    <path id="路径_1041" d="M175.658,134.086a6.261,6.261,0,0,0-8.83.384l-23.267,23.269a24.479,24.479,0,0,0-7.535,15.741l-.021.307.331-.019c6.033-.538,10.945-3.119,15.54-7.712l.013-.013,23.39-23.133a6.259,6.259,0,0,0,.379-8.824Zm-13.336-4.12c4.909-4.909,12.9-5.325,17.84-.384s4.525,12.933-.382,17.839l-.014.014-23.391,23.13c-5.471,5.47-11.735,8.872-19.532,9.553l-.061,0-.043,0-3.983.218a3.186,3.186,0,0,1-3.354-3.4l.271-3.934q0-.03,0-.061a30.839,30.839,0,0,1,9.378-19.72l23.269-23.267Z" fill="#555"></path>
    <path id="路径_1042" d="M251.831,439.285l-4.507,4.5-19.632-19.636,4.5-4.506,19.637,19.639Z" transform="translate(-90.958 -271.656)" fill="#fff"></path>
    <path id="路径_1043" d="M512,610.075h28.67v6.371H512Zm12.742-12.742H540.67V603.7H524.742Z" transform="translate(-354.04 -436.075)" fill="#555"></path>
  </g>
</svg>
