<?xml version="1.0" encoding="UTF-8"?>
<svg xmlns="http://www.w3.org/2000/svg" width="65.951" height="54.622" viewBox="0 0 65.951 54.622">
  <g id="返回" transform="translate(-64.001 -127.998)">
    <path id="路径_948" d="M106.667,194.65l24.661-23.983v13.872l3.591.866a36.607,36.607,0,0,1,24.153,19.2l7.707,15.389-5.128-4.96a36.607,36.607,0,0,0-24.37-10.278l-5.953-.176v13.872Z" transform="translate(-39.583 -39.586)" fill="#555"></path>
    <path id="路径_949" d="M92.945,128.241a3.083,3.083,0,0,1,1.884,2.839v11.444l1.233.3a39.69,39.69,0,0,1,26.184,20.811l7.707,15.39-4.9,3.6-5.128-4.962A33.524,33.524,0,0,0,97.6,168.247l-2.776-.082v10.7a3.083,3.083,0,0,1-5.224,2.22l-24.661-23.8a3.083,3.083,0,0,1-.008-4.428L89.6,128.872a3.083,3.083,0,0,1,3.348-.632ZM71.514,155.056,88.663,171.6V164.99a3.083,3.083,0,0,1,3.174-3.083l5.953.176a39.688,39.688,0,0,1,19.768,5.956l-.823-1.645a33.524,33.524,0,0,0-22.118-17.581l-3.591-.866a3.083,3.083,0,0,1-2.361-2.995v-6.574Z" transform="translate(0 0)" fill="#555"></path>
  </g>
</svg>
