<?xml version="1.0" encoding="UTF-8"?>
<svg xmlns="http://www.w3.org/2000/svg" width="58.47" height="42.622" viewBox="0 0 58.47 42.622">
  <g id="邮件" transform="translate(-29.675 -156.501)">
    <path id="路径_989" d="M128,213.333h46.976V249.87H128Z" transform="translate(-92.311 -53.356)" fill="#555"></path>
    <path id="路径_990" d="M85.333,173.276a2.61,2.61,0,0,1,2.61-2.61h46.976a2.61,2.61,0,0,1,2.61,2.61v36.537a2.61,2.61,0,0,1-2.61,2.61H87.943a2.61,2.61,0,0,1-2.61-2.61Zm5.219,2.61V207.2h41.756V175.886H90.553Z" transform="translate(-52.254 -13.299)" fill="#555"></path>
    <path id="路径_991" d="M32.57,156.5l5.872,3.915.056.039,20.678,14.6,20.647-14.575,5.19-3.891,3.132,4.176-5.22,3.915-.061.044L60.681,180.378a2.61,2.61,0,0,1-3.009,0L35.517,164.739l-5.842-3.9,2.894-4.343Z" transform="translate(0)" fill="#fff"></path>
  </g>
</svg>
