<?xml version="1.0" encoding="UTF-8"?>
<svg xmlns="http://www.w3.org/2000/svg" width="69.908" height="62.919" viewBox="0 0 69.908 62.919">
  <g id="音量减" transform="translate(-85.333 -127.99)">
    <path id="路径_1079" d="M159.459,170.667,140.234,186.4H128v24.468h12.234l19.225,15.729Z" transform="translate(-39.171 -39.181)" fill="#555"></path>
    <path id="路径_1080" d="M121.785,128.328a3.5,3.5,0,0,1,2,3.158v55.926a3.5,3.5,0,0,1-5.71,2.705L99.816,175.179H88.829a3.5,3.5,0,0,1-3.5-3.5V147.216a3.5,3.5,0,0,1,3.5-3.5H99.815l18.258-14.939a3.5,3.5,0,0,1,3.71-.454Zm-4.993,10.533-13.515,11.059a3.5,3.5,0,0,1-2.214.79H92.324v17.477h8.739a3.5,3.5,0,0,1,2.214.79l13.515,11.06Zm13.982,17.092h24.468v6.991H130.773Z" transform="translate(0 0)" fill="#555"></path>
  </g>
</svg>
