<?xml version="1.0" encoding="UTF-8"?>
<svg xmlns="http://www.w3.org/2000/svg" width="69.313" height="62.383" viewBox="0 0 69.313 62.383">
  <g id="音量加" transform="translate(-85.333 -127.99)">
    <path id="路径_1054" d="M159.191,170.667l-19.061,15.6H128v24.259h12.13l19.061,15.6Z" transform="translate(-39.201 -39.21)" fill="#555"></path>
    <path id="路径_1055" d="M121.475,128.325a3.466,3.466,0,0,1,1.981,3.131v55.45a3.466,3.466,0,0,1-5.661,2.682l-18.1-14.812H88.8a3.466,3.466,0,0,1-3.466-3.466V147.052a3.466,3.466,0,0,1,3.466-3.466H99.691l18.1-14.812a3.466,3.466,0,0,1,3.679-.451Zm-4.951,10.444-13.4,10.965a3.466,3.466,0,0,1-2.2.783H92.265v17.328h8.664a3.466,3.466,0,0,1,2.2.783l13.4,10.965Zm13.863,16.947h24.259v6.931H130.386Z" transform="translate(0 0)" fill="#555"></path>
    <path id="路径_1056" d="M753.6,362.667v24.259h-6.931V362.667Z" transform="translate(-607.616 -215.615)" fill="#555"></path>
  </g>
</svg>
