<?xml version="1.0" encoding="UTF-8"?>
<svg xmlns="http://www.w3.org/2000/svg" width="51.458" height="56.137" viewBox="0 0 51.458 56.137">
  <g id="音量小" transform="translate(-128 -127.99)">
    <path id="路径_1087" d="M198.735,170.667,181.582,184.7H170.667v21.831h10.915l17.153,14.034Z" transform="translate(-39.548 -39.557)" fill="#555"></path>
    <path id="路径_1088" d="M160.523,128.292a3.119,3.119,0,0,1,1.782,2.818v49.9a3.119,3.119,0,0,1-5.094,2.414l-16.289-13.329h-9.8A3.119,3.119,0,0,1,128,166.974V145.143a3.119,3.119,0,0,1,3.119-3.119h9.8l16.29-13.329a3.119,3.119,0,0,1,3.31-.405Zm-4.455,9.4-12.058,9.867a3.119,3.119,0,0,1-1.976.7h-7.8v15.593h7.8a3.119,3.119,0,0,1,1.976.7l12.058,9.867Zm15.16,33.022a17.158,17.158,0,0,0,0-29.3l-4.205,4.806a10.915,10.915,0,0,1,0,19.691Z" fill="#555"></path>
  </g>
</svg>
