<?xml version="1.0" encoding="UTF-8"?>
<svg xmlns="http://www.w3.org/2000/svg" width="60.283" height="54.202" viewBox="0 0 60.283 54.202">
  <g id="音量大" transform="translate(-85.333 -127.99)">
    <path id="路径_1084" d="M155.1,170.667l-16.561,13.55H128V205.3h10.539l16.561,13.55Z" transform="translate(-39.656 -39.665)" fill="#555"></path>
    <path id="路径_1085" d="M116.735,128.281A3.011,3.011,0,0,1,118.456,131V179.18a3.011,3.011,0,0,1-4.919,2.331L97.81,168.641H88.344a3.011,3.011,0,0,1-3.011-3.011V144.552a3.011,3.011,0,0,1,3.011-3.011h9.464l15.729-12.87a3.011,3.011,0,0,1,3.2-.391Zm-4.3,9.074-11.643,9.527a3.011,3.011,0,0,1-1.908.681H91.356v15.056h7.528a3.011,3.011,0,0,1,1.908.681l11.643,9.527Zm14.637,31.883a16.566,16.566,0,0,0,0-28.294l-4.061,4.64a10.539,10.539,0,0,1,0,19.012Z" fill="#555"></path>
    <path id="路径_1086" d="M695.363,226.669a27.11,27.11,0,0,0,0-46.893l-4.014,4.7a21.086,21.086,0,0,1,0,37.492l4.014,4.7Z" transform="translate(-563.247 -48.131)" fill="#555"></path>
  </g>
</svg>
