<?xml version="1.0" encoding="UTF-8"?>
<svg xmlns="http://www.w3.org/2000/svg" width="48.555" height="56.647" viewBox="0 0 48.555 56.647">
  <g id="首页" transform="translate(-128 -85.341)">
    <path id="路径_979" d="M170.667,145.534,192.247,128l21.58,17.534v31.022h-43.16Z" transform="translate(-39.969 -39.962)" fill="#555"></path>
    <path id="路径_980" d="M150.577,85.945a2.7,2.7,0,0,1,3.4,0l21.58,17.534a2.7,2.7,0,0,1,1,2.093v31.022a2.7,2.7,0,0,1-2.7,2.7H130.7a2.7,2.7,0,0,1-2.7-2.7V105.572a2.7,2.7,0,0,1,1-2.093l21.581-17.534ZM133.4,106.856V133.9h37.765v-27.04L152.278,91.514Z" fill="#555"></path>
    <path id="路径_981" d="M418.821,682.667v16.185H405.333V682.667h13.488Z" transform="translate(-259.799 -559.561)" fill="#fff"></path>
    <path id="路径_982" d="M362.666,642.7a2.7,2.7,0,0,1,2.7-2.7h13.488a2.7,2.7,0,0,1,2.7,2.7v16.185a2.7,2.7,0,0,1-2.7,2.7H365.364a2.7,2.7,0,0,1-2.7-2.7V642.7Zm5.4,2.7v10.79h8.093V645.4Z" transform="translate(-219.83 -519.592)" fill="#fff"></path>
  </g>
</svg>
