<?xml version="1.0" encoding="UTF-8"?>
<svg xmlns="http://www.w3.org/2000/svg" width="118.188" height="118.188" viewBox="0 0 118.188 118.188">
  <g id="贷款" transform="translate(-32 -32)">
    <path id="路径_673" d="M91.094,91.094,32,91.094A59.094,59.094,0,1,0,91.094,32,59.094,59.094,0,0,0,32,91.094Z" transform="translate(0 0)" fill="#e5f1ff"></path>
    <path id="路径_674" d="M326.8,250m-26,0a26,26,0,1,0,26-26A26,26,0,0,0,300.8,250Z" transform="translate(-235.707 -168.363)" fill="#a9d2ff"></path>
    <path id="路径_675" d="M442.161,331.688c-.788,0-.788,0-1.576-.788l-7.879-11.031c-.788-.788,0-1.576,0-2.364.788-.788,1.576,0,2.364,0l7.879,11.031c.788.788,0,1.576,0,2.364A.772.772,0,0,1,442.161,331.688Z" transform="translate(-351.067 -250.049)" fill="#fff"></path>
    <path id="路径_676" d="M500.776,350.556a1.7,1.7,0,0,1-1.576-1.576V333.222l8.667-11.031c0-.788,1.576-.788,1.576,0a1.477,1.477,0,0,1,0,2.364L501.564,334.8V348.98C502.352,349.768,501.564,350.556,500.776,350.556Z" transform="translate(-409.682 -253.947)" fill="#fff"></path>
    <path id="路径_677" d="M467.007,412.752H455.976a1.576,1.576,0,0,1,0-3.152h11.031a1.576,1.576,0,1,1,0,3.152Zm0,5.515H455.976a1.576,1.576,0,0,1,0-3.152h11.031a1.576,1.576,0,1,1,0,3.152Z" transform="translate(-370.397 -331.113)" fill="#fff"></path>
    <path id="路径_678" d="M294.125,567.14c-1.576-3.152-5.515-3.152-7.879-2.364l-7.091,1.576c0,2.364-.788,3.94-3.152,6.3-4.728,3.94-13.395,4.728-19.7,4.728h-7.091c-1.576,0-2.364-1.576-1.576-2.364,0-1.576,1.576-2.364,2.364-1.576,4.728.788,18.122.788,22.85-3.152,1.576-2.364,2.364-3.152,2.364-4.727A8.511,8.511,0,0,0,269.7,563.2H225.576A1.7,1.7,0,0,0,224,564.776v16.546a1.7,1.7,0,0,0,1.576,1.576c11.819,3.94,26.789,8.667,35.456,8.667h3.152c5.515-.788,24.425-13.395,28.365-16.546,1.576-1.576,2.364-4.728,1.576-7.879Z" transform="translate(-168.362 -465.803)" fill="#72aefd"></path>
  </g>
</svg>
