<?xml version="1.0" encoding="UTF-8"?>
<svg xmlns="http://www.w3.org/2000/svg" width="107.188" height="107.188" viewBox="0 0 107.188 107.188">
  <g id="ETC缴费" transform="translate(-32 -32)">
    <path id="路径_620" d="M85.594,85.594,32,85.594A53.594,53.594,0,1,0,85.594,32,53.594,53.594,0,0,0,32,85.594Z" transform="translate(0 0)" fill="#ffe5cf"></path>
    <path id="路径_621" d="M276.5,308.534h-4.288c-.715,0-1.429.715-2.144.715a43.711,43.711,0,0,0-3.573-8.575c-2.858-7.146-9.29-6.431-9.29-6.431H227.19c-5,0-7.146,5-7.146,5l-2.858,10.719c0-.715-.715-1.429-2.144-1.429h-3.573s-2.144,0-1.429,2.858c0,2.858.715,2.858,1.429,3.573.715,0,2.858.715,3.573.715v.715c-2.858.715-2.858,3.573-3.573,6.431-.715,2.144-2.144,10.719,2.858,14.292v5s0,2.858,2.144,2.858h5.717s2.144,0,2.858-3.573v-2.858H262.2V341.4c.715,3.573,2.858,3.573,2.858,3.573h5.717c2.858,0,2.144-2.858,2.144-2.858v-4.288c5-2.858,3.573-10.719,2.858-15.006-.715-5.717-2.858-5.717-2.858-5.717v-.715c.715,0,2.858-.715,3.573-.715.715-.715,1.429-.715,1.429-3.573C277.925,308.534,276.5,308.534,276.5,308.534Z" transform="translate(-158.031 -232.944)" fill="#ff8746"></path>
    <path id="路径_622" d="M341.563,334.779H296.544a2.1,2.1,0,0,1-2.144-2.144l3.573-9.29a6.155,6.155,0,0,1,5.717-3.573H333.7s4.288-.715,6.431,5l2.144,7.146S343.706,334.779,341.563,334.779Z" transform="translate(-233.102 -255.616)" fill="#ffb791"></path>
    <path id="路径_623" d="M236.8,539.029s0-1.429,2.144-1.429h8.575a3.77,3.77,0,0,1,3.573,2.858l.715,2.858a2.539,2.539,0,0,1-1.429,2.144h-10a3.125,3.125,0,0,1-2.858-2.144l-.715-4.287m62.169,0s0-1.429-2.144-1.429h-7.86a3.77,3.77,0,0,0-3.573,2.858l-.715,2.858a2.539,2.539,0,0,0,1.429,2.144h10a3.125,3.125,0,0,0,2.858-2.144v-4.287" transform="translate(-181.933 -449.148)" fill="#fff"></path>
  </g>
</svg>
