<?xml version="1.0" encoding="UTF-8"?>
<svg xmlns="http://www.w3.org/2000/svg" width="107.188" height="107.188" viewBox="0 0 107.188 107.188">
  <g id="交通罚款" transform="translate(-32 -32)">
    <path id="路径_624" d="M85.594,85.594,32,85.594A53.594,53.594,0,1,0,85.594,32,53.594,53.594,0,0,0,32,85.594Z" transform="translate(0 0)" fill="#fee8eb"></path>
    <path id="路径_625" d="M339.915,229.717A5.636,5.636,0,0,1,345.631,224h26.44a5.636,5.636,0,0,1,5.717,5.717v50.736a5.636,5.636,0,0,1-5.717,5.717H344.917a5.636,5.636,0,0,1-5.717-5.717V229.717Z" transform="translate(-272.9 -170.562)" fill="#ff6b6a"></path>
    <path id="路径_626" d="M426.719,285.919m-10.719,0A10.719,10.719,0,1,0,426.719,275.2,10.719,10.719,0,0,0,416,285.919Z" transform="translate(-341.125 -216.046)" fill="#fff"></path>
    <path id="路径_627" d="M426.719,522.719m-10.719,0A10.719,10.719,0,1,0,426.719,512,10.719,10.719,0,0,0,416,522.719Z" transform="translate(-341.125 -426.406)" fill="#fff"></path>
    <path id="路径_628" d="M486.4,774.4h5.717v13.577H486.4Z" transform="translate(-403.664 -659.508)" fill="#fe5a59"></path>
  </g>
</svg>
