<?xml version="1.0" encoding="UTF-8"?>
<svg xmlns="http://www.w3.org/2000/svg" width="118.188" height="118.188" viewBox="0 0 118.188 118.188">
  <g id="信用卡" transform="translate(-32 -32)">
    <path id="路径_633" d="M91.094,91.094,32,91.094A59.094,59.094,0,1,0,91.094,32,59.094,59.094,0,0,0,32,91.094Z" transform="translate(0 0)" fill="#ffe8cd"></path>
    <path id="路径_634" d="M224,325.515c0-3.152,2.364-5.515,6.3-5.515H289.4c3.152,0,6.3,2.364,6.3,5.515v35.456c0,3.152-2.364,5.515-6.3,5.515H230.3c-3.152,0-6.3-2.364-6.3-5.515V325.515Z" transform="translate(-168.362 -252.544)" fill="#ff9d1c"></path>
    <path id="路径_635" d="M224,390.4h70.913v8.667H224Z" transform="translate(-168.362 -314.277)" fill="#ffca83"></path>
    <path id="路径_636" d="M633.6,585.552a3.389,3.389,0,0,1,3.152-3.152h8.667a3.389,3.389,0,0,1,3.152,3.152V588.7a3.389,3.389,0,0,1-3.152,3.152h-8.667A3.389,3.389,0,0,1,633.6,588.7Z" transform="translate(-527.536 -482.639)" fill="#fff"></path>
  </g>
</svg>
