<?xml version="1.0" encoding="UTF-8"?>
<svg xmlns="http://www.w3.org/2000/svg" width="118.188" height="118.188" viewBox="0 0 118.188 118.188">
  <g id="加油" transform="translate(-81.617 -35.34)">
    <path id="路径_662" d="M91.094,91.094,32,91.094A59.094,59.094,0,1,0,91.094,32,59.094,59.094,0,0,0,32,91.094Z" transform="translate(49.617 3.34)" fill="#fee8eb"></path>
    <g id="组_419" transform="translate(108.08 61.802)">
      <path id="路径_658" d="M112.619,151.867q0-13.472,0-26.949c0-4.486,2.235-6.7,6.755-6.7q14.3-.006,28.6,0c4.376,0,6.632,2.273,6.64,6.687.013,6.6,0,13.2.009,19.8,0,2.963.583,3.563,3.469,3.7,5.04.243,7.713,3,7.734,8.019.021,5.925,0,11.855.013,17.78,0,1.49-.081,3.031,2.086,3.167,3.375.213,4.925-.592,5.2-2.907a26.125,26.125,0,0,0,.077-3.112q.006-12.923,0-25.846c0-2.554-.2-2.775-2.639-3.248a6.326,6.326,0,0,1-5.6-6.436c-.081-1.707-.089-3.422-.021-5.129a7.339,7.339,0,0,0-3.244-6.755,6.73,6.73,0,0,1-2.026-3.056,2.343,2.343,0,0,1,.77-2.039,2.222,2.222,0,0,1,2.018.089c4.491,2.835,8.977,5.683,13.349,8.7,2.379,1.647,3.163,4.21,3.158,7.062q-.032,18.516-.009,37.028c0,2.507.03,5.01-.009,7.517-.043,2.609-1.23,3.827-3.827,3.857-3.482.047-6.964.03-10.45.009-3.1-.017-4.469-1.345-4.491-4.478-.038-6.721-.009-13.442-.021-20.164a10.843,10.843,0,0,0-.158-2,2.537,2.537,0,0,0-2.865-2.252,2.458,2.458,0,0,0-2.477,2.643c-.034,1.83-.026,3.665-.026,5.5,0,5.683.009,11.365,0,17.048-.009,2.852-.873,3.7-3.729,3.708q-17.233.006-34.462,0c-3.056,0-3.8-.728-3.8-3.754q-.026-13.734-.013-27.489Zm21.543-10.454c3.8,0,7.607-.047,11.408.021,1.647.03,2.384-.66,2.384-2.26q-.006-5.351,0-10.705c0-1.609-.8-2.269-2.414-2.26-7.607.038-15.209.009-22.815.021-1.941,0-2.4.455-2.413,2.362-.021,3.512.03,7.019-.021,10.531-.021,1.63.626,2.333,2.29,2.307,3.856-.06,7.722-.017,11.582-.017Zm.009,13.915c2.222,0,4.444.009,6.67,0,2.379-.013,2.669-.3,2.677-2.6,0-.817-.043-1.643.009-2.456.111-1.656-.626-2.316-2.277-2.29-3.976.06-7.956.051-11.931.008-5.091-.051-4.831-.251-4.8,5.1a1.991,1.991,0,0,0,2.286,2.235c2.456-.013,4.912,0,7.368,0Z" transform="translate(-112.617 -118.213)" fill="#ff5c64"></path>
      <rect id="矩形_102" width="29.33" height="15.988" rx="2" transform="translate(6.811 7.545)" fill="#fff"></rect>
    </g>
  </g>
</svg>
