<?xml version="1.0" encoding="UTF-8"?>
<svg xmlns="http://www.w3.org/2000/svg" width="118.188" height="118.188" viewBox="0 0 118.188 118.188">
  <g id="固话宽带" transform="translate(-825 -525)">
    <path id="路径_682" d="M91.094,91.094,32,91.094A59.094,59.094,0,1,0,91.094,32,59.094,59.094,0,0,0,32,91.094Z" transform="translate(793 493)" fill="#e9e8ff"></path>
    <g id="组_425" transform="translate(740.835 466.177)">
      <path id="路径_679" d="M377.451,616.508l-10.743-24.4a4.6,4.6,0,0,0-8.417,0l-10.743,24.4a4.6,4.6,0,0,0,4.2,6.448h21.486a4.6,4.6,0,0,0,4.213-6.448Z" transform="translate(-219.23 -463.431)" fill="#958dff"></path>
      <path id="路径_680" d="M143.572,77.823a38.4,38.4,0,0,0-19.931,71.229l6.13-13.921a23.414,23.414,0,1,1,27.134.323l6.111,13.873a38.393,38.393,0,0,0-19.444-71.5Z" transform="translate(0 0)" fill="#958dff"></path>
      <path id="路径_681" d="M333.49,330.814l1.43-3.25a10.5,10.5,0,0,1,19.223,0l1.589,3.612a17.509,17.509,0,1,0-22.242-.361Z" transform="translate(-201.263 -201.264)" fill="#958dff"></path>
    </g>
  </g>
</svg>
