<?xml version="1.0" encoding="UTF-8"?>
<svg xmlns="http://www.w3.org/2000/svg" width="118.188" height="118.188" viewBox="0 0 118.188 118.188">
  <g id="存单" transform="translate(-32 -32)">
    <path id="路径_669" d="M91.094,91.094,32,91.094A59.094,59.094,0,1,0,91.094,32,59.094,59.094,0,0,0,32,91.094Z" transform="translate(0 0)" fill="#ffe5cf"></path>
    <path id="路径_670" d="M262.4,273.528a5.084,5.084,0,0,1,4.728-4.728h53.578a4.542,4.542,0,0,1,4.728,4.728,5.084,5.084,0,0,1-4.728,4.728H266.34C263.976,278.255,262.4,275.891,262.4,273.528Z" transform="translate(-202.035 -207.647)" fill="#ff8746"></path>
    <path id="路径_671" d="M294.4,307.2v55.154c0,2.364,3.152,3.94,4.728,2.364l3.94-3.94,3.94,3.152a3.579,3.579,0,0,0,3.94,0l3.94-3.94,3.94,3.94a3.579,3.579,0,0,0,3.94,0l3.94-3.94,3.94,3.94a3.579,3.579,0,0,0,3.94,0l3.94-3.94,3.94,3.94c1.576,1.576,4.728.788,4.728-2.364V307.2Z" transform="translate(-230.095 -241.32)" fill="#ff9d68"></path>
    <path id="路径_672" d="M371.2,391.976a1.7,1.7,0,0,1,1.576-1.576h26.789a1.576,1.576,0,1,1,0,3.152H371.988C371.2,393.552,371.2,392.764,371.2,391.976Zm0,8.667a1.7,1.7,0,0,1,1.576-1.576h20.486a1.576,1.576,0,0,1,0,3.152H371.988C371.2,402.219,371.2,401.431,371.2,400.643Zm0,9.455a1.7,1.7,0,0,1,1.576-1.576h32.3a1.576,1.576,0,1,1,0,3.152H371.988C371.2,411.674,371.2,410.886,371.2,410.1Zm0,8.667a1.7,1.7,0,0,1,1.576-1.576h26.789a1.576,1.576,0,1,1,0,3.152H371.988C371.2,420.341,371.2,419.553,371.2,418.765Z" transform="translate(-297.44 -314.277)" fill="#fff"></path>
  </g>
</svg>
