<?xml version="1.0" encoding="UTF-8"?>
<svg xmlns="http://www.w3.org/2000/svg" width="118.188" height="118.188" viewBox="0 0 118.188 118.188">
  <g id="我的钱包" transform="translate(-32 -32)">
    <path id="路径_629" d="M91.094,91.094,32,91.094A59.094,59.094,0,1,0,91.094,32,59.094,59.094,0,0,0,32,91.094Z" transform="translate(0 0)" fill="#fee8eb"></path>
    <path id="路径_630" d="M297.663,275.2c2.364,0,4.728,2.364,4.728,5.515v47.275c0,3.152-2.364,5.515-4.728,5.515H254.328c-2.364,0-4.728-2.364-4.728-5.515V280.715c0-3.152,2.364-5.515,4.728-5.515h43.336" transform="translate(-190.811 -213.259)" fill="#f88"></path>
    <path id="路径_631" d="M314.209,350.328V391.3c0,2.364-2.364,4.728-5.515,4.728H255.115c-3.152,0-5.515-2.364-5.515-4.728V345.6h59.094C311.846,345.6,314.209,347.176,314.209,350.328Z" transform="translate(-190.811 -274.992)" fill="#ff6b6a"></path>
    <path id="路径_632" d="M623.067,480a8.667,8.667,0,0,0,0,17.334H634.1V480Zm0,11.031a3.152,3.152,0,1,1,3.152-3.152A3.389,3.389,0,0,1,623.067,491.031Z" transform="translate(-510.699 -392.846)" fill="#fff"></path>
  </g>
</svg>
