<?xml version="1.0" encoding="UTF-8"?>
<svg xmlns="http://www.w3.org/2000/svg" width="107.188" height="107.188" viewBox="0 0 107.188 107.188">
  <g id="手机充值" transform="translate(-32 -32)">
    <path id="路径_616" d="M85.594,85.594,32,85.594A53.594,53.594,0,1,0,85.594,32,53.594,53.594,0,0,0,32,85.594Z" transform="translate(0 0)" fill="#ffe8cd"></path>
    <path id="路径_617" d="M342.961,269.113H305.8a4.884,4.884,0,0,1-5-5V209.8a4.884,4.884,0,0,1,5-5h37.158a4.884,4.884,0,0,1,5,5v54.308A4.884,4.884,0,0,1,342.961,269.113Z" transform="translate(-238.787 -153.506)" fill="#ff9d1c"></path>
    <path id="路径_618" d="M389.127,300.988H361.973a3.376,3.376,0,0,1-3.573-3.573V265.973a3.376,3.376,0,0,1,3.573-3.573h27.869a3.376,3.376,0,0,1,3.573,3.573v31.442C392.7,299.558,391.271,300.988,389.127,300.988Z" transform="translate(-289.956 -204.675)" fill="#ffca83"></path>
    <path id="路径_619" d="M477.888,663.487m-4.287,0a4.288,4.288,0,1,0,4.287-4.288A4.287,4.287,0,0,0,473.6,663.487Z" transform="translate(-392.294 -557.171)" fill="#fff"></path>
  </g>
</svg>
