<?xml version="1.0" encoding="UTF-8"?>
<svg xmlns="http://www.w3.org/2000/svg" width="107.188" height="107.188" viewBox="0 0 107.188 107.188">
  <g id="水费" transform="translate(-32 -32)">
    <path id="路径_605" d="M85.594,85.594,32,85.594A53.594,53.594,0,1,0,85.594,32,53.594,53.594,0,0,0,32,85.594Z" transform="translate(0 0)" fill="#c8f9e9"></path>
    <path id="路径_606" d="M278.9,179.2c-10.719,11.433-29.3,26.44-29.3,42.875a29.3,29.3,0,1,0,58.6,0C308.2,205.64,290.331,190.633,278.9,179.2Z" transform="translate(-193.304 -130.765)" fill="#36d5a0"></path>
    <path id="路径_607" d="M421.033,457.383c-6.431,0-11.433-5-11.433-12.148,0-6.431,7.146-11.433,11.433-16.435,4.288,5,11.433,10,11.433,16.435S427.465,457.383,421.033,457.383Z" transform="translate(-335.439 -352.496)" fill="#fff"></path>
  </g>
</svg>
