<?xml version="1.0" encoding="UTF-8"?>
<svg xmlns="http://www.w3.org/2000/svg" width="118.188" height="118.188" viewBox="0 0 118.188 118.188">
  <g id="游戏点卡" transform="translate(-32 -32)">
    <path id="路径_637" d="M91.094,91.094,32,91.094A59.094,59.094,0,1,0,91.094,32,59.094,59.094,0,0,0,32,91.094Z" transform="translate(0 0)" fill="#e9e8ff"></path>
    <path id="路径_638" d="M268.621,339.215a12.653,12.653,0,0,1-8.667-3.94l-8.667-11.031H233.165l-4.728,7.879c-2.364,3.94-6.3,7.091-11.031,7.091A12.445,12.445,0,0,1,204.8,326.608v-3.152l3.152-20.486C208.74,294.3,215.043,288,223.71,288c3.94,0,8.667,1.576,11.031,4.728,3.152,0,11.031-.788,15.758,0,3.152-3.152,7.091-3.94,11.031-3.94a15.141,15.141,0,0,1,14.183,10.243v1.576l4.728,22.062c0,.788.788,2.364.788,3.94A12.958,12.958,0,0,1,268.621,339.215Z" transform="translate(-151.526 -224.483)" fill="#8880fe"></path>
    <path id="路径_639" d="M346.4,376.619a2.364,2.364,0,1,1,2.364-2.364A2.516,2.516,0,0,1,346.4,376.619Zm-13.395,0a2.364,2.364,0,1,1,2.364-2.364A2.516,2.516,0,0,1,333.008,376.619Zm6.3,7.091a2.516,2.516,0,0,1-2.364-2.364,2.089,2.089,0,0,1,2.364-2.364,2.364,2.364,0,1,1,0,4.728Zm0-14.183a2.516,2.516,0,0,1-2.364-2.364,2.089,2.089,0,0,1,2.364-2.364,2.364,2.364,0,1,1,0,4.728ZM300.7,371.1h-6.3v3.94h6.3v6.3h3.94v-6.3h6.3V371.1h-6.3v-6.3H300.7Z" transform="translate(-230.095 -291.828)" fill="#fff"></path>
  </g>
</svg>
