<?xml version="1.0" encoding="UTF-8"?>
<svg xmlns="http://www.w3.org/2000/svg" width="107.188" height="107.188" viewBox="0 0 107.188 107.188">
  <g id="燃气费" transform="translate(-32 -32)">
    <path id="路径_613" d="M85.594,85.594,32,85.594A53.594,53.594,0,1,0,85.594,32,53.594,53.594,0,0,0,32,85.594Z" transform="translate(0 0)" fill="#fee8eb"></path>
    <path id="路径_614" d="M305.958,251.869c-6.431-7.146-6.431-15.721-6.431-27.869-20.008,7.86-15.006,29.3-15.721,36.444-5-4.288-6.431-14.292-6.431-14.292-5.717,2.858-8.575,10-8.575,15.721,0,14.292,12.148,26.44,27.154,26.44s27.154-11.433,27.154-26.44c0-8.575-6.431-12.863-6.431-24.3C307.387,240.435,305.958,247.581,305.958,251.869Z" transform="translate(-210.36 -170.563)" fill="#ff6b6a"></path>
    <path id="路径_615" d="M420.319,537.6c9.29,3.573,7.146,13.577,7.146,16.435,2.144-2.144,2.858-6.431,2.858-6.431a8.8,8.8,0,0,1,3.573,7.146,12.148,12.148,0,0,1-24.3,0C410.315,548.319,420.319,543.317,420.319,537.6Z" transform="translate(-335.44 -449.148)" fill="#fff"></path>
  </g>
</svg>
