<?xml version="1.0" encoding="UTF-8"?>
<svg xmlns="http://www.w3.org/2000/svg" width="118.188" height="118.188" viewBox="0 0 118.188 118.188">
  <g id="物业缴费" transform="translate(-1260.126 -297)">
    <g id="组_416" transform="translate(1260.126 297)">
      <path id="路径_605" d="M91.094,91.094,32,91.094A59.094,59.094,0,1,0,91.094,32,59.094,59.094,0,0,0,32,91.094Z" transform="translate(-32 -32)" fill="#c8f9e9"></path>
    </g>
    <path id="路径_656" d="M147.259,109.714a4.438,4.438,0,0,1,3.025,1.185l33.1,30.649a4.454,4.454,0,0,1-3.028,7.722h-5.459v24.4a11.15,11.15,0,0,1-11.138,11.136H130.761a11.15,11.15,0,0,1-11.138-11.136v-24.4h-5.459a4.454,4.454,0,0,1-3.025-7.724L144.232,110.9A4.447,4.447,0,0,1,147.259,109.714Z" transform="translate(1172.334 209.339)" fill="#36d5a0"></path>
    <path id="路径_657" d="M416,411.251v5.213h10.425v7.819h4.344v-7.819h10.425v-5.213H430.769v-3.475h10.425v-5.213h-7.819l7.819-7.819-3.475-4.344-9.557,9.557-8.688-9.557L416,394.744l7.819,7.819H416v5.213h10.425v3.475Z" transform="translate(891.4 -50.398)" fill="#fff"></path>
  </g>
</svg>
