<?xml version="1.0" encoding="UTF-8"?>
<svg xmlns="http://www.w3.org/2000/svg" width="118.188" height="118.188" viewBox="0 0 118.188 118.188">
  <g id="理财" transform="translate(-32 -32)">
    <path id="路径_666" d="M91.094,91.094,32,91.094A59.094,59.094,0,1,0,91.094,32,59.094,59.094,0,0,0,32,91.094Z" transform="translate(0 0)" fill="#fff0c2"></path>
    <path id="路径_667" d="M447.807,262.207m-12.607,0A12.607,12.607,0,1,0,447.807,249.6,12.607,12.607,0,0,0,435.2,262.207Z" transform="translate(-353.561 -190.811)" fill="#ffe085"></path>
    <path id="路径_668" d="M266.873,400.754H265.3c-1.576,0-3.152-3.94-4.728-7.091-1.576.788-5.515,1.576-10.243,1.576h-3.152a53.751,53.751,0,0,0-9.455-.788,6.827,6.827,0,0,1-3.152,5.515c-.788.788-2.364.788-3.94.788s-3.94-.788-4.728-.788-.788-.788-.788-1.576v-7.879c0-3.152-1.576-3.94-1.576-3.94-11.031-4.727-15.758-11.819-16.546-17.334-.788-3.152-.788-4.728,0-5.515a2.9,2.9,0,0,1,2.364-.788h.788c1.576,0,4.728-.788,5.515-3.152s2.364-3.152,3.152-3.94h.788v-1.576c0-3.152-.788-5.515-1.576-6.3v-1.576c0-.788,1.576-.788,2.364-.788,5.515.788,9.455,3.94,11.031,4.728a33.74,33.74,0,0,1,17.334-4.728,38.627,38.627,0,0,1,14.97,2.364c18.122,6.3,16.546,22.062,16.546,22.85,0,5.515-3.152,10.243-5.515,13.395-1.576,2.364-2.364,7.091-3.152,10.243,0,.788,0,2.364-.788,3.152C271.6,399.966,270.024,400.754,266.873,400.754ZM223.537,364.51a1.7,1.7,0,0,0-1.576,1.576,2.516,2.516,0,0,0,2.364,2.364c1.576,0,1.576-.788,1.576-2.364S225.113,364.51,223.537,364.51Z" transform="translate(-152.929 -274.992)" fill="#ffca2e"></path>
  </g>
</svg>
