<?xml version="1.0" encoding="UTF-8"?>
<svg xmlns="http://www.w3.org/2000/svg" width="107.188" height="107.188" viewBox="0 0 107.188 107.188">
  <g id="生活缴费" transform="translate(-32 -32)">
    <path id="路径_602" d="M85.594,85.594,32,85.594A53.594,53.594,0,1,0,85.594,32,53.594,53.594,0,0,0,32,85.594Z" transform="translate(0 0)" fill="#ccdefc"></path>
    <path id="路径_603" d="M312.87,204.234l-20.008-29.3a2.174,2.174,0,0,0-2.858,0l-20.008,28.583c-11.433,16.435-.715,40.731,19.294,41.446h4.288C313.584,244.251,324.3,220.669,312.87,204.234Z" transform="translate(-207.267 -126.501)" fill="#5d9cfa"></path>
    <path id="路径_604" d="M399.061,420.108l-14.292,17.865c-.715.715-1.429,0-1.429-.715l1.429-9.29c0-.715,0-.715-.715-.715H373.336c-.715-.715-.715-1.429,0-1.429l15.006-18.579c.715-.715,1.429,0,1.429.715l-2.858,10c0,.715.715.715,1.429.715h10.719C399.776,418.678,399.776,419.393,399.061,420.108Z" transform="translate(-302.748 -333.085)" fill="#fff"></path>
  </g>
</svg>
