<?xml version="1.0" encoding="UTF-8"?>
<svg xmlns="http://www.w3.org/2000/svg" width="118.188" height="118.188" viewBox="0 0 118.188 118.188">
  <g id="生活消费" transform="translate(-47.906 -525.449)">
    <g id="组_420" transform="translate(-13.329 466.108)">
      <path id="路径_663" d="M120.329,118.435m-59.094,0a59.094,59.094,0,1,0,59.094-59.094,59.094,59.094,0,0,0-59.094,59.094Z" transform="translate(0 0)" fill="#eaadf6"></path>
    </g>
    <g id="组_421" transform="translate(-2 -1)">
      <path id="路径_664" d="M178.968,191.893v3.195h-8.161a7.693,7.693,0,0,0-6.8,11.3c6.161,11.557,16.02,17.94,27.456,17.94.315,0,.638-.02.96-.027a29.7,29.7,0,0,0,16.376,4.9h8.537a29.824,29.824,0,0,0,29.826-29.826v-7.477Zm-5.584,12.383h5.987a29.478,29.478,0,0,0,2.839,8.624,24.31,24.31,0,0,1-8.826-8.624Zm4.45,28.188H248.29S244.9,241,213.062,241,177.833,232.463,177.833,232.463Z" transform="translate(-101.84 382.958)" fill="#c65edb"></path>
      <path id="路径_665" d="M204.431,155.034s-8.671,2.826-8.671,11.658c0,5.946,10.215,11.221,10.383,14.57s-.081,5.691-3.013,7.785c4.356-.839,10.51-4.188,9.94-10.128s-9.919-10.322-10.537-14.007a15.652,15.652,0,0,1,1.9-9.879Zm17.342,0s-8.671,2.826-8.671,11.658c0,5.946,10.215,11.221,10.383,14.57s-.081,5.691-3.013,7.785c4.356-.839,10.51-4.188,9.94-10.128s-9.919-10.322-10.537-14.007a15.652,15.652,0,0,1,1.9-9.879Z" transform="translate(-103.84 383.958)" fill="#fff"></path>
    </g>
  </g>
</svg>
