<?xml version="1.0" encoding="UTF-8"?>
<svg xmlns="http://www.w3.org/2000/svg" width="107.188" height="107.188" viewBox="0 0 107.188 107.188">
  <g id="电费" transform="translate(-32 -32)">
    <path id="路径_608" d="M85.594,85.594,32,85.594A53.594,53.594,0,1,0,85.594,32,53.594,53.594,0,0,0,32,85.594Z" transform="translate(0 0)" fill="#ffe5cf"></path>
    <path id="路径_609" d="M318.7,198.4h-.715c-12.863.715-23.581,11.433-23.581,24.3a22.637,22.637,0,0,0,6.431,16.435l1.429,1.429c2.858,3.573,4.288,4.287,4.288,8.575v2.144h24.3v-2.144c0-4.288,1.429-5.717,4.287-8.575l2.144-2.144a24.972,24.972,0,0,0,5.717-15.721,24.1,24.1,0,0,0-24.3-24.3" transform="translate(-233.102 -147.821)" fill="#ff8746"></path>
    <path id="路径_610" d="M448,763.744a2.282,2.282,0,0,0,2.144,2.144h10a1.9,1.9,0,0,0,2.144-2.144,2.282,2.282,0,0,0-2.144-2.144h-10A1.9,1.9,0,0,0,448,763.744Z" transform="translate(-369.552 -648.138)" fill="#ff9d68"></path>
    <path id="路径_611" d="M398.292,288A14.334,14.334,0,0,0,384,302.292a2.282,2.282,0,0,0,2.144,2.144,3.221,3.221,0,0,0,2.144-2.144,10.22,10.22,0,0,1,10-10,2.144,2.144,0,1,0,0-4.288Z" transform="translate(-312.698 -227.417)" fill="#fff"></path>
    <path id="路径_612" d="M403.2,699.744a2.282,2.282,0,0,0,2.144,2.144h19.294a1.9,1.9,0,0,0,2.144-2.144,2.282,2.282,0,0,0-2.144-2.144H405.344A2.282,2.282,0,0,0,403.2,699.744Z" transform="translate(-329.754 -591.283)" fill="#ff9d68"></path>
  </g>
</svg>
