<?xml version="1.0" encoding="UTF-8"?>
<svg xmlns="http://www.w3.org/2000/svg" width="118.188" height="118.188" viewBox="0 0 118.188 118.188">
  <g id="资金归结" transform="translate(-32 -32)">
    <path id="路径_648" d="M91.094,91.094,32,91.094A59.094,59.094,0,1,0,91.094,32,59.094,59.094,0,0,0,32,91.094Z" transform="translate(0 0)" fill="#fff0c2"></path>
    <path id="路径_649" d="M326.3,305.542a3.389,3.389,0,0,1,3.152-3.152H376.73a3.389,3.389,0,0,1,3.152,3.152v5.515a3.389,3.389,0,0,1-3.152,3.152H329.455a3.389,3.389,0,0,1-3.152-3.152Zm0-17.334a3.389,3.389,0,0,1,3.152-3.152H376.73a3.389,3.389,0,0,1,3.152,3.152v5.515a3.389,3.389,0,0,1-3.152,3.152H329.455a3.389,3.389,0,0,1-3.152-3.152Zm5.515-18.122a3.389,3.389,0,0,1,3.152-3.152h47.275a3.389,3.389,0,0,1,3.152,3.152V275.6a3.389,3.389,0,0,1-3.152,3.152H334.97a3.389,3.389,0,0,1-3.152-3.152ZM320,252.752a2.886,2.886,0,0,1,3.152-3.152h47.275a3.389,3.389,0,0,1,3.152,3.152v5.515a3.389,3.389,0,0,1-3.152,3.152H323.152A3.389,3.389,0,0,1,320,258.267Z" transform="translate(-252.544 -190.811)" fill="#ffe085"></path>
    <path id="路径_650" d="M225.189,372.389m-26.789,0A26.789,26.789,0,1,0,225.189,345.6,26.789,26.789,0,0,0,198.4,372.389Z" transform="translate(-145.914 -274.992)" fill="#f3c02c"></path>
    <path id="路径_651" d="M339.2,475.77v3.94h7.091v6.3h3.94v-6.3h7.091v-3.94h-7.091v-2.364h7.091v-3.94h-5.515l5.515-5.515-2.364-3.152-6.3,7.091-7.091-7.091-2.364,3.152,5.515,5.515H339.2v3.94h7.091v2.364Z" transform="translate(-269.38 -376.01)" fill="#fff"></path>
  </g>
</svg>
