<?xml version="1.0" encoding="UTF-8"?>
<svg xmlns="http://www.w3.org/2000/svg" width="118.188" height="118.188" viewBox="0 0 118.188 118.188">
  <g id="转账汇款" transform="translate(-32 -32)">
    <path id="路径_652" d="M91.094,91.094,32,91.094A59.094,59.094,0,1,0,91.094,32,59.094,59.094,0,0,0,32,91.094Z" transform="translate(0 0)" fill="#ffe5cf"></path>
    <path id="路径_653" d="M262.4,267.443l3.94,29.153c.788,3.152,2.364,3.94,3.94.788l9.455-14.183Zm61.458-6.3-7.091-29.153c-.788-3.152-2.364-3.152-3.94-.788l-7.091,14.183,18.122,15.758Z" transform="translate(-202.035 -173.198)" fill="#ff9d68"></path>
    <path id="路径_654" d="M281.9,281.9m-32.3,0a32.3,32.3,0,1,0,32.3-32.3A32.3,32.3,0,0,0,249.6,281.9Z" transform="translate(-190.811 -190.811)" fill="#ff8746"></path>
    <path id="路径_655" d="M416,409.31v4.728h9.455v7.091h3.94v-7.091h9.455V409.31h-9.455v-3.152h9.455v-4.728h-7.091l7.091-7.091L435.7,390.4l-8.667,8.667-7.879-8.667L416,394.34l7.091,7.091H416v4.728h9.455v3.152Z" transform="translate(-336.725 -314.277)" fill="#fff"></path>
  </g>
</svg>
