<?xml version="1.0" encoding="UTF-8"?>
<svg xmlns="http://www.w3.org/2000/svg" width="118.188" height="118.188" viewBox="0 0 118.188 118.188">
  <g id="通知存单" transform="translate(-32 -32)">
    <path id="路径_644" d="M91.094,91.094,32,91.094A59.094,59.094,0,1,0,91.094,32,59.094,59.094,0,0,0,32,91.094Z" transform="translate(0 0)" fill="#fee8eb"></path>
    <path id="路径_645" d="M340.984,330.258a2.232,2.232,0,0,1-3.94,0l-3.94-3.94-3.94,3.94a2.232,2.232,0,0,1-3.94,0l-3.94-3.94-3.94,3.94a2.232,2.232,0,0,1-3.94,0l-3.94-3.94-3.94,3.94c-1.576,1.576-4.728.788-4.728-2.364V271.952a3.389,3.389,0,0,1,3.152-3.152h47.275a3.389,3.389,0,0,1,3.152,3.152v55.942c0,2.364-3.152,3.94-4.728,2.364l-3.94-3.94Z" transform="translate(-235.707 -207.647)" fill="#ff6b6a"></path>
    <path id="路径_646" d="M416,239.952a3.389,3.389,0,0,1,3.152-3.152h18.122a3.389,3.389,0,0,1,3.152,3.152V243.1a3.389,3.389,0,0,1-3.152,3.152H419.152A3.389,3.389,0,0,1,416,243.1Z" transform="translate(-336.725 -179.587)" fill="#ffa4a5"></path>
    <path id="路径_647" d="M416,409.31v4.727h9.455v7.091h3.94v-7.091h9.455V409.31h-9.455v-3.152h9.455v-4.728h-7.091l7.091-7.091L435.7,390.4l-8.667,8.667-7.879-8.667L416,394.34l7.091,7.091H416v4.728h9.455v3.152Z" transform="translate(-336.725 -314.277)" fill="#fff"></path>
  </g>
</svg>
