<?xml version="1.0" encoding="UTF-8"?>
<svg xmlns="http://www.w3.org/2000/svg" width="107.188" height="107.188" viewBox="0 0 107.188 107.188">
  <g id="随意存" transform="translate(-32 -32)">
    <path id="路径_640" d="M85.594,85.594,32,85.594A53.594,53.594,0,1,0,85.594,32,53.594,53.594,0,0,0,32,85.594Z" transform="translate(0)" fill="#e9e8ff"></path>
    <path id="路径_641" d="M393.29,258.89l25.725-9.29,5,9.29Zm-9.29,0,10.719-9.29,4.288,5.717-7.146,3.573Z" transform="translate(-312.698 -193.304)" fill="#c6c9ff"></path>
    <path id="路径_642" d="M255.317,379.963a6.148,6.148,0,0,1-5.717-5.717V338.517a6.148,6.148,0,0,1,5.717-5.717h47.877a6.148,6.148,0,0,1,5.717,5.717v35.015a6.148,6.148,0,0,1-5.717,5.717Z" transform="translate(-193.304 -267.215)" fill="#8880fe"></path>
    <path id="路径_643" d="M664.948,499.977h-6.431a5.636,5.636,0,0,1-5.717-5.717v-2.144a6.148,6.148,0,0,1,5.717-5.717h6.431a5.636,5.636,0,0,1,5.717,5.717v2.858c0,2.858-2.144,5-5.717,5Z" transform="translate(-551.485 -403.664)" fill="#fff"></path>
  </g>
</svg>
