<?xml version="1.0" encoding="UTF-8"?>
<svg xmlns="http://www.w3.org/2000/svg" width="93.23" height="86.004" viewBox="0 0 93.23 86.004">
  <g id="组_17" transform="translate(-102.4 -135.99)">
    <path id="路径_38" d="M125.007,207.9a22.545,22.545,0,0,1-7.027-43.987c-.467-5.791.549-18.771,17.256-25.588,9.224-3.764,18.646-2.948,26.52,2.3,5.374,3.577,9.533,9.025,10.783,13.819a25.557,25.557,0,0,1-2.535,51,26.134,26.134,0,0,1-3.511-.239,2.911,2.911,0,1,1,.794-5.768,20.133,20.133,0,0,0,2.716.186,19.733,19.733,0,1,0,0-39.465,2.916,2.916,0,0,1-2.921-2.9c-.012-2.453-2.745-7.894-8.575-11.78-4.4-2.925-11.619-5.61-21.064-1.754-17.1,6.979-13.546,21.009-13.389,21.6a2.9,2.9,0,0,1-.345,2.3,2.938,2.938,0,0,1-1.922,1.317,16.725,16.725,0,1,0,8.564,32.265,2.914,2.914,0,1,1,1.858,5.523A22.638,22.638,0,0,1,125.007,207.9Z" fill="#4d5156"></path>
    <path id="路径_39" d="M415.472,495.14l-11.529-12.169a2.951,2.951,0,0,0-2.15-.924h-.006a2.947,2.947,0,0,0-2.15.93l-11.452,12.169a2.962,2.962,0,0,0,4.311,4.062l6.342-6.739c.012,14.4.018,32.456,0,33.634a2.962,2.962,0,0,0,5.9.509c.03-.243.059-.474.03-34.173l6.413,6.768a2.957,2.957,0,1,0,4.293-4.068Z" transform="translate(-252.663 -307.213)" fill="#4891ff"></path>
  </g>
</svg>
