<?xml version="1.0" encoding="UTF-8"?>
<svg xmlns="http://www.w3.org/2000/svg" width="93.23" height="90.081" viewBox="0 0 93.23 90.081">
  <g id="组_18" transform="translate(-103.526 -125.75)">
    <path id="路径_40" d="M126.133,198.724a22.926,22.926,0,0,1-7.027-44.641c-.467-5.877.549-19.051,17.256-25.968,9.224-3.82,18.646-2.992,26.52,2.336,5.374,3.63,9.533,9.159,10.783,14.025a25.938,25.938,0,1,1-6.046,51.511,2.91,2.91,0,0,1-1.929-1.141,2.979,2.979,0,0,1-.565-2.188,2.919,2.919,0,0,1,3.289-2.525,20.01,20.01,0,1,0,2.716-39.863,2.937,2.937,0,0,1-2.921-2.945c-.012-2.489-2.745-8.012-8.575-11.955-4.4-2.968-11.619-5.694-21.064-1.78-17.1,7.083-13.546,21.321-13.389,21.924a2.982,2.982,0,0,1-.345,2.335,2.938,2.938,0,0,1-1.922,1.336,16.992,16.992,0,0,0,3.213,33.631,16.535,16.535,0,0,0,5.345-.881,2.912,2.912,0,0,1,3.7,1.862,2.965,2.965,0,0,1-1.84,3.743,22.491,22.491,0,0,1-7.2,1.182Z" transform="translate(0 0)" fill="#4d5156"></path>
    <path id="路径_41" d="M414.646,521.937a2.781,2.781,0,0,0-3.928.106l-6.017,6.351c.028-33.286,0-33.5-.028-33.731a2.78,2.78,0,0,0-5.534.478c.022,1.217.011,21.418,0,33.225l-5.95-6.323a2.779,2.779,0,1,0-4.045,3.811l10.745,11.418a2.775,2.775,0,0,0,2.017.872h.006a2.769,2.769,0,0,0,2.017-.867l10.818-11.418a2.764,2.764,0,0,0-.1-3.923Z" transform="translate(-251.66 -322.313)" fill="#4891ff"></path>
  </g>
</svg>
