<?xml version="1.0" encoding="UTF-8"?>
<svg xmlns="http://www.w3.org/2000/svg" width="73.95" height="65.834" viewBox="0 0 73.95 65.834">
  <g id="不喜欢" transform="translate(-117.245 -158.223)">
    <path id="路径_793" d="M154.5,224.057a10.423,10.423,0,0,1-6.406-2.339c-4.377-3.428-11.992-10.283-23.645-23.525-.26-.31-.43-.5-.5-.57a23.071,23.071,0,0,1,22.166-38.635,2,2,0,1,1-1,3.867,18.988,18.988,0,0,0-18.3,4.937,19.208,19.208,0,0,0,0,27.033l.64.72c11.413,12.992,18.858,19.7,23.1,22.985,2,1.6,5.057,2.269,7.175.16,8.115-8.075,23.485-23.435,23.915-23.855a19.208,19.208,0,0,0,0-26.983c-7.055-7.105-18.988-7.3-26.573-.44a2.01,2.01,0,0,1-2.678-3c9.154-8.275,23.555-7.995,32.089.58a23.225,23.225,0,0,1,0,32.669l-23.935,23.895a8.455,8.455,0,0,1-6.046,2.5Z" transform="translate(0)" fill="#555"></path>
    <path id="路径_794" d="M487.294,256.99a2.276,2.276,0,0,1-.44,0,2,2,0,0,1-1.509-2.388l3.338-14.92a6.516,6.516,0,0,0,.11-3.5l-3.448-14.671a2,2,0,1,1,3.9-.919l3.458,14.721a10.5,10.5,0,0,1-.18,5.476l-3.278,14.641a2,2,0,0,1-1.949,1.559Z" transform="translate(-333.564 -55.129)" fill="#fc9015"></path>
  </g>
</svg>
