<?xml version="1.0" encoding="UTF-8"?>
<svg xmlns="http://www.w3.org/2000/svg" width="44.574" height="44.574" viewBox="0 0 44.574 44.574">
  <g id="产品6" transform="translate(-34.133 -34.133)">
    <path id="路径_1409" d="M210.992,228.059m-14.725,0a14.725,14.725,0,1,0,14.725-14.725A14.725,14.725,0,0,0,196.267,228.059Z" transform="translate(-154.572 -170.843)" fill="#f57c14" opacity="0.3"></path>
    <path id="路径_1410" d="M69.474,52.679a9.273,9.273,0,1,1,9.233-9.313,9.24,9.24,0,0,1-9.233,9.313Zm0-16.158a6.845,6.845,0,1,0,6.845,6.845,6.845,6.845,0,0,0-6.845-6.845Zm0,42.186a9.273,9.273,0,1,1,9.233-9.233A9.24,9.24,0,0,1,69.474,78.707Zm0-16.158a6.845,6.845,0,1,0,6.845,6.845,6.845,6.845,0,0,0-6.845-6.845Zm-26.107-9.87A9.273,9.273,0,1,1,52.6,43.366,9.308,9.308,0,0,1,43.366,52.679Zm0-16.158a6.845,6.845,0,1,0,6.845,6.845,6.9,6.9,0,0,0-6.845-6.845Zm0,42.186a9.233,9.233,0,1,1,9.313-9.233A9.24,9.24,0,0,1,43.366,78.707Zm0-16.158a6.845,6.845,0,0,0-6.845,6.845,6.845,6.845,0,1,0,6.845-6.845Z" fill="#555"></path>
  </g>
</svg>
