<?xml version="1.0" encoding="UTF-8"?>
<svg xmlns="http://www.w3.org/2000/svg" width="45.838" height="41.418" viewBox="0 0 45.838 41.418">
  <g id="产品3" transform="translate(-34.133 -80.213)">
    <path id="路径_1398" d="M213.579,399.953h-31.1a3.284,3.284,0,0,1-3.274-3.274V377.034a3.284,3.284,0,0,1,3.274-3.274h31.1a3.284,3.284,0,0,1,3.274,3.274v19.645A3.284,3.284,0,0,1,213.579,399.953Z" transform="translate(-138.109 -279.467)" fill="#f57c14" opacity="0.3"></path>
    <path id="路径_1399" d="M75.47,245.118H38.635a4.542,4.542,0,0,1-4.5-4.5V214.423a4.542,4.542,0,0,1,4.5-4.5H75.47a4.542,4.542,0,0,1,4.5,4.5v26.193A4.542,4.542,0,0,1,75.47,245.118ZM38.635,212.376a2.026,2.026,0,0,0-2.046,2.046v26.193a2.026,2.026,0,0,0,2.046,2.046H75.47a2.026,2.026,0,0,0,2.046-2.046V214.423a2.026,2.026,0,0,0-2.046-2.046Z" transform="translate(0 -123.486)" fill="#555"></path>
    <path id="路径_1400" d="M93.294,87.662H90.838V84.715a2.026,2.026,0,0,0-2.046-2.046H74.058a2.026,2.026,0,0,0-2.046,2.046v2.947H69.556V84.715a4.542,4.542,0,0,1,4.5-4.5H88.792a4.542,4.542,0,0,1,4.5,4.5v2.947ZM97.386,120.4H94.931v-2.21c0-.573-.9-1.228-2.046-1.228H69.965c-1.146,0-2.046.655-2.046,1.228v2.21H65.463v-2.21c0-2.046,1.965-3.683,4.5-3.683H92.884c2.537,0,4.5,1.637,4.5,3.683v2.21ZM87.4,97.648h15.716V100.1H87.4Zm-27.667,0H75.449V100.1H59.733Z" transform="translate(-24.372)" fill="#555"></path>
    <path id="路径_1401" d="M369.016,333.552a7.2,7.2,0,1,1,7.2-7.2A7.214,7.214,0,0,1,369.016,333.552Zm0-11.951a4.748,4.748,0,1,0,4.748,4.748A4.751,4.751,0,0,0,369.016,321.6Z" transform="translate(-311.964 -227.473)" fill="#555"></path>
  </g>
</svg>
