<?xml version="1.0" encoding="UTF-8"?>
<svg xmlns="http://www.w3.org/2000/svg" width="45.945" height="44.574" viewBox="0 0 45.945 44.574">
  <g id="产品5" transform="translate(-100.004 -100.881)">
    <path id="路径_1408" d="M243.035,162.822m-14.342,0a14.342,14.342,0,1,0,14.342-14.342A14.342,14.342,0,0,0,228.693,162.822Z" transform="translate(-111.429 -32.916)" fill="#f57c14" opacity="0.3"></path>
    <path id="路径_1405" d="M138.649,125.214a5.926,5.926,0,0,1-2.484-.545L118.272,116.5a2.618,2.618,0,0,1-.208-4.656l17.891-10.18a5.97,5.97,0,0,1,5.65-.143l17.783,8.973a2.616,2.616,0,0,1,.031,4.656l-18,9.381a5.953,5.953,0,0,1-2.766.682ZM119.879,114.1l17.474,7.976a3.1,3.1,0,0,0,2.741-.071l17.591-9.167-17.369-8.761a3.111,3.111,0,0,0-2.952.074Zm38.22-1.053h0Z" transform="translate(-15.805 0)" fill="#555"></path>
    <path id="路径_1406" d="M123.532,487.82a5.827,5.827,0,0,1-2.415-.525l-19.507-8.836a1.428,1.428,0,0,1,1.179-2.6l19.507,8.836a3,3,0,0,0,2.649-.083l19.638-10.294a1.428,1.428,0,1,1,1.325,2.529L126.27,487.141a5.915,5.915,0,0,1-2.738.679Z" transform="translate(-0.725 -352.46)" fill="#555"></path>
    <path id="路径_1407" d="M122.764,668.863a5.827,5.827,0,0,1-2.415-.525L100.842,659.5a1.428,1.428,0,1,1,1.179-2.6l19.507,8.836a3,3,0,0,0,2.646-.083l19.638-10.294a1.428,1.428,0,1,1,1.325,2.529L125.5,668.184a5.9,5.9,0,0,1-2.735.679Z" transform="translate(0 -523.409)" fill="#555"></path>
  </g>
</svg>
