<?xml version="1.0" encoding="UTF-8"?>
<svg xmlns="http://www.w3.org/2000/svg" width="40.165" height="44.734" viewBox="0 0 40.165 44.734">
  <g id="产品4" transform="translate(-132.24 -354.368)">
    <path id="路径_1403" d="M209.417,279.7s-15.341,7.139-16.575,7.59-.954-2.828-.954-4.651V260.854c0-1.823.44-2.5,1.316-2.957l14.638-7.353c.821,0,2.006,1.232,2.006,3.054l.093,22.7c0,1.906.3,3.395-.525,3.395Z" transform="translate(-39.566 111.363)" fill="#f57c14" opacity="0.3"></path>
    <path id="路径_1404" d="M131.929,84.319a6.727,6.727,0,0,1-2.54-.506L115.356,76.9a2.5,2.5,0,0,1-1.523-2.034,2.458,2.458,0,0,1,1.523-2.134l14.133-7.219a6.061,6.061,0,0,1,2.745-.611,6.727,6.727,0,0,1,2.54.506l14.033,6.914a2.5,2.5,0,0,1,1.523,2.034,2.449,2.449,0,0,1-1.523,2.134l-14.133,7.219A6.075,6.075,0,0,1,131.929,84.319ZM116.373,74.76l14.033,6.914a3.367,3.367,0,0,0,1.523.306,3.84,3.84,0,0,0,1.628-.306l14.233-7.219L133.758,67.54a3.367,3.367,0,0,0-1.523-.306,3.84,3.84,0,0,0-1.628.306Zm12.705,34.874a2.856,2.856,0,0,1-1.523-.406l-12.61-6.608a4.554,4.554,0,0,1-2.645-3.662V81.268a2.109,2.109,0,0,1,2.234-2.134,2.856,2.856,0,0,1,1.523.406l12.515,6.608a4.555,4.555,0,0,1,2.645,3.662V107.5A2.085,2.085,0,0,1,129.078,109.634Zm-.506-2.44a.378.378,0,0,0,.306.1V89.81a2.363,2.363,0,0,0-1.323-1.628l-12.61-6.608a.378.378,0,0,0-.306-.1v17.49a2.376,2.376,0,0,0,1.323,1.628Zm7.219,2.44a2.084,2.084,0,0,1-2.134-2.134V89.81a4.544,4.544,0,0,1,2.645-3.662l12.5-6.608a4.207,4.207,0,0,1,1.523-.406,2.084,2.084,0,0,1,2.134,2.134v17.69a4.544,4.544,0,0,1-2.645,3.662l-12.5,6.608A3.116,3.116,0,0,1,135.792,109.634ZM149.82,81.573l-12.5,6.608a2.376,2.376,0,0,0-1.323,1.628V107.3c.1,0,.205-.1.306-.1l12.5-6.608a2.376,2.376,0,0,0,1.323-1.628V81.473c-.1,0-.2.1-.306.1Zm0,0" transform="translate(19.94 289.468)" fill="#555"></path>
  </g>
</svg>
