<?xml version="1.0" encoding="UTF-8"?>
<svg xmlns="http://www.w3.org/2000/svg" width="47.65" height="48.316" viewBox="0 0 47.65 48.316">
  <g id="产品1" transform="translate(-40.707 -34.134)">
    <path id="路径_1389" d="M225.058,223.749H192.1a2.951,2.951,0,0,1-2.933-3.279l3.192-33.476a2.979,2.979,0,0,1,2.933-2.675h26.574a2.923,2.923,0,0,1,2.933,2.675l3.192,33.476a2.951,2.951,0,0,1-2.933,3.279Z" transform="translate(-140.94 -142.594)" fill="#f57c14" opacity="0.3"></path>
    <path id="路径_1390" d="M83.6,82.45H45.465A5.125,5.125,0,0,1,41.928,80.9a4.661,4.661,0,0,1-1.208-3.624l3.71-38.825a4.777,4.777,0,0,1,4.745-4.314h30.8a4.71,4.71,0,0,1,4.745,4.314l3.624,38.825A4.735,4.735,0,0,1,83.6,82.45ZM49.089,36.722a2.162,2.162,0,0,0-2.157,1.984L43.308,77.532a2.212,2.212,0,0,0,.518,1.639,2.357,2.357,0,0,0,1.639.69H83.6a2.02,2.02,0,0,0,1.553-.69,1.908,1.908,0,0,0,.518-1.639L82.048,38.706a2.083,2.083,0,0,0-2.071-1.984H49.089Z" transform="translate(0)" fill="#555"></path>
    <path id="路径_1391" d="M226.076,243.142m-2.5,0a2.5,2.5,0,1,0,2.5-2.5A2.5,2.5,0,0,0,223.574,243.142Z" transform="translate(-173.622 -196.066)" fill="#555"></path>
    <path id="路径_1392" d="M703.942,243.142m-2.5,0a2.5,2.5,0,1,0,2.5-2.5A2.5,2.5,0,0,0,701.44,243.142Z" transform="translate(-627.33 -196.066)" fill="#555"></path>
    <path id="路径_1393" d="M260.84,279.2a13.385,13.385,0,0,1-13.373-13.373,1.294,1.294,0,1,1,2.588,0,10.785,10.785,0,1,0,21.57,0,1.294,1.294,0,1,1,2.588,0A13.385,13.385,0,0,1,260.84,279.2Z" transform="translate(-196.307 -218.752)" fill="#555"></path>
  </g>
</svg>
