<?xml version="1.0" encoding="UTF-8"?>
<svg xmlns="http://www.w3.org/2000/svg" width="43.216" height="48.316" viewBox="0 0 43.216 48.316">
  <g id="产品2" transform="translate(-83.626 -32)">
    <path id="路径_1394" d="M284.612,201.582l-13.688,7.92a3.031,3.031,0,0,1-3.185,0l-13.6-7.92a3.29,3.29,0,0,1-1.55-2.755V183.073a3.29,3.29,0,0,1,1.55-2.755l13.6-7.92a3.031,3.031,0,0,1,3.185,0l13.774,7.92a3.185,3.185,0,0,1,1.636,2.755l-.086,15.754a3.085,3.085,0,0,1-1.636,2.755Z" transform="translate(-160.439 -132.887)" fill="#f57c14" opacity="0.3"></path>
    <path id="路径_1395" d="M105.148,80.316a5.518,5.518,0,0,1-2.583-.689l-16.356-9.47a5.244,5.244,0,0,1-2.583-4.477V46.743a5.166,5.166,0,0,1,2.583-4.477l16.356-9.556a5.05,5.05,0,0,1,5.165,0l16.529,9.556a5.166,5.166,0,0,1,2.583,4.477l-.086,18.939a4.93,4.93,0,0,1-2.583,4.39l-16.356,9.556a5.859,5.859,0,0,1-2.669.689Zm0-45.626a2.429,2.429,0,0,0-1.291.344L87.5,44.591a2.536,2.536,0,0,0-1.291,2.152V65.682A2.678,2.678,0,0,0,87.5,67.92l16.356,9.47a2.744,2.744,0,0,0,2.583,0L122.8,67.834a2.536,2.536,0,0,0,1.291-2.152l.086-18.939a2.569,2.569,0,0,0-1.291-2.238l-16.443-9.47a2.242,2.242,0,0,0-1.291-.344Z" fill="#555"></path>
    <path id="路径_1396" d="M237.511,341.447a2.025,2.025,0,0,1-.689-.172l-13.43-7.748a1.255,1.255,0,0,1,1.291-2.152l12.827,7.4,12.827-7.576a1.314,1.314,0,0,1,1.377,2.238L238.2,341.274a1.621,1.621,0,0,1-.689.172Z" transform="translate(-132.105 -283.943)" fill="#555"></path>
    <path id="路径_1397" d="M491.1,503.7a1.324,1.324,0,0,1-1.291-1.291V487.691a1.291,1.291,0,0,1,2.583,0v14.721A1.268,1.268,0,0,1,491.1,503.7Z" transform="translate(-385.698 -431.479)" fill="#555"></path>
  </g>
</svg>
