<?xml version="1.0" encoding="UTF-8"?>
<svg xmlns="http://www.w3.org/2000/svg" width="93.23" height="80.761" viewBox="0 0 93.23 80.761">
  <g id="组_25" transform="translate(-95.078 -155.852)">
    <path id="路径_57" d="M170.288,236.613H113.1a18.044,18.044,0,0,1-18.021-18.021v-5.5a7.663,7.663,0,0,1,4.935-7.127,10.4,10.4,0,0,0,0-19.462,7.656,7.656,0,0,1-4.935-7.121v-5.5a18.043,18.043,0,0,1,18.021-18.02h57.189a18.043,18.043,0,0,1,18.021,18.02v5.255a7.613,7.613,0,0,1-5.243,7.231,10.4,10.4,0,0,0,0,19.753,7.605,7.605,0,0,1,5.243,7.231V218.6a18.042,18.042,0,0,1-18.021,18.015ZM113.1,161.66a12.221,12.221,0,0,0-12.207,12.207v5.5a1.815,1.815,0,0,0,1.174,1.686,16.219,16.219,0,0,1,0,30.344,1.815,1.815,0,0,0-1.174,1.686v5.5A12.221,12.221,0,0,0,113.1,230.8h57.189a12.221,12.221,0,0,0,12.207-12.207v-5.255a1.813,1.813,0,0,0-1.256-1.715,16.214,16.214,0,0,1,0-30.786,1.813,1.813,0,0,0,1.256-1.715v-5.255a12.221,12.221,0,0,0-12.207-12.207H113.1Z" transform="translate(0 0)" fill="#4d5156"></path>
    <path id="路径_58" d="M387.859,398H363.1a2.65,2.65,0,0,1,0-5.3h24.761a2.65,2.65,0,0,1,0,5.3Zm0,20.028H363.1a2.65,2.65,0,0,1,0-5.3h24.761a2.65,2.65,0,0,1,0,5.3Z" transform="translate(-233.786 -208.716)" fill="#4891ff"></path>
  </g>
</svg>
