<?xml version="1.0" encoding="UTF-8"?>
<svg xmlns="http://www.w3.org/2000/svg" width="62.247" height="57.485" viewBox="0 0 62.247 57.485">
  <g id="会员" transform="translate(-127.678 -156.587)">
    <path id="路径_817" d="M385.4,465.124a2.894,2.894,0,0,1-1.417-.371l-3.93-2.151-3.93,2.151a2.928,2.928,0,0,1-3.118-.173,3.058,3.058,0,0,1-1.244-3.023l.76-4.639-3.213-3.274a3.075,3.075,0,0,1-.717-3.144,2.98,2.98,0,0,1,2.384-2.039l4.4-.665,1.987-4.2a2.963,2.963,0,0,1,5.381,0l1.987,4.2,4.4.665a3.006,3.006,0,0,1,2.393,2.039,3.058,3.058,0,0,1-.726,3.144l-3.213,3.274.76,4.639a3.049,3.049,0,0,1-1.244,3.023,3,3,0,0,1-1.693.544Zm-13.121-13.371,3.922,3.991-.864,5.52,4.742-2.591,4.734,2.591-.907-5.52,3.922-3.991-5.407-.864-2.367-4.9-2.349,4.941ZM388.617,451.873ZM379.634,445.075Z" transform="translate(-221.257 -262.186)" fill="#fc9015"></path>
    <path id="路径_818" d="M158.8,161.225l11.074,16.213.155.225.181.2a5.476,5.476,0,0,0,3.956,1.728,5.347,5.347,0,0,0,2.013-.389l.13-.052.13-.06,9.5-4.734L179.721,210.2a.5.5,0,0,1-.492.415H137.465a.492.492,0,0,1-.492-.423L131.5,174.26l9.674,4.8.121.06.13.052a5.347,5.347,0,0,0,2.013.389,5.459,5.459,0,0,0,3.956-1.728l.19-.2.147-.225L158.8,161.225m0-4.639a1.97,1.97,0,0,0-1.443.622l-12.473,18.278a1.978,1.978,0,0,1-1.443.622,2.013,2.013,0,0,1-.734-.138l-12.361-6.15a1.857,1.857,0,0,0-.734-.147,1.978,1.978,0,0,0-1.909,2.3l5.891,38.741a3.956,3.956,0,0,0,3.913,3.36h41.721a3.947,3.947,0,0,0,3.9-3.282L189.9,172.04a1.978,1.978,0,0,0-1.944-2.315,2.013,2.013,0,0,0-.734.138L174.9,175.97a2.012,2.012,0,0,1-.734.138,1.978,1.978,0,0,1-1.443-.622l-12.482-18.278a1.969,1.969,0,0,0-1.443-.622Z" transform="translate(0 0)" fill="#555"></path>
  </g>
</svg>
