<?xml version="1.0" encoding="UTF-8"?>
<svg xmlns="http://www.w3.org/2000/svg" width="93.23" height="74.989" viewBox="0 0 93.23 74.989">
  <g id="组_16" transform="translate(-112.947 -200.858)">
    <path id="路径_36" d="M188.913,275.847h-58.7a17.29,17.29,0,0,1-17.27-17.27V218.128a17.29,17.29,0,0,1,17.27-17.27h58.689a17.29,17.29,0,0,1,17.27,17.27v40.448A17.281,17.281,0,0,1,188.913,275.847Zm-58.7-69.034A11.325,11.325,0,0,0,118.9,218.128v40.448a11.325,11.325,0,0,0,11.315,11.315h58.689a11.325,11.325,0,0,0,11.315-11.315V218.128a11.325,11.325,0,0,0-11.315-11.315Z" fill="#4d5156"></path>
    <path id="路径_37" d="M253.49,353.411a11.558,11.558,0,0,1-6.246-1.834l-27.021-17.293a3.012,3.012,0,0,1-1.311-1.882,3.06,3.06,0,0,1,.381-2.275,2.962,2.962,0,0,1,1.849-1.335,2.915,2.915,0,0,1,2.234.388l27.021,17.3a5.727,5.727,0,0,0,6.352-.109l24.816-17.131a2.928,2.928,0,0,1,4.112.8,3.049,3.049,0,0,1-.788,4.188l-24.816,17.13a11.619,11.619,0,0,1-6.583,2.052Z" transform="translate(-93.412 -113.08)" fill="#4891ff"></path>
  </g>
</svg>
