<?xml version="1.0" encoding="UTF-8"?>
<svg xmlns="http://www.w3.org/2000/svg" width="50.619" height="44.574" viewBox="0 0 50.619 44.574">
  <g id="公告4" transform="translate(-34.133 -90.453)">
    <path id="路径_1426" d="M555.293,313.42H539.5a3.62,3.62,0,0,1-3.609-3.609V292.036a3.62,3.62,0,0,1,3.609-3.609h15.79a3.62,3.62,0,0,1,3.609,3.609v17.775a3.62,3.62,0,0,1-3.609,3.609Z" transform="translate(-475.232 -187.506)" fill="#f57c14" opacity="0.3"></path>
    <path id="路径_1427" d="M61.112,135.027H57.683a3.042,3.042,0,0,1-3.068-3.068v-4.6H37.021a1.536,1.536,0,0,1-.632-.09.331.331,0,0,0-.271-.09,2.979,2.979,0,0,1-1.8-1.8c0-.09-.09-.18-.09-.271a2.784,2.784,0,0,1-.09-.812v-22.2a11.668,11.668,0,0,1,11.64-11.64h27.34a11.668,11.668,0,0,1,11.64,11.64v22.2a3.043,3.043,0,0,1-3.068,3.068l-17.414-.09v4.692a3.179,3.179,0,0,1-3.158,3.068ZM37.2,124.651H55.969A1.388,1.388,0,0,1,57.323,126v5.955a.388.388,0,0,0,.361.361h3.429a.388.388,0,0,0,.361-.361v-6.045a1.892,1.892,0,0,1,.361-.993,1.232,1.232,0,0,1,.993-.361l18.768.09a.388.388,0,0,0,.361-.361v-22.2a8.953,8.953,0,0,0-8.933-8.933H45.773a8.9,8.9,0,0,0-8.933,8.933v22.2l-1.263.632,1.263-.541a.194.194,0,0,0,.18.18v1.353l.18-1.263Z" transform="translate(0 0)" fill="#555"></path>
    <path id="路径_1428" d="M276.655,128.884h-8.933a1.388,1.388,0,0,1-1.353-1.353V102.176a6.883,6.883,0,0,0-2.166-5.143,7.4,7.4,0,0,0-5.143-2.166,1.353,1.353,0,1,1,0-2.707,10.167,10.167,0,0,1,10.106,10.106v24h7.579a1.388,1.388,0,0,1,1.353,1.353,1.338,1.338,0,0,1-1.444,1.263Z" transform="translate(-211.753 -1.617)" fill="#555"></path>
    <path id="路径_1429" d="M148.075,340.627h-8.482a1.353,1.353,0,0,1,0-2.707h8.482a1.353,1.353,0,0,1,0,2.707Zm26.8,4.512a1.388,1.388,0,0,1-1.353-1.353v-3.158H163.144a1.353,1.353,0,1,1,0-2.707h11.73a1.388,1.388,0,0,1,1.353,1.354v4.512A1.388,1.388,0,0,1,174.873,345.138Z" transform="translate(-98.603 -234.383)" fill="#555"></path>
  </g>
</svg>
