<?xml version="1.0" encoding="UTF-8"?>
<svg xmlns="http://www.w3.org/2000/svg" width="44.574" height="44.574" viewBox="0 0 44.574 44.574">
  <g id="公告1" transform="translate(-34.133 -34.133)">
    <path id="路径_1411" d="M241.906,299.933m-13.213,0a13.213,13.213,0,1,0,13.213-13.213,13.213,13.213,0,0,0-13.213,13.213Z" transform="translate(-185.486 -240.807)" fill="#f57c14" opacity="0.3"></path>
    <path id="路径_1412" d="M184.288,57.216a1.224,1.224,0,0,1-1.194-1.194V38.431a1.937,1.937,0,0,0-1.91-1.91H156.191a1.937,1.937,0,0,0-1.91,1.91V56.022a1.194,1.194,0,1,1-2.388,0V38.431a4.28,4.28,0,0,1,4.3-4.3h24.993a4.28,4.28,0,0,1,4.3,4.3V56.022a1.128,1.128,0,0,1-1.194,1.194Z" transform="translate(-112.268)" fill="#555"></path>
    <path id="路径_1413" d="M74.409,461H38.431a4.28,4.28,0,0,1-4.3-4.3V436.328a1.182,1.182,0,0,1,1.592-1.114l20.058,7.323a1.973,1.973,0,0,0,1.353,0l19.979-7.323a1.118,1.118,0,0,1,1.114.159,1.135,1.135,0,0,1,.478.955V456.7a4.28,4.28,0,0,1-4.3,4.3ZM36.521,438.079V456.7a1.937,1.937,0,0,0,1.91,1.91h35.9a1.937,1.937,0,0,0,1.91-1.91V438.079l-18.387,6.766a4.66,4.66,0,0,1-2.945,0Z" transform="translate(0 -382.296)" fill="#555"></path>
    <path id="路径_1414" d="M77.513,159.6a1.224,1.224,0,0,1-1.194-1.194V148.216a.529.529,0,0,0-.318-.4l-4.219-.8a1.171,1.171,0,0,1,.4-2.308l4.219.8a2.739,2.739,0,0,1,2.229,2.706V158.4A1.107,1.107,0,0,1,77.513,159.6Zm-42.186-.876a1.172,1.172,0,0,1-1.194-1.194v-9.313a2.739,2.739,0,0,1,2.229-2.706l4.219-.8a1.171,1.171,0,0,1,.4,2.308l-4.219.8a.677.677,0,0,0-.239.4v9.313A1.172,1.172,0,0,1,35.327,158.722Zm28.814-6.208H63.9l-15.442-3.423a1.268,1.268,0,0,1-.955-1.194v-6.049a1.268,1.268,0,0,1,.955-1.194L63.9,137.63a1.046,1.046,0,0,1,.955.239,1.318,1.318,0,0,1,.4.955V151.24a1.135,1.135,0,0,1-.478.955c-.08.239-.4.318-.637.318Zm-14.248-5.572,13.054,2.865v-9.551L49.893,142.8v4.139Z" transform="translate(0 -98.641)" fill="#555"></path>
    <path id="路径_1415" d="M379.19,353.953a3.193,3.193,0,0,1-1.194-.239c-2.308-.876-2.706-4.139-2.706-4.457a1.2,1.2,0,1,1,2.388-.159c.08.716.478,2.149,1.194,2.467.716.239,1.99-.4,3.5-1.831a1.183,1.183,0,1,1,1.592,1.751C382.214,353.077,380.622,353.953,379.19,353.953Z" transform="translate(-325.237 -299.205)" fill="#555"></path>
  </g>
</svg>
