<?xml version="1.0" encoding="UTF-8"?>
<svg xmlns="http://www.w3.org/2000/svg" width="39.11" height="45.174" viewBox="0 0 39.11 45.174">
  <g id="公告9" transform="translate(-119.332 -72.09)">
    <path id="路径_1447" d="M480.164,504.057m-12.536,0a12.536,12.536,0,1,0,12.536-12.536A12.536,12.536,0,0,0,467.627,504.057Z" transform="translate(-334.887 -399.329)" fill="#f57c14" opacity="0.3"></path>
    <path id="路径_1446" d="M155.577,101.538l-4.155-5.752V90.2a14.2,14.2,0,0,0-8.4-12.855,6.681,6.681,0,0,0-13.053,0,14.206,14.206,0,0,0-8.4,12.855v6.286l-3.474,5.188a4.408,4.408,0,0,0-.233,4.6,4.74,4.74,0,0,0,4.208,2.48h6.893a7.446,7.446,0,0,0,7.366,6.433h1.1a7.443,7.443,0,0,0,7.435-7.435,2.07,2.07,0,0,0-2.067-2.067h-11.83a1.934,1.934,0,0,0-.364.035H122.08a1.687,1.687,0,0,1-1.528-.873,1.407,1.407,0,0,1,.078-1.478l3.73-5.572a1.522,1.522,0,0,0,.256-.845V90.2a11.245,11.245,0,0,1,7.328-10.4,1.52,1.52,0,0,0,.962-1.382,3.61,3.61,0,0,1,7.192,0,1.52,1.52,0,0,0,.962,1.382,11.245,11.245,0,0,1,7.328,10.4V96.28a1.514,1.514,0,0,0,.288.888l4.441,6.149a1.4,1.4,0,0,1,.121,1.5,1.683,1.683,0,0,1-1.541.9h-1.511a1.518,1.518,0,0,0,0,3.037H151.7a4.722,4.722,0,0,0,4.244-2.551,4.4,4.4,0,0,0-.364-4.661Zm-18.139,10.608h-1.1a4.406,4.406,0,0,1-4.284-3.4,1.773,1.773,0,0,0,.2-.028h9.472a4.409,4.409,0,0,1-4.292,3.429Z" transform="translate(2)" fill="#555"></path>
  </g>
</svg>
