<?xml version="1.0" encoding="UTF-8"?>
<svg xmlns="http://www.w3.org/2000/svg" width="39.762" height="46.389" viewBox="0 0 39.762 46.389">
  <g id="公告5" transform="translate(-102.4 -34.133)">
    <path id="路径_1430" d="M430.31,322.208h-17.4a3.323,3.323,0,0,1-3.314-3.314V296.86a3.323,3.323,0,0,1,3.314-3.314h17.4a3.323,3.323,0,0,1,3.314,3.314v22.035a3.323,3.323,0,0,1-3.314,3.314Z" transform="translate(-292.289 -246.822)" fill="#f57c14" opacity="0.3"></path>
    <path id="路径_1431" d="M267.6,210.429H243.406a4.455,4.455,0,0,1-4.473-4.473V175.14a4.455,4.455,0,0,1,4.473-4.473H267.6a4.455,4.455,0,0,1,4.473,4.473v30.816A4.455,4.455,0,0,1,267.6,210.429Zm-24.189-37.277a2.016,2.016,0,0,0-1.988,1.988v30.816a2.016,2.016,0,0,0,1.988,1.988H267.6a2.016,2.016,0,0,0,1.988-1.988V175.14a2.016,2.016,0,0,0-1.988-1.988Z" transform="translate(-129.906 -129.907)" fill="#555"></path>
    <path id="路径_1432" d="M110.187,73.978h-3.314a4.455,4.455,0,0,1-4.473-4.473v-30.9a4.455,4.455,0,0,1,4.473-4.473h24.189a4.455,4.455,0,0,1,4.473,4.473V41.92a1.243,1.243,0,1,1-2.485,0V38.607a1.913,1.913,0,0,0-1.988-1.988H106.874a2.016,2.016,0,0,0-1.988,1.988V69.422a2.016,2.016,0,0,0,1.988,1.988h3.314a1.274,1.274,0,0,1,1.243,1.243,1.29,1.29,0,0,1-1.243,1.325Z" transform="translate(0 0)" fill="#555"></path>
    <path id="路径_1433" d="M432.547,442.805H419.376a1.243,1.243,0,1,1,0-2.485h13.171a1.274,1.274,0,0,1,1.243,1.243A1.22,1.22,0,0,1,432.547,442.805Zm0,8.864H419.376a1.243,1.243,0,1,1,0-2.485h13.171a1.274,1.274,0,0,1,1.243,1.243A1.22,1.22,0,0,1,432.547,451.669Z" transform="translate(-300.408 -386.471)" fill="#555"></path>
  </g>
</svg>
