<?xml version="1.0" encoding="UTF-8"?>
<svg xmlns="http://www.w3.org/2000/svg" width="50.766" height="45.509" viewBox="0 0 50.766 45.509">
  <g id="公告6" transform="translate(-34.133 -83.627)">
    <path id="路径_1434" d="M103.945,324.105m-11.785,0a11.785,11.785,0,1,0,11.785-11.785A11.785,11.785,0,0,0,92.16,324.105Z" transform="translate(-54.944 -216.546)" fill="#f57c14" opacity="0.3"></path>
    <path id="路径_1435" d="M47.278,240.64a2.133,2.133,0,0,1-.725-.181,1.55,1.55,0,0,1-.635-1.179v-4.623h-6.89a4.875,4.875,0,0,1-4.9-4.9V206.282a4.875,4.875,0,0,1,4.9-4.9h34.63a4.875,4.875,0,0,1,4.9,4.9v23.48a4.875,4.875,0,0,1-4.9,4.9H59.516l-11.694,5.8a.666.666,0,0,1-.544.181Zm-8.25-36.624a2.206,2.206,0,0,0-2.176,2.176v23.479a2.206,2.206,0,0,0,2.176,2.176h8.25a1.394,1.394,0,0,1,1.36,1.36v3.807l9.972-4.986a1.31,1.31,0,0,1,.635-.181H73.658a2.206,2.206,0,0,0,2.176-2.176V206.282a2.206,2.206,0,0,0-2.176-2.176H39.028Z" transform="translate(0 -111.505)" fill="#555"></path>
    <path id="路径_1436" d="M241.932,410.613h-22.12a1.36,1.36,0,0,1,0-2.72h22.12a1.36,1.36,0,0,1,0,2.72Zm-8.612,7.8H219.813a1.36,1.36,0,0,1,0-2.72H233.32a1.394,1.394,0,0,1,1.36,1.36,1.335,1.335,0,0,1-1.36,1.36Z" transform="translate(-174.529 -307.042)" fill="#555"></path>
    <path id="路径_1437" d="M193.125,116.987h-2.81a1.36,1.36,0,1,1,0-2.72h2.81a2.206,2.206,0,0,0,2.176-2.176V88.522a2.206,2.206,0,0,0-2.176-2.176H158.5a2.206,2.206,0,0,0-2.176,2.176v2.629a1.394,1.394,0,0,1-1.36,1.36,1.335,1.335,0,0,1-1.36-1.36V88.522a4.875,4.875,0,0,1,4.9-4.9h34.63a4.875,4.875,0,0,1,4.9,4.9V112a4.953,4.953,0,0,1-4.9,4.986Z" transform="translate(-113.121)" fill="#555"></path>
  </g>
</svg>
