<?xml version="1.0" encoding="UTF-8"?>
<svg xmlns="http://www.w3.org/2000/svg" width="50.239" height="42.205" viewBox="0 0 50.239 42.205">
  <g id="公告7" transform="translate(-34.133 -110.174)">
    <path id="路径_1438" d="M176.489,266.942m-12.649,0a12.649,12.649,0,1,0,12.649-12.649,12.649,12.649,0,0,0-12.649,12.649Z" transform="translate(-122.889 -136.543)" fill="#f57c14" opacity="0.3"></path>
    <path id="路径_1439" d="M57.1,152.379a3.593,3.593,0,0,1-2.6-1.077l-9.689-9.689a.814.814,0,0,0-.628-.269h-8.7A1.38,1.38,0,0,1,34.133,140v-17.4a1.38,1.38,0,0,1,1.346-1.346h8.7a.969.969,0,0,0,.628-.269l9.689-9.689a3.57,3.57,0,0,1,4.037-.807,3.68,3.68,0,0,1,2.333,3.409v34.719a3.592,3.592,0,0,1-2.333,3.409,2.841,2.841,0,0,1-1.435.359ZM36.825,138.743h7.356a3.4,3.4,0,0,1,2.512,1.077l9.689,9.689a.868.868,0,0,0,1.077.179.967.967,0,0,0,.628-.987V113.893a1.072,1.072,0,0,0-.628-.987.869.869,0,0,0-1.077.179l-9.689,9.779a3.6,3.6,0,0,1-2.512,1.077H36.825Zm31.04,4.127a1.447,1.447,0,0,1-.807-.269,1.311,1.311,0,0,1-.269-1.884c2.243-2.96,3.947-5.383,3.947-9.42,0-4.216-1.525-6.28-3.678-9.061a1.346,1.346,0,1,1,2.153-1.615c2.243,2.96,4.216,5.562,4.216,10.676,0,5.024-2.153,7.984-4.486,11.035a1.279,1.279,0,0,1-1.077.538Z" fill="#555"></path>
    <path id="路径_1440" d="M779.535,170.4a1.152,1.152,0,0,1-.9-.359,1.3,1.3,0,0,1-.09-1.884c4.216-4.844,8.074-10.317,8.074-17.853s-3.858-13.008-8.074-17.763a1.334,1.334,0,0,1,1.974-1.794c4.575,5.293,8.792,11.214,8.792,19.647s-4.216,14.354-8.792,19.557a1.143,1.143,0,0,1-.987.449Z" transform="translate(-704.942 -19.098)" fill="#555"></path>
  </g>
</svg>
