<?xml version="1.0" encoding="UTF-8"?>
<svg xmlns="http://www.w3.org/2000/svg" width="51.705" height="46.39" viewBox="0 0 51.705 46.39">
  <g id="公告2" transform="translate(-35.135 -84.58)">
    <path id="路径_1416" d="M112.031,284.4m-13.044,0a13.044,13.044,0,1,0,13.044-13.044A13.044,13.044,0,0,0,98.987,284.4Z" transform="translate(-60.391 -176.655)" fill="#f57c14" opacity="0.3"></path>
    <path id="路径_1417" d="M774.669,264.076a1.717,1.717,0,0,1-.648-.185,1.508,1.508,0,0,1-.647-1.85,5.943,5.943,0,0,0,.37-4.533,6.541,6.541,0,0,0-2.961-3.7,1.366,1.366,0,0,1,1.3-2.405,9.038,9.038,0,0,1,3.793,11.934A1.333,1.333,0,0,1,774.669,264.076Z" transform="translate(-695.089 -157.622)" fill="#555"></path>
    <path id="路径_1418" d="M319.588,108.582a1.715,1.715,0,0,1-.648-.185,1.508,1.508,0,0,1-.648-1.85,11.283,11.283,0,0,0,.74-8.141,10.866,10.866,0,0,0-5.366-6.568,1.366,1.366,0,0,1,1.3-2.405,13.988,13.988,0,0,1,5.828,18.41,1.444,1.444,0,0,1-1.2.74ZM313.3,118.943a3.287,3.287,0,0,1-.925-.185,43.078,43.078,0,0,0-11.194-2.775,29.61,29.61,0,0,0-9.344.555c-.74.092-1.3.278-1.758.278a1.391,1.391,0,0,1-.185-2.775,11.606,11.606,0,0,0,1.388-.185,33.869,33.869,0,0,1,10.084-.555,46.622,46.622,0,0,1,11.657,2.868l-8.6-28.679a38.751,38.751,0,0,1-9.991,10.176,22.281,22.281,0,0,1-7.216,3.33,11.338,11.338,0,0,0-1.2.463,1.386,1.386,0,0,1-1.2-2.5,7.365,7.365,0,0,1,1.573-.555,20.51,20.51,0,0,0,6.383-2.96,37.036,37.036,0,0,0,9.529-9.806,2.7,2.7,0,0,1,2.59-1.018,2.588,2.588,0,0,1,2.128,1.85l8.789,29.142a2.7,2.7,0,0,1-.74,2.683,6.9,6.9,0,0,1-1.11.648ZM313.112,116.353Z" transform="translate(-235.383 0)" fill="#555"></path>
    <path id="路径_1419" d="M54.046,381.053a2.971,2.971,0,0,1-2.035-.925l-8.6-10.176a9.607,9.607,0,0,1-7.124-14.062,9.265,9.265,0,0,1,5.736-4.626l7.679-2.22a1.466,1.466,0,0,1,1.758.925l4.533,14.987,6.291,10.362A2.667,2.667,0,0,1,60.8,379.2l-6.013,1.758c-.278,0-.555.092-.74.092Zm-5-28.957-6.291,1.85a6.652,6.652,0,0,0-4.071,3.331,6.728,6.728,0,0,0-.555,5.181,6.841,6.841,0,0,0,6.013,4.811,1.139,1.139,0,0,1,.925.463l8.974,10.454,5.643-1.665L53.4,366.158c-.093-.093-.093-.185-.185-.278L49.05,352.1ZM59.782,376.7ZM59.874,376.52Z" transform="translate(0 -250.083)" fill="#555"></path>
    <path id="路径_1420" d="M176.259,629.923a1.362,1.362,0,0,1-1.3-1.018,1.466,1.466,0,0,1,.925-1.758l10.639-3.33a1.4,1.4,0,1,1,.833,2.683l-10.639,3.33A.833.833,0,0,1,176.259,629.923Z" transform="translate(-132.205 -509.963)" fill="#555"></path>
  </g>
</svg>
