<?xml version="1.0" encoding="UTF-8"?>
<svg xmlns="http://www.w3.org/2000/svg" width="45.889" height="46.946" viewBox="0 0 45.889 46.946">
  <g id="公告10" transform="translate(-1609.102 -361.906)">
    <path id="路径_1449" d="M482.53,506.423m-14.9,0a14.9,14.9,0,1,0,14.9-14.9A14.9,14.9,0,0,0,467.627,506.423Z" transform="translate(1157.557 -112.474)" fill="#f57c14" opacity="0.3"></path>
    <path id="路径_1448" d="M93.632,125a1.538,1.538,0,0,1,1.537,1.5v4.179h9.58a4.141,4.141,0,0,1,4.139,4.143V156.01a4.141,4.141,0,0,1-4.139,4.143H93.626l6.315,5.744.029.027a1.538,1.538,0,0,1-2.1,2.25l-8.819-8.021H82.788l-8.819,8.021a1.538,1.538,0,0,1-2.1-2.25l.029-.027,6.315-5.744H67.139A4.141,4.141,0,0,1,63,156.01V134.824a4.141,4.141,0,0,1,4.139-4.143h9.58V126.5a1.537,1.537,0,0,1,3.075.036v4.142h12.3v-4.142A1.538,1.538,0,0,1,93.632,125Zm11.117,8.758H67.139a1.065,1.065,0,0,0-1.064,1.034V156.01a1.065,1.065,0,0,0,1.033,1.065h37.641a1.065,1.065,0,0,0,1.064-1.034V134.824a1.065,1.065,0,0,0-1.033-1.065h-.031Zm-6.327,14.854a1.539,1.539,0,0,1,.036,3.077H73.526a1.539,1.539,0,0,1-.036-3.077H98.422Zm0-9.469a1.539,1.539,0,0,1,.036,3.077H73.526a1.539,1.539,0,0,1-.036-3.077H98.422Z" transform="translate(1546.102 236.906)" fill="#555"></path>
  </g>
</svg>
