<?xml version="1.0" encoding="UTF-8"?>
<svg xmlns="http://www.w3.org/2000/svg" width="47.497" height="46.39" viewBox="0 0 47.497 46.39">
  <g id="公告3" transform="translate(-34.133 -46.08)">
    <path id="路径_1421" d="M200.714,452.85H167.239a3.409,3.409,0,0,1-3.4-3.4V433.479a3.408,3.408,0,0,1,3.4-3.4h33.475a3.408,3.408,0,0,1,3.4,3.4v15.973A3.408,3.408,0,0,1,200.714,452.85Z" transform="translate(-123.25 -364.884)" fill="#f57c14" opacity="0.3"></path>
    <path id="路径_1422" d="M77.124,366.538h-38.4a4.4,4.4,0,0,1-4.588-4.248V338.755a4.4,4.4,0,0,1,4.588-4.248H77.039a4.4,4.4,0,0,1,4.588,4.248v23.62a4.256,4.256,0,0,1-4.5,4.163Zm-38.4-29.482a1.909,1.909,0,0,0-2.039,1.7v23.62a1.909,1.909,0,0,0,2.039,1.7H77.039a1.909,1.909,0,0,0,2.039-1.7v-23.62a1.909,1.909,0,0,0-2.039-1.7H38.721Z" transform="translate(0 -274.068)" fill="#555"></path>
    <path id="路径_1423" d="M271.641,146.75l1.8-1.8,9.733,9.732-1.8,1.8Zm-13.747,7.97,9.733-9.733,1.8,1.8-9.732,9.732Z" transform="translate(-212.622 -93.946)" fill="#555"></path>
    <path id="路径_1424" d="M439.023,53.727a3.823,3.823,0,1,1,3.823-3.823A3.807,3.807,0,0,1,439.023,53.727Zm0-5.1A1.274,1.274,0,1,0,440.3,49.9,1.307,1.307,0,0,0,439.023,48.629Z" transform="translate(-381.101)" fill="#555"></path>
    <path id="路径_1425" d="M215.671,495.776H185.594a1.274,1.274,0,1,1,0-2.549h30.077a1.274,1.274,0,0,1,0,2.549Zm0,6.8H185.594a1.274,1.274,0,0,1,0-2.549h30.077a1.274,1.274,0,0,1,0,2.549Zm-11.13,6.882H185.594a1.274,1.274,0,1,1,0-2.549h18.947a1.274,1.274,0,1,1,0,2.549Z" transform="translate(-142.71 -424.887)" fill="#555"></path>
  </g>
</svg>
