<?xml version="1.0" encoding="UTF-8"?>
<svg xmlns="http://www.w3.org/2000/svg" width="58.504" height="43.809" viewBox="0 0 58.504 43.809">
  <g id="公告8" transform="translate(-34.133 -185.44)">
    <path id="路径_1441" d="M480.164,504.057m-12.536,0a12.536,12.536,0,1,0,12.536-12.536A12.536,12.536,0,0,0,467.627,504.057Z" transform="translate(-406.958 -287.344)" fill="#f57c14" opacity="0.3"></path>
    <path id="路径_1442" d="M42.282,294.238H35.7a1.607,1.607,0,0,1-1.567-1.567V267.807A1.607,1.607,0,0,1,35.7,266.24h6.582a1.607,1.607,0,0,1,1.567,1.567v24.864a1.607,1.607,0,0,1-1.567,1.567ZM37.267,291.1h3.448v-21.73H37.267V291.1Z" transform="translate(0 -75.854)" fill="#555"></path>
    <path id="路径_1443" d="M173.726,224.548a8.065,8.065,0,0,1-1.567-.209L142.8,216.4a1.538,1.538,0,0,1-1.149-1.463V195.923a1.453,1.453,0,0,1,1.149-1.463l29.252-8.776a5.84,5.84,0,0,1,5.224.94,5.753,5.753,0,0,1,2.4,4.806l.1,27.371a5.889,5.889,0,0,1-2.3,4.7,7.82,7.82,0,0,1-3.761,1.045Zm-28.938-10.865,28.207,7.626a2.5,2.5,0,0,0,2.4-.522,2.725,2.725,0,0,0,1.149-2.194l-.1-27.371a2.92,2.92,0,0,0-1.149-2.3,2.717,2.717,0,0,0-2.507-.418l-28,8.567Z" transform="translate(-100.939)" fill="#555"></path>
    <path id="路径_1444" d="M227.249,674.052a6.561,6.561,0,0,1-1.985-.313,7.772,7.772,0,0,1-5.432-9.4,1.558,1.558,0,1,1,3.03.731,4.536,4.536,0,1,0,8.776,2.3,1.558,1.558,0,0,1,3.03.731,7.679,7.679,0,0,1-3.552,4.7,7.058,7.058,0,0,1-3.865,1.254Z" transform="translate(-174.102 -448.46)" fill="#555"></path>
    <path id="路径_1445" d="M772.726,256.79a1.576,1.576,0,0,1-1.463-.94A1.664,1.664,0,0,1,772,253.76l6.582-3.03a1.565,1.565,0,0,1,1.358,2.821l-6.582,3.03A1.484,1.484,0,0,1,772.726,256.79Zm6.791,24.446a.783.783,0,0,1-.522-.1l-6.791-2.507a1.553,1.553,0,1,1,1.045-2.925l6.791,2.507a1.548,1.548,0,0,1,.94,1.985A1.571,1.571,0,0,1,779.517,281.236Zm3.447-13.581H772.726a1.567,1.567,0,0,1,0-3.134h10.238a1.567,1.567,0,1,1,0,3.134Z" transform="translate(-691.895 -61.18)" fill="#555"></path>
  </g>
</svg>
