<?xml version="1.0" encoding="UTF-8"?>
<svg xmlns="http://www.w3.org/2000/svg" width="68.918" height="63.18" viewBox="0 0 68.918 63.18">
  <g id="出租车" transform="translate(-159.988 -189.654)">
    <path id="路径_828" d="M386.073,319.457H356.564a2.094,2.094,0,0,1-2.088-2.287l1.838-19.046a2.1,2.1,0,0,1,4.177.449l-1.629,16.707h27.211a2.088,2.088,0,1,1,0,4.177Z" transform="translate(-175.441 -96.16)" fill="#fc9015"></path>
    <path id="路径_829" d="M217.284,252.816a11.486,11.486,0,0,1-7.925-3.133,11.674,11.674,0,0,1-3.425-6.39h-22.92a11.674,11.674,0,0,1-3.477,6.38,11.486,11.486,0,0,1-8.708,3.133,11.81,11.81,0,0,1-10.839-11.935V218.348a7.811,7.811,0,0,1,7.8-7.8h2.642a1.911,1.911,0,0,0,1.932-1.869V208.5l.95-11.141a7.8,7.8,0,0,1,7.8-7.706h26.658a7.8,7.8,0,0,1,7.8,7.707l.961,11.318a1.911,1.911,0,0,0,1.932,1.869h2.663a7.81,7.81,0,0,1,7.779,7.8v22.523a11.81,11.81,0,0,1-10.839,11.914Q217.68,252.816,217.284,252.816Zm-38.248-13.7h30.824v2.088a7.455,7.455,0,0,0,7.936,7.414,7.623,7.623,0,0,0,6.933-7.748V218.348a3.634,3.634,0,0,0-3.623-3.623h-2.642a6.1,6.1,0,0,1-6.088-5.994l-.95-11.319a3.623,3.623,0,0,0-3.634-3.623H181.123a3.623,3.623,0,0,0-3.634,3.623v.178l-.95,11.141a6.1,6.1,0,0,1-6.108,5.994h-2.642a3.634,3.634,0,0,0-3.623,3.623v22.523a7.623,7.623,0,0,0,6.933,7.748,7.456,7.456,0,0,0,7.936-7.414Z" transform="translate(0)" fill="#555"></path>
  </g>
</svg>
