<?xml version="1.0" encoding="UTF-8"?>
<svg xmlns="http://www.w3.org/2000/svg" width="62.681" height="58.113" viewBox="0 0 62.681 58.113">
  <g id="分享" transform="translate(-131.925 -148.879)">
    <path id="路径_819" d="M366.688,258.952a1.861,1.861,0,0,1-.884-3.508l21.03-11.259a1.861,1.861,0,0,1,1.759,3.275l-21.03,11.268a1.861,1.861,0,0,1-.875.223Z" transform="translate(-212.568 -86.827)" fill="#fc9015"></path>
    <path id="路径_820" d="M144.917,189.861a13.248,13.248,0,1,1,1.777-.149,12.411,12.411,0,0,1-1.777.149Zm.047-22.332a9.458,9.458,0,0,0-1.247.084,9.286,9.286,0,1,0,1.247-.084Zm40.31,39.463a9.32,9.32,0,1,1,1.256-.084,9.486,9.486,0,0,1-1.256.084Zm0-14.888a6.655,6.655,0,0,0-.744.047,5.583,5.583,0,1,0,5.174,8.924,5.49,5.49,0,0,0,1.1-4.131,5.583,5.583,0,0,0-5.5-4.839Zm-6.6-30.158a6.982,6.982,0,1,1,.893-.121,7.046,7.046,0,0,1-.893.121Zm0-9.305a2.5,2.5,0,0,0-.372,0,2.8,2.8,0,0,0-1.331,5,2.736,2.736,0,0,0,2.066.549,2.785,2.785,0,0,0-.344-5.546Z" fill="#555"></path>
    <path id="路径_821" d="M388.244,547.138a1.861,1.861,0,0,1-.847-.2l-23.235-11.92a1.873,1.873,0,0,1,1.749-3.313l23.142,11.92a1.861,1.861,0,0,1-.81,3.517Z" transform="translate(-211.067 -349.228)" fill="#555"></path>
  </g>
</svg>
