<?xml version="1.0" encoding="UTF-8"?>
<svg xmlns="http://www.w3.org/2000/svg" width="46.206" height="53.092" viewBox="0 0 46.206 53.092">
  <g id="删除" transform="translate(-205.654 -160)">
    <path id="路径_858" d="M412.489,415.348a1.609,1.609,0,0,1-1.609-1.609V389.663a1.609,1.609,0,0,1,3.218,0v24.076a1.609,1.609,0,0,1-1.609,1.609Z" transform="translate(-189.749 -210.855)" fill="#555"></path>
    <path id="路径_859" d="M302.543,370.888H281.4c-4.07,0-7.377-3.033-7.377-6.765V332.275a1.609,1.609,0,0,1,3.218,0v31.847c0,1.939,1.858,3.548,4.159,3.548h21.14c2.293,0,4.159-1.609,4.159-3.548V332.275a1.609,1.609,0,0,1,3.218,0v31.847c0,3.733-3.306,6.765-7.377,6.765Z" transform="translate(-63.217 -157.796)" fill="#555"></path>
    <path id="路径_860" d="M572.063,415.348a1.609,1.609,0,0,1-1.609-1.609V389.663a1.609,1.609,0,1,1,3.218,0v24.076a1.609,1.609,0,0,1-1.609,1.609Z" transform="translate(-337.289 -210.855)" fill="#555"></path>
    <path id="路径_861" d="M377.672,170.1H353.813v-2.051A8.044,8.044,0,0,1,361.857,160h7.771a8.044,8.044,0,0,1,8.044,8.044Zm-20.5-3.218H374.31a4.827,4.827,0,0,0-4.682-3.66h-7.771A4.827,4.827,0,0,0,357.176,166.878Z" transform="translate(-136.986)" fill="#fc9015"></path>
    <path id="路径_862" d="M250.251,254.418H207.262a1.609,1.609,0,0,1,0-3.218h42.988a1.609,1.609,0,1,1,0,3.218Z" transform="translate(0 -84.322)" fill="#555"></path>
  </g>
</svg>
