<?xml version="1.0" encoding="UTF-8"?>
<svg xmlns="http://www.w3.org/2000/svg" width="60.157" height="60.191" viewBox="0 0 60.157 60.191">
  <g id="刷新" transform="translate(-128 -127.555)">
    <path id="路径_878" d="M175.233,377.955h-17.3a1.671,1.671,0,1,1,0-3.342h17.3a1.671,1.671,0,1,1,0,3.342Zm35.091,18.181H193.029a1.671,1.671,0,1,1,0-3.342h17.295a1.671,1.671,0,1,1,0,3.342Z" transform="translate(-26.053 -227.707)" fill="#fc9015"></path>
    <path id="路径_879" d="M158.078,187.746A30.078,30.078,0,0,1,128,157.668a1.671,1.671,0,0,1,3.342,0,26.736,26.736,0,0,0,52.086,8.531,1.671,1.671,0,1,1,3.167,1.061,30.078,30.078,0,0,1-28.516,20.487Zm28.407-28.407a1.671,1.671,0,0,1-1.671-1.671,26.736,26.736,0,0,0-52.077-8.556,1.671,1.671,0,0,1-3.167-1.069,30.078,30.078,0,0,1,58.586,9.625,1.671,1.671,0,0,1-1.671,1.671Z" transform="translate(0 0)" fill="#555"></path>
  </g>
</svg>
