<?xml version="1.0" encoding="UTF-8"?>
<svg xmlns="http://www.w3.org/2000/svg" width="93.23" height="78.827" viewBox="0 0 93.23 78.827">
  <g id="组_27" transform="translate(-88.679 -167.885)">
    <path id="路径_62" d="M171.7,188.106v-3.638a16.6,16.6,0,0,0-16.583-16.583H105.262a16.6,16.6,0,0,0-16.583,16.583v45.662a16.6,16.6,0,0,0,16.583,16.583h49.859A16.6,16.6,0,0,0,171.7,230.129v-3.6a13.23,13.23,0,0,0,10.206-12.86v-12.7a13.23,13.23,0,0,0-10.206-12.86Zm-16.583,53.017H105.262a11.007,11.007,0,0,1-10.994-10.994V184.467a11.007,11.007,0,0,1,10.994-10.993h49.859a11.007,11.007,0,0,1,10.994,10.993v3.292H144.848a13.227,13.227,0,0,0-13.212,13.212v12.7a13.227,13.227,0,0,0,13.212,13.212h21.266v3.253A11.006,11.006,0,0,1,155.121,241.123Zm21.2-27.459a7.633,7.633,0,0,1-7.623,7.623H144.848a7.633,7.633,0,0,1-7.623-7.623v-12.7a7.633,7.633,0,0,1,7.623-7.623H168.7a7.633,7.633,0,0,1,7.623,7.623v12.7Z" transform="translate(0 0)" fill="#4d5156"></path>
    <path id="路径_63" d="M626.883,496.323m-4.138,0a4.138,4.138,0,1,0,4.138-4.138A4.138,4.138,0,0,0,622.745,496.323Z" transform="translate(-475.938 -289.025)" fill="#4891ff"></path>
  </g>
</svg>
