<?xml version="1.0" encoding="UTF-8"?>
<svg xmlns="http://www.w3.org/2000/svg" width="93.229" height="93.229" viewBox="0 0 93.229 93.229">
  <g id="组_2" transform="translate(-131.584 -131.584)">
    <path id="路径_3" d="M178.2,224.813a46.651,46.651,0,0,1-43.716-62.839,3.139,3.139,0,1,1,5.885,2.183,40.325,40.325,0,1,0,19.907-22.109,3.136,3.136,0,0,1-2.792-5.615,46.1,46.1,0,0,1,20.716-4.85,46.615,46.615,0,0,1,0,93.229Z" fill="#4d5156"></path>
    <path id="路径_4" d="M446.093,455.3a9.2,9.2,0,1,1,9.2-9.2,9.213,9.213,0,0,1-9.2,9.2Zm0-12.134a2.93,2.93,0,1,0,2.93,2.93A2.933,2.933,0,0,0,446.093,443.164Z" transform="translate(-267.895 -267.895)" fill="#4891ff"></path>
    <path id="路径_5" d="M233.839,263.823a3.122,3.122,0,0,1-2.089-.8l-30.027-26.871a3.137,3.137,0,1,1,4.185-4.674l30.027,26.871a3.134,3.134,0,0,1-2.1,5.471Z" transform="translate(-60.628 -86.955)" fill="#4891ff"></path>
  </g>
</svg>
