<?xml version="1.0" encoding="UTF-8"?>
<svg xmlns="http://www.w3.org/2000/svg" width="44" height="55.836" viewBox="0 0 44 55.836">
  <g id="商城" transform="translate(-234.617 -160)">
    <path id="路径_865" d="M273.2,333.683H240.036a5.372,5.372,0,0,1-3.9-1.692,5.5,5.5,0,0,1-1.514-4l1.531-34.779A5.423,5.423,0,0,1,241.567,288h30.1a5.423,5.423,0,0,1,5.406,5.211l1.54,34.779a5.5,5.5,0,0,1-1.514,4,5.372,5.372,0,0,1-3.9,1.692Zm-31.632-42.3a2.047,2.047,0,0,0-2.03,1.971l-1.531,34.787a2.056,2.056,0,0,0,.575,1.531,2,2,0,0,0,1.455.626H273.2a2,2,0,0,0,1.455-.626,2.056,2.056,0,0,0,.575-1.531L273.7,293.355a2.047,2.047,0,0,0-2.03-1.971Z" transform="translate(0 -117.847)" fill="#555"></path>
    <path id="路径_866" d="M386.355,173.536H362.667v-1.692a11.844,11.844,0,1,1,23.688,0Zm-20.135-3.384H382.8a8.46,8.46,0,0,0-16.582,0Z" transform="translate(-117.894)" fill="#555"></path>
    <path id="路径_867" d="M374.511,472.2a11.844,11.844,0,0,1-11.844-11.844,1.692,1.692,0,1,1,3.384,0,8.46,8.46,0,1,0,16.92,0,1.692,1.692,0,1,1,3.384,0A11.844,11.844,0,0,1,374.511,472.2Z" transform="translate(-117.894 -274.978)" fill="#fc9015"></path>
  </g>
</svg>
