<?xml version="1.0" encoding="UTF-8"?>
<svg xmlns="http://www.w3.org/2000/svg" width="62.58" height="55.749" viewBox="0 0 62.58 55.749">
  <g id="喜欢" transform="translate(-117.245 -158.033)">
    <path id="路径_901" d="M148.784,213.783a8.824,8.824,0,0,1-5.423-1.98c-3.706-2.9-10.152-8.706-20.017-19.916-.22-.262-.364-.423-.423-.482a19.654,19.654,0,0,1,0-27.632,19.366,19.366,0,0,1,25.61-1.692,19.366,19.366,0,0,1,25.61,1.692,19.662,19.662,0,0,1,0,27.657L153.9,211.667a7.157,7.157,0,0,1-5.119,2.115ZM136.711,161.43a15.923,15.923,0,0,0-11.345,4.729,16.261,16.261,0,0,0,0,22.885l.541.609c9.662,11,15.965,16.675,19.552,19.459,1.692,1.354,4.281,1.921,6.075.135,6.853-6.844,19.865-19.848,20.229-20.2a16.261,16.261,0,0,0,0-22.843,15.982,15.982,0,0,0-22.073-.592,1.692,1.692,0,0,1-2.267,0A15.948,15.948,0,0,0,136.711,161.43Z" transform="translate(0)" fill="#555"></path>
    <path id="路径_902" d="M208.683,259.66a1.69,1.69,0,0,1-1.582-2.3,19.349,19.349,0,0,1,4.391-6.768,19.56,19.56,0,0,1,4.9-3.6,1.693,1.693,0,0,1,1.548,3.012,16.278,16.278,0,0,0-7.682,8.528,1.692,1.692,0,0,1-1.574,1.125Z" transform="translate(-82.624 -81.732)" fill="#fc9015"></path>
  </g>
</svg>
