<?xml version="1.0" encoding="UTF-8"?>
<svg xmlns="http://www.w3.org/2000/svg" width="57.641" height="47.76" viewBox="0 0 57.641 47.76">
  <g id="图片" transform="translate(-138.667 -213.334)">
    <path id="路径_892" d="M283.1,310.195a5.764,5.764,0,1,1,5.764-5.764A5.764,5.764,0,0,1,283.1,310.195Zm0-8.234a2.47,2.47,0,1,0,2.47,2.47A2.47,2.47,0,0,0,283.1,301.96Z" transform="translate(-127.962 -78.745)" fill="#fc9015"></path>
    <path id="路径_893" d="M189.72,261.094H145.254a6.588,6.588,0,0,1-6.588-6.588V219.921a6.588,6.588,0,0,1,6.588-6.588H189.72a6.588,6.588,0,0,1,6.588,6.588v34.585a6.588,6.588,0,0,1-6.588,6.588Zm-44.466-44.466a3.294,3.294,0,0,0-3.294,3.294v34.585a3.294,3.294,0,0,0,3.294,3.294H189.72a3.294,3.294,0,0,0,3.294-3.294V219.921a3.294,3.294,0,0,0-3.294-3.294Z" fill="#555"></path>
    <path id="路径_894" d="M189.72,428.408H145.254a6.588,6.588,0,0,1-6.588-6.588v-5.846a1.647,1.647,0,0,1,.56-1.235l14-12.269a1.647,1.647,0,0,1,2.215,0l10.128,9.47,16.387-16.8a1.647,1.647,0,0,1,2.314-.041L195.8,406.117a1.647,1.647,0,0,1,.511,1.194V421.82a6.588,6.588,0,0,1-6.588,6.588Zm-47.76-11.685v5.1a3.294,3.294,0,0,0,3.294,3.294H189.72a3.294,3.294,0,0,0,3.294-3.294V408.011l-9.881-9.4L166.8,415.43a1.647,1.647,0,0,1-2.306.058l-10.178-9.56Z" transform="translate(0 -167.314)" fill="#555"></path>
  </g>
</svg>
