<?xml version="1.0" encoding="UTF-8"?>
<svg xmlns="http://www.w3.org/2000/svg" width="61.107" height="53.467" viewBox="0 0 61.107 53.467">
  <g id="地图" transform="translate(-127.994 -175.994)">
    <path id="路径_799" d="M151.015,262.873a1.7,1.7,0,0,1-1.2-2.9l25.46-25.46a1.7,1.7,0,0,1,2.393,2.4l-25.46,25.46A1.7,1.7,0,0,1,151.015,262.873ZM196.682,279.1a1.7,1.7,0,0,1-1.2-.5l-24.451-24.45a1.7,1.7,0,0,1,2.393-2.4l24.459,24.459a1.7,1.7,0,0,1-1.205,2.894Z" transform="translate(-19.626 -53.458)" fill="#fc9015"></path>
    <path id="路径_800" d="M530.371,271.3a1.694,1.694,0,0,1-1.2-2.894l24.985-24.985a1.7,1.7,0,0,1,2.393,2.368l-24.96,25.019a1.7,1.7,0,0,1-1.222.492Z" transform="translate(-368.803 -61.735)" fill="#fc9015"></path>
    <path id="路径_801" d="M168.162,229.461a1.7,1.7,0,0,1-.5-.076l-18.807-5.864-18.79,4.243a1.7,1.7,0,0,1-2.071-1.7V182.86a1.7,1.7,0,0,1,1.256-1.638l19.24-5.151a1.7,1.7,0,0,1,1.01,0l18.773,6.688,18.756-4.243a1.7,1.7,0,0,1,2.071,1.723v43.206a1.7,1.7,0,0,1-1.324,1.7l-19.24,4.277a1.8,1.8,0,0,1-.373.042Zm-19.231-9.395a1.7,1.7,0,0,1,.5.076l18.807,5.864,17.466-3.921V182.359l-17.169,3.853a1.7,1.7,0,0,1-.942-.059l-18.739-6.671-17.466,4.685v39.778l17.169-3.836a1.367,1.367,0,0,1,.373-.042Z" transform="translate(0)" fill="#555"></path>
  </g>
</svg>
