<?xml version="1.0" encoding="UTF-8"?>
<svg xmlns="http://www.w3.org/2000/svg" width="62.618" height="54.88" viewBox="0 0 62.618 54.88">
  <g id="天气" transform="translate(-101.313 -128)">
    <path id="路径_889" d="M229.648,164.945a1.626,1.626,0,0,1-1.163-.5,8.943,8.943,0,0,0-6.065-2.691,1.626,1.626,0,0,1-1.358-.813A17.48,17.48,0,0,1,251.583,143.9a1.627,1.627,0,0,1-1.447,2.439h-.415a11.382,11.382,0,0,0-11.382,11.382,10.853,10.853,0,0,0,.138,1.675,1.626,1.626,0,0,1-2.114,1.781,4.317,4.317,0,0,0-1.276-.2,4.065,4.065,0,0,0-3.886,2.8,1.626,1.626,0,0,1-1.171,1.1,1.538,1.538,0,0,1-.382.073Zm-6.147-6.358a12.082,12.082,0,0,1,5.626,2.155,7.268,7.268,0,0,1,5.96-3.065,14.634,14.634,0,0,1,12.12-14.415A14.22,14.22,0,0,0,223.5,158.587Zm12.805-24.9a1.626,1.626,0,0,1-1.626-1.626v-2.439a1.626,1.626,0,1,1,3.252,0v2.439A1.626,1.626,0,0,1,236.306,133.692Zm14.375,5.951a1.626,1.626,0,0,1-1.155-2.772l1.724-1.724a1.627,1.627,0,0,1,2.3,2.3l-1.724,1.724A1.626,1.626,0,0,1,250.681,139.643Z" transform="translate(-108.568)" fill="#fc9015"></path>
    <path id="路径_890" d="M138.016,220.481a1.626,1.626,0,0,1-1.146-.472l-1.724-1.724a1.627,1.627,0,0,1,2.3-2.3l1.724,1.724a1.626,1.626,0,0,1-1.155,2.772Zm-5.951,14.374h-2.439a1.626,1.626,0,0,1,0-3.252h2.439a1.626,1.626,0,0,1,0,3.252Z" transform="translate(-24.652 -80.838)" fill="#fc9015"></path>
    <path id="路径_891" d="M153.349,365.172H113.51a12.2,12.2,0,1,1,7.049-22.147,7.317,7.317,0,0,1,5.96-3.057,14.635,14.635,0,1,1,29.269,0,14.488,14.488,0,0,1-.626,4.22,10.569,10.569,0,0,1-1.813,20.984ZM113.51,344.033a8.943,8.943,0,1,0,0,17.887h39.839a7.317,7.317,0,1,0,0-14.635h-.406a1.626,1.626,0,0,1-1.545-2.342,11.229,11.229,0,0,0,1.138-4.976,11.383,11.383,0,0,0-22.765,0,10.856,10.856,0,0,0,.138,1.675,1.626,1.626,0,0,1-2.114,1.781,4.317,4.317,0,0,0-1.276-.2,4.065,4.065,0,0,0-3.886,2.846,1.624,1.624,0,0,1-2.716.65,8.878,8.878,0,0,0-6.407-2.683Z" transform="translate(0 -182.292)" fill="#555"></path>
  </g>
</svg>
