<?xml version="1.0" encoding="UTF-8"?>
<svg xmlns="http://www.w3.org/2000/svg" width="61.551" height="67.685" viewBox="0 0 61.551 67.685">
  <g id="安全" transform="translate(-191.904 -165.653)">
    <path id="路径_795" d="M222.68,233.338c-4.779,0-14.07-7.9-15.886-9.486a38.663,38.663,0,0,1-13.855-27.8l-1.026-19.66a6.081,6.081,0,0,1,4.994-6.317l24.746-4.328a5.742,5.742,0,0,1,2.051,0l24.736,4.318a6.081,6.081,0,0,1,5,6.328l-1.026,19.66a38.683,38.683,0,0,1-13.876,27.823c-1.866,1.62-11.1,9.466-15.865,9.466Zm0-63.583a1.773,1.773,0,0,0-.328,0L197.626,174.1a1.99,1.99,0,0,0-1.61,2.051l1.025,19.721a34.6,34.6,0,0,0,12.409,24.849c4.707,4.1,11.076,8.512,13.229,8.512s8.522-4.4,13.188-8.471a34.6,34.6,0,0,0,12.45-24.89l1.026-19.66a1.99,1.99,0,0,0-1.61-2.051l-24.726-4.379a1.774,1.774,0,0,0-.328-.031Z" fill="#555"></path>
    <path id="路径_796" d="M390.141,421.453a2.051,2.051,0,0,1-1.467-.595l-7.979-7.979a2.052,2.052,0,1,1,2.9-2.9l6.543,6.543,11.8-11.824a2.052,2.052,0,0,1,2.9,2.9l-13.26,13.26a2.051,2.051,0,0,1-1.446.595Z" transform="translate(-170.097 -215.516)" fill="#fc9015"></path>
  </g>
</svg>
