<?xml version="1.0" encoding="UTF-8"?>
<svg xmlns="http://www.w3.org/2000/svg" width="53.594" height="57.484" viewBox="0 0 53.594 57.484">
  <g id="定位" transform="translate(-181.333 -144)">
    <path id="路径_809" d="M413.977,262.622a8.644,8.644,0,1,1,8.644-8.644A8.644,8.644,0,0,1,413.977,262.622Zm0-13.831a5.187,5.187,0,1,0,5.187,5.187A5.187,5.187,0,0,0,413.977,248.791Z" transform="translate(-205.847 -93.121)" fill="#fc9015"></path>
    <path id="路径_810" d="M311.054,194.137a1.729,1.729,0,0,1-1.392-.709c0-.052-4.089-5.6-8.082-12.154-5.472-8.99-8.247-15.56-8.247-19.553a17.721,17.721,0,1,1,35.442,0c0,3.985-2.775,10.563-8.247,19.553-3.994,6.552-8.039,12.1-8.082,12.154a1.729,1.729,0,0,1-1.392.709Zm0-46.679a14.28,14.28,0,0,0-14.263,14.263c0,6.146,9.284,20.625,14.263,27.713,4.979-7.088,14.263-21.611,14.263-27.713A14.28,14.28,0,0,0,311.054,147.458Z" transform="translate(-102.924 0)" fill="#555"></path>
    <path id="路径_811" d="M208.13,673.454c-12.906,0-26.8-2.706-26.8-8.644,0-3.959,6.051-6.051,11.125-7.166a1.729,1.729,0,1,1,.717,3.38c-6.276,1.34-8.385,3.164-8.385,3.786,0,1.547,7.944,5.187,23.34,5.187s23.339-3.639,23.339-5.187c0-.622-2.083-2.429-8.273-3.76a1.729,1.729,0,1,1,.726-3.38c5.022,1.09,11,3.2,11,7.141C234.928,670.749,221.036,673.454,208.13,673.454Z" transform="translate(0 -471.97)" fill="#555"></path>
  </g>
</svg>
