<?xml version="1.0" encoding="UTF-8"?>
<svg xmlns="http://www.w3.org/2000/svg" width="65.684" height="60.152" viewBox="0 0 65.684 60.152">
  <g id="客服" transform="translate(-96 -138.511)">
    <path id="路径_834" d="M105.836,428.365h-2.448A7.387,7.387,0,0,1,96,420.978V412.72a7.387,7.387,0,0,1,7.387-7.387h2.448a3.813,3.813,0,0,1,3.813,3.813v15.406A3.813,3.813,0,0,1,105.836,428.365Zm-2.448-19.62a3.975,3.975,0,0,0-3.975,3.975v8.257a3.975,3.975,0,0,0,3.975,3.975h2.448a.4.4,0,0,0,.4-.4V409.146a.4.4,0,0,0-.4-.4Zm50.91,19.62h-2.448a3.813,3.813,0,0,1-3.813-3.813V409.146a3.813,3.813,0,0,1,3.813-3.813H154.3a7.387,7.387,0,0,1,7.387,7.387v8.257a7.387,7.387,0,0,1-7.387,7.387Zm-2.448-19.62a.4.4,0,0,0-.4.4v15.406a.4.4,0,0,0,.4.4H154.3a3.975,3.975,0,0,0,3.975-3.975V412.72a3.975,3.975,0,0,0-3.975-3.975Z" transform="translate(0 -245.483)" fill="#555"></path>
    <path id="路径_835" d="M193.5,194.526a1.711,1.711,0,1,1-.256-3.412,24.738,24.738,0,0,0,16.012-9.52,3.8,3.8,0,0,1-.964-2.559V163.663a3.813,3.813,0,0,1,3.813-3.813h1.2a24.738,24.738,0,0,0-47.566,0h.35a3.813,3.813,0,0,1,3.813,3.813v8.13a1.706,1.706,0,1,1-3.412,0v-8.129a.4.4,0,0,0-.4-.4h-2.44l-2.158.085.409-2.116a28.15,28.15,0,0,1,55.26.085l.461,2.406-2.414-.4a3.822,3.822,0,0,0-.657-.06H212.1a.4.4,0,0,0-.4.4v15.406a.409.409,0,0,0,.316.392l2.44.512-1.365,2.056a28.15,28.15,0,0,1-19.3,12.48,1.33,1.33,0,0,1-.29.017Z" transform="translate(-60.256)" fill="#555"></path>
    <path id="路径_836" d="M458.451,772.9a5.118,5.118,0,1,1,5.118-5.118A5.118,5.118,0,0,1,458.451,772.9Zm0-6.824a1.706,1.706,0,1,0,1.706,1.706A1.706,1.706,0,0,0,458.451,766.079Z" transform="translate(-328.756 -574.24)" fill="#fc9015"></path>
  </g>
</svg>
