<?xml version="1.0" encoding="UTF-8"?>
<svg xmlns="http://www.w3.org/2000/svg" width="65.834" height="65.834" viewBox="0 0 65.834 65.834">
  <g id="导航" transform="translate(-128 -128)">
    <path id="路径_797" d="M160.917,193.834a32.917,32.917,0,1,1,32.917-32.917A32.917,32.917,0,0,1,160.917,193.834Zm0-62.177a29.26,29.26,0,1,0,29.26,29.26A29.26,29.26,0,0,0,160.917,131.658Z" fill="#555"></path>
    <path id="路径_798" d="M321.828,352.136a1.829,1.829,0,0,1-1.692-2.524l8.558-20.774a1.829,1.829,0,0,1,1-1l20.774-8.558a1.829,1.829,0,0,1,2.386,2.386l-8.6,20.811a1.828,1.828,0,0,1-1,1l-20.774,8.558A1.71,1.71,0,0,1,321.828,352.136Zm9.921-21.167-6.593,16.01,16.01-6.593,6.593-16.01Z" transform="translate(-175.541 -174.76)" fill="#fc9015"></path>
  </g>
</svg>
