<?xml version="1.0" encoding="UTF-8"?>
<svg xmlns="http://www.w3.org/2000/svg" width="93.23" height="65.143" viewBox="0 0 93.23 65.143">
  <g id="组_19" transform="translate(-85.453 -213.453)">
    <path id="路径_42" d="M144.561,278.6H101.223a15.791,15.791,0,0,1-15.77-15.78V229.233a15.794,15.794,0,0,1,15.77-15.78h43.332a15.794,15.794,0,0,1,15.77,15.78v33.589A15.788,15.788,0,0,1,144.561,278.6Zm-43.337-59.614a10.258,10.258,0,0,0-10.245,10.251v33.589a10.261,10.261,0,0,0,10.245,10.251h43.332A10.261,10.261,0,0,0,154.8,262.821V229.233a10.258,10.258,0,0,0-10.245-10.251H101.223Z" fill="#4d5156"></path>
    <path id="路径_43" d="M316.038,404.929a8.773,8.773,0,0,1-8.735-8.746V383.234a8.733,8.733,0,0,1,13.1-7.56l11.219,6.474a8.727,8.727,0,0,1,0,15.121L320.4,403.743A8.666,8.666,0,0,1,316.038,404.929Zm.017-24.9a3.32,3.32,0,0,0-1.613.438,3.135,3.135,0,0,0-1.6,2.76v12.953a3.19,3.19,0,0,0,4.783,2.76l11.219-6.474a3.185,3.185,0,0,0,0-5.521l-11.219-6.474a3.1,3.1,0,0,0-1.574-.443Z" transform="translate(-197.919 -143.684)" fill="#4891ff"></path>
    <path id="路径_44" d="M749.254,351.621a8.259,8.259,0,0,1-4.135-1.116l-9.4-5.407a2.764,2.764,0,1,1,2.771-4.783l9.4,5.407a2.73,2.73,0,0,0,4.1-2.358V314.922a2.73,2.73,0,0,0-4.1-2.358l-9.423,5.418A2.764,2.764,0,1,1,735.7,313.2l9.423-5.418a8.273,8.273,0,0,1,12.41,7.141V343.37a8.158,8.158,0,0,1-4.135,7.141,8.345,8.345,0,0,1-4.141,1.11Z" transform="translate(-578.847 -83.119)" fill="#4d5156"></path>
  </g>
</svg>
