<?xml version="1.0" encoding="UTF-8"?>
<svg xmlns="http://www.w3.org/2000/svg" width="39.291" height="63.024" viewBox="0 0 39.291 63.024">
  <g id="录音" transform="translate(-266.511 -117.333)">
    <path id="路径_919" d="M379.248,157.5H376.4a10.218,10.218,0,0,1-10.218-10.218V127.551A10.218,10.218,0,0,1,376.4,117.333h2.844a10.218,10.218,0,0,1,10.218,10.218v19.729A10.218,10.218,0,0,1,379.248,157.5Zm-2.844-36.76a6.812,6.812,0,0,0-6.812,6.812v19.729a6.812,6.812,0,0,0,6.812,6.812h2.844a6.812,6.812,0,0,0,6.812-6.812V127.551a6.812,6.812,0,0,0-6.812-6.812Z" transform="translate(-91.718 0)" fill="#555"></path>
    <path id="路径_920" d="M286.252,487.1a19.585,19.585,0,0,1-19.585-19.585,1.7,1.7,0,0,1,3.406,0,16.179,16.179,0,1,0,32.357,0,1.7,1.7,0,0,1,3.406,0A19.585,19.585,0,0,1,286.252,487.1Z" transform="translate(-0.143 -320.662)" fill="#555"></path>
    <path id="路径_921" d="M492.37,703.148a1.7,1.7,0,0,1-1.7-1.7v-9.929a1.7,1.7,0,0,1,3.406,0v9.929A1.7,1.7,0,0,1,492.37,703.148Z" transform="translate(-206.261 -526.78)" fill="#555"></path>
    <path id="路径_922" d="M303.99,842.77h-.2l-17.677-2.12-17.677,2.12a1.715,1.715,0,0,1-.409-3.406l18.086-2.137h.2l17.882,2.129a1.71,1.71,0,1,1-.2,3.415Z" transform="translate(0 -662.426)" fill="#fc9015"></path>
  </g>
</svg>
