<?xml version="1.0" encoding="UTF-8"?>
<svg xmlns="http://www.w3.org/2000/svg" width="46.398" height="46.398" viewBox="0 0 46.398 46.398">
  <g id="我的2" transform="translate(-34.133 -34.133)">
    <path id="路径_1215" d="M467.18,289.686m-6.38,0a6.38,6.38,0,1,0,6.38-6.38A6.38,6.38,0,0,0,460.8,289.686Z" transform="translate(-405.953 -237.076)" fill="#f57c14" opacity="0.3"></path>
    <path id="路径_1216" d="M57.333,80.532a23.2,23.2,0,1,1,23.2-23.2,23.267,23.267,0,0,1-23.2,23.2Zm0-43.913A20.714,20.714,0,1,0,78.046,57.333,20.721,20.721,0,0,0,57.333,36.619Z" fill="#555"></path>
    <path id="路径_1217" d="M187.083,252.355a6.711,6.711,0,1,1,6.711-6.711A6.683,6.683,0,0,1,187.083,252.355Zm0-11.02a4.226,4.226,0,1,0,4.226,4.226A4.243,4.243,0,0,0,187.083,241.336Zm-15.328,27.839h-.083a1.273,1.273,0,0,1-1.16-1.326,12.288,12.288,0,0,1,12.18-11.434h8.783a12.216,12.216,0,0,1,12.18,11.351,1.246,1.246,0,0,1-2.486.166,9.756,9.756,0,0,0-9.694-9.031h-8.783A9.708,9.708,0,0,0,173,268.015a1.259,1.259,0,0,1-1.243,1.16Z" transform="translate(-129.75 -194.857)" fill="#555"></path>
  </g>
</svg>
