<?xml version="1.0" encoding="UTF-8"?>
<svg xmlns="http://www.w3.org/2000/svg" width="48.117" height="46.398" viewBox="0 0 48.117 46.398">
  <g id="我的4" transform="translate(-34.134 -51.2)">
    <path id="路径_1221" d="M178.669,165.016m-9.709,0a9.709,9.709,0,1,0,9.709-9.709A9.709,9.709,0,0,0,168.96,165.016Z" transform="translate(-128.038 -98.865)" fill="#f57c14" opacity="0.3"></path>
    <path id="路径_1222" d="M58.192,71.478a10.139,10.139,0,1,1,0-20.278h.258l8.678.086a1.321,1.321,0,0,1,1.289,1.289v8.764A10.288,10.288,0,0,1,58.192,71.478Zm0-17.7a7.561,7.561,0,1,0,7.561,7.561V53.864ZM80.962,97.6H35.423a1.321,1.321,0,0,1-1.289-1.289V94.763c0-5.843,0-8.85,1.2-11.256a11.628,11.628,0,0,1,4.984-4.984c2.406-1.2,5.413-1.2,11.256-1.2H64.723c5.843,0,8.85,0,11.256,1.2a11.628,11.628,0,0,1,4.984,4.984C82.251,86,82.251,88.92,82.251,94.763V96.31A1.321,1.321,0,0,1,80.962,97.6Zm-44.25-2.578H79.673v-.258c0-5.413,0-8.163-.945-10.053a8.85,8.85,0,0,0-3.867-3.867c-1.89-.945-4.64-.945-10.053-.945H51.576c-5.413,0-8.163,0-10.053.945a8.85,8.85,0,0,0-3.867,3.867c-.945,1.89-.945,4.64-.945,10.053Z" fill="#555"></path>
  </g>
</svg>
