<?xml version="1.0" encoding="UTF-8"?>
<svg xmlns="http://www.w3.org/2000/svg" width="43.465" height="47.633" viewBox="0 0 43.465 47.633">
  <g id="我的5" transform="translate(-112.64 -34.133)">
    <path id="路径_1223" d="M355.165,563.043H339.6a8.531,8.531,0,0,1-8.506-8.506v-5.018a8.531,8.531,0,0,1,8.506-8.506h15.566a8.531,8.531,0,0,1,8.506,8.506v5.018A8.531,8.531,0,0,1,355.165,563.043Z" transform="translate(-207.565 -481.617)" fill="#f57c14" opacity="0.3"></path>
    <path id="路径_1224" d="M283.354,58.12h-.085a11.994,11.994,0,0,1,.085-23.987h.085a11.994,11.994,0,0,1-.085,23.987Zm-.085-2.552a9.421,9.421,0,0,0,9.527-9.357,9.531,9.531,0,0,0-9.357-9.527,9.442,9.442,0,1,0-.17,18.883Z" transform="translate(-150.81)" fill="#555"></path>
    <path id="路径_1225" d="M142.241,498.52H122.847a10.237,10.237,0,0,1-10.207-10.207v-5.359a10.237,10.237,0,0,1,10.207-10.207h.425a1.212,1.212,0,0,1,1.021.51,10.988,10.988,0,0,0,8.166,4,10.646,10.646,0,0,0,8.336-4,1.213,1.213,0,0,1,1.021-.51h.51a10.237,10.237,0,0,1,10.207,10.207v5.359a10.31,10.31,0,0,1-10.292,10.207ZM122.677,475.3a7.716,7.716,0,0,0-7.57,7.655v5.359a7.624,7.624,0,0,0,7.655,7.655h19.479a7.624,7.624,0,0,0,7.655-7.655v-5.359a7.716,7.716,0,0,0-7.57-7.655,12.815,12.815,0,0,1-9.952,4.423,13.16,13.16,0,0,1-9.7-4.423Z" transform="translate(0 -416.753)" fill="#555"></path>
  </g>
</svg>
