<?xml version="1.0" encoding="UTF-8"?>
<svg xmlns="http://www.w3.org/2000/svg" width="44.244" height="46.398" viewBox="0 0 44.244 46.398">
  <g id="我的1" transform="translate(-56.32 -34.133)">
    <path id="路径_1213" d="M381.416,98.109m-9.363,0a9.363,9.363,0,1,0,9.363-9.363A9.363,9.363,0,0,0,372.054,98.109Z" transform="translate(-300.406 -51.962)" fill="#f57c14" opacity="0.3"></path>
    <path id="路径_1214" d="M78.442,55.178A10.523,10.523,0,1,1,88.965,44.656,10.537,10.537,0,0,1,78.442,55.178Zm0-18.559a8.037,8.037,0,1,0,8.037,8.037A8.044,8.044,0,0,0,78.442,36.619ZM99.321,80.532a1.274,1.274,0,0,1-1.243-1.243,19.636,19.636,0,0,0-39.273,0,1.243,1.243,0,1,1-2.486,0,22.122,22.122,0,0,1,44.244,0A1.22,1.22,0,0,1,99.321,80.532Z" transform="translate(0)" fill="#555"></path>
  </g>
</svg>
