<?xml version="1.0" encoding="UTF-8"?>
<svg xmlns="http://www.w3.org/2000/svg" width="48.117" height="46.398" viewBox="0 0 48.117 46.398">
  <g id="我的3" transform="translate(-34.134 -51.2)">
    <path id="路径_1218" d="M95.083,711.345H54.613v-3.351a9.974,9.974,0,0,1,9.967-9.967H85.116a9.974,9.974,0,0,1,9.967,9.967v3.351Z" transform="translate(-19.448 -614.262)" fill="#f57c14" opacity="0.3"></path>
    <path id="路径_1219" d="M58.192,71.478A10.139,10.139,0,1,1,68.331,61.339,10.158,10.158,0,0,1,58.192,71.478Zm0-17.7a7.561,7.561,0,1,0,7.561,7.561A7.572,7.572,0,0,0,58.192,53.778ZM80.962,97.6H35.423a1.321,1.321,0,0,1-1.289-1.289V94.763c0-5.843,0-8.85,1.2-11.256a11.628,11.628,0,0,1,4.984-4.984c2.406-1.2,5.413-1.2,11.256-1.2H64.723c5.843,0,8.85,0,11.256,1.2a11.628,11.628,0,0,1,4.984,4.984C82.251,86,82.251,88.92,82.251,94.763V96.31A1.321,1.321,0,0,1,80.962,97.6Zm-44.25-2.578H79.673v-.258c0-5.413,0-8.163-.945-10.053a8.85,8.85,0,0,0-3.867-3.867c-1.89-.945-4.64-.945-10.053-.945H51.576c-5.413,0-8.163,0-10.053.945a8.85,8.85,0,0,0-3.867,3.867c-.945,1.89-.945,4.64-.945,10.053Z" transform="translate(0 0)" fill="#555"></path>
    <path id="路径_1220" d="M341.87,582.572a1.225,1.225,0,0,1-1.031-.516l-7.475-9.967a1.325,1.325,0,0,1-.086-1.375,1.341,1.341,0,0,1,1.117-.687h15.466a1.3,1.3,0,0,1,1.2.773,1.167,1.167,0,0,1-.172,1.375l-7.991,9.967A1.423,1.423,0,0,1,341.87,582.572Zm-4.9-9.967,4.984,6.616,5.327-6.616Z" transform="translate(-283.935 -492.706)" fill="#555"></path>
  </g>
</svg>
