<?xml version="1.0" encoding="UTF-8"?>
<svg xmlns="http://www.w3.org/2000/svg" width="45.714" height="55.213" viewBox="0 0 45.714 55.213">
  <g id="我的" transform="translate(-223.99 -149.333)">
    <path id="路径_898" d="M354.878,152.719a10.159,10.159,0,1,1-10.159,10.159,10.159,10.159,0,0,1,10.159-10.159m0-3.386a13.545,13.545,0,1,0,13.545,13.545A13.545,13.545,0,0,0,354.878,149.333Z" transform="translate(-108.031)" fill="#555"></path>
    <path id="路径_899" d="M267.164,491.048a1.889,1.889,0,0,1-.474-.068,1.693,1.693,0,0,1-1.151-2.1,19.471,19.471,0,1,0-38.162-5.494,19.716,19.716,0,0,0,.762,5.452,1.693,1.693,0,1,1-3.251.931,22.858,22.858,0,1,1,43.9.051A1.693,1.693,0,0,1,267.164,491.048Z" transform="translate(0 -286.537)" fill="#555"></path>
    <path id="路径_900" d="M492.36,574.984a1.693,1.693,0,0,1-1.693-1.693V556.36a1.693,1.693,0,1,1,3.386,0v16.931a1.693,1.693,0,0,1-1.693,1.693Z" transform="translate(-245.513 -373.164)" fill="#fc9015"></path>
  </g>
</svg>
