<?xml version="1.0" encoding="UTF-8"?>
<svg xmlns="http://www.w3.org/2000/svg" width="47.633" height="47.633" viewBox="0 0 47.633 47.633">
  <g id="我的6" transform="translate(-34.133 -34.133)">
    <path id="路径_1226" d="M377.173,59.775c0,7.563,4.836,13.695,10.8,13.695s10.8-6.131,10.8-13.695-4.836-13.695-10.8-13.695S377.173,52.211,377.173,59.775Z" transform="translate(-325.943 -11.351)" fill="#f57c14" opacity="0.3"></path>
    <path id="路径_1227" d="M57.95,81.767a86.713,86.713,0,0,1-15.481-1.021,15.971,15.971,0,0,1-5.444-1.956,6.06,6.06,0,0,1-2.892-5.019c0-2.722,1.871-5.529,5.359-7.911a30.514,30.514,0,0,1,11.653-4.678c.085,0,.17-.17.17-.255.085-.255,0-.425-.255-.68,0-.085-.085-.085-.085-.17A16.31,16.31,0,0,1,47.4,54.463a19.033,19.033,0,0,1-1.361-7.145,13.734,13.734,0,0,1,3.4-9.527,11.719,11.719,0,0,1,17.012,0,13.884,13.884,0,0,1,3.4,9.527A20.869,20.869,0,0,1,68.5,54.463a17.427,17.427,0,0,1-3.743,5.784.564.564,0,0,0-.17.6q.128.255.255.255a30.668,30.668,0,0,1,11.568,4.678c3.487,2.382,5.359,5.189,5.359,7.911a5.815,5.815,0,0,1-2.892,4.933,15.558,15.558,0,0,1-5.444,1.956c-3.572.851-8.506,1.191-15.481,1.191Zm0-45.081a8.881,8.881,0,0,0-6.635,2.892A11.375,11.375,0,0,0,48.593,47.4a17.5,17.5,0,0,0,1.191,6.209,14.356,14.356,0,0,0,3.062,4.763l.085.085a3.338,3.338,0,0,1,.851,3.232,3.022,3.022,0,0,1-2.126,2.041,27.078,27.078,0,0,0-10.717,4.338c-2.722,1.871-4.253,4-4.253,5.784a3.4,3.4,0,0,0,1.7,2.807,13.5,13.5,0,0,0,4.593,1.616,90.529,90.529,0,0,0,14.97.936,80.316,80.316,0,0,0,14.97-1.021,14.226,14.226,0,0,0,4.593-1.616,3.4,3.4,0,0,0,1.7-2.807c0-1.786-1.531-3.913-4.253-5.784a28.325,28.325,0,0,0-10.717-4.253,2.879,2.879,0,0,1-2.126-2.041,3.188,3.188,0,0,1,.851-3.147A14.628,14.628,0,0,0,66.2,53.612,17.145,17.145,0,0,0,67.392,47.4a11.375,11.375,0,0,0-2.722-7.825,9.2,9.2,0,0,0-6.72-2.892Z" transform="translate(0 0)" fill="#555"></path>
  </g>
</svg>
