<?xml version="1.0" encoding="UTF-8"?>
<svg xmlns="http://www.w3.org/2000/svg" width="40.918" height="50.363" viewBox="0 0 40.918 50.363">
  <g id="手电筒" transform="translate(-234.667 -170.636)">
    <path id="路径_872" d="M492.24,507.978a1.574,1.574,0,0,1-1.574-1.574V492.24a1.574,1.574,0,1,1,3.148,0V506.4A1.574,1.574,0,0,1,492.24,507.978Z" transform="translate(-237.115 -296.422)" fill="#fc9015"></path>
    <path id="路径_873" d="M272.177,173.785a.417.417,0,0,1,.26.079v12.755c-3.3,2.746-7.672,6.374-8.191,6.791l-1.251.913v23.528H247.257V194.323l-1.251-.913c-.519-.417-4.887-4.045-8.191-6.791V173.864a.417.417,0,0,1,.26-.079h34.1m0-3.148h-34.1a3.289,3.289,0,0,0-3.407,3.147v13.66a1.5,1.5,0,0,0,.315.913s8.876,7.381,9.128,7.562v21.93A3.148,3.148,0,0,0,247.257,221h15.738a3.147,3.147,0,0,0,3.147-3.148V195.92c.252-.181,9.128-7.562,9.128-7.562a1.5,1.5,0,0,0,.315-.913v-13.66a3.289,3.289,0,0,0-3.407-3.148Z" transform="translate(0)" fill="#555"></path>
  </g>
</svg>
