<?xml version="1.0" encoding="UTF-8"?>
<svg xmlns="http://www.w3.org/2000/svg" width="52.015" height="52.015" viewBox="0 0 52.015 52.015">
  <g id="扫码" transform="translate(-181.334 -181.333)">
    <path id="路径_853" d="M183.012,204.514a1.678,1.678,0,0,1-1.678-1.678V183.012a1.678,1.678,0,0,1,1.678-1.678h19.824a1.678,1.678,0,0,1,0,3.356H184.689v18.147a1.678,1.678,0,0,1-1.678,1.678Zm19.824,28.835H183.012a1.678,1.678,0,0,1-1.678-1.678V211.846a1.678,1.678,0,1,1,3.356,0v18.147h18.147a1.678,1.678,0,0,1,0,3.356Z" transform="translate(0 0)" fill="#555"></path>
    <path id="路径_854" d="M289.558,494.022H251.7a1.678,1.678,0,1,1,0-3.356h37.854a1.678,1.678,0,0,1,0,3.356Z" transform="translate(-63.29 -285.003)" fill="#fc9015"></path>
    <path id="路径_855" d="M569.449,204.514a1.678,1.678,0,0,1-1.678-1.678V184.689H549.625a1.678,1.678,0,1,1,0-3.356h19.824a1.678,1.678,0,0,1,1.678,1.678v19.824A1.678,1.678,0,0,1,569.449,204.514Zm0,28.835H549.625a1.678,1.678,0,1,1,0-3.356h18.146V211.846a1.678,1.678,0,1,1,3.356,0V231.67a1.678,1.678,0,0,1-1.678,1.678Z" transform="translate(-337.778 0)" fill="#555"></path>
  </g>
</svg>
