<?xml version="1.0" encoding="UTF-8"?>
<svg xmlns="http://www.w3.org/2000/svg" width="50.005" height="49.65" viewBox="0 0 50.005 49.65">
  <g id="报表2" transform="translate(-30.72 -34.133)">
    <path id="路径_1370" d="M455.9,206.728m-10.462,0A10.462,10.462,0,1,0,455.9,196.266,10.462,10.462,0,0,0,445.44,206.728Z" transform="translate(-393.175 -153.71)" fill="#f57c14" opacity="0.3"></path>
    <path id="路径_1371" d="M54.747,112.908a24.027,24.027,0,1,1,0-48.054,1.33,1.33,0,0,1,0,2.66A21.367,21.367,0,1,0,76.115,88.881a1.33,1.33,0,1,1,2.66,0A24.1,24.1,0,0,1,54.747,112.908Z" transform="translate(0 -29.124)" fill="#555"></path>
    <path id="路径_1372" d="M623.045,54.348H605.49a1.364,1.364,0,0,1-1.33-1.33V35.463a1.364,1.364,0,0,1,1.33-1.33,18.9,18.9,0,0,1,18.885,18.885,1.256,1.256,0,0,1-1.33,1.33Zm-16.225-2.66h14.9a16.314,16.314,0,0,0-14.9-14.9v14.9Z" transform="translate(-543.65)" fill="#555"></path>
  </g>
</svg>
