<?xml version="1.0" encoding="UTF-8"?>
<svg xmlns="http://www.w3.org/2000/svg" width="46.949" height="48.102" viewBox="0 0 46.949 48.102">
  <g id="报表3" transform="translate(-57.974 -35.087)">
    <path id="路径_1373" d="M255.5,435.639H223.6a3.449,3.449,0,0,1-3.439-3.439V414.746a3.449,3.449,0,0,1,3.439-3.439h31.9a3.449,3.449,0,0,1,3.439,3.439V432.2A3.449,3.449,0,0,1,255.5,435.639Z" transform="translate(-154.016 -357.265)" fill="#f57c14" opacity="0.3"></path>
    <path id="路径_1374" d="M86.623,288.11a1.266,1.266,0,0,1-1.29-1.29V270.742a1.29,1.29,0,0,1,2.579,0v16.079A1.322,1.322,0,0,1,86.623,288.11Zm13.757,0a1.322,1.322,0,0,1-1.29-1.29V257.5a1.29,1.29,0,0,1,2.579,0v29.32a1.322,1.322,0,0,1-1.29,1.29Zm27.514,0a1.322,1.322,0,0,1-1.29-1.29V252.17a1.29,1.29,0,1,1,2.579,0v34.651A1.266,1.266,0,0,1,127.894,288.11Zm-13.757,0a1.322,1.322,0,0,1-1.29-1.29V261.2a1.29,1.29,0,0,1,2.579,0v25.623A1.322,1.322,0,0,1,114.137,288.11Z" transform="translate(-25.981 -204.921)" fill="#555"></path>
    <path id="路径_1375" d="M59.266,87.814a1.381,1.381,0,0,1-.946-.43,1.247,1.247,0,0,1,.086-1.806L72.765,72.853a1.235,1.235,0,0,1,1.2-.258L87.9,76.207l13.327-9.028a1.3,1.3,0,1,1,1.462,2.15L88.93,78.614a1.48,1.48,0,0,1-1.032.172L73.969,75.175,60.126,87.47a1.1,1.1,0,0,1-.86.344Z" transform="translate(0 -30.248)" fill="#555"></path>
    <path id="路径_1376" d="M807.008,44.669h-.258a1.282,1.282,0,0,1-.946-1.548l1.032-4.471-4.471-1.032a1.283,1.283,0,1,1,.6-2.493l5.761,1.376a1.094,1.094,0,0,1,.774.6,1.26,1.26,0,0,1,.172.946L808.3,43.724a1.292,1.292,0,0,1-1.29.946Z" transform="translate(-705.954)" fill="#555"></path>
  </g>
</svg>
