<?xml version="1.0" encoding="UTF-8"?>
<svg xmlns="http://www.w3.org/2000/svg" width="44.003" height="46.316" viewBox="0 0 44.003 46.316">
  <g id="报表4" transform="translate(-58.027 -34.133)">
    <path id="路径_1377" d="M517.918,365.356H503.362a3.318,3.318,0,0,1-3.308-3.308V337.815a3.318,3.318,0,0,1,3.308-3.308h14.556a3.318,3.318,0,0,1,3.308,3.308v24.233a3.318,3.318,0,0,1-3.308,3.308Z" transform="translate(-420.605 -285.817)" fill="#f57c14" opacity="0.3"></path>
    <path id="路径_1378" d="M92.1,80.449H62.493a4.448,4.448,0,0,1-4.466-4.466V38.6a4.448,4.448,0,0,1,4.466-4.466H88.877A4.448,4.448,0,0,1,93.343,38.6V79.209A1.272,1.272,0,0,1,92.1,80.449ZM62.493,36.614A2.031,2.031,0,0,0,60.425,38.6V75.9a2.013,2.013,0,0,0,1.985,1.985H90.779V38.6a1.91,1.91,0,0,0-1.985-1.985h-26.3Z" fill="#555"></path>
    <path id="路径_1379" d="M225.853,252.589h-5.541a1.272,1.272,0,0,1-1.241-1.241V227.2a1.272,1.272,0,0,1,1.241-1.241h5.541a4.448,4.448,0,0,1,4.466,4.466V248.04a4.416,4.416,0,0,1-4.466,4.549Zm-4.218-2.481h4.3a2.013,2.013,0,0,0,1.985-1.985V230.506a2.013,2.013,0,0,0-1.985-1.985h-4.3Zm-18.775-32.587h-8.767a1.241,1.241,0,1,1,0-2.481h8.767a1.241,1.241,0,1,1,0,2.481Zm4.383,7.692h-13.15a1.241,1.241,0,1,1,0-2.481h13.15a1.241,1.241,0,0,1,0,2.481Z" transform="translate(-128.292 -172.14)" fill="#555"></path>
  </g>
</svg>
