<?xml version="1.0" encoding="UTF-8"?>
<svg xmlns="http://www.w3.org/2000/svg" width="37.382" height="46.316" viewBox="0 0 37.382 46.316">
  <g id="报表6" transform="translate(-128 -34.08)">
    <path id="路径_1385" d="M178.99,277.826H156.908a3.318,3.318,0,0,1-3.308-3.308V245.654a3.318,3.318,0,0,1,3.308-3.308H178.99a3.318,3.318,0,0,1,3.308,3.308v28.863a3.318,3.318,0,0,1-3.308,3.308Z" transform="translate(-24.36 -198.174)" fill="#f57c14" opacity="0.3"></path>
    <path id="路径_1386" d="M160.833,80.447H132.714A4.559,4.559,0,0,1,128,75.981V38.6a4.611,4.611,0,0,1,4.714-4.466h20.841a1.272,1.272,0,0,1,1.241,1.241V45.05a.463.463,0,0,0,.5.414h8.849a1.272,1.272,0,0,1,1.241,1.241v29.36a4.558,4.558,0,0,1-4.549,4.383Zm-28.2-43.833A2.129,2.129,0,0,0,130.4,38.6V75.9a2.129,2.129,0,0,0,2.233,1.985H160.75a2.012,2.012,0,0,0,1.985-1.985V47.779h-7.609a2.948,2.948,0,0,1-2.977-2.895v-8.27Z" transform="translate(0 -0.05)" fill="#555"></path>
    <path id="路径_1387" d="M639.829,47.811a1.328,1.328,0,0,1-.91-.414L628.334,36.15a1.229,1.229,0,1,1,1.819-1.654l10.586,11.248a1.2,1.2,0,0,1-.083,1.737,1.185,1.185,0,0,1-.827.331Z" transform="translate(-475.771)" fill="#555"></path>
    <path id="路径_1388" d="M315.733,354.663c0-3.06,1.571-4.8,3.8-4.8s3.887,1.737,3.887,4.8-1.654,4.879-3.887,4.879C317.387,359.46,315.733,357.723,315.733,354.663Zm5.21,0c0-2.15-.579-2.812-1.323-2.812s-1.323.662-1.323,2.812.579,2.895,1.323,2.895C320.282,357.475,320.943,356.731,320.943,354.663Zm7.361-4.8h2.068l-8.188,15.714h-2.068ZM327.063,360.7c0-3.06,1.654-4.8,3.8-4.8,2.233,0,3.8,1.737,3.8,4.8s-1.654,4.879-3.8,4.879S327.063,363.76,327.063,360.7Zm5.128,0c0-2.15-.579-2.812-1.323-2.812s-1.323.662-1.323,2.812.662,2.812,1.323,2.812C331.612,363.595,332.191,362.851,332.191,360.7Z" transform="translate(-178.636 -300.483)" fill="#555"></path>
  </g>
</svg>
