<?xml version="1.0" encoding="UTF-8"?>
<svg xmlns="http://www.w3.org/2000/svg" width="45.985" height="46.316" viewBox="0 0 45.985 46.316">
  <g id="报表5" transform="translate(-37.547 -34.133)">
    <path id="路径_1380" d="M403.781,499.354m-11.248,0a11.248,11.248,0,1,0,11.248-11.248A11.248,11.248,0,0,0,392.533,499.354Z" transform="translate(-337.783 -431.973)" fill="#f57c14" opacity="0.3"></path>
    <path id="路径_1381" d="M64.1,80.449H42.261a4.559,4.559,0,0,1-4.714-4.466V38.6a4.611,4.611,0,0,1,4.714-4.466h20.76a1.272,1.272,0,0,1,1.241,1.241V46.622a.463.463,0,0,0,.5.414h8.85a1.272,1.272,0,0,1,1.241,1.241v9.263a1.241,1.241,0,1,1-2.481,0V49.517H64.758a2.948,2.948,0,0,1-2.977-2.895V36.614H42.261A2.129,2.129,0,0,0,40.028,38.6V75.9a2.129,2.129,0,0,0,2.233,1.985H64.1a1.272,1.272,0,0,1,1.241,1.241A1.348,1.348,0,0,1,64.1,80.449Z" transform="translate(0)" fill="#555"></path>
    <path id="路径_1382" d="M550.724,50.814a1.526,1.526,0,0,1-.993-.414l-10.5-12.9a1.234,1.234,0,1,1,1.9-1.571l10.586,12.82a1.282,1.282,0,0,1-.165,1.737,1.185,1.185,0,0,1-.827.331Z" transform="translate(-477.117 -1.297)" fill="#555"></path>
    <path id="路径_1383" d="M576.786,590.373A10.173,10.173,0,1,1,586.959,580.2,10.166,10.166,0,0,1,576.786,590.373Zm0-17.948a7.692,7.692,0,1,0,7.692,7.692A7.73,7.73,0,0,0,576.786,572.425Z" transform="translate(-503.427 -509.924)" fill="#555"></path>
    <path id="路径_1384" d="M761.106,579.816h-8.932a1.272,1.272,0,0,1-1.241-1.241v-9.015a1.241,1.241,0,0,1,2.481,0v7.692h7.692a1.272,1.272,0,0,1,1.241,1.241,1.288,1.288,0,0,1-1.241,1.323Z" transform="translate(-678.814 -508.299)" fill="#555"></path>
  </g>
</svg>
