<?xml version="1.0" encoding="UTF-8"?>
<svg xmlns="http://www.w3.org/2000/svg" width="93.23" height="75.914" viewBox="0 0 93.23 75.914">
  <g id="组_20" transform="translate(-111.463 -185.447)">
    <path id="路径_45" d="M189.537,261.361H126.619a15.171,15.171,0,0,1-15.156-15.156V215.113a15.171,15.171,0,0,1,15.156-15.156h3.669a4.145,4.145,0,0,0,3.892-2.665l.845-2.172a15.056,15.056,0,0,1,14.129-9.673h17.163a15.2,15.2,0,0,1,13.776,8.834l1.485,3.24a4.186,4.186,0,0,0,3.792,2.436h4.168a15.171,15.171,0,0,1,15.156,15.156V246.2a15.178,15.178,0,0,1-15.156,15.156Zm-62.919-55.528a9.3,9.3,0,0,0-9.286,9.286v31.092a9.3,9.3,0,0,0,9.286,9.286h62.919a9.3,9.3,0,0,0,9.286-9.286v-31.1a9.3,9.3,0,0,0-9.286-9.286H185.37a10.069,10.069,0,0,1-9.128-5.858l-1.485-3.24a9.309,9.309,0,0,0-8.441-5.412H149.147a9.227,9.227,0,0,0-8.658,5.923l-.845,2.172a9.988,9.988,0,0,1-9.362,6.41h-3.663Z" transform="translate(0)" fill="#4d5156"></path>
    <path id="路径_46" d="M385.423,455.914a15.042,15.042,0,1,1,15.042-15.042A15.058,15.058,0,0,1,385.423,455.914Zm0-24.952a9.915,9.915,0,1,0,9.915,9.915A9.926,9.926,0,0,0,385.423,430.962Z" transform="translate(-227.033 -209.927)" fill="#4891ff"></path>
    <path id="路径_47" d="M716.168,427.271h-7.2a2.563,2.563,0,1,1,0-5.127h7.2a2.563,2.563,0,0,1,0,5.127Z" transform="translate(-523.569 -209.273)" fill="#4d5156"></path>
  </g>
</svg>
