<?xml version="1.0" encoding="UTF-8"?>
<svg xmlns="http://www.w3.org/2000/svg" width="70.503" height="93.23" viewBox="0 0 70.503 93.23">
  <g id="组_34" transform="translate(-880.748 -630.846)">
    <g id="组_31" transform="translate(-126.252 -38.154)">
      <g id="联合_1" transform="translate(1007 669)" fill="none">
        <path d="M31.811,83.489a14,14,0,0,1-14-14V65.026A34.711,34.711,0,0,1,35.251,0,34.708,34.708,0,0,1,53.434,64.6v4.893a14,14,0,0,1-14,14Z" stroke="none"></path>
        <path d="M 39.43350601196289 76.98941040039062 C 43.56923294067383 76.98941040039062 46.93390655517578 73.62474060058594 46.93390655517578 69.48899078369141 L 46.93390655517578 60.9006462097168 L 50.10901641845703 59.01052093505859 C 58.80917739868164 53.83133697509766 64.00330352783203 44.77573776245117 64.00330352783203 34.78679275512695 C 64.00330352783203 19.18941116333008 51.10515975952148 6.50001049041748 35.25119781494141 6.50001049041748 C 19.39772415161133 6.50001049041748 6.499997138977051 19.18941116333008 6.499997138977051 34.78679275512695 C 6.499997138977051 44.91070175170898 12.05581569671631 54.32708358764648 20.99934196472168 59.36122894287109 L 24.31099700927734 61.22529983520508 L 24.31099700927734 69.48899078369141 C 24.31099700927734 73.62474060058594 27.6756706237793 76.98941040039062 31.81139755249023 76.98941040039062 L 39.43350601196289 76.98941040039062 M 39.43350601196289 83.48941040039062 L 31.81139755249023 83.48941040039062 C 24.07950592041016 83.48941040039062 17.81099700927734 77.22090148925781 17.81099700927734 69.48899078369141 L 17.81099700927734 65.02553558349609 C 7.171978950500488 59.03702926635742 -2.781538569252007e-06 47.73844528198242 -2.781538569252007e-06 34.78679275512695 C -2.781538569252007e-06 15.57450103759766 15.78239727020264 1.047640671458794e-05 35.25119781494141 1.047640671458794e-05 C 54.71999740600586 1.047640671458794e-05 70.50330352783203 15.57450103759766 70.50330352783203 34.78679275512695 C 70.50330352783203 47.43473815917969 63.66296005249023 58.50644683837891 53.43390655517578 64.59577178955078 L 53.43390655517578 69.48899078369141 C 53.43390655517578 77.22090148925781 47.16630554199219 83.48941040039062 39.43350601196289 83.48941040039062 Z" stroke="none" fill="#4d5156"></path>
      </g>
      <path id="路径_72" d="M13.73,0A13.73,13.73,0,0,0,0,13.73" transform="matrix(0.985, -0.174, 0.174, 0.985, 1019.458, 690.796)" fill="none" stroke="#4891ff" stroke-linecap="round" stroke-width="6"></path>
      <rect id="矩形_4" width="34.138" height="5.226" rx="2.613" transform="translate(1025.491 757.004)" fill="#4d5156"></rect>
    </g>
  </g>
</svg>
