<?xml version="1.0" encoding="UTF-8"?>
<svg xmlns="http://www.w3.org/2000/svg" width="55.363" height="54.875" viewBox="0 0 55.363 54.875">
  <g id="搜索" transform="translate(-135.466 -135.466)">
    <path id="路径_886" d="M160.4,185.3a24.916,24.916,0,1,1,24.9-24.891A24.916,24.916,0,0,1,160.4,185.3Zm0-46.463a21.466,21.466,0,1,1,0,.017Z" fill="#555"></path>
    <path id="路径_887" d="M493.54,248.945a1.681,1.681,0,0,1-1.513-.941,21.7,21.7,0,0,0-10.412-10.135,1.681,1.681,0,1,1,1.395-3.059,25.059,25.059,0,0,1,12.034,11.714,1.672,1.672,0,0,1-1.5,2.42Z" transform="translate(-317.972 -91.377)" fill="#fc9015"></path>
    <path id="路径_888" d="M693.538,689.458a1.681,1.681,0,0,1-1.185-.5l-8.832-8.824a1.682,1.682,0,0,1,2.378-2.378l8.866,8.832a1.681,1.681,0,0,1-1.227,2.866Z" transform="translate(-504.424 -499.117)" fill="#555"></path>
  </g>
</svg>
