<?xml version="1.0" encoding="UTF-8"?>
<svg xmlns="http://www.w3.org/2000/svg" width="61.786" height="53.205" viewBox="0 0 61.786 53.205">
  <g id="收件" transform="translate(-128 -181.333)">
    <path id="路径_883" d="M249.44,621.546a9.44,9.44,0,1,1,9.44-9.44A9.439,9.439,0,0,1,249.44,621.546Zm0-15.446a6.007,6.007,0,1,0,6.007,6.007A6.007,6.007,0,0,0,249.44,606.1Zm26.173,15.876a9.439,9.439,0,1,1,9.44-9.439A9.439,9.439,0,0,1,275.613,621.975Zm0-15.447a6.007,6.007,0,1,0,6.007,6.007A6.007,6.007,0,0,0,275.613,606.529Z" transform="translate(-102.99 -387.437)" fill="#555"></path>
    <path id="路径_884" d="M184.963,225.956h-6.2l-.129-1.528a6.007,6.007,0,0,0-11.928,0l-.214,1.528H152.526l-.086-1.622a6.007,6.007,0,1,0-12.014,0l-.052,1.622h-7.552A4.823,4.823,0,0,1,128,221.134V204.5a12.014,12.014,0,0,1,12.014-12.014H151.17v-6.333a4.823,4.823,0,0,1,4.823-4.823h28.971c2.429,0,4.823,1.965,4.823,3.965v34.978c0,3.9-2.506,5.681-4.823,5.681Zm-3.261-3.433h3.261c1.287,0,1.39-1.716,1.39-2.248V185.469a1.888,1.888,0,0,0-1.39-.7H155.993a1.4,1.4,0,0,0-1.39,1.39v9.766H140.014a8.581,8.581,0,0,0-8.581,8.581v16.631a1.4,1.4,0,0,0,1.39,1.39h4.445a9.44,9.44,0,0,1,18.364,0h7.912a9.44,9.44,0,0,1,18.158,0ZM186.354,185.529Z" transform="translate(0 0)" fill="#555"></path>
    <path id="路径_885" d="M262.5,405.822H247.05a1.716,1.716,0,0,1,0-3.433h12.014v-6.007a1.716,1.716,0,1,1,3.433,0Z" transform="translate(-107.894 -196.171)" fill="#fc9015"></path>
  </g>
</svg>
