<?xml version="1.0" encoding="UTF-8"?>
<svg xmlns="http://www.w3.org/2000/svg" width="68.319" height="65.623" viewBox="0 0 68.319 65.623">
  <g id="收藏" transform="translate(-138.297 -127.739)">
    <path id="路径_874" d="M154.448,193.362a5.041,5.041,0,0,1-4.943-5.85l2.925-16.936a1.082,1.082,0,0,0-.312-.975l-12.3-12.032a5.012,5.012,0,0,1,2.779-8.551l16.946-2.467a1.131,1.131,0,0,0,.848-.614l7.566-15.4a5.021,5.021,0,0,1,9.009,0l7.566,15.4a1.131,1.131,0,0,0,.848.614l16.946,2.467a5.012,5.012,0,0,1,2.779,8.551l-12.276,12a1.082,1.082,0,0,0-.312.975l2.925,16.936a5.031,5.031,0,0,1-7.293,5.285l-15.171-7.976a1.082,1.082,0,0,0-1.034,0l-15.152,7.985a5.012,5.012,0,0,1-2.34.585Zm18.009-61.7a1.092,1.092,0,0,0-.975.624l-7.6,15.366a4.992,4.992,0,0,1-3.783,2.75l-16.9,2.477a1.114,1.114,0,0,0-.624,1.9l12.227,11.983a5.021,5.021,0,0,1,1.443,4.427l-2.925,16.936a1.112,1.112,0,0,0,1.619,1.18l15.171-7.917a5.031,5.031,0,0,1,4.68,0l15.142,7.985a1.112,1.112,0,0,0,1.619-1.18l-2.925-16.936a5.021,5.021,0,0,1,1.472-4.495L202.38,154.78a1.1,1.1,0,0,0-.6-1.9L184.81,150.4a5,5,0,0,1-3.783-2.74l-7.6-15.4a1.092,1.092,0,0,0-.975-.6Z" fill="#555"></path>
    <path id="路径_875" d="M412.564,384.117a1.95,1.95,0,0,1-1.121-3.549l7.459-5.226a1.16,1.16,0,0,0,.488-.975v-9.75a1.95,1.95,0,1,1,3.9,0v9.75a5.08,5.08,0,0,1-2.155,4.154l-7.449,5.216a1.95,1.95,0,0,1-1.121.38Z" transform="translate(-247.42 -213.454)" fill="#fc9015"></path>
  </g>
</svg>
