<?xml version="1.0" encoding="UTF-8"?>
<svg xmlns="http://www.w3.org/2000/svg" width="49.598" height="62.854" viewBox="0 0 49.598 62.854">
  <g id="收藏夹" transform="translate(-225.707 -149.319)">
    <path id="路径_880" d="M263.6,281.454H231.253a5.546,5.546,0,0,1-5.546-5.546V230.719a5.546,5.546,0,0,1,5.546-5.546H263.6a5.546,5.546,0,0,1,5.546,5.546v45.189A5.546,5.546,0,0,1,263.6,281.454ZM231.253,228.87a1.849,1.849,0,0,0-1.849,1.849v45.189a1.849,1.849,0,0,0,1.849,1.849H263.6a1.849,1.849,0,0,0,1.849-1.849V230.719a1.849,1.849,0,0,0-1.849-1.849Z" transform="translate(0 -69.281)" fill="#555"></path>
    <path id="路径_881" d="M335,205.6h-4.474v-44.57a1.581,1.581,0,0,0-1.682-1.442H296.96v-5.13a5.269,5.269,0,0,1,5.379-5.139H335a5.269,5.269,0,0,1,5.379,5.139v46A5.268,5.268,0,0,1,335,205.6Zm-.8-3.7h.8a1.581,1.581,0,0,0,1.682-1.442v-46A1.581,1.581,0,0,0,335,153.017H302.339a1.581,1.581,0,0,0-1.682,1.442v1.433h28.191a5.269,5.269,0,0,1,5.379,5.139Z" transform="translate(-65.079 0)" fill="#555"></path>
    <path id="路径_882" d="M337.739,383.964a2.976,2.976,0,0,1-2.912-3.457l.924-5.342-3.854-3.743a2.958,2.958,0,0,1,1.636-5.047l5.361-.776,2.394-4.853a2.958,2.958,0,0,1,5.306,0l2.394,4.853,5.361.776a2.958,2.958,0,0,1,1.581,5.047l-3.873,3.78.924,5.342a2.967,2.967,0,0,1-4.289,3.115l-4.779-2.56-4.8,2.523A2.921,2.921,0,0,1,337.739,383.964Zm-2.218-14.179,3.087,3a2.958,2.958,0,0,1,.85,2.616l-.73,4.243,3.808-2.006a2.958,2.958,0,0,1,2.773,0l3.808,2.006-.73-4.243a2.958,2.958,0,0,1,.85-2.616l3.087-3-4.261-.619a2.976,2.976,0,0,1-2.228-1.618l-1.923-3.854-1.9,3.854a2.976,2.976,0,0,1-2.228,1.617ZM335.807,374.777ZM352.01,374.777ZM353.794,370ZM343.248,362.345Z" transform="translate(-96.171 -191.599)" fill="#fc9015"></path>
  </g>
</svg>
