<?xml version="1.0" encoding="UTF-8"?>
<svg xmlns="http://www.w3.org/2000/svg" width="41.423" height="57.484" viewBox="0 0 41.423 57.484">
  <g id="攻略" transform="translate(-256 -149.333)">
    <path id="路径_812" d="M523.835,172.335a2.536,2.536,0,0,1-1.327-.372l-3.322-2.046-3.322,2.046A2.536,2.536,0,0,1,512,169.8V149.333h14.371V169.8A2.536,2.536,0,0,1,523.835,172.335ZM524.274,169.081Zm-8.893-16.366v15.571l2.477-1.522a2.536,2.536,0,0,1,2.654,0l2.477,1.522V152.714Z" transform="translate(-235.711 0)" fill="#fc9015"></path>
    <path id="路径_813" d="M292.35,206.817H261.072A5.072,5.072,0,0,1,256,201.745v-47.34a5.072,5.072,0,0,1,5.072-5.072H292.35a5.072,5.072,0,0,1,5.072,5.072v47.34a5.072,5.072,0,0,1-5.072,5.072Zm-31.278-54.1a1.691,1.691,0,0,0-1.691,1.691v47.34a1.691,1.691,0,0,0,1.691,1.691H292.35a1.691,1.691,0,0,0,1.691-1.691v-47.34a1.691,1.691,0,0,0-1.691-1.691Z" transform="translate(0 0)" fill="#555"></path>
    <path id="路径_814" d="M375.024,206.818a1.691,1.691,0,0,1-1.691-1.691v-54.1a1.691,1.691,0,0,1,3.381,0v54.1a1.691,1.691,0,0,1-1.691,1.691Z" transform="translate(-108.035 -0.001)" fill="#555"></path>
  </g>
</svg>
