<?xml version="1.0" encoding="UTF-8"?>
<svg xmlns="http://www.w3.org/2000/svg" width="48.714" height="48.714" viewBox="0 0 48.714 48.714">
  <g id="文档8" transform="translate(-34.133 -34.133)">
    <path id="路径_1278" d="M88.345,331.495H54.68a3.49,3.49,0,0,1-3.48-3.48V300.44a3.49,3.49,0,0,1,3.48-3.48H88.345a3.49,3.49,0,0,1,3.48,3.48v27.576a3.49,3.49,0,0,1-3.48,3.48Z" transform="translate(-16.197 -249.431)" fill="#f57c14" opacity="0.3"></path>
    <path id="路径_1279" d="M78.063,82.847H38.918a4.827,4.827,0,0,1-4.784-4.784V38.918a4.827,4.827,0,0,1,4.784-4.784H55.272a1.6,1.6,0,0,1,1.044.435l5.393,6.524H78.063a4.827,4.827,0,0,1,4.784,4.784V78.063a4.827,4.827,0,0,1-4.784,4.784Zm-39.145-46.1a2.154,2.154,0,0,0-2.175,2.175V78.063a2.154,2.154,0,0,0,2.175,2.175H78.063a2.154,2.154,0,0,0,2.175-2.175V45.877A2.154,2.154,0,0,0,78.063,43.7H61.1a1.605,1.605,0,0,1-1.044-.435l-5.393-6.524Z" fill="#555"></path>
    <path id="路径_1280" d="M81.543,442.93h-46.1a1.3,1.3,0,1,1,0-2.61h46.1a1.3,1.3,0,1,1,0,2.61ZM69.973,454.76H47.008a1.3,1.3,0,1,1,0-2.61H69.886a1.338,1.338,0,0,1,1.3,1.3,1.264,1.264,0,0,1-1.218,1.3Z" transform="translate(-0.001 -385.483)" fill="#555"></path>
    <path id="路径_1281" d="M225.615,334.411a1.338,1.338,0,0,1-1.3-1.3v-4.089a.411.411,0,0,0-.435-.435H197.6a.411.411,0,0,0-.435.435v4.089a1.3,1.3,0,0,1-2.61,0v-4.089a3.082,3.082,0,0,1,3.045-3.045h26.271a3.082,3.082,0,0,1,3.045,3.045v4.089a1.338,1.338,0,0,1-1.3,1.3Z" transform="translate(-152.249 -276.965)" fill="#555"></path>
  </g>
</svg>
