<?xml version="1.0" encoding="UTF-8"?>
<svg xmlns="http://www.w3.org/2000/svg" width="48.556" height="48.714" viewBox="0 0 48.556 48.714">
  <g id="文档6" transform="translate(-37.222 -25.6)">
    <path id="路径_1269" d="M412.151,363.8H389.186a3.49,3.49,0,0,1-3.48-3.48V334.573a3.49,3.49,0,0,1,3.48-3.48h22.965a3.49,3.49,0,0,1,3.48,3.48v25.749a3.49,3.49,0,0,1-3.48,3.48Z" transform="translate(-330.722 -289.922)" fill="#f57c14" opacity="0.3"></path>
    <path id="路径_1270" d="M451,74.314H439.951a3.082,3.082,0,0,1-3.045-3.045V28.645a3.082,3.082,0,0,1,3.045-3.045H451a1.338,1.338,0,0,1,1.3,1.3v46.1A1.338,1.338,0,0,1,451,74.314Zm-11.048-46.1a.411.411,0,0,0-.435.435V71.269a.411.411,0,0,0,.435.435h9.743V28.21h-9.743Z" transform="translate(-379.313)" fill="#555"></path>
    <path id="路径_1271" d="M82.734,74.314H71.686a1.338,1.338,0,0,1-1.3-1.3V26.9a1.338,1.338,0,0,1,1.3-1.3H82.734a3.082,3.082,0,0,1,3.045,3.045V71.269a3.082,3.082,0,0,1-3.045,3.045ZM72.991,71.7h9.743a.411.411,0,0,0,.435-.435V28.645a.411.411,0,0,0-.435-.435H72.991V71.7ZM47.677,74.14h-.348l-7.394-.87a3.1,3.1,0,0,1-2.7-3.393l4.784-41.407a2.8,2.8,0,0,1,1.131-2,3.007,3.007,0,0,1,2.262-.609l6.785.87a2.956,2.956,0,0,1,2.61,3.306L50.635,71.443A3.331,3.331,0,0,1,49.5,73.531a3.065,3.065,0,0,1-1.827.609Zm-2.7-45.756a.876.876,0,0,0-.261.087c-.087,0-.174.174-.174.261l-4.7,41.407a.587.587,0,0,0,.348.522l7.394.87c.174,0,.261-.087.348-.087s.174-.174.174-.261l4.175-41.407a.4.4,0,0,0-.348-.435l-6.959-.957h0Z" transform="translate(0 0)" fill="#555"></path>
    <path id="路径_1272" d="M575.585,259.024a1.338,1.338,0,0,1-1.3-1.3v-3.828a1.3,1.3,0,1,1,2.61,0v3.828A1.281,1.281,0,0,1,575.585,259.024Zm-12.787,0a1.338,1.338,0,0,1-1.3-1.3v-3.828a1.3,1.3,0,1,1,2.61,0v3.828A1.338,1.338,0,0,1,562.8,259.024Z" transform="translate(-497.549 -215.417)" fill="#555"></path>
  </g>
</svg>
