<?xml version="1.0" encoding="UTF-8"?>
<svg xmlns="http://www.w3.org/2000/svg" width="47.36" height="47.36" viewBox="0 0 47.36 47.36">
  <g id="文档9" transform="translate(-34.133 -34.133)">
    <path id="路径_1282" d="M228.119,286.738H196.236a3.393,3.393,0,0,1-3.383-3.383V254.263a3.393,3.393,0,0,1,3.383-3.383h31.883a3.393,3.393,0,0,1,3.383,3.383v29.008a3.412,3.412,0,0,1-3.383,3.467Z" transform="translate(-150.855 -206.007)" fill="#f57c14" opacity="0.3"></path>
    <path id="路径_1283" d="M76.842,81.493H38.785a4.693,4.693,0,0,1-4.651-4.651V38.785a4.693,4.693,0,0,1,4.651-4.651H54.938a1.272,1.272,0,0,1,1.184.846L60.1,45.973H80.224a1.3,1.3,0,0,1,1.269,1.269v29.6a4.693,4.693,0,0,1-4.651,4.651ZM38.785,36.67a2.094,2.094,0,0,0-2.114,2.114V76.842a2.094,2.094,0,0,0,2.114,2.114H76.842a2.094,2.094,0,0,0,2.114-2.114V48.51H59.251a1.272,1.272,0,0,1-1.184-.846L54.007,36.67Z" fill="#555"></path>
    <path id="路径_1284" d="M174.013,156.016h-34.5a1.269,1.269,0,1,1,0-2.537h34.5a1.269,1.269,0,1,1,0,2.537Zm5.159-17.506a1.3,1.3,0,0,1-1.269-1.269V125.825a2.094,2.094,0,0,0-2.114-2.114H155.577a1.269,1.269,0,1,1,0-2.537h20.212a4.693,4.693,0,0,1,4.651,4.651v11.417a1.3,1.3,0,0,1-1.269,1.269Z" transform="translate(-98.948 -82.727)" fill="#555"></path>
  </g>
</svg>
