<?xml version="1.0" encoding="UTF-8"?>
<svg xmlns="http://www.w3.org/2000/svg" width="48.984" height="45.507" viewBox="0 0 48.984 45.507">
  <g id="文档4" transform="translate(-34.133 -100.266)">
    <path id="路径_1262" d="M246.626,436.066m-14.52,0a14.52,14.52,0,1,0,14.52-14.52,14.52,14.52,0,0,0-14.52,14.52Z" transform="translate(-187.826 -304.814)" fill="#f57c14" opacity="0.3"></path>
    <path id="路径_1263" d="M58.975,142.449a3.431,3.431,0,0,1-1.574-.35L35.883,130.378a3.353,3.353,0,0,1-1.749-2.887v-15.92a3.4,3.4,0,0,1,2.187-3.149l22.48-7.96a3.384,3.384,0,0,1,2.274,0l19.943,7.96a3.429,3.429,0,0,1,2.1,3.061v16.182a3.249,3.249,0,0,1-1.749,2.887L60.55,141.924a2.62,2.62,0,0,1-1.574.525Zm.875-39.537h-.175l-22.48,8.047a.658.658,0,0,0-.437.612v15.92a.736.736,0,0,0,.35.612l21.605,11.634a.747.747,0,0,0,.612,0l20.818-11.371a.736.736,0,0,0,.35-.612V111.572a.658.658,0,0,0-.437-.612L60.112,103a.321.321,0,0,0-.262-.087ZM36.758,109.735Z" transform="translate(0 0)" fill="#555"></path>
    <path id="路径_1264" d="M65.773,289.719a1.11,1.11,0,0,1-.525-.087l-6.21-2.8a1.372,1.372,0,0,1-.787-1.225v-6.735l-5.6-2.712A1.311,1.311,0,1,1,53.79,273.8l6.3,3.061a1.365,1.365,0,0,1,.7,1.137v6.735l3.586,1.662v-5.248a1.5,1.5,0,0,1,.612-1.137,1.233,1.233,0,0,1,1.225-.087l9.534,4.2,21.605-10.5a1.264,1.264,0,0,1,1.749.612,1.242,1.242,0,0,1-.612,1.749L76.445,286.745a1.3,1.3,0,0,1-1.137,0L67,283.158v5.248a1.5,1.5,0,0,1-.612,1.137,1.621,1.621,0,0,1-.612.175Z" transform="translate(-16.857 -164.327)" fill="#555"></path>
    <path id="路径_1265" d="M269.853,213.521a1.345,1.345,0,0,1-1.312-1.312V192.7a1.312,1.312,0,1,1,2.624,0v19.506A1.288,1.288,0,0,1,269.853,213.521Zm1.4-23.617a1.109,1.109,0,0,1-.525-.087l-13.558-6.385a1.311,1.311,0,0,1,1.137-2.362l13.558,6.385a1.243,1.243,0,0,1,.612,1.749A1.608,1.608,0,0,1,271.252,189.9Zm5.686-3.5a1.109,1.109,0,0,1-.525-.087l-13.033-5.861a1.332,1.332,0,1,1,1.05-2.449l13.033,5.773a1.318,1.318,0,0,1,.7,1.749,1.277,1.277,0,0,1-1.225.875Zm4.636-3.236a1.109,1.109,0,0,1-.525-.087L269.065,178.1a1.332,1.332,0,0,1,1.05-2.449l11.984,4.986a1.318,1.318,0,0,1,.7,1.749A1.372,1.372,0,0,1,281.574,183.169Z" transform="translate(-210.877 -71.422)" fill="#555"></path>
  </g>
</svg>
