<?xml version="1.0" encoding="UTF-8"?>
<svg xmlns="http://www.w3.org/2000/svg" width="40.679" height="47.36" viewBox="0 0 40.679 47.36">
  <g id="文档5" transform="translate(-102.4 -34.133)">
    <path id="路径_1266" d="M296.024,341.72H271.329a3.393,3.393,0,0,1-3.383-3.383V312.289a3.393,3.393,0,0,1,3.383-3.383h24.695a3.393,3.393,0,0,1,3.383,3.383v26.048A3.393,3.393,0,0,1,296.024,341.72Z" transform="translate(-157.343 -261.157)" fill="#f57c14" opacity="0.3"></path>
    <path id="路径_1267" d="M138.427,81.493h-31.46a4.548,4.548,0,0,1-4.567-4.567V38.7a4.548,4.548,0,0,1,4.567-4.567h31.545a4.548,4.548,0,0,1,4.567,4.567V76.842a4.638,4.638,0,0,1-4.651,4.651ZM106.967,36.67a2.077,2.077,0,0,0-2.114,2.03V76.842a2.058,2.058,0,0,0,2.03,2.03h31.545a2.058,2.058,0,0,0,2.03-2.03V38.7a1.953,1.953,0,0,0-2.03-2.03h-31.46Z" fill="#555"></path>
    <path id="路径_1268" d="M311.56,232.839H294.815a1.269,1.269,0,0,1,0-2.537H311.56a1.269,1.269,0,0,1,0,2.537Zm-8.373,6.766h-8.373a1.269,1.269,0,0,1,0-2.537h8.373a1.269,1.269,0,0,1,0,2.537Zm6.681-15.392H296.507a3,3,0,0,1-2.96-2.96V212.88a3,3,0,0,1,2.96-2.96h13.362a3,3,0,0,1,2.96,2.96v8.373A3,3,0,0,1,309.869,224.213Zm-13.362-11.755a.4.4,0,0,0-.423.423v8.373a.4.4,0,0,0,.423.423h13.362a.4.4,0,0,0,.423-.423V212.88a.4.4,0,0,0-.423-.423Z" transform="translate(-181.675 -167.076)" fill="#555"></path>
  </g>
</svg>
