<?xml version="1.0" encoding="UTF-8"?>
<svg xmlns="http://www.w3.org/2000/svg" width="51.449" height="42.446" viewBox="0 0 51.449 42.446">
  <g id="文档7" transform="translate(-34.133 -110.933)">
    <path id="路径_1273" d="M248.9,461.161H220.421a3.686,3.686,0,0,1-3.675-3.675v-16.9a3.686,3.686,0,0,1,3.675-3.675H248.9a3.686,3.686,0,0,1,3.675,3.675v16.9A3.686,3.686,0,0,1,248.9,461.161Z" transform="translate(-172.783 -308.425)" fill="#f57c14" opacity="0.3"></path>
    <path id="路径_1274" d="M75.385,287.406H44.331a5,5,0,0,1-4.869-3.859L34.133,260.12v-6.156a1.413,1.413,0,0,1,1.378-1.378,1.353,1.353,0,0,1,1.378,1.378v5.7L42.218,282.9a2.264,2.264,0,0,0,2.2,1.746H75.476a2.345,2.345,0,0,0,2.2-1.746l5.145-23.244v-4.5a1.378,1.378,0,0,1,2.756,0v4.869l-5.237,23.336a5.1,5.1,0,0,1-4.961,4.042Z" transform="translate(0 -134.027)" fill="#555"></path>
    <path id="路径_1275" d="M84.205,364.569H35.512a1.378,1.378,0,0,1,0-2.756H84.205a1.378,1.378,0,0,1,0,2.756ZM65.647,378.35H54.071a1.378,1.378,0,1,1,0-2.756H65.647a1.378,1.378,0,1,1,0,2.756Z" transform="translate(-0.001 -237.375)" fill="#555"></path>
    <path id="路径_1276" d="M245.726,226.329H216.418a1.378,1.378,0,1,1,0-2.756h29.308a1.378,1.378,0,1,1,0,2.756Z" transform="translate(-171.168 -106.576)" fill="#555"></path>
    <path id="路径_1277" d="M355.376,113.689H339.3a1.378,1.378,0,1,1,0-2.756h16.078a1.378,1.378,0,1,1,0,2.756Z" transform="translate(-287.433)" fill="#555"></path>
  </g>
</svg>
