<?xml version="1.0" encoding="UTF-8"?>
<svg xmlns="http://www.w3.org/2000/svg" width="48.522" height="48.714" viewBox="0 0 48.522 48.714">
  <g id="文档10" transform="translate(-36.903 -35.586)">
    <path id="路径_1290" d="M241.041,457.7H219.523a2.991,2.991,0,0,1-2.777-3.151v-14.5a2.991,2.991,0,0,1,2.777-3.151h21.518a2.991,2.991,0,0,1,2.776,3.151v14.5A2.991,2.991,0,0,1,241.041,457.7Z" transform="translate(-166.403 -399.205)" fill="#f57c14" opacity="0.3"></path>
    <path id="路径_1287" d="M81.542,472.017H41.9a5.033,5.033,0,0,1-3.833-1.568,4.418,4.418,0,0,1-1.133-3.4V449.714a4.677,4.677,0,0,1,1.655-4.008c1.568-1.22,3.833-.7,4.008-.7.087,0,.087,0,.174.087L59.588,451.8l18.992-7.057c2-.784,3.746-.784,4.966,0a4.267,4.267,0,0,1,1.83,2.614V466.18a5.1,5.1,0,0,1-3.485,5.837h-.348Zm-42.08-4.792A2.117,2.117,0,0,0,41.9,469.4H81.368a2.444,2.444,0,0,0,1.394-2.962V447.71a.934.934,0,0,0-.523-.7c-.523-.348-1.481-.261-2.7.261L60.11,454.506a1.781,1.781,0,0,1-.958,0l-17.25-6.97a2.381,2.381,0,0,0-1.83.261,2.3,2.3,0,0,0-.61,1.917v17.511Z" transform="translate(0 -387.717)" fill="#555"></path>
    <path id="路径_1288" d="M178.8,61.125a1.34,1.34,0,0,1-1.307-1.307V40.3a4.832,4.832,0,0,1,5.576-4.7H206.94c1.481-.087,4.356.784,4.879,4.53V59.034a1.307,1.307,0,1,1-2.614,0V40.39c-.348-2.091-1.742-2.265-2.178-2.178l-24.046-.087h-.087a2.414,2.414,0,0,0-2,.523,2.753,2.753,0,0,0-.784,1.655V59.731a1.36,1.36,0,0,1-1.307,1.394Z" transform="translate(-133.413 0)" fill="#555"></path>
    <path id="路径_1289" d="M353.674,226.187h-17.86a1.307,1.307,0,1,1,0-2.614h17.947a1.34,1.34,0,0,1,1.307,1.307,1.36,1.36,0,0,1-1.394,1.307Zm-4.792,6.97H335.814a1.307,1.307,0,1,1,0-2.614h13.155a1.34,1.34,0,0,1,1.307,1.307,1.36,1.36,0,0,1-1.394,1.307Z" transform="translate(-282.412 -178.391)" fill="#555"></path>
  </g>
</svg>
