<?xml version="1.0" encoding="UTF-8"?>
<svg xmlns="http://www.w3.org/2000/svg" width="45.844" height="45.68" viewBox="0 0 45.844 45.68">
  <g id="文档3" transform="translate(-32.427 -34.133)">
    <path id="路径_1258" d="M392.792,356.971H370.2a3.272,3.272,0,0,1-3.263-3.263V329.236a3.272,3.272,0,0,1,3.263-3.263h22.6a3.272,3.272,0,0,1,3.263,3.263v24.39a3.291,3.291,0,0,1-3.263,3.344Z" transform="translate(-318.518 -277.892)" fill="#f57c14" opacity="0.3"></path>
    <path id="路径_1259" d="M205.5,79.813H175.072a4.387,4.387,0,0,1-4.4-4.4V38.538a4.387,4.387,0,0,1,4.4-4.4H205.5a4.387,4.387,0,0,1,4.4,4.4V75.327a4.405,4.405,0,0,1-4.4,4.486ZM175.072,36.58a1.985,1.985,0,0,0-1.958,1.958V75.327a1.985,1.985,0,0,0,1.958,1.958H205.5a1.985,1.985,0,0,0,1.958-1.958V38.538A1.985,1.985,0,0,0,205.5,36.58Z" transform="translate(-131.633)" fill="#555"></path>
    <path id="路径_1260" d="M370.423,263.567H351.091a1.224,1.224,0,1,1,0-2.447h19.333a1.224,1.224,0,1,1,0,2.447Zm0,7.015H351.091a1.224,1.224,0,1,1,0-2.447h19.333a1.224,1.224,0,1,1,0,2.447Zm0,7.015H351.091a1.224,1.224,0,1,1,0-2.447h19.333a1.224,1.224,0,1,1,0,2.447Zm-11.257,7.1h-8.076a1.224,1.224,0,1,1,0-2.447h8.076a1.224,1.224,0,1,1,0,2.447Z" transform="translate(-302.268 -216.138)" fill="#555"></path>
    <path id="路径_1261" d="M51.6,185.445H36.832a4.387,4.387,0,0,1-4.4-4.4V149.472a4.387,4.387,0,0,1,4.4-4.4h3.426a1.224,1.224,0,1,1,0,2.447H36.832a1.985,1.985,0,0,0-1.958,1.958V181.04A1.985,1.985,0,0,0,36.832,183H51.678a1.255,1.255,0,0,1,1.224,1.224,1.273,1.273,0,0,1-1.305,1.224Z" transform="translate(0 -105.632)" fill="#555"></path>
  </g>
</svg>
