<?xml version="1.0" encoding="UTF-8"?>
<svg xmlns="http://www.w3.org/2000/svg" width="41.131" height="47.788" viewBox="0 0 41.131 47.788">
  <g id="文档1" transform="translate(-100.693 -34.133)">
    <path id="路径_1251" d="M218.2,145.067H194.56a3.423,3.423,0,0,1-3.413-3.413v-25.6a3.423,3.423,0,0,1,3.413-3.413H218.2a3.423,3.423,0,0,1,3.413,3.413v25.515a3.443,3.443,0,0,1-3.413,3.5Z" transform="translate(-85.931 -74.581)" fill="#f57c14" opacity="0.3"></path>
    <path id="路径_1252" d="M271.1,244.907H247.04a1.28,1.28,0,0,1,0-2.56H271.1a1.28,1.28,0,0,1,0,2.56Zm0,10.5H247.04a1.28,1.28,0,0,1,0-2.56H271.1a1.28,1.28,0,1,1,0,2.56ZM253.7,265.814H247.04a1.28,1.28,0,0,1,0-2.56H253.7a1.28,1.28,0,1,1,0,2.56Z" transform="translate(-137.814 -197.803)" fill="#555"></path>
    <path id="路径_1253" d="M128.6,81.921H105.045a4.485,4.485,0,0,1-4.352-4.608V38.741a4.485,4.485,0,0,1,4.352-4.608h32.427a4.485,4.485,0,0,1,4.352,4.608v29.27a1.312,1.312,0,0,1-1.28,1.28H131.67a1.924,1.924,0,0,0-1.792,2.048v9.3a1.312,1.312,0,0,1-1.28,1.28ZM105.045,36.693a1.983,1.983,0,0,0-1.792,2.048V77.227a1.924,1.924,0,0,0,1.792,2.048h22.272V71.254a4.485,4.485,0,0,1,4.352-4.608h7.595v-27.9a1.983,1.983,0,0,0-1.792-2.048H105.045Z" transform="translate(0)" fill="#555"></path>
    <path id="路径_1254" d="M640.469,789.632a1.283,1.283,0,0,1-.939-.341,1.237,1.237,0,0,1,0-1.792l7.851-8.022a1.267,1.267,0,0,1,1.792,1.792l-7.851,8.021a1.1,1.1,0,0,1-.853.341Z" transform="translate(-511.53 -707.711)" fill="#555"></path>
  </g>
</svg>
