<?xml version="1.0" encoding="UTF-8"?>
<svg xmlns="http://www.w3.org/2000/svg" width="43.179" height="47.787" viewBox="0 0 43.179 47.787">
  <g id="文档2" transform="translate(-100.693 -34.133)">
    <path id="路径_1255" d="M467.883,316.075h-19.03a3.423,3.423,0,0,1-3.413-3.413V285.014a3.423,3.423,0,0,1,3.413-3.413h19.115a3.423,3.423,0,0,1,3.413,3.413v27.648a3.555,3.555,0,0,1-3.5,3.413Z" transform="translate(-327.51 -235.094)" fill="#f57c14" opacity="0.3"></path>
    <path id="路径_1256" d="M136.96,81.92h-31.4a4.758,4.758,0,0,1-4.864-4.608V38.741a4.7,4.7,0,0,1,4.864-4.608h31.4a4.758,4.758,0,0,1,4.864,4.608V77.227a4.773,4.773,0,0,1-4.864,4.693Zm-31.4-45.227a2.2,2.2,0,0,0-2.3,2.048V77.227a2.2,2.2,0,0,0,2.3,2.048h31.4a2.2,2.2,0,0,0,2.3-2.048V38.741a2.2,2.2,0,0,0-2.3-2.048h-31.4Z" fill="#555"></path>
    <path id="路径_1257" d="M272.64,81.921a1.312,1.312,0,0,1-1.28-1.28V35.414a1.28,1.28,0,1,1,2.56,0V80.641A1.257,1.257,0,0,1,272.64,81.921Zm18.091-36.182h-9.045a1.28,1.28,0,1,1,0-2.56h9.045a1.312,1.312,0,0,1,1.28,1.28,1.257,1.257,0,0,1-1.28,1.28Zm0,9.045h-9.045a1.28,1.28,0,1,1,0-2.56h9.045a1.312,1.312,0,0,1,1.28,1.28,1.257,1.257,0,0,1-1.28,1.28Z" transform="translate(-162.133 -0.001)" fill="#555"></path>
  </g>
</svg>
