<?xml version="1.0" encoding="UTF-8"?>
<svg xmlns="http://www.w3.org/2000/svg" width="47.56" height="46.962" viewBox="0 0 47.56 46.962">
  <g id="新闻5" transform="translate(-34.133 -11.947)">
    <path id="路径_1309" d="M420.309,358.869m-14.123,0a14.123,14.123,0,1,0,14.123-14.123A14.123,14.123,0,0,0,406.186,358.869Z" transform="translate(-353.506 -316.209)" fill="#f57c14" opacity="0.3"></path>
    <path id="路径_1310" d="M77.182,118.907H38.727c-2.552,0-4.594-2.467-4.594-5.445V80.538c0-2.978,2.042-5.445,4.594-5.445H77.1c2.552,0,4.594,2.467,4.594,5.445v32.925c.085,2.978-1.957,5.445-4.509,5.445ZM38.727,77.645c-1.106,0-2.042,1.361-2.042,2.893v32.925c0,1.531.936,2.893,2.042,2.893H77.1c1.106,0,2.042-1.276,2.042-2.893V80.538c0-1.531-.936-2.893-2.042-2.893H38.727Z" transform="translate(0 -59.998)" fill="#555"></path>
    <path id="路径_1311" d="M59.733,25.3h45.091v2.552H59.733Zm10.294-4a1.308,1.308,0,0,1-1.276-1.276V13.223a1.276,1.276,0,0,1,2.552,0v6.806A1.308,1.308,0,0,1,70.028,21.305Zm12.251,0A1.308,1.308,0,0,1,81,20.029V13.223a1.276,1.276,0,0,1,2.552,0v6.806a1.308,1.308,0,0,1-1.276,1.276Zm12.251,0a1.308,1.308,0,0,1-1.276-1.276V13.223a1.276,1.276,0,1,1,2.552,0v6.806A1.308,1.308,0,0,1,94.53,21.305Z" transform="translate(-24.324 0)" fill="#555"></path>
    <path id="路径_1312" d="M148.48,503.722h1.957L153.329,509l1.021,2.127h.085c-.085-1.021-.255-2.3-.255-3.488v-3.913h1.872v9.869H154.01l-2.893-5.275-1.021-2.127h-.085c.085,1.106.255,2.3.255,3.488v4H148.48Zm9.954,0h6.04v1.616h-4.084v2.3h3.488v1.616h-3.488v2.637h4.254v1.616h-6.211v-9.784Zm7.232,0h2.042l.766,4.849c.17,1.021.34,2.127.425,3.148h.085c.17-1.021.425-2.127.6-3.148l1.191-4.849h1.7l1.191,4.849c.255,1.021.425,2.042.6,3.148h.085c.17-1.106.255-2.127.425-3.148l.766-4.849h1.872l-1.872,9.869h-2.467l-1.106-4.849a21.761,21.761,0,0,1-.425-2.3h-.085c-.17.766-.255,1.531-.425,2.3L170,513.591h-2.382Zm12.506,8.593,1.106-1.361a3.688,3.688,0,0,0,2.552,1.106c1.021,0,1.616-.425,1.616-1.106,0-.766-.6-.936-1.446-1.361l-1.361-.6a2.854,2.854,0,0,1-2.042-2.637,3.119,3.119,0,0,1,3.4-2.893,4.044,4.044,0,0,1,3.063,1.276l-1.021,1.276a3.182,3.182,0,0,0-2.127-.851c-.851,0-1.446.425-1.446,1.021,0,.681.681.936,1.531,1.276l1.276.51a2.759,2.759,0,0,1,1.957,2.722c0,1.616-1.361,2.978-3.658,2.978A4.74,4.74,0,0,1,178.172,512.315Z" transform="translate(-108.647 -467.018)" fill="#555"></path>
  </g>
</svg>
