<?xml version="1.0" encoding="UTF-8"?>
<svg xmlns="http://www.w3.org/2000/svg" width="46.025" height="47.379" viewBox="0 0 46.025 47.379">
  <g id="新闻4" transform="translate(-47.787 -34.133)">
    <path id="路径_1304" d="M403.164,345.137m-14.044,0a14.044,14.044,0,1,0,14.044-14.044,14.044,14.044,0,0,0-14.044,14.044Z" transform="translate(-324.412 -282.239)" fill="#f57c14" opacity="0.3"></path>
    <path id="路径_1305" d="M369.258,81.512c-4.315,0-6.345-7.53-7.191-12.014l-.254-1.607,1.607.085a89.607,89.607,0,0,0,11.675,0l1.607-.085L376.45,69.5C375.6,73.982,373.573,81.512,369.258,81.512ZM364.943,70.6c1.354,6.092,3.3,8.376,4.315,8.376s3.046-2.284,4.315-8.376A73.418,73.418,0,0,1,364.943,70.6ZM376.7,47.755,375.1,47.67a89.606,89.606,0,0,0-11.675,0l-1.608.085.254-1.607c.846-4.484,2.877-12.014,7.191-12.014s6.345,7.53,7.191,12.014Zm-7.445-11.083c-1.1,0-3.046,2.284-4.315,8.376a74.862,74.862,0,0,1,8.714,0C372.3,38.956,370.358,36.671,369.258,36.671Z" transform="translate(-298.459)" fill="#555"></path>
    <path id="路径_1306" d="M198.942,81.512c-6.6,0-12.606-4.992-15.567-12.944l-.761-2.115,2.2.423a79.757,79.757,0,0,0,28.342,0l2.2-.423-.761,2.115C211.548,76.52,205.541,81.512,198.942,81.512ZM186.589,69.836c2.792,5.668,7.361,9.137,12.352,9.137s9.56-3.469,12.352-9.137a86.322,86.322,0,0,1-24.7,0Zm28.766-20.644-2.2-.423a79.757,79.757,0,0,0-28.342,0l-2.2.423.761-2.115c2.961-7.953,8.968-12.944,15.567-12.944s12.606,4.992,15.567,12.944l.846,2.115ZM198.942,36.671c-4.992,0-9.56,3.469-12.352,9.137a80.08,80.08,0,0,1,24.62,0C208.5,40.14,203.933,36.671,198.942,36.671Z" transform="translate(-128.143)" fill="#555"></path>
    <path id="路径_1307" d="M70.8,81.512A23.618,23.618,0,0,1,48.971,66.96l-1.1-2.623,2.623.931A66.282,66.282,0,0,0,70.8,68.229,63.8,63.8,0,0,0,91.1,65.268l2.707-.931-1.1,2.623A23.822,23.822,0,0,1,70.8,81.512ZM52.525,68.567a21.249,21.249,0,0,0,36.549,0,71.65,71.65,0,0,1-18.275,2.2A71.65,71.65,0,0,1,52.525,68.567Zm41.2-17.259L91.1,50.377A66.282,66.282,0,0,0,70.8,47.416a63.8,63.8,0,0,0-20.305,2.961l-2.707.931,1.1-2.623a23.71,23.71,0,0,1,43.741,0l1.1,2.623ZM70.8,36.671A21.131,21.131,0,0,0,52.525,47.078a71.65,71.65,0,0,1,18.275-2.2,71.65,71.65,0,0,1,18.275,2.2A21.131,21.131,0,0,0,70.8,36.671Z" transform="translate(0)" fill="#555"></path>
    <path id="路径_1308" d="M102.4,397.907h2.284l3.215,5.922L109,406.2h.085c-.085-1.184-.254-2.623-.254-3.892v-4.4h2.031V408.99h-2.284l-3.215-5.922-1.1-2.369h-.085c.085,1.184.254,2.623.254,3.892v4.4H102.4Zm11.168,0h6.768v1.861h-4.569v2.538h3.892v1.861h-3.892v2.961h4.738v1.861h-6.938V397.907Zm8.122,0h2.284l.846,5.415.508,3.553h.085c.254-1.184.423-2.369.677-3.553l1.269-5.415h1.861l1.269,5.415c.254,1.1.423,2.369.677,3.553h.085l.508-3.553.846-5.415h2.115l-2.031,11.083H129.9l-1.269-5.5-.508-2.538h-.085l-.508,2.538-1.184,5.5h-2.707l-1.946-11.083Zm13.96,9.645,1.269-1.523a4.136,4.136,0,0,0,2.792,1.184c1.184,0,1.777-.508,1.777-1.269,0-.846-.677-1.1-1.692-1.523l-1.438-.592a3.216,3.216,0,0,1-2.284-2.961c0-1.777,1.607-3.215,3.807-3.215a4.936,4.936,0,0,1,3.469,1.438l-1.1,1.354a3.474,3.474,0,0,0-2.369-.931c-.931,0-1.607.423-1.607,1.184s.761,1.1,1.692,1.438l1.438.592a3.1,3.1,0,0,1,2.2,3.046c0,1.777-1.523,3.384-4.061,3.384A5.3,5.3,0,0,1,135.65,407.552Z" transform="translate(-51.906 -345.499)" fill="#555"></path>
  </g>
</svg>
