<?xml version="1.0" encoding="UTF-8"?>
<svg xmlns="http://www.w3.org/2000/svg" width="42.161" height="50.885" viewBox="0 0 42.161 50.885">
  <g id="新闻6" transform="translate(-115.993 -34.037)">
    <path id="路径_1313" d="M213.055,137.962m-15.082,0a15.082,15.082,0,1,0,15.082-15.082,15.082,15.082,0,0,0-15.082,15.082Z" transform="translate(-77.616 -84.114)" fill="#f57c14" opacity="0.3"></path>
    <path id="路径_1314" d="M142.8,79.47h-11.63a4.886,4.886,0,0,1-4.906-4.906v-1.09A20.882,20.882,0,0,1,116,55.575a21.081,21.081,0,1,1,42.157-.454A20.625,20.625,0,0,1,147.8,73.474v1.09a4.964,4.964,0,0,1-5,4.906Zm-5.815-42.7a16.729,16.729,0,0,0-3,.273,18.326,18.326,0,0,0-15.264,18.444,17.859,17.859,0,0,0,9.54,15.9l.727.363v2.726a2.211,2.211,0,0,0,2.181,2.181H142.8a2.211,2.211,0,0,0,2.181-2.181V71.747l.727-.363a18.032,18.032,0,0,0,9.631-16.354,18.526,18.526,0,0,0-6.451-13.992,18.717,18.717,0,0,0-11.9-4.27Zm6.269,48.154H130.9a1.363,1.363,0,0,1,0-2.726h12.357a1.363,1.363,0,1,1,0,2.726Z" transform="translate(0 0)" fill="#555"></path>
    <path id="路径_1315" d="M247.915,189.018a.546.546,0,0,1-.363-.091,1.4,1.4,0,0,1-.909-1.726c2.271-7.359,8.177-8.177,8.359-8.177a1.375,1.375,0,1,1,.363,2.726c-.182,0-4.361.727-6.178,6.36a1.211,1.211,0,0,1-1.272.909Z" transform="translate(-123.651 -137.259)" fill="#555"></path>
  </g>
</svg>
