<?xml version="1.0" encoding="UTF-8"?>
<svg xmlns="http://www.w3.org/2000/svg" width="52.099" height="50.885" viewBox="0 0 52.099 50.885">
  <g id="新闻3" transform="translate(-34.133 -46.08)">
    <path id="路径_1299" d="M251.077,455.057H217.061a3.739,3.739,0,0,1-3.728-3.728V433.808a3.739,3.739,0,0,1,3.728-3.728h34.016a3.739,3.739,0,0,1,3.728,3.728v17.521A3.739,3.739,0,0,1,251.077,455.057Z" transform="translate(-169.415 -363.031)" fill="#f57c14" opacity="0.3"></path>
    <path id="路径_1300" d="M140.168,570.119l2.8,4.846.652-4.846h2.237l-1.025,7.735h-2.609l-2.609-4.753-.652,4.753h-2.423l1.025-7.269-.559-.559h3.169Zm15.1,0-.093,1.3h-4.38l-.28,1.678h4.1l-.093,1.3h-4.194l-.28,2.143h4.567l-.093,1.3h-7.362l1.025-7.269-.373-.559h7.456Zm5.685.28h2.143l.373,4.473,1.864-4.753h2.237l-3.169,7.735h-2.33l-.559-3.821-1.584,3.821H157.6l-.932-7.549-.28-.28H158.9l.373,4.753Zm13.234,5.871.28-1.584h-5.312l.652-4.567h7.735l-.28,2.237H174.65l.093-.932h-2.516l-.373,1.957h5.312l-.559,3.635a.56.56,0,0,1-.093.373c-.093.093-.093.186-.28.28s-.186.186-.373.186c-.093,0-.28.093-.373.093h-6.8l.28-2.143.373.559h4.846Z" transform="translate(-96.808 -495.335)" fill="#555"></path>
    <path id="路径_1301" d="M81.29,369.641H39.166a4.823,4.823,0,0,1-5.033-4.66V339.166a4.823,4.823,0,0,1,5.033-4.66H81.2a4.823,4.823,0,0,1,5.033,4.66v25.908a4.668,4.668,0,0,1-4.939,4.567ZM39.166,337.3a2.094,2.094,0,0,0-2.237,1.864v25.908a2.094,2.094,0,0,0,2.237,1.864H81.2a2.094,2.094,0,0,0,2.237-1.864V339.166A2.094,2.094,0,0,0,81.2,337.3Z" transform="translate(0 -272.677)" fill="#555"></path>
    <path id="路径_1302" d="M272.973,146.924l1.978-1.977,10.676,10.676-1.978,1.977Zm-15.079,8.743,10.676-10.676,1.977,1.977-10.676,10.676Z" transform="translate(-211.542 -93.469)" fill="#555"></path>
    <path id="路径_1303" d="M439.394,54.468a4.194,4.194,0,1,1,4.194-4.194A4.176,4.176,0,0,1,439.394,54.468Zm0-5.592a1.4,1.4,0,1,0,1.4,1.4A1.433,1.433,0,0,0,439.394,48.876Z" transform="translate(-379.166)" fill="#555"></path>
  </g>
</svg>
