<?xml version="1.0" encoding="UTF-8"?>
<svg xmlns="http://www.w3.org/2000/svg" width="60.117" height="50.885" viewBox="0 0 60.117 50.885">
  <g id="新闻1" transform="translate(-34.133 -107.52)">
    <path id="路径_1291" d="M97.9,242.211h-42.4a4.307,4.307,0,0,1-4.294-4.294v-20.29a4.307,4.307,0,0,1,4.294-4.294H97.9a4.307,4.307,0,0,1,4.294,4.294v20.182a4.331,4.331,0,0,1-4.294,4.4Z" transform="translate(-15.993 -99.157)" fill="#f57c14" opacity="0.3"></path>
    <path id="路径_1292" d="M88.346,151H40.038a5.957,5.957,0,0,1-5.9-5.9V113.425a5.957,5.957,0,0,1,5.9-5.9H88.346a5.957,5.957,0,0,1,5.9,5.9v31.669a5.957,5.957,0,0,1-5.9,5.9ZM40.038,110.741a2.658,2.658,0,0,0-2.684,2.684v31.669a2.658,2.658,0,0,0,2.684,2.684H88.346a2.658,2.658,0,0,0,2.684-2.684V113.425a2.658,2.658,0,0,0-2.684-2.684H40.038Zm43.37,47.664H44.976a1.61,1.61,0,1,1,0-3.221H83.515a1.651,1.651,0,0,1,1.61,1.61,1.675,1.675,0,0,1-1.718,1.61Z" fill="#555"></path>
    <path id="路径_1293" d="M191.254,346.668h2.254l3.221,5.8,1.074,2.362h.107c-.107-1.181-.322-2.576-.322-3.865v-4.4h2.04v10.95h-2.254l-3.221-5.9-1.074-2.362h-.107c.107,1.181.215,2.576.215,3.865v4.4h-2.04V346.668Zm11.057,0h6.763v1.825h-4.509v2.576h3.865v1.825h-3.865v2.9h4.616v1.825h-6.871Zm8.051,0h2.254l.859,5.368c.215,1.181.322,2.362.537,3.543h.107l.644-3.543,1.288-5.368h1.825l1.288,5.368c.215,1.074.429,2.362.644,3.543h.107c.215-1.181.322-2.362.537-3.543l.859-5.368h2.04l-2.04,10.95h-2.684l-1.181-5.368a21.5,21.5,0,0,1-.429-2.576h-.107c-.107.859-.322,1.718-.429,2.576l-1.181,5.368h-2.9l-2.04-10.95Zm13.848,9.554,1.288-1.5a4.09,4.09,0,0,0,2.791,1.181c1.181,0,1.718-.537,1.718-1.288,0-.859-.644-1.074-1.61-1.5l-1.5-.537a3.262,3.262,0,0,1-2.254-2.9c0-1.825,1.61-3.221,3.757-3.221a4.966,4.966,0,0,1,3.435,1.4l-1.074,1.4a3.537,3.537,0,0,0-2.362-.859c-.966,0-1.61.429-1.61,1.181s.751,1.074,1.718,1.4l1.4.644a3.123,3.123,0,0,1,2.254,3.006c0,1.825-1.5,3.328-4.079,3.328a6.07,6.07,0,0,1-3.865-1.718Z" transform="translate(-147.137 -223.904)" fill="#555"></path>
  </g>
</svg>
