<?xml version="1.0" encoding="UTF-8"?>
<svg xmlns="http://www.w3.org/2000/svg" width="51.157" height="50.885" viewBox="0 0 51.157 50.885">
  <g id="新闻2" transform="translate(-32.427 -34.133)">
    <path id="路径_1294" d="M78.408,280.443H51.421a3.645,3.645,0,0,1-3.635-3.635V259.635A3.645,3.645,0,0,1,51.421,256H78.408a3.645,3.645,0,0,1,3.635,3.635v17.083a3.666,3.666,0,0,1-3.635,3.725Z" transform="translate(-14.542 -210.054)" fill="#f57c14" opacity="0.3"></path>
    <path id="路径_1295" d="M76.588,220.746H37.334a4.886,4.886,0,0,1-4.907-4.907V180.674a3.219,3.219,0,0,1,3.18-3.18H69.046a3.219,3.219,0,0,1,3.18,3.18l-.108,21.535H69.4l.1-21.535a.429.429,0,0,0-.454-.454H35.516a.429.429,0,0,0-.454.454v35.165a2.211,2.211,0,0,0,2.181,2.181H76.5v2.726Z" transform="translate(0 -135.728)" fill="#555"></path>
    <path id="路径_1296" d="M204.144,85.018a7.3,7.3,0,0,1-7.088-7.451V63.574h2.726V77.567a4.376,4.376,0,1,0,8.723,0V37.314a.429.429,0,0,0-.454-.454H174.613a.429.429,0,0,0-.454.454V43.22h-2.726V37.314a3.282,3.282,0,0,1,3.18-3.18h33.439a3.219,3.219,0,0,1,3.18,3.18V77.567a7.3,7.3,0,0,1-7.088,7.451ZM167.253,49.126h1.636l1.726,3.271.636,1.545h.091a24.173,24.173,0,0,1-.273-2.544V49.126h1.545v6.815h-1.636l-1.726-3.271-.636-1.545h-.091a22.337,22.337,0,0,1,.182,2.544v2.272h-1.454Z" transform="translate(-127.648)" fill="#555"></path>
    <path id="路径_1297" d="M298.667,312.5h4.362v1.363H300.3v1.272h2.272V316.5H300.3v1.454h2.817v1.363h-4.452Zm5.179,0h1.636l.454,3.089.273,2.181c.091-.727.273-1.454.363-2.181l.727-3.089h1.363l.727,3.089a18.2,18.2,0,0,1,.363,2.181h.091l.273-2.181.454-3.089h1.545l-1.181,6.815h-2.09l-.636-3-.273-1.636h-.091l-.273,1.636-.454,3h-2Zm8.814,6,.909-1.09a2.443,2.443,0,0,0,1.636.727c.636,0,.909-.273.909-.636s-.363-.545-1-.818l-.909-.363a1.993,1.993,0,0,1-1.363-1.908,2.217,2.217,0,0,1,2.453-2.09,3.154,3.154,0,0,1,2.272.909l-.818,1a2.228,2.228,0,0,0-1.454-.545q-.818,0-.818.545c0,.363.454.545,1,.727l.818.363a1.964,1.964,0,0,1,1.363,1.908,2.346,2.346,0,0,1-2.635,2.181A3.693,3.693,0,0,1,312.66,318.5Z" transform="translate(-252.065 -263.375)" fill="#555"></path>
    <path id="路径_1298" d="M183.234,542.033H161.79a1.363,1.363,0,0,1,0-2.726h21.444a1.363,1.363,0,0,1,0,2.726Zm0,7.451H161.79a1.363,1.363,0,0,1,0-2.726h21.444a1.363,1.363,0,0,1,0,2.726Zm0,7.451H161.79a1.363,1.363,0,1,1,0-2.726h21.444a1.363,1.363,0,1,1,0,2.726Z" transform="translate(-121.185 -478.278)" fill="#555"></path>
  </g>
</svg>
