<?xml version="1.0" encoding="UTF-8"?>
<svg xmlns="http://www.w3.org/2000/svg" width="78.677" height="93.23" viewBox="0 0 78.677 93.23">
  <g id="组_14" transform="translate(-675 -414)">
    <g id="组_3" transform="translate(699.838 435.336)">
      <path id="路径_7" d="M425.959,351.872H403.11a3.136,3.136,0,0,1,0-6.272h22.856a3.136,3.136,0,1,1-.006,6.272Z" transform="translate(-399.974 -345.6)" fill="#4891ff"></path>
      <path id="路径_8" d="M425.959,484.582H403.11a3.136,3.136,0,1,1,0-6.272h22.856a3.136,3.136,0,1,1-.006,6.272Z" transform="translate(-399.974 -462.053)" fill="#4891ff"></path>
    </g>
    <g id="路径_33" transform="translate(675 414)" fill="none">
      <path d="M15.935,0H62.743A15.935,15.935,0,0,1,78.677,15.935V76.686c0,8.8-7.279,19.185-15.935,15.935S42,75.005,38.754,75.005,23.814,88.911,15.225,92.3,0,85.486,0,76.686V15.935A15.935,15.935,0,0,1,15.935,0Z" stroke="none"></path>
      <path d="M 15.93466567993164 6.5 C 10.73238372802734 6.5 6.500007629394531 10.73237609863281 6.500007629394531 15.93465423583984 L 6.500007629394531 76.68553924560547 C 6.500007629394531 81.53827667236328 9.626029968261719 86.46761322021484 12.83878326416016 86.25503540039062 C 16.47416305541992 84.82007598876953 21.93646240234375 79.9610595703125 25.92484283447266 76.41313934326172 C 31.65714263916016 71.31393432617188 34.81476593017578 68.50505828857422 38.7544059753418 68.50505828857422 C 42.67848587036133 68.50505828857422 45.85086441040039 71.33226013183594 51.60990142822266 76.46469879150391 C 55.72782135009766 80.13457489013672 61.36752319335938 85.16063690185547 65.99590301513672 86.73001861572266 C 68.58094787597656 86.73001861572266 72.17736053466797 81.66843414306641 72.17736053466797 76.68553924560547 L 72.17736053466797 15.93465423583984 C 72.17736053466797 10.73237609863281 67.94498443603516 6.5 62.74270629882812 6.5 L 15.93466567993164 6.5 M 15.93466567993164 0 L 62.74270629882812 0 C 71.54318237304688 0 78.67736053466797 7.134178161621094 78.67736053466797 15.93465423583984 L 78.67736053466797 76.68553924560547 C 78.67736053466797 85.48599243164062 71.39807891845703 95.87035369873047 62.74270629882812 92.62019348144531 C 54.08734130859375 89.37004089355469 42.00090408325195 75.00505828857422 38.7544059753418 75.00505828857422 C 35.50790405273438 75.00505828857422 23.81372451782227 88.91103363037109 15.22528457641602 92.30107879638672 C 6.636856079101562 95.69109344482422 7.62939453125e-06 85.48599243164062 7.62939453125e-06 76.68553924560547 L 7.62939453125e-06 15.93465423583984 C 7.62939453125e-06 7.134178161621094 7.134185791015625 0 15.93466567993164 0 Z" stroke="none" fill="#4d5156"></path>
    </g>
  </g>
</svg>
