<?xml version="1.0" encoding="UTF-8"?>
<svg xmlns="http://www.w3.org/2000/svg" width="69.15" height="45.876" viewBox="0 0 69.15 45.876">
  <g id="游戏" transform="translate(-106.667 -216.427)">
    <path id="路径_910" d="M613.979,453.346H603.633a1.82,1.82,0,1,1,0-3.64h10.345a1.82,1.82,0,0,1,0,3.64Z" transform="translate(-452.91 -213.38)" fill="#fc9015"></path>
    <path id="路径_911" d="M664.219,402.144a1.82,1.82,0,0,1-1.82-1.82V389.979a1.82,1.82,0,0,1,3.64,0v10.345a1.82,1.82,0,0,1-1.82,1.82Z" transform="translate(-508.328 -157.084)" fill="#fc9015"></path>
    <path id="路径_912" d="M164.835,262.3a16.887,16.887,0,0,1-13.867-7.343H131.516a16.887,16.887,0,0,1-13.867,7.343,10.991,10.991,0,0,1-10.982-10.982V235.689a19.289,19.289,0,0,1,19.262-19.262h30.626a19.289,19.289,0,0,1,19.262,19.262v15.632A10.991,10.991,0,0,1,164.835,262.3Zm-35.358-10.982h23.529l.528.91a13.029,13.029,0,0,0,11.3,6.46,7.352,7.352,0,0,0,7.343-7.37V235.689a15.641,15.641,0,0,0-15.623-15.623H125.929a15.641,15.641,0,0,0-15.623,15.623v15.632a7.352,7.352,0,0,0,7.343,7.343,13.029,13.029,0,0,0,11.3-6.46Z" fill="#555"></path>
    <path id="路径_913" d="M265.13,402.048a7,7,0,1,1,7-6.988A7,7,0,0,1,265.13,402.048Zm0-10.345a3.357,3.357,0,1,0,3.357,3.357A3.357,3.357,0,0,0,265.13,391.7Z" transform="translate(-138.546 -156.987)" fill="#fc9015"></path>
  </g>
</svg>
