<?xml version="1.0" encoding="UTF-8"?>
<svg xmlns="http://www.w3.org/2000/svg" width="53.512" height="58.113" viewBox="0 0 53.512 58.113">
  <g id="火车" transform="translate(-170.705 -133.333)">
    <path id="路径_825" d="M210.837,705H184.08a1.672,1.672,0,1,1,0-3.345h26.757a1.672,1.672,0,0,1,0,3.345Zm11.706,2.508a1.672,1.672,0,0,1-1.329-.652l-8.362-10.87a1.676,1.676,0,1,1,2.659-2.04l8.362,10.87a1.672,1.672,0,0,1-.309,2.341A1.605,1.605,0,0,1,222.543,707.506Zm-50.169,0A1.673,1.673,0,0,1,171,704.881l7.525-10.87a1.672,1.672,0,0,1,2.743,1.906l-7.525,10.87A1.672,1.672,0,0,1,172.374,707.506Z" transform="translate(0 -516.061)" fill="#fc9015"></path>
    <path id="路径_826" d="M290.282,244.474H263.525c-4.356,0-7.525-2.809-7.525-6.689V209.356a6.689,6.689,0,0,1,6.689-6.689h26.757a6.689,6.689,0,0,1,6.689,6.689v28.429c0,3.83-3.094,6.689-5.853,6.689Zm-27.593-38.463a3.345,3.345,0,0,0-3.345,3.345v28.429c0,2,1.672,3.345,4.181,3.345h26.757c.836,0,2.508-1.38,2.508-3.345V209.356a3.345,3.345,0,0,0-3.345-3.345Z" transform="translate(-78.609 -63.899)" fill="#555"></path>
    <path id="路径_827" d="M367.57,142.113H351.683V137.3a3.972,3.972,0,0,1,3.972-3.972H363.6a3.972,3.972,0,0,1,3.972,3.972Zm-12.542-3.345h9.2V137.3a.635.635,0,0,0-.627-.627h-7.943a.636.636,0,0,0-.627.627Zm12.542,25.921H351.683a5.017,5.017,0,0,1-5.017-5.017V151.31a5.017,5.017,0,0,1,5.017-5.017H367.57a5.017,5.017,0,0,1,5.017,5.017v8.362a5.017,5.017,0,0,1-5.017,5.017Zm-15.887-15.051a1.672,1.672,0,0,0-1.672,1.672v8.362a1.672,1.672,0,0,0,1.672,1.672H367.57a1.672,1.672,0,0,0,1.672-1.672V151.31a1.672,1.672,0,0,0-1.672-1.672Z" transform="translate(-162.168)" fill="#555"></path>
  </g>
</svg>
