<?xml version="1.0" encoding="UTF-8"?>
<svg xmlns="http://www.w3.org/2000/svg" width="65.249" height="65.834" viewBox="0 0 65.249 65.834">
  <g id="点赞" transform="translate(-197.333 -196.068)">
    <path id="路径_802" d="M306.206,505A2.206,2.206,0,0,1,304,502.792v-25.92a2.206,2.206,0,1,1,4.412,0v25.92A2.206,2.206,0,0,1,306.206,505Z" transform="translate(-95.637 -249.79)" fill="#fc9015"></path>
    <path id="路径_803" d="M220.33,261.9c-5.879,0-10.522-.066-10.941-.077-5.515,0-12.055-2.746-12.055-10.478V227.082c0-1.423,0-4.754,2.537-7.125,1.831-1.71,4.511-2.471,7.974-2.206h7.842c6.166-3.408,9.574-8.68,11.327-17.526a5.007,5.007,0,0,1,3.6-3.849c3.11-.949,7.258.353,10.081,3.154a11.184,11.184,0,0,1,2.68,11.68,24.575,24.575,0,0,1-3.2,6.5h12.21c2.8.176,6.772.772,8.824,3.827,3.1,4.6.651,11.923-4.213,26.471l-.221.684c-2.482,7.445-7.456,11.89-14.019,12.53-5.36.607-14.912.684-22.423.684Zm-13.622-39.784a5.658,5.658,0,0,0-3.827,1.1c-1.1,1.1-1.1,2.912-1.1,3.9v24.265c0,2.206.993,6.066,7.721,6.066.276,0,23.581.364,32.923-.54,6.044-.585,8.912-5.515,10.247-9.53l.232-.684c3.982-11.956,6.618-19.853,4.732-22.655-.728-1.1-2.482-1.7-5.382-1.886H235.793a2.206,2.206,0,0,1-1.71-3.6c3.529-4.412,4.577-7,5.063-8.614a6.882,6.882,0,0,0-1.555-7.335c-1.809-1.8-4.412-2.471-5.691-2.063-.474.143-.518.342-.54.485-2.074,10.368-6.408,16.8-14.074,20.824a2.206,2.206,0,0,1-1.026.254Z" transform="translate(0 0)" fill="#555"></path>
  </g>
</svg>
