<?xml version="1.0" encoding="UTF-8"?>
<svg xmlns="http://www.w3.org/2000/svg" width="46.219" height="58.833" viewBox="0 0 46.219 58.833">
  <g id="热点" transform="translate(-235.661 -160.92)">
    <path id="路径_847" d="M258.725,219.753a23.1,23.1,0,0,1-19.061-36.1l.071-.1c3.695-4.7,5.217-8.992,4.523-12.74a10.407,10.407,0,0,0-4.371-6.526,1.782,1.782,0,0,1,.766-3.3c12.784-1.033,18.963,10.372,21.349,16.595,2.2-5.618.285-12.624.267-12.7a1.781,1.781,0,0,1,2.671-1.976c17.806,11.511,16.986,32.29,16.915,33.83A23.147,23.147,0,0,1,258.725,219.753Zm-16.15-34.044a19.533,19.533,0,1,0,35.736,10.941v-.107c0-.187.89-17.147-11.8-28.053.392,4.1.134,10.131-3.632,14.52a1.781,1.781,0,0,1-3.089-.757,33.894,33.894,0,0,0-4.14-9.562c-2.8-4.345-6.232-6.98-10.185-7.87a13.22,13.22,0,0,1,2.306,5.342c.864,4.781-.872,10.016-5.2,15.544Z" fill="#555"></path>
    <path id="路径_848" d="M410.814,657.44a9.223,9.223,0,0,1-9.214-9.259,1.781,1.781,0,1,1,3.561,0,5.653,5.653,0,0,0,11.307,0,1.781,1.781,0,1,1,3.561,0,9.223,9.223,0,0,1-9.214,9.259Z" transform="translate(-152.088 -444.961)" fill="#fc9015"></path>
  </g>
</svg>
