<?xml version="1.0" encoding="UTF-8"?>
<svg xmlns="http://www.w3.org/2000/svg" width="61.51" height="61.502" viewBox="0 0 61.51 61.502">
  <g id="电话" transform="translate(-146.898 -176.533)">
    <path id="路径_804" d="M161.35,180.263a3.73,3.73,0,0,1,2.639,1.091l3.963,3.991a3.73,3.73,0,0,1,0,5.278l-4.112,4.047-2,2,1.389,2.471a72.02,72.02,0,0,0,22.519,22.575l2.471,1.389,2-2,4.122-4.112a3.73,3.73,0,0,1,5.259,0l3.972,3.963a3.73,3.73,0,0,1,0,5.268l-6.369,6.359-.149.131-.168.149-.159.168a1.868,1.868,0,0,0-.168.2,5.287,5.287,0,0,1-3.674,1.1c-5.753-.028-16.3-4.774-26.911-15.4-12.467-12.448-17.633-25.951-14.472-30.268l.093-.131.047-.075,7.087-7.087a3.73,3.73,0,0,1,2.63-1.091m0-3.73a7.46,7.46,0,0,0-5.268,2.182l-7.18,7.18a2.61,2.61,0,0,0-.42.55c-4.784,6.527,1.585,21.866,14.854,35.126,10.257,10.257,21.829,16.449,29.541,16.449a8.719,8.719,0,0,0,6.387-2.266c.084-.084.149-.177.224-.261s.149-.112.214-.177l6.527-6.527a7.46,7.46,0,0,0,0-10.537l-3.963-3.972a7.46,7.46,0,0,0-10.537,0l-4.122,4.112a67.25,67.25,0,0,1-21.13-21.055l4.1-4.112a7.46,7.46,0,0,0,0-10.546l-3.954-3.963a7.46,7.46,0,0,0-5.278-2.182Z" fill="#555"></path>
    <path id="路径_805" d="M512.041,241.663h-.168a1.865,1.865,0,0,1-1.688-2.033,20.971,20.971,0,0,0-22.845-22.845,1.873,1.873,0,1,1-.345-3.73,24.692,24.692,0,0,1,26.892,26.911,1.865,1.865,0,0,1-1.846,1.7Z" transform="translate(-308.813 -33.23)" fill="#fc9015"></path>
    <path id="路径_806" d="M502.617,339.444a1.619,1.619,0,0,1-.3,0,1.865,1.865,0,0,1-1.548-2.135,11.619,11.619,0,0,0-13.334-13.334,1.865,1.865,0,1,1-.587-3.683,15.348,15.348,0,0,1,17.605,17.577,1.865,1.865,0,0,1-1.837,1.576Z" transform="translate(-308.798 -131.011)" fill="#fc9015"></path>
  </g>
</svg>
