<?xml version="1.0" encoding="UTF-8"?>
<svg xmlns="http://www.w3.org/2000/svg" width="62.295" height="54.286" viewBox="0 0 62.295 54.286">
  <g id="相机" transform="translate(-138.667 -186.659)">
    <path id="路径_903" d="M336.019,394.7a16.019,16.019,0,1,1,16.019-16.019A16.019,16.019,0,0,1,336.019,394.7Zm0-28.477a12.459,12.459,0,1,0,12.459,12.459A12.459,12.459,0,0,0,336.019,366.227Z" transform="translate(-166.205 -161.324)" fill="#555"></path>
    <path id="路径_904" d="M227.56,359.119a3.56,3.56,0,1,1,3.56-3.56A3.56,3.56,0,0,1,227.56,359.119ZM227.56,355.559Z" transform="translate(-78.214 -151.546)" fill="#fc9015"></path>
    <path id="路径_905" d="M193.842,240.945H145.786a7.119,7.119,0,0,1-7.119-7.119V200.9a7.119,7.119,0,0,1,7.119-7.119H157.72l1.326-5.74a1.78,1.78,0,0,1,1.78-1.379h18.065a1.78,1.78,0,0,1,1.78,1.379l1.326,5.74h11.845a7.119,7.119,0,0,1,7.119,7.119v32.927A7.119,7.119,0,0,1,193.842,240.945Zm-48.056-43.606a3.56,3.56,0,0,0-3.56,3.56v32.927a3.56,3.56,0,0,0,3.56,3.56h48.056a3.56,3.56,0,0,0,3.56-3.56V200.9a3.56,3.56,0,0,0-3.56-3.56H180.493a1.78,1.78,0,0,1-1.78-1.379l-1.281-5.74H162.2L160.915,196a1.78,1.78,0,0,1-1.78,1.379Z" transform="translate(0)" fill="#555"></path>
  </g>
</svg>
