<?xml version="1.0" encoding="UTF-8"?>
<svg xmlns="http://www.w3.org/2000/svg" width="49.071" height="46.647" viewBox="0 0 49.071 46.647">
  <g id="知识库1" transform="translate(-34.133 -57.439)">
    <path id="路径_1316" d="M248.154,369.587H225.371a3.515,3.515,0,0,1-3.505-3.505V349.958a3.515,3.515,0,0,1,3.505-3.505h22.783a3.515,3.515,0,0,1,3.505,3.505v16.123a3.46,3.46,0,0,1-3.505,3.505Z" transform="translate(-178.094 -274.175)" fill="#f57c14" opacity="0.3"></path>
    <path id="路径_1317" d="M58.669,104.086h-.263l-19.541-3.856a5.727,5.727,0,0,1-4.732-5.608V63.253a5.878,5.878,0,0,1,2.1-4.469,5.6,5.6,0,0,1,4.819-1.227l9.726,1.84a1.34,1.34,0,1,1-.526,2.629l-9.726-1.84a3.208,3.208,0,0,0-2.629.7,2.95,2.95,0,0,0-1.139,2.366V94.535A3.1,3.1,0,0,0,39.3,97.6l19.628,3.768a1.375,1.375,0,0,1-.263,2.716Z" fill="#555"></path>
    <path id="路径_1318" d="M487.087,105.7a1.4,1.4,0,0,1-1.314-1.052,1.365,1.365,0,0,1,1.052-1.577l19.628-3.768a3.1,3.1,0,0,0,2.541-3.067V64.871a3.26,3.26,0,0,0-1.139-2.454,3.129,3.129,0,0,0-2.629-.7L489.19,64.871a.932.932,0,0,0-.789.876V91.6a1.314,1.314,0,0,1-2.629,0V65.835a3.643,3.643,0,0,1,2.892-3.505l16.123-3.067a5.687,5.687,0,0,1,6.835,5.608V96.154a5.82,5.82,0,0,1-4.732,5.7l-19.628,3.768C487.262,105.7,487.174,105.7,487.087,105.7Z" transform="translate(-428.418 -1.619)" fill="#555"></path>
    <path id="路径_1319" d="M625.246,307.634a1.4,1.4,0,0,1-1.314-1.052,1.3,1.3,0,0,1,1.052-1.577l9.113-1.928a1.34,1.34,0,0,1,.526,2.629l-9.113,1.928Zm0,8.412a1.4,1.4,0,0,1-1.314-1.052,1.3,1.3,0,0,1,1.052-1.577l9.113-1.928a1.3,1.3,0,0,1,1.577,1.051,1.263,1.263,0,0,1-1.052,1.577l-9.113,1.928Z" transform="translate(-559.479 -232.99)" fill="#555"></path>
    <path id="路径_1320" d="M180.889,308.138h-.263l-9.113-1.928a1.442,1.442,0,0,1-1.051-1.577,1.388,1.388,0,0,1,1.577-1.052l9.113,1.928a1.441,1.441,0,0,1,1.051,1.577A1.3,1.3,0,0,1,180.889,308.138Zm0,8.412h-.263l-9.113-1.928a1.34,1.34,0,0,1,.526-2.629l9.113,1.928A1.441,1.441,0,0,1,182.2,315.5,1.4,1.4,0,0,1,180.889,316.55Z" transform="translate(-129.318 -233.494)" fill="#555"></path>
  </g>
</svg>
