<?xml version="1.0" encoding="UTF-8"?>
<svg xmlns="http://www.w3.org/2000/svg" width="44.463" height="40.962" viewBox="0 0 44.463 40.962">
  <g id="知识库5" transform="translate(-33.96 -71.68)">
    <path id="路径_1331" d="M420.436,505.65H401.781a4.1,4.1,0,0,1-4.128-4.128v-12.7a4.1,4.1,0,0,1,4.128-4.128h18.655a4.1,4.1,0,0,1,4.128,4.128v12.7A4.1,4.1,0,0,1,420.436,505.65Z" transform="translate(-346.776 -393.802)" fill="#f57c14" opacity="0.3"></path>
    <path id="路径_1332" d="M571.535,112.641h-5.557a2.813,2.813,0,0,1-2.778-2.778v-35.4a2.813,2.813,0,0,1,2.778-2.778h5.557a2.813,2.813,0,0,1,2.778,2.778v35.484a2.7,2.7,0,0,1-2.778,2.7Zm-5.477-38.58a.375.375,0,0,0-.4.4v35.484a.375.375,0,0,0,.4.4h5.557a.375.375,0,0,0,.4-.4V74.458a.375.375,0,0,0-.4-.4h-5.557Z" transform="translate(-504.623)" fill="#555"></path>
    <path id="路径_1333" d="M759.268,112.641h-5.557a2.813,2.813,0,0,1-2.778-2.778v-35.4a2.813,2.813,0,0,1,2.778-2.778h5.557a2.813,2.813,0,0,1,2.778,2.778v35.484a2.745,2.745,0,0,1-2.778,2.7Zm-5.557-38.58a.375.375,0,0,0-.4.4v35.484a.375.375,0,0,0,.4.4h5.557a.375.375,0,0,0,.4-.4V74.458a.375.375,0,0,0-.4-.4h-5.557Z" transform="translate(-683.624)" fill="#555"></path>
    <path id="路径_1334" d="M590.507,186.027h17.385v2.381H590.507Z" transform="translate(-530.66 -109.029)" fill="#555"></path>
    <path id="路径_1335" d="M41.827,120.3a2.536,2.536,0,0,1-1.111-.238l-5.081-2.223a2.732,2.732,0,0,1-1.429-3.652L48.5,81.715a2.732,2.732,0,0,1,3.652-1.429l5.081,2.223a3.1,3.1,0,0,1,1.508,1.508,2.865,2.865,0,0,1-.079,2.143L44.368,118.628a3.1,3.1,0,0,1-1.508,1.508A5.464,5.464,0,0,1,41.827,120.3Zm-.159-2.461c.159.079.238,0,.318,0s.159-.079.238-.238L56.513,85.129c.079-.159,0-.238,0-.318s-.079-.159-.238-.238L51.194,82.35c-.238-.079-.4,0-.556.238L36.35,115.136c-.079.238,0,.4.238.556l5.081,2.143Z" transform="translate(0 -7.972)" fill="#555"></path>
    <path id="路径_1336" d="M328.994,171.751,330,169.592l7.916,3.687-1.006,2.159Z" transform="translate(-281.311 -93.358)" fill="#555"></path>
  </g>
</svg>
