<?xml version="1.0" encoding="UTF-8"?>
<svg xmlns="http://www.w3.org/2000/svg" width="40.545" height="49.792" viewBox="0 0 40.545 49.792">
  <g id="知识库4" transform="translate(-124.586 -34.133)">
    <path id="路径_1328" d="M172.932,427.173H152.037a3.567,3.567,0,0,1-3.557-3.557V401.21a3.567,3.567,0,0,1,3.557-3.557h20.806a3.567,3.567,0,0,1,3.557,3.557v22.406a3.437,3.437,0,0,1-3.468,3.557Z" transform="translate(-22.649 -344.582)" fill="#f57c14" opacity="0.3"></path>
    <path id="路径_1329" d="M163.708,83.925h-33.7a5.439,5.439,0,0,1-5.335-4.357,1.128,1.128,0,0,1-.089-.533v-40.1a4.781,4.781,0,0,1,4.8-4.8H160.33a4.781,4.781,0,0,1,4.8,4.8V75.656H130.01a2.756,2.756,0,1,0,0,5.513h33.7a1.367,1.367,0,0,1,1.334,1.334,1.449,1.449,0,0,1-1.334,1.423ZM129.3,36.8a2.164,2.164,0,0,0-2.134,2.134V73.789a4.992,4.992,0,0,1,2.756-.8h32.365V38.934a2.164,2.164,0,0,0-2.134-2.134H129.3Z" fill="#555"></path>
    <path id="路径_1330" d="M257.538,228.4H224.907a1.334,1.334,0,0,1,0-2.667h32.631a1.334,1.334,0,1,1,0,2.667Zm-5.513-34.587H237.977a1.334,1.334,0,0,1,0-2.667h14.048a1.334,1.334,0,1,1,0,2.667Zm0,6.491H237.977a1.334,1.334,0,0,1,0-2.667h14.048a1.334,1.334,0,1,1,0,2.667Z" transform="translate(-93.83 -148.834)" fill="#555"></path>
  </g>
</svg>
