<?xml version="1.0" encoding="UTF-8"?>
<svg xmlns="http://www.w3.org/2000/svg" width="47.686" height="47.451" viewBox="0 0 47.686 47.451">
  <g id="知识库6" transform="translate(-132.842 -245.123)">
    <path id="路径_1339" d="M420.958,357.479H390.345c-2.551,0-4.638-1.263-4.638-2.807V333.9c0-1.544,2.087-2.807,4.638-2.807h30.613c2.551,0,4.639,1.263,4.639,2.807v20.772c0,1.544-2.087,2.807-4.639,2.807Z" transform="translate(-252.244 -66.87)" fill="#f57c14" opacity="0.3"></path>
    <path id="路径_1337" d="M91.454,84.528a1.389,1.389,0,0,0-.27.027A.7.7,0,0,0,91,84.528H77.6a.7.7,0,0,0-.115.01,1.423,1.423,0,0,0-.166-.01,1.46,1.46,0,0,0,0,2.918,1.382,1.382,0,0,0,.166-.01.674.674,0,0,0,.115.01H91a.714.714,0,0,0,.189-.027,1.393,1.393,0,0,0,.27.027,1.46,1.46,0,0,0,0-2.918Zm5.416,6.18a1.435,1.435,0,0,0-.271.026.689.689,0,0,0-.189-.026H77.6a.722.722,0,0,0-.115.01,1.457,1.457,0,1,0-.167,2.909,1.427,1.427,0,0,0,.167-.011.663.663,0,0,0,.115.011H96.409A.687.687,0,0,0,96.6,93.6a1.38,1.38,0,0,0,.271.027,1.46,1.46,0,0,0,0-2.918Zm0,6.18a1.431,1.431,0,0,0-.271.026.689.689,0,0,0-.189-.026H77.6a.658.658,0,0,0-.115.01,1.46,1.46,0,1,0,0,2.9.663.663,0,0,0,.115.011H96.409a.693.693,0,0,0,.189-.027,1.387,1.387,0,0,0,.271.027,1.46,1.46,0,0,0,0-2.918Zm10.366,10.488V65.839s.078-2.954-3.382-2.954H62.933a3.109,3.109,0,0,0-3.383,2.954v41.54a3.039,3.039,0,0,0,3.383,2.954h9.649l.094,0,.1,0h31.074C107.382,110.334,107.235,107.376,107.235,107.376Zm-37.319.14-5.864,0a1.6,1.6,0,0,1-1.654-1.361V66.9c0-1.3,1.66-1.139,1.66-1.139h5.858v41.759Zm32.932-.051H72.814V65.756H87.746V78.424l4.484-4.1,4.52,4.1V65.756h5.993c1.679,0,1.595,1.144,1.595,1.144v39.42S104.42,107.465,102.848,107.465Z" transform="translate(73.292 182.238)" fill="#555"></path>
  </g>
</svg>
