<?xml version="1.0" encoding="UTF-8"?>
<svg xmlns="http://www.w3.org/2000/svg" width="49.584" height="48.714" viewBox="0 0 49.584 48.714">
  <g id="知识库3" transform="translate(-25.6 -34.133)">
    <path id="路径_1324" d="M466.632,72.545H450.626a3.49,3.49,0,0,1-3.48-3.48V52.973a3.49,3.49,0,0,1,3.48-3.48h16.006a3.49,3.49,0,0,1,3.48,3.48V68.979a3.509,3.509,0,0,1-3.48,3.567Z" transform="translate(-400.06 -14.577)" fill="#f57c14" opacity="0.3"></path>
    <path id="路径_1325" d="M72.139,594.666H28.645a3.082,3.082,0,0,1-3.045-3.045V576.572a3.082,3.082,0,0,1,3.045-3.045H41.78l8.612,8.7,8.873-8.786H72.139a3.082,3.082,0,0,1,3.045,3.045v15.136A3.082,3.082,0,0,1,72.139,594.666ZM28.645,576.137a.411.411,0,0,0-.435.435v15.136c0,.174.261.348.435.348H72.139a.411.411,0,0,0,.435-.435V576.572a.411.411,0,0,0-.435-.435H60.4L51.958,584.4a2.1,2.1,0,0,1-1.566.609,2.5,2.5,0,0,1-1.566-.609l-8.177-8.264h-12Z" transform="translate(0 -511.819)" fill="#555"></path>
    <path id="路径_1326" d="M241.6,63.014h-2.61v-24.1a2.154,2.154,0,0,0-2.175-2.175H209.584a2.154,2.154,0,0,0-2.175,2.175v24.1H204.8v-24.1a4.827,4.827,0,0,1,4.784-4.784h27.228a4.827,4.827,0,0,1,4.784,4.784v24.1Z" transform="translate(-170.066)" fill="#555"></path>
    <path id="路径_1327" d="M106.717,174.771h-2.61V156.678a4.827,4.827,0,0,1,4.784-4.784h1.74v2.61h-1.74a2.154,2.154,0,0,0-2.175,2.175Zm31.316-15.223h-20.79a1.3,1.3,0,1,1,0-2.61h20.79a1.3,1.3,0,1,1,0,2.61Zm0,8.264h-20.79a1.3,1.3,0,1,1,0-2.61h20.79a1.3,1.3,0,1,1,0,2.61Z" transform="translate(-74.506 -111.758)" fill="#555"></path>
  </g>
</svg>
