<?xml version="1.0" encoding="UTF-8"?>
<svg xmlns="http://www.w3.org/2000/svg" width="56" height="47.725" viewBox="0 0 56 47.725">
  <g id="知识库2" transform="translate(-34.134 -105.387)">
    <path id="路径_1321" d="M498.094,457.133m-13.4,0a13.4,13.4,0,1,0,13.4-13.4,13.4,13.4,0,0,0-13.4,13.4Z" transform="translate(-424.16 -318.521)" fill="#f57c14" opacity="0.3"></path>
    <path id="路径_1322" d="M62.134,134.212a4.252,4.252,0,0,1-1.1-.2l-25.4-12a2.513,2.513,0,0,1,0-4.6l25.4-11.8a2.56,2.56,0,0,1,2.1,0l25.5,11.9a2.513,2.513,0,0,1,0,4.6l-25.4,11.8a2.279,2.279,0,0,1-1.1.3Zm-24.4-14.5,24.4,11.4,24.4-11.4-24.4-11.3Z" transform="translate(0 0)" fill="#555"></path>
    <path id="路径_1323" d="M127.5,400.94c-6.9,0-12.8-2.7-15.9-4.3a5.636,5.636,0,0,1-2.9-4.9v-18.6h3v18.5a2.542,2.542,0,0,0,1.4,2.3c4.5,2.5,16.1,7.5,27,.1a2.609,2.609,0,0,0,1.1-2.1v-18.8h3v18.7a5.465,5.465,0,0,1-2.4,4.6,25.2,25.2,0,0,1-14.3,4.5Zm-23.6-12.6a1.538,1.538,0,0,1-1.5-1.5v-16.7a1.538,1.538,0,0,1,1.5-1.5,1.473,1.473,0,0,1,1.5,1.5v16.7A1.538,1.538,0,0,1,103.9,388.34Z" transform="translate(-64.266 -247.828)" fill="#555"></path>
  </g>
</svg>
