<?xml version="1.0" encoding="UTF-8"?>
<svg xmlns="http://www.w3.org/2000/svg" width="93.23" height="90.137" viewBox="0 0 93.23 90.137">
  <g id="组_28" transform="translate(-101.427 -112.352)">
    <path id="路径_64" d="M489.453,256.064a2.8,2.8,0,0,1-2.8-2.8V232.531a2.8,2.8,0,0,1,5.595,0v20.735a2.8,2.8,0,0,1-2.8,2.8Z" transform="translate(-341.406 -104.555)" fill="#4891ff"></path>
    <path id="路径_65" d="M180.933,225.28H115.162a13.793,13.793,0,0,0-13.735,13.82v3.5a10.717,10.717,0,0,0,6.409,9.815v36.922a13.72,13.72,0,0,0,13.66,13.744h53.093a13.72,13.72,0,0,0,13.66-13.744V252.411a10.717,10.717,0,0,0,6.409-9.815v-3.5A13.783,13.783,0,0,0,180.933,225.28Zm1.511,64.053a7.882,7.882,0,0,1-7.85,7.9H121.5a7.882,7.882,0,0,1-7.85-7.9V253.3h68.8v36.034Zm6.409-46.738a4.85,4.85,0,0,1-4.828,4.858H112.065a4.85,4.85,0,0,1-4.828-4.858v-3.5a7.959,7.959,0,0,1,7.925-7.974h65.765a7.959,7.959,0,0,1,7.925,7.974v3.5Z" transform="translate(0 -100.587)" fill="#4d5156"></path>
    <path id="路径_66" d="M369.856,130.287a2.818,2.818,0,0,1-1.83-.677l-14.3-12.342a2.8,2.8,0,1,1,3.653-4.235l12.516,10.8,13.137-10.843a2.8,2.8,0,0,1,3.564,4.314L371.635,129.65a2.789,2.789,0,0,1-1.779.638Z" transform="translate(-222.138)" fill="#4d5156"></path>
  </g>
</svg>
