<?xml version="1.0" encoding="UTF-8"?>
<svg xmlns="http://www.w3.org/2000/svg" width="65.226" height="60.152" viewBox="0 0 65.226 60.152">
  <g id="礼物" transform="translate(-144 -170.091)">
    <path id="路径_837" d="M347.448,185.516H339.23l-.429-.242a19.923,19.923,0,0,1-3.727-2.8c-2.972-2.8-4.752-5.88-4.752-8.386a3.876,3.876,0,0,1,1.2-2.945c2.693-2.5,7.958-.233,11.759,3.3,3.569,3.308,5.349,7.1,4.547,9.681Zm-7.212-3.727h3.858a12.719,12.719,0,0,0-3.317-4.529c-3.205-2.972-6.15-3.662-6.7-3.289-.214.457.513,3,3.56,5.824A17.09,17.09,0,0,0,340.236,181.789Z" transform="translate(-170.043 0)" fill="#fc9015"></path>
    <path id="路径_838" d="M499.522,186.349H491.3l-.41-1.3c-.8-2.581.932-6.374,4.547-9.682,3.8-3.532,9.066-5.805,11.759-3.3a3.876,3.876,0,0,1,1.2,2.944c0,2.469-1.78,5.591-4.752,8.386a19.924,19.924,0,0,1-3.727,2.8Zm-4.864-3.727h3.858a17.094,17.094,0,0,0,2.6-1.994c3.047-2.8,3.727-5.367,3.532-5.861-.522-.335-3.466.354-6.672,3.327A12.718,12.718,0,0,0,494.658,182.622Z" transform="translate(-316.414 -0.833)" fill="#fc9015"></path>
    <path id="路径_839" d="M260.6,508.211H227.985a9.318,9.318,0,0,1-9.318-9.318v-20.5a3.727,3.727,0,0,1,3.727-3.727h43.795a3.727,3.727,0,0,1,3.727,3.727v20.5a9.318,9.318,0,0,1-9.318,9.318Zm-38.2-29.818v20.5a5.591,5.591,0,0,0,5.591,5.591H260.6a5.591,5.591,0,0,0,5.591-5.591v-20.5Z" transform="translate(-68.144 -277.969)" fill="#555"></path>
    <path id="路径_840" d="M203.636,322.636H149.591A5.591,5.591,0,0,1,144,317.045v-7.454A5.591,5.591,0,0,1,149.591,304h54.045a5.591,5.591,0,0,1,5.591,5.591v7.454A5.591,5.591,0,0,1,203.636,322.636Zm-54.045-14.909a1.864,1.864,0,0,0-1.864,1.864v7.454a1.864,1.864,0,0,0,1.864,1.864h54.045a1.864,1.864,0,0,0,1.864-1.864v-7.454a1.864,1.864,0,0,0-1.864-1.864Z" transform="translate(0 -122.211)" fill="#555"></path>
  </g>
</svg>
