<?xml version="1.0" encoding="UTF-8"?>
<svg xmlns="http://www.w3.org/2000/svg" width="68.442" height="52.054" viewBox="0 0 68.442 52.054">
  <g id="票" transform="translate(-133.333 -224)">
    <path id="路径_807" d="M409.063,401.189H385.928a1.928,1.928,0,1,1,0-3.856h23.135a1.928,1.928,0,0,1,0,3.856Zm0,16.387H385.928a1.928,1.928,0,1,1,0-3.856h23.135a1.928,1.928,0,0,1,0,3.856Z" transform="translate(-228.013 -157.669)" fill="#fc9015"></path>
    <path id="路径_808" d="M190.207,276.054h-32.37a1.928,1.928,0,0,1,0-3.856h32.37a7.712,7.712,0,0,0,7.712-7.712v-4.974a9.64,9.64,0,0,1,0-18.971v-4.974a7.712,7.712,0,0,0-7.712-7.712H157.673a1.928,1.928,0,0,1,0-3.856h32.534a11.568,11.568,0,0,1,11.568,11.568v8.743l-2.15-.067a5.784,5.784,0,0,0,0,11.568h.154l1.928-.058v8.734a11.568,11.568,0,0,1-11.5,11.568Zm-40.8,0h-4.5a11.568,11.568,0,0,1-11.568-11.568v-8.743l2.15.067a5.784,5.784,0,1,0,0-11.568h-.154l-1.976.058v-8.734A11.568,11.568,0,0,1,144.92,224h4.656a1.928,1.928,0,1,1,0,3.856H144.9a7.712,7.712,0,0,0-7.712,7.712v4.974a9.64,9.64,0,0,1,0,18.971v4.974A7.712,7.712,0,0,0,144.9,272.2h4.5a1.928,1.928,0,0,1,0,3.856Z" transform="translate(0 0)" fill="#555"></path>
  </g>
</svg>
