<?xml version="1.0" encoding="UTF-8"?>
<svg xmlns="http://www.w3.org/2000/svg" width="52.944" height="58.238" viewBox="0 0 52.944 58.238">
  <g id="积分" transform="translate(-192 -160)">
    <path id="路径_822" d="M218.472,189.19c-14.842,0-26.472-6.406-26.472-14.595S203.63,160,218.472,160s26.472,6.415,26.472,14.595-11.63,14.595-26.472,14.595Zm0-25.66c-12.433,0-22.942,5.065-22.942,11.065s10.509,11.065,22.942,11.065,22.942-5.065,22.942-11.065S230.9,163.53,218.472,163.53Z" fill="#555"></path>
    <path id="路径_823" d="M218.472,480.344c-14.842,0-26.472-6.415-26.472-14.595a8.753,8.753,0,0,1,.309-2.285,1.766,1.766,0,1,1,3.406.935,4.985,4.985,0,0,0-.185,1.35c0,5.991,10.509,11.065,22.942,11.065s22.942-5.074,22.942-11.065a5.3,5.3,0,0,0-.1-.979,1.766,1.766,0,1,1,3.468-.671,8.577,8.577,0,0,1,.159,1.65c0,8.18-11.63,14.595-26.472,14.595Z" transform="translate(0 -277.169)" fill="#555"></path>
    <path id="路径_824" d="M218.472,662.425C203.63,662.425,192,656.01,192,647.83a8.753,8.753,0,0,1,.309-2.285,1.766,1.766,0,0,1,3.406.935,5.03,5.03,0,0,0-.185,1.35c0,6,10.509,11.065,22.942,11.065s22.942-5.065,22.942-11.065a5.1,5.1,0,0,0-.1-.971,1.767,1.767,0,1,1,3.468-.679,8.577,8.577,0,0,1,.159,1.65C244.944,656.01,233.314,662.425,218.472,662.425Z" transform="translate(0 -444.187)" fill="#fc9015"></path>
  </g>
</svg>
