<?xml version="1.0" encoding="UTF-8"?>
<svg xmlns="http://www.w3.org/2000/svg" width="54.704" height="53.605" viewBox="0 0 54.704 53.605">
  <g id="筛选" transform="translate(-146.01 -170.667)">
    <path id="路径_856" d="M605.093,499.351H588.342a1.675,1.675,0,0,1,0-3.35h16.752a1.675,1.675,0,0,1,0,3.35Zm0,9.213H588.342a1.675,1.675,0,1,1,0-3.35h16.752a1.675,1.675,0,1,1,0,3.35Zm0,10.051H588.342a1.675,1.675,0,1,1,0-3.35h16.752a1.675,1.675,0,1,1,0,3.35Z" transform="translate(-406.054 -299.787)" fill="#fc9015"></path>
    <path id="路径_857" d="M175.428,224.272a1.675,1.675,0,0,1-1.675-1.675V193.734a1.675,1.675,0,0,1,.419-1.106l12.874-14.649a1.022,1.022,0,0,0,0-1.231L184.8,174.16a.377.377,0,0,0-.26-.142H152.135a.343.343,0,0,0-.251.142l-2.278,2.588a1.022,1.022,0,0,0,0,1.231l12.84,14.649a1.675,1.675,0,0,1,.419,1.106v14.9a1.675,1.675,0,1,1-3.35,0V194.4l-12.455-14.2a4.347,4.347,0,0,1,0-5.662l2.27-2.588a3.7,3.7,0,0,1,2.806-1.281h32.414a3.719,3.719,0,0,1,2.764,1.282l2.27,2.588a4.347,4.347,0,0,1,0,5.662L177.1,194.362V222.6a1.675,1.675,0,0,1-1.675,1.675Z" fill="#555"></path>
  </g>
</svg>
