<?xml version="1.0" encoding="UTF-8"?>
<svg xmlns="http://www.w3.org/2000/svg" width="84.092" height="93.23" viewBox="0 0 84.092 93.23">
  <g id="组_26" transform="translate(-174.438 -144.128)">
    <path id="路径_59" d="M239.094,237.358H193.881a19.467,19.467,0,0,1-19.443-19.443V163.571a19.467,19.467,0,0,1,19.443-19.443h45.207a19.467,19.467,0,0,1,19.443,19.443v54.345A19.458,19.458,0,0,1,239.094,237.358ZM193.881,150.4a13.185,13.185,0,0,0-13.171,13.171v54.345a13.185,13.185,0,0,0,13.171,13.171h45.207a13.185,13.185,0,0,0,13.171-13.171V163.571A13.185,13.185,0,0,0,239.088,150.4Z" fill="#4d5156"></path>
    <path id="路径_60" d="M318.159,301.345a48.949,48.949,0,0,1-26.028-7.547,3.149,3.149,0,1,1,3.582-5.181,42.178,42.178,0,0,0,44.792-.094,3.148,3.148,0,1,1,3.267,5.382,48.8,48.8,0,0,1-25.612,7.44Z" transform="translate(-102.178 -126.31)" fill="#4d5156"></path>
    <path id="路径_61" d="M399.153,477.233H387.6v-5.6h11.557a3.147,3.147,0,1,0,0-6.294h-8.076l5.571-7.516a3.145,3.145,0,0,0-5.055-3.745l-6.918,9.335-6.924-9.347a3.146,3.146,0,1,0-5.055,3.746l5.571,7.515h-8.529a3.147,3.147,0,1,0,0,6.294H381.3v5.6H369.739a3.147,3.147,0,1,0,0,6.294H381.3v8.145a3.147,3.147,0,1,0,6.294,0v-8.145h11.557a3.141,3.141,0,1,0,.006-6.282Z" transform="translate(-168.678 -271.058)" fill="#4891ff"></path>
  </g>
</svg>
