<?xml version="1.0" encoding="UTF-8"?>
<svg xmlns="http://www.w3.org/2000/svg" width="48.543" height="56.603" viewBox="0 0 48.543 56.603">
  <g id="荣誉" transform="translate(-202.667 -149.333)">
    <path id="路径_863" d="M226.939,152.681a5.412,5.412,0,0,1,.9.075l15.6,2.678a5.3,5.3,0,0,1,4.419,5.214v23a5.942,5.942,0,0,1-1.917,4.076c-2.436,2.494-9.8,9.976-15.1,13.542a7.148,7.148,0,0,1-3.992,1.322,6.336,6.336,0,0,1-3.758-1.272,94.7,94.7,0,0,1-15.065-13.391,6.83,6.83,0,0,1-2.017-4.277v-23a5.3,5.3,0,0,1,4.419-5.214l15.6-2.678a5.414,5.414,0,0,1,.9-.075m0-3.348a8.68,8.68,0,0,0-1.473.126l-15.6,2.678a8.646,8.646,0,0,0-7.2,8.512v23a9.844,9.844,0,0,0,2.887,6.436,98.073,98.073,0,0,0,15.592,13.952,9.692,9.692,0,0,0,5.708,1.9,10.429,10.429,0,0,0,5.859-1.9c5.022-3.4,11.5-9.784,15.592-13.919a9.206,9.206,0,0,0,2.9-6.47v-23a8.646,8.646,0,0,0-7.2-8.512l-15.6-2.678a8.681,8.681,0,0,0-1.473-.126Z" fill="#555"></path>
    <path id="路径_864" d="M370.38,313.109a2.988,2.988,0,0,1-1.448-.377l-4.411-2.427-4.427,2.427a2.971,2.971,0,0,1-3.189-.184,3.122,3.122,0,0,1-1.272-3.1l.837-5.214-3.6-3.683a3.147,3.147,0,0,1-.737-3.231,3.063,3.063,0,0,1,2.444-2.084l4.955-.753,2.235-4.72a3.03,3.03,0,0,1,5.507,0l2.268,4.72,4.955.753a3.063,3.063,0,0,1,2.444,2.084,3.147,3.147,0,0,1-.77,3.231l-3.616,3.683.837,5.214a3.122,3.122,0,0,1-1.272,3.1A2.972,2.972,0,0,1,370.38,313.109Zm-14.856-14.622,4.545,4.578-1.055,6.445,5.507-3.021,5.507,3.021-1.055-6.445,4.545-4.612-6.269-.954-2.728-5.733-2.728,5.767ZM373.937,298.555Z" transform="translate(-137.583 -127.788)" fill="#fc9015"></path>
  </g>
</svg>
