<?xml version="1.0" encoding="UTF-8"?>
<svg xmlns="http://www.w3.org/2000/svg" width="63.028" height="41.329" viewBox="0 0 63.028 41.329">
  <g id="视频" transform="translate(-122.667 -258.454)">
    <path id="路径_868" d="M165.812,299.782H129.621a6.955,6.955,0,0,1-6.955-6.955V265.408a6.955,6.955,0,0,1,6.955-6.955h36.191a6.955,6.955,0,0,1,6.955,6.955v27.419a6.955,6.955,0,0,1-6.955,6.955Zm-36.191-37.851a3.477,3.477,0,0,0-3.477,3.477v27.419a3.477,3.477,0,0,0,3.477,3.477h36.191a3.477,3.477,0,0,0,3.477-3.477V265.408a3.477,3.477,0,0,0-3.477-3.477Z" fill="#555"></path>
    <path id="路径_869" d="M339.568,412.356a2.608,2.608,0,0,1-2.608-2.608V396.655a2.608,2.608,0,0,1,4.034-2.182L351,401.054a2.608,2.608,0,0,1,0,4.347l-10.006,6.529a2.608,2.608,0,0,1-1.426.426Zm.869-14.092v9.876l7.546-4.938Z" transform="translate(-196.828 -124.544)" fill="#fc9015"></path>
    <path id="路径_870" d="M165.812,299.782H129.621a6.955,6.955,0,0,1-6.955-6.955V265.408a6.955,6.955,0,0,1,6.955-6.955h36.191a6.955,6.955,0,0,1,6.955,6.955v27.419a6.955,6.955,0,0,1-6.955,6.955Zm-36.191-37.851a3.477,3.477,0,0,0-3.477,3.477v27.419a3.477,3.477,0,0,0,3.477,3.477h36.191a3.477,3.477,0,0,0,3.477-3.477V265.408a3.477,3.477,0,0,0-3.477-3.477Z" fill="#555"></path>
    <path id="路径_871" d="M708.464,359.427a2.608,2.608,0,0,1-1.5-.469l-12.24-8.381v-10.9l12.24-8.381a2.608,2.608,0,0,1,2.747-.156,2.66,2.66,0,0,1,1.417,2.347v23.272a2.669,2.669,0,0,1-1.417,2.356,2.608,2.608,0,0,1-1.243.313ZM698.2,348.743l9.45,6.468V335.034l-9.45,6.477ZM708.925,334.164Z" transform="translate(-525.43 -66.47)" fill="#555"></path>
  </g>
</svg>
