<?xml version="1.0" encoding="UTF-8"?>
<svg xmlns="http://www.w3.org/2000/svg" width="47.707" height="47.707" viewBox="0 0 47.707 47.707">
  <g id="设置6" transform="translate(-371.04 -460.369)">
    <path id="路径_1471" d="M210.992,228.059m-14.725,0a14.725,14.725,0,1,0,14.725-14.725A14.725,14.725,0,0,0,196.267,228.059Z" transform="translate(183.901 256.163)" fill="#f57c14" opacity="0.3"></path>
    <g id="组_142" transform="translate(371.038 460.159)">
      <path id="路径_1469" d="M45.983,19.979l-1.964-1.964A5.692,5.692,0,0,1,42.34,14V11.157a5.692,5.692,0,0,0-5.692-5.692H33.8a5.692,5.692,0,0,1-4.013-1.679L27.883,1.879a5.692,5.692,0,0,0-8.054,0L17.865,3.842a5.692,5.692,0,0,1-4.013,1.679H11.006a5.692,5.692,0,0,0-5.692,5.692v2.846a5.692,5.692,0,0,1-1.679,4.013L1.672,20.036a5.692,5.692,0,0,0,0,8.054l1.964,1.964a5.692,5.692,0,0,1,1.679,4.013v2.846A5.692,5.692,0,0,0,11.006,42.6h2.846a5.692,5.692,0,0,1,4.013,1.679l1.964,1.964a5.692,5.692,0,0,0,8.054,0l1.964-1.964A5.692,5.692,0,0,1,33.859,42.6H36.7A5.692,5.692,0,0,0,42.4,36.912V34.066a5.692,5.692,0,0,1,1.679-4.013L46.04,28.09a5.692,5.692,0,0,0-.057-8.111Zm-2.021,6.033L42,27.976a8.538,8.538,0,0,0-2.5,6.033v2.846A2.846,2.846,0,0,1,36.648,39.7H33.8a8.538,8.538,0,0,0-6.033,2.5l-1.964,1.964a2.846,2.846,0,0,1-4.013,0l-1.821-2.021a8.538,8.538,0,0,0-6.033-2.5H11.092A2.846,2.846,0,0,1,8.246,36.8V33.952a8.538,8.538,0,0,0-2.5-5.976L3.778,26.012a2.846,2.846,0,0,1,0-4.013l1.964-1.878a8.538,8.538,0,0,0,2.5-6.033V11.242A2.846,2.846,0,0,1,11.092,8.4h2.846a8.538,8.538,0,0,0,6.033-2.5l1.964-1.964a2.846,2.846,0,0,1,4.013,0l1.878,1.964a8.538,8.538,0,0,0,6.033,2.5H36.7a2.846,2.846,0,0,1,2.846,2.846v2.846A8.538,8.538,0,0,0,42,20.121l1.964,1.964a2.846,2.846,0,0,1,0,4.013Z" transform="translate(0 0)" fill="#555"></path>
      <path id="路径_1470" d="M307.794,296.819a9.961,9.961,0,1,0,9.961,9.961A9.961,9.961,0,0,0,307.794,296.819Zm0,17.076a7.115,7.115,0,1,1,7.115-7.115A7.115,7.115,0,0,1,307.794,313.895Z" transform="translate(-283.952 -282.788)" fill="#555"></path>
    </g>
  </g>
</svg>
