<?xml version="1.0" encoding="UTF-8"?>
<svg xmlns="http://www.w3.org/2000/svg" width="47.386" height="40.109" viewBox="0 0 47.386 40.109">
  <g id="设置2" transform="translate(-34.133 -107.52)">
    <path id="路径_1454" d="M205.684,244.332H172.345a3.4,3.4,0,0,1-3.385-3.385V220.131a3.4,3.4,0,0,1,3.385-3.385H205.6a3.4,3.4,0,0,1,3.385,3.385v20.816a3.271,3.271,0,0,1-3.3,3.385Z" transform="translate(-128.142 -103.811)" fill="#f57c14" opacity="0.3"></path>
    <path id="路径_1455" d="M76.865,141.79H38.787a4.7,4.7,0,0,1-4.654-4.654V112.174a4.7,4.7,0,0,1,4.654-4.654H76.865a4.7,4.7,0,0,1,4.654,4.654v24.962a4.7,4.7,0,0,1-4.654,4.654ZM38.787,110.059a2.1,2.1,0,0,0-2.115,2.115v24.962a2.1,2.1,0,0,0,2.115,2.115H76.865a2.1,2.1,0,0,0,2.115-2.115V112.174a2.1,2.1,0,0,0-2.115-2.115H38.787Zm34.185,37.57H42.68a1.269,1.269,0,0,1,0-2.539H73.057a1.3,1.3,0,0,1,1.269,1.269,1.321,1.321,0,0,1-1.354,1.269Z" transform="translate(0 0)" fill="#555"></path>
    <path id="路径_1456" d="M308.567,243.176a2.68,2.68,0,0,1-1.946-.762,2.754,2.754,0,0,1-.846-1.946v-.762l-.508-.254a7.725,7.725,0,0,1-1.1-.677l-.677.423a2.6,2.6,0,0,1-2.115.254,3.13,3.13,0,0,1-1.692-1.269l-.592-1.354a2.69,2.69,0,0,1,1.015-3.723l.677-.423a3.794,3.794,0,0,1-.085-.931,1.652,1.652,0,0,1,.085-.592v-.338l-.762-.423a2.384,2.384,0,0,1-1.269-1.692,3.1,3.1,0,0,1,.254-2.115l.677-1.185a2.764,2.764,0,0,1,3.723-1.015l.677.423a8.442,8.442,0,0,1,1.608-1.015v-.931a2.673,2.673,0,0,1,2.708-2.708h1.354a2.673,2.673,0,0,1,2.708,2.708v.931l.508.254a7.725,7.725,0,0,1,1.1.677l.677-.423a2.738,2.738,0,0,1,3.723.931l.677,1.185a2.842,2.842,0,0,1,.338,2.031,2.772,2.772,0,0,1-1.269,1.692l-.677.423a3.794,3.794,0,0,1,.085.931,1.652,1.652,0,0,1-.085.592v.338l.677.423a2.383,2.383,0,0,1,1.269,1.692,3.1,3.1,0,0,1-.254,2.115l-.677,1.185a2.744,2.744,0,0,1-3.723,1.015l-.508-.338a8.442,8.442,0,0,1-1.608,1.015v.931a2.681,2.681,0,0,1-.762,1.946,2.755,2.755,0,0,1-1.946.846l-1.438-.085Zm-1.523-5.754.592.338a1.32,1.32,0,0,1,.677,1.1v1.608c0,.085,0,.085.085.169a.3.3,0,0,0,.169.085h1.354c.085,0,.085,0,.169-.085a.3.3,0,0,0,.085-.169v-1.692a1.134,1.134,0,0,1,.677-1.1l.677-.338a.083.083,0,0,0,.085-.085,5.05,5.05,0,0,0,1.269-.762l.508-.423a1.272,1.272,0,0,1,1.439-.085l1.439.846c.085.085.169,0,.254-.085l.677-1.185v-.169c0-.085,0-.085-.085-.085l-1.439-.846a1.259,1.259,0,0,1-.592-1.269l.085-.677c0-.254.085-.508.085-.677v-.508c0-.085-.085-.169-.085-.338l-.085-.762a1.259,1.259,0,0,1,.592-1.269l1.439-.846a.083.083,0,0,0,.085-.085v-.169l-.677-1.185a.311.311,0,0,0-.254-.085l-1.439.846a1.281,1.281,0,0,1-1.439-.085l-.508-.423a4.48,4.48,0,0,0-.846-.508,4.857,4.857,0,0,1-.592-.338l-.592-.338a1.32,1.32,0,0,1-.677-1.1v-1.692a.182.182,0,0,0-.169-.169h-1.354a.182.182,0,0,0-.169.169v1.692a1.134,1.134,0,0,1-.677,1.1l-.846.423a.083.083,0,0,0-.085.085,5.05,5.05,0,0,0-1.269.762l-.508.423a1.272,1.272,0,0,1-1.438.085l-1.439-.846a.162.162,0,0,0-.254.085l-.677,1.185v.169a.083.083,0,0,0,.085.085l1.438.846a1.492,1.492,0,0,1,.677,1.269l-.169.677c0,.254-.085.508-.085.677v.508c0,.085.085.169.085.338l.085.762a1.259,1.259,0,0,1-.592,1.269l-1.438.846a.311.311,0,0,0-.085.254l.677,1.269a.083.083,0,0,0,.085.085h.169l1.439-.846a1.281,1.281,0,0,1,1.438.085l.508.423a4.481,4.481,0,0,0,.846.508,1.264,1.264,0,0,1,.592.254ZM303.236,232.176ZM303.152,232.007ZM315.337,231.414ZM315.252,231.245Z" transform="translate(-251.418 -107.055)" fill="#555"></path>
    <path id="路径_1457" d="M414.677,360.1a5.092,5.092,0,0,1-5.077-5.077,5.34,5.34,0,0,1,1.438-3.639,5.067,5.067,0,0,1,3.554-1.523,5.34,5.34,0,0,1,3.639,1.439,5.067,5.067,0,0,1,1.523,3.554,5.34,5.34,0,0,1-1.438,3.639A5.148,5.148,0,0,1,414.677,360.1Zm0-7.7a2.3,2.3,0,0,0-1.777.762,2.625,2.625,0,0,0-.762,1.862,2.493,2.493,0,0,0,2.539,2.539,2.546,2.546,0,0,0,2.539-2.539,2.3,2.3,0,0,0-.762-1.777A2.529,2.529,0,0,0,414.677,352.4Z" transform="translate(-356.851 -230.33)" fill="#555"></path>
  </g>
</svg>
