<?xml version="1.0" encoding="UTF-8"?>
<svg xmlns="http://www.w3.org/2000/svg" width="47.417" height="47.541" viewBox="0 0 47.417 47.541">
  <g id="设置4" transform="translate(-34.133 -31.628)">
    <path id="路径_1461" d="M449.96,516.52m-11.346,0a11.346,11.346,0,1,0,11.346-11.346A11.346,11.346,0,0,0,438.614,516.52Z" transform="translate(-384.413 -450.052)" fill="#f57c14" opacity="0.3"></path>
    <path id="路径_1462" d="M216.8,189.129a1.6,1.6,0,0,1-.677-.169l-14.14-9.06a1.149,1.149,0,0,1-.593-1.1,1.321,1.321,0,0,1,.593-1.1l14.14-8.975a1.3,1.3,0,0,1,1.355,0l14.14,8.975a1.318,1.318,0,0,1,0,2.2l-14.14,8.975a.961.961,0,0,1-.677.254ZM205.027,178.8l11.769,7.536,11.769-7.536L216.8,171.348Z" transform="translate(-158.955 -130.112)" fill="#555"></path>
    <path id="路径_1463" d="M501.811,53.883a1.6,1.6,0,0,1-.677-.169l-14.14-8.975a1.388,1.388,0,0,1-.593-.931,1.14,1.14,0,0,1,.423-1.016l7.112-6.689a1.276,1.276,0,0,1,1.524-.169l12.955,7.875a1.224,1.224,0,0,1,.593.847,1.171,1.171,0,0,1-.254,1.016l-5.927,7.875a1.815,1.815,0,0,1-1.016.339ZM489.7,43.468l11.854,7.451,4.318-5.758-10.923-6.6-5.25,4.911Z" transform="translate(-429.829 -3.926)" fill="#555"></path>
    <path id="路径_1464" d="M88.509,49.957a1.207,1.207,0,0,1-1.016-.508l-5.927-7.875a1.113,1.113,0,0,1-.254-1.016,1.224,1.224,0,0,1,.593-.847l12.955-7.875a1.166,1.166,0,0,1,1.524.169L103.5,38.7a1.562,1.562,0,0,1,.423,1.016,1.041,1.041,0,0,1-.593.931l-14.14,9.145a1.139,1.139,0,0,1-.677.169Zm-4.064-8.721,4.318,5.758,11.769-7.451-5.165-4.911-10.923,6.6Zm26.5,23.37a.961.961,0,0,1-.677-.254l-8.3-5.588a1.447,1.447,0,0,1-.593-1.1,1.175,1.175,0,0,1,.593-1.016l14.14-8.975a1.357,1.357,0,0,1,1.27-.085l8.3,4.488a1.1,1.1,0,0,1,.677,1.016,1.365,1.365,0,0,1-.508,1.1L111.624,64.351a.961.961,0,0,1-.677.254Zm-6.012-6.858,5.927,4.064,11.769-8.383L116.79,50.3l-11.854,7.451Z" transform="translate(-44.808)" fill="#555"></path>
    <path id="路径_1465" d="M49.544,368.983a1.366,1.366,0,0,1-.762-.254l-14.14-10.076a1.365,1.365,0,0,1-.508-1.1,1.1,1.1,0,0,1,.677-1.016l8.3-4.488a1.149,1.149,0,0,1,1.27.085l14.14,8.975a1.291,1.291,0,0,1,.593,1.016,1.234,1.234,0,0,1-.593,1.1l-8.3,5.588a1.6,1.6,0,0,1-.677.169ZM37.774,357.722,49.544,366.1l5.927-4.064L43.532,354.5l-5.758,3.218Z" transform="translate(0 -304.378)" fill="#555"></path>
    <path id="路径_1466" d="M216.8,597.344a1.223,1.223,0,0,1-.593-.169l-14.14-7.875a1.321,1.321,0,0,1-.677-1.1V578.123a1.27,1.27,0,1,1,2.54,0v9.314l12.87,7.2,12.87-7.112v-9.314a1.27,1.27,0,1,1,2.54,0v10.076a1.321,1.321,0,0,1-.677,1.1l-14.14,7.875C217.221,597.259,217.051,597.344,216.8,597.344Z" transform="translate(-158.956 -518.175)" fill="#555"></path>
  </g>
</svg>
