<?xml version="1.0" encoding="UTF-8"?>
<svg xmlns="http://www.w3.org/2000/svg" width="50.484" height="39.801" viewBox="0 0 50.484 39.801">
  <g id="设置1" transform="translate(-35.194 -136.533)">
    <path id="路径_1450" d="M424.384,470.464m-11.372,0a11.372,11.372,0,1,0,11.372-11.372A11.372,11.372,0,0,0,413.013,470.464Z" transform="translate(-357.839 -305.502)" fill="#f57c14" opacity="0.3"></path>
    <path id="路径_1451" d="M52.286,176.334a4.147,4.147,0,0,1-4.061-3.971v-2.076l-.451-.18a.088.088,0,0,1-.09-.09c-.271-.18-.632-.361-.9-.542a9.5,9.5,0,0,1-2.166-1.354l-.271-.181-1.805,1.083a4.019,4.019,0,0,1-3.069.451,3.689,3.689,0,0,1-2.437-1.9l-1.264-2.256a4.1,4.1,0,0,1,1.444-5.505l1.9-1.083v-.271a4.055,4.055,0,0,1-.361-1.986c0-.271.09-.632.09-.9s.09-.542.09-.722v-.18l.09-.451-1.805-1.083a4.24,4.24,0,0,1-1.9-2.437,4.019,4.019,0,0,1,.451-3.069l1.173-2.076a4.055,4.055,0,0,1,5.505-1.444l1.9,1.083.271-.18a12.6,12.6,0,0,1,3.249-1.986l.361-.181v-2.256a4.347,4.347,0,0,1,1.173-2.888,4.126,4.126,0,0,1,2.8-1.173h2.527a4.147,4.147,0,0,1,4.061,3.971v2.256l.451.181a.088.088,0,0,1,.09.09c.271.18.632.361.9.542a9.5,9.5,0,0,1,2.166,1.354l.271.18,1.805-1.083a4.017,4.017,0,0,1,5.505,1.444l1.264,2.076a4.019,4.019,0,0,1,.451,3.069,3.848,3.848,0,0,1-1.805,2.437l-2.617,1.534a1.378,1.378,0,0,1-1.444-2.347l2.617-1.534a1.44,1.44,0,0,0,.632-.812,1.253,1.253,0,0,0-.18-.993l-1.264-2.166a1.314,1.314,0,0,0-1.805-.451l-2.617,1.534a1.366,1.366,0,0,1-1.534-.09l-.993-.812a11.951,11.951,0,0,0-1.805-1.083c-.361-.18-.632-.361-.993-.541l-1.083-.542a1.408,1.408,0,0,1-.722-1.173V140.5a1.379,1.379,0,0,0-.361-.9,1.159,1.159,0,0,0-.9-.361H52.286a1.379,1.379,0,0,0-.9.361,1.159,1.159,0,0,0-.361.9v3.069a1.209,1.209,0,0,1-.722,1.173l-1.173.632a.088.088,0,0,0-.09.09,12.2,12.2,0,0,0-2.617,1.625l-.993.812a1.357,1.357,0,0,1-1.534.09l-2.708-1.534a1.314,1.314,0,0,0-1.805.451l-1.264,2.076a.984.984,0,0,0-.181,1.083,1.148,1.148,0,0,0,.632.812l2.617,1.444a1.591,1.591,0,0,1,.722,1.354l-.18,1.264c0,.451-.09.812-.09,1.083a.583.583,0,0,0-.181.451,3.384,3.384,0,0,0,.09.993.543.543,0,0,1,.09.361l.181,1.354a1.343,1.343,0,0,1-.632,1.354l-2.617,1.534a1.314,1.314,0,0,0-.451,1.8l1.264,2.256a1.44,1.44,0,0,0,.812.632,1.253,1.253,0,0,0,.993-.181l2.617-1.534a1.366,1.366,0,0,1,1.534.09l.993.812a11.953,11.953,0,0,0,1.805,1.083c.361.18.632.361.993.542l1.173.542a1.408,1.408,0,0,1,.722,1.173v2.888a1.379,1.379,0,0,0,.361.9,1.6,1.6,0,0,0,.9.361h2.527a1.379,1.379,0,0,0,.9-.361,1.159,1.159,0,0,0,.361-.9v-3.068a1.209,1.209,0,0,1,.722-1.173l1.173-.632a.088.088,0,0,0,.09-.09,12.2,12.2,0,0,0,2.617-1.625,1.346,1.346,0,0,1,1.715,2.076,12.6,12.6,0,0,1-3.249,1.986l-.361.18v2.256a4.347,4.347,0,0,1-1.173,2.888,4.126,4.126,0,0,1-2.8,1.173l-2.527.18Z" transform="translate(0 0)" fill="#555"></path>
    <path id="路径_1452" d="M220.562,362.526a8.871,8.871,0,0,1-6.318-15.162,8.727,8.727,0,0,1,6.318-2.617h.09a8.937,8.937,0,0,1,8.935,8.845,9.033,9.033,0,0,1-9.025,8.935h0Zm0-15.162a6.012,6.012,0,0,0-4.422,1.9,6.133,6.133,0,0,0-1.805,4.422,6.24,6.24,0,0,0,6.227,6.227,6.012,6.012,0,0,0,4.422-1.9,6.133,6.133,0,0,0,1.805-4.422A6.24,6.24,0,0,0,220.562,347.364ZM220.562,346.01Z" transform="translate(-167.103 -197.203)" fill="#555"></path>
    <path id="路径_1453" d="M616.738,530.068h-18.05a1.354,1.354,0,1,1,0-2.708h18.05a1.354,1.354,0,0,1,0,2.708Zm0,8.213h-18.05a1.354,1.354,0,1,1,0-2.707h18.05a1.354,1.354,0,1,1,0,2.707Zm0,8.213h-18.05a1.354,1.354,0,1,1,0-2.707h18.05a1.354,1.354,0,1,1,0,2.707Z" transform="translate(-532.413 -370.159)" fill="#555"></path>
  </g>
</svg>
