<?xml version="1.0" encoding="UTF-8"?>
<svg xmlns="http://www.w3.org/2000/svg" width="47" height="47" viewBox="0 0 47 47">
  <g id="设置3" transform="translate(-34.133 -34.133)">
    <path id="路径_1458" d="M206.756,541.572H174.023a3.367,3.367,0,0,1-3.357-3.357V527.3a3.367,3.367,0,0,1,3.357-3.357h32.732a3.367,3.367,0,0,1,3.357,3.357v10.911a3.367,3.367,0,0,1-3.357,3.357Z" transform="translate(-129.819 -465.726)" fill="#f57c14" opacity="0.3"></path>
    <path id="路径_1459" d="M74.923,81.133H40.344a6.2,6.2,0,0,1-6.211-6.211V67.537a6.2,6.2,0,0,1,6.211-6.211H74.923a6.2,6.2,0,0,1,6.211,6.211v7.386a6.2,6.2,0,0,1-6.211,6.211ZM40.344,63.844a3.726,3.726,0,0,0-3.693,3.693v7.386a3.726,3.726,0,0,0,3.693,3.693H74.923a3.726,3.726,0,0,0,3.693-3.693V67.537a3.726,3.726,0,0,0-3.693-3.693H40.344ZM52.682,55.2H40.344a6.2,6.2,0,0,1-6.211-6.211V41.6a6.2,6.2,0,0,1,6.211-6.211H52.682a1.259,1.259,0,0,1,0,2.518H40.344A3.671,3.671,0,0,0,36.651,41.6v7.386a3.726,3.726,0,0,0,3.693,3.693H52.682a1.259,1.259,0,1,1,0,2.518Zm17.289,1.259A11.163,11.163,0,1,1,81.133,45.3,11.212,11.212,0,0,1,69.971,56.458Zm0-19.807A8.645,8.645,0,1,0,78.615,45.3a8.632,8.632,0,0,0-8.645-8.645Z" fill="#555"></path>
    <path id="路径_1460" d="M691.48,189.719m-3.693,0a3.693,3.693,0,1,0,3.693-3.693A3.693,3.693,0,0,0,687.787,189.719Z" transform="translate(-621.509 -144.424)" fill="#555"></path>
  </g>
</svg>
