<?xml version="1.0" encoding="UTF-8"?>
<svg xmlns="http://www.w3.org/2000/svg" width="45.945" height="45.945" viewBox="0 0 45.945 45.945">
  <g id="设置5" transform="translate(-34.133 -34.133)">
    <path id="路径_1467" d="M361.106,455.038H336.082a3.291,3.291,0,0,1-3.282-3.282v-20.1a3.291,3.291,0,0,1,3.282-3.282h25.024a3.292,3.292,0,0,1,3.282,3.282v20.1A3.291,3.291,0,0,1,361.106,455.038Z" transform="translate(-284.309 -375.288)" fill="#f57c14" opacity="0.3"></path>
    <path id="路径_1468" d="M51.445,56.121h-12.8a4.553,4.553,0,0,1-4.512-4.512V38.646a4.553,4.553,0,0,1,4.512-4.512h12.8a4.553,4.553,0,0,1,4.512,4.512V51.609a4.5,4.5,0,0,1-4.512,4.512Zm-12.8-19.527a2.031,2.031,0,0,0-2.051,2.051V51.609a2.031,2.031,0,0,0,2.051,2.051h12.8A2.031,2.031,0,0,0,53.5,51.609V38.646a2.031,2.031,0,0,0-2.051-2.051Zm12.8,43.484h-12.8a4.553,4.553,0,0,1-4.512-4.512V62.6a4.553,4.553,0,0,1,4.512-4.512h12.8A4.553,4.553,0,0,1,55.957,62.6V75.566a4.5,4.5,0,0,1-4.512,4.512Zm-12.8-19.527A2.031,2.031,0,0,0,36.595,62.6V75.566a2.031,2.031,0,0,0,2.051,2.051h12.8A2.031,2.031,0,0,0,53.5,75.566V62.6a2.031,2.031,0,0,0-2.051-2.051h-12.8Zm30.521-4.43A10.96,10.96,0,0,1,58.255,45.209v-.164a10.912,10.912,0,0,1,21.824,0v.164A10.96,10.96,0,0,1,69.167,56.121Zm0-19.527a8.439,8.439,0,0,0-8.451,8.451v.164a8.451,8.451,0,1,0,16.9,0v-.164a8.439,8.439,0,0,0-8.451-8.451Zm6.4,43.484h-12.8a4.553,4.553,0,0,1-4.512-4.512V62.6a4.553,4.553,0,0,1,4.512-4.512h12.8A4.553,4.553,0,0,1,80.079,62.6V75.566a4.553,4.553,0,0,1-4.512,4.512Zm-12.8-19.527A2.031,2.031,0,0,0,60.716,62.6V75.566a2.031,2.031,0,0,0,2.051,2.051h12.8a2.031,2.031,0,0,0,2.051-2.051V62.6a2.031,2.031,0,0,0-2.051-2.051h-12.8Z" fill="#555"></path>
  </g>
</svg>
