<?xml version="1.0" encoding="UTF-8"?>
<svg xmlns="http://www.w3.org/2000/svg" width="58.975" height="60.191" viewBox="0 0 58.975 60.191">
  <g id="设置" transform="translate(-135.655 -128)">
    <path id="路径_876" d="M374.371,386.075a11.7,11.7,0,1,1,11.7-11.7A11.7,11.7,0,0,1,374.371,386.075Zm0-20.064a8.36,8.36,0,1,0,8.36,8.36A8.36,8.36,0,0,0,374.371,366.011Z" transform="translate(-209.22 -216.275)" fill="#fc9015"></path>
    <path id="路径_877" d="M170.793,188.191H159.507a3.436,3.436,0,0,1-3.4-3.127l-.3-3.662a.142.142,0,0,0-.084-.067,24.938,24.938,0,0,1-6.362-3.762c-.042,0-.075-.05-.1,0l-3.344,1.5a3.428,3.428,0,0,1-4.381-1.463l-5.459-9.923a3.419,3.419,0,0,1,1.1-4.481l3.06-2.04c-.092-1.037-.159-2.065-.159-3.068a24.492,24.492,0,0,1,.234-3.4l-3.06-2.132a3.436,3.436,0,0,1-1.02-4.5l5.6-9.8a3.444,3.444,0,0,1,4.406-1.4l3.344,1.563a.109.109,0,0,0,.084,0,25.079,25.079,0,0,1,6.069-3.528.142.142,0,0,0,.084-.067l.3-3.662A3.436,3.436,0,0,1,159.507,128h11.286a3.436,3.436,0,0,1,3.4,3.127l.3,3.662a.142.142,0,0,0,.084.067,24.938,24.938,0,0,1,6.362,3.762s.075.05.1,0l3.336-1.421a3.428,3.428,0,0,1,4.381,1.463l5.451,9.89a3.419,3.419,0,0,1-1.1,4.481l-3.06,2.04c.092,1.037.159,2.065.159,3.068a24.679,24.679,0,0,1-.234,3.4l3.06,2.132a3.436,3.436,0,0,1,1.037,4.456l-5.6,9.806a3.436,3.436,0,0,1-4.406,1.4l-3.344-1.563a.117.117,0,0,0-.084,0,25.08,25.08,0,0,1-6.069,3.528.142.142,0,0,0-.084.067l-.3,3.662a3.436,3.436,0,0,1-3.394,3.16Zm-21.527-14a3.47,3.47,0,0,1,2.19.786,21.385,21.385,0,0,0,5.518,3.26,3.436,3.436,0,0,1,2.149,2.893l.309,3.662a.067.067,0,0,0,.067.059h11.286a.067.067,0,0,0,.067-.059l.309-3.662a3.436,3.436,0,0,1,2.148-2.893,21.635,21.635,0,0,0,5.258-3.051,3.386,3.386,0,0,1,3.57-.435l3.344,1.555a.075.075,0,0,0,.092,0l5.6-9.848a.067.067,0,0,0,0-.084l-3.01-2.073a3.4,3.4,0,0,1-1.463-3.269,22.062,22.062,0,0,0,.184-2.934,23.3,23.3,0,0,0-.159-2.633,3.344,3.344,0,0,1,1.5-3.219l3.06-2.04a.067.067,0,0,0,0-.084l-5.434-9.89a.058.058,0,0,0-.084,0l-3.344,1.5a3.428,3.428,0,0,1-3.57-.485,21.385,21.385,0,0,0-5.518-3.26,3.436,3.436,0,0,1-2.148-2.893l-.309-3.662a.067.067,0,0,0-.067-.059h-11.3a.067.067,0,0,0-.067.059l-.309,3.662a3.436,3.436,0,0,1-2.148,2.893,21.636,21.636,0,0,0-5.258,3.051,3.4,3.4,0,0,1-3.57.435l-3.344-1.555a.075.075,0,0,0-.092,0l-5.593,9.823a.067.067,0,0,0,0,.084l3.01,2.073a3.4,3.4,0,0,1,1.463,3.269,22.062,22.062,0,0,0-.184,2.934,23.3,23.3,0,0,0,.159,2.633,3.344,3.344,0,0,1-1.5,3.219l-3.06,2.04a.067.067,0,0,0,0,.084l5.451,9.89a.059.059,0,0,0,.084,0l3.344-1.5a3.344,3.344,0,0,1,1.371-.276Z" transform="translate(0 0)" fill="#555"></path>
  </g>
</svg>
