<?xml version="1.0" encoding="UTF-8"?>
<svg xmlns="http://www.w3.org/2000/svg" width="55.479" height="55.488" viewBox="0 0 55.479 55.488">
  <g id="评论" transform="translate(-149.333 -159.999)">
    <path id="路径_845" d="M328.928,366.029h-28.58a1.681,1.681,0,1,1,0-3.362h28.58a1.681,1.681,0,1,1,0,3.362Zm0,13.449h-28.58a1.681,1.681,0,1,1,0-3.362h28.58a1.681,1.681,0,1,1,0,3.362Z" transform="translate(-137.565 -186.696)" fill="#fc9015"></path>
    <path id="路径_846" d="M162.581,215.478a1.829,1.829,0,0,1-.361,0,1.681,1.681,0,0,1-1.118-.967l-3.245-6.893H156.4a7.036,7.036,0,0,1-7.069-6.994V167a7.036,7.036,0,0,1,7.069-7h41.34a7.036,7.036,0,0,1,7.069,6.994v33.624a7.036,7.036,0,0,1-7.069,6.994h-25.15l-8.927,7.473a1.681,1.681,0,0,1-1.084.4ZM156.4,163.361a3.673,3.673,0,0,0-3.707,3.631v33.624a3.673,3.673,0,0,0,3.707,3.631h2.48a1.681,1.681,0,0,1,1.521.966l2.774,5.884,7.725-6.456a1.681,1.681,0,0,1,1.126-.387h25.714a3.673,3.673,0,0,0,3.707-3.631V167a3.673,3.673,0,0,0-3.707-3.64Z" fill="#555"></path>
  </g>
</svg>
