<?xml version="1.0" encoding="UTF-8"?>
<svg xmlns="http://www.w3.org/2000/svg" width="88.99" height="93.23" viewBox="0 0 88.99 93.23">
  <g id="组_23" transform="translate(-143.718 -126.669)">
    <path id="路径_53" d="M213.6,219.9H162.822a19.129,19.129,0,0,1-19.1-19.1V145.774a19.129,19.129,0,0,1,19.1-19.1H213.6a19.129,19.129,0,0,1,19.1,19.1v55.021a19.129,19.129,0,0,1-19.1,19.1Zm-50.781-87.067a12.956,12.956,0,0,0-12.942,12.942v55.021a12.956,12.956,0,0,0,12.942,12.942H213.6a12.956,12.956,0,0,0,12.942-12.942V145.774A12.956,12.956,0,0,0,213.6,132.832Z" fill="#4d5156"></path>
    <path id="路径_54" d="M337.324,367.673c-12.127-.355-23.776-10.662-23.776-23.77v-4.745a3.081,3.081,0,0,1,6.163,0V343.9a17.61,17.61,0,0,0,35.22,0v-4.745a3.081,3.081,0,0,1,6.163,0V343.9C361.1,357.012,349.451,368.028,337.324,367.673Z" transform="translate(-149.388 -182.202)" fill="#4891ff"></path>
  </g>
</svg>
