<?xml version="1.0" encoding="UTF-8"?>
<svg xmlns="http://www.w3.org/2000/svg" width="47.434" height="49.651" viewBox="0 0 47.434 49.651">
  <g id="资讯4" transform="translate(-56.32 -34.133)">
    <path id="路径_1352" d="M194.695,442.094H160.56a3.557,3.557,0,0,1-3.546-3.546V416.56a3.557,3.557,0,0,1,3.546-3.546h34.135a3.557,3.557,0,0,1,3.546,3.546v21.988a3.557,3.557,0,0,1-3.546,3.546Z" transform="translate(-95.463 -359.197)" fill="#f57c14" opacity="0.3"></path>
    <path id="路径_1353" d="M92.582,83.784H61.019A4.749,4.749,0,0,1,56.32,79V38.921a4.749,4.749,0,0,1,4.7-4.788H92.671a4.749,4.749,0,0,1,4.7,4.788V76.513a1.33,1.33,0,0,1-2.66,0V38.921a2.082,2.082,0,0,0-2.039-2.128H61.019a2.082,2.082,0,0,0-2.039,2.128V78.907a2.082,2.082,0,0,0,2.039,2.128H92.671A1.364,1.364,0,0,1,94,82.365a1.458,1.458,0,0,1-1.419,1.419Z" fill="#555"></path>
    <path id="路径_1354" d="M276.947,277.944H245.383a1.33,1.33,0,0,1,0-2.66h31.652c1.064,0,2.039-.621,2.039-1.33V242.923c0-.709-.887-1.33-2.039-1.33h-3.1a1.33,1.33,0,0,1,0-2.66h3.1c2.571,0,4.7,1.773,4.7,3.99v31.032c-.089,2.217-2.217,3.99-4.788,3.99Z" transform="translate(-177.98 -194.161)" fill="#555"></path>
    <path id="路径_1355" d="M233.592,230.223H211.25a1.33,1.33,0,1,1,0-2.66h22.343a1.33,1.33,0,1,1,0,2.66Zm-11.171,7H211.25a1.33,1.33,0,1,1,0-2.66h11.171a1.33,1.33,0,0,1,0,2.66Zm9.4-14.363h-18.8a3.141,3.141,0,0,1-3.1-3.1v-6.738a3.141,3.141,0,0,1,3.1-3.1h18.8a3.141,3.141,0,0,1,3.1,3.1v6.738A3.141,3.141,0,0,1,231.819,222.864Zm-18.8-10.285a.419.419,0,0,0-.443.443v6.738a.419.419,0,0,0,.443.443h18.8a.419.419,0,0,0,.443-.443v-6.738a.419.419,0,0,0-.443-.443Z" transform="translate(-145.62 -166.654)" fill="#555"></path>
  </g>
</svg>
