<?xml version="1.0" encoding="UTF-8"?>
<svg xmlns="http://www.w3.org/2000/svg" width="52.473" height="45.996" viewBox="0 0 52.473 45.996">
  <g id="资讯2" transform="translate(-34.133 -93.867)">
    <path id="路径_1343" d="M199.742,261.19H162.475a3.766,3.766,0,0,1-3.755-3.755v-23.28a3.766,3.766,0,0,1,3.755-3.755h37.266a3.766,3.766,0,0,1,3.755,3.755v23.28a3.707,3.707,0,0,1-3.755,3.755Z" transform="translate(-117.735 -129.024)" fill="#f57c14" opacity="0.3"></path>
    <path id="路径_1344" d="M60.417,139.863a2.41,2.41,0,0,1-1.69-.657l-5.163-5.163H39.2a5.048,5.048,0,0,1-5.069-5.069V98.936A5.048,5.048,0,0,1,39.2,93.867H81.537a5.048,5.048,0,0,1,5.069,5.069V128.88a5.048,5.048,0,0,1-5.069,5.069H67.175l-5.163,5.163a2.149,2.149,0,0,1-1.6.751ZM39.2,96.683a2.284,2.284,0,0,0-2.253,2.253V128.88a2.284,2.284,0,0,0,2.253,2.253H54.127a1.968,1.968,0,0,1,1.033.375l5.257,5.257,5.257-5.257a1.412,1.412,0,0,1,1.033-.375H81.631a2.284,2.284,0,0,0,2.253-2.253V98.936a2.284,2.284,0,0,0-2.253-2.253Z" fill="#555"></path>
    <path id="路径_1345" d="M268.332,258.224h-7.51a1.408,1.408,0,0,1,0-2.816h7.51a1.408,1.408,0,0,1,0,2.816Zm-4.975,9.95h-2.441a1.408,1.408,0,1,1,0-2.816h2.441a1.408,1.408,0,1,1,0,2.816Zm24.876,4.975a1.258,1.258,0,0,1-1.22-.751l-8.73-17.366a1.406,1.406,0,1,1,2.535-1.22l8.73,17.46a1.356,1.356,0,0,1-.657,1.877h-.657Z" transform="translate(-212.89 -150.37)" fill="#555"></path>
    <path id="路径_1346" d="M441.473,270.9a1.74,1.74,0,0,1-.657-.188,1.53,1.53,0,0,1-.657-1.877l8.73-17.46a1.406,1.406,0,1,1,2.534,1.22l-8.73,17.46A1.212,1.212,0,0,1,441.473,270.9Z" transform="translate(-383.59 -148.122)" fill="#555"></path>
    <path id="路径_1347" d="M500.293,480.683H487.808a1.408,1.408,0,0,1,0-2.816h12.485a1.408,1.408,0,0,1,0,2.816Z" transform="translate(-427.391 -362.88)" fill="#555"></path>
  </g>
</svg>
