<?xml version="1.0" encoding="UTF-8"?>
<svg xmlns="http://www.w3.org/2000/svg" width="53.525" height="48.102" viewBox="0 0 53.525 48.102">
  <g id="资讯5" transform="translate(0 -64)">
    <path id="路径_1359" d="M243.035,162.822m-14.342,0a14.342,14.342,0,1,0,14.342-14.342A14.342,14.342,0,0,0,228.693,162.822Z" transform="translate(-208.357 -65.063)" fill="#f57c14" opacity="0.3"></path>
    <path id="路径_1356" d="M99.637,101.495a1.329,1.329,0,0,1-1.117-.6l-.154-.234a24.335,24.335,0,0,1-3.854-13.241C94.512,74.5,104.387,64,116.518,64a21.833,21.833,0,0,1,19.523,12.6c.08.161.154.321.234.488.114.248.221.482.321.729a1.337,1.337,0,0,1-2.462,1.044c-.094-.214-.187-.435-.288-.642-.067-.141-.134-.288-.207-.435a19.161,19.161,0,0,0-17.115-11.107c-10.665,0-19.336,9.307-19.336,20.741a21.684,21.684,0,0,0,3.426,11.789l.141.214a1.337,1.337,0,0,1-.375,1.853A1.39,1.39,0,0,1,99.637,101.495Zm16.887,9.34a20.943,20.943,0,0,1-11.053-3.165,1.337,1.337,0,0,1,1.405-2.275,18.328,18.328,0,0,0,9.648,2.763c10.658,0,19.329-9.307,19.329-20.741a1.338,1.338,0,1,1,2.676,0C138.53,100.331,128.661,110.835,116.524,110.835Z" transform="translate(-89.572)" fill="#555"></path>
    <path id="路径_1357" d="M6.305,193.829a10.354,10.354,0,0,1-2.623-.3,4.767,4.767,0,0,1-3.151-2.282c-1.934-3.573,1.78-8.725,5.239-12.418l1.954,1.827c-4.617,4.938-5.493,8.1-4.837,9.313a2.239,2.239,0,0,0,1.485.97c3.787,1.01,13.522-1.392,25.953-9.059A76.616,76.616,0,0,0,46.135,169.3c4.342-4.744,5.185-7.741,4.516-8.972-.609-1.124-3.426-1.867-9.354-.241l-.709-2.583c6.6-1.806,10.886-1.271,12.411,1.552,1.492,2.757-.207,6.925-4.9,12.05a79.311,79.311,0,0,1-16.379,13.054C21.941,190.2,12.247,193.829,6.305,193.829Z" transform="translate(0 -87.625)" fill="#555"></path>
    <path id="路径_1358" d="M232.494,383.948a1.341,1.341,0,0,1-.7-2.482l6.671-4.088a1.338,1.338,0,1,1,1.4,2.282l-6.671,4.088A1.346,1.346,0,0,1,232.494,383.948Zm14.178,2.041a1.341,1.341,0,0,1-.7-2.482l10.678-6.544a1.338,1.338,0,1,1,1.4,2.282l-10.678,6.543A1.285,1.285,0,0,1,246.672,385.988Z" transform="translate(-219.07 -296.416)" fill="#555"></path>
  </g>
</svg>
