<?xml version="1.0" encoding="UTF-8"?>
<svg xmlns="http://www.w3.org/2000/svg" width="50.357" height="49.162" viewBox="0 0 50.357 49.162">
  <g id="资讯1" transform="translate(-34.133 -46.483)">
    <path id="路径_1340" d="M90.565,429H54.8a3.614,3.614,0,0,1-3.6-3.6v-22.43a3.614,3.614,0,0,1,3.6-3.6H90.565a3.614,3.614,0,0,1,3.6,3.6V425.3a3.634,3.634,0,0,1-3.6,3.693Z" transform="translate(-16.166 -334.252)" fill="#f57c14" opacity="0.3"></path>
    <path id="路径_1341" d="M79.713,298.953H39a4.844,4.844,0,0,1-4.864-4.864v-28.1A4.844,4.844,0,0,1,39,261.12H79.623a4.844,4.844,0,0,1,4.864,4.864v28.1a4.713,4.713,0,0,1-4.774,4.864ZM39,263.822a2.192,2.192,0,0,0-2.162,2.162v28.1A2.192,2.192,0,0,0,39,296.251H79.623a2.192,2.192,0,0,0,2.162-2.162v-28.1a2.192,2.192,0,0,0-2.162-2.162H39Z" transform="translate(0 -203.308)" fill="#555"></path>
    <path id="路径_1342" d="M97.435,86.817a8.918,8.918,0,1,1,8.918-8.918A8.938,8.938,0,0,1,97.435,86.817Zm0-15.043a6.215,6.215,0,1,0,6.215,6.215A6.228,6.228,0,0,0,97.435,71.774Zm22.61,2.522h-7.567a1.351,1.351,0,0,1,0-2.7h7.567a1.385,1.385,0,0,1,1.351,1.351A1.327,1.327,0,0,1,120.045,74.3Zm0,10.089h-7.567a1.351,1.351,0,1,1,0-2.7h7.567a1.385,1.385,0,0,1,1.351,1.351A1.327,1.327,0,0,1,120.045,84.385ZM83.653,60.514a1.207,1.207,0,0,1-1.171-.721,1.3,1.3,0,0,1,.631-1.8l22.52-11.35a1.35,1.35,0,1,1,1.171,2.432l-22.52,11.26a2.291,2.291,0,0,1-.631.18Z" transform="translate(-45.646)" fill="#555"></path>
  </g>
</svg>
