<?xml version="1.0" encoding="UTF-8"?>
<svg xmlns="http://www.w3.org/2000/svg" width="49.304" height="49.651" viewBox="0 0 49.304 49.651">
  <g id="资讯6" transform="translate(-2.297)">
    <path id="路径_1364" d="M243.035,162.822m-14.342,0a14.342,14.342,0,1,0,14.342-14.342A14.342,14.342,0,0,0,228.693,162.822Z" transform="translate(-212.082 -129.514)" fill="#f57c14" opacity="0.3"></path>
    <path id="路径_1360" d="M26.95,50.621A24.8,24.8,0,1,1,51.6,25.821,24.752,24.752,0,0,1,26.95,50.621Zm0-47.129A22.328,22.328,0,1,0,49.13,25.821,22.272,22.272,0,0,0,26.95,3.493Z" transform="translate(-0.001 -0.97)" fill="#555"></path>
    <path id="路径_1361" d="M225.411,49.651c-4.006,0-7.739-2.67-10.484-7.542a35.64,35.64,0,0,1-4.055-17.284,35.709,35.709,0,0,1,4.055-17.284C217.671,2.7,221.38,0,225.411,0c3.19,0,6.206,1.681,8.7,4.871A1.232,1.232,0,0,1,232.186,6.4c-1.409-1.78-3.734-3.932-6.75-3.932-3.091,0-6.033,2.225-8.308,6.281A33.38,33.38,0,0,0,213.394,24.8a33.31,33.31,0,0,0,3.734,16.047c2.275,4.055,5.242,6.281,8.308,6.281,3.091,0,6.033-2.225,8.308-6.281A33.38,33.38,0,0,0,237.477,24.8c0-.89-.025-1.805-.1-2.7a1.239,1.239,0,0,1,2.473-.148c.049.94.1,1.9.1,2.844a35.778,35.778,0,0,1-4.055,17.284c-2.745,4.9-6.478,7.566-10.484,7.566Z" transform="translate(-198.461)" fill="#555"></path>
    <path id="路径_1362" d="M499.052,19.466a1.241,1.241,0,0,1-1.212-1.014,30.248,30.248,0,0,0-2.25-7.146,1.228,1.228,0,0,1,2.225-1.039,32.99,32.99,0,0,1,2.448,7.739,1.272,1.272,0,0,1-.989,1.459h-.223ZM486.466,50.621a1.224,1.224,0,0,1-1.236-1.236V2.256a1.236,1.236,0,1,1,2.473,0V49.385a1.224,1.224,0,0,1-1.236,1.236Z" transform="translate(-459.517 -0.97)" fill="#555"></path>
    <path id="路径_1363" d="M50.365,505.294H3.533a1.236,1.236,0,0,1,0-2.473H50.365a1.236,1.236,0,0,1,0,2.473Z" transform="translate(0 -478.441)" fill="#555"></path>
  </g>
</svg>
