<?xml version="1.0" encoding="UTF-8"?>
<svg xmlns="http://www.w3.org/2000/svg" width="41.558" height="48.384" viewBox="0 0 41.558 48.384">
  <g id="资讯3" transform="translate(-100.693 -34.133)">
    <path id="路径_1348" d="M243.035,162.822m-14.342,0a14.342,14.342,0,1,0,14.342-14.342A14.342,14.342,0,0,0,228.693,162.822Z" transform="translate(-121.52 -108.558)" fill="#f57c14" opacity="0.3"></path>
    <path id="路径_1349" d="M101.989,82.517a1.6,1.6,0,0,1-.6-.173,1.348,1.348,0,0,1-.691-1.123V38.8a4.646,4.646,0,0,1,4.666-4.666h32.227a4.646,4.646,0,0,1,4.666,4.666V81.22a1.158,1.158,0,0,1-.691,1.123,1.333,1.333,0,0,1-1.382-.086l-5.616-4.147-6.134,4.147a1.484,1.484,0,0,1-1.469,0L120.91,78.11l-5.789,4.147a1.3,1.3,0,0,1-1.555,0L108.3,78.2l-5.53,4.061a1.206,1.206,0,0,1-.778.259Zm18.921-7.258a1.394,1.394,0,0,1,.778.259l6.048,4.147,6.221-4.234a1.3,1.3,0,0,1,1.469,0l4.32,3.2V38.8a2.122,2.122,0,0,0-2.16-2.074h-32.14a2.122,2.122,0,0,0-2.16,2.074v39.83l4.234-3.11a1.3,1.3,0,0,1,1.555,0l5.27,4.061,5.789-4.147a2.523,2.523,0,0,1,.778-.173Z" transform="translate(0 0)" fill="#555"></path>
    <path id="路径_1350" d="M248.413,166.432H221.456a1.3,1.3,0,0,1,0-2.592h26.957a1.3,1.3,0,0,1,0,2.592ZM247.2,173.6h-8.986a1.3,1.3,0,0,1,0-2.592H247.2a1.3,1.3,0,0,1,0,2.592Zm0,6.912h-8.986a1.3,1.3,0,0,1,0-2.592H247.2a1.3,1.3,0,1,1,0,2.592Zm0,7h-8.986a1.3,1.3,0,0,1,0-2.592H247.2a1.3,1.3,0,0,1,0,2.592Zm0,6.912h-8.986a1.3,1.3,0,0,1,0-2.592H247.2a1.3,1.3,0,0,1,0,2.592Z" transform="translate(-113.419 -123.141)" fill="#555"></path>
    <path id="路径_1351" d="M229.232,321.238h-6.048a3.061,3.061,0,0,1-3.024-3.024v-18.23a3.061,3.061,0,0,1,3.024-3.024h6.048a3.061,3.061,0,0,1,3.024,3.024v18.23A3.005,3.005,0,0,1,229.232,321.238Zm-6.048-21.686a.408.408,0,0,0-.432.432v18.23a.408.408,0,0,0,.432.432h6.048a.408.408,0,0,0,.432-.432v-18.23a.408.408,0,0,0-.432-.432Z" transform="translate(-113.419 -249.521)" fill="#555"></path>
  </g>
</svg>
