<?xml version="1.0" encoding="UTF-8"?>
<svg xmlns="http://www.w3.org/2000/svg" width="51.596" height="59.785" viewBox="0 0 51.596 59.785">
  <g id="通知" transform="translate(-181.333 -139.52)">
    <path id="路径_906" d="M231.266,188.379H183a1.664,1.664,0,0,1-1.332-2.663l5.135-6.841V159.851a20.331,20.331,0,1,1,40.661,0v19.024l5.135,6.841a1.664,1.664,0,0,1-1.332,2.663Zm-44.939-3.329h41.61l-3.47-4.619a1.664,1.664,0,0,1-.333-1V159.851a17,17,0,1,0-34,0V179.4a1.664,1.664,0,0,1-.333,1Z" fill="#555"></path>
    <path id="路径_907" d="M417,791.143a8.047,8.047,0,0,1-8.039-8.039,1.664,1.664,0,0,1,3.329,0,4.71,4.71,0,0,0,9.421,0,1.664,1.664,0,0,1,3.329,0A8.047,8.047,0,0,1,417,791.143Z" transform="translate(-209.867 -591.838)" fill="#fc9015"></path>
  </g>
</svg>
