<?xml version="1.0" encoding="UTF-8"?>
<svg xmlns="http://www.w3.org/2000/svg" id="通讯录6" width="44.493" height="42.966" viewBox="0 0 44.493 42.966">
  <path id="路径_1245" d="M1.432,290.3H8.307a1.432,1.432,0,0,0,0-2.864H1.432a1.432,1.432,0,0,0,0,2.864Z" transform="translate(0 -275.035)" fill="#555"></path>
  <path id="路径_1246" d="M1.432,467.267H8.307a1.432,1.432,0,0,0,0-2.864H1.432a1.432,1.432,0,0,0,0,2.864Zm0,7.639H8.307a1.432,1.432,0,0,0,0-2.864H1.432a1.432,1.432,0,0,0,0,2.864Z" transform="translate(0 -444.36)" fill="#555"></path>
  <path id="路径_1247" d="M521.555,486.132m-10.5,0a10.5,10.5,0,1,0,10.5-10.5A10.5,10.5,0,0,0,511.052,486.132Z" transform="translate(-488.996 -455.102)" fill="#f57c14" opacity="0.3"></path>
  <path id="路径_1248" d="M82.509,9.451V4.919A1.977,1.977,0,0,1,84.4,2.864h31.549a1.977,1.977,0,0,1,1.889,2.054V38.047a1.977,1.977,0,0,1-1.889,2.054H84.4a1.977,1.977,0,0,1-1.889-2.054V32.274a1.432,1.432,0,0,0-2.864,0v5.773A4.837,4.837,0,0,0,84.4,42.966h31.549a4.837,4.837,0,0,0,4.753-4.919V4.919A4.837,4.837,0,0,0,115.946,0H84.4a4.837,4.837,0,0,0-4.753,4.919V9.451a1.432,1.432,0,0,0,2.864,0Z" transform="translate(-76.207)" fill="#555"></path>
  <path id="路径_1249" d="M445.665,239.649a5.895,5.895,0,1,0-5.895-5.895A5.895,5.895,0,0,0,445.665,239.649Zm0-2.291a3.6,3.6,0,1,1,3.6-3.6A3.6,3.6,0,0,1,445.665,237.357Z" transform="translate(-420.791 -218.025)" fill="#555"></path>
  <path id="路径_1250" d="M354.054,458.934v-1.316a7.4,7.4,0,0,1,14.8,0v1.316a1.146,1.146,0,0,0,2.292,0v-1.316a9.694,9.694,0,1,0-19.388,0v1.316a1.146,1.146,0,0,0,2.292,0Z" transform="translate(-336.581 -428.593)" fill="#555"></path>
</svg>
