<?xml version="1.0" encoding="UTF-8"?>
<svg xmlns="http://www.w3.org/2000/svg" width="46.337" height="47.788" viewBox="0 0 46.337 47.788">
  <g id="通讯录5" transform="translate(-49.493 -34.133)">
    <path id="路径_1242" d="M539.135,595.456m-10.07,0a10.07,10.07,0,1,0,10.07-10.07A10.07,10.07,0,0,0,529.066,595.456Z" transform="translate(-455.593 -523.69)" fill="#f57c14" opacity="0.3"></path>
    <path id="路径_1243" d="M346.625,54.955a10.411,10.411,0,1,1,10.411-10.411,10.453,10.453,0,0,1-10.411,10.411Zm0-18.262a7.851,7.851,0,1,0,7.851,7.851,7.83,7.83,0,0,0-7.851-7.851Zm19.2,36.1H353.2a1.28,1.28,0,1,1,0-2.56h12.63a1.28,1.28,0,1,1,0,2.56Zm1.024,9.131H353.2a1.28,1.28,0,1,1,0-2.56h13.739a1.312,1.312,0,0,1,1.28,1.28,1.332,1.332,0,0,1-1.365,1.28Z" transform="translate(-272.384)" fill="#555"></path>
    <path id="路径_1244" d="M74.24,594.262H59.9a10.411,10.411,0,0,1,0-20.822H88.577a1.28,1.28,0,0,1,0,2.56H59.9a7.851,7.851,0,0,0,0,15.7H74.24a1.28,1.28,0,1,1,0,2.56Z" transform="translate(0 -512.341)" fill="#555"></path>
  </g>
</svg>
