<?xml version="1.0" encoding="UTF-8"?>
<svg xmlns="http://www.w3.org/2000/svg" width="59.594" height="46.398" viewBox="0 0 59.594 46.398">
  <g id="通讯录2" transform="translate(-34.133 -148.48)">
    <path id="路径_1231" d="M561.552,439.736H545.27a4.269,4.269,0,0,1-4.257-4.257V422.39a4.269,4.269,0,0,1,4.257-4.257h16.282a4.269,4.269,0,0,1,4.257,4.257V435.48A4.2,4.2,0,0,1,561.552,439.736Z" transform="translate(-475.274 -252.839)" fill="#f57c14" opacity="0.3"></path>
    <path id="路径_1232" d="M55.843,169.551a10.535,10.535,0,1,1,10.535-10.535A10.492,10.492,0,0,1,55.843,169.551Zm0-17.878a7.343,7.343,0,1,0,7.343,7.343A7.358,7.358,0,0,0,55.843,151.673Zm20.113,43.206a1.637,1.637,0,0,1-1.6-1.6,18.517,18.517,0,1,0-37.034,0,1.637,1.637,0,0,1-1.6,1.6,1.567,1.567,0,0,1-1.6-1.6,21.709,21.709,0,1,1,43.419,0,1.567,1.567,0,0,1-1.6,1.6Z" transform="translate(0 0)" fill="#555"></path>
    <path id="路径_1233" d="M588.859,193.814h-5.108a1.6,1.6,0,1,1,0-3.193h5.108a2.59,2.59,0,0,0,2.554-2.554V154.227a2.59,2.59,0,0,0-2.554-2.554H569.916a1.6,1.6,0,0,1,0-3.193h18.943a5.723,5.723,0,0,1,5.747,5.747v33.841A5.723,5.723,0,0,1,588.859,193.814Z" transform="translate(-500.878)" fill="#555"></path>
    <path id="路径_1234" d="M642.948,298.446h-15a1.6,1.6,0,1,1,0-3.193h15a1.6,1.6,0,0,1,0,3.193Zm0,10.961H632.094a1.6,1.6,0,0,1,0-3.193h10.748a1.637,1.637,0,0,1,1.6,1.6A1.546,1.546,0,0,1,642.948,309.407Zm0,11.068h-5.427a1.6,1.6,0,0,1,0-3.193h5.427a1.6,1.6,0,0,1,0,3.193Z" transform="translate(-555.287 -137.621)" fill="#555"></path>
  </g>
</svg>
