<?xml version="1.0" encoding="UTF-8"?>
<svg xmlns="http://www.w3.org/2000/svg" width="52.474" height="43.291" viewBox="0 0 52.474 43.291">
  <g id="通讯录4" transform="translate(-34.133 -117.76)">
    <path id="路径_1239" d="M178.13,326.65H155.641a3.759,3.759,0,0,1-3.748-3.748V307.534a3.759,3.759,0,0,1,3.748-3.748H178.13a3.759,3.759,0,0,1,3.748,3.748v15.274a3.78,3.78,0,0,1-3.748,3.842Z" transform="translate(-111.295 -175.812)" fill="#f57c14" opacity="0.3"></path>
    <path id="路径_1240" d="M81.453,161.051H39.287a5.2,5.2,0,0,1-5.154-5.154V122.914a5.2,5.2,0,0,1,5.154-5.154H81.453a5.2,5.2,0,0,1,5.154,5.154V155.9a5.2,5.2,0,0,1-5.154,5.154Zm-42.166-40.48a2.32,2.32,0,0,0-2.343,2.343V155.9a2.32,2.32,0,0,0,2.343,2.343H81.453A2.32,2.32,0,0,0,83.8,155.9V122.914a2.32,2.32,0,0,0-2.343-2.343H39.287Z" fill="#555"></path>
    <path id="路径_1241" d="M181.5,254.882a7.121,7.121,0,1,1,7.121-7.121A7.118,7.118,0,0,1,181.5,254.882Zm0-11.432a4.31,4.31,0,1,0,4.31,4.31A4.3,4.3,0,0,0,181.5,243.45Zm12.837,28.86a1.441,1.441,0,0,1-1.406-1.406,11.432,11.432,0,1,0-22.863,0,1.406,1.406,0,0,1-2.811,0,14.243,14.243,0,0,1,28.486,0A1.38,1.38,0,0,1,194.334,272.311Zm9.37-23.051H192.273a1.406,1.406,0,1,1,0-2.811H203.7a1.406,1.406,0,1,1,0,2.811Zm0,7.121H194.99a1.406,1.406,0,0,1,0-2.811H203.7a1.406,1.406,0,0,1,0,2.811Zm0,7.028h-5.341a1.406,1.406,0,1,1,0-2.811H203.7a1.406,1.406,0,0,1,0,2.811Z" transform="translate(-125.812 -116.132)" fill="#555"></path>
  </g>
</svg>
