<?xml version="1.0" encoding="UTF-8"?>
<svg xmlns="http://www.w3.org/2000/svg" width="47.324" height="47.324" viewBox="0 0 47.324 47.324">
  <g id="通讯录3" transform="translate(-34.133 -34.133)">
    <path id="路径_1235" d="M458.419,216.072m-7.859,0a7.859,7.859,0,1,0,7.859-7.859A7.859,7.859,0,0,0,450.56,216.072Z" transform="translate(-395.807 -165.46)" fill="#f57c14" opacity="0.3"></path>
    <path id="路径_1236" d="M252.455,162.338a6.93,6.93,0,1,1,6.93-6.93A6.961,6.961,0,0,1,252.455,162.338Zm0-11.24a4.418,4.418,0,0,0-4.394,4.394,4.394,4.394,0,1,0,8.789,0A4.418,4.418,0,0,0,252.455,151.1Zm12.254,26.958H240.2a1.3,1.3,0,0,1-1.268-1.268,13.521,13.521,0,1,1,27.043,0,1.245,1.245,0,0,1-1.268,1.268Zm-23.155-2.535h21.8a10.974,10.974,0,0,0-21.8,0Z" transform="translate(-194.66 -108.684)" fill="#555"></path>
    <path id="路径_1237" d="M76.81,81.458H38.781a4.689,4.689,0,0,1-4.648-4.648V38.781a4.689,4.689,0,0,1,4.648-4.648H76.81a4.689,4.689,0,0,1,4.648,4.648V76.81a4.689,4.689,0,0,1-4.648,4.648ZM38.781,36.669a2.092,2.092,0,0,0-2.113,2.113V76.81a2.092,2.092,0,0,0,2.113,2.113H76.81a2.092,2.092,0,0,0,2.113-2.113V38.781a2.092,2.092,0,0,0-2.113-2.113Z" fill="#555"></path>
    <path id="路径_1238" d="M290.849,809.788H269.215a1.268,1.268,0,1,1,0-2.535h21.55a1.3,1.3,0,0,1,1.268,1.268A1.228,1.228,0,0,1,290.849,809.788Z" transform="translate(-222.236 -734.838)" fill="#555"></path>
  </g>
</svg>
