<?xml version="1.0" encoding="UTF-8"?>
<svg xmlns="http://www.w3.org/2000/svg" width="49.543" height="48.251" viewBox="0 0 49.543 48.251">
  <g id="通讯录1" transform="translate(-22.187 -34.133)">
    <path id="路径_1228" d="M239.573,584.051v-.862a19.947,19.947,0,1,0-39.893,0v.862Z" transform="translate(-168.532 -502.357)" fill="#f57c14" opacity="0.3"></path>
    <path id="路径_1229" d="M682.9,774H668.6a1.292,1.292,0,0,1,0-2.585h14.389a1.325,1.325,0,0,1,1.292,1.292A1.4,1.4,0,0,1,682.9,774Zm0,6.721H668.6a1.292,1.292,0,0,1,0-2.585h14.389a1.325,1.325,0,0,1,1.292,1.292A1.4,1.4,0,0,1,682.9,780.718Z" transform="translate(-612.551 -700.058)" fill="#555"></path>
    <path id="路径_1230" d="M45.192,56.018A10.943,10.943,0,1,1,56.135,45.076,10.958,10.958,0,0,1,45.192,56.018Zm0-19.3a8.358,8.358,0,1,0,8.358,8.358A8.366,8.366,0,0,0,45.192,36.718ZM23.479,82.384a1.325,1.325,0,0,1-1.292-1.292A23.012,23.012,0,0,1,62.941,66.444a1.285,1.285,0,1,1-1.982,1.637,20.44,20.44,0,0,0-36.188,13.01,1.325,1.325,0,0,1-1.292,1.292Z" fill="#555"></path>
  </g>
</svg>
