<?xml version="1.0" encoding="UTF-8"?>
<svg xmlns="http://www.w3.org/2000/svg" width="69.551" height="57.718" viewBox="0 0 69.551 57.718">
  <g id="酒店" transform="translate(-128 -192)">
    <path id="路径_830" d="M348.054,366.53H332.6a1.932,1.932,0,0,1,0-3.864h15.456a1.932,1.932,0,0,1,0,3.864Zm0,10.626H332.6a1.932,1.932,0,0,1,0-3.864h15.456a1.932,1.932,0,0,1,0,3.864Zm0,12.558H332.6a1.932,1.932,0,0,1,0-3.864h15.456a1.932,1.932,0,0,1,0,3.864Z" transform="translate(-184.313 -155.211)" fill="#fc9015"></path>
    <path id="路径_831" d="M264.108,249.717H231.265a1.932,1.932,0,0,1-1.932-1.932V193.932A1.932,1.932,0,0,1,231.265,192h32.844a1.932,1.932,0,0,1,1.932,1.932v53.854a1.932,1.932,0,0,1-1.932,1.932ZM233.2,245.854h28.98v-49.99H233.2Z" transform="translate(-92.156)" fill="#555"></path>
    <path id="路径_832" d="M434.775,441.306H401.932a1.932,1.932,0,1,1,0-3.864h30.912V406.531h-7a1.932,1.932,0,1,1,0-3.864h8.935a1.932,1.932,0,0,1,1.932,1.932v34.776a1.932,1.932,0,0,1-1.932,1.932Z" transform="translate(-247.367 -191.589)" fill="#555"></path>
    <path id="路径_833" d="M195.619,790.53H129.932a1.932,1.932,0,0,1,0-3.864h65.687a1.932,1.932,0,0,1,0,3.864Z" transform="translate(0 -540.813)" fill="#555"></path>
  </g>
</svg>
