<?xml version="1.0" encoding="UTF-8"?>
<svg xmlns="http://www.w3.org/2000/svg" width="59.037" height="59.037" viewBox="0 0 59.037 59.037">
  <g id="钱包" transform="translate(-181.333 -181.334)">
    <path id="路径_849" d="M224.935,191.808h-43.6v-4.285a6.2,6.2,0,0,1,6.189-6.189h31.223a6.2,6.2,0,0,1,6.189,6.189ZM185.142,188h35.984v-.476a2.381,2.381,0,0,0-2.381-2.381H187.522a2.381,2.381,0,0,0-2.381,2.381Z" transform="translate(0)" fill="#fc9015"></path>
    <path id="路径_850" d="M234.18,308.372H187.522a6.2,6.2,0,0,1-6.189-6.189V256H234.18a6.2,6.2,0,0,1,6.189,6.189v39.993a6.2,6.2,0,0,1-6.189,6.189Zm-49.039-48.563v42.373a2.381,2.381,0,0,0,2.381,2.381H234.18a2.381,2.381,0,0,0,2.381-2.381V262.189a2.381,2.381,0,0,0-2.381-2.381Z" transform="translate(0 -68.001)" fill="#555"></path>
    <path id="路径_851" d="M461.9,458.282H437.141a10.474,10.474,0,1,1,0-20.949H461.9a1.9,1.9,0,0,1,1.9,1.9v17.14a1.9,1.9,0,0,1-1.9,1.9Zm-24.757-17.14a6.665,6.665,0,1,0,0,13.331h22.853V441.142Z" transform="translate(-223.433 -233.146)" fill="#555"></path>
    <path id="路径_852" d="M521.142,524.951a3.809,3.809,0,1,1,3.809-3.809A3.809,3.809,0,0,1,521.142,524.951ZM521.142,521.143Z" transform="translate(-306.006 -306.005)" fill="#fc9015"></path>
  </g>
</svg>
