<?xml version="1.0" encoding="UTF-8"?>
<svg xmlns="http://www.w3.org/2000/svg" width="62.062" height="48.27" viewBox="0 0 62.062 48.27">
  <g id="银行卡" transform="translate(-128 -213.334)">
    <path id="路径_908" d="M306.64,376.781H279.058a1.724,1.724,0,1,1,0-3.448H306.64a1.724,1.724,0,1,1,0,3.448Zm-8.62,10.344H279.058a1.724,1.724,0,1,1,0-3.448h18.963a1.724,1.724,0,1,1,0,3.448Zm14.653,13.792a3.448,3.448,0,1,1,3.448-3.448A3.448,3.448,0,0,1,312.674,400.916ZM312.674,397.468Z" transform="translate(-137.266 -147.07)" fill="#fc9015"></path>
    <path id="路径_909" d="M183.166,261.6H134.9a6.9,6.9,0,0,1-6.9-6.9V220.229a6.9,6.9,0,0,1,6.9-6.9h48.27a6.9,6.9,0,0,1,6.9,6.9v34.479a6.9,6.9,0,0,1-6.9,6.9ZM134.9,216.782a3.448,3.448,0,0,0-3.448,3.448v34.479a3.448,3.448,0,0,0,3.448,3.448h48.27a3.448,3.448,0,0,0,3.448-3.448V220.229a3.448,3.448,0,0,0-3.448-3.448Z" transform="translate(0)" fill="#555"></path>
  </g>
</svg>
