<?xml version="1.0" encoding="UTF-8"?>
<svg xmlns="http://www.w3.org/2000/svg" width="63.912" height="63.024" viewBox="0 0 63.912 63.024">
  <g id="预警" transform="translate(-128 -117.333)">
    <path id="路径_914" d="M303.054,302.594h-41.72V271.526a20.86,20.86,0,1,1,41.72,0Zm-38.17-3.551H299.5V271.526a17.309,17.309,0,1,0-34.619,0Z" transform="translate(-122.238 -122.237)" fill="#555"></path>
    <path id="路径_915" d="M190.136,180.357H129.775a1.775,1.775,0,1,1,0-3.551h60.361a1.775,1.775,0,0,1,0,3.551ZM159.956,126.21a1.775,1.775,0,0,1-1.775-1.775v-5.326a1.775,1.775,0,1,1,3.551,0v5.326a1.775,1.775,0,0,1-1.775,1.775Z" fill="#555"></path>
    <path id="路径_916" d="M492.442,126.21a1.775,1.775,0,0,1-1.775-1.775v-5.326a1.775,1.775,0,0,1,3.551,0v5.326A1.775,1.775,0,0,1,492.442,126.21Zm12.072,2.574a1.775,1.775,0,0,1-1.26-3.027l3.764-3.764a1.776,1.776,0,0,1,2.512,2.512l-3.773,3.764a1.775,1.775,0,0,1-1.243.515Z" transform="translate(-332.486)" fill="#555"></path>
    <path id="路径_917" d="M323.8,173.725a1.775,1.775,0,0,1-1.26-3.027l3.764-3.764a1.776,1.776,0,1,1,2.512,2.512l-3.773,3.764a1.775,1.775,0,0,1-1.243.515Zm-24.642,0a1.775,1.775,0,0,1-1.26-.515l-3.764-3.764a1.775,1.775,0,1,1,2.5-2.512L300.4,170.7a1.771,1.771,0,0,1-1.243,3.027Z" transform="translate(-151.775 -44.941)" fill="#555"></path>
    <path id="路径_918" d="M383.134,416.009a1.837,1.837,0,0,1-.684-.133,1.775,1.775,0,0,1-1.092-1.891l1.5-10.4h-7.714a1.775,1.775,0,0,1-1.474-2.761l10.652-15.978a1.775,1.775,0,0,1,3.249.985v8.877h8.877a1.775,1.775,0,0,1,1.42,2.841L384.554,415.3a1.775,1.775,0,0,1-1.42.71Zm-4.669-15.978h6.444a1.775,1.775,0,0,1,1.775,2.024l-.8,5.566,7.013-9.365h-7.1a1.775,1.775,0,0,1-1.775-1.775V391.7Z" transform="translate(-224.954 -244.528)" fill="#fc9015"></path>
  </g>
</svg>
