<?xml version="1.0" encoding="UTF-8"?>
<svg xmlns="http://www.w3.org/2000/svg" width="70.399" height="51.929" viewBox="0 0 70.399 51.929">
  <g id="飞机" transform="translate(-44.856 -169.498)">
    <path id="路径_815" d="M55.209,471.179l-.8-1.011L45.422,458.92a2.647,2.647,0,0,1,.915-4.011l2.736-1.332a6.891,6.891,0,0,1,7.766,1.163l4.7,4.18a2.647,2.647,0,0,1-.61,4.356l-2.11,1.035a3.506,3.506,0,0,0-1.693,4.284l.473,1.324Zm-6.843-13.694,5.888,7.381a6.57,6.57,0,0,1,3.209-3.41l1.364-.666L54.7,457.107a3.706,3.706,0,0,0-4.2-.658Z" transform="translate(0 -262.058)" fill="#fc9015"></path>
    <path id="路径_816" d="M170.352,211.856a6.57,6.57,0,0,1-3.024-12.419l17.7-9.081-10.509-11.945a4.308,4.308,0,0,1,1.268-6.683l3.418-1.757a4.348,4.348,0,0,1,4.629.433l15.957,12.371,15.828-8.143a6.564,6.564,0,1,1,6.025,11.665l-48.287,24.838a6.61,6.61,0,0,1-3,.722Zm10.822-39.15a1.139,1.139,0,0,0-.505.12l-3.418,1.757a1.1,1.1,0,0,0-.329,1.709l13.229,15.034-21.364,10.967a3.369,3.369,0,1,0,3.1,5.985L220.2,183.465a3.366,3.366,0,1,0-3.1-5.977l-17.649,9.073-17.569-13.638a1.083,1.083,0,0,0-.714-.217Zm18.532,48.721a4.332,4.332,0,0,1-4.212-3.353l-2.623-11.408a2.511,2.511,0,0,1,1.308-2.8l8.825-4.5a2.688,2.688,0,0,1,3.939,2.31l.489,13.542a4.308,4.308,0,0,1-2.351,4.011l-3.418,1.7a4.348,4.348,0,0,1-1.957.5Zm-3.586-14.938,2.5,10.87a1.107,1.107,0,0,0,1.6.738l3.418-1.741a1.107,1.107,0,0,0,.578-1.043l-.457-12.724ZM196,205.952Z" transform="translate(-109.952)" fill="#555"></path>
  </g>
</svg>
