<?xml version="1.0" encoding="UTF-8"?>
<svg xmlns="http://www.w3.org/2000/svg" width="46.613" height="45.444" viewBox="0 0 46.613 45.444">
  <g id="首页5" transform="translate(-34.536 -46.933)">
    <path id="路径_1483" d="M325.4,565.794H312.239a3.342,3.342,0,0,1-3.332-3.332v-13a3.342,3.342,0,0,1,3.332-3.332H325.4a3.342,3.342,0,0,1,3.332,3.332v13a3.342,3.342,0,0,1-3.332,3.332Z" transform="translate(-260.978 -474.833)" fill="#f57c14" opacity="0.3"></path>
    <path id="路径_1484" d="M72,92.377H64.924a1.25,1.25,0,1,1,0-2.5H72A2.062,2.062,0,0,0,74.087,87.8V67.552a1.281,1.281,0,0,1,1.25-1.25h2.749L59.342,49.891a2.393,2.393,0,0,0-3.082,0L37.6,66.3h2.749a1.281,1.281,0,0,1,1.25,1.25V87.8a2.062,2.062,0,0,0,2.083,2.083h7.664a1.25,1.25,0,1,1,0,2.5H43.68A4.623,4.623,0,0,1,39.1,87.8V68.8H36.682a2.078,2.078,0,0,1-2-1.416,2.191,2.191,0,0,1,.583-2.416L54.677,48.058a5.018,5.018,0,0,1,6.331,0L80.419,65.053A2.2,2.2,0,0,1,79,68.885H76.587V87.879A4.551,4.551,0,0,1,72,92.377Z" transform="translate(0 0)" fill="#555"></path>
    <path id="路径_1485" d="M487.65,619.158a1.281,1.281,0,0,1-1.25-1.25V602a1.25,1.25,0,1,1,2.5,0v15.912A1.227,1.227,0,0,1,487.65,619.158Z" transform="translate(-429.807 -526.781)" fill="#555"></path>
  </g>
</svg>
