<?xml version="1.0" encoding="UTF-8"?>
<svg xmlns="http://www.w3.org/2000/svg" width="52.876" height="47.707" viewBox="0 0 52.876 47.707">
  <g id="首页1" transform="translate(-33.79 -80.213)">
    <path id="路径_1472" d="M461.581,643.506H448.853V630.118a3.782,3.782,0,0,1,3.771-3.771h5.091a3.782,3.782,0,0,1,3.771,3.771v13.388Z" transform="translate(-392.134 -515.963)" fill="#f57c14" opacity="0.3"></path>
    <path id="路径_1473" d="M75.2,127.92H45.217a5.232,5.232,0,0,1-5.186-5.186V99.541l-3.96,3.206a1.406,1.406,0,1,1-1.791-2.168L59.359,80.5a1.558,1.558,0,0,1,1.791,0l24.985,19.988a1.406,1.406,0,1,1-1.791,2.168l-3.96-3.111v23.288A5.151,5.151,0,0,1,75.2,127.92ZM42.86,97.278v25.551a2.334,2.334,0,0,0,2.357,2.357H75.2a2.334,2.334,0,0,0,2.357-2.357V97.278L60.208,83.419Z" transform="translate(0)" fill="#555"></path>
    <path id="路径_1474" d="M387.619,618.085H375.174a1.45,1.45,0,0,1-1.414-1.414V604.226a5.232,5.232,0,0,1,5.185-5.185h5a5.232,5.232,0,0,1,5.186,5.185v12.54A1.457,1.457,0,0,1,387.619,618.085Zm-11.031-2.829H386.3V604.226a2.334,2.334,0,0,0-2.357-2.357h-5a2.334,2.334,0,0,0-2.357,2.357v11.031Z" transform="translate(-321.189 -490.165)" fill="#555"></path>
  </g>
</svg>
