<?xml version="1.0" encoding="UTF-8"?>
<svg xmlns="http://www.w3.org/2000/svg" width="45.445" height="45.444" viewBox="0 0 45.445 45.444">
  <g id="首页6" transform="translate(-1124.617 -462.11)">
    <path id="路径_1487" d="M325.4,565.794H312.239a3.342,3.342,0,0,1-3.332-3.332v-13a3.342,3.342,0,0,1,3.332-3.332H325.4a3.342,3.342,0,0,1,3.332,3.332v13a3.342,3.342,0,0,1-3.332,3.332Z" transform="translate(828.52 -67.656)" fill="#f57c14" opacity="0.3"></path>
    <path id="路径_1486" d="M24.839.637a3.769,3.769,0,0,0-4.174,0L1.732,13.2c-3.128,2.074-1.663,7.24,2.087,7.24H5.285l.048,20.473A4.308,4.308,0,0,0,9.81,45.451H26.567a4.534,4.534,0,0,0,4.516-4.576l.049-14.327a4.577,4.577,0,0,0-4.565-4.577H18.828a4.446,4.446,0,0,0-4.409,4.577V38.865a1.4,1.4,0,0,0,1.53,1.275,1.374,1.374,0,0,0,1.5-1.275V26.548c0-.957.426-1.545,1.378-1.547h7.739a1.4,1.4,0,0,1,1.494,1.547V40.875a1.4,1.4,0,0,1-1.494,1.554H11.1c-1.094,0-2.749-.713-2.752-1.809l0-21.423c0-1.047-1.369-1.9-2.413-1.9a.409.409,0,0,0-.044.005H3.819A.949.949,0,0,1,3.3,15.567L22.229,3.009a.945.945,0,0,1,1.044,0L42.205,15.566a.88.88,0,0,1,.384,1.063.97.97,0,0,1-.906.8H39.32A2.064,2.064,0,0,0,37.141,19.2V40.619a1.762,1.762,0,0,1-1.886,1.81H33.431a1.512,1.512,0,1,0,0,3.021h2.015a4.752,4.752,0,0,0,4.726-4.831V20.435h1.512c3.75,0,5.214-5.166,2.087-7.24L24.839.637Z" transform="translate(1124.588 462.103)" fill="#555"></path>
  </g>
</svg>
