<?xml version="1.0" encoding="UTF-8"?>
<svg xmlns="http://www.w3.org/2000/svg" width="47.269" height="45.444" viewBox="0 0 47.269 45.444">
  <g id="首页3" transform="translate(-34.133 -52.054)">
    <path id="路径_1478" d="M325.616,403.916H312.282a3.386,3.386,0,0,1-3.376-3.376V387.376A3.386,3.386,0,0,1,312.282,384h13.334a3.386,3.386,0,0,1,3.376,3.376v13.165a3.385,3.385,0,0,1-3.376,3.376Z" transform="translate(-261.186 -315.532)" fill="#f57c14" opacity="0.3"></path>
    <path id="路径_1479" d="M72.446,97.5h-7.68A1.3,1.3,0,0,1,63.5,96.232V82.814a2.359,2.359,0,0,0-2.363-2.363h-6.16a2.359,2.359,0,0,0-2.363,2.363V96.232A1.3,1.3,0,0,1,51.349,97.5H43.163A4.9,4.9,0,0,1,38.268,92.6V76.147l-2.7-1.941a2.8,2.8,0,0,1-1.435-2.363,3.209,3.209,0,0,1,1.1-2.532L54.64,53.193a4.965,4.965,0,0,1,6.329,0L80.295,69.312a2.87,2.87,0,0,1,1.1,2.532,3.205,3.205,0,0,1-1.266,2.447l-2.7,1.941V92.688a5.012,5.012,0,0,1-4.979,4.81Zm-6.414-2.532h6.414A2.359,2.359,0,0,0,74.809,92.6V75.472a1.2,1.2,0,0,1,.506-1.013l3.207-2.279a.771.771,0,0,0,.253-.422c0-.084,0-.338-.169-.422l-19.325-16.2a2.31,2.31,0,0,0-3.038,0L36.834,71.253a.545.545,0,0,0-.169.422.4.4,0,0,0,.253.422l3.207,2.279a1.2,1.2,0,0,1,.506,1.013V92.519a2.359,2.359,0,0,0,2.363,2.363h6.92V82.814a4.9,4.9,0,0,1,4.895-4.895h6.329a4.9,4.9,0,0,1,4.895,4.895V94.966Z" fill="#555"></path>
    <path id="路径_1480" d="M404.62,436.025h-9.114a1.266,1.266,0,0,1,0-2.532h9.2a1.3,1.3,0,0,1,1.266,1.266A1.317,1.317,0,0,1,404.62,436.025Z" transform="translate(-342.3 -362.578)" fill="#555"></path>
  </g>
</svg>
