<?xml version="1.0" encoding="UTF-8"?>
<svg xmlns="http://www.w3.org/2000/svg" width="68.918" height="68.195" viewBox="0 0 68.918 68.195">
  <g id="首页" transform="translate(-130.634 -130.602)">
    <path id="路径_791" d="M414.971,633.188a5.783,5.783,0,0,1,5.783,5.783v9.638H409.188v-9.638a5.783,5.783,0,0,1,5.783-5.783m0-3.855a9.638,9.638,0,0,0-9.638,9.638v13.493h19.276V638.971a9.638,9.638,0,0,0-9.638-9.638Z" transform="translate(-249.878 -453.667)" fill="#fc8c0d"></path>
    <path id="路径_792" d="M187.26,198.8H142.925a5.783,5.783,0,0,1-5.783-5.783V167.1l-1.07-.106a5.552,5.552,0,0,1-3.547-9.725l28.914-25.3a5.571,5.571,0,0,1,7.306,0l28.914,25.3a5.552,5.552,0,0,1-3.547,9.725l-1.07.106v25.917a5.783,5.783,0,0,1-5.783,5.783Zm-22.168-64.344a1.7,1.7,0,0,0-1.118.414l-28.914,25.3a1.7,1.7,0,0,0,1.118,2.969h.193L141,163.6v29.415a1.928,1.928,0,0,0,1.928,1.928H187.26a1.928,1.928,0,0,0,1.928-1.928V163.608l4.819-.472a1.7,1.7,0,0,0,1.118-2.969l-28.914-25.3a1.7,1.7,0,0,0-1.118-.414Z" fill="#555"></path>
  </g>
</svg>
