<?xml version="1.0" encoding="UTF-8"?>
<svg xmlns="http://www.w3.org/2000/svg" width="45.282" height="45.444" viewBox="0 0 45.282 45.444">
  <g id="首页4" transform="translate(-34.133 -34.133)">
    <path id="路径_1481" d="M266.281,389.158h-24.1a3.256,3.256,0,0,1-3.246-3.246v-22.56a3.256,3.256,0,0,1,3.246-3.246H266.2a3.255,3.255,0,0,1,3.246,3.246v22.56A3.09,3.09,0,0,1,266.281,389.158Z" transform="translate(-195.062 -310.473)" fill="#f57c14" opacity="0.3"></path>
    <path id="路径_1482" d="M72.842,60.02A6.8,6.8,0,0,1,67.4,57.261,6.5,6.5,0,0,1,62.13,60.02a6.688,6.688,0,0,1-5.437-2.759,6.5,6.5,0,0,1-5.275,2.759,6.688,6.688,0,0,1-5.437-2.759,6.353,6.353,0,0,1-5.518,2.759,6.624,6.624,0,0,1-6.33-6.654V50.282a3.158,3.158,0,0,1,.568-1.866l8.115-12.173a5.349,5.349,0,0,1,4.139-2.11h19.8a4.814,4.814,0,0,1,3.976,2.11l8.115,12.173a3.158,3.158,0,0,1,.568,1.866v3a6.655,6.655,0,0,1-5.275,6.654,6.981,6.981,0,0,1-1.3.081ZM56.855,53.366a1.292,1.292,0,0,1,1.217.974,4.337,4.337,0,0,0,4.139,3.327c3,0,4.058-3.084,4.139-3.408a1.209,1.209,0,0,1,2.353.081,4.183,4.183,0,0,0,8.277-.974v-3a1.154,1.154,0,0,0-.162-.487L68.7,37.7a2.185,2.185,0,0,0-1.948-1.136h-19.8a2.283,2.283,0,0,0-1.948,1.055L36.892,49.8a1.153,1.153,0,0,0-.162.487v3.084a4.2,4.2,0,0,0,3.976,4.22c3.165.081,4.22-3.084,4.3-3.408a1.209,1.209,0,0,1,2.353.081A4.337,4.337,0,0,0,51.5,57.586c3,0,4.058-3.084,4.139-3.408a1.329,1.329,0,0,1,1.217-.812ZM70.407,79.577h-26.7a4.5,4.5,0,0,1-4.463-4.463V64.159a1.217,1.217,0,1,1,2.435,0V75.114a2.009,2.009,0,0,0,2.029,2.029h26.7a2.009,2.009,0,0,0,2.029-2.029V64.159a1.217,1.217,0,1,1,2.435,0V75.114a4.5,4.5,0,0,1-4.463,4.463Z" transform="translate(0)" fill="#555"></path>
  </g>
</svg>
