<?xml version="1.0" encoding="UTF-8"?>
<svg xmlns="http://www.w3.org/2000/svg" width="47.338" height="46.303" viewBox="0 0 47.338 46.303">
  <g id="首页2" transform="translate(-34.133 -44.8)">
    <path id="路径_1475" d="M521.943,560.44h-9.975a3.391,3.391,0,0,1-3.381-3.381V542.688a3.391,3.391,0,0,1,3.381-3.381h9.975a3.391,3.391,0,0,1,3.381,3.381v14.371A3.391,3.391,0,0,1,521.943,560.44Z" transform="translate(-450.953 -470.013)" fill="#f57c14" opacity="0.3"></path>
    <path id="路径_1476" d="M76.822,91.1H66.763A1.3,1.3,0,0,1,65.5,89.835V73.351A2.453,2.453,0,0,0,63.044,70.9H52.562a2.453,2.453,0,0,0-2.451,2.451v16.4a1.3,1.3,0,0,1-1.268,1.268H38.783a4.691,4.691,0,0,1-4.649-4.649V64.729a4.929,4.929,0,0,1,1.86-3.889L54.675,45.878a5.077,5.077,0,0,1,6.255,0L79.612,60.84a4.929,4.929,0,0,1,1.86,3.889V86.454A4.691,4.691,0,0,1,76.822,91.1Zm-8.791-2.536h8.791a2.093,2.093,0,0,0,2.113-2.113V64.729a2.527,2.527,0,0,0-.93-1.944L59.324,47.907a2.313,2.313,0,0,0-3.043,0L37.6,62.784a2.527,2.527,0,0,0-.93,1.944V86.454a2.093,2.093,0,0,0,2.113,2.113h8.791V73.351a5,5,0,0,1,4.987-4.987H63.044a5,5,0,0,1,4.987,4.987V88.567Z" transform="translate(0)" fill="#555"></path>
    <path id="路径_1477" d="M487.668,715.219a1.3,1.3,0,0,1-1.268-1.268V702.708a1.268,1.268,0,0,1,2.536,0v11.243A1.3,1.3,0,0,1,487.668,715.219Z" transform="translate(-429.865 -624.116)" fill="#555"></path>
  </g>
</svg>
