<?xml version="1.0" encoding="UTF-8"?>
<svg xmlns="http://www.w3.org/2000/svg" width="85.692" height="85.692" viewBox="0 0 85.692 85.692">
  <g id="ae" transform="translate(-40.96 -40.96)">
    <path id="路径_725" d="M64,64m9.314,0h62.872q9.314,0,9.314,9.314v62.872q0,9.314-9.314,9.314H73.314Q64,145.5,64,136.186V73.314Q64,64,73.314,64Z" transform="translate(-20.944 -20.944)" fill="#3d2954"></path>
    <path id="路径_726" d="M115.242,126.652H52.37a11.423,11.423,0,0,1-11.41-11.41V52.37A11.423,11.423,0,0,1,52.37,40.96h62.872a11.423,11.423,0,0,1,11.41,11.41v62.872A11.423,11.423,0,0,1,115.242,126.652ZM52.37,45.151a7.227,7.227,0,0,0-7.219,7.219v62.872a7.227,7.227,0,0,0,7.219,7.219h62.872a7.227,7.227,0,0,0,7.219-7.219V52.37a7.227,7.227,0,0,0-7.219-7.219Z" fill="#d7b2ff"></path>
    <path id="路径_727" d="M216.2,325.632H222.4l12.807,33.252h-6.241l-3.12-8.8H212.571l-3.12,8.8h-6.008Zm-2.049,20.026h10.153l-4.983-14.3h-.14Zm27.617,2.561c0,3.772,2.049,7.125,6.474,7.125,3.074,0,4.937-1.351,5.868-4.005h5.03c-1.164,5.263-5.635,8.2-10.9,8.2-7.545,0-11.783-5.263-11.783-12.668,0-6.846,4.471-12.714,11.643-12.714,7.591,0,12.248,6.846,11.364,14.065Zm12.388-3.493c-.186-3.353-2.468-6.38-6.054-6.38a6.292,6.292,0,0,0-6.334,6.38Z" transform="translate(-147.703 -258.778)" fill="#d7b2ff"></path>
  </g>
</svg>
