<?xml version="1.0" encoding="UTF-8"?>
<svg xmlns="http://www.w3.org/2000/svg" width="85.692" height="85.692" viewBox="0 0 85.692 85.692">
  <g id="Ai" transform="translate(-171.212 -40)">
    <g id="组_74" transform="translate(130.252 -0.96)">
      <path id="路径_722" d="M64,64m9.314,0h62.872q9.314,0,9.314,9.314v62.872q0,9.314-9.314,9.314H73.314Q64,145.5,64,136.186V73.314Q64,64,73.314,64Z" transform="translate(-20.944 -20.944)" fill="#523825"></path>
      <path id="路径_723" d="M115.242,126.652H52.37a11.423,11.423,0,0,1-11.41-11.41V52.37A11.423,11.423,0,0,1,52.37,40.96h62.872a11.423,11.423,0,0,1,11.41,11.41v62.872A11.423,11.423,0,0,1,115.242,126.652ZM52.37,45.151a7.227,7.227,0,0,0-7.219,7.219v62.872a7.227,7.227,0,0,0,7.219,7.219h62.872a7.227,7.227,0,0,0,7.219-7.219V52.37a7.227,7.227,0,0,0-7.219-7.219Z" fill="#f5a729"></path>
      <path id="路径_724" d="M306.9,329.216H313.1l12.807,33.252h-6.241l-3.12-8.8H303.272l-3.12,8.8h-6.008Zm-2.049,20.026h10.153l-4.983-14.3h-.14Zm23.612-10.851h5.309v24.078h-5.309Z" transform="translate(-230.154 -262.036)" fill="#fba319"></path>
    </g>
    <circle id="椭圆_2" cx="3" cy="3" r="3" transform="translate(228 66)" fill="#fba319"></circle>
  </g>
</svg>
