<?xml version="1.0" encoding="UTF-8"?>
<svg xmlns="http://www.w3.org/2000/svg" width="85.692" height="85.692" viewBox="0 0 85.692 85.692">
  <g id="An" transform="translate(-40.96 -40.96)">
    <path id="路径_740" d="M64,64m9.314,0h62.872q9.314,0,9.314,9.314v62.872q0,9.314-9.314,9.314H73.314Q64,145.5,64,136.186V73.314Q64,64,73.314,64Z" transform="translate(-20.944 -20.944)" fill="#260702"></path>
    <path id="路径_741" d="M115.242,126.652H52.37a11.423,11.423,0,0,1-11.41-11.41V52.37A11.423,11.423,0,0,1,52.37,40.96h62.872a11.423,11.423,0,0,1,11.41,11.41v62.872A11.423,11.423,0,0,1,115.242,126.652ZM52.37,45.151a7.227,7.227,0,0,0-7.219,7.219v62.872a7.227,7.227,0,0,0,7.219,7.219h62.872a7.227,7.227,0,0,0,7.219-7.219V52.37a7.227,7.227,0,0,0-7.219-7.219Z" fill="#fa4c29"></path>
    <path id="路径_742" d="M220.633,329.216h6.194l12.807,33.252h-6.241l-3.12-8.8H217l-3.12,8.8h-6.008Zm-2.049,20.026h10.153l-4.983-14.3h-.14Zm23.472-10.851h5.03v3.539l.093.093a8.623,8.623,0,0,1,7.5-4.285c5.216,0,8.523,2.794,8.523,8.2v16.533H257.89V347.332c-.093-3.772-1.583-5.4-4.7-5.4-3.539,0-5.821,2.794-5.821,6.334v14.2h-5.309Z" transform="translate(-151.73 -262.036)" fill="#fa4c29"></path>
  </g>
</svg>
