<?xml version="1.0" encoding="UTF-8"?>
<svg xmlns="http://www.w3.org/2000/svg" width="85.692" height="85.692" viewBox="0 0 85.692 85.692">
  <g id="Au" transform="translate(-40.96 -40.96)">
    <path id="路径_734" d="M64,64m9.314,0h62.872q9.314,0,9.314,9.314v62.872q0,9.314-9.314,9.314H73.314Q64,145.5,64,136.186V73.314Q64,64,73.314,64Z" transform="translate(-20.944 -20.944)" fill="#00005b"></path>
    <path id="路径_735" d="M115.242,126.652H52.37a11.423,11.423,0,0,1-11.41-11.41V52.37A11.423,11.423,0,0,1,52.37,40.96h62.872a11.423,11.423,0,0,1,11.41,11.41v62.872a11.423,11.423,0,0,1-11.41,11.41ZM52.37,45.151a7.227,7.227,0,0,0-7.219,7.219v62.872a7.227,7.227,0,0,0,7.219,7.219h62.872a7.227,7.227,0,0,0,7.219-7.219V52.37a7.227,7.227,0,0,0-7.219-7.219Z" fill="#9595fc"></path>
    <path id="路径_736" d="M220.633,325.632h6.194l12.807,33.252h-6.241l-3.12-8.8H217l-3.12,8.8h-6.008Zm-2.049,20.026h10.153l-4.983-14.3h-.14ZM263.2,358.884h-5.216v-3.353h-.093a8.084,8.084,0,0,1-6.846,4.005c-6.287,0-8.988-3.167-8.988-9.454V334.807h5.309V349.57c0,4.238,1.723,5.775,4.611,5.775,4.424,0,5.915-2.841,5.915-6.567V334.807H263.2Z" transform="translate(-151.73 -258.778)" fill="#9a9aff"></path>
  </g>
</svg>
