<?xml version="1.0" encoding="UTF-8"?>
<svg xmlns="http://www.w3.org/2000/svg" width="85.692" height="85.692" viewBox="0 0 85.692 85.692">
  <g id="Br" transform="translate(-40.96 -40.96)">
    <path id="路径_731" d="M64,64m9.314,0h62.872q9.314,0,9.314,9.314v62.872q0,9.314-9.314,9.314H73.314Q64,145.5,64,136.186V73.314Q64,64,73.314,64Z" transform="translate(-20.944 -20.944)" fill="#4e3e22"></path>
    <path id="路径_732" d="M115.242,126.652H52.37a11.423,11.423,0,0,1-11.41-11.41V52.37A11.423,11.423,0,0,1,52.37,40.96h62.872a11.423,11.423,0,0,1,11.41,11.41v62.872A11.423,11.423,0,0,1,115.242,126.652ZM52.37,45.151a7.227,7.227,0,0,0-7.219,7.219v62.872a7.227,7.227,0,0,0,7.219,7.219h62.872a7.227,7.227,0,0,0,7.219-7.219V52.37a7.227,7.227,0,0,0-7.219-7.219Z" fill="#f6c100"></path>
    <path id="路径_733" d="M258.3,329.216h16.16c5.961,0,9.873,2.7,9.873,8.243a7.313,7.313,0,0,1-4.75,7.079v.093c4.052.885,6.241,4.052,6.241,8.569,0,5.216-3.633,9.268-12.248,9.268H258.3Zm5.822,13.925h9.5c2.794,0,4.89-1.63,4.89-4.611,0-3.353-1.723-4.564-4.89-4.564h-9.5Zm0,14.577h10.292c3.539,0,5.589-1.909,5.589-5.263,0-3.26-2.049-5.123-5.589-5.123H264.125Zm26.22-19.327h4.983v4.657h.093a7.772,7.772,0,0,1,7.032-5.309,12.631,12.631,0,0,1,2,.14V343a18.946,18.946,0,0,0-2.282-.233c-3.633,0-6.52,2.934-6.52,8.243v11.457h-5.309Z" transform="translate(-197.574 -262.036)" fill="#f6c500"></path>
  </g>
</svg>
