<?xml version="1.0" encoding="UTF-8"?>
<svg xmlns="http://www.w3.org/2000/svg" width="85.692" height="85.692" viewBox="0 0 85.692 85.692">
  <g id="Ch" transform="translate(-40.96 -40.96)">
    <path id="路径_746" d="M64,64m9.314,0h62.872q9.314,0,9.314,9.314v62.872q0,9.314-9.314,9.314H73.314Q64,145.5,64,136.186V73.314Q64,64,73.314,64Z" transform="translate(-20.944 -20.944)" fill="#00005a"></path>
    <path id="路径_747" d="M115.242,126.652H52.37a11.423,11.423,0,0,1-11.41-11.41V52.37A11.423,11.423,0,0,1,52.37,40.96h62.872a11.423,11.423,0,0,1,11.41,11.41v62.872a11.423,11.423,0,0,1-11.41,11.41ZM52.37,45.151a7.227,7.227,0,0,0-7.219,7.219v62.872a7.227,7.227,0,0,0,7.219,7.219h62.872a7.227,7.227,0,0,0,7.219-7.219V52.37a7.227,7.227,0,0,0-7.219-7.219Z" transform="translate(0 0)" fill="#7272d0"></path>
    <path id="路径_748" d="M229.529,331.876c-.978-3.819-3.446-6.613-8.29-6.613-7.125,0-10.106,6.287-10.106,12.668S214.114,350.6,221.24,350.6c5.169,0,8.01-3.865,8.476-8.709H235.4c-.466,7.964-6.1,13.459-14.158,13.459-9.966,0-15.928-7.917-15.928-17.418s5.961-17.418,15.928-17.418c7.5.047,13.413,4.191,14.111,11.364ZM239.962,321.3h5.309v12.342h.093a8.426,8.426,0,0,1,7.219-3.819c5.216,0,8.523,2.794,8.523,8.2v16.533H255.8V339.42c-.093-3.772-1.583-5.4-4.7-5.4-3.539,0-5.821,2.794-5.821,6.334v14.2h-5.309Z" transform="translate(-149.402 -254.124)" fill="#9b9aff"></path>
  </g>
</svg>
