<?xml version="1.0" encoding="UTF-8"?>
<svg xmlns="http://www.w3.org/2000/svg" width="85.692" height="85.692" viewBox="0 0 85.692 85.692">
  <g id="Dw" transform="translate(-40.96 -40.96)">
    <path id="路径_749" d="M64,64m9.314,0h62.872q9.314,0,9.314,9.314v62.872q0,9.314-9.314,9.314H73.314Q64,145.5,64,136.186V73.314Q64,64,73.314,64Z" transform="translate(-20.944 -20.944)" fill="#183a04"></path>
    <path id="路径_750" d="M115.242,126.652H52.37a11.423,11.423,0,0,1-11.41-11.41V52.37A11.423,11.423,0,0,1,52.37,40.96h62.872a11.423,11.423,0,0,1,11.41,11.41v62.872a11.423,11.423,0,0,1-11.41,11.41ZM52.37,45.151a7.227,7.227,0,0,0-7.219,7.219v62.872a7.227,7.227,0,0,0,7.219,7.219h62.872a7.227,7.227,0,0,0,7.219-7.219V52.37a7.227,7.227,0,0,0-7.219-7.219Z" fill="#9ce070"></path>
    <path id="路径_751" d="M150.784,329.216h13.785c10.246,0,14.67,7.451,14.67,16.626s-4.424,16.626-14.67,16.626H150.784Zm5.821,28.5h5.728c9.128,0,11.084-5.216,11.084-11.876s-1.956-11.876-11.084-11.876h-5.728Zm24.869-19.327h5.635l4.7,17.977h.093l4.517-17.977h5.356l4.331,17.977h.093l4.89-17.977h5.4l-7.545,24.078H203.5l-4.471-17.884h-.093l-4.424,17.884h-5.589Z" transform="translate(-99.834 -262.036)" fill="#8ff055"></path>
  </g>
</svg>
