<?xml version="1.0" encoding="UTF-8"?>
<svg xmlns="http://www.w3.org/2000/svg" width="85.692" height="85.692" viewBox="0 0 85.692 85.692">
  <g id="Fl" transform="translate(-40.96 -40.96)">
    <path id="路径_752" d="M64,64m9.314,0h62.872q9.314,0,9.314,9.314v62.872q0,9.314-9.314,9.314H73.314Q64,145.5,64,136.186V73.314Q64,64,73.314,64Z" transform="translate(-20.944 -20.944)" fill="#260600"></path>
    <path id="路径_753" d="M115.242,126.652H52.37a11.423,11.423,0,0,1-11.41-11.41V52.37A11.423,11.423,0,0,1,52.37,40.96h62.872a11.423,11.423,0,0,1,11.41,11.41v62.872a11.423,11.423,0,0,1-11.41,11.41ZM52.37,45.151a7.227,7.227,0,0,0-7.219,7.219v62.872a7.227,7.227,0,0,0,7.219,7.219h62.872a7.227,7.227,0,0,0,7.219-7.219V52.37a7.227,7.227,0,0,0-7.219-7.219Z" fill="#ff4a19"></path>
    <path id="路径_754" d="M334.336,329.216H357.3v5.03H340.158v8.709H355.2v4.75H340.158v14.763h-5.822Zm27.012,0h5.309v33.252h-5.309Z" transform="translate(-266.69 -262.036)" fill="#ff4a19"></path>
  </g>
</svg>
