<?xml version="1.0" encoding="UTF-8"?>
<svg xmlns="http://www.w3.org/2000/svg" width="86.637" height="86.637" viewBox="0 0 86.637 86.637">
  <g id="Fm" transform="translate(-40.96 -40.96)">
    <path id="路径_761" d="M64,64m9.417,0h63.565q9.417,0,9.417,9.417v63.565q0,9.417-9.417,9.417H73.417Q64,146.4,64,136.983V73.417Q64,64,73.417,64Z" transform="translate(-20.921 -20.921)" fill="#583f10"></path>
    <path id="路径_762" d="M116.061,127.6H52.5A11.549,11.549,0,0,1,40.96,116.061V52.5A11.549,11.549,0,0,1,52.5,40.96h63.565A11.549,11.549,0,0,1,127.6,52.5v63.565A11.549,11.549,0,0,1,116.061,127.6ZM52.5,45.2a7.306,7.306,0,0,0-7.3,7.3v63.565a7.306,7.306,0,0,0,7.3,7.3h63.565a7.307,7.307,0,0,0,7.3-7.3V52.5a7.307,7.307,0,0,0-7.3-7.3Z" fill="#faab18"></path>
    <path id="路径_763" d="M172.288,329.216H195.5V334.3H178.174v8.8h15.209v4.8H178.174v14.926h-5.886Zm27.168,9.276h5.085v3.39h.141a8.138,8.138,0,0,1,7.487-4.049c2.966,0,5.744,1.271,6.827,4.049a8.788,8.788,0,0,1,7.628-4.049c5.132,0,8.146,2.26,8.146,8.193v16.81H229.4v-14.22c0-3.861-.235-6.545-4.426-6.545-3.626,0-5.179,2.4-5.179,6.5v14.267H214.43V347.2c0-3.343-1.036-5.132-4.285-5.132-2.778,0-5.321,2.26-5.321,6.309v14.455h-5.368Z" transform="translate(-119.251 -261.747)" fill="#faab18"></path>
  </g>
</svg>
