<?xml version="1.0" encoding="UTF-8"?>
<svg xmlns="http://www.w3.org/2000/svg" width="85.692" height="85.692" viewBox="0 0 85.692 85.692">
  <g id="Ic" transform="translate(-40.96 -40.96)">
    <path id="路径_743" d="M64,64m9.314,0h62.872q9.314,0,9.314,9.314v62.872q0,9.314-9.314,9.314H73.314Q64,145.5,64,136.186V73.314Q64,64,73.314,64Z" transform="translate(-20.944 -20.944)" fill="#462244"></path>
    <path id="路径_744" d="M115.242,126.652H52.37a11.423,11.423,0,0,1-11.41-11.41V52.37A11.423,11.423,0,0,1,52.37,40.96h62.872a11.423,11.423,0,0,1,11.41,11.41v62.872a11.423,11.423,0,0,1-11.41,11.41ZM52.37,45.151a7.227,7.227,0,0,0-7.219,7.219v62.872a7.227,7.227,0,0,0,7.219,7.219h62.872a7.227,7.227,0,0,0,7.219-7.219V52.37a7.227,7.227,0,0,0-7.219-7.219Z" fill="#fb7efc"></path>
    <path id="路径_745" d="M326.4,325.632h5.822v33.252H326.4Zm28.455,17.232c-.419-2.934-2.561-4.517-5.5-4.517-2.748,0-6.613,1.444-6.613,8.756,0,4.005,1.77,8.243,6.38,8.243,3.074,0,5.216-2.049,5.728-5.5h5.309c-.978,6.241-4.843,9.687-11.038,9.687-7.545,0-11.69-5.356-11.69-12.435,0-7.265,3.959-12.947,11.876-12.947,5.589,0,10.339,2.794,10.851,8.709Z" transform="translate(-259.476 -258.778)" fill="#fb7ff7"></path>
  </g>
</svg>
