<?xml version="1.0" encoding="UTF-8"?>
<svg xmlns="http://www.w3.org/2000/svg" width="86.637" height="86.637" viewBox="0 0 86.637 86.637">
  <g id="Id" transform="translate(-40.96 -40.96)">
    <path id="路径_764" d="M64,64m9.417,0h63.565q9.417,0,9.417,9.417v63.565q0,9.417-9.417,9.417H73.417Q64,146.4,64,136.983V73.417Q64,64,73.417,64Z" transform="translate(-20.921 -20.921)" fill="#2b0214"></path>
    <path id="路径_765" d="M116.061,127.6H52.5A11.549,11.549,0,0,1,40.96,116.061V52.5A11.549,11.549,0,0,1,52.5,40.96h63.565A11.549,11.549,0,0,1,127.6,52.5v63.565A11.549,11.549,0,0,1,116.061,127.6ZM52.5,45.2a7.306,7.306,0,0,0-7.3,7.3v63.565a7.306,7.306,0,0,0,7.3,7.3h63.565a7.307,7.307,0,0,0,7.3-7.3V52.5a7.307,7.307,0,0,0-7.3-7.3Z" fill="#a5285e"></path>
    <path id="路径_766" d="M320.256,325.632h5.886v33.619h-5.886Zm35.267,33.619h-5.085v-3.3h-.094c-1.413,2.778-4.473,3.955-7.534,3.955-7.675,0-11.395-5.7-11.395-13,0-8.8,5.227-12.666,10.547-12.666,3.061,0,6.451,1.13,8.1,3.814h.094V325.632h5.368Zm-12.007-3.578c4.8,0,6.827-4.379,6.827-8.617,0-5.368-2.59-8.57-6.733-8.57-5.038,0-6.827,4.473-6.827,8.852C336.783,351.529,338.855,355.673,343.516,355.673Z" transform="translate(-253.611 -258.492)" fill="#ea50a8"></path>
  </g>
</svg>
