<?xml version="1.0" encoding="UTF-8"?>
<svg xmlns="http://www.w3.org/2000/svg" width="87.311" height="87.311" viewBox="0 0 87.311 87.311">
  <g id="Mu" transform="translate(-40.96 -40.96)">
    <path id="路径_755" d="M64,64m9.49,0h64.06q9.49,0,9.49,9.49v64.06q0,9.49-9.49,9.49H73.49q-9.49,0-9.49-9.49V73.49Q64,64,73.49,64Z" transform="translate(-20.905 -20.905)" fill="#313904"></path>
    <path id="路径_756" d="M116.645,128.271H52.586A11.639,11.639,0,0,1,40.96,116.645V52.586A11.639,11.639,0,0,1,52.586,40.96h64.06a11.639,11.639,0,0,1,11.626,11.626v64.06A11.639,11.639,0,0,1,116.645,128.271Zm-64.06-83.04a7.363,7.363,0,0,0-7.355,7.355v64.06A7.363,7.363,0,0,0,52.586,124h64.06A7.363,7.363,0,0,0,124,116.645V52.586a7.363,7.363,0,0,0-7.355-7.355Z" fill="#c0ce75"></path>
    <path id="路径_757" d="M171.776,325.632h8.351l9.348,26.525h.095l9.111-26.525h8.257v33.88h-5.647V333.367H201.2l-9.4,26.146h-4.888l-9.4-26.146h-.095v26.146h-5.647Zm63.063,33.88h-5.315V356.1h-.095a8.237,8.237,0,0,1-6.975,4.081c-6.406,0-9.158-3.227-9.158-9.633V334.98h5.409v15.042c0,4.318,1.756,5.884,4.7,5.884,4.508,0,6.026-2.895,6.026-6.691V334.98h5.409Z" transform="translate(-118.692 -258.289)" fill="#c3d567"></path>
  </g>
</svg>
