<?xml version="1.0" encoding="UTF-8"?>
<svg xmlns="http://www.w3.org/2000/svg" width="86.637" height="86.637" viewBox="0 0 86.637 86.637">
  <g id="Pdf" transform="translate(-40.96 -40.96)">
    <path id="路径_788" d="M64,64m9.417,0h63.565q9.417,0,9.417,9.417v63.565q0,9.417-9.417,9.417H73.417Q64,146.4,64,136.983V73.417Q64,64,73.417,64Z" transform="translate(-20.921 -20.921)" fill="#320402"></path>
    <path id="路径_789" d="M116.061,127.6H52.5A11.549,11.549,0,0,1,40.96,116.061V52.5A11.549,11.549,0,0,1,52.5,40.96h63.565A11.549,11.549,0,0,1,127.6,52.5v63.565A11.549,11.549,0,0,1,116.061,127.6ZM52.5,45.2a7.307,7.307,0,0,0-7.3,7.3v63.565a7.307,7.307,0,0,0,7.3,7.3h63.565a7.307,7.307,0,0,0,7.3-7.3V52.5a7.307,7.307,0,0,0-7.3-7.3Z" fill="#f0150a"></path>
    <path id="路径_923" d="M80.063,63.088c-1.324-1.418-3.971-2.222-7.753-2.222a38.011,38.011,0,0,0-6.9.662,38.664,38.664,0,0,1-4.255-5.011,36.132,36.132,0,0,1-2.6-4.208,38.693,38.693,0,0,0,2.222-11.2c0-3.073-1.087-6.288-4.3-6.288a2.989,2.989,0,0,0-2.458,1.466c-1.418,2.6-.8,8.274,1.7,13.852-.946,2.789-1.891,5.484-3.12,8.463-1.04,2.506-2.269,5.153-3.546,7.517C41.863,69.045,37.23,72.449,36.8,75.1a2.913,2.913,0,0,0,.851,2.648,4.236,4.236,0,0,0,2.742.993c4.775,0,9.786-7.848,12.339-12.623,1.938-.662,3.924-1.276,5.862-1.844a58.162,58.162,0,0,1,6.241-1.418c5.011,4.586,9.455,5.342,11.678,5.342,2.742,0,3.735-1.135,4.066-2.08A3.165,3.165,0,0,0,80.11,62.9l-.047.189ZM77.51,65.026a2.347,2.347,0,0,1-2.553,1.655,4.292,4.292,0,0,1-1.087-.142,17.643,17.643,0,0,1-7.186-3.877,34.866,34.866,0,0,1,5.484-.473,12.6,12.6,0,0,1,3.309.284A2.212,2.212,0,0,1,77.51,65.026Zm-13.852-3.12q-2.553.5-5.39,1.276c-1.513.425-3.073.851-4.633,1.418.851-1.655,1.56-3.262,2.222-4.775.8-1.891,1.418-3.782,2.08-5.579.662,1.135,1.371,2.269,2.08,3.262,1.182,1.56,2.411,3.073,3.64,4.4ZM55.1,37.085a1.489,1.489,0,0,1,1.229-.8c1.371,0,1.607,1.607,1.607,2.884a36.967,36.967,0,0,1-1.749,9.125C54.3,43.09,54.155,38.787,55.1,37.085ZM47.962,68.147c-3.309,5.579-6.524,9.077-8.463,9.077a1.783,1.783,0,0,1-.993-.331,1.561,1.561,0,0,1-.473-1.418C38.412,73.489,42.146,70.7,47.962,68.147Z" transform="translate(26.208 27.835)" fill="#f9fbfa"></path>
  </g>
</svg>
