<?xml version="1.0" encoding="UTF-8"?>
<svg xmlns="http://www.w3.org/2000/svg" width="86.637" height="86.637" viewBox="0 0 86.637 86.637">
  <g id="Pl" transform="translate(-40.96 -40.96)">
    <path id="路径_767" d="M64,64m9.417,0h63.565q9.417,0,9.417,9.417v63.565q0,9.417-9.417,9.417H73.417Q64,146.4,64,136.982V73.417Q64,64,73.417,64Z" transform="translate(-20.921 -20.921)" fill="#011f27"></path>
    <path id="路径_768" d="M116.061,127.6H52.5A11.549,11.549,0,0,1,40.96,116.061V52.5A11.549,11.549,0,0,1,52.5,40.96h63.565A11.549,11.549,0,0,1,127.6,52.5v63.565A11.549,11.549,0,0,1,116.061,127.6ZM52.5,45.2a7.306,7.306,0,0,0-7.3,7.3v63.565a7.306,7.306,0,0,0,7.3,7.3h63.565a7.306,7.306,0,0,0,7.3-7.3V52.5a7.307,7.307,0,0,0-7.3-7.3Z" fill="#07d7fb"></path>
    <path id="路径_769" d="M315.392,329.216h14.832c9.605,0,11.442,6.215,11.442,10.406,0,4.144-1.836,10.359-11.442,10.312h-8.946v12.9h-5.886Zm5.886,15.915h8.617c2.637,0,5.886-1.318,5.886-5.556,0-4.426-2.684-5.556-5.792-5.556h-8.711Zm24.908-15.915h5.368v33.619h-5.368Z" transform="translate(-249.194 -261.747)" fill="#d9fbfe"></path>
  </g>
</svg>
