<?xml version="1.0" encoding="UTF-8"?>
<svg xmlns="http://www.w3.org/2000/svg" width="85.692" height="85.692" viewBox="0 0 85.692 85.692">
  <g id="Ps" transform="translate(-40.96 -40.96)">
    <path id="路径_719" d="M64,64m9.314,0h62.872q9.314,0,9.314,9.314v62.872q0,9.314-9.314,9.314H73.314Q64,145.5,64,136.186V73.314Q64,64,73.314,64Z" transform="translate(-20.944 -20.944)" fill="#001d26"></path>
    <path id="路径_720" d="M115.242,126.652H52.37a11.423,11.423,0,0,1-11.41-11.41V52.37A11.423,11.423,0,0,1,52.37,40.96h62.872a11.423,11.423,0,0,1,11.41,11.41v62.872a11.423,11.423,0,0,1-11.41,11.41ZM52.37,45.151a7.227,7.227,0,0,0-7.219,7.219v62.872a7.227,7.227,0,0,0,7.219,7.219h62.872a7.227,7.227,0,0,0,7.219-7.219V52.37a7.227,7.227,0,0,0-7.219-7.219Z" fill="#00c8ff"></path>
    <path id="路径_721" d="M234.752,325.632h14.67c9.5,0,11.317,6.147,11.317,10.292,0,4.1-1.816,10.246-11.317,10.2h-8.849v12.761h-5.822Zm5.822,15.741H249.1c2.608,0,5.821-1.3,5.821-5.5,0-4.378-2.655-5.5-5.728-5.5h-8.616Zm28.5,9.78c.279,3.074,2.608,4.191,5.449,4.191,2,0,5.5-.419,5.356-3.167-.14-2.794-4.005-3.12-7.871-4.005-3.912-.838-7.731-2.235-7.731-7.126,0-5.263,5.682-6.893,10.06-6.893,4.937,0,9.408,2.049,10.06,7.4h-5.542c-.466-2.515-2.561-3.213-4.89-3.213-1.537,0-4.378.373-4.378,2.468,0,2.608,3.912,2.981,7.824,3.865,3.865.885,7.778,2.282,7.778,7.032,0,5.728-5.775,7.824-10.758,7.824-6.054,0-10.572-2.7-10.665-8.383Z" transform="translate(-176.165 -258.778)" fill="#00c8ff"></path>
  </g>
</svg>
