<?xml version="1.0" encoding="UTF-8"?>
<svg xmlns="http://www.w3.org/2000/svg" width="86.637" height="86.637" viewBox="0 0 86.637 86.637">
  <g id="Rh" transform="translate(-40.96 -40.96)">
    <path id="路径_776" d="M64,64m9.417,0h63.565q9.417,0,9.417,9.417v63.565q0,9.417-9.417,9.417H73.417Q64,146.4,64,136.982V73.417Q64,64,73.417,64Z" transform="translate(-20.921 -20.921)" fill="#094d47"></path>
    <path id="路径_777" d="M116.061,127.6H52.5A11.549,11.549,0,0,1,40.96,116.061V52.5A11.549,11.549,0,0,1,52.5,40.96h63.565A11.549,11.549,0,0,1,127.6,52.5v63.565A11.549,11.549,0,0,1,116.061,127.6ZM52.5,45.2a7.306,7.306,0,0,0-7.3,7.3v63.565a7.306,7.306,0,0,0,7.3,7.3h63.565a7.307,7.307,0,0,0,7.3-7.3V52.5a7.307,7.307,0,0,0-7.3-7.3Z" fill="#00e6d2"></path>
    <path id="路径_778" d="M230.656,329.216h15.821c6.309,0,10.218,3.437,10.218,8.8,0,4.049-1.789,7.392-5.839,8.522v.094c3.908.753,4.709,3.626,5.038,6.922.283,3.3.094,6.969,1.978,9.276H252.88c-1.271-1.365-.565-4.991-1.224-8.287-.471-3.3-1.271-6.074-5.6-6.074H235.129v14.361h-4.473Zm13.8,15.491c4.191,0,7.769-1.083,7.769-5.98,0-3.3-1.789-5.744-5.98-5.744H235.129v11.724Zm17.8-15.491h4V342.07h.094c1.318-2.919,4.756-4.144,7.675-4.144,6.4,0,8.381,3.673,8.381,8.9v16.009h-4v-16.48a4.587,4.587,0,0,0-4.944-4.9c-4.85,0-7.2,3.249-7.2,7.628v13.749h-4Z" transform="translate(-172.251 -261.747)" fill="#00e6d2"></path>
  </g>
</svg>
