<?xml version="1.0" encoding="UTF-8"?>
<svg xmlns="http://www.w3.org/2000/svg" width="86.637" height="86.637" viewBox="0 0 86.637 86.637">
  <g id="Sg" transform="translate(-40.96 -40.96)">
    <path id="路径_773" d="M64,64m9.417,0h63.565q9.417,0,9.417,9.417v63.565q0,9.417-9.417,9.417H73.417Q64,146.4,64,136.982V73.417Q64,64,73.417,64Z" transform="translate(-20.921 -20.921)" fill="#0a4846"></path>
    <path id="路径_774" d="M116.061,127.6H52.5A11.549,11.549,0,0,1,40.96,116.061V52.5A11.549,11.549,0,0,1,52.5,40.96h63.565A11.549,11.549,0,0,1,127.6,52.5v63.565A11.549,11.549,0,0,1,116.061,127.6ZM52.5,45.2a7.306,7.306,0,0,0-7.3,7.3v63.565a7.306,7.306,0,0,0,7.3,7.3h63.565a7.307,7.307,0,0,0,7.3-7.3V52.5a7.307,7.307,0,0,0-7.3-7.3Z" fill="#00eae4"></path>
    <path id="路径_775" d="M222.718,295.6c0,5.179,3.814,7.2,8.522,7.2,5.179,0,7.11-2.543,7.11-5.085a4,4,0,0,0-2.778-4.143c-2.354-.895-5.415-1.507-10.029-2.778-5.744-1.554-7.44-5.038-7.44-8.522,0-6.733,6.215-9.888,12.289-9.888,7.016,0,12.9,3.72,12.9,10.736h-5.886c-.283-4.332-3.2-5.933-7.251-5.933-2.731,0-6.168.989-6.168,4.379,0,2.354,1.6,3.673,4,4.332.518.141,7.957,2.072,9.7,2.59a8.9,8.9,0,0,1,6.545,8.57c0,7.534-6.686,10.547-13.372,10.547-7.675,0-13.89-3.673-14.031-12.007Zm48.4,9.935c0,7.3-4.285,10.924-11.96,10.924-4.9,0-10.406-1.883-10.877-7.581h5.368c.659,3.061,3.108,3.578,5.839,3.578,4.332,0,6.262-2.213,6.262-6.215v-3.72h-.094a8.335,8.335,0,0,1-7.3,4.285c-7.722,0-10.924-5.839-10.924-12.807,0-6.545,4.1-12.2,11.018-12.2,3.061,0,5.839,1.271,7.2,4h.094V282.46h5.368Zm-5.368-11.442c0-4.191-1.883-8.052-6.545-8.052-4.756,0-6.4,4.426-6.4,8.475,0,4,1.93,8.052,6.4,8.052C263.964,302.566,265.754,298.234,265.754,294.09Z" transform="translate(-159.698 -210.141)" fill="#00eae4"></path>
  </g>
</svg>
