<?xml version="1.0" encoding="UTF-8"?>
<svg xmlns="http://www.w3.org/2000/svg" width="86.637" height="86.637" viewBox="0 0 86.637 86.637">
  <g id="Sy" transform="translate(-40.96 -40.96)">
    <path id="路径_785" d="M64,64m9.417,0h63.565q9.417,0,9.417,9.417v63.565q0,9.417-9.417,9.417H73.417Q64,146.4,64,136.983V73.417Q64,64,73.417,64Z" transform="translate(-20.921 -20.921)" fill="#393704"></path>
    <path id="路径_786" d="M116.061,127.6H52.5A11.549,11.549,0,0,1,40.96,116.061V52.5A11.549,11.549,0,0,1,52.5,40.96h63.565A11.549,11.549,0,0,1,127.6,52.5v63.565A11.549,11.549,0,0,1,116.061,127.6ZM52.5,45.2a7.306,7.306,0,0,0-7.3,7.3v63.565a7.306,7.306,0,0,0,7.3,7.3h63.565a7.307,7.307,0,0,0,7.3-7.3V52.5a7.307,7.307,0,0,0-7.3-7.3Z" fill="#fcf400"></path>
    <path id="路径_787" d="M228.606,295.6c0,5.179,3.814,7.2,8.522,7.2,5.179,0,7.11-2.543,7.11-5.085a4,4,0,0,0-2.778-4.144c-2.354-.895-5.415-1.507-10.029-2.778-5.744-1.554-7.44-5.038-7.44-8.522,0-6.733,6.215-9.888,12.289-9.888,7.016,0,12.9,3.72,12.9,10.736H243.3c-.283-4.332-3.2-5.933-7.251-5.933-2.731,0-6.168.989-6.168,4.379,0,2.354,1.6,3.673,4,4.332.518.141,7.957,2.072,9.7,2.59a8.9,8.9,0,0,1,6.545,8.57c0,7.534-6.686,10.547-13.372,10.547-7.675,0-13.89-3.673-14.031-12.007Zm23.213-13.137H257.7l6.357,18.175h.094l6.168-18.175h5.6l-9.464,25.662c-1.742,4.379-3.013,8.334-8.617,8.334a24.26,24.26,0,0,1-3.72-.282v-4.52a15.667,15.667,0,0,0,2.543.33c2.5,0,3.108-1.318,3.767-3.39l.612-1.883Z" transform="translate(-165.045 -210.141)" fill="#fcf400"></path>
  </g>
</svg>
