<?xml version="1.0" encoding="UTF-8"?>
<svg xmlns="http://www.w3.org/2000/svg" width="86.637" height="86.637" viewBox="0 0 86.637 86.637">
  <g id="Wf" transform="translate(-40.96 -40.96)">
    <path id="路径_779" d="M64,64m9.417,0h63.565q9.417,0,9.417,9.417v63.565q0,9.417-9.417,9.417H73.417Q64,146.4,64,136.983V73.417Q64,64,73.417,64Z" transform="translate(-20.921 -20.921)" fill="#483a04"></path>
    <path id="路径_780" d="M116.061,127.6H52.5A11.549,11.549,0,0,1,40.96,116.061V52.5A11.549,11.549,0,0,1,52.5,40.96h63.565A11.549,11.549,0,0,1,127.6,52.5v63.565A11.549,11.549,0,0,1,116.061,127.6ZM52.5,45.2a7.307,7.307,0,0,0-7.3,7.3v63.565a7.307,7.307,0,0,0,7.3,7.3h63.565a7.307,7.307,0,0,0,7.3-7.3V52.5a7.307,7.307,0,0,0-7.3-7.3Z" fill="#fccb0f"></path>
    <path id="路径_781" d="M190.72,329.216h5.98l6.074,25.709h.094l6.78-25.709h6.027l6.592,25.709h.094l6.262-25.709h5.98l-9.276,33.619h-5.98l-6.733-25.709h-.094l-6.874,25.709h-6.074Zm44.59,9.276h4v-2.025c0-6.215,3.249-7.251,6.733-7.251a15.1,15.1,0,0,1,3.767.33v4.191a9.1,9.1,0,0,0-2.5-.283c-1.46,0-2.637.518-2.637,2.543v2.5h4.567v4H244.68v20.341h-5.368V342.494h-4Z" transform="translate(-135.987 -261.747)" fill="#fccb0f"></path>
  </g>
</svg>
