<?xml version="1.0" encoding="UTF-8"?>
<svg xmlns="http://www.w3.org/2000/svg" width="85.692" height="85.692" viewBox="0 0 85.692 85.692">
  <g id="Xd" transform="translate(-40.96 -40.96)">
    <path id="路径_728" d="M64,64m9.314,0h62.872q9.314,0,9.314,9.314v62.872q0,9.314-9.314,9.314H73.314Q64,145.5,64,136.186V73.314Q64,64,73.314,64Z" transform="translate(-20.944 -20.944)" fill="#2e001f"></path>
    <path id="路径_729" d="M115.242,126.652H52.37a11.423,11.423,0,0,1-11.41-11.41V52.37A11.423,11.423,0,0,1,52.37,40.96h62.872a11.423,11.423,0,0,1,11.41,11.41v62.872a11.423,11.423,0,0,1-11.41,11.41ZM52.37,45.151a7.227,7.227,0,0,0-7.219,7.219v62.872a7.227,7.227,0,0,0,7.219,7.219h62.872a7.227,7.227,0,0,0,7.219-7.219V52.37a7.227,7.227,0,0,0-7.219-7.219Z" fill="#fb5ff4"></path>
    <path id="路径_730" d="M194.84,305.408h6.939l7.545,11.736,7.871-11.736h6.52l-10.991,16.021,11.783,17.232h-7.079l-8.29-12.714-8.43,12.714h-6.66l11.783-17.232Zm55,33.252h-5.029V335.4h-.093c-1.4,2.748-4.424,3.912-7.452,3.912-7.591,0-11.27-5.635-11.27-12.854,0-8.709,5.169-12.528,10.432-12.528,3.027,0,6.38,1.118,8.01,3.772h.093V305.408h5.309Zm-11.876-3.539c4.75,0,6.753-4.331,6.753-8.523,0-5.309-2.561-8.476-6.66-8.476-4.983,0-6.753,4.424-6.753,8.756,0,4.145,2.05,8.243,6.661,8.243Z" transform="translate(-139.163 -240.394)" fill="#ff61f6"></path>
  </g>
</svg>
