<?xml version="1.0" standalone="no"?><!DOCTYPE svg PUBLIC "-//W3C//DTD SVG 1.1//EN" "http://www.w3.org/Graphics/SVG/1.1/DTD/svg11.dtd"><svg t="1694507912038" class="icon" viewBox="0 0 1024 1024" version="1.1" xmlns="http://www.w3.org/2000/svg" p-id="1477" xmlns:xlink="http://www.w3.org/1999/xlink" width="200" height="200"><path d="M903.112 840.504c0 51.48-41.72 93.192-93.184 93.192H196.528c-51.472 0-93.192-41.72-93.192-93.192V227.128c0-51.472 41.728-93.2 93.192-93.2h613.392c51.472 0 93.184 41.728 93.184 93.2v613.376z" fill="#232323" p-id="1478"></path><path d="M892.448 827.288c0 50.104-40.608 90.712-90.704 90.712H204.712c-50.096 0-90.712-40.608-90.712-90.712V230.264c0-50.104 40.616-90.72 90.712-90.72h597.032c50.096 0 90.704 40.616 90.704 90.72v597.024z" fill="#D82727" p-id="1479"></path><path d="M801.744 144.584H204.712c-50.096 0-90.712 40.616-90.712 90.712v30c0-50.096 40.616-90.712 90.712-90.712h597.032c50.096 0 90.704 40.616 90.704 90.712v-30c0-50.096-40.616-90.712-90.704-90.712z" fill="#FF7676" p-id="1480"></path><path d="M204.704 918h597.032c50.096 0 90.712-40.616 90.712-90.712v-30c0 50.096-40.616 90.712-90.712 90.712H204.704c-50.096 0-90.704-40.616-90.704-90.712v30c0 50.096 40.608 90.712 90.704 90.712z" fill="#AA1D1D" p-id="1481"></path><path d="M242.44 780.144L445.088 538.56l-187.504-223.2h117.512l85.136 108.976c16.008 20.72 28.896 38.072 38.648 52.08a1608.424 1608.424 0 0 1 42.304-51.2l93.496-109.848h112.296L555.288 534.176l206.304 245.96H646.168L532.312 635.712l-30.296-38.944-145.72 183.376H242.44z" fill="#FFFFFF" p-id="1482"></path></svg>