<?xml version="1.0" encoding="UTF-8"?>
<svg xmlns="http://www.w3.org/2000/svg" width="119.913" height="105.765" viewBox="0 0 119.913 105.765">
  <g id="亲吻" transform="translate(0 -60.404)">
    <path id="路径_214" d="M68.47,128.868m-50.816,0A50.816,50.816,0,1,0,68.47,78.052a50.816,50.816,0,0,0-50.816,50.816Z" transform="translate(-15.587 -15.581)" fill="#fddf6d"></path>
    <path id="路径_215" d="M274,457.156a6.833,6.833,0,0,0-6.833,6.833h13.666A6.833,6.833,0,0,0,274,457.156Zm48.577,0a6.833,6.833,0,0,0-6.833,6.833h13.666a6.833,6.833,0,0,0-6.833-6.833Z" transform="translate(-235.882 -350.291)" fill="#f9a880"></path>
    <path id="路径_216" d="M79.359,213.984A50.814,50.814,0,0,1,45.368,125.4a50.82,50.82,0,1,0,57.093,83.042A50.6,50.6,0,0,1,79.359,213.984Z" transform="translate(-15.587 -57.383)" fill="#fcc56b"></path>
    <path id="路径_217" d="M318.168,338.449a2.067,2.067,0,0,1-1.808-1.062,7.52,7.52,0,0,0-6.563-3.86,7.876,7.876,0,0,0-6.652,3.917,2.067,2.067,0,1,1-3.546-2.126,12.029,12.029,0,0,1,10.2-5.926,11.656,11.656,0,0,1,10.175,5.983,2.068,2.068,0,0,1-1.8,3.074Zm-36.376,0a2.066,2.066,0,0,1-1.808-1.062,7.52,7.52,0,0,0-6.563-3.86,7.876,7.876,0,0,0-6.652,3.917,2.067,2.067,0,1,1-3.546-2.126,12.029,12.029,0,0,1,10.2-5.926,11.656,11.656,0,0,1,10.175,5.983,2.068,2.068,0,0,1-1.8,3.074Z" transform="translate(-232.139 -237.489)" fill="#7f184c"></path>
    <path id="路径_218" d="M782.781,531.755a7.831,7.831,0,0,0-9.093.133.714.714,0,0,1-1.134-.656,7.83,7.83,0,1,0-15.364,1.073l3.365,15.151a3.964,3.964,0,0,0,5.059,2.922l14.519-4.566a7.827,7.827,0,0,0,2.646-14.057Z" transform="translate(-668.304 -408.012)" fill="#fc4c59"></path>
    <path id="路径_219" d="M316.361,337.391a2.067,2.067,0,1,0,3.612-2.012A11.657,11.657,0,0,0,309.8,329.4a12.029,12.029,0,0,0-10.2,5.926,2.067,2.067,0,0,0,3.546,2.126,7.876,7.876,0,0,1,6.652-3.917,7.519,7.519,0,0,1,6.563,3.86ZM273.421,329.4a12.029,12.029,0,0,0-10.2,5.926,2.067,2.067,0,1,0,3.546,2.126,7.876,7.876,0,0,1,6.652-3.917,7.52,7.52,0,0,1,6.563,3.86,2.067,2.067,0,1,0,3.612-2.012A11.657,11.657,0,0,0,273.421,329.4Zm38.06,38.251a6.28,6.28,0,0,0,1.753-7.84,6.157,6.157,0,0,0-6.613-3.021c-3.175.507-6.367,1.129-9.513,1.791a2.857,2.857,0,0,0-1.6.66,2.09,2.09,0,0,0,.635,3.369c1.074.463,2.775-.164,3.849-.366l5.8-1.092c1.312-.247,3.27-.883,3.9.829.662,1.8-1.151,2.63-2.373,3.375a44.049,44.049,0,0,0-3.8,2.32,2.1,2.1,0,0,0-.083,3.475,9.975,9.975,0,0,0,1.8.823c1.326.579,4.341,1.308,4.528,2.968.238,2.119-1.7,2.06-3.1,1.963l-5.853-.408c-1.1-.076-2.7-.473-3.783-.1a2.088,2.088,0,0,0-.89,3.311,2.492,2.492,0,0,0,1.807.733,100.961,100.961,0,0,0,10.2.712,6.007,6.007,0,0,0,5.716-5.171,6.079,6.079,0,0,0-1.144-4.438c-.979-1.309-2.251-1.738-3.655-2.409.8-.488,1.662-.928,2.416-1.485C313.01,366.515,311.432,367.684,311.482,367.647Z" transform="translate(-232.139 -237.492)" fill="#8b481b"></path>
    <path id="路径_220" d="M115.648,122.039a9.934,9.934,0,0,0-9.372-1.015,9.9,9.9,0,1,0-19.4,3.748l3.358,15.12a6.039,6.039,0,0,0,1.5,2.829,48.719,48.719,0,1,1,8.776-39.862,2.067,2.067,0,1,0,4.04-.88,52.9,52.9,0,1,0-9.041,42.6,5.889,5.889,0,0,0,2.419-.243l14.453-4.545a9.894,9.894,0,0,0,3.264-17.753Zm-.422,10.625a5.759,5.759,0,0,1-3.873,3.124q-.072.017-.143.039l-14.52,4.566A1.9,1.9,0,0,1,94.27,139l-3.365-15.151q-.007-.033-.016-.066a5.707,5.707,0,0,1,.808-4.663,5.775,5.775,0,0,1,4.787-2.531,5.676,5.676,0,0,1,2.458.557,5.785,5.785,0,0,1,3.253,5.849,2.781,2.781,0,0,0,4.413,2.55,5.763,5.763,0,0,1,8.617,7.123Z" fill="#683c1e"></path>
    <path id="路径_221" d="M868.137,464.489m-2.067,0a2.067,2.067,0,1,0,2.067-2.067A2.067,2.067,0,0,0,866.07,464.489Z" transform="translate(-764.651 -354.941)" fill="#683c1e"></path>
  </g>
</svg>
