<?xml version="1.0" encoding="UTF-8"?>
<svg xmlns="http://www.w3.org/2000/svg" width="104.63" height="104.63" viewBox="0 0 104.63 104.63">
  <g id="冷汗" transform="translate(-200.617 -49.352)">
    <g id="组_5" transform="translate(12.949 -34.269)">
      <path id="路径_14" d="M295.662,136.443a51.11,51.11,0,1,1-51.11-51.11,51.1,51.1,0,0,1,51.11,51.11Zm0,0" transform="translate(-4.865 0)" fill="#fddf6d"></path>
      <path id="路径_15" d="M255.462,210.351a51.071,51.071,0,0,1-34.141-89.088A51.131,51.131,0,1,0,278.795,204.8a51.92,51.92,0,0,1-23.333,5.555Zm0,0" transform="translate(-4.866 -30.274)" fill="#fcc56b"></path>
      <path id="路径_16" d="M455.7,298.217a2.012,2.012,0,0,1-1.818-1.111,7.4,7.4,0,0,0-6.565-4.242,7.823,7.823,0,0,0-6.667,4.343,2.08,2.08,0,1,1-3.636-2.02,11.923,11.923,0,0,1,10.3-6.464,11.788,11.788,0,0,1,10.3,6.565,2.141,2.141,0,0,1-.909,2.828,3.789,3.789,0,0,1-1.01.1Zm0,0-34.646,0a1.908,1.908,0,0,1-1.818-1.111,7.4,7.4,0,0,0-6.565-4.242A7.823,7.823,0,0,0,406,297.207a2.08,2.08,0,0,1-3.636-2.02,11.923,11.923,0,0,1,10.3-6.464,11.788,11.788,0,0,1,10.3,6.565,2.141,2.141,0,0,1-.909,2.828A3.79,3.79,0,0,1,421.052,298.217Zm0,0" transform="translate(-180.657 -171.37)" fill="#8b481b"></path>
      <path id="路径_17" d="M341.465,385.23A6.812,6.812,0,0,0,334.6,392.1h13.737a6.876,6.876,0,0,0-6.868-6.869Zm0,0,60-.909a6.812,6.812,0,0,0-6.868,6.869h13.737A6.876,6.876,0,0,0,401.463,384.321Zm0,0" transform="translate(-123.797 -251.919)" fill="#f9a880"></path>
      <path id="路径_19" d="M514.559,156.044c5.656,1.616,9.6,5.454,8.687,8.687-.909,3.131-6.262,4.444-11.919,2.828s-9.6-5.454-8.687-8.687C503.65,155.741,508.9,154.428,514.559,156.044Zm0,0" transform="translate(-265.276 -58.994)" fill="#fceb88"></path>
      <path id="路径_20" d="M493.826,518.535c-3.939-3.232-10.808-5.252-18.585-5.252-7.373,0-14.545,2.02-18.686,5.151a2.074,2.074,0,0,0,1.212,3.737,2.222,2.222,0,0,0,1.313-.4c3.434-2.626,9.6-4.242,16.06-4.242,6.667,0,12.828,1.616,15.959,4.242a2.08,2.08,0,0,0,2.929-.3,2,2,0,0,0-.2-2.929Zm0,0" transform="translate(-225.856 -360.578)" fill="#8b481b"></path>
    </g>
    <g id="组_6" transform="translate(0 -1.711)">
      <path id="路径_21" d="M96.148,23.745A52.4,52.4,0,0,0,74.191,4.78a2.045,2.045,0,1,0-1.712,3.715,48.248,48.248,0,1,1-20.163-4.4,2.045,2.045,0,0,0,0-4.09A52.3,52.3,0,1,0,96.148,23.745Z" transform="translate(200.616 51.063)" fill="#683c1e"></path>
      <path id="路径_22" d="M631.52,22.061m-2.045,0a2.045,2.045,0,1,0,2.045-2.045A2.045,2.045,0,0,0,629.475,22.061Z" transform="translate(-365.093 32.759)" fill="#683c1e"></path>
      <path id="路径_18" d="M209.284,156.251a10.808,10.808,0,1,1-21.615,0c0-5.959,10.808-21.514,10.808-21.514s10.808,15.555,10.808,21.515Zm0,0" transform="translate(12.949 -74.185)" fill="#3fa9f5"></path>
    </g>
  </g>
</svg>
