<?xml version="1.0" encoding="UTF-8"?>
<svg xmlns="http://www.w3.org/2000/svg" width="102.518" height="102.518" viewBox="0 0 102.518 102.518">
  <g id="发呆" transform="translate(-1540.167 -231.858)">
    <g id="组_52" transform="translate(1316.926 149.41)">
      <path id="路径_135" d="M324.515,134.829a50.137,50.137,0,1,1-50.137-50.137A50.095,50.095,0,0,1,324.515,134.829Zm0,0" fill="#fddf6d"></path>
      <path id="路径_136" d="M285.734,208.018a50.121,50.121,0,0,1-33.523-87.4,50.124,50.124,0,1,0,56.33,81.89,49.754,49.754,0,0,1-22.807,5.505Zm0,0" transform="translate(-0.543 -30.425)" fill="#fcc56b"></path>
      <path id="路径_137" d="M428.5,230.128a14.55,14.55,0,1,1-14.55-14.55A14.517,14.517,0,0,1,428.5,230.128Zm0,0,40.8,0a14.55,14.55,0,1,1-14.55-14.55A14.517,14.517,0,0,1,469.3,230.128Zm0,0" transform="translate(-148.319 -110.832)" fill="#fff"></path>
      <path id="路径_138" d="M373.46,436.534a6.8,6.8,0,0,0-6.783,6.783h13.468A6.652,6.652,0,0,0,373.46,436.534Zm0,0,58.788-.885a6.8,6.8,0,0,0-6.783,6.783h13.468A6.652,6.652,0,0,0,432.248,435.649Zm0,0" transform="translate(-120.611 -297.183)" fill="#f9a880"></path>
      <path id="路径_139" d="M515.993,324.045H494.267a2.064,2.064,0,0,1,0-4.129h21.726a2.076,2.076,0,0,1,2.064,2.064,2.22,2.22,0,0,1-2.064,2.065Zm0,0-23.2-35.784a4.031,4.031,0,0,1-8.061,0,4.115,4.115,0,0,1,4.031-4.031A4.049,4.049,0,0,1,492.793,288.261Zm0,0,41.388,0a4.031,4.031,0,0,1-8.061,0,4.115,4.115,0,0,1,4.031-4.031A4.049,4.049,0,0,1,534.18,288.261Zm0,0" transform="translate(-220.578 -168.965)" fill="#8b481b"></path>
      <path id="路径_140" d="M545.117,130.362c5.6,1.573,9.339,5.407,8.455,8.454-.885,3.146-6.1,4.326-11.7,2.753s-9.339-5.407-8.455-8.454S539.514,128.789,545.117,130.362Zm0,0" transform="translate(-261.695 -38.1)" fill="#fceb88"></path>
    </g>
    <g id="组_53" transform="translate(1540.167 231.858)">
      <path id="路径_11" d="M94.207,23.266A51.344,51.344,0,0,0,72.693,4.683a2,2,0,1,0-1.678,3.64A47.274,47.274,0,1,1,51.26,4.008,2,2,0,0,0,51.26,0,51.244,51.244,0,1,0,94.207,23.266Z" transform="translate(-0.001)" fill="#683c1e"></path>
      <path id="路径_13" d="M631.479,22.02m-2,0a2,2,0,1,0,2-2A2,2,0,0,0,629.475,22.02Z" transform="translate(-566.455 -18.012)" fill="#683c1e"></path>
    </g>
  </g>
</svg>
