<?xml version="1.0" encoding="UTF-8"?>
<svg xmlns="http://www.w3.org/2000/svg" width="104.63" height="104.63" viewBox="0 0 104.63 104.63">
  <g id="发怒" transform="translate(-530.253 -417.621)">
    <g id="组_62" transform="translate(304.124 337.458)">
      <path id="路径_165" d="M329.759,132.959a50.834,50.834,0,1,1-50.834-50.834A50.792,50.792,0,0,1,329.759,132.959Zm0,0" transform="translate(0 0)" fill="#fc4c59"></path>
      <path id="路径_166" d="M289.889,206.666A50.818,50.818,0,0,1,255.9,118.055a50.8,50.8,0,1,0,57.014,83.029,49.733,49.733,0,0,1-23.025,5.582Zm0,0" transform="translate(0 -30.348)" fill="#bc3b4a"></path>
      <path id="路径_167" d="M582.116,540.7a2.1,2.1,0,0,1-1.794-1.1,14.141,14.141,0,0,0-12.459-7.376A15.166,15.166,0,0,0,555.2,539.6a2.034,2.034,0,0,1-3.489-2.093,19.186,19.186,0,0,1,16.147-9.469,18.481,18.481,0,0,1,16.147,9.469,1.994,1.994,0,0,1-.8,2.791,1.66,1.66,0,0,1-1.1.4Zm0,0" transform="translate(-273.09 -376.641)" fill="#8b481b"></path>
      <path id="路径_168" d="M529.458,363.267a5.681,5.681,0,1,1-5.681-5.682A5.743,5.743,0,0,1,529.458,363.267Zm0,0,30.2-1.5a5.681,5.681,0,1,1-11.363,0,5.616,5.616,0,0,1,5.682-5.681A5.744,5.744,0,0,1,559.66,361.772Zm0,0" transform="translate(-244.952 -231.404)" fill="#fff"></path>
      <path id="路径_169" d="M470.143,319.638a9.155,9.155,0,0,1-2.791-.5,7.719,7.719,0,0,1-4.485-4.186,7.9,7.9,0,0,1,0-6.379,8.1,8.1,0,0,1,2.093-2.99c-.4-.2-.7-.4-1.1-.6a40.543,40.543,0,0,1-3.688-2.093,36.681,36.681,0,0,0-4.585-2.492,2.073,2.073,0,1,1,1.894-3.688c1.993,1,3.389,1.894,4.784,2.691a22.818,22.818,0,0,0,3.489,1.894c.9.5,1.695.9,2.592,1.3a56.071,56.071,0,0,1,8.572,4.984c.2.2.4.5.6.7a7.588,7.588,0,0,1,.2,6.08,7.718,7.718,0,0,1-4.186,4.485A8.049,8.049,0,0,1,470.143,319.638Zm-1-11.961a4.052,4.052,0,0,0-2.392,2.392,4.4,4.4,0,0,0,0,3.19,3.624,3.624,0,0,0,2.193,1.993,3.893,3.893,0,0,0,2.99-.1,3.623,3.623,0,0,0,1.993-2.193,4.256,4.256,0,0,0,.1-2.492C472.634,309.571,471.04,308.674,469.146,307.677Zm0,0,31.4,10.466a7.511,7.511,0,0,1-3.289-.7,8.388,8.388,0,0,1-4.186-4.485,8.023,8.023,0,0,1,.2-6.08,1.773,1.773,0,0,1,.7-.8,57.646,57.646,0,0,1,8.572-4.984,89.131,89.131,0,0,0,9.868-5.183l.6-.4a2.034,2.034,0,0,1,2.093,3.489l-.6.4a85.622,85.622,0,0,1-8.373,4.485,6.742,6.742,0,0,1,1.794,2.592,8.514,8.514,0,0,1,0,6.977,8.387,8.387,0,0,1-4.485,4.186A7.685,7.685,0,0,1,500.543,318.143Zm-3.688-9.07a3.581,3.581,0,0,0,.1,2.492,4.29,4.29,0,0,0,1.993,2.193,3.877,3.877,0,0,0,2.99.1,4.29,4.29,0,0,0,2.193-1.993,4.493,4.493,0,0,0,0-3.588,4,4,0,0,0-2.293-2.093A28.613,28.613,0,0,0,496.856,309.073Zm0,0" transform="translate(-191.218 -180.001)" fill="#8b481b"></path>
      <path id="路径_170" d="M562.606,145.128c5.681,1.595,9.469,5.482,8.572,8.572-.9,3.19-6.18,4.386-11.861,2.791s-9.469-5.482-8.572-8.572C551.741,144.829,557.024,143.533,562.606,145.128Zm0,0" transform="translate(-272.418 -52.637)" fill="#f76b6b"></path>
    </g>
    <g id="组_63" transform="translate(530.253 417.621)">
      <path id="路径_11" d="M96.148,23.745A52.4,52.4,0,0,0,74.191,4.78a2.045,2.045,0,1,0-1.712,3.715,48.248,48.248,0,1,1-20.163-4.4,2.045,2.045,0,0,0,0-4.09A52.3,52.3,0,1,0,96.148,23.745Z" transform="translate(-0.001)" fill="#683c1e"></path>
      <path id="路径_13" d="M631.52,22.061m-2.045,0a2.045,2.045,0,1,0,2.045-2.045A2.045,2.045,0,0,0,629.475,22.061Z" transform="translate(-565.156 -17.971)" fill="#683c1e"></path>
    </g>
  </g>
</svg>
