<?xml version="1.0" encoding="UTF-8"?>
<svg xmlns="http://www.w3.org/2000/svg" width="102.518" height="102.518" viewBox="0 0 102.518 102.518">
  <g id="受伤" transform="translate(-1542.391 -419.974)">
    <g id="受伤-2" transform="translate(1540.367 419.377)">
      <path id="路径_222" d="M119.506,69.586a49.594,49.594,0,1,1-.6-7.741,49.864,49.864,0,0,1,.6,7.741Z" transform="translate(-18.006 -17.763)" fill="#fddf6d"></path>
      <path id="路径_223" d="M97.572,152.287a49.732,49.732,0,0,1-49.23-84.639,49.748,49.748,0,1,0,53.639,82.783q-2.158,1.035-4.41,1.856Z" transform="translate(-18.001 -60.728)" fill="#fcc56b"></path>
      <path id="路径_224" d="M429.962,404.454a6.071,6.071,0,1,1-4.847-5.947A6.126,6.126,0,0,1,429.962,404.454Zm34.176,0a6.071,6.071,0,1,1-4.847-5.947A6.126,6.126,0,0,1,464.137,404.454Z" transform="translate(-375.597 -358.036)" fill="#fff"></path>
      <path id="路径_225" d="M253.383,526.159a6.752,6.752,0,0,0-6.688,6.688h13.377a6.752,6.752,0,0,0-6.688-6.688Zm58.339-.9a6.752,6.752,0,0,0-6.688,6.688H318.41a6.752,6.752,0,0,0-6.688-6.688Z" transform="translate(-221.759 -472.088)" fill="#f9a880"></path>
      <path id="路径_226" d="M48.219,87.632a49.313,49.313,0,0,0-13.025,22.914l90.884-13.3a49.608,49.608,0,0,0-19.034-18.221Z" transform="translate(-31.637 -70.958)" fill="#f2f2f2"></path>
      <path id="路径_227" d="M113.961,99.022l9.219-6.087a49.408,49.408,0,0,0-3.85-4.547,49.964,49.964,0,0,0-12.284-9.36L58.919,86.066,41.23,96.4c-.129.206-.262.41-.388.619A49.471,49.471,0,0,0,35.2,110.545l78.765-11.523Z" transform="translate(-31.638 -70.957)" fill="#e6e6e6"></path>
      <path id="路径_228" d="M105.705,65.663A50.04,50.04,0,0,0,87.938,53.748l-65.6,31.367a50.121,50.121,0,0,0-2.158,18.748,49.088,49.088,0,0,0,.652,5.059l86.51-41.461Q106.545,66.542,105.705,65.663Z" transform="translate(-18.012 -48.233)" fill="#fff"></path>
      <path id="路径_229" d="M543.729,703.862c-.992,0-1.593-.8-2.352-1.308a13.342,13.342,0,0,0-2.59-1.318,24.878,24.878,0,0,0-7.081-1.545,26.355,26.355,0,0,0-7.523.444,17.436,17.436,0,0,0-3.132.949,16.221,16.221,0,0,1-2.584,1.3,2.036,2.036,0,0,1-1.56-3.647,15.784,15.784,0,0,1,5.681-2.4,30.735,30.735,0,0,1,14.744.186,20.033,20.033,0,0,1,6.447,2.772c.808.559,1.819,1.228,1.956,2.281A2.046,2.046,0,0,1,543.729,703.862Z" transform="translate(-463.919 -625.143)" fill="#7f184c"></path>
      <path id="路径_231" d="M545.961,378.343a8.092,8.092,0,1,0,7.924,6.439A8.176,8.176,0,0,0,545.961,378.343Zm0,12.141a4.047,4.047,0,1,1,4.047-4.047A4.089,4.089,0,0,1,545.961,390.484Zm-15.144,20c-4.55-.256-9.575.3-13.572,2.648-.822.484-1.6,1.033-1.635,2.076a2.038,2.038,0,0,0,1.56,2.044c1,.236,1.69-.412,2.513-.846a14.365,14.365,0,0,1,3-1.134,26.254,26.254,0,0,1,14.582.453,16.444,16.444,0,0,1,2.855,1.2c.788.433,1.4,1.089,2.163,1.535,2.124,1.247,4.022-1.661,2.338-3.286a15.479,15.479,0,0,0-5.738-3.188,30.032,30.032,0,0,0-8.062-1.506C525.143,410.16,536.663,410.806,530.818,410.48Z" transform="translate(-463.492 -340.018)" fill="#8b481b"></path>
      <path id="路径_232" d="M545.961,378.343a8.092,8.092,0,1,0,7.924,6.439A8.176,8.176,0,0,0,545.961,378.343Zm0,12.141a4.047,4.047,0,1,1,4.047-4.047A4.089,4.089,0,0,1,545.961,390.484Z" transform="translate(-497.779 -340.018)" fill="#8b481b"></path>
    </g>
    <g id="组_72" transform="translate(1542.391 419.974)">
      <path id="路径_11" d="M94.207,23.266A51.344,51.344,0,0,0,72.693,4.683a2,2,0,1,0-1.678,3.64A47.274,47.274,0,1,1,51.26,4.008,2,2,0,0,0,51.26,0,51.244,51.244,0,1,0,94.207,23.266Z" transform="translate(-0.001)" fill="#683c1e"></path>
      <path id="路径_13" d="M631.479,22.02m-2,0a2,2,0,1,0,2-2A2,2,0,0,0,629.475,22.02Z" transform="translate(-566.455 -18.012)" fill="#683c1e"></path>
    </g>
  </g>
</svg>
