<?xml version="1.0" encoding="UTF-8"?>
<svg xmlns="http://www.w3.org/2000/svg" width="104.63" height="104.63" viewBox="0 0 104.63 104.63">
  <g id="口罩" transform="translate(-47.635 -425.511)">
    <g id="组_56" transform="translate(-184.047 340.437)">
      <path id="路径_148" d="M335,137.825a50.567,50.567,0,1,1-50.567-50.567A50.525,50.525,0,0,1,335,137.825Zm0,0" transform="translate(0)" fill="#fddf6d"></path>
      <path id="路径_149" d="M295.24,210.692a50.551,50.551,0,0,1-33.811-88.146,50.6,50.6,0,1,0,56.814,82.693,50.759,50.759,0,0,1-23,5.453Zm0,0" transform="translate(0 -29.835)" fill="#fcc56b"></path>
      <path id="路径_150" d="M476.495,279.471a6.147,6.147,0,1,1-6.147-6.147A6.115,6.115,0,0,1,476.495,279.471Zm0,0,34.8,0a6.147,6.147,0,1,1-6.147-6.147A6.115,6.115,0,0,1,511.3,279.471Zm0,0" transform="translate(-194.74 -157.312)" fill="#8b481b"></path>
      <path id="路径_151" d="M269.8,445.839c-.3,0-11.6.5-20.128-.892h-.1a50.216,50.216,0,0,1-13.98-3.966,1.961,1.961,0,0,0-1.091-.2,34.394,34.394,0,0,0,.595,4.462,59.772,59.772,0,0,0,13.782,3.768h.1a105.677,105.677,0,0,0,16.063,1.091c2.975,0,4.958-.1,4.958-.1a2.078,2.078,0,0,0,1.884-2.181,1.95,1.95,0,0,0-2.082-1.983Zm0,0-.4,15.17a37.909,37.909,0,0,1-7.536,1.388,68.637,68.637,0,0,1-19.136-.3,1.721,1.721,0,0,0-1.388.3,35.918,35.918,0,0,0,2.677,4.065,75.091,75.091,0,0,0,9.419.595c2.975,0,5.85-.2,8.924-.5a61.9,61.9,0,0,0,8.031-1.487,2.042,2.042,0,0,0,1.487-2.479,1.965,1.965,0,0,0-2.479-1.586Zm0,0,64.25-17.352a17,17,0,0,1-7.337,2.181,35.258,35.258,0,0,1-7.734.1,2.1,2.1,0,0,0-2.38,1.686,2.028,2.028,0,0,0,1.686,2.38,28.69,28.69,0,0,0,3.669.2c1.388,0,3.074-.1,5.255-.3a24.059,24.059,0,0,0,7.536-1.983,35.142,35.142,0,0,0,.793-4.66A2.582,2.582,0,0,0,333.657,443.657Zm0,0-6.147,17.451a17.357,17.357,0,0,1-4.065.4,31.3,31.3,0,0,1-5.156-.5,2.022,2.022,0,1,0-.793,3.966,39.246,39.246,0,0,0,5.85.5,23.848,23.848,0,0,0,3.074-.2A42.384,42.384,0,0,0,329,461.108,2.482,2.482,0,0,0,327.51,461.108Zm0,0" transform="translate(-0.542 -298.892)" fill="#fff"></path>
      <path id="路径_152" d="M554.2,152.823c5.652,1.586,9.419,5.453,8.527,8.527-.892,3.173-6.147,4.363-11.8,2.776s-9.419-5.453-8.527-8.527S548.55,151.237,554.2,152.823Zm0,0" transform="translate(-260.747 -54.857)" fill="#fceb88"></path>
      <path id="路径_153" d="M507.874,469.192H469.9a5.078,5.078,0,0,1-5.057-5.057V445.2a5.078,5.078,0,0,1,5.057-5.057h37.876a5.078,5.078,0,0,1,5.057,5.057v18.938a4.932,4.932,0,0,1-4.958,5.057Zm0,0" transform="translate(-195.283 -298.349)" fill="#fff"></path>
      <path id="路径_154" d="M479.266,461.411a5.078,5.078,0,0,1-5.057-5.057V439.5h-3.669a5.078,5.078,0,0,0-5.057,5.057v18.938a5.078,5.078,0,0,0,5.057,5.057h37.876a5.078,5.078,0,0,0,5.057-5.057v-2.082H479.266Zm0,0" transform="translate(-195.825 -297.806)" fill="#f2f2f2"></path>
    </g>
    <g id="组_57" transform="translate(47.635 425.511)">
      <path id="路径_11" d="M96.148,23.745A52.4,52.4,0,0,0,74.191,4.78a2.045,2.045,0,1,0-1.712,3.715,48.248,48.248,0,1,1-20.163-4.4,2.045,2.045,0,0,0,0-4.09A52.3,52.3,0,1,0,96.148,23.745Z" transform="translate(-0.001)" fill="#683c1e"></path>
      <path id="路径_13" d="M631.52,22.061m-2.045,0a2.045,2.045,0,1,0,2.045-2.045A2.045,2.045,0,0,0,629.475,22.061Z" transform="translate(-565.156 -17.971)" fill="#683c1e"></path>
    </g>
  </g>
</svg>
