<?xml version="1.0" encoding="UTF-8"?>
<svg xmlns="http://www.w3.org/2000/svg" width="102.518" height="114.657" viewBox="0 0 102.518 114.657">
  <g id="吐" transform="translate(-264.02 -89.464)">
    <path id="路径_141" d="M364.278,140.272A49.808,49.808,0,1,1,314.47,90.464,49.79,49.79,0,0,1,364.278,140.272Zm0,0" transform="translate(-0.53)" fill="#fddf6d"></path>
    <path id="路径_142" d="M324.525,208.707a49.787,49.787,0,0,1-33.317-86.8,49.86,49.86,0,0,0,22.62,94.268,49.233,49.233,0,0,0,33.317-12.814,50.506,50.506,0,0,1-22.62,5.349Zm0,0" transform="translate(0 -25.981)" fill="#fcc56b"></path>
    <path id="路径_143" d="M480.477,305.507a19.45,19.45,0,0,1,19.5,19.5v5.906h-39v-5.906a19.521,19.521,0,0,1,19.5-19.5Zm0,0-16.046-11.143c-4.569,0-8.8-2.006-11.031-5.349a2.009,2.009,0,0,1,3.343-2.229,9.347,9.347,0,0,0,7.8,3.566,9.9,9.9,0,0,0,7.8-3.677,1.995,1.995,0,0,1,3.231,2.34A14.169,14.169,0,0,1,464.431,294.364Zm0,0,31.2,0c-4.569,0-8.8-2.006-11.031-5.349a2.009,2.009,0,0,1,3.343-2.229,9.347,9.347,0,0,0,7.8,3.566,9.9,9.9,0,0,0,7.8-3.677,1.995,1.995,0,0,1,3.231,2.34A14.169,14.169,0,0,1,495.631,294.364Zm0,0" transform="translate(-156.174 -161.447)" fill="#8b481b"></path>
    <path id="路径_144" d="M556.52,450.406a11.461,11.461,0,0,0-11.477,11.477V488.96a3.789,3.789,0,1,0,7.577,0v8.8a3.789,3.789,0,1,0,7.577,0V492.3a3.789,3.789,0,1,0,7.577,0v-30.42a11.136,11.136,0,0,0-11.254-11.477Zm0,0" transform="translate(-232.217 -297.431)" fill="#b5e589"></path>
    <g id="组_55" transform="translate(264.02 89.464)">
      <path id="路径_11" d="M94.207,23.266A51.344,51.344,0,0,0,72.693,4.683a2,2,0,1,0-1.678,3.64A47.274,47.274,0,1,1,51.26,4.008,2,2,0,0,0,51.26,0,51.244,51.244,0,1,0,94.207,23.266Z" transform="translate(-0.001)" fill="#683c1e"></path>
      <path id="路径_13" d="M631.479,22.02m-2,0a2,2,0,1,0,2-2A2,2,0,0,0,629.475,22.02Z" transform="translate(-566.455 -18.012)" fill="#683c1e"></path>
    </g>
    <path id="路径_145" d="M565.268,539.655c-3.789,0-3.789,1.671-3.789,1.671-.557,1.894-1.671,3.789-3.789,3.789a3.757,3.757,0,0,1-3.789-3.789s.669-5.014-3.789-5.014a3.757,3.757,0,0,1-3.789-3.789v20.057a3.789,3.789,0,0,0,7.577,0v8.8a3.789,3.789,0,0,0,7.577,0v-5.46a3.789,3.789,0,0,0,7.577,0V535.867A3.905,3.905,0,0,1,565.268,539.655Zm0,0M562.817,529.4a2.006,2.006,0,1,1-2.006-2.006A2,2,0,0,1,562.817,529.4Zm0,0" transform="translate(-233.277 -361.052)" fill="#8bc673"></path>
    <path id="路径_146" d="M579.648,528.329a2.006,2.006,0,1,1-2.006-2.006A2,2,0,0,1,579.648,528.329Zm0,0-5.571-10.474a2.006,2.006,0,1,1-2.006-2.006A2,2,0,0,1,574.077,517.855Zm0,0" transform="translate(-252.894 -351.509)" fill="#8bc673"></path>
    <path id="路径_147" d="M539.331,142.427c5.571,1.56,9.36,5.349,8.469,8.469s-6.017,4.346-11.589,2.786-9.36-5.349-8.469-8.469S533.76,140.867,539.331,142.427Zm0,0" transform="translate(-217.814 -42.38)" fill="#fceb88"></path>
  </g>
</svg>
