<?xml version="1.0" encoding="UTF-8"?>
<svg xmlns="http://www.w3.org/2000/svg" width="104.63" height="104.63" viewBox="0 0 104.63 104.63">
  <g id="噘嘴" transform="translate(-197.656 -236.102)">
    <g id="组_33" transform="translate(2.682 146.314)">
      <path id="路径_89" d="M296.642,141.1a49.353,49.353,0,1,1-49.353-49.353A49.312,49.312,0,0,1,296.642,141.1Zm0,0" fill="#fddf6d"></path>
      <path id="路径_90" d="M257.837,213.709a49.338,49.338,0,0,1-33-86.03,49.341,49.341,0,1,0,55.45,80.611,48.681,48.681,0,0,1-22.451,5.419Zm0,0" transform="translate(0 -30.511)" fill="#fcc56b"></path>
      <path id="路径_91" d="M499.6,559.46a2.133,2.133,0,0,1-1.452-.581,1.986,1.986,0,0,1,0-2.806l3.29-3.29a1.986,1.986,0,0,1,2.806,0l1.742,1.742,2.516-2.516a2.1,2.1,0,0,1,2.9,0l2.516,2.516,2.806-2.806a1.986,1.986,0,0,1,2.806,0l2.323,2.323,1.935-1.935a1.986,1.986,0,0,1,2.806,0l3.387,3.387a1.984,1.984,0,0,1-2.806,2.806l-1.935-1.935-1.935,1.935a1.986,1.986,0,0,1-2.806,0l-2.323-2.323-2.806,2.806a2.1,2.1,0,0,1-2.9,0l-2.516-2.516-2.516,2.516a1.986,1.986,0,0,1-2.806,0l-1.839-1.742-1.839,1.839a1.91,1.91,0,0,1-1.355.581Zm0,0" transform="translate(-254.437 -390.101)" fill="#8b481b"></path>
      <path id="路径_92" d="M521.835,155.915c5.516,1.548,9.193,5.322,8.322,8.322-.871,3.1-6,4.258-11.516,2.71s-9.193-5.322-8.322-8.322C511.19,155.527,516.319,154.366,521.835,155.915Zm0,0" transform="translate(-265.159 -53.908)" fill="#fceb88"></path>
      <path id="路径_93" d="M427.768,367.271a2.052,2.052,0,0,1-1.839-1.161,1.915,1.915,0,0,1,1.064-2.613l8.226-3.581-8.226-3.677a2,2,0,0,1,1.548-3.677l12.387,5.516a1.9,1.9,0,0,1,1.161,1.839,2.052,2.052,0,0,1-1.161,1.839l-12.387,5.419A1.886,1.886,0,0,1,427.768,367.271Zm0,0,51.1-1.161a1.9,1.9,0,0,1-1.839,1.161,1.823,1.823,0,0,1-.774-.194l-12.387-5.419a1.9,1.9,0,0,1-1.161-1.839,2.052,2.052,0,0,1,1.161-1.839l12.387-5.516a1.995,1.995,0,0,1,1.548,3.677l-8.226,3.677L477.8,363.4A2.194,2.194,0,0,1,478.863,366.11Zm0,0" transform="translate(-193.447 -221.234)" fill="#8b481b"></path>
    </g>
    <g id="组_37" transform="translate(197.656 236.102)">
      <path id="路径_11" d="M96.148,23.745A52.4,52.4,0,0,0,74.191,4.78a2.045,2.045,0,1,0-1.712,3.715,48.248,48.248,0,1,1-20.163-4.4,2.045,2.045,0,0,0,0-4.09A52.3,52.3,0,1,0,96.148,23.745Z" transform="translate(-0.001)" fill="#683c1e"></path>
      <path id="路径_13" d="M631.52,22.061m-2.045,0a2.045,2.045,0,1,0,2.045-2.045A2.045,2.045,0,0,0,629.475,22.061Z" transform="translate(-565.156 -17.971)" fill="#683c1e"></path>
    </g>
  </g>
</svg>
