<?xml version="1.0" encoding="UTF-8"?>
<svg xmlns="http://www.w3.org/2000/svg" width="104.63" height="104.63" viewBox="0 0 104.63 104.63">
  <g id="困" transform="translate(-726 -50.877)">
    <g id="组_11" transform="translate(533.198 -27.682)">
      <path id="路径_36" d="M295,130.659a51.1,51.1,0,1,1-51.1-51.1A51.057,51.057,0,0,1,295,130.659Zm0,0" fill="#fddf6d"></path>
      <path id="路径_37" d="M254.823,204.563a51.084,51.084,0,0,1-34.167-89.074,51.087,51.087,0,1,0,57.412,83.463,50.1,50.1,0,0,1-23.245,5.611Zm0,0" transform="translate(0 -30.319)" fill="#fcc56b"></path>
      <path id="路径_38" d="M437.529,305.4a6.914,6.914,0,0,0,13.827,0H427.91m-25.951,0a6.914,6.914,0,0,0,13.827,0H392.341" transform="translate(-168.378 -190.576)" fill="#fff"></path>
      <path id="路径_39" d="M342.152,382.015a6.927,6.927,0,0,0-6.914,6.914h13.727a6.78,6.78,0,0,0-6.813-6.914Zm0,0,59.917-.9a6.927,6.927,0,0,0-6.914,6.914h13.727A6.719,6.719,0,0,0,402.069,381.113Zm0,0" transform="translate(-120.193 -254.462)" fill="#f9a880"></path>
      <path id="路径_40" d="M396.1,337.72a1.8,1.8,0,0,1-1.5-.7,2.056,2.056,0,0,1,.1-2.906c3.507-3.206,9.619-5.31,15.831-5.31,6.613,0,12.524,2,15.831,5.31a2.055,2.055,0,1,1-2.906,2.906c-2.5-2.5-7.414-4.108-12.925-4.108-5.31,0-10.32,1.6-13.025,4.208a1.978,1.978,0,0,1-1.4.6Zm0,0,43.886-45.689H416.541a2.1,2.1,0,1,0,0,4.208h7.815a9.045,9.045,0,0,0,17.835-2.1,2.2,2.2,0,0,0-2.2-2.1Zm-6.913,6.913a4.867,4.867,0,0,1-4.409-2.805h8.817A4.867,4.867,0,0,1,433.073,298.944Zm0,0-26.452-4.909a2.116,2.116,0,0,0-2.1-2.1H380.971a2.1,2.1,0,1,0,0,4.208h7.815a8.946,8.946,0,0,0,8.817,6.914,9.044,9.044,0,0,0,9.018-9.018Zm-13.426,2.1h8.817a5.046,5.046,0,0,1-4.409,2.805A4.76,4.76,0,0,1,393.2,296.139Zm0,0" transform="translate(-157.008 -179.206)" fill="#8b481b"></path>
      <path id="路径_41" d="M526.739,139.357c5.711,1.6,9.519,5.511,8.617,8.617-.9,3.206-6.212,4.409-11.923,2.805s-9.519-5.511-8.617-8.617S521.028,137.754,526.739,139.357Zm0,0" transform="translate(-271.615 -49.879)" fill="#fceb88"></path>
    </g>
    <g id="组_12" transform="translate(525.383 -0.186)">
      <path id="路径_21" d="M96.148,23.745A52.4,52.4,0,0,0,74.191,4.78a2.045,2.045,0,1,0-1.712,3.715,48.248,48.248,0,1,1-20.163-4.4,2.045,2.045,0,0,0,0-4.09A52.3,52.3,0,1,0,96.148,23.745Z" transform="translate(200.616 51.063)" fill="#683c1e"></path>
      <path id="路径_22" d="M631.52,22.061m-2.045,0a2.045,2.045,0,1,0,2.045-2.045A2.045,2.045,0,0,0,629.475,22.061Z" transform="translate(-365.093 32.759)" fill="#683c1e"></path>
    </g>
  </g>
</svg>
