<?xml version="1.0" encoding="UTF-8"?>
<svg xmlns="http://www.w3.org/2000/svg" width="104.63" height="104.63" viewBox="0 0 104.63 104.63">
  <g id="坏笑" transform="translate(-1200.805 -231.651)">
    <g id="组_48" transform="translate(973.998 152.689)">
      <path id="路径_124" d="M330.2,131.9a51.7,51.7,0,1,1-51.7-51.7,51.652,51.652,0,0,1,51.7,51.7Zm0,0" fill="#fddf6d"></path>
      <path id="路径_125" d="M290.193,206.242a51.679,51.679,0,0,1-34.565-90.112,51.682,51.682,0,1,0,58.081,84.436,51.3,51.3,0,0,1-23.516,5.676Zm0,0" transform="translate(-0.541 -30.253)" fill="#fcc56b"></path>
      <path id="路径_126" d="M472.6,343.258a6.994,6.994,0,0,0,13.988,0H462.87m-26.152,0a6.994,6.994,0,0,0,13.988,0H426.987" transform="translate(-168.555 -221.498)" fill="#fff"></path>
      <path id="路径_127" d="M376.237,428.22a7.008,7.008,0,0,0-6.994,6.994H383.13A6.858,6.858,0,0,0,376.237,428.22Zm0,0,60.616-.912a7.008,7.008,0,0,0-6.994,6.994h13.887A6.859,6.859,0,0,0,436.853,427.308Zm0,0" transform="translate(-119.934 -292.269)" fill="#f9a880"></path>
      <path id="路径_128" d="M498.036,329.784H477.56a2.129,2.129,0,1,0,0,4.257h4.561a9.15,9.15,0,0,0,18.043-2.129A2.21,2.21,0,0,0,498.036,329.784Zm-7.1,6.994a4.924,4.924,0,0,1-4.46-2.838h8.92A4.713,4.713,0,0,1,490.94,336.778Zm0,0-26.76-4.865a2.141,2.141,0,0,0-2.129-2.129H442.59a2.129,2.129,0,0,0,0,4.257h3.548a9.15,9.15,0,0,0,18.043-2.129ZM450.6,334.041h8.92a5.1,5.1,0,0,1-4.46,2.838,5.3,5.3,0,0,1-4.46-2.838Zm0,0,19.859,34.238H455.575a2.129,2.129,0,1,1,0-4.257h14.881c6.381-.525,10.59-3.047,14.645-7a2.079,2.079,0,0,1,2.94,2.94c-4.764,4.865-10.793,8.318-17.585,8.318Zm0,0" transform="translate(-179.9 -210.153)" fill="#8b481b"></path>
      <path id="路径_129" d="M573.074,140.007c5.778,1.622,9.63,5.575,8.717,8.717-.912,3.244-6.284,4.46-12.062,2.838s-9.63-5.575-8.717-8.717C562.026,139.7,567.4,138.385,573.074,140.007Zm0,0" transform="translate(-281.293 -49.771)" fill="#fceb88"></path>
    </g>
    <g id="组_49" transform="translate(1200.805 231.651)">
      <path id="路径_11" d="M96.148,23.745A52.4,52.4,0,0,0,74.191,4.78a2.045,2.045,0,1,0-1.712,3.715,48.248,48.248,0,1,1-20.163-4.4,2.045,2.045,0,0,0,0-4.09A52.3,52.3,0,1,0,96.148,23.745Z" transform="translate(-0.001)" fill="#683c1e"></path>
      <path id="路径_13" d="M631.52,22.061m-2.045,0a2.045,2.045,0,1,0,2.045-2.045A2.045,2.045,0,0,0,629.475,22.061Z" transform="translate(-565.156 -17.971)" fill="#683c1e"></path>
    </g>
  </g>
</svg>
