<?xml version="1.0" encoding="UTF-8"?>
<svg xmlns="http://www.w3.org/2000/svg" width="104.63" height="104.63" viewBox="0 0 104.63 104.63">
  <g id="大哭" transform="translate(-372.734 -418.102)">
    <g id="组_60" transform="translate(135.02 327.192)">
      <path id="路径_160" d="M339.383,143.225a50.834,50.834,0,1,1-50.834-50.834A50.792,50.792,0,0,1,339.383,143.225Zm0,0" fill="#fddf6d"></path>
      <path id="路径_161" d="M299.413,216.932a50.818,50.818,0,0,1-33.989-88.611,50.821,50.821,0,1,0,57.114,83.029,49.84,49.84,0,0,1-23.125,5.582Zm0,0" transform="translate(0 -30.348)" fill="#fcc56b"></path>
      <path id="路径_162" d="M468.967,357.352a10.466,10.466,0,0,0-7.974,4.685v53.127a51.207,51.207,0,0,0,16.147,2.592h.6V362.136a10,10,0,0,0-8.771-4.784Zm0,0,35.285,0a10.466,10.466,0,0,0-7.974,4.685v52.03A50.759,50.759,0,0,0,513.123,402.9V362.136a10.286,10.286,0,0,0-8.871-4.784Zm0,0" transform="translate(-188.592 -223.795)" fill="#3fa9f5"></path>
      <path id="路径_163" d="M486.507,354.665a2.1,2.1,0,0,1-1.794-1.1,10.689,10.689,0,0,0-9.27-5.482,10.97,10.97,0,0,0-9.369,5.482,2.034,2.034,0,1,1-3.489-2.093,15.281,15.281,0,0,1,12.958-7.575,14.637,14.637,0,0,1,12.858,7.575,1.994,1.994,0,0,1-.8,2.791A1.856,1.856,0,0,1,486.507,354.665Zm0,0-35.983,0a2.1,2.1,0,0,1-1.794-1.1,10.689,10.689,0,0,0-9.27-5.482,10.97,10.97,0,0,0-9.369,5.482,2.034,2.034,0,1,1-3.489-2.093A15.281,15.281,0,0,1,439.56,343.9a14.637,14.637,0,0,1,12.858,7.575,1.994,1.994,0,0,1-.8,2.791A1.661,1.661,0,0,1,450.525,354.665Zm0,0,16.446,24.819a9.27,9.27,0,1,1-9.27-9.27A9.316,9.316,0,0,1,466.971,379.484Zm0,0" transform="translate(-159.285 -212.436)" fill="#8b481b"></path>
      <path id="路径_164" d="M569.663,145.77c5.681,1.595,9.469,5.482,8.572,8.572-.9,3.19-6.18,4.386-11.861,2.791s-9.469-5.482-8.572-8.572S563.982,144.175,569.663,145.77Zm0,0" transform="translate(-270.25 -44.508)" fill="#fceb88"></path>
    </g>
    <g id="组_61" transform="translate(372.734 418.102)">
      <path id="路径_11" d="M96.148,23.745A52.4,52.4,0,0,0,74.191,4.78a2.045,2.045,0,1,0-1.712,3.715,48.248,48.248,0,1,1-20.163-4.4,2.045,2.045,0,0,0,0-4.09A52.3,52.3,0,1,0,96.148,23.745Z" transform="translate(-0.001)" fill="#683c1e"></path>
      <path id="路径_13" d="M631.52,22.061m-2.045,0a2.045,2.045,0,1,0,2.045-2.045A2.045,2.045,0,0,0,629.475,22.061Z" transform="translate(-565.156 -17.971)" fill="#683c1e"></path>
    </g>
  </g>
</svg>
