<?xml version="1.0" encoding="UTF-8"?>
<svg xmlns="http://www.w3.org/2000/svg" width="104.63" height="104.63" viewBox="0 0 104.63 104.63">
  <g id="大笑" transform="translate(-1205.141 -50.315)">
    <g id="组_21" transform="translate(1016.189 -37.179)">
      <path id="路径_57" d="M291.2,140.307a51.124,51.124,0,1,1-51.124-51.124A51.132,51.132,0,0,1,291.2,140.307Zm0,0" transform="translate(0)" fill="#fddf6d"></path>
      <path id="路径_58" d="M251.688,213.536a51.093,51.093,0,0,1-34.217-89.065,51.1,51.1,0,0,0,23.248,96.613A50.463,50.463,0,0,0,274.835,208a50.991,50.991,0,0,1-23.147,5.535Zm0,0" transform="translate(-0.541 -29.753)" fill="#fcc56b"></path>
      <path id="路径_59" d="M416.683,267.17a2.126,2.126,0,0,1-2.113-2.113,4.831,4.831,0,1,0-9.661,0,2.113,2.113,0,1,1-4.227,0,9.057,9.057,0,0,1,18.115,0A2.194,2.194,0,0,1,416.683,267.17Zm0,0,35.123,0a2.126,2.126,0,0,1-2.113-2.113,4.832,4.832,0,0,0-4.831-4.831,4.987,4.987,0,0,0-4.931,4.831,2.113,2.113,0,0,1-4.227,0,9.057,9.057,0,0,1,18.115,0,2.043,2.043,0,0,1-2.013,2.113Zm0,0" transform="translate(-178.519 -140.651)" fill="#8b481b"></path>
      <path id="路径_60" d="M419.111,508.614a26.758,26.758,0,0,1-26.77-26.77H445.78A26.737,26.737,0,0,1,419.111,508.614Zm0,0" transform="translate(-171.487 -331.07)" fill="#fff"></path>
      <path id="路径_61" d="M409.023,556.271a21.544,21.544,0,0,0,2.516,4.126h43.275a34.774,34.774,0,0,0,2.516-4.126H409.023Zm0,0" transform="translate(-185.552 -393.823)" fill="#e6e6e6"></path>
      <path id="路径_62" d="M338.873,394.586a6.85,6.85,0,0,0-6.843,6.843h13.687A6.916,6.916,0,0,0,338.873,394.586Zm0,0,59.88,0a6.85,6.85,0,0,0-6.843,6.843H405.6A6.85,6.85,0,0,0,398.753,394.586Zm0,0" transform="translate(-120.635 -257.499)" fill="#f9a880"></path>
      <path id="路径_63" d="M508.1,142.164c5.636,1.61,9.561,5.434,8.655,8.655-.906,3.12-6.239,4.428-11.875,2.818s-9.561-5.434-8.655-8.655C497.129,141.862,502.463,140.654,508.1,142.164Zm0,0" transform="translate(-258.965 -44.125)" fill="#fceb88"></path>
    </g>
    <g id="组_22" transform="translate(1004.524 -0.748)">
      <path id="路径_21" d="M96.148,23.745A52.4,52.4,0,0,0,74.191,4.78a2.045,2.045,0,1,0-1.712,3.715,48.248,48.248,0,1,1-20.163-4.4,2.045,2.045,0,0,0,0-4.09A52.3,52.3,0,1,0,96.148,23.745Z" transform="translate(200.616 51.063)" fill="#683c1e"></path>
      <path id="路径_22" d="M631.52,22.061m-2.045,0a2.045,2.045,0,1,0,2.045-2.045A2.045,2.045,0,0,0,629.475,22.061Z" transform="translate(-365.093 32.759)" fill="#683c1e"></path>
    </g>
  </g>
</svg>
