<?xml version="1.0" encoding="UTF-8"?>
<svg xmlns="http://www.w3.org/2000/svg" width="104.63" height="104.63" viewBox="0 0 104.63 104.63">
  <g id="失望" transform="translate(-1723.049 -49.622)">
    <g id="组_28" transform="translate(1503.403 -32.688)">
      <path id="路径_79" d="M320.965,133.7a49,49,0,1,1-49-49A48.963,48.963,0,0,1,320.965,133.7Zm0,0" transform="translate(0 0)" fill="#fddf6d"></path>
      <path id="路径_80" d="M283.077,206.043a48.989,48.989,0,0,1-32.766-85.421,48.991,48.991,0,1,0,55.058,80.04,48.63,48.63,0,0,1-22.292,5.381Zm0,0" transform="translate(-0.546 -30.549)" fill="#fcc56b"></path>
      <path id="路径_81" d="M465.85,276.714a5.957,5.957,0,1,1-5.957-5.957A5.987,5.987,0,0,1,465.85,276.714Zm0,0,33.63,0a5.957,5.957,0,1,1-5.957-5.957A5.987,5.987,0,0,1,499.48,276.714Zm0,0" transform="translate(-196.387 -158.2)" fill="#8b481b"></path>
      <path id="路径_82" d="M372.023,386.469a6.643,6.643,0,0,0-6.63,6.63h13.164a6.5,6.5,0,0,0-6.534-6.63Zm0,0,57.46-.865a6.643,6.643,0,0,0-6.63,6.63h13.164a6.5,6.5,0,0,0-6.534-6.63Zm0,0" transform="translate(-121.105 -255.847)" fill="#f9a880"></path>
      <path id="路径_83" d="M549.677,530.815a2.024,2.024,0,0,1-1.73-1.057,10.517,10.517,0,0,0-9.224-5.477,11.024,11.024,0,0,0-9.32,5.477,1.961,1.961,0,0,1-3.363-2.018,15.084,15.084,0,0,1,12.78-7.4,14.437,14.437,0,0,1,12.683,7.495,1.923,1.923,0,0,1-.769,2.69A2.505,2.505,0,0,1,549.677,530.815Zm0,0" transform="translate(-257.442 -370.406)" fill="#8b481b"></path>
      <path id="路径_84" d="M529.356,145.1c5.477,1.537,9.128,5.285,8.263,8.263-.769,3.075-5.861,4.228-11.338,2.69s-9.128-5.285-8.263-8.263S523.975,143.566,529.356,145.1Zm0,0" transform="translate(-250.765 -50.803)" fill="#fceb88"></path>
    </g>
    <g id="组_29" transform="translate(1522.432 -1.441)">
      <path id="路径_21" d="M96.148,23.745A52.4,52.4,0,0,0,74.191,4.78a2.045,2.045,0,1,0-1.712,3.715,48.248,48.248,0,1,1-20.163-4.4,2.045,2.045,0,0,0,0-4.09A52.3,52.3,0,1,0,96.148,23.745Z" transform="translate(200.616 51.063)" fill="#683c1e"></path>
      <path id="路径_22" d="M631.52,22.061m-2.045,0a2.045,2.045,0,1,0,2.045-2.045A2.045,2.045,0,0,0,629.475,22.061Z" transform="translate(-365.093 32.759)" fill="#683c1e"></path>
    </g>
  </g>
</svg>
