<?xml version="1.0" encoding="UTF-8"?>
<svg xmlns="http://www.w3.org/2000/svg" width="104.63" height="104.63" viewBox="0 0 104.63 104.63">
  <g id="微笑" transform="translate(-882.858 -50.315)">
    <g id="组_16" transform="translate(648.993 -32.815)">
      <path id="路径_42" d="M335.372,135.445a50.753,50.753,0,1,1-50.753-50.753A50.711,50.711,0,0,1,335.372,135.445Zm0,0" transform="translate(0)" fill="#fddf6d"></path>
      <path id="路径_43" d="M295.466,208.45a50.737,50.737,0,0,1-33.935-88.47,50.783,50.783,0,1,0,57.023,83A50.946,50.946,0,0,1,295.466,208.45Zm0,0" transform="translate(0 -29.815)" fill="#fcc56b"></path>
      <path id="路径_44" d="M477.182,276.927a6.17,6.17,0,1,1-6.17-6.17A6.137,6.137,0,0,1,477.182,276.927Zm0,0,34.831,0a6.17,6.17,0,1,1-6.17-6.17A6.137,6.137,0,0,1,512.013,276.927Zm0,0" transform="translate(-195.151 -157.205)" fill="#8b481b"></path>
      <path id="路径_45" d="M383.167,386.5a6.88,6.88,0,0,0-6.867,6.867h13.634a6.8,6.8,0,0,0-6.767-6.867Zm0,0,59.511-.9a6.88,6.88,0,0,0-6.867,6.867h13.634A6.733,6.733,0,0,0,442.678,385.6Zm0,0" transform="translate(-120.343 -254.239)" fill="#f9a880"></path>
      <path id="路径_46" d="M548.951,531.287a15.07,15.07,0,0,1-13.136-7.762,2.049,2.049,0,1,1,3.583-1.99,10.892,10.892,0,0,0,9.554,5.672,11.417,11.417,0,0,0,9.653-5.672,2.031,2.031,0,1,1,3.483,2.09A15.3,15.3,0,0,1,548.951,531.287Zm0,0" transform="translate(-254.879 -368.176)" fill="#8b481b"></path>
      <path id="路径_47" d="M557.454,134.861c5.672,1.592,9.454,5.473,8.558,8.558-.9,3.185-6.17,4.379-11.842,2.786s-9.454-5.473-8.558-8.558S551.781,133.269,557.454,134.861Zm0,0" transform="translate(-263.282 -41.81)" fill="#fceb88"></path>
    </g>
    <g id="组_17" transform="translate(682.241 -0.748)">
      <path id="路径_21" d="M96.148,23.745A52.4,52.4,0,0,0,74.191,4.78a2.045,2.045,0,1,0-1.712,3.715,48.248,48.248,0,1,1-20.163-4.4,2.045,2.045,0,0,0,0-4.09A52.3,52.3,0,1,0,96.148,23.745Z" transform="translate(200.616 51.063)" fill="#683c1e"></path>
      <path id="路径_22" d="M631.52,22.061m-2.045,0a2.045,2.045,0,1,0,2.045-2.045A2.045,2.045,0,0,0,629.475,22.061Z" transform="translate(-365.093 32.759)" fill="#683c1e"></path>
    </g>
  </g>
</svg>
