<?xml version="1.0" encoding="UTF-8"?>
<svg xmlns="http://www.w3.org/2000/svg" width="104.63" height="104.63" viewBox="0 0 104.63 104.63">
  <g id="思考" transform="translate(-1200.685 -418.468)">
    <g id="组_70" transform="translate(1197.941 417.464)">
      <path id="路径_187" d="M71.082,71.082m-51.068,0A51.068,51.068,0,1,0,71.082,20.014,51.068,51.068,0,0,0,20.014,71.082Z" transform="translate(-17.15 -17.15)" fill="#fddf6d"></path>
      <path id="路径_188" d="M82.026,162.712a51.066,51.066,0,0,1-34.16-89.025,51.072,51.072,0,1,0,57.376,83.455A50.851,50.851,0,0,1,82.026,162.712Z" transform="translate(-17.15 -65.251)" fill="#fcc56b"></path>
      <path id="路径_189" d="M298.41,231.8m-14.814,0a14.814,14.814,0,1,0,14.814-14.814A14.814,14.814,0,0,0,283.6,231.8Z" transform="translate(-253.372 -193.676)" fill="#fff"></path>
      <path id="路径_190" d="M698.65,231.8m-14.814,0a14.814,14.814,0,1,0,14.814-14.814A14.814,14.814,0,0,0,683.836,231.8Z" transform="translate(-612.068 -193.676)" fill="#fff"></path>
      <path id="路径_191" d="M241.287,548.618a6.867,6.867,0,0,0-6.867,6.867h13.734A6.867,6.867,0,0,0,241.287,548.618Zm59.9-.92a6.867,6.867,0,0,0-6.867,6.867h13.734A6.867,6.867,0,0,0,301.185,547.7Z" transform="translate(-209.301 -490.061)" fill="#f9a880"></path>
      <path id="路径_192" d="M354.651,249.215m-4.155,0a4.155,4.155,0,1,0,4.155-4.155A4.155,4.155,0,0,0,350.5,249.215Z" transform="translate(-313.328 -218.836)" fill="#8b481b"></path>
      <path id="路径_193" d="M760.737,246.439m-4.155,0a4.155,4.155,0,1,0,4.155-4.155A4.155,4.155,0,0,0,756.582,246.439Z" transform="translate(-677.263 -216.348)" fill="#8b481b"></path>
      <path id="路径_194" d="M535.466,728.244a2.078,2.078,0,0,1-1.78-3.146A15.708,15.708,0,0,1,547,717.354a15.169,15.169,0,0,1,4.742.756,2.077,2.077,0,1,1-1.3,3.947,11.028,11.028,0,0,0-3.445-.548,11.533,11.533,0,0,0-9.748,5.726A2.078,2.078,0,0,1,535.466,728.244Z" transform="translate(-477.238 -642.106)" fill="#8b481b"></path>
    </g>
    <g id="组_71" transform="translate(1200.685 418.468)">
      <path id="路径_11" d="M96.148,23.745A52.4,52.4,0,0,0,74.191,4.78a2.045,2.045,0,1,0-1.712,3.715,48.248,48.248,0,1,1-20.163-4.4,2.045,2.045,0,0,0,0-4.09A52.3,52.3,0,1,0,96.148,23.745Z" transform="translate(-0.001)" fill="#683c1e"></path>
      <path id="路径_13" d="M631.52,22.061m-2.045,0a2.045,2.045,0,1,0,2.045-2.045A2.045,2.045,0,0,0,629.475,22.061Z" transform="translate(-565.156 -17.971)" fill="#683c1e"></path>
    </g>
  </g>
</svg>
