<?xml version="1.0" encoding="UTF-8"?>
<svg xmlns="http://www.w3.org/2000/svg" width="104.63" height="104.63" viewBox="0 0 104.63 104.63">
  <g id="急眼" transform="translate(-367.723 -236.102)">
    <g id="组_34" transform="translate(144.52 152.088)">
      <path id="路径_94" d="M324.873,135.328A49.353,49.353,0,1,1,275.52,85.975,49.312,49.312,0,0,1,324.873,135.328Zm0,0" transform="translate(-0.001)" fill="#fddf6d"></path>
      <path id="路径_95" d="M286.067,207.935a49.338,49.338,0,0,1-33-86.03,49.341,49.341,0,1,0,55.45,80.611,48.387,48.387,0,0,1-22.451,5.419Zm0,0" transform="translate(0 -30.511)" fill="#fcc56b"></path>
      <path id="路径_96" d="M400.3,436.932a6.691,6.691,0,0,0-6.677,6.677h13.258A6.608,6.608,0,0,0,400.3,436.932Zm0,0,54.1,0a6.691,6.691,0,0,0-6.677,6.677h13.258A6.548,6.548,0,0,0,454.4,436.932Zm0,0" transform="translate(-142.202 -298.023)" fill="#f9a880"></path>
      <path id="路径_97" d="M456,309.1a2.052,2.052,0,0,1-1.839-1.161,1.887,1.887,0,0,1,1.064-2.613l8.226-3.58-8.226-3.677a2,2,0,1,1,1.548-3.677L469.16,299.9a1.9,1.9,0,0,1,1.161,1.839,2.052,2.052,0,0,1-1.161,1.839L456.773,308.9a1.823,1.823,0,0,1-.774.194Zm0,0" transform="translate(-193.447 -176.863)" fill="#8b481b"></path>
      <path id="路径_98" d="M537.89,533.125H515.826a7.355,7.355,0,1,1,0-14.709H537.89a7.355,7.355,0,1,1,0,14.709Zm0,0" transform="translate(-239.727 -367.217)" fill="#fff"></path>
      <path id="路径_99" d="M508.471,555.736a7.365,7.365,0,0,0,.29,2.032h36.193a7.257,7.257,0,0,0,0-4.064H508.761a6.433,6.433,0,0,0-.29,2.032Zm0,0" transform="translate(-239.727 -397.183)" fill="#e6e6e6"></path>
      <path id="路径_100" d="M558.407,142.442c5.516,1.548,9.193,5.322,8.322,8.322-.871,3.1-6,4.258-11.516,2.71s-9.193-5.322-8.322-8.322C547.762,142.054,552.987,140.893,558.407,142.442Zm0,0" transform="translate(-272.243 -47.37)" fill="#fceb88"></path>
      <path id="路径_101" d="M715.188,307.082a1.9,1.9,0,0,1-1.839,1.161,1.822,1.822,0,0,1-.774-.194l-12.387-5.419a1.9,1.9,0,0,1-1.161-1.839,2.052,2.052,0,0,1,1.161-1.839l12.387-5.516a1.995,1.995,0,0,1,1.548,3.677l-8.226,3.677,8.226,3.581A2.1,2.1,0,0,1,715.188,307.082Zm0,0" transform="translate(-401.542 -176.012)" fill="#8b481b"></path>
    </g>
    <g id="组_38" transform="translate(367.723 236.102)">
      <path id="路径_11" d="M96.148,23.745A52.4,52.4,0,0,0,74.191,4.78a2.045,2.045,0,1,0-1.712,3.715,48.248,48.248,0,1,1-20.163-4.4,2.045,2.045,0,0,0,0-4.09A52.3,52.3,0,1,0,96.148,23.745Z" transform="translate(-0.001)" fill="#683c1e"></path>
      <path id="路径_13" d="M631.52,22.061m-2.045,0a2.045,2.045,0,1,0,2.045-2.045A2.045,2.045,0,0,0,629.475,22.061Z" transform="translate(-565.156 -17.971)" fill="#683c1e"></path>
    </g>
  </g>
</svg>
