<?xml version="1.0" encoding="UTF-8"?>
<svg xmlns="http://www.w3.org/2000/svg" width="104.63" height="104.63" viewBox="0 0 104.63 104.63">
  <g id="惊吓" transform="translate(-736 -417.861)">
    <g id="组_64" transform="translate(547.689 335.052)">
      <path id="路径_171" d="M290.461,135.125A51.075,51.075,0,1,1,239.386,84.05a51.032,51.032,0,0,1,51.075,51.075Zm0,0" transform="translate(0)" fill="#cce7a0"></path>
      <path id="路径_172" d="M250.3,209.01a51.059,51.059,0,0,1-34.15-89.03A51.061,51.061,0,1,0,273.536,203.4,51.653,51.653,0,0,1,250.3,209.01Zm0,0" transform="translate(0 -30.322)" fill="#aed893"></path>
      <path id="路径_173" d="M545.9,491.578a11.016,11.016,0,1,1-11.016-11.016A11.114,11.114,0,0,1,545.9,491.578Zm0,0" transform="translate(-283.182 -334.621)" fill="#8b481b"></path>
      <path id="路径_174" d="M423.316,308.777a2.208,2.208,0,0,1-1.5-.6,2.055,2.055,0,0,1,0-2.9l10.816-10.816a2.054,2.054,0,0,1,2.9,2.9l-10.716,10.816a2.208,2.208,0,0,1-1.5.6Zm0,0" transform="translate(-196.549 -177.057)" fill="#639657"></path>
      <path id="路径_175" d="M434.132,308.777a2.208,2.208,0,0,1-1.5-.6L421.814,297.36a2.054,2.054,0,1,1,2.9-2.9l10.816,10.816a2.055,2.055,0,0,1,0,2.9,1.68,1.68,0,0,1-1.4.6Zm0,0,28.542,0a2.208,2.208,0,0,1-1.5-.6,2.055,2.055,0,0,1,0-2.9l10.816-10.816a2.054,2.054,0,1,1,2.9,2.9l-10.816,10.816a1.977,1.977,0,0,1-1.4.6Zm0,0" transform="translate(-196.549 -177.057)" fill="#639657"></path>
      <path id="路径_176" d="M686.282,308.777a2.208,2.208,0,0,1-1.5-.6L673.964,297.36a2.054,2.054,0,1,1,2.9-2.9l10.816,10.816a2.055,2.055,0,0,1,0,2.9,1.818,1.818,0,0,1-1.4.6Zm0,0" transform="translate(-409.342 -177.057)" fill="#639657"></path>
      <path id="路径_177" d="M515.825,141.182c5.708,1.6,9.514,5.508,8.613,8.613-.9,3.2-6.209,4.406-11.917,2.8s-9.514-5.508-8.613-8.613C504.809,140.782,510.116,139.58,515.825,141.182Zm0,0" transform="translate(-266.224 -47.618)" fill="#e6f9bd"></path>
    </g>
    <g id="组_65" transform="translate(736 417.861)">
      <path id="路径_11" d="M96.148,23.745A52.4,52.4,0,0,0,74.191,4.78a2.045,2.045,0,1,0-1.712,3.715,48.248,48.248,0,1,1-20.163-4.4,2.045,2.045,0,0,0,0-4.09A52.3,52.3,0,1,0,96.148,23.745Z" transform="translate(-0.001)" fill="#683c1e"></path>
      <path id="路径_13" d="M631.52,22.061m-2.045,0a2.045,2.045,0,1,0,2.045-2.045A2.045,2.045,0,0,0,629.475,22.061Z" transform="translate(-565.156 -17.971)" fill="#683c1e"></path>
    </g>
  </g>
</svg>
