<?xml version="1.0" encoding="UTF-8"?>
<svg xmlns="http://www.w3.org/2000/svg" width="104.63" height="104.63" viewBox="0 0 104.63 104.63">
  <g id="惊讶" transform="translate(-1369.923 -49.622)">
    <g id="组_23" transform="translate(1140.549 -29.953)">
      <path id="路径_64" d="M330.854,132.224a50.74,50.74,0,1,1-50.74-50.74A50.7,50.7,0,0,1,330.854,132.224Zm0,0" transform="translate(0)" fill="#fddf6d"></path>
      <path id="路径_65" d="M291.6,205.86a50.724,50.724,0,0,1-33.926-88.447,50.727,50.727,0,1,0,57.008,82.875A50.352,50.352,0,0,1,291.6,205.86Zm0,0" transform="translate(-0.542 -30.358)" fill="#fcc56b"></path>
      <path id="路径_66" d="M446.613,227.637a14.625,14.625,0,1,1-14.625-14.625A14.649,14.649,0,0,1,446.613,227.637Zm0,0,29.947,0a9.153,9.153,0,1,1-9.153-9.153A9.129,9.129,0,0,1,476.56,227.637Zm0,0" transform="translate(-158.838 -111.133)" fill="#fff"></path>
      <path id="路径_67" d="M540.013,322.51a6.865,6.865,0,1,1-6.865-6.865A6.879,6.879,0,0,1,540.013,322.51Zm0,0M522.4,285.1a4.079,4.079,0,0,1-8.158,0,4.164,4.164,0,0,1,4.079-4.079A4.1,4.1,0,0,1,522.4,285.1Zm0,0,32.334,0a4.079,4.079,0,0,1-8.158,0,4.164,4.164,0,0,1,4.079-4.079A4.035,4.035,0,0,1,554.738,285.1Zm0,0" transform="translate(-240.698 -168.597)" fill="#8b481b"></path>
      <path id="路径_68" d="M577.982,141.278c5.671,1.592,9.452,5.472,8.556,8.556-.9,3.184-6.168,4.378-11.839,2.786s-9.452-5.472-8.556-8.556S572.41,139.686,577.982,141.278Zm0,0" transform="translate(-284.437 -49.944)" fill="#fceb88"></path>
    </g>
    <g id="组_24" transform="translate(1169.306 -1.441)">
      <path id="路径_21" d="M96.148,23.745A52.4,52.4,0,0,0,74.191,4.78a2.045,2.045,0,1,0-1.712,3.715,48.248,48.248,0,1,1-20.163-4.4,2.045,2.045,0,0,0,0-4.09A52.3,52.3,0,1,0,96.148,23.745Z" transform="translate(200.616 51.063)" fill="#683c1e"></path>
      <path id="路径_22" d="M631.52,22.061m-2.045,0a2.045,2.045,0,1,0,2.045-2.045A2.045,2.045,0,0,0,629.475,22.061Z" transform="translate(-365.093 32.759)" fill="#683c1e"></path>
    </g>
  </g>
</svg>
