<?xml version="1.0" encoding="UTF-8"?>
<svg xmlns="http://www.w3.org/2000/svg" width="125.189" height="104.761" viewBox="0 0 125.189 104.761">
  <g id="感冒" transform="translate(-189.593 -132.812)">
    <path id="路径_69" d="M295,185.193a52.38,52.38,0,1,1-52.38-52.381A52.353,52.353,0,0,1,295,185.193Zm0,0" transform="translate(-0.52)" fill="#fddf6d"></path>
    <path id="路径_70" d="M253.26,254.235a52.375,52.375,0,0,1-35.084-91.267,52.351,52.351,0,0,0,23.8,99,51.868,51.868,0,0,0,35.084-13.494,51.664,51.664,0,0,1-23.8,5.766Zm0,0" transform="translate(0 -24.39)" fill="#fcc56b"></path>
    <path id="路径_71" d="M395.475,348.353a6.379,6.379,0,1,1-6.379-6.379A6.335,6.335,0,0,1,395.475,348.353Zm0,0,36.065,0a6.379,6.379,0,1,1-6.379-6.379A6.335,6.335,0,0,1,431.54,348.353Zm0,0" transform="translate(-156.2 -169.172)" fill="#8b481b"></path>
    <path id="路径_72" d="M349.288,427.705A6.989,6.989,0,0,0,342.3,434.7H356.4A7.175,7.175,0,0,0,349.288,427.705Zm0,0,55.2-8.1A6.989,6.989,0,0,0,397.5,426.6H411.6A7.094,7.094,0,0,0,404.49,419.609Zm0,0" transform="translate(-123.506 -231.963)" fill="#f9a880"></path>
    <g id="组_27" transform="translate(-11.024 81.879)">
      <path id="路径_21" d="M96.148,23.745A52.4,52.4,0,0,0,74.191,4.78a2.045,2.045,0,1,0-1.712,3.715,48.248,48.248,0,1,1-20.163-4.4,2.045,2.045,0,0,0,0-4.09A52.3,52.3,0,1,0,96.148,23.745Z" transform="translate(200.616 51.063)" fill="#683c1e"></path>
      <path id="路径_22" d="M631.52,22.061m-2.045,0a2.045,2.045,0,1,0,2.045-2.045A2.045,2.045,0,0,0,629.475,22.061Z" transform="translate(-365.093 32.759)" fill="#683c1e"></path>
    </g>
    <path id="路径_73" d="M591.125,322.316l-2.453,14.966,15.457-2.822,31.036-33.734a8.852,8.852,0,0,0-12.881-12.145Zm0,0" transform="translate(-322.777 -123.752)" fill="#f2f2f2"></path>
    <path id="路径_74" d="M596.333,371.813a2.211,2.211,0,0,1-1.595-3.68l35.084-37.292a2.17,2.17,0,0,1,3.189,2.944l-35.084,37.292a1.978,1.978,0,0,1-1.595.736Zm0,0" transform="translate(-327.249 -159.633)" fill="#fc4c59"></path>
    <path id="路径_75" d="M417.079,540.326a2.142,2.142,0,0,1-1.717-.859,2.017,2.017,0,0,1,.368-2.944c4.171-3.312,11.531-5.275,19.137-5.275,7.974,0,15.089,1.963,19.014,5.275a2.089,2.089,0,1,1-2.7,3.189c-3.189-2.7-9.446-4.293-16.315-4.293-6.624,0-13,1.717-16.438,4.416A2.044,2.044,0,0,1,417.079,540.326Zm0,0" transform="translate(-182.22 -322.257)" fill="#8b481b"></path>
    <path id="路径_76" d="M306.931,151.458H231a9.323,9.323,0,0,1,0-18.646h75.933a9.323,9.323,0,0,1,0,18.646Zm0,0" transform="translate(-25.947 0)" fill="#3fa9f5"></path>
    <path id="路径_77" d="M235.168,142.135a9.319,9.319,0,0,1,9.323-9.323H231a9.323,9.323,0,1,0,0,18.646h13.494a9.319,9.319,0,0,1-9.323-9.323Zm0,0" transform="translate(-25.948 0)" fill="#3784f4"></path>
    <path id="路径_78" d="M459.042,257.557c5.766,1.595,9.814,5.643,8.832,8.832-.859,3.189-6.379,4.539-12.145,2.944s-9.814-5.643-8.832-8.832C447.757,257.189,453.277,255.962,459.042,257.557Zm0,0" transform="translate(-207.991 -100.333)" fill="#fceb88"></path>
  </g>
</svg>
