<?xml version="1.0" encoding="UTF-8"?>
<svg xmlns="http://www.w3.org/2000/svg" width="104.63" height="104.63" viewBox="0 0 104.63 104.63">
  <g id="无聊" transform="translate(-47.635 -238.063)">
    <g id="组_32" transform="translate(-1 -46)">
      <g id="组_30" transform="translate(-185.293 200.025)">
        <path id="路径_85" d="M337.842,137.322a51.347,51.347,0,1,1-51.347-51.347,51.3,51.3,0,0,1,51.347,51.347Zm0,0" transform="translate(0 0)" fill="#fddf6d"></path>
        <path id="路径_86" d="M297.469,211.41a51.331,51.331,0,0,1-34.332-89.5,51.333,51.333,0,1,0,57.69,83.867,50.342,50.342,0,0,1-23.358,5.638Zm0,0" transform="translate(0 -30.292)" fill="#fcc56b"></path>
        <path id="路径_87" d="M473.679,400.759H448.71a2.114,2.114,0,1,1,0-4.229h24.969a2.114,2.114,0,1,1,0,4.229Zm0,0-30.607-21.445c-5.034,0-9.665-1.309-12.283-3.524a2.076,2.076,0,0,1,2.618-3.222c1.812,1.51,5.638,2.517,9.565,2.517s7.752-1.007,9.766-2.517a2.084,2.084,0,1,1,2.517,3.322C452.536,378.005,448.005,379.314,443.072,379.314Zm0,0,36.144,0c-5.034,0-9.665-1.309-12.283-3.524a2.076,2.076,0,1,1,2.618-3.222c1.812,1.51,5.638,2.517,9.565,2.517s7.752-1.007,9.766-2.517a2.084,2.084,0,1,1,2.517,3.322C488.781,378.005,484.149,379.314,479.216,379.314Zm0,0M433.1,368.642a6.693,6.693,0,0,1-2.114-.3,2.1,2.1,0,1,1,1.208-4.027,9.1,9.1,0,0,0,5.537-1.007,10.048,10.048,0,0,0,4.43-3.625,2.094,2.094,0,0,1,3.725,1.913,13.538,13.538,0,0,1-6.444,5.437,14.417,14.417,0,0,1-6.343,1.611Zm0,0,55.475,0a14.9,14.9,0,0,1-6.242-1.51,13.539,13.539,0,0,1-6.444-5.437,2.094,2.094,0,0,1,3.725-1.913,10.048,10.048,0,0,0,4.43,3.625,9.1,9.1,0,0,0,5.537,1.007,2.1,2.1,0,1,1,1.208,4.027,15.076,15.076,0,0,1-2.215.2Zm0,0" transform="translate(-163.826 -229.81)" fill="#8b481b"></path>
        <path id="路径_88" d="M564.01,173.907c5.739,1.611,9.565,5.537,8.659,8.658-.906,3.222-6.242,4.43-11.981,2.819s-9.565-5.537-8.659-8.658C553.036,173.5,558.372,172.3,564.01,173.907Zm0,0" transform="translate(-267.044 -73.535)" fill="#fceb88"></path>
      </g>
      <g id="组_31" transform="translate(48.635 284.063)">
        <path id="路径_11" d="M96.148,23.745A52.4,52.4,0,0,0,74.191,4.78a2.045,2.045,0,1,0-1.712,3.715,48.248,48.248,0,1,1-20.163-4.4,2.045,2.045,0,0,0,0-4.09A52.3,52.3,0,1,0,96.148,23.745Z" transform="translate(-0.001)" fill="#683c1e"></path>
        <path id="路径_13" d="M631.52,22.061m-2.045,0a2.045,2.045,0,1,0,2.045-2.045A2.045,2.045,0,0,0,629.475,22.061Z" transform="translate(-565.156 -17.971)" fill="#683c1e"></path>
      </g>
    </g>
    <g id="组_35" transform="translate(-1 -46)">
      <g id="组_30-2" transform="translate(-185.293 200.025)">
        <path id="路径_85-2" d="M337.842,137.322a51.347,51.347,0,1,1-51.347-51.347,51.3,51.3,0,0,1,51.347,51.347Zm0,0" transform="translate(0 0)" fill="#fddf6d"></path>
        <path id="路径_86-2" d="M297.469,211.41a51.331,51.331,0,0,1-34.332-89.5,51.333,51.333,0,1,0,57.69,83.867,50.342,50.342,0,0,1-23.358,5.638Zm0,0" transform="translate(0 -30.292)" fill="#fcc56b"></path>
        <path id="路径_87-2" d="M473.679,400.759H448.71a2.114,2.114,0,1,1,0-4.229h24.969a2.114,2.114,0,1,1,0,4.229Zm0,0-30.607-21.445c-5.034,0-9.665-1.309-12.283-3.524a2.076,2.076,0,0,1,2.618-3.222c1.812,1.51,5.638,2.517,9.565,2.517s7.752-1.007,9.766-2.517a2.084,2.084,0,1,1,2.517,3.322C452.536,378.005,448.005,379.314,443.072,379.314Zm0,0,36.144,0c-5.034,0-9.665-1.309-12.283-3.524a2.076,2.076,0,1,1,2.618-3.222c1.812,1.51,5.638,2.517,9.565,2.517s7.752-1.007,9.766-2.517a2.084,2.084,0,1,1,2.517,3.322C488.781,378.005,484.149,379.314,479.216,379.314Zm0,0M433.1,368.642a6.693,6.693,0,0,1-2.114-.3,2.1,2.1,0,1,1,1.208-4.027,9.1,9.1,0,0,0,5.537-1.007,10.048,10.048,0,0,0,4.43-3.625,2.094,2.094,0,0,1,3.725,1.913,13.538,13.538,0,0,1-6.444,5.437,14.417,14.417,0,0,1-6.343,1.611Zm0,0,55.475,0a14.9,14.9,0,0,1-6.242-1.51,13.539,13.539,0,0,1-6.444-5.437,2.094,2.094,0,0,1,3.725-1.913,10.048,10.048,0,0,0,4.43,3.625,9.1,9.1,0,0,0,5.537,1.007,2.1,2.1,0,1,1,1.208,4.027,15.076,15.076,0,0,1-2.215.2Zm0,0" transform="translate(-163.826 -229.81)" fill="#8b481b"></path>
        <path id="路径_88-2" d="M564.01,173.907c5.739,1.611,9.565,5.537,8.659,8.658-.906,3.222-6.242,4.43-11.981,2.819s-9.565-5.537-8.659-8.658C553.036,173.5,558.372,172.3,564.01,173.907Zm0,0" transform="translate(-267.044 -73.535)" fill="#fceb88"></path>
      </g>
      <g id="组_31-2" transform="translate(48.635 284.063)">
        <path id="路径_11-2" d="M96.148,23.745A52.4,52.4,0,0,0,74.191,4.78a2.045,2.045,0,1,0-1.712,3.715,48.248,48.248,0,1,1-20.163-4.4,2.045,2.045,0,0,0,0-4.09A52.3,52.3,0,1,0,96.148,23.745Z" transform="translate(-0.001)" fill="#683c1e"></path>
        <path id="路径_13-2" d="M631.52,22.061m-2.045,0a2.045,2.045,0,1,0,2.045-2.045A2.045,2.045,0,0,0,629.475,22.061Z" transform="translate(-565.156 -17.971)" fill="#683c1e"></path>
      </g>
    </g>
    <g id="组_36" transform="translate(-1 -46)">
      <g id="组_30-3" transform="translate(-185.293 200.025)">
        <path id="路径_85-3" d="M337.842,137.322a51.347,51.347,0,1,1-51.347-51.347,51.3,51.3,0,0,1,51.347,51.347Zm0,0" transform="translate(0 0)" fill="#fddf6d"></path>
        <path id="路径_86-3" d="M297.469,211.41a51.331,51.331,0,0,1-34.332-89.5,51.333,51.333,0,1,0,57.69,83.867,50.342,50.342,0,0,1-23.358,5.638Zm0,0" transform="translate(0 -30.292)" fill="#fcc56b"></path>
        <path id="路径_87-3" d="M473.679,400.759H448.71a2.114,2.114,0,1,1,0-4.229h24.969a2.114,2.114,0,1,1,0,4.229Zm0,0-30.607-21.445c-5.034,0-9.665-1.309-12.283-3.524a2.076,2.076,0,0,1,2.618-3.222c1.812,1.51,5.638,2.517,9.565,2.517s7.752-1.007,9.766-2.517a2.084,2.084,0,1,1,2.517,3.322C452.536,378.005,448.005,379.314,443.072,379.314Zm0,0,36.144,0c-5.034,0-9.665-1.309-12.283-3.524a2.076,2.076,0,1,1,2.618-3.222c1.812,1.51,5.638,2.517,9.565,2.517s7.752-1.007,9.766-2.517a2.084,2.084,0,1,1,2.517,3.322C488.781,378.005,484.149,379.314,479.216,379.314Zm0,0M433.1,368.642a6.693,6.693,0,0,1-2.114-.3,2.1,2.1,0,1,1,1.208-4.027,9.1,9.1,0,0,0,5.537-1.007,10.048,10.048,0,0,0,4.43-3.625,2.094,2.094,0,0,1,3.725,1.913,13.538,13.538,0,0,1-6.444,5.437,14.417,14.417,0,0,1-6.343,1.611Zm0,0,55.475,0a14.9,14.9,0,0,1-6.242-1.51,13.539,13.539,0,0,1-6.444-5.437,2.094,2.094,0,0,1,3.725-1.913,10.048,10.048,0,0,0,4.43,3.625,9.1,9.1,0,0,0,5.537,1.007,2.1,2.1,0,1,1,1.208,4.027,15.076,15.076,0,0,1-2.215.2Zm0,0" transform="translate(-163.826 -229.81)" fill="#8b481b"></path>
        <path id="路径_88-3" d="M564.01,173.907c5.739,1.611,9.565,5.537,8.659,8.658-.906,3.222-6.242,4.43-11.981,2.819s-9.565-5.537-8.659-8.658C553.036,173.5,558.372,172.3,564.01,173.907Zm0,0" transform="translate(-267.044 -73.535)" fill="#fceb88"></path>
      </g>
      <g id="组_31-3" transform="translate(48.635 284.063)">
        <path id="路径_11-3" d="M96.148,23.745A52.4,52.4,0,0,0,74.191,4.78a2.045,2.045,0,1,0-1.712,3.715,48.248,48.248,0,1,1-20.163-4.4,2.045,2.045,0,0,0,0-4.09A52.3,52.3,0,1,0,96.148,23.745Z" transform="translate(-0.001)" fill="#683c1e"></path>
        <path id="路径_13-3" d="M631.52,22.061m-2.045,0a2.045,2.045,0,1,0,2.045-2.045A2.045,2.045,0,0,0,629.475,22.061Z" transform="translate(-565.156 -17.971)" fill="#683c1e"></path>
      </g>
    </g>
  </g>
</svg>
