<?xml version="1.0" encoding="UTF-8"?>
<svg xmlns="http://www.w3.org/2000/svg" width="104.63" height="104.63" viewBox="0 0 104.63 104.63">
  <g id="晕" transform="translate(-1045 -231.14)">
    <g id="组_46" transform="translate(818.193 148.84)">
      <path id="路径_120" d="M328.593,134.943A50.893,50.893,0,1,1,277.7,84.05,50.85,50.85,0,0,1,328.593,134.943Zm0,0" fill="#fddf6d"></path>
      <path id="路径_121" d="M289.219,208.052a50.877,50.877,0,0,1-34.028-88.714,50.88,50.88,0,1,0,57.18,83.125,50.5,50.5,0,0,1-23.151,5.588Zm0,0" transform="translate(-0.542 -29.8)" fill="#fcc56b"></path>
      <path id="路径_122" d="M469.754,266.111a9.68,9.68,0,1,1-9.68-9.68A9.689,9.689,0,0,1,469.754,266.111Zm0,0,15.368-17.763c-7.684,0-16.565-5.289-18.361-14.27a18.937,18.937,0,0,1,1.9-12.274,14.649,14.649,0,0,1,9.879-7.883,16.516,16.516,0,0,1,13.073,3.093c3.293,2.495,5.289,5.788,5.488,9.38a14.227,14.227,0,0,1-3.792,10.278,12.338,12.338,0,0,1-8.682,4.291,11.677,11.677,0,0,1-9.181-4.59,11.278,11.278,0,0,1-2.1-8.682,8.68,8.68,0,0,1,2.595-4.79,8.1,8.1,0,0,1,5.289-2c4.59,0,7.983,3.493,8.283,6.686,0,.4.3,3.692-2.3,5.389a4.942,4.942,0,0,1-5.688,0,4.7,4.7,0,0,1-1.8-4.79,2.075,2.075,0,0,1,4.091.7.776.776,0,0,0,.2.8c.2.2.7,0,.9-.1.5-.3.5-1.3.5-1.5-.1-1.5-2.3-2.994-4.191-2.994a4.385,4.385,0,0,0-2.595.9,4.307,4.307,0,0,0-1.3,2.495,7.254,7.254,0,0,0,7.185,8.183,8.3,8.3,0,0,0,5.688-2.894,10.414,10.414,0,0,0,2.794-7.185,9.044,9.044,0,0,0-3.892-6.387,12.829,12.829,0,0,0-9.68-2.395,10.539,10.539,0,0,0-7.085,5.688,15.307,15.307,0,0,0-1.5,9.58,13.177,13.177,0,0,0,5.688,8.283,15.528,15.528,0,0,0,9.38,2.694,2.051,2.051,0,0,1,.3,4.091A2.149,2.149,0,0,1,485.122,248.348Zm0,0-38.319,0c-7.684,0-16.565-5.289-18.361-14.27a18.937,18.937,0,0,1,1.9-12.274,14.649,14.649,0,0,1,9.879-7.883,16.516,16.516,0,0,1,13.073,3.093c3.293,2.495,5.289,5.788,5.488,9.38a14.227,14.227,0,0,1-3.792,10.278,12.338,12.338,0,0,1-8.682,4.291,11.39,11.39,0,0,1-11.276-13.272,8.68,8.68,0,0,1,2.595-4.79,8.1,8.1,0,0,1,5.289-2c4.59,0,7.983,3.493,8.283,6.686,0,.4.3,3.692-2.3,5.389a4.942,4.942,0,0,1-5.688,0,4.7,4.7,0,0,1-1.8-4.79,2.075,2.075,0,0,1,4.091.7.776.776,0,0,0,.2.8c.2.2.7,0,.9-.1.5-.3.5-1.3.5-1.5-.1-1.5-2.3-2.994-4.191-2.994a4.385,4.385,0,0,0-2.595.9,4.307,4.307,0,0,0-1.3,2.495,7.254,7.254,0,0,0,7.185,8.183,8.3,8.3,0,0,0,5.688-2.894,10.415,10.415,0,0,0,2.794-7.185,9.055,9.055,0,0,0-3.892-6.287,12.829,12.829,0,0,0-9.68-2.395,10.539,10.539,0,0,0-7.085,5.688,15.306,15.306,0,0,0-1.5,9.58,13.177,13.177,0,0,0,5.688,8.283,15.528,15.528,0,0,0,9.38,2.694,2.051,2.051,0,0,1,.3,4.091A3.742,3.742,0,0,1,446.8,248.348Zm0,0" transform="translate(-172 -109.413)" fill="#8b481b"></path>
      <path id="路径_123" d="M565.085,138.613c5.688,1.6,9.48,5.488,8.582,8.582-.9,3.193-6.187,4.391-11.875,2.794-5.588-1.6-9.38-5.389-8.482-8.582S559.5,137.016,565.085,138.613Zm0,0" transform="translate(-275.61 -45.482)" fill="#fceb88"></path>
    </g>
    <g id="组_47" transform="translate(1045 231.14)">
      <path id="路径_11" d="M96.148,23.745A52.4,52.4,0,0,0,74.191,4.78a2.045,2.045,0,1,0-1.712,3.715,48.248,48.248,0,1,1-20.163-4.4,2.045,2.045,0,0,0,0-4.09A52.3,52.3,0,1,0,96.148,23.745Z" transform="translate(-0.001)" fill="#683c1e"></path>
      <path id="路径_13" d="M631.52,22.061m-2.045,0a2.045,2.045,0,1,0,2.045-2.045A2.045,2.045,0,0,0,629.475,22.061Z" transform="translate(-565.156 -17.971)" fill="#683c1e"></path>
    </g>
  </g>
</svg>
