<?xml version="1.0" encoding="UTF-8"?>
<svg xmlns="http://www.w3.org/2000/svg" width="104.63" height="104.63" viewBox="0 0 104.63 104.63">
  <g id="泪哭" transform="translate(-542.229 -50.662)">
    <g id="组_9" transform="translate(355.133 -35.381)">
      <path id="路径_29" d="M290.511,138.358a51.1,51.1,0,1,1-51.1-51.1A51.057,51.057,0,0,1,290.511,138.358Zm0,0" transform="translate(0)" fill="#fddf6d"></path>
      <path id="路径_30" d="M250.332,211.62a51.084,51.084,0,0,1-34.167-89.074,51.086,51.086,0,1,0,57.412,83.463,50.4,50.4,0,0,1-23.245,5.611Zm0,0" transform="translate(0 -29.777)" fill="#fcc56b"></path>
      <path id="路径_31" d="M435.055,330.562a2.111,2.111,0,0,1-1.8-1.1,7.586,7.586,0,0,0-6.613-3.908,8,8,0,0,0-6.713,3.908,2.045,2.045,0,0,1-3.507-2.1,11.942,11.942,0,0,1,10.22-5.912,11.794,11.794,0,0,1,10.22,6.012,2,2,0,0,1-.8,2.805A1.211,1.211,0,0,1,435.055,330.562Zm0,0-35.369,0a2.111,2.111,0,0,1-1.8-1.1,7.587,7.587,0,0,0-6.613-3.908,8,8,0,0,0-6.713,3.908,2.045,2.045,0,0,1-3.507-2.1,11.942,11.942,0,0,1,10.22-5.912,11.794,11.794,0,0,1,10.22,6.012,2,2,0,0,1-.8,2.805,1.434,1.434,0,0,1-1,.3Zm0,0,9.719,43.084a26.64,26.64,0,0,1-26.652-26.652h53.4A26.662,26.662,0,0,1,409.405,373.646Zm0,0" transform="translate(-162.38 -197.615)" fill="#8b481b"></path>
      <path id="路径_32" d="M435.328,485.053v4.208a3.165,3.165,0,0,0,3.206,3.206H472.5a3.165,3.165,0,0,0,3.206-3.206v-4.208Zm0,0" transform="translate(-208.442 -335.673)" fill="#f2f2f2"></path>
      <path id="路径_33" d="M450.654,572.887a24.363,24.363,0,0,0-21.742.6,26.727,26.727,0,0,0,21.141,10.42,27.347,27.347,0,0,0,10.721-2.2,23.568,23.568,0,0,0-10.12-8.817Zm0,0" transform="translate(-203.028 -407.877)" fill="#fc4c59"></path>
      <path id="路径_34" d="M296.543,413.142a8.368,8.368,0,1,1-12.324-11.322c3.106-3.407,17.434-6.613,17.434-6.613s-2,14.528-5.11,17.935Zm0,0,57.412-1.9a8.368,8.368,0,1,0,12.324-11.322c-3.106-3.407-17.434-6.613-17.434-6.613s2,14.528,5.11,17.935Zm0,0" transform="translate(-79.075 -258.251)" fill="#3fa9f5"></path>
      <path id="路径_35" d="M502.358,146.415c5.711,1.6,9.519,5.511,8.617,8.617-.9,3.206-6.212,4.409-11.923,2.805s-9.519-5.511-8.617-8.617,6.212-4.409,11.923-2.805Zm0,0" transform="translate(-254.831 -49.337)" fill="#fceb88"></path>
    </g>
    <g id="组_10" transform="translate(341.611 -0.402)">
      <path id="路径_21" d="M96.148,23.745A52.4,52.4,0,0,0,74.191,4.78a2.045,2.045,0,1,0-1.712,3.715,48.248,48.248,0,1,1-20.163-4.4,2.045,2.045,0,0,0,0-4.09A52.3,52.3,0,1,0,96.148,23.745Z" transform="translate(200.616 51.063)" fill="#683c1e"></path>
      <path id="路径_22" d="M631.52,22.061m-2.045,0a2.045,2.045,0,1,0,2.045-2.045A2.045,2.045,0,0,0,629.475,22.061Z" transform="translate(-365.093 32.759)" fill="#683c1e"></path>
    </g>
  </g>
</svg>
