<?xml version="1.0" encoding="UTF-8"?>
<svg xmlns="http://www.w3.org/2000/svg" width="104.63" height="104.63" viewBox="0 0 104.63 104.63">
  <g id="流泪" transform="translate(-727.685 -236.102)">
    <g id="组_41" transform="translate(506.478 152.275)">
      <path id="路径_108" d="M322.631,135.491a49.516,49.516,0,1,1-49.516-49.516,49.474,49.474,0,0,1,49.516,49.516Zm0,0" fill="#fddf6d"></path>
      <path id="路径_109" d="M284.339,207.576a49.5,49.5,0,0,1-33.108-86.313,49.5,49.5,0,1,0,55.632,80.876,49.138,49.138,0,0,1-22.525,5.437Zm0,0" transform="translate(-0.544 -29.948)" fill="#fcc56b"></path>
      <path id="路径_110" d="M476.881,322.972a6.02,6.02,0,1,1-6.02-6.02A5.988,5.988,0,0,1,476.881,322.972Zm0,0,33.981,0a6.02,6.02,0,1,1-6.02-6.02A5.988,5.988,0,0,1,510.863,322.972Zm0,0M499.892,365.3a2.045,2.045,0,0,1-1.748-1.068,10.626,10.626,0,0,0-9.321-5.534,11.138,11.138,0,0,0-9.418,5.534,1.981,1.981,0,0,1-3.4-2.039,15.242,15.242,0,0,1,12.913-7.476,14.588,14.588,0,0,1,12.816,7.573,1.943,1.943,0,0,1-.777,2.719A2.532,2.532,0,0,1,499.892,365.3Zm0,0" transform="translate(-204.737 -196.025)" fill="#8b481b"></path>
      <path id="路径_111" d="M472.778,457.059a6.214,6.214,0,0,1-12.428,0c0-3.5,6.214-12.427,6.214-12.427S472.778,453.564,472.778,457.059Zm0,0" transform="translate(-200.926 -304.383)" fill="#3fa9f5"></path>
      <path id="路径_112" d="M564.219,136.128c5.534,1.553,9.223,5.34,8.35,8.35-.874,3.107-6.02,4.272-11.554,2.718s-9.223-5.34-8.35-8.35S558.685,134.575,564.219,136.128Zm0,0" transform="translate(-279.162 -41.998)" fill="#fceb88"></path>
    </g>
    <g id="组_42" transform="translate(727.685 236.102)">
      <path id="路径_11" d="M96.148,23.745A52.4,52.4,0,0,0,74.191,4.78a2.045,2.045,0,1,0-1.712,3.715,48.248,48.248,0,1,1-20.163-4.4,2.045,2.045,0,0,0,0-4.09A52.3,52.3,0,1,0,96.148,23.745Z" transform="translate(-0.001)" fill="#683c1e"></path>
      <path id="路径_13" d="M631.52,22.061m-2.045,0a2.045,2.045,0,1,0,2.045-2.045A2.045,2.045,0,0,0,629.475,22.061Z" transform="translate(-565.156 -17.971)" fill="#683c1e"></path>
    </g>
  </g>
</svg>
