<?xml version="1.0" encoding="UTF-8"?>
<svg xmlns="http://www.w3.org/2000/svg" width="104.63" height="104.63" viewBox="0 0 104.63 104.63">
  <g id="白眼" transform="translate(-370.412 -48.753)">
    <g id="组_7" transform="translate(137.501 -39.163)">
      <path id="路径_23" d="M336.587,141.186a51.361,51.361,0,1,1-51.361-51.361A51.318,51.318,0,0,1,336.587,141.186Zm0,0" transform="translate(0)" fill="#fddf6d"></path>
      <path id="路径_24" d="M296.2,215.283a51.345,51.345,0,0,1-34.341-89.529,51.348,51.348,0,1,0,57.706,83.89,50.355,50.355,0,0,1-23.364,5.64Zm0,0" transform="translate(0 -30.29)" fill="#fcc56b"></path>
      <path id="路径_25" d="M438.832,236.258a14.9,14.9,0,1,1-14.9-14.9A14.871,14.871,0,0,1,438.832,236.258Zm0,0,41.794,0a14.9,14.9,0,1,1-14.9-14.9A14.871,14.871,0,0,1,480.626,236.258Zm0,0" transform="translate(-147.664 -110.884)" fill="#fff"></path>
      <path id="路径_26" d="M383.249,441.789a6.963,6.963,0,0,0-6.949,6.949h13.8a6.815,6.815,0,0,0-6.848-6.949Zm0,0,60.223-1.007a6.963,6.963,0,0,0-6.949,6.949h13.8A6.814,6.814,0,0,0,443.473,440.782Zm0,0" transform="translate(-120.078 -295.87)" fill="#f9a880"></path>
      <path id="路径_27" d="M462.834,242.466a4.129,4.129,0,1,1-4.129-4.129A4.147,4.147,0,0,1,462.834,242.466Zm0,0,42.3-.3A4.129,4.129,0,1,1,501,238.035,4.084,4.084,0,0,1,505.132,242.164Zm0,0-29.507,56.4a2.3,2.3,0,0,1-1.108-.3,2.027,2.027,0,0,1-.7-2.82,15.81,15.81,0,0,1,13.394-7.755,15.067,15.067,0,0,1,4.733.806,2.07,2.07,0,1,1-1.309,3.928,10.091,10.091,0,0,0-3.424-.5,11.554,11.554,0,0,0-9.769,5.74A2.153,2.153,0,0,1,475.624,298.561Zm0,0" transform="translate(-186.068 -124.947)" fill="#8b481b"></path>
      <path id="路径_28" d="M553.747,139.361c5.74,1.611,9.567,5.539,8.661,8.661-.906,3.223-6.244,4.431-11.984,2.82s-9.567-5.539-8.661-8.661C542.77,139.059,548.108,137.75,553.747,139.361Zm0,0" transform="translate(-259.458 -41.177)" fill="#fceb88"></path>
    </g>
    <g id="组_8" transform="translate(169.795 -2.31)">
      <path id="路径_21" d="M96.148,23.745A52.4,52.4,0,0,0,74.191,4.78a2.045,2.045,0,1,0-1.712,3.715,48.248,48.248,0,1,1-20.163-4.4,2.045,2.045,0,0,0,0-4.09A52.3,52.3,0,1,0,96.148,23.745Z" transform="translate(200.616 51.063)" fill="#683c1e"></path>
      <path id="路径_22" d="M631.52,22.061m-2.045,0a2.045,2.045,0,1,0,2.045-2.045A2.045,2.045,0,0,0,629.475,22.061Z" transform="translate(-365.093 32.759)" fill="#683c1e"></path>
    </g>
  </g>
</svg>
