<?xml version="1.0" encoding="UTF-8"?>
<svg xmlns="http://www.w3.org/2000/svg" width="104.63" height="108.792" viewBox="0 0 104.63 108.792">
  <g id="舌头" transform="translate(-1046.89 -49.446)">
    <g id="组_18" transform="translate(823.365 -32.105)">
      <path id="路径_48" d="M325.515,132.442A49.675,49.675,0,1,1,275.84,82.767,49.692,49.692,0,0,1,325.515,132.442Zm0,0" fill="#fddf6d"></path>
      <path id="路径_49" d="M286.492,202.078a49.663,49.663,0,0,1-33.222-86.589,49.69,49.69,0,1,0,55.792,81.21,49.457,49.457,0,0,1-22.57,5.379Zm0,0" transform="translate(0 -27.343)" fill="#fcc56b"></path>
      <path id="路径_50" d="M366.905,360.247a6.617,6.617,0,0,0-6.644,6.644h13.394a6.707,6.707,0,0,0-6.75-6.644Zm0,0,58.218-.949a6.617,6.617,0,0,0-6.644,6.644h13.394a6.776,6.776,0,0,0-6.75-6.644Zm0,0" transform="translate(-112.053 -231.075)" fill="#f9a880"></path>
      <path id="路径_51" d="M484.881,492.9a20.03,20.03,0,0,1-20.039-20.039h40.183A20.12,20.12,0,0,1,484.881,492.9Zm0,0" transform="translate(-199.443 -325.971)" fill="#8b481b"></path>
      <path id="路径_52" d="M494.356,472.862v3.164a2.387,2.387,0,0,0,2.426,2.426H522.41a2.387,2.387,0,0,0,2.426-2.426v-3.164Zm0,0" transform="translate(-224.105 -325.971)" fill="#f2f2f2"></path>
      <path id="路径_55" d="M421.007,269.513a2.134,2.134,0,0,1-1.9-1.266,1.975,1.975,0,0,1,1.055-2.637l8.332-3.586-8.332-3.691a2.008,2.008,0,0,1,1.582-3.691l12.551,5.484a1.992,1.992,0,0,1,1.16,1.9,2.313,2.313,0,0,1-1.16,1.9l-12.551,5.484C421.64,269.513,421.323,269.513,421.007,269.513Zm0,0,51.89,0a2.482,2.482,0,0,1-.844-.211L459.5,263.818a1.992,1.992,0,0,1-1.16-1.9,2.1,2.1,0,0,1,1.16-1.9l12.551-5.484a2.008,2.008,0,0,1,1.582,3.691l-8.332,3.691,8.332,3.586a2.009,2.009,0,0,1,1.055,2.637,1.862,1.862,0,0,1-1.793,1.371Zm0,0" transform="translate(-161.092 -143.399)" fill="#8b481b"></path>
      <path id="路径_56" d="M513.7,141.527c5.484,1.582,9.281,5.273,8.437,8.437-.844,3.059-6.012,4.324-11.6,2.742-5.484-1.582-9.281-5.273-8.437-8.437C502.944,141.211,508.112,139.945,513.7,141.527Zm0,0" transform="translate(-230.478 -48.53)" fill="#fceb88"></path>
    </g>
    <g id="组_19" transform="translate(846.272 -1.617)">
      <path id="路径_21" d="M96.148,23.745A52.4,52.4,0,0,0,74.191,4.78a2.045,2.045,0,1,0-1.712,3.715,48.248,48.248,0,1,1-20.163-4.4,2.045,2.045,0,0,0,0-4.09A52.3,52.3,0,1,0,96.148,23.745Z" transform="translate(200.616 51.063)" fill="#683c1e"></path>
      <path id="路径_22" d="M631.52,22.061m-2.045,0a2.045,2.045,0,1,0,2.045-2.045A2.045,2.045,0,0,0,629.475,22.061Z" transform="translate(-365.093 32.759)" fill="#683c1e"></path>
    </g>
    <g id="组_20" transform="translate(823.365 -32.105)">
      <path id="路径_53" d="M511.8,533.815H497.669a18.343,18.343,0,0,0-7.8,2.109,23.11,23.11,0,0,0,5.273,4.852,5.221,5.221,0,0,1,2.531,4.535v10.652a11.285,11.285,0,0,0,22.57,0V542.252A8.462,8.462,0,0,0,511.8,533.815Zm0,0" transform="translate(-220.352 -376.904)" fill="#fc4c59"></path>
      <path id="路径_54" d="M584.523,577.268a2,2,0,0,1-2-2v-19.2c0-.211-.527-.738-1.055-1.055a2.008,2.008,0,1,1,2-3.48c.316.211,3.059,1.793,3.059,4.535v19.2a1.882,1.882,0,0,1-2,2Zm0,0" transform="translate(-296.026 -391.459)" fill="#bc3b4a"></path>
    </g>
  </g>
</svg>
