<?xml version="1.0" encoding="UTF-8"?>
<svg xmlns="http://www.w3.org/2000/svg" width="95.631" height="106.191" viewBox="0 0 95.631 106.191">
  <g id="花痴" transform="translate(-236.431 -90.466)">
    <path id="路径_130" d="M328.752,213.619a46.161,46.161,0,1,1-46.161-46.161A46.1,46.1,0,0,1,328.752,213.619Zm0,0" transform="translate(0 -64.682)" fill="#fddf6d"></path>
    <path id="路径_131" d="M292.439,279.319A46.124,46.124,0,0,1,261.563,198.9a46.166,46.166,0,1,0,51.9,75.4,45.129,45.129,0,0,1-21.029,5.026Zm0,0" transform="translate(0 -91.095)" fill="#fcc56b"></path>
    <path id="路径_132" d="M448.3,386.8a13.761,13.761,0,0,1-12-7.078,1.883,1.883,0,0,1,3.283-1.846,9.966,9.966,0,0,0,8.719,5.129,10.511,10.511,0,0,0,8.822-5.129,1.865,1.865,0,0,1,3.18,1.949,14.129,14.129,0,0,1-12,6.975Zm0,0M438.14,351.926a1.839,1.839,0,0,1-1.846-1.846,4.411,4.411,0,0,0-8.822,0,1.846,1.846,0,0,1-3.693,0,8.1,8.1,0,1,1,16.207,0,1.839,1.839,0,0,1-1.846,1.846Zm0,0,31.7,0a1.839,1.839,0,0,1-1.846-1.846,4.411,4.411,0,0,0-8.822,0,1.846,1.846,0,1,1-3.693,0,8.1,8.1,0,1,1,16.207,0A1.777,1.777,0,0,1,469.837,351.926Zm0,0" transform="translate(-157.395 -211.298)" fill="#7f184c"></path>
    <g id="组_51" transform="translate(236.431 101.026)">
      <path id="路径_11" d="M87.879,21.7A47.9,47.9,0,0,0,67.81,4.369a1.869,1.869,0,1,0-1.565,3.4A44.1,44.1,0,1,1,47.817,3.738a1.869,1.869,0,0,0,0-3.738A47.8,47.8,0,1,0,87.879,21.7Z" transform="translate(-0.001)" fill="#683c1e"></path>
      <path id="路径_13" d="M631.344,21.885m-1.869,0a1.869,1.869,0,1,0,1.869-1.869A1.869,1.869,0,0,0,629.475,21.885Z" transform="translate(-570.688 -18.147)" fill="#683c1e"></path>
    </g>
    <path id="路径_133" d="M294.321,90.466c-24.516,0-44.417,6.668-44.417,14.977s19.9,14.977,44.417,14.977,44.417-6.668,44.417-14.977C338.84,97.134,318.94,90.466,294.321,90.466Zm0,22.978c-17.746,0-32.21-3.59-32.21-8s14.361-8,32.21-8c17.746,0,32.21,3.59,32.21,8C326.531,109.751,312.169,113.444,294.321,113.444Zm0,0" transform="translate(-11.319)" fill="#0daed3"></path>
    <path id="路径_134" d="M368.443,434.545a6.282,6.282,0,0,0-6.257,6.257H374.6A6.2,6.2,0,0,0,368.443,434.545Zm0,0,54.059-.821a6.282,6.282,0,0,0-6.257,6.257h12.412A6.069,6.069,0,0,0,422.5,433.724Zm0,0" transform="translate(-105.649 -288.378)" fill="#f9a880"></path>
  </g>
</svg>
