<?xml version="1.0" encoding="UTF-8"?>
<svg xmlns="http://www.w3.org/2000/svg" width="104.63" height="104.63" viewBox="0 0 104.63 104.63">
  <g id="表情" transform="translate(-890.016 -234.102)">
    <g id="组_43" transform="translate(667.301 149.485)">
      <path id="路径_113" d="M327.346,137.207a50.59,50.59,0,1,1-50.59-50.59A50.547,50.547,0,0,1,327.346,137.207Zm0,0" transform="translate(-0.001 0)" fill="#fddf6d"></path>
      <path id="路径_114" d="M287.567,210.731a50.574,50.574,0,0,1-33.826-88.185,50.577,50.577,0,1,0,56.839,82.63,50.2,50.2,0,0,1-23.013,5.555Zm0,0" transform="translate(0 -30.374)" fill="#fcc56b"></path>
      <path id="路径_115" d="M478.82,329.058a20.405,20.405,0,0,1-20.434-20.434h40.968A20.619,20.619,0,0,1,478.82,329.058Zm0,0M468.8,279.46a6.15,6.15,0,1,1-6.15-6.15A6.056,6.056,0,0,1,468.8,279.46Zm0,0,34.719,0a6.15,6.15,0,1,1-6.15-6.15A6,6,0,0,1,503.52,279.46Zm0,0" transform="translate(-194.725 -157.827)" fill="#8b481b"></path>
      <path id="路径_116" d="M512.3,569.225a18.555,18.555,0,0,0-16.665.5,20.535,20.535,0,0,0,16.268,8.035,21.069,21.069,0,0,0,8.233-1.686,19.5,19.5,0,0,0-7.836-6.844Zm0,0" transform="translate(-227.813 -406.525)" fill="#fc4c59"></path>
      <path id="路径_117" d="M374.8,389.063a6.858,6.858,0,0,0-6.845,6.844h13.59A6.712,6.712,0,0,0,374.8,389.063Zm0,0,59.418-.893a6.858,6.858,0,0,0-6.845,6.845h13.59A6.774,6.774,0,0,0,434.223,388.17Zm0,0" transform="translate(-119.873 -254.931)" fill="#f9a880"></path>
      <path id="路径_118" d="M503.338,501.093v3.174a2.456,2.456,0,0,0,2.48,2.48h26.089a2.456,2.456,0,0,0,2.48-2.48v-3.174Zm0,0" transform="translate(-234.32 -350.395)" fill="#f2f2f2"></path>
      <path id="路径_119" d="M566.4,137.426c5.654,1.587,9.424,5.456,8.531,8.531-.893,3.174-6.15,4.365-11.8,2.777s-9.424-5.456-8.531-8.531S560.743,135.838,566.4,137.426Zm0,0" transform="translate(-277.541 -42.377)" fill="#fceb88"></path>
    </g>
    <g id="组_44" transform="translate(890.016 234.102)">
      <path id="路径_11" d="M96.148,23.745A52.4,52.4,0,0,0,74.191,4.78a2.045,2.045,0,1,0-1.712,3.715,48.248,48.248,0,1,1-20.163-4.4,2.045,2.045,0,0,0,0-4.09A52.3,52.3,0,1,0,96.148,23.745Z" transform="translate(-0.001)" fill="#683c1e"></path>
      <path id="路径_13" d="M631.52,22.061m-2.045,0a2.045,2.045,0,1,0,2.045-2.045A2.045,2.045,0,0,0,629.475,22.061Z" transform="translate(-565.156 -17.971)" fill="#683c1e"></path>
    </g>
  </g>
</svg>
