<?xml version="1.0" encoding="UTF-8"?>
<svg xmlns="http://www.w3.org/2000/svg" width="104.63" height="104.63" viewBox="0 0 104.63 104.63">
  <g id="调皮" transform="translate(-41.064 -51.063)">
    <path id="路径_1" d="M337.639,132.088a50.6,50.6,0,1,1-50.6-50.6,50.514,50.514,0,0,1,50.6,50.6Zm0,0" transform="translate(-193.656 -28.709)" fill="#fddf6d"></path>
    <path id="路径_2" d="M297.331,203.27c-27.744,0-50.176-22.083-50.176-49.4a49.74,49.74,0,0,1,16.8-37.055,49.926,49.926,0,0,0-27.526,44.319c0,27.313,22.385,49.294,50.129,49.294,12.888,0,24.564-6,33.418-13.849-6.788,3.487-14.383,6.688-22.647,6.688Zm0,0" transform="translate(-192.518 -57.048)" fill="#fcc56b"></path>
    <path id="路径_3" d="M493.59,351.727a15.183,15.183,0,0,1-13.2-7.739A2.043,2.043,0,1,1,483.966,342a10.86,10.86,0,0,0,9.525,5.656A11.383,11.383,0,0,0,503.116,342a2.025,2.025,0,0,1,3.473,2.084A15.221,15.221,0,0,1,493.59,351.727Zm0,0M517.5,317a2.09,2.09,0,0,1-1.786-1.091,7.513,7.513,0,0,0-6.549-3.87,7.919,7.919,0,0,0-6.648,3.87,2.025,2.025,0,0,1-3.473-2.084,11.826,11.826,0,0,1,10.121-5.854,11.679,11.679,0,0,1,10.121,5.953,1.985,1.985,0,0,1-.794,2.778A2.218,2.218,0,0,1,517.5,317Zm0,0-35.224-2.878a6.152,6.152,0,1,1-6.152-6.152A6.183,6.183,0,0,1,482.279,314.121Zm0,0" transform="translate(-391.083 -220.169)" fill="#8b481b"></path>
    <path id="路径_4" d="M421.644,441.424a6.86,6.86,0,0,0-6.846,6.846H428.49a6.86,6.86,0,0,0-6.846-6.846Zm0,0,50.009,0a6.86,6.86,0,0,0-6.846,6.846H478.4A6.714,6.714,0,0,0,471.652,441.424Zm0,0" transform="translate(-344.438 -332.985)" fill="#f9a880"></path>
    <path id="路径_5" d="M568.226,145.125c5.656,1.588,9.426,5.457,8.533,8.533-.794,3.175-6.053,4.366-11.708,2.778s-9.426-5.457-8.533-8.533S562.67,143.537,568.226,145.125Zm0,0" transform="translate(-464.131 -81.932)" fill="#fceb88"></path>
    <g id="组_4" transform="translate(41.064 51.063)">
      <path id="路径_11" d="M96.148,23.745A52.4,52.4,0,0,0,74.191,4.78a2.045,2.045,0,1,0-1.712,3.715,48.248,48.248,0,1,1-20.163-4.4,2.045,2.045,0,0,0,0-4.09A52.3,52.3,0,1,0,96.148,23.745Z" transform="translate(-0.001)" fill="#683c1e"></path>
      <path id="路径_13" d="M631.52,22.061m-2.045,0a2.045,2.045,0,1,0,2.045-2.045A2.045,2.045,0,0,0,629.475,22.061Z" transform="translate(-565.156 -17.971)" fill="#683c1e"></path>
    </g>
  </g>
</svg>
