<?xml version="1.0" encoding="UTF-8"?>
<svg xmlns="http://www.w3.org/2000/svg" width="110.301" height="106.9" viewBox="0 0 110.301 106.9">
  <g id="酷" transform="translate(0 -15.79)">
    <path id="路径_195" d="M70.759,86.535m-51.361,0A51.361,51.361,0,1,0,70.759,35.174,51.361,51.361,0,0,0,19.4,86.535Z" transform="translate(-17.309 -17.296)" fill="#fddf6d"></path>
    <path id="路径_196" d="M81.765,176.738A51.358,51.358,0,0,1,47.409,87.2a51.365,51.365,0,1,0,57.706,83.933,51.146,51.146,0,0,1-23.35,5.6Z" transform="translate(-17.309 -63.72)" fill="#fcc56b"></path>
    <path id="路径_197" d="M234.092,518.837a6.906,6.906,0,0,0-6.907,6.906H241A6.906,6.906,0,0,0,234.092,518.837Zm60.241,0a6.906,6.906,0,0,0-6.907,6.906H301.24a6.906,6.906,0,0,0-6.906-6.906Z" transform="translate(-202.714 -448.861)" fill="#f9a880"></path>
    <path id="路径_198" d="M221.761,238.489c13.411-3.078,24.267-2.019,36.293.784a28.631,28.631,0,0,0,5.657.939,39.36,39.36,0,0,0,10.249-1.53c12.678-3.185,22.582-1.528,32.126.511l-.705,5.64c-1.49.033-1.958.728-2.384,2.084-2.228,7.1-.33,19.309-16.8,17.873-10.834-.945-13.937-3.913-19.1-16.964-.439-1.11-.725-2.945-3.234-2.877-1.417.038-2.684.289-3.125,2.75-.824,4.586-7.086,17.047-19.8,17.033-11.231-.012-15.515-5.842-16.027-18.687a2.049,2.049,0,0,0-2.287-1.917l-.861-5.64Z" transform="translate(-197.874 -197.046)" fill="#56586f"></path>
    <path id="路径_199" d="M337.595,237.469l-7.843,26.747a19.818,19.818,0,0,0,7.543,1.271l.157,0,7.98-27.213c-2.61-.395-5.208-.671-7.837-.8Zm48.773.217A56.84,56.84,0,0,0,378.2,238l-7,23.878a14.96,14.96,0,0,0,7.16,3.112l8.008-27.308Z" transform="translate(-294.232 -197.801)" fill="#737891"></path>
    <path id="路径_200" d="M423.324,689.1a20.79,20.79,0,0,1-20.79-20.79h41.579a20.79,20.79,0,0,1-20.79,20.79Z" transform="translate(-359.175 -582.236)" fill="#8b481b"></path>
    <path id="路径_201" d="M449.627,668.308v3.245a2.477,2.477,0,0,0,2.477,2.477h26.479a2.477,2.477,0,0,0,2.477-2.477v-3.245Z" transform="translate(-401.195 -582.232)" fill="#f2f2f2"></path>
    <path id="路径_202" d="M459.489,766.587a18.889,18.889,0,0,0-16.913.476,20.785,20.785,0,0,0,24.832,6.407,18.854,18.854,0,0,0-7.919-6.883Z" transform="translate(-394.904 -668.346)" fill="#fc4c59"></path>
    <path id="路径_203" d="M108.648,40.1c-9.978-2.132-20.015-3.774-33.072-.494A37.269,37.269,0,0,1,65.9,41.078a25.44,25.44,0,0,1-4.959-.819l-.287-.067c-10.477-2.442-22.239-4.227-37.234-.786a2.089,2.089,0,0,0-1.6,2.352l.862,5.64A2.089,2.089,0,0,0,24.7,49.172a1.516,1.516,0,0,1,.251.025c.3,7.11,1.717,11.971,4.468,15.292,2.942,3.551,7.4,5.281,13.64,5.287h.023a21,21,0,0,0,15.9-7.5,25.862,25.862,0,0,0,5.932-11.256,1.91,1.91,0,0,1,.319-.927,1.994,1.994,0,0,1,.807-.1c.651-.017.675-.017,1.045,1.039.064.182.125.356.189.518,2.52,6.369,4.732,10.9,7.971,13.808,3.425,3.075,7.63,4.01,12.891,4.469q1.422.124,2.723.124c5.224,0,9-1.5,11.5-4.56.064-.078.121-.158.182-.237q.167,2.036.17,4.087A49.271,49.271,0,1,1,53.449,19.968,48.823,48.823,0,0,1,83.287,30.027,2.089,2.089,0,0,0,85.82,26.7,52.97,52.97,0,0,0,53.449,15.79a53.424,53.424,0,1,0,52.192,41.9c.206-.969.377-1.932.54-2.861a35.886,35.886,0,0,1,.934-4.328,4.168,4.168,0,0,1,.228-.606,1.888,1.888,0,0,1,.209-.015,2.089,2.089,0,0,0,2.027-1.83l.7-5.64a2.088,2.088,0,0,0-1.636-2.3Zm-3.032,5.963a4.653,4.653,0,0,0-2.487,3.178,38.8,38.8,0,0,0-1.063,4.856c-.138.785-.275,1.557-.425,2.308a2.081,2.081,0,0,0-.269,1.235c-1.206,5.079-3.58,8.828-12.867,8.019-9.818-.856-12.411-3.2-17.339-15.652-.045-.113-.087-.235-.131-.362-.405-1.157-1.344-3.837-4.9-3.837l-.2,0c-1.189.032-4.345.117-5.126,4.469C60.1,54.212,54.372,65.6,43.083,65.6h-.018c-9.679-.011-13.457-4.532-13.941-16.681A3.882,3.882,0,0,0,26.6,45.341l-.347-2.27c13.278-2.688,23.917-1.031,33.456,1.192l.284.066a29.07,29.07,0,0,0,5.783.927A40.779,40.779,0,0,0,76.6,43.664c11.384-2.86,20.437-1.683,29.305.135l-.284,2.269Z" transform="translate(0)" fill="#683c1e"></path>
    <path id="路径_205" d="M815.336,156.932m-2.089,0a2.089,2.089,0,1,0,2.089-2.089A2.089,2.089,0,0,0,813.247,156.932Z" transform="translate(-725.648 -124.075)" fill="#683c1e"></path>
  </g>
</svg>
